<?xml version="1.0" encoding="UTF-8" standalone="no"?>
<!-- Created with Inkscape (http://www.inkscape.org/) -->

<svg
   width="2.25in"
   height="2.25in"
   viewBox="0 0 57.150001 57.150003"
   version="1.1"
   id="svg8"
   inkscape:version="1.1.2 (0a00cf5339, 2022-02-04)"
   sodipodi:docname="logo.svg"
   inkscape:export-filename="/media/MEGA/Design/graphic/contracts/mosel/business-cards/business-card-caroline-pen.png"
   inkscape:export-xdpi="600.00006"
   inkscape:export-ydpi="600.00006"
   xmlns:inkscape="http://www.inkscape.org/namespaces/inkscape"
   xmlns:sodipodi="http://sodipodi.sourceforge.net/DTD/sodipodi-0.dtd"
   xmlns="http://www.w3.org/2000/svg"
   xmlns:svg="http://www.w3.org/2000/svg"
   xmlns:rdf="http://www.w3.org/1999/02/22-rdf-syntax-ns#"
   xmlns:cc="http://creativecommons.org/ns#"
   xmlns:dc="http://purl.org/dc/elements/1.1/">
  <defs
     id="defs2" />
  <sodipodi:namedview
     id="base"
     pagecolor="#ffffff"
     bordercolor="#ff0000"
     borderopacity="1"
     inkscape:pageopacity="0.0"
     inkscape:pageshadow="2"
     inkscape:zoom="8.6759259"
     inkscape:cx="108"
     inkscape:cy="108"
     inkscape:document-units="in"
     inkscape:current-layer="layer1"
     showgrid="false"
     units="in"
     inkscape:showpageshadow="false"
     borderlayer="true"
     inkscape:snap-bbox="true"
     inkscape:bbox-paths="true"
     inkscape:bbox-nodes="true"
     inkscape:snap-bbox-edge-midpoints="true"
     inkscape:snap-bbox-midpoints="true"
     inkscape:object-paths="true"
     inkscape:snap-intersection-paths="true"
     inkscape:snap-smooth-nodes="true"
     inkscape:snap-midpoints="true"
     inkscape:snap-object-midpoints="true"
     inkscape:snap-center="true"
     inkscape:snap-page="true"
     inkscape:window-width="3840"
     inkscape:window-height="2089"
     inkscape:window-x="0"
     inkscape:window-y="0"
     inkscape:window-maximized="1"
     inkscape:snap-grids="true"
     showguides="false"
     inkscape:guide-bbox="true"
     inkscape:snap-global="true"
     inkscape:snap-to-guides="true"
     inkscape:snap-text-baseline="true"
     inkscape:measure-start="0,0"
     inkscape:measure-end="0,0"
     inkscape:pagecheckerboard="0"
     fit-margin-top="0"
     fit-margin-left="0"
     fit-margin-right="0"
     fit-margin-bottom="0">
    <inkscape:grid
       type="xygrid"
       id="grid1559"
       originx="2.6458333"
       originy="2.1695876" />
    <sodipodi:guide
       position="-58.208335,123.29583"
       orientation="0,1"
       id="guide1631"
       inkscape:locked="false" />
    <sodipodi:guide
       position="82.020836,6.8791639"
       orientation="0,1"
       id="guide1641"
       inkscape:locked="false" />
    <sodipodi:guide
       position="87.312501,-5.0270865"
       orientation="1,0"
       id="guide1643"
       inkscape:locked="false" />
    <sodipodi:guide
       position="7.9375003,45.24375"
       orientation="1,0"
       id="guide1649"
       inkscape:locked="false" />
    <sodipodi:guide
       position="-7.3633844,59.874492"
       orientation="0,1"
       id="guide2208"
       inkscape:locked="false" />
    <sodipodi:guide
       position="-7.3633844,28.945407"
       orientation="1,0"
       id="guide2210"
       inkscape:locked="false" />
    <sodipodi:guide
       position="29.984693,-2.0660701"
       orientation="0,1"
       id="guide2212"
       inkscape:locked="false" />
    <sodipodi:guide
       position="102.57104,25.715694"
       orientation="1,0"
       id="guide2214"
       inkscape:locked="false" />
    <sodipodi:guide
       position="87.164962,88.265673"
       orientation="0,1"
       id="guide306"
       inkscape:locked="false" />
    <sodipodi:guide
       position="87.310474,77.959042"
       orientation="0,1"
       id="guide324"
       inkscape:locked="false" />
    <sodipodi:guide
       position="27.703242,59.874492"
       orientation="1,0"
       id="guide4970"
       inkscape:locked="false" />
    <sodipodi:guide
       position="70.082828,31.59125"
       orientation="1,0"
       id="guide4972"
       inkscape:locked="false" />
    <sodipodi:guide
       position="70.082826,31.591251"
       orientation="0,1"
       id="guide4974"
       inkscape:locked="false" />
    <sodipodi:guide
       position="58.843334,27.342558"
       orientation="1,0"
       id="guide4978"
       inkscape:locked="false" />
    <sodipodi:guide
       position="52.916666,2.9104138"
       orientation="1,0"
       id="guide5061"
       inkscape:locked="false" />
    <sodipodi:guide
       position="2.6458335,31.591252"
       orientation="1,0"
       id="guide1170"
       inkscape:locked="false" />
    <sodipodi:guide
       position="55.562501,62.441666"
       orientation="1,0"
       id="guide1172"
       inkscape:locked="false" />
    <sodipodi:guide
       position="23.812499,50.535417"
       orientation="0,1"
       id="guide1598"
       inkscape:locked="false" />
    <sodipodi:guide
       position="56.769637,29.083233"
       orientation="0,1"
       id="guide1906"
       inkscape:locked="false" />
    <sodipodi:guide
       position="56.528013,26.347955"
       orientation="0,1"
       id="guide1908"
       inkscape:locked="false" />
  </sodipodi:namedview>
  <metadata
     id="metadata5">
    <rdf:RDF>
      <cc:Work
         rdf:about="">
        <dc:format>image/svg+xml</dc:format>
        <dc:type
           rdf:resource="http://purl.org/dc/dcmitype/StillImage" />
      </cc:Work>
    </rdf:RDF>
  </metadata>
  <g
     inkscape:label="Card"
     inkscape:groupmode="layer"
     id="layer1"
     transform="translate(2.6458335,-242.76039)"
     style="display:inline">
    <flowRoot
       xml:space="preserve"
       id="flowRoot334"
       style="font-style:normal;font-variant:normal;font-weight:normal;font-stretch:normal;font-size:40px;line-height:1.25;font-family:'Frank Ruhl Libre';-inkscape-font-specification:'Frank Ruhl Libre';letter-spacing:0px;word-spacing:0px;fill:#000000;fill-opacity:1;stroke:none"><flowRegion
         id="flowRegion336"><rect
           id="rect338"
           width="532.52264"
           height="312.52484"
           x="-100.89384"
           y="-28.611616" /></flowRegion><flowPara
         id="flowPara340" /></flowRoot>
    <rect
       id="rect4024"
       width="57.150002"
       height="57.150002"
       x="-2.6458335"
       y="242.76039"
       style="fill:#00aa88;fill-opacity:1;stroke:none;stroke-width:0.275602" />
    <path
       id="path348"
       style="font-style:normal;font-variant:normal;font-weight:normal;font-stretch:normal;font-size:medium;line-height:1.25;font-family:'Lobster 1.4';-inkscape-font-specification:'Lobster 1.4, ';letter-spacing:0px;word-spacing:0px;fill:#ffffff;fill-opacity:1;stroke:none;stroke-width:0.356378"
       d="m 58.904297,102.68945 c 0,0.034 -0.03516,0.0881 -0.03516,0.10547 0.0038,-0.0151 0.0088,-0.0238 0.01367,-0.0352 0.0073,-0.0219 0.01682,-0.0477 0.02148,-0.0703 z"
       transform="matrix(0.26458334,0,0,0.26458334,-2.6458335,242.76039)" />
    <path
       id="path260"
       style="font-style:normal;font-variant:normal;font-weight:normal;font-stretch:normal;font-size:medium;line-height:1.25;font-family:'Lobster 1.4';-inkscape-font-specification:'Lobster 1.4, ';letter-spacing:0px;word-spacing:0px;fill:#ffffff;fill-opacity:1;stroke:none;stroke-width:0.356378"
       d="m 87.669922,85.943359 a 0.56294001,0.56294001 0 0 1 0.564453,0.5625 0.56294001,0.56294001 0 0 1 -0.564453,0.564453 0.56294001,0.56294001 0 0 1 -0.5625,-0.564453 0.56294001,0.56294001 0 0 1 0.5625,-0.5625 z"
       transform="matrix(0.26458334,0,0,0.26458334,-2.6458335,242.76039)" />
    <path
       id="path258"
       style="font-style:normal;font-variant:normal;font-weight:normal;font-stretch:normal;font-size:medium;line-height:1.25;font-family:'Lobster 1.4';-inkscape-font-specification:'Lobster 1.4, ';letter-spacing:0px;word-spacing:0px;fill:#ffffff;fill-opacity:1;stroke:none;stroke-width:0.356378"
       d="m 89.429688,64.552734 a 7.4589442,7.4589442 0 0 1 7.458984,7.458985 7.4589442,7.4589442 0 0 1 -7.458984,7.458984 7.4589442,7.4589442 0 0 1 -7.458985,-7.458984 7.4589442,7.4589442 0 0 1 7.458985,-7.458985 z"
       transform="matrix(0.26458334,0,0,0.26458334,-2.6458335,242.76039)" />
    <path
       id="path256"
       style="font-style:normal;font-variant:normal;font-weight:normal;font-stretch:normal;font-size:medium;line-height:1.25;font-family:'Lobster 1.4';-inkscape-font-specification:'Lobster 1.4, ';letter-spacing:0px;word-spacing:0px;fill:#ffffff;fill-opacity:1;stroke:none;stroke-width:0.356378"
       d="m 65.824219,30.03125 h 77.984371 c -3.26295,8.741291 -4.92863,17.344524 -5.54687,25.501953 -11.77522,5.803956 -21.47453,9.0128 -33.6582,3.400391 C 89.748527,52.012674 75.956127,56.478038 71.525391,58.28125 71.096025,49.3339 69.464973,39.768598 65.824219,30.03125 Z"
       transform="matrix(0.26458334,0,0,0.26458334,-2.6458335,242.76039)" />
    <path
       id="path252"
       style="font-style:normal;font-variant:normal;font-weight:normal;font-stretch:normal;font-size:medium;line-height:1.25;font-family:'Lobster 1.4';-inkscape-font-specification:'Lobster 1.4, ';letter-spacing:0px;word-spacing:0px;fill:#ffffff;fill-opacity:1;stroke:none;stroke-width:0.356378"
       d="m 58.234375,25 c 14.099358,29.572574 7.075886,58.954912 2.919922,71.542969 0.03439,-0.06992 0.08674,-0.138437 0.121094,-0.22461 -0.0686,0.188976 -0.138739,0.379421 -0.22461,0.56836 0.03439,-0.120189 0.06763,-0.223561 0.119141,-0.34375 -0.0686,0.154583 -0.118331,0.325847 -0.169922,0.480469 -0.807148,1.820409 -1.495771,3.691872 -2.0625,5.615232 -0.01398,0.0419 -0.03639,0.0834 -0.05469,0.125 -0.01663,0.0559 -0.03681,0.10788 -0.04883,0.16797 -1.064745,3.81252 -1.68164,7.7792 -1.68164,11.91797 0,20.21306 13.636602,34.12502 32.527344,38.93359 l 3.382812,8.20899 c 1.15062,3.15987 2.249159,5.03125 5.03125,5.03125 h 2.111334 V 216 h 9.20508 v -48.97656 h 1.68359 c 2.78209,0 3.7776,-1.73399 5.03125,-5.03125 l 3.33203,-8.07227 c 19.16552,-4.65399 33.04102,-18.65073 33.04102,-39.05273 0,-4.12165 -0.61694,-8.10545 -1.68164,-11.91797 -0.0344,-0.1028 -0.0693,-0.17164 -0.10352,-0.25781 0.0174,0.0227 0.0341,0.0861 0.0508,0.10351 -0.0174,-0.0491 -0.0516,-0.10309 -0.0684,-0.17187 -0.54953,-1.92344 -1.253,-3.77725 -2.04297,-5.597659 -0.0686,-0.154583 -0.10316,-0.327802 -0.17187,-0.482422 0.0344,0.120567 0.0849,0.224317 0.11914,0.34375 -0.0729,-0.114566 -0.108,-0.229192 -0.1543,-0.34375 C 144.30651,83.954836 137.28305,54.572536 151.36523,25 Z m 19.197266,47.292969 a 1.1610632,1.1610632 0 0 1 1.162109,1.160156 1.1610632,1.1610632 0 0 1 -1.162109,1.162109 1.1610632,1.1610632 0 0 1 -1.160157,-1.162109 1.1610632,1.1610632 0 0 1 1.160157,-1.160156 z m 42.207029,0.07227 V 140.5293 c 0,1.4791 0.59635,2.21678 1.79102,2.21679 0.45511,0 1.16766,-0.14133 2.13476,-0.42578 v 1.53516 l -8.44922,1.96289 c -0.56888,0.17056 -1.08004,0.25586 -1.53515,0.25586 -1.47911,0 -2.21875,-0.73964 -2.21875,-2.21875 v -3.9668 c -2.08926,4.17841 -5.98428,6.27149 -11.691408,6.27149 -5.006221,0 -8.760559,-3.7834 -11.263672,-11.34961 -1.706666,-5.23379 -2.560547,-10.86628 -2.560547,-16.89649 0,-5.34755 1.167556,-10.0119 3.5,-13.99414 2.730668,-4.83555 6.599251,-7.251951 11.605467,-7.251951 2.21867,0 4.2943,0.6254 6.22852,1.876953 1.74034,1.1261 3.13214,2.554478 4.18164,4.279298 V 78.167969 c 0,-0.853342 -0.25558,-1.366451 -0.76758,-1.53711 -0.512,-0.227527 -1.08125,-0.424994 -1.70703,-0.595703 -0.62578,-0.170584 -0.93945,-0.39907 -0.93945,-0.683594 0,-0.227527 0.31367,-0.397904 0.93945,-0.511718 1.82045,-0.341317 5.4044,-1.166162 10.75195,-2.47461 z m -39.673826,3.515625 a 0.56294001,0.56294001 0 0 1 0.564453,0.564453 0.56294001,0.56294001 0 0 1 -0.564453,0.5625 0.56294001,0.56294001 0 0 1 -0.5625,-0.5625 0.56294001,0.56294001 0 0 1 0.5625,-0.564453 z m 0.175781,3.589844 a 4.5035124,4.5035124 0 0 1 4.503906,4.501953 4.5035124,4.5035124 0 0 1 -4.503906,4.503906 4.5035124,4.5035124 0 0 1 -4.501953,-4.503906 4.5035124,4.5035124 0 0 1 4.501953,-4.501953 z m 10.0625,2.884766 a 1.1610632,1.1610632 0 0 1 1.162109,1.160156 1.1610632,1.1610632 0 0 1 -1.162109,1.162109 1.1610632,1.1610632 0 0 1 -1.160156,-1.162109 1.1610632,1.1610632 0 0 1 1.160156,-1.160156 z m -4.996094,6.121093 a 2.5332276,2.5332276 0 0 1 2.533203,2.533204 2.5332276,2.5332276 0 0 1 -2.533203,2.533203 2.5332276,2.5332276 0 0 1 -2.533203,-2.533203 2.5332276,2.5332276 0 0 1 2.533203,-2.533204 z m 16.339849,11.177735 c -4.949339,0 -7.423833,5.262658 -7.423833,15.787118 0,7.68 1.138502,14.36384 3.414062,20.05272 1.251553,2.90134 2.701781,5.03508 4.351561,6.40039 1.08089,0.79645 2.04901,1.19336 2.90235,1.19336 1.70666,0 3.38342,-1.25081 5.0332,-3.7539 0.71068,-1.14805 1.22043,-2.20825 1.53711,-3.18555 v -28.30077 c -0.53327,-1.73137 -1.60604,-3.3832 -3.24219,-4.95118 -2.27555,-2.16178 -4.46737,-3.242188 -6.57226,-3.242188 z"
       transform="matrix(0.26458334,0,0,0.26458334,-2.6458335,242.76039)" />
    <flowRoot
       xml:space="preserve"
       id="flowRoot56"
       style="font-style:normal;font-variant:normal;font-weight:normal;font-stretch:normal;font-size:40px;line-height:1.25;font-family:sans-serif;-inkscape-font-specification:'Lobster 1.4, ';letter-spacing:0px;word-spacing:0px;fill:#000000;fill-opacity:1;stroke:none;stroke-width:0.356377"
       transform="matrix(0.7424244,0,0,0.7424244,-61.557694,194.08525)"><flowRegion
         id="flowRegion58"><rect
           id="rect60"
           width="39.299423"
           height="57.233685"
           x="-650.69531"
           y="-23.534466" /></flowRegion><flowPara
         id="flowPara62" /></flowRoot>
    <flowRoot
       xml:space="preserve"
       id="flowRoot1174"
       style="font-style:normal;font-weight:normal;font-size:13.3333px;line-height:1.25;font-family:sans-serif;letter-spacing:0px;word-spacing:0px;fill:#000000;fill-opacity:1;stroke:none"><flowRegion
         id="flowRegion1176"
         style="font-size:13.3333px"><rect
           id="rect1178"
           width="130"
           height="160"
           x="200"
           y="16.799995"
           style="font-size:13.33333333px;" /></flowRegion><flowPara
         id="flowPara1180" /></flowRoot>
    <flowRoot
       xml:space="preserve"
       id="flowRoot1196"
       style="font-style:normal;font-weight:normal;font-size:40px;line-height:1.25;font-family:sans-serif;letter-spacing:0px;word-spacing:0px;fill:#000000;fill-opacity:1;stroke:none"
       transform="matrix(0.26458335,0,0,0.26458335,0,244.92998)"><flowRegion
         id="flowRegion1198"><rect
           id="rect1200"
           width="119.99999"
           height="160"
           x="200"
           y="16.799995" /></flowRegion><flowPara
         id="flowPara1202">DominiqMosel</flowPara><flowPara
         id="flowPara1204" /></flowRoot>
  </g>
</svg>
