<?xml version="1.0" encoding="utf-8"?>
<!-- Generator: Adobe Illustrator 15.0.0, SVG Export Plug-In . SVG Version: 6.00 Build 0)  -->
<!DOCTYPE svg PUBLIC "-//W3C//DTD SVG 1.1//EN" "http://www.w3.org/Graphics/SVG/1.1/DTD/svg11.dtd">
<svg version="1.1" id="Layer_1" xmlns="http://www.w3.org/2000/svg" xmlns:xlink="http://www.w3.org/1999/xlink" x="0px" y="0px"
	 width="1728px" height="1728px" viewBox="0 0 1728 1728" enable-background="new 0 0 1728 1728" xml:space="preserve">
<g>
	
		<polygon fill="none" stroke="#404041" stroke-width="5" stroke-linecap="round" stroke-linejoin="round" stroke-miterlimit="10" points="
		-4160.983,792.903 -4191.986,431.181 -4017.286,431.181 	"/>
	
		<polygon fill="none" stroke="#404041" stroke-width="5" stroke-linecap="round" stroke-linejoin="round" stroke-miterlimit="10" points="
		-4160.983,792.903 -3924.332,522.821 -4017.286,431.181 	"/>
	
		<polygon fill="none" stroke="#6D6E70" stroke-width="5" stroke-linecap="round" stroke-linejoin="round" stroke-miterlimit="10" points="
		-4439.54,522.585 -4738.265,472.978 -4823.668,605.417 	"/>
	
		<polygon fill="none" stroke="#6D6E70" stroke-width="5" stroke-linecap="round" stroke-linejoin="round" stroke-miterlimit="10" points="
		-4403.455,654.729 -4191.986,431.181 -4017.286,431.181 	"/>
	
		<polygon fill="none" stroke="#6D6E70" stroke-width="5" stroke-linecap="round" stroke-linejoin="round" stroke-miterlimit="10" points="
		-4403.455,654.729 -4329.159,737.163 -3924.332,522.821 	"/>
	
		<polygon fill="none" stroke="#D0D2D3" stroke-width="5" stroke-linecap="round" stroke-linejoin="round" stroke-miterlimit="10" points="
		-4738.265,472.978 -4403.455,654.729 -4439.54,522.585 	"/>
	
		<polygon fill="none" stroke="#929497" stroke-width="5" stroke-linecap="round" stroke-linejoin="round" stroke-miterlimit="10" points="
		-4439.54,522.585 -4191.986,431.181 -4403.455,654.729 	"/>
	
		<polygon fill="none" stroke="#6D6E70" stroke-width="5" stroke-linecap="round" stroke-linejoin="round" stroke-miterlimit="10" points="
		-4403.455,654.729 -4160.983,792.903 -4329.159,737.163 	"/>
	
		<polygon fill="none" stroke="#D0D2D3" stroke-width="5" stroke-linecap="round" stroke-linejoin="round" stroke-miterlimit="10" points="
		-4403.455,654.729 -4329.159,737.163 -4212.332,1296.819 	"/>
	
		<polygon fill="none" stroke="#D0D2D3" stroke-width="5" stroke-linecap="round" stroke-linejoin="round" stroke-miterlimit="10" points="
		-4329.159,737.163 -4160.983,792.903 -4212.332,1296.819 	"/>
</g>
<g>
	
		<polygon fill="none" stroke="#404041" stroke-width="5" stroke-linecap="round" stroke-linejoin="round" stroke-miterlimit="10" points="
		-2618.808,917.645 -2649.811,555.924 -2475.111,555.924 	"/>
	
		<polygon fill="none" stroke="#404041" stroke-width="5" stroke-linecap="round" stroke-linejoin="round" stroke-miterlimit="10" points="
		-2618.808,917.645 -2382.157,647.563 -2475.111,555.924 	"/>
	
		<polygon fill="none" stroke="#6D6E70" stroke-width="5" stroke-linecap="round" stroke-linejoin="round" stroke-miterlimit="10" points="
		-2897.365,647.328 -3196.089,597.721 -3281.493,730.158 	"/>
	
		<polygon fill="none" stroke="#6D6E70" stroke-width="5" stroke-linecap="round" stroke-linejoin="round" stroke-miterlimit="10" points="
		-2876.493,769.5 -2649.811,555.924 -2475.111,555.924 	"/>
	
		<polygon fill="none" stroke="#6D6E70" stroke-width="5" stroke-linecap="round" stroke-linejoin="round" stroke-miterlimit="10" points="
		-2876.493,769.5 -2786.984,861.904 -2382.157,647.563 	"/>
	
		<polygon fill="none" stroke="#D0D2D3" stroke-width="5" stroke-linecap="round" stroke-linejoin="round" stroke-miterlimit="10" points="
		-3196.089,597.721 -2876.493,769.5 -2897.365,647.328 	"/>
	
		<polygon fill="none" stroke="#929497" stroke-width="5" stroke-linecap="round" stroke-linejoin="round" stroke-miterlimit="10" points="
		-2897.365,647.328 -2649.811,555.924 -2876.493,769.5 	"/>
	
		<polygon fill="none" stroke="#6D6E70" stroke-width="5" stroke-linecap="round" stroke-linejoin="round" stroke-miterlimit="10" points="
		-2876.493,769.5 -2618.808,917.645 -2786.984,861.904 	"/>
	
		<polygon fill="none" stroke="#D0D2D3" stroke-width="5" stroke-linecap="round" stroke-linejoin="round" stroke-miterlimit="10" points="
		-2876.493,769.5 -2786.984,861.904 -2732.493,1417.5 	"/>
	
		<polygon fill="none" stroke="#D0D2D3" stroke-width="5" stroke-linecap="round" stroke-linejoin="round" stroke-miterlimit="10" points="
		-2786.984,861.904 -2618.808,917.645 -2732.493,1417.5 	"/>
	
		<polygon fill="none" stroke="#404041" stroke-width="5" stroke-linecap="round" stroke-linejoin="round" stroke-miterlimit="10" points="
		-2046.95,412.248 -1974.507,310.5 -2309.493,346.5 	"/>
	
		<polygon fill="none" stroke="#6D6E70" stroke-width="5" stroke-linecap="round" stroke-linejoin="round" stroke-miterlimit="10" points="
		-2309.493,346.5 -2281.376,449.69 -2046.95,412.248 	"/>
	
		<polygon fill="none" stroke="#929497" stroke-width="5" stroke-linecap="round" stroke-linejoin="round" stroke-miterlimit="10" points="
		-2475.111,555.924 -2281.376,449.69 -2309.493,346.5 	"/>
	
		<polygon fill="none" stroke="#D0D2D3" stroke-width="5" stroke-linecap="round" stroke-linejoin="round" stroke-miterlimit="10" points="
		-2382.157,647.563 -2281.376,449.69 -2475.111,555.924 	"/>
</g>
<g>
	
		<polygon fill="none" stroke="#404041" stroke-width="5" stroke-linecap="round" stroke-linejoin="round" stroke-miterlimit="10" points="
		-847.341,1080 -886.009,702 -712.79,702 	"/>
	
		<polygon fill="none" stroke="#404041" stroke-width="5" stroke-linecap="round" stroke-linejoin="round" stroke-miterlimit="10" points="
		-847.341,1080 -619.659,802.625 -712.79,702 	"/>
	
		<polygon fill="none" stroke="#6D6E70" stroke-width="5" stroke-linecap="round" stroke-linejoin="round" stroke-miterlimit="10" points="
		-1099.341,936.972 -886.009,702 -712.79,702 	"/>
	
		<polygon fill="none" stroke="#6D6E70" stroke-width="5" stroke-linecap="round" stroke-linejoin="round" stroke-miterlimit="10" points="
		-1099.341,936.972 -1027.341,1035 -619.659,802.625 	"/>
	
		<polygon fill="none" stroke="#929497" stroke-width="5" stroke-linecap="round" stroke-linejoin="round" stroke-miterlimit="10" points="
		-1135.341,828 -886.009,702 -1099.341,936.972 	"/>
	
		<polygon fill="none" stroke="#6D6E70" stroke-width="5" stroke-linecap="round" stroke-linejoin="round" stroke-miterlimit="10" points="
		-1099.341,936.972 -847.341,1080 -1027.341,1035 	"/>
	
		<polygon fill="none" stroke="#6D6E70" stroke-width="5" stroke-linecap="round" stroke-linejoin="round" stroke-miterlimit="10" points="
		-847.341,1080 -775.341,1188 -619.659,802.625 	"/>
	
		<polygon fill="none" stroke="#D0D2D3" stroke-width="5" stroke-linecap="round" stroke-linejoin="round" stroke-miterlimit="10" points="
		-1027.341,1035 -1144.341,1188 -847.341,1080 	"/>
	
		<polygon fill="none" stroke="#D0D2D3" stroke-width="5" stroke-linecap="round" stroke-linejoin="round" stroke-miterlimit="10" points="
		-1144.341,1188 -775.341,1188 -919.341,1332 	"/>
	
		<polygon fill="none" stroke="#404041" stroke-width="5" stroke-linecap="round" stroke-linejoin="round" stroke-miterlimit="10" points="
		-886.009,702 -712.79,702 -775.341,396 	"/>
	
		<polygon fill="none" stroke="#6D6E70" stroke-width="5" stroke-linecap="round" stroke-linejoin="round" stroke-miterlimit="10" points="
		-619.659,802.625 -775.341,396 -712.79,702 	"/>
	
		<polygon fill="none" stroke="#6D6E70" stroke-width="5" stroke-linecap="round" stroke-linejoin="round" stroke-miterlimit="10" points="
		-775.341,396 -886.009,702 -1135.341,828 	"/>
	
		<polygon fill="none" stroke="#D0D2D3" stroke-width="5" stroke-linecap="round" stroke-linejoin="round" stroke-miterlimit="10" points="
		-1027.341,1035 -619.659,802.625 -919.341,1332 	"/>
</g>
<g>
	
		<polygon fill="none" stroke="#404041" stroke-width="5" stroke-linecap="round" stroke-linejoin="round" stroke-miterlimit="10" points="
		-4315.5,2547 -4423.5,2570.436 -4360.5,2151 	"/>
	
		<polygon fill="none" stroke="#404041" stroke-width="5" stroke-linecap="round" stroke-linejoin="round" stroke-miterlimit="10" points="
		-4560.221,2813.684 -4117.5,2772 -4162.5,2970 	"/>
	
		<polygon fill="none" stroke="#404041" stroke-width="5" stroke-linecap="round" stroke-linejoin="round" stroke-miterlimit="10" points="
		-4560.221,2813.684 -4306.5,3069 -4162.5,2970 	"/>
	
		<polygon fill="none" stroke="#6D6E70" stroke-width="5" stroke-linecap="round" stroke-linejoin="round" stroke-miterlimit="10" points="
		-4315.5,2547 -4240.297,2236.404 -4360.5,2151 	"/>
	
		<polygon fill="none" stroke="#6D6E70" stroke-width="5" stroke-linecap="round" stroke-linejoin="round" stroke-miterlimit="10" points="
		-4423.5,2570.436 -4117.5,2772 -4162.5,2970 	"/>
	
		<polygon fill="none" stroke="#929497" stroke-width="5" stroke-linecap="round" stroke-linejoin="round" stroke-miterlimit="10" points="
		-4315.5,2547 -4117.5,2772 -4423.5,2570.436 	"/>
	
		<polygon fill="none" stroke="#6D6E70" stroke-width="5" stroke-linecap="round" stroke-linejoin="round" stroke-miterlimit="10" points="
		-4423.5,2570.436 -4560.221,2813.684 -4513.5,2637 	"/>
	
		<polygon fill="none" stroke="#929497" stroke-width="5" stroke-linecap="round" stroke-linejoin="round" stroke-miterlimit="10" points="
		-4240.297,2236.404 -4423.5,2570.436 -4315.5,2547 	"/>
	
		<polygon fill="none" stroke="#929497" stroke-width="5" stroke-linecap="round" stroke-linejoin="round" stroke-miterlimit="10" points="
		-4423.5,2570.436 -4513.5,2637 -4630.5,2538 	"/>
	
		<polygon fill="none" stroke="#D0D2D3" stroke-width="5" stroke-linecap="round" stroke-linejoin="round" stroke-miterlimit="10" points="
		-4630.5,2538 -4423.5,2570.436 -4240.297,2236.404 	"/>
	
		<polygon fill="none" stroke="#D0D2D3" stroke-width="5" stroke-linecap="round" stroke-linejoin="round" stroke-miterlimit="10" points="
		-4423.5,2570.436 -4513.5,2637 -4306.5,3069 	"/>
</g>
<g>
	
		<polygon fill="none" stroke="#404041" stroke-width="5" stroke-linecap="round" stroke-linejoin="round" stroke-miterlimit="10" points="
		927,1179 903.564,1071 1323,1134 	"/>
	
		<polygon fill="none" stroke="#404041" stroke-width="5" stroke-linecap="round" stroke-linejoin="round" stroke-miterlimit="10" points="
		660.316,934.278 702,1314 504,1332 	"/>
	
		<polygon fill="none" stroke="#404041" stroke-width="5" stroke-linecap="round" stroke-linejoin="round" stroke-miterlimit="10" points="
		660.316,934.278 405,1188 504,1332 	"/>
	
		<polygon fill="none" stroke="#6D6E70" stroke-width="5" stroke-linecap="round" stroke-linejoin="round" stroke-miterlimit="10" points="
		927,1179 1237.598,1254.204 1323,1134 	"/>
	
		<polygon fill="none" stroke="#6D6E70" stroke-width="5" stroke-linecap="round" stroke-linejoin="round" stroke-miterlimit="10" points="
		903.564,1071 837,981 405,1188 	"/>
	
		<polygon fill="none" stroke="#929497" stroke-width="5" stroke-linecap="round" stroke-linejoin="round" stroke-miterlimit="10" points="
		927,1179 702,1314 903.564,1071 	"/>
	
		<polygon fill="none" stroke="#6D6E70" stroke-width="5" stroke-linecap="round" stroke-linejoin="round" stroke-miterlimit="10" points="
		903.564,1071 660.316,934.278 837,981 	"/>
	
		<polygon fill="none" stroke="#D0D2D3" stroke-width="5" stroke-linecap="round" stroke-linejoin="round" stroke-miterlimit="10" points="
		936,864 660.316,934.278 747,792 	"/>
	
		<polygon fill="none" stroke="#6D6E70" stroke-width="5" stroke-linecap="round" stroke-linejoin="round" stroke-miterlimit="10" points="
		660.316,934.278 747,432 747,792 	"/>
	
		<polygon fill="none" stroke="#D0D2D3" stroke-width="5" stroke-linecap="round" stroke-linejoin="round" stroke-miterlimit="10" points="
		747,792 747,432 936,864 	"/>
	
		<polygon fill="none" stroke="#929497" stroke-width="5" stroke-linecap="round" stroke-linejoin="round" stroke-miterlimit="10" points="
		1237.598,1254.204 903.564,1071 927,1179 	"/>
	
		<polygon fill="none" stroke="#929497" stroke-width="5" stroke-linecap="round" stroke-linejoin="round" stroke-miterlimit="10" points="
		903.564,1071 837,981 936,864 	"/>
	
		<polygon fill="none" stroke="#D0D2D3" stroke-width="5" stroke-linecap="round" stroke-linejoin="round" stroke-miterlimit="10" points="
		936,864 903.564,1071 1237.598,1254.204 	"/>
	
		<polygon fill="none" stroke="#D0D2D3" stroke-width="5" stroke-linecap="round" stroke-linejoin="round" stroke-miterlimit="10" points="
		837,981 660.316,934.278 936,864 	"/>
	
		<polygon fill="none" stroke="#D0D2D3" stroke-width="5" stroke-linecap="round" stroke-linejoin="round" stroke-miterlimit="10" points="
		903.564,1071 702,1314 504,1332 	"/>
</g>
<g>
	
		<polygon fill="none" stroke="#6D6E70" stroke-width="5" stroke-linecap="round" stroke-linejoin="round" stroke-miterlimit="10" points="
		-2686.5,2421 -2785.5,2109.303 -2632.5,2025 	"/>
	
		<polygon fill="none" stroke="#929497" stroke-width="5" stroke-linecap="round" stroke-linejoin="round" stroke-miterlimit="10" points="
		-2785.5,2109.303 -2632.5,2025 -2632.5,1809 	"/>
	
		<polygon fill="none" stroke="#404041" stroke-width="5" stroke-linecap="round" stroke-linejoin="round" stroke-miterlimit="10" points="
		-2839.5,2844 -2695.5,3411 -2695.5,3087 	"/>
	
		<polygon fill="none" stroke="#404041" stroke-width="5" stroke-linecap="round" stroke-linejoin="round" stroke-miterlimit="10" points="
		-2686.5,2421 -2578.5,2444.436 -2632.5,2025 	"/>
	
		<polygon fill="none" stroke="#404041" stroke-width="5" stroke-linecap="round" stroke-linejoin="round" stroke-miterlimit="10" points="
		-2434.5,2688.514 -2884.5,2646 -2839.5,2844 	"/>
	
		<polygon fill="none" stroke="#404041" stroke-width="5" stroke-linecap="round" stroke-linejoin="round" stroke-miterlimit="10" points="
		-2434.5,2688.514 -2695.5,2943 -2839.5,2844 	"/>
	
		<polygon fill="none" stroke="#6D6E70" stroke-width="5" stroke-linecap="round" stroke-linejoin="round" stroke-miterlimit="10" points="
		-2578.5,2444.436 -2884.5,2646 -2839.5,2844 	"/>
	
		<polygon fill="none" stroke="#929497" stroke-width="5" stroke-linecap="round" stroke-linejoin="round" stroke-miterlimit="10" points="
		-2686.5,2421 -2884.5,2646 -2578.5,2444.436 	"/>
	
		<polygon fill="none" stroke="#6D6E70" stroke-width="5" stroke-linecap="round" stroke-linejoin="round" stroke-miterlimit="10" points="
		-2578.5,2444.436 -2434.5,2688.514 -2488.5,2511 	"/>
	
		<polygon fill="none" stroke="#929497" stroke-width="5" stroke-linecap="round" stroke-linejoin="round" stroke-miterlimit="10" points="
		-2785.5,2109.303 -2578.5,2444.436 -2686.5,2421 	"/>
	
		<polygon fill="none" stroke="#929497" stroke-width="5" stroke-linecap="round" stroke-linejoin="round" stroke-miterlimit="10" points="
		-2578.5,2444.436 -2488.5,2511 -2371.5,2412 	"/>
	
		<polygon fill="none" stroke="#D0D2D3" stroke-width="5" stroke-linecap="round" stroke-linejoin="round" stroke-miterlimit="10" points="
		-2371.5,2412 -2578.5,2444.436 -2785.5,2109.303 	"/>
	
		<polygon fill="none" stroke="#D0D2D3" stroke-width="5" stroke-linecap="round" stroke-linejoin="round" stroke-miterlimit="10" points="
		-2578.5,2444.436 -2488.5,2511 -2695.5,2943 	"/>
	
		<polygon fill="none" stroke="#D0D2D3" stroke-width="5" stroke-linecap="round" stroke-linejoin="round" stroke-miterlimit="10" points="
		-2695.5,2943 -2839.5,2844 -2695.5,3087 	"/>
	
		<polygon fill="none" stroke="#D0D2D3" stroke-width="5" stroke-linecap="round" stroke-linejoin="round" stroke-miterlimit="10" points="
		-2632.5,2025 -2371.5,2412 -2632.5,1809 	"/>
	
		<polygon fill="none" stroke="#D0D2D3" stroke-width="5" stroke-linecap="round" stroke-linejoin="round" stroke-miterlimit="10" points="
		-2695.5,3087 -2434.5,2688.514 -2695.5,3411 	"/>
</g>
<g>
	<g>
		
			<polygon fill="none" stroke="#404041" stroke-width="5" stroke-linecap="round" stroke-linejoin="round" stroke-miterlimit="10" points="
			-4806.75,4496.006 -4899.689,4436.211 -4558.555,4184.171 		"/>
		
			<polygon fill="none" stroke="#404041" stroke-width="5" stroke-linecap="round" stroke-linejoin="round" stroke-miterlimit="10" points="
			-5168.368,4511.533 -4825.842,4795.111 -4997.668,4903.299 		"/>
		
			<polygon fill="none" stroke="#404041" stroke-width="5" stroke-linecap="round" stroke-linejoin="round" stroke-miterlimit="10" points="
			-5168.368,4511.533 -5169.495,4871.48 -4997.668,4903.299 		"/>
		
			<polygon fill="none" stroke="#6D6E70" stroke-width="5" stroke-linecap="round" stroke-linejoin="round" stroke-miterlimit="10" points="
			-4806.75,4496.006 -4533.948,4329.558 -4558.555,4184.171 		"/>
		
			<polygon fill="none" stroke="#6D6E70" stroke-width="5" stroke-linecap="round" stroke-linejoin="round" stroke-miterlimit="10" points="
			-4899.689,4436.211 -4825.842,4795.111 -4997.668,4903.299 		"/>
		
			<polygon fill="none" stroke="#929497" stroke-width="5" stroke-linecap="round" stroke-linejoin="round" stroke-miterlimit="10" points="
			-4806.75,4496.006 -4825.842,4795.111 -4899.689,4436.211 		"/>
		
			<polygon fill="none" stroke="#6D6E70" stroke-width="5" stroke-linecap="round" stroke-linejoin="round" stroke-miterlimit="10" points="
			-4899.689,4436.211 -5168.368,4511.533 -5010.396,4419.639 		"/>
		
			<polygon fill="none" stroke="#929497" stroke-width="5" stroke-linecap="round" stroke-linejoin="round" stroke-miterlimit="10" points="
			-4533.948,4329.558 -4899.689,4436.211 -4806.75,4496.006 		"/>
		
			<polygon fill="none" stroke="#929497" stroke-width="5" stroke-linecap="round" stroke-linejoin="round" stroke-miterlimit="10" points="
			-4899.689,4436.211 -5010.396,4419.639 -5023.124,4266.902 		"/>
		
			<polygon fill="none" stroke="#D0D2D3" stroke-width="5" stroke-linecap="round" stroke-linejoin="round" stroke-miterlimit="10" points="
			-5023.124,4266.902 -4899.689,4436.211 -4533.948,4329.558 		"/>
		
			<polygon fill="none" stroke="#D0D2D3" stroke-width="5" stroke-linecap="round" stroke-linejoin="round" stroke-miterlimit="10" points="
			-4899.689,4436.211 -5010.396,4419.639 -5169.495,4871.48 		"/>
	</g>
	<g>
		
			<polygon fill="none" stroke="#404041" stroke-width="5" stroke-linecap="round" stroke-linejoin="round" stroke-miterlimit="10" points="
			-4514.008,4788.748 -4454.212,4881.688 -4202.173,4540.553 		"/>
		
			<polygon fill="none" stroke="#404041" stroke-width="5" stroke-linecap="round" stroke-linejoin="round" stroke-miterlimit="10" points="
			-4529.536,5150.365 -4813.113,4807.84 -4921.3,4979.666 		"/>
		
			<polygon fill="none" stroke="#404041" stroke-width="5" stroke-linecap="round" stroke-linejoin="round" stroke-miterlimit="10" points="
			-4529.536,5150.365 -4889.481,5151.494 -4921.3,4979.666 		"/>
		
			<polygon fill="none" stroke="#6D6E70" stroke-width="5" stroke-linecap="round" stroke-linejoin="round" stroke-miterlimit="10" points="
			-4514.008,4788.748 -4347.559,4515.946 -4202.173,4540.553 		"/>
		
			<polygon fill="none" stroke="#6D6E70" stroke-width="5" stroke-linecap="round" stroke-linejoin="round" stroke-miterlimit="10" points="
			-4454.212,4881.688 -4813.113,4807.84 -4921.3,4979.666 		"/>
		
			<polygon fill="none" stroke="#929497" stroke-width="5" stroke-linecap="round" stroke-linejoin="round" stroke-miterlimit="10" points="
			-4514.008,4788.748 -4813.113,4807.84 -4454.212,4881.688 		"/>
		
			<polygon fill="none" stroke="#6D6E70" stroke-width="5" stroke-linecap="round" stroke-linejoin="round" stroke-miterlimit="10" points="
			-4454.212,4881.688 -4529.536,5150.365 -4437.639,4992.395 		"/>
		
			<polygon fill="none" stroke="#929497" stroke-width="5" stroke-linecap="round" stroke-linejoin="round" stroke-miterlimit="10" points="
			-4347.559,4515.946 -4454.212,4881.688 -4514.008,4788.748 		"/>
		
			<polygon fill="none" stroke="#929497" stroke-width="5" stroke-linecap="round" stroke-linejoin="round" stroke-miterlimit="10" points="
			-4454.212,4881.688 -4437.639,4992.395 -4284.905,5005.123 		"/>
		
			<polygon fill="none" stroke="#D0D2D3" stroke-width="5" stroke-linecap="round" stroke-linejoin="round" stroke-miterlimit="10" points="
			-4284.905,5005.123 -4454.212,4881.688 -4347.559,4515.946 		"/>
		
			<polygon fill="none" stroke="#D0D2D3" stroke-width="5" stroke-linecap="round" stroke-linejoin="round" stroke-miterlimit="10" points="
			-4454.212,4881.688 -4437.639,4992.395 -4889.481,5151.494 		"/>
	</g>
	<g>
		
			<polygon fill="none" stroke="#404041" stroke-width="5" stroke-linecap="round" stroke-linejoin="round" stroke-miterlimit="10" points="
			-4233.993,3923.25 -4293.788,3830.311 -4545.827,4171.443 		"/>
		
			<polygon fill="none" stroke="#404041" stroke-width="5" stroke-linecap="round" stroke-linejoin="round" stroke-miterlimit="10" points="
			-4218.464,3561.63 -3934.887,3904.157 -3826.699,3732.33 		"/>
		
			<polygon fill="none" stroke="#404041" stroke-width="5" stroke-linecap="round" stroke-linejoin="round" stroke-miterlimit="10" points="
			-4218.464,3561.63 -3858.52,3560.504 -3826.699,3732.33 		"/>
		
			<polygon fill="none" stroke="#6D6E70" stroke-width="5" stroke-linecap="round" stroke-linejoin="round" stroke-miterlimit="10" points="
			-4233.993,3923.25 -4400.44,4196.05 -4545.827,4171.443 		"/>
		
			<polygon fill="none" stroke="#6D6E70" stroke-width="5" stroke-linecap="round" stroke-linejoin="round" stroke-miterlimit="10" points="
			-4293.788,3830.311 -3934.887,3904.157 -3826.699,3732.33 		"/>
		
			<polygon fill="none" stroke="#929497" stroke-width="5" stroke-linecap="round" stroke-linejoin="round" stroke-miterlimit="10" points="
			-4233.993,3923.25 -3934.887,3904.157 -4293.788,3830.311 		"/>
		
			<polygon fill="none" stroke="#6D6E70" stroke-width="5" stroke-linecap="round" stroke-linejoin="round" stroke-miterlimit="10" points="
			-4293.788,3830.311 -4218.464,3561.63 -4310.36,3719.602 		"/>
		
			<polygon fill="none" stroke="#929497" stroke-width="5" stroke-linecap="round" stroke-linejoin="round" stroke-miterlimit="10" points="
			-4400.44,4196.05 -4293.788,3830.311 -4233.993,3923.25 		"/>
		
			<polygon fill="none" stroke="#929497" stroke-width="5" stroke-linecap="round" stroke-linejoin="round" stroke-miterlimit="10" points="
			-4293.788,3830.311 -4310.36,3719.602 -4463.096,3706.875 		"/>
		
			<polygon fill="none" stroke="#D0D2D3" stroke-width="5" stroke-linecap="round" stroke-linejoin="round" stroke-miterlimit="10" points="
			-4463.096,3706.875 -4293.788,3830.311 -4400.44,4196.05 		"/>
		
			<polygon fill="none" stroke="#D0D2D3" stroke-width="5" stroke-linecap="round" stroke-linejoin="round" stroke-miterlimit="10" points="
			-4293.788,3830.311 -4310.36,3719.602 -3858.52,3560.504 		"/>
	</g>
	<g>
		
			<polygon fill="none" stroke="#404041" stroke-width="5" stroke-linecap="round" stroke-linejoin="round" stroke-miterlimit="10" points="
			-3941.251,4215.992 -3848.312,4275.787 -4189.445,4527.826 		"/>
		
			<polygon fill="none" stroke="#404041" stroke-width="5" stroke-linecap="round" stroke-linejoin="round" stroke-miterlimit="10" points="
			-3579.633,4200.463 -3922.159,3916.886 -3750.332,3808.697 		"/>
		
			<polygon fill="none" stroke="#404041" stroke-width="5" stroke-linecap="round" stroke-linejoin="round" stroke-miterlimit="10" points="
			-3579.633,4200.463 -3578.504,3840.518 -3750.332,3808.697 		"/>
		
			<polygon fill="none" stroke="#6D6E70" stroke-width="5" stroke-linecap="round" stroke-linejoin="round" stroke-miterlimit="10" points="
			-3941.251,4215.992 -4214.051,4382.438 -4189.445,4527.826 		"/>
		
			<polygon fill="none" stroke="#6D6E70" stroke-width="5" stroke-linecap="round" stroke-linejoin="round" stroke-miterlimit="10" points="
			-3848.312,4275.787 -3922.159,3916.886 -3750.332,3808.697 		"/>
		
			<polygon fill="none" stroke="#929497" stroke-width="5" stroke-linecap="round" stroke-linejoin="round" stroke-miterlimit="10" points="
			-3941.251,4215.992 -3922.159,3916.886 -3848.312,4275.787 		"/>
		
			<polygon fill="none" stroke="#6D6E70" stroke-width="5" stroke-linecap="round" stroke-linejoin="round" stroke-miterlimit="10" points="
			-3848.312,4275.787 -3579.633,4200.463 -3737.604,4292.359 		"/>
		
			<polygon fill="none" stroke="#929497" stroke-width="5" stroke-linecap="round" stroke-linejoin="round" stroke-miterlimit="10" points="
			-4214.051,4382.438 -3848.312,4275.787 -3941.251,4215.992 		"/>
		
			<polygon fill="none" stroke="#929497" stroke-width="5" stroke-linecap="round" stroke-linejoin="round" stroke-miterlimit="10" points="
			-3848.312,4275.787 -3737.604,4292.359 -3724.875,4445.094 		"/>
		
			<polygon fill="none" stroke="#D0D2D3" stroke-width="5" stroke-linecap="round" stroke-linejoin="round" stroke-miterlimit="10" points="
			-3724.875,4445.094 -3848.312,4275.787 -4214.051,4382.438 		"/>
		
			<polygon fill="none" stroke="#D0D2D3" stroke-width="5" stroke-linecap="round" stroke-linejoin="round" stroke-miterlimit="10" points="
			-3848.312,4275.787 -3737.604,4292.359 -3578.504,3840.518 		"/>
	</g>
</g>
<g>
	<g>
		
			<polygon fill="none" stroke="#404041" stroke-width="5" stroke-linecap="round" stroke-linejoin="round" stroke-miterlimit="10" points="
			-2487.993,4305.087 -2428.197,4212.147 -2176.159,4553.282 		"/>
		
			<polygon fill="none" stroke="#404041" stroke-width="5" stroke-linecap="round" stroke-linejoin="round" stroke-miterlimit="10" points="
			-2503.521,3943.468 -2742.552,4241.448 -2895.287,4114.169 		"/>
		
			<polygon fill="none" stroke="#404041" stroke-width="5" stroke-linecap="round" stroke-linejoin="round" stroke-miterlimit="10" points="
			-2503.521,3943.468 -2863.467,3942.341 -2895.287,4114.169 		"/>
		
			<polygon fill="none" stroke="#6D6E70" stroke-width="5" stroke-linecap="round" stroke-linejoin="round" stroke-miterlimit="10" points="
			-2487.993,4305.087 -2321.545,4577.89 -2176.159,4553.282 		"/>
		
			<polygon fill="none" stroke="#6D6E70" stroke-width="5" stroke-linecap="round" stroke-linejoin="round" stroke-miterlimit="10" points="
			-2428.197,4212.147 -2411.626,4101.44 -2863.467,3942.341 		"/>
		
			<polygon fill="none" stroke="#929497" stroke-width="5" stroke-linecap="round" stroke-linejoin="round" stroke-miterlimit="10" points="
			-2487.993,4305.087 -2742.552,4241.448 -2428.197,4212.147 		"/>
		
			<polygon fill="none" stroke="#6D6E70" stroke-width="5" stroke-linecap="round" stroke-linejoin="round" stroke-miterlimit="10" points="
			-2428.197,4212.147 -2503.521,3943.468 -2411.626,4101.44 		"/>
		
			<polygon fill="none" stroke="#D0D2D3" stroke-width="5" stroke-linecap="round" stroke-linejoin="round" stroke-miterlimit="10" points="
			-2258.891,4088.712 -2503.521,3943.468 -2341.622,3904.157 		"/>
		
			<polygon fill="none" stroke="#6D6E70" stroke-width="5" stroke-linecap="round" stroke-linejoin="round" stroke-miterlimit="10" points="
			-2503.521,3943.468 -2087.063,3649.599 -2341.622,3904.157 		"/>
		
			<polygon fill="none" stroke="#D0D2D3" stroke-width="5" stroke-linecap="round" stroke-linejoin="round" stroke-miterlimit="10" points="
			-2341.622,3904.157 -2087.063,3649.599 -2258.891,4088.712 		"/>
		
			<polygon fill="none" stroke="#929497" stroke-width="5" stroke-linecap="round" stroke-linejoin="round" stroke-miterlimit="10" points="
			-2321.545,4577.89 -2428.197,4212.147 -2487.993,4305.087 		"/>
		
			<polygon fill="none" stroke="#929497" stroke-width="5" stroke-linecap="round" stroke-linejoin="round" stroke-miterlimit="10" points="
			-2428.197,4212.147 -2411.626,4101.44 -2258.891,4088.712 		"/>
		
			<polygon fill="none" stroke="#D0D2D3" stroke-width="5" stroke-linecap="round" stroke-linejoin="round" stroke-miterlimit="10" points="
			-2258.891,4088.712 -2428.197,4212.147 -2321.545,4577.89 		"/>
		
			<polygon fill="none" stroke="#D0D2D3" stroke-width="5" stroke-linecap="round" stroke-linejoin="round" stroke-miterlimit="10" points="
			-2411.626,4101.44 -2503.521,3943.468 -2258.891,4088.712 		"/>
		
			<polygon fill="none" stroke="#D0D2D3" stroke-width="5" stroke-linecap="round" stroke-linejoin="round" stroke-miterlimit="10" points="
			-2428.197,4212.147 -2742.552,4241.448 -2895.287,4114.169 		"/>
	</g>
	<g>
		
			<polygon fill="none" stroke="#404041" stroke-width="5" stroke-linecap="round" stroke-linejoin="round" stroke-miterlimit="10" points="
			-2768.008,4406.911 -2827.804,4499.851 -3079.842,4158.716 		"/>
		
			<polygon fill="none" stroke="#404041" stroke-width="5" stroke-linecap="round" stroke-linejoin="round" stroke-miterlimit="10" points="
			-2752.478,4768.528 -2513.449,4470.55 -2360.714,4597.829 		"/>
		
			<polygon fill="none" stroke="#404041" stroke-width="5" stroke-linecap="round" stroke-linejoin="round" stroke-miterlimit="10" points="
			-2752.478,4768.528 -2392.534,4769.657 -2360.714,4597.829 		"/>
		
			<polygon fill="none" stroke="#6D6E70" stroke-width="5" stroke-linecap="round" stroke-linejoin="round" stroke-miterlimit="10" points="
			-2768.008,4406.911 -2934.455,4134.11 -3079.842,4158.716 		"/>
		
			<polygon fill="none" stroke="#6D6E70" stroke-width="5" stroke-linecap="round" stroke-linejoin="round" stroke-miterlimit="10" points="
			-2827.804,4499.851 -2844.375,4610.558 -2392.534,4769.657 		"/>
		
			<polygon fill="none" stroke="#929497" stroke-width="5" stroke-linecap="round" stroke-linejoin="round" stroke-miterlimit="10" points="
			-2768.008,4406.911 -2513.449,4470.55 -2827.804,4499.851 		"/>
		
			<polygon fill="none" stroke="#6D6E70" stroke-width="5" stroke-linecap="round" stroke-linejoin="round" stroke-miterlimit="10" points="
			-2827.804,4499.851 -2752.478,4768.528 -2844.375,4610.558 		"/>
		
			<polygon fill="none" stroke="#D0D2D3" stroke-width="5" stroke-linecap="round" stroke-linejoin="round" stroke-miterlimit="10" points="
			-2997.11,4623.286 -2752.478,4768.528 -2914.378,4807.839 		"/>
		
			<polygon fill="none" stroke="#6D6E70" stroke-width="5" stroke-linecap="round" stroke-linejoin="round" stroke-miterlimit="10" points="
			-2752.478,4768.528 -3168.937,5062.399 -2914.379,4807.841 		"/>
		
			<polygon fill="none" stroke="#D0D2D3" stroke-width="5" stroke-linecap="round" stroke-linejoin="round" stroke-miterlimit="10" points="
			-2914.379,4807.841 -3168.937,5062.399 -2997.11,4623.286 		"/>
		
			<polygon fill="none" stroke="#929497" stroke-width="5" stroke-linecap="round" stroke-linejoin="round" stroke-miterlimit="10" points="
			-2934.455,4134.11 -2827.804,4499.851 -2768.008,4406.911 		"/>
		
			<polygon fill="none" stroke="#929497" stroke-width="5" stroke-linecap="round" stroke-linejoin="round" stroke-miterlimit="10" points="
			-2827.804,4499.851 -2844.375,4610.558 -2997.11,4623.286 		"/>
		
			<polygon fill="none" stroke="#D0D2D3" stroke-width="5" stroke-linecap="round" stroke-linejoin="round" stroke-miterlimit="10" points="
			-2997.11,4623.286 -2827.804,4499.851 -2934.455,4134.11 		"/>
		
			<polygon fill="none" stroke="#D0D2D3" stroke-width="5" stroke-linecap="round" stroke-linejoin="round" stroke-miterlimit="10" points="
			-2844.375,4610.558 -2752.478,4768.528 -2997.11,4623.286 		"/>
		
			<polygon fill="none" stroke="#D0D2D3" stroke-width="5" stroke-linecap="round" stroke-linejoin="round" stroke-miterlimit="10" points="
			-2827.804,4499.851 -2513.449,4470.55 -2360.714,4597.829 		"/>
	</g>
</g>
<g>
	<g>
		
			<polygon fill="none" stroke="#404041" stroke-width="5" stroke-linecap="round" stroke-linejoin="round" stroke-miterlimit="10" points="
			-1286.063,3974.284 -888.949,4280.554 -1131.896,4331.669 		"/>
		
			<polygon fill="none" stroke="#404041" stroke-width="5" stroke-linecap="round" stroke-linejoin="round" stroke-miterlimit="10" points="
			-1280.217,3974.284 -1256.578,4332.599 -1126.053,4331.669 		"/>
		
			<polygon fill="none" stroke="#6D6E70" stroke-width="5" stroke-linecap="round" stroke-linejoin="round" stroke-miterlimit="10" points="
			-892.105,3968.458 -645.799,3792.306 -490.5,3826.825 		"/>
		
			<polygon fill="none" stroke="#6D6E70" stroke-width="5" stroke-linecap="round" stroke-linejoin="round" stroke-miterlimit="10" points="
			-999.098,3896.827 -888.949,4280.554 -1131.896,4331.669 		"/>
		
			<polygon fill="none" stroke="#6D6E70" stroke-width="5" stroke-linecap="round" stroke-linejoin="round" stroke-miterlimit="10" points="
			-993.254,3896.827 -1121.887,3894.78 -1256.578,4332.599 		"/>
		
			<polygon fill="none" stroke="#D0D2D3" stroke-width="5" stroke-linecap="round" stroke-linejoin="round" stroke-miterlimit="10" points="
			-645.799,3792.306 -993.254,3896.827 -892.105,3968.458 		"/>
		
			<polygon fill="none" stroke="#929497" stroke-width="5" stroke-linecap="round" stroke-linejoin="round" stroke-miterlimit="10" points="
			-897.949,3968.458 -888.949,4280.554 -999.098,3896.827 		"/>
		
			<polygon fill="none" stroke="#6D6E70" stroke-width="5" stroke-linecap="round" stroke-linejoin="round" stroke-miterlimit="10" points="
			-993.254,3896.827 -1280.217,3974.284 -1121.887,3894.78 		"/>
		
			<polygon fill="none" stroke="#D0D2D3" stroke-width="5" stroke-linecap="round" stroke-linejoin="round" stroke-miterlimit="10" points="
			-993.254,3896.827 -1121.887,3894.78 -1553.281,3540.446 		"/>
		
			<polygon fill="none" stroke="#D0D2D3" stroke-width="5" stroke-linecap="round" stroke-linejoin="round" stroke-miterlimit="10" points="
			-1121.887,3894.78 -1280.217,3974.284 -1553.281,3540.446 		"/>
		
			<polygon fill="none" stroke="#404041" stroke-width="5" stroke-linecap="round" stroke-linejoin="round" stroke-miterlimit="10" points="
			-1327.213,4736.019 -1306.49,4859.19 -1095.076,4596.864 		"/>
		
			<polygon fill="none" stroke="#6D6E70" stroke-width="5" stroke-linecap="round" stroke-linejoin="round" stroke-miterlimit="10" points="
			-1095.076,4596.864 -1187.924,4543.778 -1327.213,4736.019 		"/>
		
			<polygon fill="none" stroke="#929497" stroke-width="5" stroke-linecap="round" stroke-linejoin="round" stroke-miterlimit="10" points="
			-1126.053,4331.669 -1187.924,4543.778 -1095.076,4596.864 		"/>
		
			<polygon fill="none" stroke="#D0D2D3" stroke-width="5" stroke-linecap="round" stroke-linejoin="round" stroke-miterlimit="10" points="
			-1256.578,4332.599 -1187.924,4543.778 -1126.053,4331.669 		"/>
	</g>
	<g>
		
			<polygon fill="none" stroke="#404041" stroke-width="5" stroke-linecap="round" stroke-linejoin="round" stroke-miterlimit="10" points="
			-477.938,4737.716 -875.051,4431.446 -632.104,4380.329 		"/>
		
			<polygon fill="none" stroke="#404041" stroke-width="5" stroke-linecap="round" stroke-linejoin="round" stroke-miterlimit="10" points="
			-483.781,4737.716 -507.42,4379.401 -637.947,4380.329 		"/>
		
			<polygon fill="none" stroke="#6D6E70" stroke-width="5" stroke-linecap="round" stroke-linejoin="round" stroke-miterlimit="10" points="
			-871.895,4743.542 -1118.203,4919.692 -1273.5,4885.175 		"/>
		
			<polygon fill="none" stroke="#6D6E70" stroke-width="5" stroke-linecap="round" stroke-linejoin="round" stroke-miterlimit="10" points="
			-764.902,4815.171 -875.051,4431.446 -632.104,4380.329 		"/>
		
			<polygon fill="none" stroke="#6D6E70" stroke-width="5" stroke-linecap="round" stroke-linejoin="round" stroke-miterlimit="10" points="
			-770.746,4815.171 -642.113,4817.218 -507.42,4379.401 		"/>
		
			<polygon fill="none" stroke="#D0D2D3" stroke-width="5" stroke-linecap="round" stroke-linejoin="round" stroke-miterlimit="10" points="
			-1118.203,4919.692 -770.746,4815.171 -871.895,4743.542 		"/>
		
			<polygon fill="none" stroke="#929497" stroke-width="5" stroke-linecap="round" stroke-linejoin="round" stroke-miterlimit="10" points="
			-866.051,4743.542 -875.051,4431.446 -764.902,4815.171 		"/>
		
			<polygon fill="none" stroke="#6D6E70" stroke-width="5" stroke-linecap="round" stroke-linejoin="round" stroke-miterlimit="10" points="
			-770.746,4815.171 -483.781,4737.716 -642.113,4817.218 		"/>
		
			<polygon fill="none" stroke="#D0D2D3" stroke-width="5" stroke-linecap="round" stroke-linejoin="round" stroke-miterlimit="10" points="
			-770.746,4815.171 -642.113,4817.218 -210.719,5171.554 		"/>
		
			<polygon fill="none" stroke="#D0D2D3" stroke-width="5" stroke-linecap="round" stroke-linejoin="round" stroke-miterlimit="10" points="
			-642.113,4817.218 -483.781,4737.716 -210.719,5171.554 		"/>
		
			<polygon fill="none" stroke="#404041" stroke-width="5" stroke-linecap="round" stroke-linejoin="round" stroke-miterlimit="10" points="
			-436.787,3975.979 -457.508,3852.81 -668.924,4115.136 		"/>
		
			<polygon fill="none" stroke="#6D6E70" stroke-width="5" stroke-linecap="round" stroke-linejoin="round" stroke-miterlimit="10" points="
			-668.924,4115.136 -576.074,4168.22 -436.787,3975.979 		"/>
		
			<polygon fill="none" stroke="#929497" stroke-width="5" stroke-linecap="round" stroke-linejoin="round" stroke-miterlimit="10" points="
			-637.947,4380.329 -576.074,4168.22 -668.924,4115.136 		"/>
		
			<polygon fill="none" stroke="#D0D2D3" stroke-width="5" stroke-linecap="round" stroke-linejoin="round" stroke-miterlimit="10" points="
			-507.42,4379.401 -576.074,4168.22 -637.947,4380.329 		"/>
	</g>
</g>
<g>
	<g>
		
			<polygon fill="none" stroke="#404041" stroke-width="5" stroke-linecap="round" stroke-linejoin="round" stroke-miterlimit="10" points="
			1338.592,4283.483 1299.924,3905.483 1473.145,3905.483 		"/>
		
			<polygon fill="none" stroke="#404041" stroke-width="5" stroke-linecap="round" stroke-linejoin="round" stroke-miterlimit="10" points="
			1338.592,4283.483 1566.275,4006.108 1473.145,3905.483 		"/>
		
			<polygon fill="none" stroke="#6D6E70" stroke-width="5" stroke-linecap="round" stroke-linejoin="round" stroke-miterlimit="10" points="
			1086.592,4140.454 1299.924,3905.483 1473.145,3905.483 		"/>
		
			<polygon fill="none" stroke="#6D6E70" stroke-width="5" stroke-linecap="round" stroke-linejoin="round" stroke-miterlimit="10" points="
			1086.592,4140.454 1158.592,4238.483 1566.275,4006.108 		"/>
		
			<polygon fill="none" stroke="#929497" stroke-width="5" stroke-linecap="round" stroke-linejoin="round" stroke-miterlimit="10" points="
			1035.275,4031.483 1299.924,3905.483 1086.592,4140.454 		"/>
		
			<polygon fill="none" stroke="#6D6E70" stroke-width="5" stroke-linecap="round" stroke-linejoin="round" stroke-miterlimit="10" points="
			1086.592,4140.454 1338.592,4283.483 1158.592,4238.483 		"/>
		
			<polygon fill="none" stroke="#6D6E70" stroke-width="5" stroke-linecap="round" stroke-linejoin="round" stroke-miterlimit="10" points="
			1338.592,4283.483 1410.592,4391.483 1566.275,4006.108 		"/>
		
			<polygon fill="none" stroke="#D0D2D3" stroke-width="5" stroke-linecap="round" stroke-linejoin="round" stroke-miterlimit="10" points="
			1158.592,4238.483 1035.275,4391.483 1338.592,4283.483 		"/>
		
			<polygon fill="none" stroke="#D0D2D3" stroke-width="5" stroke-linecap="round" stroke-linejoin="round" stroke-miterlimit="10" points="
			1035.275,4391.483 1410.592,4391.483 1266.592,4535.483 		"/>
		
			<polygon fill="none" stroke="#404041" stroke-width="5" stroke-linecap="round" stroke-linejoin="round" stroke-miterlimit="10" points="
			1299.924,3905.483 1473.145,3905.483 1410.592,3599.483 		"/>
		
			<polygon fill="none" stroke="#6D6E70" stroke-width="5" stroke-linecap="round" stroke-linejoin="round" stroke-miterlimit="10" points="
			1566.275,4006.108 1410.592,3599.483 1473.145,3905.483 		"/>
		
			<polygon fill="none" stroke="#6D6E70" stroke-width="5" stroke-linecap="round" stroke-linejoin="round" stroke-miterlimit="10" points="
			1410.592,3599.483 1299.924,3905.483 1035.275,4031.483 		"/>
		
			<polygon fill="none" stroke="#D0D2D3" stroke-width="5" stroke-linecap="round" stroke-linejoin="round" stroke-miterlimit="10" points="
			1158.592,4238.483 1566.275,4006.108 1266.592,4535.483 		"/>
	</g>
	<g>
		
			<polygon fill="none" stroke="#404041" stroke-width="5" stroke-linecap="round" stroke-linejoin="round" stroke-miterlimit="10" points="
			790.086,4182.804 482.063,4405.29 395.453,4255.278 		"/>
		
			<polygon fill="none" stroke="#404041" stroke-width="5" stroke-linecap="round" stroke-linejoin="round" stroke-miterlimit="10" points="
			790.086,4182.804 436.031,4124.312 395.453,4255.278 		"/>
		
			<polygon fill="none" stroke="#6D6E70" stroke-width="5" stroke-linecap="round" stroke-linejoin="round" stroke-miterlimit="10" points="
			792.221,4472.556 482.063,4405.29 395.453,4255.278 		"/>
		
			<polygon fill="none" stroke="#6D6E70" stroke-width="5" stroke-linecap="round" stroke-linejoin="round" stroke-miterlimit="10" points="
			792.221,4472.556 841.115,4361.188 436.031,4124.312 		"/>
		
			<polygon fill="none" stroke="#929497" stroke-width="5" stroke-linecap="round" stroke-linejoin="round" stroke-miterlimit="10" points="
			723.506,4571.483 482.063,4405.29 792.221,4472.556 		"/>
		
			<polygon fill="none" stroke="#6D6E70" stroke-width="5" stroke-linecap="round" stroke-linejoin="round" stroke-miterlimit="10" points="
			792.221,4472.556 790.086,4182.804 841.115,4361.188 		"/>
		
			<polygon fill="none" stroke="#6D6E70" stroke-width="5" stroke-linecap="round" stroke-linejoin="round" stroke-miterlimit="10" points="
			790.086,4182.804 847.617,4066.45 436.031,4124.312 		"/>
		
			<polygon fill="none" stroke="#D0D2D3" stroke-width="5" stroke-linecap="round" stroke-linejoin="round" stroke-miterlimit="10" points="
			841.115,4361.188 1035.275,4391.483 790.086,4182.804 		"/>
		
			<polygon fill="none" stroke="#D0D2D3" stroke-width="5" stroke-linecap="round" stroke-linejoin="round" stroke-miterlimit="10" points="
			1035.275,4391.483 847.617,4066.45 1044.324,4119.157 		"/>
		
			<polygon fill="none" stroke="#404041" stroke-width="5" stroke-linecap="round" stroke-linejoin="round" stroke-miterlimit="10" points="
			482.063,4405.29 395.453,4255.278 161.725,4462.45 		"/>
		
			<polygon fill="none" stroke="#6D6E70" stroke-width="5" stroke-linecap="round" stroke-linejoin="round" stroke-miterlimit="10" points="
			436.031,4124.312 161.725,4462.45 395.453,4255.278 		"/>
		
			<polygon fill="none" stroke="#6D6E70" stroke-width="5" stroke-linecap="round" stroke-linejoin="round" stroke-miterlimit="10" points="
			161.725,4462.45 482.063,4405.29 723.506,4571.483 		"/>
		
			<polygon fill="none" stroke="#D0D2D3" stroke-width="5" stroke-linecap="round" stroke-linejoin="round" stroke-miterlimit="10" points="
			841.115,4361.188 436.031,4124.312 1044.324,4119.157 		"/>
	</g>
	<g>
		
			<polygon fill="none" stroke="#404041" stroke-width="5" stroke-linecap="round" stroke-linejoin="round" stroke-miterlimit="10" points="
			977.146,4708.163 1323.838,4863.675 1237.229,5013.688 		"/>
		
			<polygon fill="none" stroke="#404041" stroke-width="5" stroke-linecap="round" stroke-linejoin="round" stroke-miterlimit="10" points="
			977.146,4708.163 1103.52,5044.03 1237.229,5013.688 		"/>
		
			<polygon fill="none" stroke="#6D6E70" stroke-width="5" stroke-linecap="round" stroke-linejoin="round" stroke-miterlimit="10" points="
			1227.014,4561.438 1323.838,4863.675 1237.229,5013.688 		"/>
		
			<polygon fill="none" stroke="#6D6E70" stroke-width="5" stroke-linecap="round" stroke-linejoin="round" stroke-miterlimit="10" points="
			1227.014,4561.438 1106.119,4574.778 1103.52,5044.03 		"/>
		
			<polygon fill="none" stroke="#929497" stroke-width="5" stroke-linecap="round" stroke-linejoin="round" stroke-miterlimit="10" points="
			1347.043,4571.483 1323.838,4863.675 1227.014,4561.438 		"/>
		
			<polygon fill="none" stroke="#6D6E70" stroke-width="5" stroke-linecap="round" stroke-linejoin="round" stroke-miterlimit="10" points="
			1227.014,4561.438 977.146,4708.163 1106.119,4574.778 		"/>
		
			<polygon fill="none" stroke="#6D6E70" stroke-width="5" stroke-linecap="round" stroke-linejoin="round" stroke-miterlimit="10" points="
			977.146,4708.163 847.617,4716.517 1103.52,5044.03 		"/>
		
			<polygon fill="none" stroke="#D0D2D3" stroke-width="5" stroke-linecap="round" stroke-linejoin="round" stroke-miterlimit="10" points="
			1106.119,4574.778 1035.275,4391.483 977.146,4708.163 		"/>
		
			<polygon fill="none" stroke="#D0D2D3" stroke-width="5" stroke-linecap="round" stroke-linejoin="round" stroke-miterlimit="10" points="
			1035.275,4391.483 847.617,4716.517 794.91,4519.808 		"/>
		
			<polygon fill="none" stroke="#404041" stroke-width="5" stroke-linecap="round" stroke-linejoin="round" stroke-miterlimit="10" points="
			1323.838,4863.675 1237.229,5013.688 1533.51,5112.517 		"/>
		
			<polygon fill="none" stroke="#6D6E70" stroke-width="5" stroke-linecap="round" stroke-linejoin="round" stroke-miterlimit="10" points="
			1103.52,5044.03 1533.51,5112.517 1237.229,5013.688 		"/>
		
			<polygon fill="none" stroke="#6D6E70" stroke-width="5" stroke-linecap="round" stroke-linejoin="round" stroke-miterlimit="10" points="
			1533.51,5112.517 1323.838,4863.675 1347.043,4571.483 		"/>
		
			<polygon fill="none" stroke="#D0D2D3" stroke-width="5" stroke-linecap="round" stroke-linejoin="round" stroke-miterlimit="10" points="
			1106.119,4574.778 1103.52,5044.03 794.91,4519.808 		"/>
	</g>
</g>
<g>
	
		<polygon fill="none" stroke="#404041" stroke-width="5" stroke-linecap="round" stroke-linejoin="round" stroke-miterlimit="10" points="
		-972,2731.5 -1512,2317.5 -846,2506.5 	"/>
	
		<polygon fill="none" stroke="#404041" stroke-width="5" stroke-linecap="round" stroke-linejoin="round" stroke-miterlimit="10" points="
		-972,2731.5 -846,2506.5 -252,2587.5 	"/>
	
		<polygon fill="none" stroke="#404041" stroke-width="5" stroke-linecap="round" stroke-linejoin="round" stroke-miterlimit="10" points="
		-972,2731.5 -531,3037.5 -1143,2767.5 	"/>
	
		<polygon fill="none" stroke="#6D6E70" stroke-width="5" stroke-linecap="round" stroke-linejoin="round" stroke-miterlimit="10" points="
		-945,2425.5 -1116,2560.5 -1143,2767.5 -972,2731.5 -846,2506.5 	"/>
	
		<polygon fill="none" stroke="#929497" stroke-width="5" stroke-linecap="round" stroke-linejoin="round" stroke-miterlimit="10" points="
		-846,2506.5 -945,2425.5 -668.805,2182.5 	"/>
	
		<polygon fill="none" stroke="#D0D2D3" stroke-width="5" stroke-linecap="round" stroke-linejoin="round" stroke-miterlimit="10" points="
		-531,3037.5 -252,2587.5 -668.805,2182.5 	"/>
	
		<polygon fill="none" stroke="#929497" stroke-width="5" stroke-linecap="round" stroke-linejoin="round" stroke-miterlimit="10" points="
		-1143,2767.5 -1116,2560.5 -1377,2740.5 	"/>
	
		<polygon fill="none" stroke="#929497" stroke-width="5" stroke-linecap="round" stroke-linejoin="round" stroke-miterlimit="10" points="
		-1377,2740.5 -945,2236.5 -1512,2317.5 	"/>
	
		<polygon fill="none" stroke="#D0D2D3" stroke-width="5" stroke-linecap="round" stroke-linejoin="round" stroke-miterlimit="10" points="
		-1116,2560.5 -945,2425.5 -945,2236.5 	"/>
</g>
</svg>
