<?xml version="1.0" encoding="utf-8"?>
<!-- Generator: Adobe Illustrator 15.0.0, SVG Export Plug-In . SVG Version: 6.00 Build 0)  -->
<!DOCTYPE svg PUBLIC "-//W3C//DTD SVG 1.1//EN" "http://www.w3.org/Graphics/SVG/1.1/DTD/svg11.dtd">
<svg version="1.1" id="Layer_1" xmlns="http://www.w3.org/2000/svg" xmlns:xlink="http://www.w3.org/1999/xlink" x="0px" y="0px"
	 width="1728px" height="1728px" viewBox="0 0 1728 1728" enable-background="new 0 0 1728 1728" xml:space="preserve">
<g>
	
		<polygon fill="none" stroke="#404041" stroke-width="5" stroke-linecap="round" stroke-linejoin="round" stroke-miterlimit="10" points="
		-668.983,-2699.097 -699.986,-3060.819 -525.286,-3060.819 	"/>
	
		<polygon fill="none" stroke="#404041" stroke-width="5" stroke-linecap="round" stroke-linejoin="round" stroke-miterlimit="10" points="
		-668.983,-2699.097 -432.332,-2969.179 -525.286,-3060.819 	"/>
	
		<polygon fill="none" stroke="#6D6E70" stroke-width="5" stroke-linecap="round" stroke-linejoin="round" stroke-miterlimit="10" points="
		-947.54,-2969.415 -1246.265,-3019.022 -1331.668,-2886.583 	"/>
	
		<polygon fill="none" stroke="#6D6E70" stroke-width="5" stroke-linecap="round" stroke-linejoin="round" stroke-miterlimit="10" points="
		-911.455,-2837.271 -699.986,-3060.819 -525.286,-3060.819 	"/>
	
		<polygon fill="none" stroke="#6D6E70" stroke-width="5" stroke-linecap="round" stroke-linejoin="round" stroke-miterlimit="10" points="
		-911.455,-2837.271 -837.159,-2754.837 -432.332,-2969.179 	"/>
	
		<polygon fill="none" stroke="#D0D2D3" stroke-width="5" stroke-linecap="round" stroke-linejoin="round" stroke-miterlimit="10" points="
		-1246.265,-3019.022 -911.455,-2837.271 -947.54,-2969.415 	"/>
	
		<polygon fill="none" stroke="#929497" stroke-width="5" stroke-linecap="round" stroke-linejoin="round" stroke-miterlimit="10" points="
		-947.54,-2969.415 -699.986,-3060.819 -911.455,-2837.271 	"/>
	
		<polygon fill="none" stroke="#6D6E70" stroke-width="5" stroke-linecap="round" stroke-linejoin="round" stroke-miterlimit="10" points="
		-911.455,-2837.271 -668.983,-2699.097 -837.159,-2754.837 	"/>
	
		<polygon fill="none" stroke="#D0D2D3" stroke-width="5" stroke-linecap="round" stroke-linejoin="round" stroke-miterlimit="10" points="
		-911.455,-2837.271 -837.159,-2754.837 -720.332,-2195.181 	"/>
	
		<polygon fill="none" stroke="#D0D2D3" stroke-width="5" stroke-linecap="round" stroke-linejoin="round" stroke-miterlimit="10" points="
		-837.159,-2754.837 -668.983,-2699.097 -720.332,-2195.181 	"/>
</g>
<g>
	
		<polygon fill="none" stroke="#404041" stroke-width="5" stroke-linecap="round" stroke-linejoin="round" stroke-miterlimit="10" points="
		873.192,-2574.355 842.189,-2936.076 1016.889,-2936.076 	"/>
	
		<polygon fill="none" stroke="#404041" stroke-width="5" stroke-linecap="round" stroke-linejoin="round" stroke-miterlimit="10" points="
		873.192,-2574.355 1109.843,-2844.437 1016.889,-2936.076 	"/>
	
		<polygon fill="none" stroke="#6D6E70" stroke-width="5" stroke-linecap="round" stroke-linejoin="round" stroke-miterlimit="10" points="
		594.635,-2844.672 295.911,-2894.279 210.507,-2761.842 	"/>
	
		<polygon fill="none" stroke="#6D6E70" stroke-width="5" stroke-linecap="round" stroke-linejoin="round" stroke-miterlimit="10" points="
		615.507,-2722.5 842.189,-2936.076 1016.889,-2936.076 	"/>
	
		<polygon fill="none" stroke="#6D6E70" stroke-width="5" stroke-linecap="round" stroke-linejoin="round" stroke-miterlimit="10" points="
		615.507,-2722.5 705.016,-2630.096 1109.843,-2844.437 	"/>
	
		<polygon fill="none" stroke="#D0D2D3" stroke-width="5" stroke-linecap="round" stroke-linejoin="round" stroke-miterlimit="10" points="
		295.911,-2894.279 615.507,-2722.5 594.635,-2844.672 	"/>
	
		<polygon fill="none" stroke="#929497" stroke-width="5" stroke-linecap="round" stroke-linejoin="round" stroke-miterlimit="10" points="
		594.635,-2844.672 842.189,-2936.076 615.507,-2722.5 	"/>
	
		<polygon fill="none" stroke="#6D6E70" stroke-width="5" stroke-linecap="round" stroke-linejoin="round" stroke-miterlimit="10" points="
		615.507,-2722.5 873.192,-2574.355 705.016,-2630.096 	"/>
	
		<polygon fill="none" stroke="#D0D2D3" stroke-width="5" stroke-linecap="round" stroke-linejoin="round" stroke-miterlimit="10" points="
		615.507,-2722.5 705.016,-2630.096 759.507,-2074.5 	"/>
	
		<polygon fill="none" stroke="#D0D2D3" stroke-width="5" stroke-linecap="round" stroke-linejoin="round" stroke-miterlimit="10" points="
		705.016,-2630.096 873.192,-2574.355 759.507,-2074.5 	"/>
	
		<polygon fill="none" stroke="#404041" stroke-width="5" stroke-linecap="round" stroke-linejoin="round" stroke-miterlimit="10" points="
		1445.05,-3079.752 1517.493,-3181.5 1182.507,-3145.5 	"/>
	
		<polygon fill="none" stroke="#6D6E70" stroke-width="5" stroke-linecap="round" stroke-linejoin="round" stroke-miterlimit="10" points="
		1182.507,-3145.5 1210.624,-3042.31 1445.05,-3079.752 	"/>
	
		<polygon fill="none" stroke="#929497" stroke-width="5" stroke-linecap="round" stroke-linejoin="round" stroke-miterlimit="10" points="
		1016.889,-2936.076 1210.624,-3042.31 1182.507,-3145.5 	"/>
	
		<polygon fill="none" stroke="#D0D2D3" stroke-width="5" stroke-linecap="round" stroke-linejoin="round" stroke-miterlimit="10" points="
		1109.843,-2844.437 1210.624,-3042.31 1016.889,-2936.076 	"/>
</g>
<g>
	
		<polygon fill="none" stroke="#404041" stroke-width="5" stroke-linecap="round" stroke-linejoin="round" stroke-miterlimit="10" points="
		2644.659,-2412 2605.991,-2790 2779.21,-2790 	"/>
	
		<polygon fill="none" stroke="#404041" stroke-width="5" stroke-linecap="round" stroke-linejoin="round" stroke-miterlimit="10" points="
		2644.659,-2412 2872.341,-2689.375 2779.21,-2790 	"/>
	
		<polygon fill="none" stroke="#6D6E70" stroke-width="5" stroke-linecap="round" stroke-linejoin="round" stroke-miterlimit="10" points="
		2392.659,-2555.028 2605.991,-2790 2779.21,-2790 	"/>
	
		<polygon fill="none" stroke="#6D6E70" stroke-width="5" stroke-linecap="round" stroke-linejoin="round" stroke-miterlimit="10" points="
		2392.659,-2555.028 2464.659,-2457 2872.341,-2689.375 	"/>
	
		<polygon fill="none" stroke="#929497" stroke-width="5" stroke-linecap="round" stroke-linejoin="round" stroke-miterlimit="10" points="
		2356.659,-2664 2605.991,-2790 2392.659,-2555.028 	"/>
	
		<polygon fill="none" stroke="#6D6E70" stroke-width="5" stroke-linecap="round" stroke-linejoin="round" stroke-miterlimit="10" points="
		2392.659,-2555.028 2644.659,-2412 2464.659,-2457 	"/>
	
		<polygon fill="none" stroke="#6D6E70" stroke-width="5" stroke-linecap="round" stroke-linejoin="round" stroke-miterlimit="10" points="
		2644.659,-2412 2716.659,-2304 2872.341,-2689.375 	"/>
	
		<polygon fill="none" stroke="#D0D2D3" stroke-width="5" stroke-linecap="round" stroke-linejoin="round" stroke-miterlimit="10" points="
		2464.659,-2457 2347.659,-2304 2644.659,-2412 	"/>
	
		<polygon fill="none" stroke="#D0D2D3" stroke-width="5" stroke-linecap="round" stroke-linejoin="round" stroke-miterlimit="10" points="
		2347.659,-2304 2716.659,-2304 2572.659,-2160 	"/>
	
		<polygon fill="none" stroke="#404041" stroke-width="5" stroke-linecap="round" stroke-linejoin="round" stroke-miterlimit="10" points="
		2605.991,-2790 2779.21,-2790 2716.659,-3096 	"/>
	
		<polygon fill="none" stroke="#6D6E70" stroke-width="5" stroke-linecap="round" stroke-linejoin="round" stroke-miterlimit="10" points="
		2872.341,-2689.375 2716.659,-3096 2779.21,-2790 	"/>
	
		<polygon fill="none" stroke="#6D6E70" stroke-width="5" stroke-linecap="round" stroke-linejoin="round" stroke-miterlimit="10" points="
		2716.659,-3096 2605.991,-2790 2356.659,-2664 	"/>
	
		<polygon fill="none" stroke="#D0D2D3" stroke-width="5" stroke-linecap="round" stroke-linejoin="round" stroke-miterlimit="10" points="
		2464.659,-2457 2872.341,-2689.375 2572.659,-2160 	"/>
</g>
<g>
	
		<polygon fill="none" stroke="#404041" stroke-width="5" stroke-linecap="round" stroke-linejoin="round" stroke-miterlimit="10" points="
		-823.5,-945 -931.5,-921.564 -868.5,-1341 	"/>
	
		<polygon fill="none" stroke="#404041" stroke-width="5" stroke-linecap="round" stroke-linejoin="round" stroke-miterlimit="10" points="
		-1068.221,-678.316 -625.5,-720 -670.5,-522 	"/>
	
		<polygon fill="none" stroke="#404041" stroke-width="5" stroke-linecap="round" stroke-linejoin="round" stroke-miterlimit="10" points="
		-1068.221,-678.316 -814.5,-423 -670.5,-522 	"/>
	
		<polygon fill="none" stroke="#6D6E70" stroke-width="5" stroke-linecap="round" stroke-linejoin="round" stroke-miterlimit="10" points="
		-823.5,-945 -748.297,-1255.596 -868.5,-1341 	"/>
	
		<polygon fill="none" stroke="#6D6E70" stroke-width="5" stroke-linecap="round" stroke-linejoin="round" stroke-miterlimit="10" points="
		-931.5,-921.564 -625.5,-720 -670.5,-522 	"/>
	
		<polygon fill="none" stroke="#929497" stroke-width="5" stroke-linecap="round" stroke-linejoin="round" stroke-miterlimit="10" points="
		-823.5,-945 -625.5,-720 -931.5,-921.564 	"/>
	
		<polygon fill="none" stroke="#6D6E70" stroke-width="5" stroke-linecap="round" stroke-linejoin="round" stroke-miterlimit="10" points="
		-931.5,-921.564 -1068.221,-678.316 -1021.5,-855 	"/>
	
		<polygon fill="none" stroke="#929497" stroke-width="5" stroke-linecap="round" stroke-linejoin="round" stroke-miterlimit="10" points="
		-748.297,-1255.596 -931.5,-921.564 -823.5,-945 	"/>
	
		<polygon fill="none" stroke="#929497" stroke-width="5" stroke-linecap="round" stroke-linejoin="round" stroke-miterlimit="10" points="
		-931.5,-921.564 -1021.5,-855 -1138.5,-954 	"/>
	
		<polygon fill="none" stroke="#D0D2D3" stroke-width="5" stroke-linecap="round" stroke-linejoin="round" stroke-miterlimit="10" points="
		-1138.5,-954 -931.5,-921.564 -748.297,-1255.596 	"/>
	
		<polygon fill="none" stroke="#D0D2D3" stroke-width="5" stroke-linecap="round" stroke-linejoin="round" stroke-miterlimit="10" points="
		-931.5,-921.564 -1021.5,-855 -814.5,-423 	"/>
</g>
<g>
	
		<polygon fill="none" stroke="#404041" stroke-width="5" stroke-linecap="round" stroke-linejoin="round" stroke-miterlimit="10" points="
		4419,-2313 4395.564,-2421 4815,-2358 	"/>
	
		<polygon fill="none" stroke="#404041" stroke-width="5" stroke-linecap="round" stroke-linejoin="round" stroke-miterlimit="10" points="
		4152.316,-2557.722 4194,-2178 3996,-2160 	"/>
	
		<polygon fill="none" stroke="#404041" stroke-width="5" stroke-linecap="round" stroke-linejoin="round" stroke-miterlimit="10" points="
		4152.316,-2557.722 3897,-2304 3996,-2160 	"/>
	
		<polygon fill="none" stroke="#6D6E70" stroke-width="5" stroke-linecap="round" stroke-linejoin="round" stroke-miterlimit="10" points="
		4419,-2313 4729.598,-2237.796 4815,-2358 	"/>
	
		<polygon fill="none" stroke="#6D6E70" stroke-width="5" stroke-linecap="round" stroke-linejoin="round" stroke-miterlimit="10" points="
		4395.564,-2421 4329,-2511 3897,-2304 	"/>
	
		<polygon fill="none" stroke="#929497" stroke-width="5" stroke-linecap="round" stroke-linejoin="round" stroke-miterlimit="10" points="
		4419,-2313 4194,-2178 4395.564,-2421 	"/>
	
		<polygon fill="none" stroke="#6D6E70" stroke-width="5" stroke-linecap="round" stroke-linejoin="round" stroke-miterlimit="10" points="
		4395.564,-2421 4152.316,-2557.722 4329,-2511 	"/>
	
		<polygon fill="none" stroke="#D0D2D3" stroke-width="5" stroke-linecap="round" stroke-linejoin="round" stroke-miterlimit="10" points="
		4428,-2628 4152.316,-2557.722 4239,-2700 	"/>
	
		<polygon fill="none" stroke="#6D6E70" stroke-width="5" stroke-linecap="round" stroke-linejoin="round" stroke-miterlimit="10" points="
		4152.316,-2557.722 4239,-3060 4239,-2700 	"/>
	
		<polygon fill="none" stroke="#D0D2D3" stroke-width="5" stroke-linecap="round" stroke-linejoin="round" stroke-miterlimit="10" points="
		4239,-2700 4239,-3060 4428,-2628 	"/>
	
		<polygon fill="none" stroke="#929497" stroke-width="5" stroke-linecap="round" stroke-linejoin="round" stroke-miterlimit="10" points="
		4729.598,-2237.796 4395.564,-2421 4419,-2313 	"/>
	
		<polygon fill="none" stroke="#929497" stroke-width="5" stroke-linecap="round" stroke-linejoin="round" stroke-miterlimit="10" points="
		4395.564,-2421 4329,-2511 4428,-2628 	"/>
	
		<polygon fill="none" stroke="#D0D2D3" stroke-width="5" stroke-linecap="round" stroke-linejoin="round" stroke-miterlimit="10" points="
		4428,-2628 4395.564,-2421 4729.598,-2237.796 	"/>
	
		<polygon fill="none" stroke="#D0D2D3" stroke-width="5" stroke-linecap="round" stroke-linejoin="round" stroke-miterlimit="10" points="
		4329,-2511 4152.316,-2557.722 4428,-2628 	"/>
	
		<polygon fill="none" stroke="#D0D2D3" stroke-width="5" stroke-linecap="round" stroke-linejoin="round" stroke-miterlimit="10" points="
		4395.564,-2421 4194,-2178 3996,-2160 	"/>
</g>
<g>
	
		<polygon fill="none" stroke="#6D6E70" stroke-width="5" stroke-linecap="round" stroke-linejoin="round" stroke-miterlimit="10" points="
		805.5,-1071 706.5,-1382.697 859.5,-1467 	"/>
	
		<polygon fill="none" stroke="#929497" stroke-width="5" stroke-linecap="round" stroke-linejoin="round" stroke-miterlimit="10" points="
		706.5,-1382.697 859.5,-1467 859.5,-1683 	"/>
	
		<polygon fill="none" stroke="#404041" stroke-width="5" stroke-linecap="round" stroke-linejoin="round" stroke-miterlimit="10" points="
		652.5,-648 796.5,-81 796.5,-405 	"/>
	
		<polygon fill="none" stroke="#404041" stroke-width="5" stroke-linecap="round" stroke-linejoin="round" stroke-miterlimit="10" points="
		805.5,-1071 913.5,-1047.564 859.5,-1467 	"/>
	
		<polygon fill="none" stroke="#404041" stroke-width="5" stroke-linecap="round" stroke-linejoin="round" stroke-miterlimit="10" points="
		1057.5,-803.486 607.5,-846 652.5,-648 	"/>
	
		<polygon fill="none" stroke="#404041" stroke-width="5" stroke-linecap="round" stroke-linejoin="round" stroke-miterlimit="10" points="
		1057.5,-803.486 796.5,-549 652.5,-648 	"/>
	
		<polygon fill="none" stroke="#6D6E70" stroke-width="5" stroke-linecap="round" stroke-linejoin="round" stroke-miterlimit="10" points="
		913.5,-1047.564 607.5,-846 652.5,-648 	"/>
	
		<polygon fill="none" stroke="#929497" stroke-width="5" stroke-linecap="round" stroke-linejoin="round" stroke-miterlimit="10" points="
		805.5,-1071 607.5,-846 913.5,-1047.564 	"/>
	
		<polygon fill="none" stroke="#6D6E70" stroke-width="5" stroke-linecap="round" stroke-linejoin="round" stroke-miterlimit="10" points="
		913.5,-1047.564 1057.5,-803.486 1003.5,-981 	"/>
	
		<polygon fill="none" stroke="#929497" stroke-width="5" stroke-linecap="round" stroke-linejoin="round" stroke-miterlimit="10" points="
		706.5,-1382.697 913.5,-1047.564 805.5,-1071 	"/>
	
		<polygon fill="none" stroke="#929497" stroke-width="5" stroke-linecap="round" stroke-linejoin="round" stroke-miterlimit="10" points="
		913.5,-1047.564 1003.5,-981 1120.5,-1080 	"/>
	
		<polygon fill="none" stroke="#D0D2D3" stroke-width="5" stroke-linecap="round" stroke-linejoin="round" stroke-miterlimit="10" points="
		1120.5,-1080 913.5,-1047.564 706.5,-1382.697 	"/>
	
		<polygon fill="none" stroke="#D0D2D3" stroke-width="5" stroke-linecap="round" stroke-linejoin="round" stroke-miterlimit="10" points="
		913.5,-1047.564 1003.5,-981 796.5,-549 	"/>
	
		<polygon fill="none" stroke="#D0D2D3" stroke-width="5" stroke-linecap="round" stroke-linejoin="round" stroke-miterlimit="10" points="
		796.5,-549 652.5,-648 796.5,-405 	"/>
	
		<polygon fill="none" stroke="#D0D2D3" stroke-width="5" stroke-linecap="round" stroke-linejoin="round" stroke-miterlimit="10" points="
		859.5,-1467 1120.5,-1080 859.5,-1683 	"/>
	
		<polygon fill="none" stroke="#D0D2D3" stroke-width="5" stroke-linecap="round" stroke-linejoin="round" stroke-miterlimit="10" points="
		796.5,-405 1057.5,-803.486 796.5,-81 	"/>
</g>
<g>
	<g>
		
			<polygon fill="none" stroke="#404041" stroke-width="5" stroke-linecap="round" stroke-linejoin="round" stroke-miterlimit="10" points="
			-1314.75,1004.006 -1407.689,944.211 -1066.555,692.171 		"/>
		
			<polygon fill="none" stroke="#404041" stroke-width="5" stroke-linecap="round" stroke-linejoin="round" stroke-miterlimit="10" points="
			-1676.368,1019.533 -1333.842,1303.111 -1505.668,1411.299 		"/>
		
			<polygon fill="none" stroke="#404041" stroke-width="5" stroke-linecap="round" stroke-linejoin="round" stroke-miterlimit="10" points="
			-1676.368,1019.533 -1677.495,1379.48 -1505.668,1411.299 		"/>
		
			<polygon fill="none" stroke="#6D6E70" stroke-width="5" stroke-linecap="round" stroke-linejoin="round" stroke-miterlimit="10" points="
			-1314.75,1004.006 -1041.948,837.558 -1066.555,692.171 		"/>
		
			<polygon fill="none" stroke="#6D6E70" stroke-width="5" stroke-linecap="round" stroke-linejoin="round" stroke-miterlimit="10" points="
			-1407.689,944.211 -1333.842,1303.111 -1505.668,1411.299 		"/>
		
			<polygon fill="none" stroke="#929497" stroke-width="5" stroke-linecap="round" stroke-linejoin="round" stroke-miterlimit="10" points="
			-1314.75,1004.006 -1333.842,1303.111 -1407.689,944.211 		"/>
		
			<polygon fill="none" stroke="#6D6E70" stroke-width="5" stroke-linecap="round" stroke-linejoin="round" stroke-miterlimit="10" points="
			-1407.689,944.211 -1676.368,1019.533 -1518.396,927.639 		"/>
		
			<polygon fill="none" stroke="#929497" stroke-width="5" stroke-linecap="round" stroke-linejoin="round" stroke-miterlimit="10" points="
			-1041.948,837.558 -1407.689,944.211 -1314.75,1004.006 		"/>
		
			<polygon fill="none" stroke="#929497" stroke-width="5" stroke-linecap="round" stroke-linejoin="round" stroke-miterlimit="10" points="
			-1407.689,944.211 -1518.396,927.639 -1531.124,774.902 		"/>
		
			<polygon fill="none" stroke="#D0D2D3" stroke-width="5" stroke-linecap="round" stroke-linejoin="round" stroke-miterlimit="10" points="
			-1531.124,774.902 -1407.689,944.211 -1041.948,837.558 		"/>
		
			<polygon fill="none" stroke="#D0D2D3" stroke-width="5" stroke-linecap="round" stroke-linejoin="round" stroke-miterlimit="10" points="
			-1407.689,944.211 -1518.396,927.639 -1677.495,1379.48 		"/>
	</g>
	<g>
		
			<polygon fill="none" stroke="#404041" stroke-width="5" stroke-linecap="round" stroke-linejoin="round" stroke-miterlimit="10" points="
			-1022.008,1296.748 -962.212,1389.688 -710.173,1048.553 		"/>
		
			<polygon fill="none" stroke="#404041" stroke-width="5" stroke-linecap="round" stroke-linejoin="round" stroke-miterlimit="10" points="
			-1037.536,1658.365 -1321.113,1315.84 -1429.3,1487.666 		"/>
		
			<polygon fill="none" stroke="#404041" stroke-width="5" stroke-linecap="round" stroke-linejoin="round" stroke-miterlimit="10" points="
			-1037.536,1658.365 -1397.481,1659.494 -1429.3,1487.666 		"/>
		
			<polygon fill="none" stroke="#6D6E70" stroke-width="5" stroke-linecap="round" stroke-linejoin="round" stroke-miterlimit="10" points="
			-1022.008,1296.748 -855.559,1023.946 -710.173,1048.553 		"/>
		
			<polygon fill="none" stroke="#6D6E70" stroke-width="5" stroke-linecap="round" stroke-linejoin="round" stroke-miterlimit="10" points="
			-962.212,1389.688 -1321.113,1315.84 -1429.3,1487.666 		"/>
		
			<polygon fill="none" stroke="#929497" stroke-width="5" stroke-linecap="round" stroke-linejoin="round" stroke-miterlimit="10" points="
			-1022.008,1296.748 -1321.113,1315.84 -962.212,1389.688 		"/>
		
			<polygon fill="none" stroke="#6D6E70" stroke-width="5" stroke-linecap="round" stroke-linejoin="round" stroke-miterlimit="10" points="
			-962.212,1389.688 -1037.536,1658.365 -945.639,1500.395 		"/>
		
			<polygon fill="none" stroke="#929497" stroke-width="5" stroke-linecap="round" stroke-linejoin="round" stroke-miterlimit="10" points="
			-855.559,1023.946 -962.212,1389.688 -1022.008,1296.748 		"/>
		
			<polygon fill="none" stroke="#929497" stroke-width="5" stroke-linecap="round" stroke-linejoin="round" stroke-miterlimit="10" points="
			-962.212,1389.688 -945.639,1500.395 -792.905,1513.123 		"/>
		
			<polygon fill="none" stroke="#D0D2D3" stroke-width="5" stroke-linecap="round" stroke-linejoin="round" stroke-miterlimit="10" points="
			-792.905,1513.123 -962.212,1389.688 -855.559,1023.946 		"/>
		
			<polygon fill="none" stroke="#D0D2D3" stroke-width="5" stroke-linecap="round" stroke-linejoin="round" stroke-miterlimit="10" points="
			-962.212,1389.688 -945.639,1500.395 -1397.481,1659.494 		"/>
	</g>
	<g>
		
			<polygon fill="none" stroke="#404041" stroke-width="5" stroke-linecap="round" stroke-linejoin="round" stroke-miterlimit="10" points="
			-741.993,431.25 -801.788,338.311 -1053.827,679.443 		"/>
		
			<polygon fill="none" stroke="#404041" stroke-width="5" stroke-linecap="round" stroke-linejoin="round" stroke-miterlimit="10" points="
			-726.464,69.63 -442.887,412.157 -334.699,240.33 		"/>
		
			<polygon fill="none" stroke="#404041" stroke-width="5" stroke-linecap="round" stroke-linejoin="round" stroke-miterlimit="10" points="
			-726.464,69.63 -366.52,68.504 -334.699,240.33 		"/>
		
			<polygon fill="none" stroke="#6D6E70" stroke-width="5" stroke-linecap="round" stroke-linejoin="round" stroke-miterlimit="10" points="
			-741.993,431.25 -908.44,704.05 -1053.827,679.443 		"/>
		
			<polygon fill="none" stroke="#6D6E70" stroke-width="5" stroke-linecap="round" stroke-linejoin="round" stroke-miterlimit="10" points="
			-801.788,338.311 -442.887,412.157 -334.699,240.33 		"/>
		
			<polygon fill="none" stroke="#929497" stroke-width="5" stroke-linecap="round" stroke-linejoin="round" stroke-miterlimit="10" points="
			-741.993,431.25 -442.887,412.157 -801.788,338.311 		"/>
		
			<polygon fill="none" stroke="#6D6E70" stroke-width="5" stroke-linecap="round" stroke-linejoin="round" stroke-miterlimit="10" points="
			-801.788,338.311 -726.464,69.63 -818.36,227.602 		"/>
		
			<polygon fill="none" stroke="#929497" stroke-width="5" stroke-linecap="round" stroke-linejoin="round" stroke-miterlimit="10" points="
			-908.44,704.05 -801.788,338.311 -741.993,431.25 		"/>
		
			<polygon fill="none" stroke="#929497" stroke-width="5" stroke-linecap="round" stroke-linejoin="round" stroke-miterlimit="10" points="
			-801.788,338.311 -818.36,227.602 -971.096,214.875 		"/>
		
			<polygon fill="none" stroke="#D0D2D3" stroke-width="5" stroke-linecap="round" stroke-linejoin="round" stroke-miterlimit="10" points="
			-971.096,214.875 -801.788,338.311 -908.44,704.05 		"/>
		
			<polygon fill="none" stroke="#D0D2D3" stroke-width="5" stroke-linecap="round" stroke-linejoin="round" stroke-miterlimit="10" points="
			-801.788,338.311 -818.36,227.602 -366.52,68.504 		"/>
	</g>
	<g>
		
			<polygon fill="none" stroke="#404041" stroke-width="5" stroke-linecap="round" stroke-linejoin="round" stroke-miterlimit="10" points="
			-449.251,723.992 -356.312,783.787 -697.445,1035.826 		"/>
		
			<polygon fill="none" stroke="#404041" stroke-width="5" stroke-linecap="round" stroke-linejoin="round" stroke-miterlimit="10" points="
			-87.633,708.463 -430.159,424.886 -258.332,316.697 		"/>
		
			<polygon fill="none" stroke="#404041" stroke-width="5" stroke-linecap="round" stroke-linejoin="round" stroke-miterlimit="10" points="
			-87.633,708.463 -86.504,348.518 -258.332,316.697 		"/>
		
			<polygon fill="none" stroke="#6D6E70" stroke-width="5" stroke-linecap="round" stroke-linejoin="round" stroke-miterlimit="10" points="
			-449.251,723.992 -722.051,890.438 -697.445,1035.826 		"/>
		
			<polygon fill="none" stroke="#6D6E70" stroke-width="5" stroke-linecap="round" stroke-linejoin="round" stroke-miterlimit="10" points="
			-356.312,783.787 -430.159,424.886 -258.332,316.697 		"/>
		
			<polygon fill="none" stroke="#929497" stroke-width="5" stroke-linecap="round" stroke-linejoin="round" stroke-miterlimit="10" points="
			-449.251,723.992 -430.159,424.886 -356.312,783.787 		"/>
		
			<polygon fill="none" stroke="#6D6E70" stroke-width="5" stroke-linecap="round" stroke-linejoin="round" stroke-miterlimit="10" points="
			-356.312,783.787 -87.633,708.463 -245.604,800.359 		"/>
		
			<polygon fill="none" stroke="#929497" stroke-width="5" stroke-linecap="round" stroke-linejoin="round" stroke-miterlimit="10" points="
			-722.051,890.438 -356.312,783.787 -449.251,723.992 		"/>
		
			<polygon fill="none" stroke="#929497" stroke-width="5" stroke-linecap="round" stroke-linejoin="round" stroke-miterlimit="10" points="
			-356.312,783.787 -245.604,800.359 -232.875,953.094 		"/>
		
			<polygon fill="none" stroke="#D0D2D3" stroke-width="5" stroke-linecap="round" stroke-linejoin="round" stroke-miterlimit="10" points="
			-232.875,953.094 -356.312,783.787 -722.051,890.438 		"/>
		
			<polygon fill="none" stroke="#D0D2D3" stroke-width="5" stroke-linecap="round" stroke-linejoin="round" stroke-miterlimit="10" points="
			-356.312,783.787 -245.604,800.359 -86.504,348.518 		"/>
	</g>
</g>
<g>
	<g>
		
			<polygon fill="none" stroke="#404041" stroke-width="5" stroke-linecap="round" stroke-linejoin="round" stroke-miterlimit="10" points="
			1004.007,813.087 1063.803,720.147 1315.841,1061.282 		"/>
		
			<polygon fill="none" stroke="#404041" stroke-width="5" stroke-linecap="round" stroke-linejoin="round" stroke-miterlimit="10" points="
			988.479,451.468 749.448,749.448 596.713,622.169 		"/>
		
			<polygon fill="none" stroke="#404041" stroke-width="5" stroke-linecap="round" stroke-linejoin="round" stroke-miterlimit="10" points="
			988.479,451.468 628.533,450.341 596.713,622.169 		"/>
		
			<polygon fill="none" stroke="#6D6E70" stroke-width="5" stroke-linecap="round" stroke-linejoin="round" stroke-miterlimit="10" points="
			1004.007,813.087 1170.455,1085.89 1315.841,1061.282 		"/>
		
			<polygon fill="none" stroke="#6D6E70" stroke-width="5" stroke-linecap="round" stroke-linejoin="round" stroke-miterlimit="10" points="
			1063.803,720.147 1080.374,609.44 628.533,450.341 		"/>
		
			<polygon fill="none" stroke="#929497" stroke-width="5" stroke-linecap="round" stroke-linejoin="round" stroke-miterlimit="10" points="
			1004.007,813.087 749.448,749.448 1063.803,720.147 		"/>
		
			<polygon fill="none" stroke="#6D6E70" stroke-width="5" stroke-linecap="round" stroke-linejoin="round" stroke-miterlimit="10" points="
			1063.803,720.147 988.479,451.468 1080.374,609.44 		"/>
		
			<polygon fill="none" stroke="#D0D2D3" stroke-width="5" stroke-linecap="round" stroke-linejoin="round" stroke-miterlimit="10" points="
			1233.109,596.712 988.479,451.468 1150.378,412.157 		"/>
		
			<polygon fill="none" stroke="#6D6E70" stroke-width="5" stroke-linecap="round" stroke-linejoin="round" stroke-miterlimit="10" points="
			988.479,451.468 1404.937,157.599 1150.378,412.157 		"/>
		
			<polygon fill="none" stroke="#D0D2D3" stroke-width="5" stroke-linecap="round" stroke-linejoin="round" stroke-miterlimit="10" points="
			1150.378,412.157 1404.937,157.599 1233.109,596.712 		"/>
		
			<polygon fill="none" stroke="#929497" stroke-width="5" stroke-linecap="round" stroke-linejoin="round" stroke-miterlimit="10" points="
			1170.455,1085.89 1063.803,720.147 1004.007,813.087 		"/>
		
			<polygon fill="none" stroke="#929497" stroke-width="5" stroke-linecap="round" stroke-linejoin="round" stroke-miterlimit="10" points="
			1063.803,720.147 1080.374,609.44 1233.109,596.712 		"/>
		
			<polygon fill="none" stroke="#D0D2D3" stroke-width="5" stroke-linecap="round" stroke-linejoin="round" stroke-miterlimit="10" points="
			1233.109,596.712 1063.803,720.147 1170.455,1085.89 		"/>
		
			<polygon fill="none" stroke="#D0D2D3" stroke-width="5" stroke-linecap="round" stroke-linejoin="round" stroke-miterlimit="10" points="
			1080.374,609.44 988.479,451.468 1233.109,596.712 		"/>
		
			<polygon fill="none" stroke="#D0D2D3" stroke-width="5" stroke-linecap="round" stroke-linejoin="round" stroke-miterlimit="10" points="
			1063.803,720.147 749.448,749.448 596.713,622.169 		"/>
	</g>
	<g>
		
			<polygon fill="none" stroke="#404041" stroke-width="5" stroke-linecap="round" stroke-linejoin="round" stroke-miterlimit="10" points="
			723.992,914.911 664.196,1007.851 412.158,666.716 		"/>
		
			<polygon fill="none" stroke="#404041" stroke-width="5" stroke-linecap="round" stroke-linejoin="round" stroke-miterlimit="10" points="
			739.522,1276.528 978.551,978.55 1131.286,1105.829 		"/>
		
			<polygon fill="none" stroke="#404041" stroke-width="5" stroke-linecap="round" stroke-linejoin="round" stroke-miterlimit="10" points="
			739.522,1276.528 1099.466,1277.657 1131.286,1105.829 		"/>
		
			<polygon fill="none" stroke="#6D6E70" stroke-width="5" stroke-linecap="round" stroke-linejoin="round" stroke-miterlimit="10" points="
			723.992,914.911 557.545,642.11 412.158,666.716 		"/>
		
			<polygon fill="none" stroke="#6D6E70" stroke-width="5" stroke-linecap="round" stroke-linejoin="round" stroke-miterlimit="10" points="
			664.196,1007.851 647.625,1118.558 1099.466,1277.657 		"/>
		
			<polygon fill="none" stroke="#929497" stroke-width="5" stroke-linecap="round" stroke-linejoin="round" stroke-miterlimit="10" points="
			723.992,914.911 978.551,978.55 664.196,1007.851 		"/>
		
			<polygon fill="none" stroke="#6D6E70" stroke-width="5" stroke-linecap="round" stroke-linejoin="round" stroke-miterlimit="10" points="
			664.196,1007.851 739.522,1276.528 647.625,1118.558 		"/>
		
			<polygon fill="none" stroke="#D0D2D3" stroke-width="5" stroke-linecap="round" stroke-linejoin="round" stroke-miterlimit="10" points="
			494.89,1131.286 739.522,1276.528 577.622,1315.839 		"/>
		
			<polygon fill="none" stroke="#6D6E70" stroke-width="5" stroke-linecap="round" stroke-linejoin="round" stroke-miterlimit="10" points="
			739.522,1276.528 323.063,1570.399 577.621,1315.841 		"/>
		
			<polygon fill="none" stroke="#D0D2D3" stroke-width="5" stroke-linecap="round" stroke-linejoin="round" stroke-miterlimit="10" points="
			577.621,1315.841 323.063,1570.399 494.89,1131.286 		"/>
		
			<polygon fill="none" stroke="#929497" stroke-width="5" stroke-linecap="round" stroke-linejoin="round" stroke-miterlimit="10" points="
			557.545,642.11 664.196,1007.851 723.992,914.911 		"/>
		
			<polygon fill="none" stroke="#929497" stroke-width="5" stroke-linecap="round" stroke-linejoin="round" stroke-miterlimit="10" points="
			664.196,1007.851 647.625,1118.558 494.89,1131.286 		"/>
		
			<polygon fill="none" stroke="#D0D2D3" stroke-width="5" stroke-linecap="round" stroke-linejoin="round" stroke-miterlimit="10" points="
			494.89,1131.286 664.196,1007.851 557.545,642.11 		"/>
		
			<polygon fill="none" stroke="#D0D2D3" stroke-width="5" stroke-linecap="round" stroke-linejoin="round" stroke-miterlimit="10" points="
			647.625,1118.558 739.522,1276.528 494.89,1131.286 		"/>
		
			<polygon fill="none" stroke="#D0D2D3" stroke-width="5" stroke-linecap="round" stroke-linejoin="round" stroke-miterlimit="10" points="
			664.196,1007.851 978.551,978.55 1131.286,1105.829 		"/>
	</g>
</g>
<g>
	<g>
		
			<polygon fill="none" stroke="#404041" stroke-width="5" stroke-linecap="round" stroke-linejoin="round" stroke-miterlimit="10" points="
			2205.938,482.284 2603.051,788.554 2360.104,839.669 		"/>
		
			<polygon fill="none" stroke="#404041" stroke-width="5" stroke-linecap="round" stroke-linejoin="round" stroke-miterlimit="10" points="
			2211.783,482.284 2235.422,840.599 2365.947,839.669 		"/>
		
			<polygon fill="none" stroke="#6D6E70" stroke-width="5" stroke-linecap="round" stroke-linejoin="round" stroke-miterlimit="10" points="
			2599.895,476.458 2846.201,300.306 3001.5,334.825 		"/>
		
			<polygon fill="none" stroke="#6D6E70" stroke-width="5" stroke-linecap="round" stroke-linejoin="round" stroke-miterlimit="10" points="
			2492.902,404.827 2603.051,788.554 2360.104,839.669 		"/>
		
			<polygon fill="none" stroke="#6D6E70" stroke-width="5" stroke-linecap="round" stroke-linejoin="round" stroke-miterlimit="10" points="
			2498.746,404.827 2370.113,402.78 2235.422,840.599 		"/>
		
			<polygon fill="none" stroke="#D0D2D3" stroke-width="5" stroke-linecap="round" stroke-linejoin="round" stroke-miterlimit="10" points="
			2846.201,300.306 2498.746,404.827 2599.895,476.458 		"/>
		
			<polygon fill="none" stroke="#929497" stroke-width="5" stroke-linecap="round" stroke-linejoin="round" stroke-miterlimit="10" points="
			2594.051,476.458 2603.051,788.554 2492.902,404.827 		"/>
		
			<polygon fill="none" stroke="#6D6E70" stroke-width="5" stroke-linecap="round" stroke-linejoin="round" stroke-miterlimit="10" points="
			2498.746,404.827 2211.783,482.284 2370.113,402.78 		"/>
		
			<polygon fill="none" stroke="#D0D2D3" stroke-width="5" stroke-linecap="round" stroke-linejoin="round" stroke-miterlimit="10" points="
			2498.746,404.827 2370.113,402.78 1938.719,48.446 		"/>
		
			<polygon fill="none" stroke="#D0D2D3" stroke-width="5" stroke-linecap="round" stroke-linejoin="round" stroke-miterlimit="10" points="
			2370.113,402.78 2211.783,482.284 1938.719,48.446 		"/>
		
			<polygon fill="none" stroke="#404041" stroke-width="5" stroke-linecap="round" stroke-linejoin="round" stroke-miterlimit="10" points="
			2164.787,1244.019 2185.51,1367.19 2396.924,1104.864 		"/>
		
			<polygon fill="none" stroke="#6D6E70" stroke-width="5" stroke-linecap="round" stroke-linejoin="round" stroke-miterlimit="10" points="
			2396.924,1104.864 2304.076,1051.778 2164.787,1244.019 		"/>
		
			<polygon fill="none" stroke="#929497" stroke-width="5" stroke-linecap="round" stroke-linejoin="round" stroke-miterlimit="10" points="
			2365.947,839.669 2304.076,1051.778 2396.924,1104.864 		"/>
		
			<polygon fill="none" stroke="#D0D2D3" stroke-width="5" stroke-linecap="round" stroke-linejoin="round" stroke-miterlimit="10" points="
			2235.422,840.599 2304.076,1051.778 2365.947,839.669 		"/>
	</g>
	<g>
		
			<polygon fill="none" stroke="#404041" stroke-width="5" stroke-linecap="round" stroke-linejoin="round" stroke-miterlimit="10" points="
			3014.063,1245.716 2616.949,939.446 2859.896,888.329 		"/>
		
			<polygon fill="none" stroke="#404041" stroke-width="5" stroke-linecap="round" stroke-linejoin="round" stroke-miterlimit="10" points="
			3008.219,1245.716 2984.58,887.401 2854.053,888.329 		"/>
		
			<polygon fill="none" stroke="#6D6E70" stroke-width="5" stroke-linecap="round" stroke-linejoin="round" stroke-miterlimit="10" points="
			2620.105,1251.542 2373.797,1427.692 2218.5,1393.175 		"/>
		
			<polygon fill="none" stroke="#6D6E70" stroke-width="5" stroke-linecap="round" stroke-linejoin="round" stroke-miterlimit="10" points="
			2727.098,1323.171 2616.949,939.446 2859.896,888.329 		"/>
		
			<polygon fill="none" stroke="#6D6E70" stroke-width="5" stroke-linecap="round" stroke-linejoin="round" stroke-miterlimit="10" points="
			2721.254,1323.171 2849.887,1325.218 2984.58,887.401 		"/>
		
			<polygon fill="none" stroke="#D0D2D3" stroke-width="5" stroke-linecap="round" stroke-linejoin="round" stroke-miterlimit="10" points="
			2373.797,1427.692 2721.254,1323.171 2620.105,1251.542 		"/>
		
			<polygon fill="none" stroke="#929497" stroke-width="5" stroke-linecap="round" stroke-linejoin="round" stroke-miterlimit="10" points="
			2625.949,1251.542 2616.949,939.446 2727.098,1323.171 		"/>
		
			<polygon fill="none" stroke="#6D6E70" stroke-width="5" stroke-linecap="round" stroke-linejoin="round" stroke-miterlimit="10" points="
			2721.254,1323.171 3008.219,1245.716 2849.887,1325.218 		"/>
		
			<polygon fill="none" stroke="#D0D2D3" stroke-width="5" stroke-linecap="round" stroke-linejoin="round" stroke-miterlimit="10" points="
			2721.254,1323.171 2849.887,1325.218 3281.281,1679.554 		"/>
		
			<polygon fill="none" stroke="#D0D2D3" stroke-width="5" stroke-linecap="round" stroke-linejoin="round" stroke-miterlimit="10" points="
			2849.887,1325.218 3008.219,1245.716 3281.281,1679.554 		"/>
		
			<polygon fill="none" stroke="#404041" stroke-width="5" stroke-linecap="round" stroke-linejoin="round" stroke-miterlimit="10" points="
			3055.213,483.979 3034.492,360.81 2823.076,623.136 		"/>
		
			<polygon fill="none" stroke="#6D6E70" stroke-width="5" stroke-linecap="round" stroke-linejoin="round" stroke-miterlimit="10" points="
			2823.076,623.136 2915.926,676.22 3055.213,483.979 		"/>
		
			<polygon fill="none" stroke="#929497" stroke-width="5" stroke-linecap="round" stroke-linejoin="round" stroke-miterlimit="10" points="
			2854.053,888.329 2915.926,676.22 2823.076,623.136 		"/>
		
			<polygon fill="none" stroke="#D0D2D3" stroke-width="5" stroke-linecap="round" stroke-linejoin="round" stroke-miterlimit="10" points="
			2984.58,887.401 2915.926,676.22 2854.053,888.329 		"/>
	</g>
</g>
<g>
	<g>
		
			<polygon fill="none" stroke="#404041" stroke-width="5" stroke-linecap="round" stroke-linejoin="round" stroke-miterlimit="10" points="
			4830.592,791.483 4791.924,413.483 4965.145,413.483 		"/>
		
			<polygon fill="none" stroke="#404041" stroke-width="5" stroke-linecap="round" stroke-linejoin="round" stroke-miterlimit="10" points="
			4830.592,791.483 5058.275,514.108 4965.145,413.483 		"/>
		
			<polygon fill="none" stroke="#6D6E70" stroke-width="5" stroke-linecap="round" stroke-linejoin="round" stroke-miterlimit="10" points="
			4578.592,648.454 4791.924,413.483 4965.145,413.483 		"/>
		
			<polygon fill="none" stroke="#6D6E70" stroke-width="5" stroke-linecap="round" stroke-linejoin="round" stroke-miterlimit="10" points="
			4578.592,648.454 4650.592,746.483 5058.275,514.108 		"/>
		
			<polygon fill="none" stroke="#929497" stroke-width="5" stroke-linecap="round" stroke-linejoin="round" stroke-miterlimit="10" points="
			4527.275,539.483 4791.924,413.483 4578.592,648.454 		"/>
		
			<polygon fill="none" stroke="#6D6E70" stroke-width="5" stroke-linecap="round" stroke-linejoin="round" stroke-miterlimit="10" points="
			4578.592,648.454 4830.592,791.483 4650.592,746.483 		"/>
		
			<polygon fill="none" stroke="#6D6E70" stroke-width="5" stroke-linecap="round" stroke-linejoin="round" stroke-miterlimit="10" points="
			4830.592,791.483 4902.592,899.483 5058.275,514.108 		"/>
		
			<polygon fill="none" stroke="#D0D2D3" stroke-width="5" stroke-linecap="round" stroke-linejoin="round" stroke-miterlimit="10" points="
			4650.592,746.483 4527.275,899.483 4830.592,791.483 		"/>
		
			<polygon fill="none" stroke="#D0D2D3" stroke-width="5" stroke-linecap="round" stroke-linejoin="round" stroke-miterlimit="10" points="
			4527.275,899.483 4902.592,899.483 4758.592,1043.483 		"/>
		
			<polygon fill="none" stroke="#404041" stroke-width="5" stroke-linecap="round" stroke-linejoin="round" stroke-miterlimit="10" points="
			4791.924,413.483 4965.145,413.483 4902.592,107.483 		"/>
		
			<polygon fill="none" stroke="#6D6E70" stroke-width="5" stroke-linecap="round" stroke-linejoin="round" stroke-miterlimit="10" points="
			5058.275,514.108 4902.592,107.483 4965.145,413.483 		"/>
		
			<polygon fill="none" stroke="#6D6E70" stroke-width="5" stroke-linecap="round" stroke-linejoin="round" stroke-miterlimit="10" points="
			4902.592,107.483 4791.924,413.483 4527.275,539.483 		"/>
		
			<polygon fill="none" stroke="#D0D2D3" stroke-width="5" stroke-linecap="round" stroke-linejoin="round" stroke-miterlimit="10" points="
			4650.592,746.483 5058.275,514.108 4758.592,1043.483 		"/>
	</g>
	<g>
		
			<polygon fill="none" stroke="#404041" stroke-width="5" stroke-linecap="round" stroke-linejoin="round" stroke-miterlimit="10" points="
			4282.086,690.804 3974.063,913.29 3887.453,763.278 		"/>
		
			<polygon fill="none" stroke="#404041" stroke-width="5" stroke-linecap="round" stroke-linejoin="round" stroke-miterlimit="10" points="
			4282.086,690.804 3928.031,632.312 3887.453,763.278 		"/>
		
			<polygon fill="none" stroke="#6D6E70" stroke-width="5" stroke-linecap="round" stroke-linejoin="round" stroke-miterlimit="10" points="
			4284.221,980.556 3974.063,913.29 3887.453,763.278 		"/>
		
			<polygon fill="none" stroke="#6D6E70" stroke-width="5" stroke-linecap="round" stroke-linejoin="round" stroke-miterlimit="10" points="
			4284.221,980.556 4333.115,869.188 3928.031,632.312 		"/>
		
			<polygon fill="none" stroke="#929497" stroke-width="5" stroke-linecap="round" stroke-linejoin="round" stroke-miterlimit="10" points="
			4215.506,1079.483 3974.063,913.29 4284.221,980.556 		"/>
		
			<polygon fill="none" stroke="#6D6E70" stroke-width="5" stroke-linecap="round" stroke-linejoin="round" stroke-miterlimit="10" points="
			4284.221,980.556 4282.086,690.804 4333.115,869.188 		"/>
		
			<polygon fill="none" stroke="#6D6E70" stroke-width="5" stroke-linecap="round" stroke-linejoin="round" stroke-miterlimit="10" points="
			4282.086,690.804 4339.617,574.45 3928.031,632.312 		"/>
		
			<polygon fill="none" stroke="#D0D2D3" stroke-width="5" stroke-linecap="round" stroke-linejoin="round" stroke-miterlimit="10" points="
			4333.115,869.188 4527.275,899.483 4282.086,690.804 		"/>
		
			<polygon fill="none" stroke="#D0D2D3" stroke-width="5" stroke-linecap="round" stroke-linejoin="round" stroke-miterlimit="10" points="
			4527.275,899.483 4339.617,574.45 4536.324,627.157 		"/>
		
			<polygon fill="none" stroke="#404041" stroke-width="5" stroke-linecap="round" stroke-linejoin="round" stroke-miterlimit="10" points="
			3974.063,913.29 3887.453,763.278 3653.725,970.45 		"/>
		
			<polygon fill="none" stroke="#6D6E70" stroke-width="5" stroke-linecap="round" stroke-linejoin="round" stroke-miterlimit="10" points="
			3928.031,632.312 3653.725,970.45 3887.453,763.278 		"/>
		
			<polygon fill="none" stroke="#6D6E70" stroke-width="5" stroke-linecap="round" stroke-linejoin="round" stroke-miterlimit="10" points="
			3653.725,970.45 3974.063,913.29 4215.506,1079.483 		"/>
		
			<polygon fill="none" stroke="#D0D2D3" stroke-width="5" stroke-linecap="round" stroke-linejoin="round" stroke-miterlimit="10" points="
			4333.115,869.188 3928.031,632.312 4536.324,627.157 		"/>
	</g>
	<g>
		
			<polygon fill="none" stroke="#404041" stroke-width="5" stroke-linecap="round" stroke-linejoin="round" stroke-miterlimit="10" points="
			4469.146,1216.163 4815.838,1371.675 4729.229,1521.688 		"/>
		
			<polygon fill="none" stroke="#404041" stroke-width="5" stroke-linecap="round" stroke-linejoin="round" stroke-miterlimit="10" points="
			4469.146,1216.163 4595.52,1552.03 4729.229,1521.688 		"/>
		
			<polygon fill="none" stroke="#6D6E70" stroke-width="5" stroke-linecap="round" stroke-linejoin="round" stroke-miterlimit="10" points="
			4719.014,1069.438 4815.838,1371.675 4729.229,1521.688 		"/>
		
			<polygon fill="none" stroke="#6D6E70" stroke-width="5" stroke-linecap="round" stroke-linejoin="round" stroke-miterlimit="10" points="
			4719.014,1069.438 4598.119,1082.778 4595.52,1552.03 		"/>
		
			<polygon fill="none" stroke="#929497" stroke-width="5" stroke-linecap="round" stroke-linejoin="round" stroke-miterlimit="10" points="
			4839.043,1079.483 4815.838,1371.675 4719.014,1069.438 		"/>
		
			<polygon fill="none" stroke="#6D6E70" stroke-width="5" stroke-linecap="round" stroke-linejoin="round" stroke-miterlimit="10" points="
			4719.014,1069.438 4469.146,1216.163 4598.119,1082.778 		"/>
		
			<polygon fill="none" stroke="#6D6E70" stroke-width="5" stroke-linecap="round" stroke-linejoin="round" stroke-miterlimit="10" points="
			4469.146,1216.163 4339.617,1224.517 4595.52,1552.03 		"/>
		
			<polygon fill="none" stroke="#D0D2D3" stroke-width="5" stroke-linecap="round" stroke-linejoin="round" stroke-miterlimit="10" points="
			4598.119,1082.778 4527.275,899.483 4469.146,1216.163 		"/>
		
			<polygon fill="none" stroke="#D0D2D3" stroke-width="5" stroke-linecap="round" stroke-linejoin="round" stroke-miterlimit="10" points="
			4527.275,899.483 4339.617,1224.517 4286.91,1027.808 		"/>
		
			<polygon fill="none" stroke="#404041" stroke-width="5" stroke-linecap="round" stroke-linejoin="round" stroke-miterlimit="10" points="
			4815.838,1371.675 4729.229,1521.688 5025.51,1620.517 		"/>
		
			<polygon fill="none" stroke="#6D6E70" stroke-width="5" stroke-linecap="round" stroke-linejoin="round" stroke-miterlimit="10" points="
			4595.52,1552.03 5025.51,1620.517 4729.229,1521.688 		"/>
		
			<polygon fill="none" stroke="#6D6E70" stroke-width="5" stroke-linecap="round" stroke-linejoin="round" stroke-miterlimit="10" points="
			5025.51,1620.517 4815.838,1371.675 4839.043,1079.483 		"/>
		
			<polygon fill="none" stroke="#D0D2D3" stroke-width="5" stroke-linecap="round" stroke-linejoin="round" stroke-miterlimit="10" points="
			4598.119,1082.778 4595.52,1552.03 4286.91,1027.808 		"/>
	</g>
</g>
<g>
	
		<polygon fill="none" stroke="#404041" stroke-width="5" stroke-linecap="round" stroke-linejoin="round" stroke-miterlimit="10" points="
		2520,-760.5 1980,-1174.5 2646,-985.5 	"/>
	
		<polygon fill="none" stroke="#404041" stroke-width="5" stroke-linecap="round" stroke-linejoin="round" stroke-miterlimit="10" points="
		2520,-760.5 2646,-985.5 3240,-904.5 	"/>
	
		<polygon fill="none" stroke="#404041" stroke-width="5" stroke-linecap="round" stroke-linejoin="round" stroke-miterlimit="10" points="
		2520,-760.5 2961,-454.5 2349,-724.5 	"/>
	
		<polygon fill="none" stroke="#6D6E70" stroke-width="5" stroke-linecap="round" stroke-linejoin="round" stroke-miterlimit="10" points="
		2547,-1066.5 2376,-931.5 2349,-724.5 2520,-760.5 2646,-985.5 	"/>
	
		<polygon fill="none" stroke="#929497" stroke-width="5" stroke-linecap="round" stroke-linejoin="round" stroke-miterlimit="10" points="
		2646,-985.5 2547,-1066.5 2823.195,-1309.5 	"/>
	
		<polygon fill="none" stroke="#D0D2D3" stroke-width="5" stroke-linecap="round" stroke-linejoin="round" stroke-miterlimit="10" points="
		2961,-454.5 3240,-904.5 2823.195,-1309.5 	"/>
	
		<polygon fill="none" stroke="#929497" stroke-width="5" stroke-linecap="round" stroke-linejoin="round" stroke-miterlimit="10" points="
		2349,-724.5 2376,-931.5 2115,-751.5 	"/>
	
		<polygon fill="none" stroke="#929497" stroke-width="5" stroke-linecap="round" stroke-linejoin="round" stroke-miterlimit="10" points="
		2115,-751.5 2547,-1255.5 1980,-1174.5 	"/>
	
		<polygon fill="none" stroke="#D0D2D3" stroke-width="5" stroke-linecap="round" stroke-linejoin="round" stroke-miterlimit="10" points="
		2376,-931.5 2547,-1066.5 2547,-1255.5 	"/>
</g>
</svg>
