<?xml version="1.0" encoding="utf-8"?>
<!-- Generator: Adobe Illustrator 15.0.0, SVG Export Plug-In . SVG Version: 6.00 Build 0)  -->
<!DOCTYPE svg PUBLIC "-//W3C//DTD SVG 1.1//EN" "http://www.w3.org/Graphics/SVG/1.1/DTD/svg11.dtd">
<svg version="1.1" id="Layer_1" xmlns="http://www.w3.org/2000/svg" xmlns:xlink="http://www.w3.org/1999/xlink" x="0px" y="0px"
	 width="1728px" height="1728px" viewBox="0 0 1728 1728" enable-background="new 0 0 1728 1728" xml:space="preserve">
<g>
	
		<polygon fill="none" stroke="#404041" stroke-width="5" stroke-linecap="round" stroke-linejoin="round" stroke-miterlimit="10" points="
		-4160.983,-2699.097 -4191.986,-3060.819 -4017.286,-3060.819 	"/>
	
		<polygon fill="none" stroke="#404041" stroke-width="5" stroke-linecap="round" stroke-linejoin="round" stroke-miterlimit="10" points="
		-4160.983,-2699.097 -3924.332,-2969.179 -4017.286,-3060.819 	"/>
	
		<polygon fill="none" stroke="#6D6E70" stroke-width="5" stroke-linecap="round" stroke-linejoin="round" stroke-miterlimit="10" points="
		-4439.54,-2969.415 -4738.265,-3019.022 -4823.668,-2886.583 	"/>
	
		<polygon fill="none" stroke="#6D6E70" stroke-width="5" stroke-linecap="round" stroke-linejoin="round" stroke-miterlimit="10" points="
		-4403.455,-2837.271 -4191.986,-3060.819 -4017.286,-3060.819 	"/>
	
		<polygon fill="none" stroke="#6D6E70" stroke-width="5" stroke-linecap="round" stroke-linejoin="round" stroke-miterlimit="10" points="
		-4403.455,-2837.271 -4329.159,-2754.837 -3924.332,-2969.179 	"/>
	
		<polygon fill="none" stroke="#D0D2D3" stroke-width="5" stroke-linecap="round" stroke-linejoin="round" stroke-miterlimit="10" points="
		-4738.265,-3019.022 -4403.455,-2837.271 -4439.54,-2969.415 	"/>
	
		<polygon fill="none" stroke="#929497" stroke-width="5" stroke-linecap="round" stroke-linejoin="round" stroke-miterlimit="10" points="
		-4439.54,-2969.415 -4191.986,-3060.819 -4403.455,-2837.271 	"/>
	
		<polygon fill="none" stroke="#6D6E70" stroke-width="5" stroke-linecap="round" stroke-linejoin="round" stroke-miterlimit="10" points="
		-4403.455,-2837.271 -4160.983,-2699.097 -4329.159,-2754.837 	"/>
	
		<polygon fill="none" stroke="#D0D2D3" stroke-width="5" stroke-linecap="round" stroke-linejoin="round" stroke-miterlimit="10" points="
		-4403.455,-2837.271 -4329.159,-2754.837 -4212.332,-2195.181 	"/>
	
		<polygon fill="none" stroke="#D0D2D3" stroke-width="5" stroke-linecap="round" stroke-linejoin="round" stroke-miterlimit="10" points="
		-4329.159,-2754.837 -4160.983,-2699.097 -4212.332,-2195.181 	"/>
</g>
<g>
	
		<polygon fill="none" stroke="#404041" stroke-width="5" stroke-linecap="round" stroke-linejoin="round" stroke-miterlimit="10" points="
		-2618.808,-2574.355 -2649.811,-2936.076 -2475.111,-2936.076 	"/>
	
		<polygon fill="none" stroke="#404041" stroke-width="5" stroke-linecap="round" stroke-linejoin="round" stroke-miterlimit="10" points="
		-2618.808,-2574.355 -2382.157,-2844.437 -2475.111,-2936.076 	"/>
	
		<polygon fill="none" stroke="#6D6E70" stroke-width="5" stroke-linecap="round" stroke-linejoin="round" stroke-miterlimit="10" points="
		-2897.365,-2844.672 -3196.089,-2894.279 -3281.493,-2761.842 	"/>
	
		<polygon fill="none" stroke="#6D6E70" stroke-width="5" stroke-linecap="round" stroke-linejoin="round" stroke-miterlimit="10" points="
		-2876.493,-2722.5 -2649.811,-2936.076 -2475.111,-2936.076 	"/>
	
		<polygon fill="none" stroke="#6D6E70" stroke-width="5" stroke-linecap="round" stroke-linejoin="round" stroke-miterlimit="10" points="
		-2876.493,-2722.5 -2786.984,-2630.096 -2382.157,-2844.437 	"/>
	
		<polygon fill="none" stroke="#D0D2D3" stroke-width="5" stroke-linecap="round" stroke-linejoin="round" stroke-miterlimit="10" points="
		-3196.089,-2894.279 -2876.493,-2722.5 -2897.365,-2844.672 	"/>
	
		<polygon fill="none" stroke="#929497" stroke-width="5" stroke-linecap="round" stroke-linejoin="round" stroke-miterlimit="10" points="
		-2897.365,-2844.672 -2649.811,-2936.076 -2876.493,-2722.5 	"/>
	
		<polygon fill="none" stroke="#6D6E70" stroke-width="5" stroke-linecap="round" stroke-linejoin="round" stroke-miterlimit="10" points="
		-2876.493,-2722.5 -2618.808,-2574.355 -2786.984,-2630.096 	"/>
	
		<polygon fill="none" stroke="#D0D2D3" stroke-width="5" stroke-linecap="round" stroke-linejoin="round" stroke-miterlimit="10" points="
		-2876.493,-2722.5 -2786.984,-2630.096 -2732.493,-2074.5 	"/>
	
		<polygon fill="none" stroke="#D0D2D3" stroke-width="5" stroke-linecap="round" stroke-linejoin="round" stroke-miterlimit="10" points="
		-2786.984,-2630.096 -2618.808,-2574.355 -2732.493,-2074.5 	"/>
	
		<polygon fill="none" stroke="#404041" stroke-width="5" stroke-linecap="round" stroke-linejoin="round" stroke-miterlimit="10" points="
		-2046.95,-3079.752 -1974.507,-3181.5 -2309.493,-3145.5 	"/>
	
		<polygon fill="none" stroke="#6D6E70" stroke-width="5" stroke-linecap="round" stroke-linejoin="round" stroke-miterlimit="10" points="
		-2309.493,-3145.5 -2281.376,-3042.31 -2046.95,-3079.752 	"/>
	
		<polygon fill="none" stroke="#929497" stroke-width="5" stroke-linecap="round" stroke-linejoin="round" stroke-miterlimit="10" points="
		-2475.111,-2936.076 -2281.376,-3042.31 -2309.493,-3145.5 	"/>
	
		<polygon fill="none" stroke="#D0D2D3" stroke-width="5" stroke-linecap="round" stroke-linejoin="round" stroke-miterlimit="10" points="
		-2382.157,-2844.437 -2281.376,-3042.31 -2475.111,-2936.076 	"/>
</g>
<g>
	
		<polygon fill="none" stroke="#404041" stroke-width="5" stroke-linecap="round" stroke-linejoin="round" stroke-miterlimit="10" points="
		-847.341,-2412 -886.009,-2790 -712.79,-2790 	"/>
	
		<polygon fill="none" stroke="#404041" stroke-width="5" stroke-linecap="round" stroke-linejoin="round" stroke-miterlimit="10" points="
		-847.341,-2412 -619.659,-2689.375 -712.79,-2790 	"/>
	
		<polygon fill="none" stroke="#6D6E70" stroke-width="5" stroke-linecap="round" stroke-linejoin="round" stroke-miterlimit="10" points="
		-1099.341,-2555.028 -886.009,-2790 -712.79,-2790 	"/>
	
		<polygon fill="none" stroke="#6D6E70" stroke-width="5" stroke-linecap="round" stroke-linejoin="round" stroke-miterlimit="10" points="
		-1099.341,-2555.028 -1027.341,-2457 -619.659,-2689.375 	"/>
	
		<polygon fill="none" stroke="#929497" stroke-width="5" stroke-linecap="round" stroke-linejoin="round" stroke-miterlimit="10" points="
		-1135.341,-2664 -886.009,-2790 -1099.341,-2555.028 	"/>
	
		<polygon fill="none" stroke="#6D6E70" stroke-width="5" stroke-linecap="round" stroke-linejoin="round" stroke-miterlimit="10" points="
		-1099.341,-2555.028 -847.341,-2412 -1027.341,-2457 	"/>
	
		<polygon fill="none" stroke="#6D6E70" stroke-width="5" stroke-linecap="round" stroke-linejoin="round" stroke-miterlimit="10" points="
		-847.341,-2412 -775.341,-2304 -619.659,-2689.375 	"/>
	
		<polygon fill="none" stroke="#D0D2D3" stroke-width="5" stroke-linecap="round" stroke-linejoin="round" stroke-miterlimit="10" points="
		-1027.341,-2457 -1144.341,-2304 -847.341,-2412 	"/>
	
		<polygon fill="none" stroke="#D0D2D3" stroke-width="5" stroke-linecap="round" stroke-linejoin="round" stroke-miterlimit="10" points="
		-1144.341,-2304 -775.341,-2304 -919.341,-2160 	"/>
	
		<polygon fill="none" stroke="#404041" stroke-width="5" stroke-linecap="round" stroke-linejoin="round" stroke-miterlimit="10" points="
		-886.009,-2790 -712.79,-2790 -775.341,-3096 	"/>
	
		<polygon fill="none" stroke="#6D6E70" stroke-width="5" stroke-linecap="round" stroke-linejoin="round" stroke-miterlimit="10" points="
		-619.659,-2689.375 -775.341,-3096 -712.79,-2790 	"/>
	
		<polygon fill="none" stroke="#6D6E70" stroke-width="5" stroke-linecap="round" stroke-linejoin="round" stroke-miterlimit="10" points="
		-775.341,-3096 -886.009,-2790 -1135.341,-2664 	"/>
	
		<polygon fill="none" stroke="#D0D2D3" stroke-width="5" stroke-linecap="round" stroke-linejoin="round" stroke-miterlimit="10" points="
		-1027.341,-2457 -619.659,-2689.375 -919.341,-2160 	"/>
</g>
<g>
	
		<polygon fill="none" stroke="#404041" stroke-width="5" stroke-linecap="round" stroke-linejoin="round" stroke-miterlimit="10" points="
		-4315.5,-945 -4423.5,-921.564 -4360.5,-1341 	"/>
	
		<polygon fill="none" stroke="#404041" stroke-width="5" stroke-linecap="round" stroke-linejoin="round" stroke-miterlimit="10" points="
		-4560.221,-678.316 -4117.5,-720 -4162.5,-522 	"/>
	
		<polygon fill="none" stroke="#404041" stroke-width="5" stroke-linecap="round" stroke-linejoin="round" stroke-miterlimit="10" points="
		-4560.221,-678.316 -4306.5,-423 -4162.5,-522 	"/>
	
		<polygon fill="none" stroke="#6D6E70" stroke-width="5" stroke-linecap="round" stroke-linejoin="round" stroke-miterlimit="10" points="
		-4315.5,-945 -4240.297,-1255.596 -4360.5,-1341 	"/>
	
		<polygon fill="none" stroke="#6D6E70" stroke-width="5" stroke-linecap="round" stroke-linejoin="round" stroke-miterlimit="10" points="
		-4423.5,-921.564 -4117.5,-720 -4162.5,-522 	"/>
	
		<polygon fill="none" stroke="#929497" stroke-width="5" stroke-linecap="round" stroke-linejoin="round" stroke-miterlimit="10" points="
		-4315.5,-945 -4117.5,-720 -4423.5,-921.564 	"/>
	
		<polygon fill="none" stroke="#6D6E70" stroke-width="5" stroke-linecap="round" stroke-linejoin="round" stroke-miterlimit="10" points="
		-4423.5,-921.564 -4560.221,-678.316 -4513.5,-855 	"/>
	
		<polygon fill="none" stroke="#929497" stroke-width="5" stroke-linecap="round" stroke-linejoin="round" stroke-miterlimit="10" points="
		-4240.297,-1255.596 -4423.5,-921.564 -4315.5,-945 	"/>
	
		<polygon fill="none" stroke="#929497" stroke-width="5" stroke-linecap="round" stroke-linejoin="round" stroke-miterlimit="10" points="
		-4423.5,-921.564 -4513.5,-855 -4630.5,-954 	"/>
	
		<polygon fill="none" stroke="#D0D2D3" stroke-width="5" stroke-linecap="round" stroke-linejoin="round" stroke-miterlimit="10" points="
		-4630.5,-954 -4423.5,-921.564 -4240.297,-1255.596 	"/>
	
		<polygon fill="none" stroke="#D0D2D3" stroke-width="5" stroke-linecap="round" stroke-linejoin="round" stroke-miterlimit="10" points="
		-4423.5,-921.564 -4513.5,-855 -4306.5,-423 	"/>
</g>
<g>
	
		<polygon fill="none" stroke="#404041" stroke-width="5" stroke-linecap="round" stroke-linejoin="round" stroke-miterlimit="10" points="
		927,-2313 903.564,-2421 1323,-2358 	"/>
	
		<polygon fill="none" stroke="#404041" stroke-width="5" stroke-linecap="round" stroke-linejoin="round" stroke-miterlimit="10" points="
		660.316,-2557.722 702,-2178 504,-2160 	"/>
	
		<polygon fill="none" stroke="#404041" stroke-width="5" stroke-linecap="round" stroke-linejoin="round" stroke-miterlimit="10" points="
		660.316,-2557.722 405,-2304 504,-2160 	"/>
	
		<polygon fill="none" stroke="#6D6E70" stroke-width="5" stroke-linecap="round" stroke-linejoin="round" stroke-miterlimit="10" points="
		927,-2313 1237.598,-2237.796 1323,-2358 	"/>
	
		<polygon fill="none" stroke="#6D6E70" stroke-width="5" stroke-linecap="round" stroke-linejoin="round" stroke-miterlimit="10" points="
		903.564,-2421 837,-2511 405,-2304 	"/>
	
		<polygon fill="none" stroke="#929497" stroke-width="5" stroke-linecap="round" stroke-linejoin="round" stroke-miterlimit="10" points="
		927,-2313 702,-2178 903.564,-2421 	"/>
	
		<polygon fill="none" stroke="#6D6E70" stroke-width="5" stroke-linecap="round" stroke-linejoin="round" stroke-miterlimit="10" points="
		903.564,-2421 660.316,-2557.722 837,-2511 	"/>
	
		<polygon fill="none" stroke="#D0D2D3" stroke-width="5" stroke-linecap="round" stroke-linejoin="round" stroke-miterlimit="10" points="
		936,-2628 660.316,-2557.722 747,-2700 	"/>
	
		<polygon fill="none" stroke="#6D6E70" stroke-width="5" stroke-linecap="round" stroke-linejoin="round" stroke-miterlimit="10" points="
		660.316,-2557.722 747,-3060 747,-2700 	"/>
	
		<polygon fill="none" stroke="#D0D2D3" stroke-width="5" stroke-linecap="round" stroke-linejoin="round" stroke-miterlimit="10" points="
		747,-2700 747,-3060 936,-2628 	"/>
	
		<polygon fill="none" stroke="#929497" stroke-width="5" stroke-linecap="round" stroke-linejoin="round" stroke-miterlimit="10" points="
		1237.598,-2237.796 903.564,-2421 927,-2313 	"/>
	
		<polygon fill="none" stroke="#929497" stroke-width="5" stroke-linecap="round" stroke-linejoin="round" stroke-miterlimit="10" points="
		903.564,-2421 837,-2511 936,-2628 	"/>
	
		<polygon fill="none" stroke="#D0D2D3" stroke-width="5" stroke-linecap="round" stroke-linejoin="round" stroke-miterlimit="10" points="
		936,-2628 903.564,-2421 1237.598,-2237.796 	"/>
	
		<polygon fill="none" stroke="#D0D2D3" stroke-width="5" stroke-linecap="round" stroke-linejoin="round" stroke-miterlimit="10" points="
		837,-2511 660.316,-2557.722 936,-2628 	"/>
	
		<polygon fill="none" stroke="#D0D2D3" stroke-width="5" stroke-linecap="round" stroke-linejoin="round" stroke-miterlimit="10" points="
		903.564,-2421 702,-2178 504,-2160 	"/>
</g>
<g>
	
		<polygon fill="none" stroke="#6D6E70" stroke-width="5" stroke-linecap="round" stroke-linejoin="round" stroke-miterlimit="10" points="
		-2686.5,-1071 -2785.5,-1382.697 -2632.5,-1467 	"/>
	
		<polygon fill="none" stroke="#929497" stroke-width="5" stroke-linecap="round" stroke-linejoin="round" stroke-miterlimit="10" points="
		-2785.5,-1382.697 -2632.5,-1467 -2632.5,-1683 	"/>
	
		<polygon fill="none" stroke="#404041" stroke-width="5" stroke-linecap="round" stroke-linejoin="round" stroke-miterlimit="10" points="
		-2839.5,-648 -2695.5,-81 -2695.5,-405 	"/>
	
		<polygon fill="none" stroke="#404041" stroke-width="5" stroke-linecap="round" stroke-linejoin="round" stroke-miterlimit="10" points="
		-2686.5,-1071 -2578.5,-1047.564 -2632.5,-1467 	"/>
	
		<polygon fill="none" stroke="#404041" stroke-width="5" stroke-linecap="round" stroke-linejoin="round" stroke-miterlimit="10" points="
		-2434.5,-803.486 -2884.5,-846 -2839.5,-648 	"/>
	
		<polygon fill="none" stroke="#404041" stroke-width="5" stroke-linecap="round" stroke-linejoin="round" stroke-miterlimit="10" points="
		-2434.5,-803.486 -2695.5,-549 -2839.5,-648 	"/>
	
		<polygon fill="none" stroke="#6D6E70" stroke-width="5" stroke-linecap="round" stroke-linejoin="round" stroke-miterlimit="10" points="
		-2578.5,-1047.564 -2884.5,-846 -2839.5,-648 	"/>
	
		<polygon fill="none" stroke="#929497" stroke-width="5" stroke-linecap="round" stroke-linejoin="round" stroke-miterlimit="10" points="
		-2686.5,-1071 -2884.5,-846 -2578.5,-1047.564 	"/>
	
		<polygon fill="none" stroke="#6D6E70" stroke-width="5" stroke-linecap="round" stroke-linejoin="round" stroke-miterlimit="10" points="
		-2578.5,-1047.564 -2434.5,-803.486 -2488.5,-981 	"/>
	
		<polygon fill="none" stroke="#929497" stroke-width="5" stroke-linecap="round" stroke-linejoin="round" stroke-miterlimit="10" points="
		-2785.5,-1382.697 -2578.5,-1047.564 -2686.5,-1071 	"/>
	
		<polygon fill="none" stroke="#929497" stroke-width="5" stroke-linecap="round" stroke-linejoin="round" stroke-miterlimit="10" points="
		-2578.5,-1047.564 -2488.5,-981 -2371.5,-1080 	"/>
	
		<polygon fill="none" stroke="#D0D2D3" stroke-width="5" stroke-linecap="round" stroke-linejoin="round" stroke-miterlimit="10" points="
		-2371.5,-1080 -2578.5,-1047.564 -2785.5,-1382.697 	"/>
	
		<polygon fill="none" stroke="#D0D2D3" stroke-width="5" stroke-linecap="round" stroke-linejoin="round" stroke-miterlimit="10" points="
		-2578.5,-1047.564 -2488.5,-981 -2695.5,-549 	"/>
	
		<polygon fill="none" stroke="#D0D2D3" stroke-width="5" stroke-linecap="round" stroke-linejoin="round" stroke-miterlimit="10" points="
		-2695.5,-549 -2839.5,-648 -2695.5,-405 	"/>
	
		<polygon fill="none" stroke="#D0D2D3" stroke-width="5" stroke-linecap="round" stroke-linejoin="round" stroke-miterlimit="10" points="
		-2632.5,-1467 -2371.5,-1080 -2632.5,-1683 	"/>
	
		<polygon fill="none" stroke="#D0D2D3" stroke-width="5" stroke-linecap="round" stroke-linejoin="round" stroke-miterlimit="10" points="
		-2695.5,-405 -2434.5,-803.486 -2695.5,-81 	"/>
</g>
<g>
	<g>
		
			<polygon fill="none" stroke="#404041" stroke-width="5" stroke-linecap="round" stroke-linejoin="round" stroke-miterlimit="10" points="
			-4806.75,1004.006 -4899.689,944.211 -4558.555,692.171 		"/>
		
			<polygon fill="none" stroke="#404041" stroke-width="5" stroke-linecap="round" stroke-linejoin="round" stroke-miterlimit="10" points="
			-5168.368,1019.533 -4825.842,1303.111 -4997.668,1411.299 		"/>
		
			<polygon fill="none" stroke="#404041" stroke-width="5" stroke-linecap="round" stroke-linejoin="round" stroke-miterlimit="10" points="
			-5168.368,1019.533 -5169.495,1379.48 -4997.668,1411.299 		"/>
		
			<polygon fill="none" stroke="#6D6E70" stroke-width="5" stroke-linecap="round" stroke-linejoin="round" stroke-miterlimit="10" points="
			-4806.75,1004.006 -4533.948,837.558 -4558.555,692.171 		"/>
		
			<polygon fill="none" stroke="#6D6E70" stroke-width="5" stroke-linecap="round" stroke-linejoin="round" stroke-miterlimit="10" points="
			-4899.689,944.211 -4825.842,1303.111 -4997.668,1411.299 		"/>
		
			<polygon fill="none" stroke="#929497" stroke-width="5" stroke-linecap="round" stroke-linejoin="round" stroke-miterlimit="10" points="
			-4806.75,1004.006 -4825.842,1303.111 -4899.689,944.211 		"/>
		
			<polygon fill="none" stroke="#6D6E70" stroke-width="5" stroke-linecap="round" stroke-linejoin="round" stroke-miterlimit="10" points="
			-4899.689,944.211 -5168.368,1019.533 -5010.396,927.639 		"/>
		
			<polygon fill="none" stroke="#929497" stroke-width="5" stroke-linecap="round" stroke-linejoin="round" stroke-miterlimit="10" points="
			-4533.948,837.558 -4899.689,944.211 -4806.75,1004.006 		"/>
		
			<polygon fill="none" stroke="#929497" stroke-width="5" stroke-linecap="round" stroke-linejoin="round" stroke-miterlimit="10" points="
			-4899.689,944.211 -5010.396,927.639 -5023.124,774.902 		"/>
		
			<polygon fill="none" stroke="#D0D2D3" stroke-width="5" stroke-linecap="round" stroke-linejoin="round" stroke-miterlimit="10" points="
			-5023.124,774.902 -4899.689,944.211 -4533.948,837.558 		"/>
		
			<polygon fill="none" stroke="#D0D2D3" stroke-width="5" stroke-linecap="round" stroke-linejoin="round" stroke-miterlimit="10" points="
			-4899.689,944.211 -5010.396,927.639 -5169.495,1379.48 		"/>
	</g>
	<g>
		
			<polygon fill="none" stroke="#404041" stroke-width="5" stroke-linecap="round" stroke-linejoin="round" stroke-miterlimit="10" points="
			-4514.008,1296.748 -4454.212,1389.688 -4202.173,1048.553 		"/>
		
			<polygon fill="none" stroke="#404041" stroke-width="5" stroke-linecap="round" stroke-linejoin="round" stroke-miterlimit="10" points="
			-4529.536,1658.365 -4813.113,1315.84 -4921.3,1487.666 		"/>
		
			<polygon fill="none" stroke="#404041" stroke-width="5" stroke-linecap="round" stroke-linejoin="round" stroke-miterlimit="10" points="
			-4529.536,1658.365 -4889.481,1659.494 -4921.3,1487.666 		"/>
		
			<polygon fill="none" stroke="#6D6E70" stroke-width="5" stroke-linecap="round" stroke-linejoin="round" stroke-miterlimit="10" points="
			-4514.008,1296.748 -4347.559,1023.946 -4202.173,1048.553 		"/>
		
			<polygon fill="none" stroke="#6D6E70" stroke-width="5" stroke-linecap="round" stroke-linejoin="round" stroke-miterlimit="10" points="
			-4454.212,1389.688 -4813.113,1315.84 -4921.3,1487.666 		"/>
		
			<polygon fill="none" stroke="#929497" stroke-width="5" stroke-linecap="round" stroke-linejoin="round" stroke-miterlimit="10" points="
			-4514.008,1296.748 -4813.113,1315.84 -4454.212,1389.688 		"/>
		
			<polygon fill="none" stroke="#6D6E70" stroke-width="5" stroke-linecap="round" stroke-linejoin="round" stroke-miterlimit="10" points="
			-4454.212,1389.688 -4529.536,1658.365 -4437.639,1500.395 		"/>
		
			<polygon fill="none" stroke="#929497" stroke-width="5" stroke-linecap="round" stroke-linejoin="round" stroke-miterlimit="10" points="
			-4347.559,1023.946 -4454.212,1389.688 -4514.008,1296.748 		"/>
		
			<polygon fill="none" stroke="#929497" stroke-width="5" stroke-linecap="round" stroke-linejoin="round" stroke-miterlimit="10" points="
			-4454.212,1389.688 -4437.639,1500.395 -4284.905,1513.123 		"/>
		
			<polygon fill="none" stroke="#D0D2D3" stroke-width="5" stroke-linecap="round" stroke-linejoin="round" stroke-miterlimit="10" points="
			-4284.905,1513.123 -4454.212,1389.688 -4347.559,1023.946 		"/>
		
			<polygon fill="none" stroke="#D0D2D3" stroke-width="5" stroke-linecap="round" stroke-linejoin="round" stroke-miterlimit="10" points="
			-4454.212,1389.688 -4437.639,1500.395 -4889.481,1659.494 		"/>
	</g>
	<g>
		
			<polygon fill="none" stroke="#404041" stroke-width="5" stroke-linecap="round" stroke-linejoin="round" stroke-miterlimit="10" points="
			-4233.993,431.25 -4293.788,338.311 -4545.827,679.443 		"/>
		
			<polygon fill="none" stroke="#404041" stroke-width="5" stroke-linecap="round" stroke-linejoin="round" stroke-miterlimit="10" points="
			-4218.464,69.63 -3934.887,412.157 -3826.699,240.33 		"/>
		
			<polygon fill="none" stroke="#404041" stroke-width="5" stroke-linecap="round" stroke-linejoin="round" stroke-miterlimit="10" points="
			-4218.464,69.63 -3858.52,68.504 -3826.699,240.33 		"/>
		
			<polygon fill="none" stroke="#6D6E70" stroke-width="5" stroke-linecap="round" stroke-linejoin="round" stroke-miterlimit="10" points="
			-4233.993,431.25 -4400.44,704.05 -4545.827,679.443 		"/>
		
			<polygon fill="none" stroke="#6D6E70" stroke-width="5" stroke-linecap="round" stroke-linejoin="round" stroke-miterlimit="10" points="
			-4293.788,338.311 -3934.887,412.157 -3826.699,240.33 		"/>
		
			<polygon fill="none" stroke="#929497" stroke-width="5" stroke-linecap="round" stroke-linejoin="round" stroke-miterlimit="10" points="
			-4233.993,431.25 -3934.887,412.157 -4293.788,338.311 		"/>
		
			<polygon fill="none" stroke="#6D6E70" stroke-width="5" stroke-linecap="round" stroke-linejoin="round" stroke-miterlimit="10" points="
			-4293.788,338.311 -4218.464,69.63 -4310.36,227.602 		"/>
		
			<polygon fill="none" stroke="#929497" stroke-width="5" stroke-linecap="round" stroke-linejoin="round" stroke-miterlimit="10" points="
			-4400.44,704.05 -4293.788,338.311 -4233.993,431.25 		"/>
		
			<polygon fill="none" stroke="#929497" stroke-width="5" stroke-linecap="round" stroke-linejoin="round" stroke-miterlimit="10" points="
			-4293.788,338.311 -4310.36,227.602 -4463.096,214.875 		"/>
		
			<polygon fill="none" stroke="#D0D2D3" stroke-width="5" stroke-linecap="round" stroke-linejoin="round" stroke-miterlimit="10" points="
			-4463.096,214.875 -4293.788,338.311 -4400.44,704.05 		"/>
		
			<polygon fill="none" stroke="#D0D2D3" stroke-width="5" stroke-linecap="round" stroke-linejoin="round" stroke-miterlimit="10" points="
			-4293.788,338.311 -4310.36,227.602 -3858.52,68.504 		"/>
	</g>
	<g>
		
			<polygon fill="none" stroke="#404041" stroke-width="5" stroke-linecap="round" stroke-linejoin="round" stroke-miterlimit="10" points="
			-3941.251,723.992 -3848.312,783.787 -4189.445,1035.826 		"/>
		
			<polygon fill="none" stroke="#404041" stroke-width="5" stroke-linecap="round" stroke-linejoin="round" stroke-miterlimit="10" points="
			-3579.633,708.463 -3922.159,424.886 -3750.332,316.697 		"/>
		
			<polygon fill="none" stroke="#404041" stroke-width="5" stroke-linecap="round" stroke-linejoin="round" stroke-miterlimit="10" points="
			-3579.633,708.463 -3578.504,348.518 -3750.332,316.697 		"/>
		
			<polygon fill="none" stroke="#6D6E70" stroke-width="5" stroke-linecap="round" stroke-linejoin="round" stroke-miterlimit="10" points="
			-3941.251,723.992 -4214.051,890.438 -4189.445,1035.826 		"/>
		
			<polygon fill="none" stroke="#6D6E70" stroke-width="5" stroke-linecap="round" stroke-linejoin="round" stroke-miterlimit="10" points="
			-3848.312,783.787 -3922.159,424.886 -3750.332,316.697 		"/>
		
			<polygon fill="none" stroke="#929497" stroke-width="5" stroke-linecap="round" stroke-linejoin="round" stroke-miterlimit="10" points="
			-3941.251,723.992 -3922.159,424.886 -3848.312,783.787 		"/>
		
			<polygon fill="none" stroke="#6D6E70" stroke-width="5" stroke-linecap="round" stroke-linejoin="round" stroke-miterlimit="10" points="
			-3848.312,783.787 -3579.633,708.463 -3737.604,800.359 		"/>
		
			<polygon fill="none" stroke="#929497" stroke-width="5" stroke-linecap="round" stroke-linejoin="round" stroke-miterlimit="10" points="
			-4214.051,890.438 -3848.312,783.787 -3941.251,723.992 		"/>
		
			<polygon fill="none" stroke="#929497" stroke-width="5" stroke-linecap="round" stroke-linejoin="round" stroke-miterlimit="10" points="
			-3848.312,783.787 -3737.604,800.359 -3724.875,953.094 		"/>
		
			<polygon fill="none" stroke="#D0D2D3" stroke-width="5" stroke-linecap="round" stroke-linejoin="round" stroke-miterlimit="10" points="
			-3724.875,953.094 -3848.312,783.787 -4214.051,890.438 		"/>
		
			<polygon fill="none" stroke="#D0D2D3" stroke-width="5" stroke-linecap="round" stroke-linejoin="round" stroke-miterlimit="10" points="
			-3848.312,783.787 -3737.604,800.359 -3578.504,348.518 		"/>
	</g>
</g>
<g>
	<g>
		
			<polygon fill="none" stroke="#404041" stroke-width="5" stroke-linecap="round" stroke-linejoin="round" stroke-miterlimit="10" points="
			-2487.993,813.087 -2428.197,720.147 -2176.159,1061.282 		"/>
		
			<polygon fill="none" stroke="#404041" stroke-width="5" stroke-linecap="round" stroke-linejoin="round" stroke-miterlimit="10" points="
			-2503.521,451.468 -2742.552,749.448 -2895.287,622.169 		"/>
		
			<polygon fill="none" stroke="#404041" stroke-width="5" stroke-linecap="round" stroke-linejoin="round" stroke-miterlimit="10" points="
			-2503.521,451.468 -2863.467,450.341 -2895.287,622.169 		"/>
		
			<polygon fill="none" stroke="#6D6E70" stroke-width="5" stroke-linecap="round" stroke-linejoin="round" stroke-miterlimit="10" points="
			-2487.993,813.087 -2321.545,1085.89 -2176.159,1061.282 		"/>
		
			<polygon fill="none" stroke="#6D6E70" stroke-width="5" stroke-linecap="round" stroke-linejoin="round" stroke-miterlimit="10" points="
			-2428.197,720.147 -2411.626,609.44 -2863.467,450.341 		"/>
		
			<polygon fill="none" stroke="#929497" stroke-width="5" stroke-linecap="round" stroke-linejoin="round" stroke-miterlimit="10" points="
			-2487.993,813.087 -2742.552,749.448 -2428.197,720.147 		"/>
		
			<polygon fill="none" stroke="#6D6E70" stroke-width="5" stroke-linecap="round" stroke-linejoin="round" stroke-miterlimit="10" points="
			-2428.197,720.147 -2503.521,451.468 -2411.626,609.44 		"/>
		
			<polygon fill="none" stroke="#D0D2D3" stroke-width="5" stroke-linecap="round" stroke-linejoin="round" stroke-miterlimit="10" points="
			-2258.891,596.712 -2503.521,451.468 -2341.622,412.157 		"/>
		
			<polygon fill="none" stroke="#6D6E70" stroke-width="5" stroke-linecap="round" stroke-linejoin="round" stroke-miterlimit="10" points="
			-2503.521,451.468 -2087.063,157.599 -2341.622,412.157 		"/>
		
			<polygon fill="none" stroke="#D0D2D3" stroke-width="5" stroke-linecap="round" stroke-linejoin="round" stroke-miterlimit="10" points="
			-2341.622,412.157 -2087.063,157.599 -2258.891,596.712 		"/>
		
			<polygon fill="none" stroke="#929497" stroke-width="5" stroke-linecap="round" stroke-linejoin="round" stroke-miterlimit="10" points="
			-2321.545,1085.89 -2428.197,720.147 -2487.993,813.087 		"/>
		
			<polygon fill="none" stroke="#929497" stroke-width="5" stroke-linecap="round" stroke-linejoin="round" stroke-miterlimit="10" points="
			-2428.197,720.147 -2411.626,609.44 -2258.891,596.712 		"/>
		
			<polygon fill="none" stroke="#D0D2D3" stroke-width="5" stroke-linecap="round" stroke-linejoin="round" stroke-miterlimit="10" points="
			-2258.891,596.712 -2428.197,720.147 -2321.545,1085.89 		"/>
		
			<polygon fill="none" stroke="#D0D2D3" stroke-width="5" stroke-linecap="round" stroke-linejoin="round" stroke-miterlimit="10" points="
			-2411.626,609.44 -2503.521,451.468 -2258.891,596.712 		"/>
		
			<polygon fill="none" stroke="#D0D2D3" stroke-width="5" stroke-linecap="round" stroke-linejoin="round" stroke-miterlimit="10" points="
			-2428.197,720.147 -2742.552,749.448 -2895.287,622.169 		"/>
	</g>
	<g>
		
			<polygon fill="none" stroke="#404041" stroke-width="5" stroke-linecap="round" stroke-linejoin="round" stroke-miterlimit="10" points="
			-2768.008,914.911 -2827.804,1007.851 -3079.842,666.716 		"/>
		
			<polygon fill="none" stroke="#404041" stroke-width="5" stroke-linecap="round" stroke-linejoin="round" stroke-miterlimit="10" points="
			-2752.478,1276.528 -2513.449,978.55 -2360.714,1105.829 		"/>
		
			<polygon fill="none" stroke="#404041" stroke-width="5" stroke-linecap="round" stroke-linejoin="round" stroke-miterlimit="10" points="
			-2752.478,1276.528 -2392.534,1277.657 -2360.714,1105.829 		"/>
		
			<polygon fill="none" stroke="#6D6E70" stroke-width="5" stroke-linecap="round" stroke-linejoin="round" stroke-miterlimit="10" points="
			-2768.008,914.911 -2934.455,642.11 -3079.842,666.716 		"/>
		
			<polygon fill="none" stroke="#6D6E70" stroke-width="5" stroke-linecap="round" stroke-linejoin="round" stroke-miterlimit="10" points="
			-2827.804,1007.851 -2844.375,1118.558 -2392.534,1277.657 		"/>
		
			<polygon fill="none" stroke="#929497" stroke-width="5" stroke-linecap="round" stroke-linejoin="round" stroke-miterlimit="10" points="
			-2768.008,914.911 -2513.449,978.55 -2827.804,1007.851 		"/>
		
			<polygon fill="none" stroke="#6D6E70" stroke-width="5" stroke-linecap="round" stroke-linejoin="round" stroke-miterlimit="10" points="
			-2827.804,1007.851 -2752.478,1276.528 -2844.375,1118.558 		"/>
		
			<polygon fill="none" stroke="#D0D2D3" stroke-width="5" stroke-linecap="round" stroke-linejoin="round" stroke-miterlimit="10" points="
			-2997.11,1131.286 -2752.478,1276.528 -2914.378,1315.839 		"/>
		
			<polygon fill="none" stroke="#6D6E70" stroke-width="5" stroke-linecap="round" stroke-linejoin="round" stroke-miterlimit="10" points="
			-2752.478,1276.528 -3168.937,1570.399 -2914.379,1315.841 		"/>
		
			<polygon fill="none" stroke="#D0D2D3" stroke-width="5" stroke-linecap="round" stroke-linejoin="round" stroke-miterlimit="10" points="
			-2914.379,1315.841 -3168.937,1570.399 -2997.11,1131.286 		"/>
		
			<polygon fill="none" stroke="#929497" stroke-width="5" stroke-linecap="round" stroke-linejoin="round" stroke-miterlimit="10" points="
			-2934.455,642.11 -2827.804,1007.851 -2768.008,914.911 		"/>
		
			<polygon fill="none" stroke="#929497" stroke-width="5" stroke-linecap="round" stroke-linejoin="round" stroke-miterlimit="10" points="
			-2827.804,1007.851 -2844.375,1118.558 -2997.11,1131.286 		"/>
		
			<polygon fill="none" stroke="#D0D2D3" stroke-width="5" stroke-linecap="round" stroke-linejoin="round" stroke-miterlimit="10" points="
			-2997.11,1131.286 -2827.804,1007.851 -2934.455,642.11 		"/>
		
			<polygon fill="none" stroke="#D0D2D3" stroke-width="5" stroke-linecap="round" stroke-linejoin="round" stroke-miterlimit="10" points="
			-2844.375,1118.558 -2752.478,1276.528 -2997.11,1131.286 		"/>
		
			<polygon fill="none" stroke="#D0D2D3" stroke-width="5" stroke-linecap="round" stroke-linejoin="round" stroke-miterlimit="10" points="
			-2827.804,1007.851 -2513.449,978.55 -2360.714,1105.829 		"/>
	</g>
</g>
<g>
	<g>
		
			<polygon fill="none" stroke="#404041" stroke-width="5" stroke-linecap="round" stroke-linejoin="round" stroke-miterlimit="10" points="
			-1286.063,482.284 -888.949,788.554 -1131.896,839.669 		"/>
		
			<polygon fill="none" stroke="#404041" stroke-width="5" stroke-linecap="round" stroke-linejoin="round" stroke-miterlimit="10" points="
			-1280.217,482.284 -1256.578,840.599 -1126.053,839.669 		"/>
		
			<polygon fill="none" stroke="#6D6E70" stroke-width="5" stroke-linecap="round" stroke-linejoin="round" stroke-miterlimit="10" points="
			-892.105,476.458 -645.799,300.306 -490.5,334.825 		"/>
		
			<polygon fill="none" stroke="#6D6E70" stroke-width="5" stroke-linecap="round" stroke-linejoin="round" stroke-miterlimit="10" points="
			-999.098,404.827 -888.949,788.554 -1131.896,839.669 		"/>
		
			<polygon fill="none" stroke="#6D6E70" stroke-width="5" stroke-linecap="round" stroke-linejoin="round" stroke-miterlimit="10" points="
			-993.254,404.827 -1121.887,402.78 -1256.578,840.599 		"/>
		
			<polygon fill="none" stroke="#D0D2D3" stroke-width="5" stroke-linecap="round" stroke-linejoin="round" stroke-miterlimit="10" points="
			-645.799,300.306 -993.254,404.827 -892.105,476.458 		"/>
		
			<polygon fill="none" stroke="#929497" stroke-width="5" stroke-linecap="round" stroke-linejoin="round" stroke-miterlimit="10" points="
			-897.949,476.458 -888.949,788.554 -999.098,404.827 		"/>
		
			<polygon fill="none" stroke="#6D6E70" stroke-width="5" stroke-linecap="round" stroke-linejoin="round" stroke-miterlimit="10" points="
			-993.254,404.827 -1280.217,482.284 -1121.887,402.78 		"/>
		
			<polygon fill="none" stroke="#D0D2D3" stroke-width="5" stroke-linecap="round" stroke-linejoin="round" stroke-miterlimit="10" points="
			-993.254,404.827 -1121.887,402.78 -1553.281,48.446 		"/>
		
			<polygon fill="none" stroke="#D0D2D3" stroke-width="5" stroke-linecap="round" stroke-linejoin="round" stroke-miterlimit="10" points="
			-1121.887,402.78 -1280.217,482.284 -1553.281,48.446 		"/>
		
			<polygon fill="none" stroke="#404041" stroke-width="5" stroke-linecap="round" stroke-linejoin="round" stroke-miterlimit="10" points="
			-1327.213,1244.019 -1306.49,1367.19 -1095.076,1104.864 		"/>
		
			<polygon fill="none" stroke="#6D6E70" stroke-width="5" stroke-linecap="round" stroke-linejoin="round" stroke-miterlimit="10" points="
			-1095.076,1104.864 -1187.924,1051.778 -1327.213,1244.019 		"/>
		
			<polygon fill="none" stroke="#929497" stroke-width="5" stroke-linecap="round" stroke-linejoin="round" stroke-miterlimit="10" points="
			-1126.053,839.669 -1187.924,1051.778 -1095.076,1104.864 		"/>
		
			<polygon fill="none" stroke="#D0D2D3" stroke-width="5" stroke-linecap="round" stroke-linejoin="round" stroke-miterlimit="10" points="
			-1256.578,840.599 -1187.924,1051.778 -1126.053,839.669 		"/>
	</g>
	<g>
		
			<polygon fill="none" stroke="#404041" stroke-width="5" stroke-linecap="round" stroke-linejoin="round" stroke-miterlimit="10" points="
			-477.938,1245.716 -875.051,939.446 -632.104,888.329 		"/>
		
			<polygon fill="none" stroke="#404041" stroke-width="5" stroke-linecap="round" stroke-linejoin="round" stroke-miterlimit="10" points="
			-483.781,1245.716 -507.42,887.401 -637.947,888.329 		"/>
		
			<polygon fill="none" stroke="#6D6E70" stroke-width="5" stroke-linecap="round" stroke-linejoin="round" stroke-miterlimit="10" points="
			-871.895,1251.542 -1118.203,1427.692 -1273.5,1393.175 		"/>
		
			<polygon fill="none" stroke="#6D6E70" stroke-width="5" stroke-linecap="round" stroke-linejoin="round" stroke-miterlimit="10" points="
			-764.902,1323.171 -875.051,939.446 -632.104,888.329 		"/>
		
			<polygon fill="none" stroke="#6D6E70" stroke-width="5" stroke-linecap="round" stroke-linejoin="round" stroke-miterlimit="10" points="
			-770.746,1323.171 -642.113,1325.218 -507.42,887.401 		"/>
		
			<polygon fill="none" stroke="#D0D2D3" stroke-width="5" stroke-linecap="round" stroke-linejoin="round" stroke-miterlimit="10" points="
			-1118.203,1427.692 -770.746,1323.171 -871.895,1251.542 		"/>
		
			<polygon fill="none" stroke="#929497" stroke-width="5" stroke-linecap="round" stroke-linejoin="round" stroke-miterlimit="10" points="
			-866.051,1251.542 -875.051,939.446 -764.902,1323.171 		"/>
		
			<polygon fill="none" stroke="#6D6E70" stroke-width="5" stroke-linecap="round" stroke-linejoin="round" stroke-miterlimit="10" points="
			-770.746,1323.171 -483.781,1245.716 -642.113,1325.218 		"/>
		
			<polygon fill="none" stroke="#D0D2D3" stroke-width="5" stroke-linecap="round" stroke-linejoin="round" stroke-miterlimit="10" points="
			-770.746,1323.171 -642.113,1325.218 -210.719,1679.554 		"/>
		
			<polygon fill="none" stroke="#D0D2D3" stroke-width="5" stroke-linecap="round" stroke-linejoin="round" stroke-miterlimit="10" points="
			-642.113,1325.218 -483.781,1245.716 -210.719,1679.554 		"/>
		
			<polygon fill="none" stroke="#404041" stroke-width="5" stroke-linecap="round" stroke-linejoin="round" stroke-miterlimit="10" points="
			-436.787,483.979 -457.508,360.81 -668.924,623.136 		"/>
		
			<polygon fill="none" stroke="#6D6E70" stroke-width="5" stroke-linecap="round" stroke-linejoin="round" stroke-miterlimit="10" points="
			-668.924,623.136 -576.074,676.22 -436.787,483.979 		"/>
		
			<polygon fill="none" stroke="#929497" stroke-width="5" stroke-linecap="round" stroke-linejoin="round" stroke-miterlimit="10" points="
			-637.947,888.329 -576.074,676.22 -668.924,623.136 		"/>
		
			<polygon fill="none" stroke="#D0D2D3" stroke-width="5" stroke-linecap="round" stroke-linejoin="round" stroke-miterlimit="10" points="
			-507.42,887.401 -576.074,676.22 -637.947,888.329 		"/>
	</g>
</g>
<g>
	<g>
		
			<polygon fill="none" stroke="#404041" stroke-width="5" stroke-linecap="round" stroke-linejoin="round" stroke-miterlimit="10" points="
			1338.592,791.483 1299.924,413.483 1473.145,413.483 		"/>
		
			<polygon fill="none" stroke="#404041" stroke-width="5" stroke-linecap="round" stroke-linejoin="round" stroke-miterlimit="10" points="
			1338.592,791.483 1566.275,514.108 1473.145,413.483 		"/>
		
			<polygon fill="none" stroke="#6D6E70" stroke-width="5" stroke-linecap="round" stroke-linejoin="round" stroke-miterlimit="10" points="
			1086.592,648.454 1299.924,413.483 1473.145,413.483 		"/>
		
			<polygon fill="none" stroke="#6D6E70" stroke-width="5" stroke-linecap="round" stroke-linejoin="round" stroke-miterlimit="10" points="
			1086.592,648.454 1158.592,746.483 1566.275,514.108 		"/>
		
			<polygon fill="none" stroke="#929497" stroke-width="5" stroke-linecap="round" stroke-linejoin="round" stroke-miterlimit="10" points="
			1035.275,539.483 1299.924,413.483 1086.592,648.454 		"/>
		
			<polygon fill="none" stroke="#6D6E70" stroke-width="5" stroke-linecap="round" stroke-linejoin="round" stroke-miterlimit="10" points="
			1086.592,648.454 1338.592,791.483 1158.592,746.483 		"/>
		
			<polygon fill="none" stroke="#6D6E70" stroke-width="5" stroke-linecap="round" stroke-linejoin="round" stroke-miterlimit="10" points="
			1338.592,791.483 1410.592,899.483 1566.275,514.108 		"/>
		
			<polygon fill="none" stroke="#D0D2D3" stroke-width="5" stroke-linecap="round" stroke-linejoin="round" stroke-miterlimit="10" points="
			1158.592,746.483 1035.275,899.483 1338.592,791.483 		"/>
		
			<polygon fill="none" stroke="#D0D2D3" stroke-width="5" stroke-linecap="round" stroke-linejoin="round" stroke-miterlimit="10" points="
			1035.275,899.483 1410.592,899.483 1266.592,1043.483 		"/>
		
			<polygon fill="none" stroke="#404041" stroke-width="5" stroke-linecap="round" stroke-linejoin="round" stroke-miterlimit="10" points="
			1299.924,413.483 1473.145,413.483 1410.592,107.483 		"/>
		
			<polygon fill="none" stroke="#6D6E70" stroke-width="5" stroke-linecap="round" stroke-linejoin="round" stroke-miterlimit="10" points="
			1566.275,514.108 1410.592,107.483 1473.145,413.483 		"/>
		
			<polygon fill="none" stroke="#6D6E70" stroke-width="5" stroke-linecap="round" stroke-linejoin="round" stroke-miterlimit="10" points="
			1410.592,107.483 1299.924,413.483 1035.275,539.483 		"/>
		
			<polygon fill="none" stroke="#D0D2D3" stroke-width="5" stroke-linecap="round" stroke-linejoin="round" stroke-miterlimit="10" points="
			1158.592,746.483 1566.275,514.108 1266.592,1043.483 		"/>
	</g>
	<g>
		
			<polygon fill="none" stroke="#404041" stroke-width="5" stroke-linecap="round" stroke-linejoin="round" stroke-miterlimit="10" points="
			790.086,690.804 482.063,913.29 395.453,763.278 		"/>
		
			<polygon fill="none" stroke="#404041" stroke-width="5" stroke-linecap="round" stroke-linejoin="round" stroke-miterlimit="10" points="
			790.086,690.804 436.031,632.312 395.453,763.278 		"/>
		
			<polygon fill="none" stroke="#6D6E70" stroke-width="5" stroke-linecap="round" stroke-linejoin="round" stroke-miterlimit="10" points="
			792.221,980.556 482.063,913.29 395.453,763.278 		"/>
		
			<polygon fill="none" stroke="#6D6E70" stroke-width="5" stroke-linecap="round" stroke-linejoin="round" stroke-miterlimit="10" points="
			792.221,980.556 841.115,869.188 436.031,632.312 		"/>
		
			<polygon fill="none" stroke="#929497" stroke-width="5" stroke-linecap="round" stroke-linejoin="round" stroke-miterlimit="10" points="
			723.506,1079.483 482.063,913.29 792.221,980.556 		"/>
		
			<polygon fill="none" stroke="#6D6E70" stroke-width="5" stroke-linecap="round" stroke-linejoin="round" stroke-miterlimit="10" points="
			792.221,980.556 790.086,690.804 841.115,869.188 		"/>
		
			<polygon fill="none" stroke="#6D6E70" stroke-width="5" stroke-linecap="round" stroke-linejoin="round" stroke-miterlimit="10" points="
			790.086,690.804 847.617,574.45 436.031,632.312 		"/>
		
			<polygon fill="none" stroke="#D0D2D3" stroke-width="5" stroke-linecap="round" stroke-linejoin="round" stroke-miterlimit="10" points="
			841.115,869.188 1035.275,899.483 790.086,690.804 		"/>
		
			<polygon fill="none" stroke="#D0D2D3" stroke-width="5" stroke-linecap="round" stroke-linejoin="round" stroke-miterlimit="10" points="
			1035.275,899.483 847.617,574.45 1044.324,627.157 		"/>
		
			<polygon fill="none" stroke="#404041" stroke-width="5" stroke-linecap="round" stroke-linejoin="round" stroke-miterlimit="10" points="
			482.063,913.29 395.453,763.278 161.725,970.45 		"/>
		
			<polygon fill="none" stroke="#6D6E70" stroke-width="5" stroke-linecap="round" stroke-linejoin="round" stroke-miterlimit="10" points="
			436.031,632.312 161.725,970.45 395.453,763.278 		"/>
		
			<polygon fill="none" stroke="#6D6E70" stroke-width="5" stroke-linecap="round" stroke-linejoin="round" stroke-miterlimit="10" points="
			161.725,970.45 482.063,913.29 723.506,1079.483 		"/>
		
			<polygon fill="none" stroke="#D0D2D3" stroke-width="5" stroke-linecap="round" stroke-linejoin="round" stroke-miterlimit="10" points="
			841.115,869.188 436.031,632.312 1044.324,627.157 		"/>
	</g>
	<g>
		
			<polygon fill="none" stroke="#404041" stroke-width="5" stroke-linecap="round" stroke-linejoin="round" stroke-miterlimit="10" points="
			977.146,1216.163 1323.838,1371.675 1237.229,1521.688 		"/>
		
			<polygon fill="none" stroke="#404041" stroke-width="5" stroke-linecap="round" stroke-linejoin="round" stroke-miterlimit="10" points="
			977.146,1216.163 1103.52,1552.03 1237.229,1521.688 		"/>
		
			<polygon fill="none" stroke="#6D6E70" stroke-width="5" stroke-linecap="round" stroke-linejoin="round" stroke-miterlimit="10" points="
			1227.014,1069.438 1323.838,1371.675 1237.229,1521.688 		"/>
		
			<polygon fill="none" stroke="#6D6E70" stroke-width="5" stroke-linecap="round" stroke-linejoin="round" stroke-miterlimit="10" points="
			1227.014,1069.438 1106.119,1082.778 1103.52,1552.03 		"/>
		
			<polygon fill="none" stroke="#929497" stroke-width="5" stroke-linecap="round" stroke-linejoin="round" stroke-miterlimit="10" points="
			1347.043,1079.483 1323.838,1371.675 1227.014,1069.438 		"/>
		
			<polygon fill="none" stroke="#6D6E70" stroke-width="5" stroke-linecap="round" stroke-linejoin="round" stroke-miterlimit="10" points="
			1227.014,1069.438 977.146,1216.163 1106.119,1082.778 		"/>
		
			<polygon fill="none" stroke="#6D6E70" stroke-width="5" stroke-linecap="round" stroke-linejoin="round" stroke-miterlimit="10" points="
			977.146,1216.163 847.617,1224.517 1103.52,1552.03 		"/>
		
			<polygon fill="none" stroke="#D0D2D3" stroke-width="5" stroke-linecap="round" stroke-linejoin="round" stroke-miterlimit="10" points="
			1106.119,1082.778 1035.275,899.483 977.146,1216.163 		"/>
		
			<polygon fill="none" stroke="#D0D2D3" stroke-width="5" stroke-linecap="round" stroke-linejoin="round" stroke-miterlimit="10" points="
			1035.275,899.483 847.617,1224.517 794.91,1027.808 		"/>
		
			<polygon fill="none" stroke="#404041" stroke-width="5" stroke-linecap="round" stroke-linejoin="round" stroke-miterlimit="10" points="
			1323.838,1371.675 1237.229,1521.688 1533.51,1620.517 		"/>
		
			<polygon fill="none" stroke="#6D6E70" stroke-width="5" stroke-linecap="round" stroke-linejoin="round" stroke-miterlimit="10" points="
			1103.52,1552.03 1533.51,1620.517 1237.229,1521.688 		"/>
		
			<polygon fill="none" stroke="#6D6E70" stroke-width="5" stroke-linecap="round" stroke-linejoin="round" stroke-miterlimit="10" points="
			1533.51,1620.517 1323.838,1371.675 1347.043,1079.483 		"/>
		
			<polygon fill="none" stroke="#D0D2D3" stroke-width="5" stroke-linecap="round" stroke-linejoin="round" stroke-miterlimit="10" points="
			1106.119,1082.778 1103.52,1552.03 794.91,1027.808 		"/>
	</g>
</g>
<g>
	
		<polygon fill="none" stroke="#404041" stroke-width="5" stroke-linecap="round" stroke-linejoin="round" stroke-miterlimit="10" points="
		-972,-760.5 -1512,-1174.5 -846,-985.5 	"/>
	
		<polygon fill="none" stroke="#404041" stroke-width="5" stroke-linecap="round" stroke-linejoin="round" stroke-miterlimit="10" points="
		-972,-760.5 -846,-985.5 -252,-904.5 	"/>
	
		<polygon fill="none" stroke="#404041" stroke-width="5" stroke-linecap="round" stroke-linejoin="round" stroke-miterlimit="10" points="
		-972,-760.5 -531,-454.5 -1143,-724.5 	"/>
	
		<polygon fill="none" stroke="#6D6E70" stroke-width="5" stroke-linecap="round" stroke-linejoin="round" stroke-miterlimit="10" points="
		-945,-1066.5 -1116,-931.5 -1143,-724.5 -972,-760.5 -846,-985.5 	"/>
	
		<polygon fill="none" stroke="#929497" stroke-width="5" stroke-linecap="round" stroke-linejoin="round" stroke-miterlimit="10" points="
		-846,-985.5 -945,-1066.5 -668.805,-1309.5 	"/>
	
		<polygon fill="none" stroke="#D0D2D3" stroke-width="5" stroke-linecap="round" stroke-linejoin="round" stroke-miterlimit="10" points="
		-531,-454.5 -252,-904.5 -668.805,-1309.5 	"/>
	
		<polygon fill="none" stroke="#929497" stroke-width="5" stroke-linecap="round" stroke-linejoin="round" stroke-miterlimit="10" points="
		-1143,-724.5 -1116,-931.5 -1377,-751.5 	"/>
	
		<polygon fill="none" stroke="#929497" stroke-width="5" stroke-linecap="round" stroke-linejoin="round" stroke-miterlimit="10" points="
		-1377,-751.5 -945,-1255.5 -1512,-1174.5 	"/>
	
		<polygon fill="none" stroke="#D0D2D3" stroke-width="5" stroke-linecap="round" stroke-linejoin="round" stroke-miterlimit="10" points="
		-1116,-931.5 -945,-1066.5 -945,-1255.5 	"/>
</g>
</svg>
