<?xml version="1.0" encoding="UTF-8" standalone="no"?>
<!-- Created with Inkscape (http://www.inkscape.org/) -->

<svg
   xmlns:dc="http://purl.org/dc/elements/1.1/"
   xmlns:cc="http://creativecommons.org/ns#"
   xmlns:rdf="http://www.w3.org/1999/02/22-rdf-syntax-ns#"
   xmlns:svg="http://www.w3.org/2000/svg"
   xmlns="http://www.w3.org/2000/svg"
   xmlns:sodipodi="http://sodipodi.sourceforge.net/DTD/sodipodi-0.dtd"
   xmlns:inkscape="http://www.inkscape.org/namespaces/inkscape"
   width="1920"
   height="1080"
   viewBox="0 0 1920.0001 1080"
   id="svg2"
   version="1.1"
   inkscape:version="0.91 r13725"
   inkscape:export-filename="/media/Disk/Dropbox/TNDesigns/graphic/illustrations/gudetama/gudetama-zzz-blue.png"
   inkscape:export-xdpi="90"
   inkscape:export-ydpi="90"
   sodipodi:docname="gudetama-zzz.svg">
  <defs
     id="defs4" />
  <sodipodi:namedview
     id="base"
     pagecolor="#ffffff"
     bordercolor="#666666"
     borderopacity="1.0"
     inkscape:pageopacity="0.0"
     inkscape:pageshadow="2"
     inkscape:zoom="0.80648148"
     inkscape:cx="960"
     inkscape:cy="540"
     inkscape:document-units="px"
     inkscape:current-layer="layer1"
     showgrid="false"
     units="px"
     borderlayer="true"
     inkscape:showpageshadow="false"
     inkscape:snap-bbox="true"
     inkscape:bbox-paths="true"
     inkscape:bbox-nodes="true"
     inkscape:snap-bbox-edge-midpoints="true"
     inkscape:snap-bbox-midpoints="true"
     inkscape:snap-nodes="true"
     inkscape:object-paths="true"
     inkscape:snap-intersection-paths="true"
     inkscape:object-nodes="true"
     inkscape:snap-smooth-nodes="true"
     inkscape:snap-midpoints="true"
     inkscape:snap-global="true"
     inkscape:window-width="2560"
     inkscape:window-height="1044"
     inkscape:window-x="2160"
     inkscape:window-y="0"
     inkscape:window-maximized="1"
     inkscape:snap-object-midpoints="true"
     inkscape:snap-center="true"
     inkscape:snap-page="true"
     showguides="true"
     inkscape:guide-bbox="true" />
  <metadata
     id="metadata7">
    <rdf:RDF>
      <cc:Work
         rdf:about="">
        <dc:format>image/svg+xml</dc:format>
        <dc:type
           rdf:resource="http://purl.org/dc/dcmitype/StillImage" />
        <dc:title />
      </cc:Work>
    </rdf:RDF>
  </metadata>
  <g
     inkscape:label="Layer 1"
     inkscape:groupmode="layer"
     id="layer1"
     transform="translate(0,27.637444)">
    <rect
       y="-511.63757"
       x="-63.999943"
       height="2048.0002"
       width="2048"
       id="rect4451"
       style="fill:#87aade;fill-opacity:1;stroke:none;stroke-width:7;stroke-linecap:round;stroke-linejoin:round;stroke-miterlimit:4;stroke-dasharray:none" />
    <rect
       style="fill:#87aade;fill-opacity:1;stroke:none;stroke-width:10.46100044;stroke-linecap:round;stroke-linejoin:round;stroke-miterlimit:4;stroke-dasharray:none"
       id="rect6031"
       width="64.000008"
       height="64.000008"
       x="-127.99995"
       y="-511.63757" />
    <rect
       y="-447.63757"
       x="-127.99995"
       height="64.000008"
       width="64.000008"
       id="rect6033"
       style="fill:#fee5f1;fill-opacity:1;stroke:none;stroke-width:10.46100044;stroke-linecap:round;stroke-linejoin:round;stroke-miterlimit:4;stroke-dasharray:none" />
    <rect
       style="fill:#ffe6d5;fill-opacity:1;stroke:none;stroke-width:10.46100044;stroke-linecap:round;stroke-linejoin:round;stroke-miterlimit:4;stroke-dasharray:none"
       id="rect6116"
       width="64.000008"
       height="64.000008"
       x="-127.99995"
       y="-383.63757" />
    <g
       id="g4255"
       transform="translate(8.9961219e-7,0.0272649)">
      <path
         sodipodi:nodetypes="zcszszz"
         inkscape:connector-curvature="0"
         id="path4276"
         d="m 1177.2059,487.07828 c 68.3398,27.90821 18.4427,70.36408 -30.9868,81.6927 -53.004,44.91354 -84.5752,97.28958 -223.95068,56.33979 -50.89593,-14.95372 -85.49048,9.18304 -139.46445,4.49964 -53.97399,-4.68339 -104.80465,-37.24247 -49.27365,-96.0518 87.47389,-92.63817 208.66715,-22.87868 277.47338,-29.57837 68.806,-6.69971 97.8623,-44.81016 166.2022,-16.90196 z"
         style="fill:#ffffff;fill-rule:evenodd;stroke:#000000;stroke-width:10.99967384;stroke-linecap:round;stroke-linejoin:round;stroke-miterlimit:4;stroke-dasharray:none;stroke-opacity:1" />
      <path
         sodipodi:nodetypes="cccscccscsccscc"
         inkscape:connector-curvature="0"
         id="path4229"
         transform="translate(0,-27.637505)"
         d="m 968.9375,412.44336 c -38.30673,1.2519 -91.69209,22.07517 -108.57617,59.73633 -14.10188,12.36754 -29.12941,36.1721 -11.69727,76.34179 0,0 -16.60295,19.06177 -27.05664,21.52149 -10.45389,2.45971 -10.45508,33.20703 -10.45508,33.20703 0,0 8.60834,20.90644 22.13672,-14.14453 0,0 38.12698,-9.22285 61.49414,-33.20508 0,0 -19.67844,22.75184 -33.20703,26.44141 -13.65056,3.72293 -16.71602,63.11989 18.03711,15.95898 0,0 2.65078,-4.76356 27.41992,-5.17773 24.28147,-0.40601 123.7013,-5.32435 182.2773,-26.11133 25.3476,-9.89519 51.1869,-20.5157 76.6563,-30.78906 16.6031,-136.51432 -99.9261,-117.75979 -110.6875,-111.91797 -10.7613,5.84185 -33.207,-3.68946 -33.207,-3.68946 -19.6586,-5.91869 -37.33648,-8.29495 -53.1348,-8.17187 z"
         style="fill:#ffb03b;fill-opacity:1;fill-rule:evenodd;stroke:#000000;stroke-width:10.99967384;stroke-linecap:round;stroke-linejoin:round;stroke-miterlimit:4;stroke-dasharray:none;stroke-opacity:1" />
      <path
         sodipodi:nodetypes="cscczc"
         inkscape:connector-curvature="0"
         id="path4318"
         d="m 765.92555,550.10845 c -7.84367,-2.98809 -56.69176,9.15518 -30.28252,46.83241 20.05081,28.60579 62.22583,16.41339 81.3724,8.88405 17.22906,-5.00356 7.82273,-11.5166 -2.49684,-9.23617 -16.19761,3.87336 -30.04254,3.87654 -54.93116,-11.9722 -24.88882,-15.84876 14.62449,-30.98012 6.33812,-34.50809 z"
         style="fill:#e6e6e6;fill-rule:evenodd;stroke:none;stroke-width:1px;stroke-linecap:round;stroke-linejoin:round;stroke-opacity:1" />
      <path
         sodipodi:nodetypes="czcczcc"
         inkscape:connector-curvature="0"
         id="path4320"
         d="m 1019.1026,606.80034 c 39.4037,-0.70541 77.7128,-32.10026 97.8902,-43.31122 20.1772,-11.21094 4.9576,9.39898 -2.8171,16.1977 -39.7129,32.32049 -60.4142,54.58481 -110.9189,44.01545 -14.43693,-3.16912 -27.86656,-8.13663 -41.19827,-7.74673 -13.33192,0.38991 -14.71633,-12.78207 -2.11271,-11.62007 14.14266,1.59443 22.81044,2.27999 59.15658,2.46487 z"
         style="fill:#e6e6e6;fill-opacity:1;fill-rule:evenodd;stroke:none;stroke-width:1px;stroke-linecap:round;stroke-linejoin:round;stroke-opacity:1" />
      <path
         sodipodi:nodetypes="cc"
         inkscape:connector-curvature="0"
         id="path4227"
         d="m 904.62171,465.5397 -4.30449,-12.9135"
         style="fill:none;fill-rule:evenodd;stroke:#000000;stroke-width:10.99967384;stroke-linecap:round;stroke-linejoin:round;stroke-miterlimit:4;stroke-dasharray:none;stroke-opacity:1" />
      <path
         sodipodi:nodetypes="czcccc"
         inkscape:connector-curvature="0"
         id="path4320-2"
         d="m 1016.2787,528.66416 c 39.4037,-0.70541 41.0212,-1.80436 61.1986,-13.01532 20.1771,-11.21093 7.6242,12.05043 -20.3944,19.33648 -61.93139,13.62686 -43.3056,6.76765 -99.31547,8.4943 -13.33172,0.3899 -1.53338,-16.79972 11.07004,-15.6377 14.14287,1.59442 11.09495,0.63735 47.44123,0.82224 z"
         style="fill:#f7931e;fill-opacity:1;fill-rule:evenodd;stroke:none;stroke-width:1px;stroke-linecap:round;stroke-linejoin:round;stroke-opacity:1" />
      <path
         sodipodi:nodetypes="cc"
         inkscape:connector-curvature="0"
         id="path4374"
         d="m 889.55748,442.40629 c 0,0 -12.72623,2.1686 -23.2726,16.2303"
         style="fill:none;fill-rule:evenodd;stroke:#ffffff;stroke-width:10.46100807;stroke-linecap:round;stroke-linejoin:round;stroke-miterlimit:4;stroke-dasharray:none;stroke-opacity:1" />
      <path
         sodipodi:nodetypes="cc"
         inkscape:connector-curvature="0"
         id="path4374-9"
         d="m 944.61669,461.88496 c 0,0 -18.07934,3.01325 -28.12358,20.59038"
         style="fill:none;fill-rule:evenodd;stroke:#ffffff;stroke-width:10.46100807;stroke-linecap:round;stroke-linejoin:round;stroke-miterlimit:4;stroke-dasharray:none;stroke-opacity:1" />
      <path
         style="fill:#ffffff;fill-rule:evenodd;stroke:none;stroke-width:1px;stroke-linecap:butt;stroke-linejoin:miter;stroke-opacity:1"
         d="m 981.25186,396.50566 c 8.43148,0.88281 38.12204,4.21385 49.50394,8.44902 19.9605,6.5458 44.3871,-2.99346 63.2675,-1.43818 3.991,0.33205 9.1361,3.00146 -8.2104,4.77596 -19.7212,2.01743 -27.9015,3.34494 -36.7683,5.96159 -3.6291,1.07096 -15.499,-0.61996 -22.6285,-4.33971 -15.9756,-4.98909 -28.90191,-5.92315 -45.45092,-8.38501 -13.54755,-1.76372 -10.16876,-6.11671 0.28668,-5.02367 z"
         id="path3457"
         inkscape:connector-curvature="0"
         sodipodi:nodetypes="cccssccc" />
      <path
         sodipodi:nodetypes="cccc"
         inkscape:connector-curvature="0"
         id="path4223"
         d="m 1122.3067,506.73998 c 0,0 21.5225,10.45381 44.2749,3.07464 17.4262,-7.66175 15.7943,11.48047 6.3827,15.97855 -11.8128,5.61461 -45.0993,18.12905 -90.0129,7.38878"
         style="fill:#ffb03b;fill-opacity:1;fill-rule:evenodd;stroke:#000000;stroke-width:10.99967384;stroke-linecap:round;stroke-linejoin:round;stroke-miterlimit:4;stroke-dasharray:none;stroke-opacity:1" />
      <path
         style="fill:#ffb03b;fill-opacity:1;fill-rule:evenodd;stroke:#000000;stroke-width:10.99967384;stroke-linecap:round;stroke-linejoin:round;stroke-miterlimit:4;stroke-dasharray:none;stroke-opacity:1"
         d="m 918.15032,455.70084 c 0,0 -37.5107,23.98224 -23.3674,72.56168"
         id="path4234"
         inkscape:connector-curvature="0"
         sodipodi:nodetypes="cc" />
    </g>
  </g>
</svg>
