<?xml version="1.0" encoding="UTF-8" standalone="no"?>
<!-- Created with Inkscape (http://www.inkscape.org/) -->

<svg
   xmlns:dc="http://purl.org/dc/elements/1.1/"
   xmlns:cc="http://creativecommons.org/ns#"
   xmlns:rdf="http://www.w3.org/1999/02/22-rdf-syntax-ns#"
   xmlns:svg="http://www.w3.org/2000/svg"
   xmlns="http://www.w3.org/2000/svg"
   xmlns:sodipodi="http://sodipodi.sourceforge.net/DTD/sodipodi-0.dtd"
   xmlns:inkscape="http://www.inkscape.org/namespaces/inkscape"
   width="1920"
   height="1080"
   viewBox="0 0 1920 1080"
   id="svg2"
   version="1.1"
   inkscape:version="0.91 r13725"
   sodipodi:docname="gudetama-muniya.svg">
  <defs
     id="defs4" />
  <sodipodi:namedview
     id="base"
     pagecolor="#ffffff"
     bordercolor="#666666"
     borderopacity="1.0"
     inkscape:pageopacity="0.0"
     inkscape:pageshadow="2"
     inkscape:zoom="0.80648148"
     inkscape:cx="960"
     inkscape:cy="540"
     inkscape:document-units="px"
     inkscape:current-layer="layer1"
     showgrid="false"
     borderlayer="true"
     inkscape:showpageshadow="false"
     units="px"
     inkscape:snap-grids="false"
     inkscape:snap-to-guides="true"
     inkscape:window-width="2560"
     inkscape:window-height="1044"
     inkscape:window-x="2160"
     inkscape:window-y="0"
     inkscape:window-maximized="1"
     inkscape:snap-page="true"
     inkscape:object-paths="true"
     inkscape:snap-intersection-paths="true"
     inkscape:object-nodes="true"
     inkscape:snap-smooth-nodes="true"
     inkscape:snap-midpoints="true">
    <inkscape:grid
       type="xygrid"
       id="grid4136"
       empspacing="8" />
  </sodipodi:namedview>
  <metadata
     id="metadata7">
    <rdf:RDF>
      <cc:Work
         rdf:about="">
        <dc:format>image/svg+xml</dc:format>
        <dc:type
           rdf:resource="http://purl.org/dc/dcmitype/StillImage" />
        <dc:title></dc:title>
      </cc:Work>
    </rdf:RDF>
  </metadata>
  <g
     inkscape:label="Layer 1"
     inkscape:groupmode="layer"
     id="layer1"
     transform="translate(0,27.63786)">
    <rect
       style="fill:#ff9955;fill-opacity:1;stroke:none;stroke-width:5;stroke-linecap:round;stroke-linejoin:round;stroke-miterlimit:4;stroke-dasharray:none;stroke-opacity:1"
       id="rect5155"
       width="2048"
       height="2048"
       x="-64"
       y="-511.63785" />
    <g
       id="g5101"
       transform="matrix(1.025327,0,0,1.025327,695.25817,-366.11673)">
      <path
         sodipodi:nodetypes="cszsccsssccc"
         inkscape:connector-curvature="0"
         id="path4410"
         d="m 129.31168,849.13876 c -10.55712,13.11099 -33.929592,39.30089 -56.15576,44.85744 -29.927422,7.48186 -37.201449,7.48185 -52.788647,17.87332 -15.5871984,10.39147 -10.3914657,34.08401 13.716735,40.31889 31.214651,8.07276 75.598822,3.08085 92.281742,0.66159 24.35365,-1.87151 54.41418,-0.0274 74.81303,5.98895 26.60215,8.31317 51.54167,19.53595 81.88475,19.95161 30.34308,0.41566 40.76074,-4.50592 60.68616,-13.71673 22.02991,-10.18364 44.05982,-22.02992 77.72817,-24.93953 33.66835,-2.90961 72.61454,7.724 82.71607,-22.86122 7.36528,-25.65688 -41.87666,-34.51278 -99.6884,-52.97446 C 297.74891,830.80801 198.26886,779.19157 129.31168,849.13876 Z"
         style="fill:#ffffff;fill-rule:evenodd;stroke:#000000;stroke-width:6;stroke-linecap:round;stroke-linejoin:round;stroke-miterlimit:4;stroke-dasharray:none;stroke-opacity:1" />
      <path
         sodipodi:nodetypes="ccccccccsscc"
         inkscape:connector-curvature="0"
         id="path4392"
         d="m 144.48739,894.45894 c -43.817,-13.83802 -50.648292,-61.08505 -39.55972,-95.15765 17.64983,-55.53638 75.51313,-76.62053 127.12279,-57.95633 20.74133,8.67824 44.31739,14.69161 64.7124,20.73769 23.91068,8.53099 47.41605,24.81633 52.14882,65.7161 1.46781,14.86695 0.88153,23.70487 10.54641,31.16729 7.07075,5.36402 14.91273,10.56029 17.38055,12.17581 3.21726,2.32429 3.97836,3.95879 4.42424,6.64366 0.83132,5.61139 1.97003,13.20636 -1.4548,15.69112 -4.35919,3.16265 -9.67876,0.98966 -11.01495,-2.0783 -2.33656,-5.36484 -9.45623,-6.13096 -14.8598,-5.40356 -82.33316,9.09442 -151.04017,26.873 -209.44594,8.46417 z"
         style="fill:#ffb03b;fill-opacity:1;fill-rule:evenodd;stroke:#000000;stroke-width:6;stroke-linecap:round;stroke-linejoin:round;stroke-miterlimit:4;stroke-dasharray:none;stroke-opacity:1" />
      <path
         sodipodi:nodetypes="ccccsssc"
         inkscape:connector-curvature="0"
         id="path4420"
         d="m 134.09524,907.60024 c 0,0 46.22222,-2.28572 57.14286,-20.0635 12.29635,-21.80242 -12.21522,-16.12263 -14.1711,-35.58659 -0.7539,-40.07831 37.92414,-35.40311 58.36157,-26.1277 25.65079,11.9365 36.69841,10.66667 41.77777,8.88889 5.07937,-1.77777 26.79366,-6.3492 44.0635,18.03175 17.26984,24.38095 15.49206,38.60318 30.22222,46.47619 14.73016,7.87302 41.90477,5.20635 41.90477,5.20635"
         style="fill:#ffffff;fill-rule:evenodd;stroke:#000000;stroke-width:6;stroke-linecap:round;stroke-linejoin:round;stroke-miterlimit:4;stroke-dasharray:none;stroke-opacity:1" />
      <path
         sodipodi:nodetypes="csscccsc"
         inkscape:connector-curvature="0"
         id="path4394"
         d="m 270.38594,814.6054 c 0,0 -7.27402,17.66549 4.15659,31.1744 11.43061,13.5089 13.92456,13.5089 11.84627,19.74378 -2.07829,6.23488 -3.49557,8.72605 -3.49557,8.72605 0,0 -2.93915,3.96785 1.76349,6.31917 8.73414,3.08893 16.76815,-0.83454 18.07577,-9.84616 0.29392,-2.35132 1.46958,-15.87141 8.52354,-23.66016 7.05396,-7.78874 11.16877,-15.13662 14.54879,-25.86452"
         style="fill:#ffb03b;fill-opacity:1;fill-rule:evenodd;stroke:#000000;stroke-width:6;stroke-linecap:round;stroke-linejoin:round;stroke-miterlimit:4;stroke-dasharray:none;stroke-opacity:1" />
      <path
         sodipodi:nodetypes="ccscc"
         inkscape:connector-curvature="0"
         id="path4398"
         d="m 214.26406,801.3587 c 1.84007,13.69046 1.25118,25.83925 -6.907,34.2411 -4.70264,4.70264 -1.76349,12.19747 3.08611,14.54879 4.13592,2.0053 8.48562,2.08663 11.77288,-0.48527 5.96775,-6.13453 10.04424,-25.75679 9.24204,-33.02104"
         style="fill:#ffb03b;fill-opacity:1;fill-rule:evenodd;stroke:#000000;stroke-width:6;stroke-linecap:round;stroke-linejoin:round;stroke-miterlimit:4;stroke-dasharray:none;stroke-opacity:1" />
      <path
         sodipodi:nodetypes="cccc"
         inkscape:connector-curvature="0"
         id="path4400"
         d="m 169.29506,877.92356 c 0,0 6.46614,1.17566 18.51665,-16.16532 10.02311,-15.35756 21.03902,-2.90637 16.01837,7.20091 -6.17222,11.31573 -15.6988,20.53411 -19.96057,21.85673"
         style="fill:#ffb03b;fill-opacity:1;fill-rule:evenodd;stroke:#000000;stroke-width:6;stroke-linecap:round;stroke-linejoin:round;stroke-miterlimit:4;stroke-dasharray:none;stroke-opacity:1" />
      <ellipse
         transform="matrix(0.92423796,0.38181697,-0.31314711,0.94970463,0,0)"
         ry="18.654018"
         rx="4.2594543"
         cy="701.56561"
         cx="420.55664"
         id="path4402"
         style="fill:#ffffff;fill-opacity:1;stroke:#000000;stroke-width:5.00671864;stroke-linecap:round;stroke-linejoin:round;stroke-miterlimit:4;stroke-dasharray:none;stroke-opacity:1" />
      <ellipse
         transform="matrix(0.55059686,-0.83477129,0.83477129,0.55059686,0,0)"
         ry="4.9965558"
         rx="9.2583237"
         cy="573.27704"
         cx="-571.29028"
         id="path4406"
         style="fill:#000000;fill-opacity:1;stroke:#000000;stroke-width:1.5;stroke-linecap:round;stroke-linejoin:round;stroke-miterlimit:4;stroke-dasharray:none;stroke-opacity:1" />
      <ellipse
         style="fill:#000000;fill-opacity:1;stroke:#000000;stroke-width:1.5;stroke-linecap:round;stroke-linejoin:round;stroke-miterlimit:4;stroke-dasharray:none;stroke-opacity:1"
         id="ellipse4408"
         cx="-847.53552"
         cy="-185.04898"
         rx="9.2583237"
         ry="4.9965558"
         transform="matrix(0.04798679,-0.99884797,-0.99884797,-0.04798679,0,0)" />
      <path
         sodipodi:nodetypes="ccsssscc"
         inkscape:connector-curvature="0"
         id="path4412"
         d="m 351.74603,934.01293 c 8.74484,-4.96144 18.78434,-7.10155 28.34731,-7.67426 3.99713,-0.19811 18.54581,-0.43369 -7.26794,8.69014 -29.46032,10.4127 -57.90477,30.22222 -72.12699,30.73016 -14.22222,0.50793 -39.71896,-4.34564 -44.32384,-8.85808 -3.42253,-3.35383 -0.82353,-8.18597 4.7048,-10.18954 4.86999,-1.76498 16.25396,-3.80953 26.41269,-2.28572 22.68648,3.61801 47.49526,-2.70934 64.25397,-10.4127 z"
         style="fill:#e6e6e6;fill-opacity:1;fill-rule:evenodd;stroke:none;stroke-width:1px;stroke-linecap:butt;stroke-linejoin:miter;stroke-opacity:1" />
      <path
         sodipodi:nodetypes="ccccsssccc"
         inkscape:connector-curvature="0"
         id="path4414"
         d="m 105.90476,928.6796 c 30.47619,-5.07937 29.96825,-6.3492 36.31746,-2.53968 3.93168,2.7173 12.56533,8.74939 -0.44325,11.99887 -30.57967,5.41696 -64.460784,11.38637 -90.483022,5.12145 -10.158423,-2.67729 -21.247893,-7.91044 -21.72779,-12.62328 -0.756503,-7.42926 6.84657,-12.25958 23.003271,-17.95736 11.461542,-4.042 16.76938,-5.10488 22.603174,-2.28571 4.994174,2.41343 3.759852,7.03426 -2.031746,10.41269 -2.573763,1.58996 -8.593288,3.43698 -4.969182,7.18728 7.413755,6.81143 33.009025,1.44723 37.731085,0.68574 z"
         style="fill:#e6e6e6;fill-opacity:1;fill-rule:evenodd;stroke:none;stroke-width:1px;stroke-linecap:butt;stroke-linejoin:miter;stroke-opacity:1" />
      <path
         sodipodi:nodetypes="ccccc"
         inkscape:connector-curvature="0"
         id="path4416"
         d="m 318.13071,786.75936 c 10.51879,12.22872 1.37432,21.15623 -8.68209,11.98105 -7.97373,-5.96388 -16.33216,-9.5165 -24.33652,-12.84806 -5.72938,-2.39373 -9.94896,-5.7511 -8.01426,-11.24687 4.73428,-13.13518 29.43163,-2.26041 41.03287,12.11388 z"
         style="fill:#f7931e;fill-opacity:1;fill-rule:evenodd;stroke:none;stroke-width:1px;stroke-linecap:butt;stroke-linejoin:miter;stroke-opacity:1" />
      <path
         sodipodi:nodetypes="csscccc"
         inkscape:connector-curvature="0"
         id="path4418"
         d="m 148.33337,757.41392 c 2.59931,-2.28023 10.88826,-8.46927 26.01584,-10.32162 18.66666,-2.28571 35.30159,-2.28572 41.52381,4.19047 6.22222,6.47619 -2.4127,12.31747 -10.66667,12.31747 -18.79877,-0.33736 -30.95047,-0.22898 -48.67311,6.33072 -5.45741,1.55102 -8.48941,4.46194 -12.27927,2.05023 -3.27353,-4.13115 0.88457,-11.58552 4.0794,-14.56727 z"
         style="fill:#ffffff;fill-rule:evenodd;stroke:none;stroke-width:1px;stroke-linecap:butt;stroke-linejoin:miter;stroke-opacity:1" />
    </g>
    <rect
       style="fill:#0088aa;fill-opacity:1;stroke:none;stroke-width:5;stroke-linecap:round;stroke-linejoin:round;stroke-miterlimit:4;stroke-dasharray:none;stroke-opacity:1"
       id="rect5157"
       width="64"
       height="64"
       x="-128"
       y="-511.63785" />
    <rect
       y="-447.63785"
       x="-128"
       height="64"
       width="64"
       id="rect5159"
       style="fill:#5fd38d;fill-opacity:1;stroke:none;stroke-width:5;stroke-linecap:round;stroke-linejoin:round;stroke-miterlimit:4;stroke-dasharray:none;stroke-opacity:1"
       inkscape:transform-center-y="-81.8897" />
    <rect
       inkscape:transform-center-y="-81.8897"
       style="fill:#ff9955;fill-opacity:1;stroke:none;stroke-width:5;stroke-linecap:round;stroke-linejoin:round;stroke-miterlimit:4;stroke-dasharray:none;stroke-opacity:1"
       id="rect5161"
       width="64"
       height="64"
       x="-128"
       y="-383.63785" />
  </g>
</svg>
