<?xml version="1.0" encoding="UTF-8" standalone="no"?>
<!-- Created with Inkscape (http://www.inkscape.org/) -->

<svg
   xmlns:dc="http://purl.org/dc/elements/1.1/"
   xmlns:cc="http://creativecommons.org/ns#"
   xmlns:rdf="http://www.w3.org/1999/02/22-rdf-syntax-ns#"
   xmlns:svg="http://www.w3.org/2000/svg"
   xmlns="http://www.w3.org/2000/svg"
   xmlns:sodipodi="http://sodipodi.sourceforge.net/DTD/sodipodi-0.dtd"
   xmlns:inkscape="http://www.inkscape.org/namespaces/inkscape"
   width="3.5in"
   height="2in"
   viewBox="0 0 315 180"
   id="svg4495"
   version="1.1"
   inkscape:version="0.92.1 r15371"
   sodipodi:docname="helene-ross-business-card-back.svg">
  <defs
     id="defs4497" />
  <sodipodi:namedview
     id="base"
     pagecolor="#ffffff"
     bordercolor="#666666"
     borderopacity="1.0"
     inkscape:pageopacity="0.0"
     inkscape:pageshadow="2"
     inkscape:zoom="4.4427083"
     inkscape:cx="168"
     inkscape:cy="96"
     inkscape:document-units="px"
     inkscape:current-layer="g4567"
     showgrid="false"
     units="in"
     borderlayer="true"
     showborder="true"
     inkscape:showpageshadow="false"
     showguides="false"
     inkscape:snap-bbox="true"
     inkscape:bbox-paths="true"
     inkscape:bbox-nodes="true"
     inkscape:snap-bbox-edge-midpoints="true"
     inkscape:snap-bbox-midpoints="true"
     inkscape:object-paths="true"
     inkscape:snap-intersection-paths="true"
     inkscape:object-nodes="true"
     inkscape:snap-smooth-nodes="true"
     inkscape:snap-midpoints="true"
     inkscape:snap-object-midpoints="true"
     inkscape:snap-center="true"
     inkscape:snap-text-baseline="true"
     inkscape:snap-page="true"
     inkscape:window-width="1920"
     inkscape:window-height="1044"
     inkscape:window-x="0"
     inkscape:window-y="0"
     inkscape:window-maximized="1"
     inkscape:guide-bbox="true">
    <inkscape:grid
       type="xygrid"
       id="grid4611"
       empspacing="1"
       units="in"
       spacingx="5.625"
       spacingy="5.625" />
    <sodipodi:guide
       position="-50.625,191.25"
       orientation="0,1"
       id="guide4646"
       inkscape:locked="false" />
    <sodipodi:guide
       position="-39.375,-11.25"
       orientation="0,1"
       id="guide4648"
       inkscape:locked="false" />
    <sodipodi:guide
       position="-11.25,219.375"
       orientation="1,0"
       id="guide4650"
       inkscape:locked="false" />
    <sodipodi:guide
       position="326.25,-61.875"
       orientation="1,0"
       id="guide4652"
       inkscape:locked="false" />
    <sodipodi:guide
       position="22.5,196.875"
       orientation="1,0"
       id="guide4718"
       inkscape:locked="false" />
    <sodipodi:guide
       position="315,50.625"
       orientation="0,1"
       id="guide4720"
       inkscape:locked="false" />
    <sodipodi:guide
       position="56.25,-28.125"
       orientation="1,0"
       id="guide4517"
       inkscape:locked="false" />
    <sodipodi:guide
       position="61.875,-67.5"
       orientation="1,0"
       id="guide4519"
       inkscape:locked="false" />
    <sodipodi:guide
       position="157.5,180"
       orientation="1,0"
       id="guide4569"
       inkscape:locked="false" />
    <sodipodi:guide
       position="348.75,135"
       orientation="0,1"
       id="guide4571"
       inkscape:locked="false" />
    <sodipodi:guide
       position="180,90"
       orientation="0,1"
       id="guide4573"
       inkscape:locked="false" />
    <sodipodi:guide
       position="315,73.125"
       orientation="0,1"
       id="guide4591"
       inkscape:locked="false" />
    <sodipodi:guide
       position="315,61.875"
       orientation="0,1"
       id="guide4593"
       inkscape:locked="false" />
    <sodipodi:guide
       position="315,22.5"
       orientation="0,1"
       id="guide4603"
       inkscape:locked="false" />
    <sodipodi:guide
       position="315,33.75"
       orientation="0,1"
       id="guide4613"
       inkscape:locked="false" />
  </sodipodi:namedview>
  <metadata
     id="metadata4500">
    <rdf:RDF>
      <cc:Work
         rdf:about="">
        <dc:format>image/svg+xml</dc:format>
        <dc:type
           rdf:resource="http://purl.org/dc/dcmitype/StillImage" />
        <dc:title></dc:title>
      </cc:Work>
    </rdf:RDF>
  </metadata>
  <g
     inkscape:label="Layer 1"
     inkscape:groupmode="layer"
     id="layer1"
     transform="translate(0,-872.36212)">
    <g
       id="g4567"
       transform="translate(133.875,-69.750018)">
      <path
         sodipodi:nodetypes="scscsscscsccscscsscscsccs"
         d="m 52.642089,988.32213 c 0,-0.34955 0.107554,-0.63188 0.322663,-0.84699 0.241997,-0.242 0.537772,-0.363 0.887323,-0.363 0.322663,0 0.604992,0.121 0.846989,0.363 0.241997,0.21511 0.362996,0.49744 0.362996,0.84699 v 29.07997 c 0,0.3496 -0.120999,0.6454 -0.362996,0.8874 -0.241997,0.2151 -0.524326,0.3226 -0.846989,0.3226 -0.349551,0 -0.645326,-0.1075 -0.887323,-0.3226 -0.215109,-0.242 -0.321692,-0.5378 -0.322663,-0.8874 V 1003.81 H 26.04497 v 13.5921 c 0,0.3496 -0.120998,0.6454 -0.362995,0.8874 -0.215109,0.2151 -0.497439,0.3226 -0.84699,0.3226 -0.349551,0 -0.645325,-0.1075 -0.887322,-0.3226 -0.215109,-0.242 -0.322663,-0.5378 -0.322663,-0.8874 v -29.07997 c 0,-0.34955 0.107554,-0.63188 0.322663,-0.84699 0.241997,-0.242 0.537771,-0.363 0.887322,-0.363 0.349551,0 0.631881,0.121 0.84699,0.363 0.241997,0.21511 0.362995,0.49744 0.362995,0.84699 v 13.30987 h 26.597119 z"
         style="font-style:normal;font-variant:normal;font-weight:300;font-stretch:normal;font-size:medium;line-height:1.25;font-family:Comfortaa;-inkscape-font-specification:'Comfortaa Light';letter-spacing:0px;word-spacing:0px;fill:#aad400;fill-opacity:1;stroke:none;stroke-width:1.00832093"
         id="path4502"
         inkscape:connector-curvature="0" />
      <path
         sodipodi:nodetypes="cscssccccscscsscssccscccsscsccsccs"
         d="m 93.02543,1016.7568 c 0.21511,0.3765 0.32267,0.6857 0.32267,0.9277 0,0.2957 -0.121,0.5243 -0.363,0.6856 -0.21511,0.1613 -0.53777,0.242 -0.96799,0.242 -0.26888,0 -0.48399,-0.054 -0.64532,-0.1613 -0.16133,-0.1075 -0.309221,-0.2689 -0.443665,-0.484 l -7.421241,-11.8579 H 82.780893 64.29497 v 11.2932 c 0,0.3496 -0.107554,0.6454 -0.322663,0.8874 -0.215108,0.2151 -0.510882,0.3226 -0.887322,0.3226 -0.349551,0 -0.645326,-0.1075 -0.887323,-0.3226 -0.215108,-0.242 -0.322662,-0.5378 -0.322662,-0.8874 v -29.07993 c 0,-0.37644 0.107554,-0.67222 0.322662,-0.88733 0.241997,-0.21511 0.537772,-0.32266 0.887323,-0.32266 h 19.695908 c 1.935976,0 3.670288,0.40333 5.202935,1.20999 1.532648,0.80665 2.729189,1.93597 3.589622,3.38795 0.86043,1.45199 1.29065,3.10563 1.29065,4.96094 0,2.2049 -0.61844,4.11394 -1.855309,5.72724 -1.209985,1.5865 -2.850187,2.6755 -4.920606,3.267 z M 82.780893,1003.689 c 1.478871,0 2.79641,-0.2958 3.952617,-0.8873 1.156208,-0.5915 2.056975,-1.4251 2.702301,-2.5007 0.672214,-1.07548 1.00832,-2.28547 1.00832,-3.62994 0,-1.37131 -0.336106,-2.59474 -1.00832,-3.67028 -0.645326,-1.10243 -1.546093,-1.94942 -2.702301,-2.54097 -1.156207,-0.61844 -2.473746,-0.92766 -3.952617,-0.92766 H 64.29497 v 14.15685 z"
         style="font-style:normal;font-variant:normal;font-weight:300;font-stretch:normal;font-size:medium;line-height:1.25;font-family:Comfortaa;-inkscape-font-specification:'Comfortaa Light';letter-spacing:0px;word-spacing:0px;fill:#b3b3b3;fill-opacity:1;stroke:none;stroke-width:1.00832093"
         id="path4504"
         inkscape:connector-curvature="0" />
    </g>
    <flowRoot
       xml:space="preserve"
       id="flowRoot4575"
       style="font-style:normal;font-weight:normal;font-size:40px;line-height:1.25;font-family:sans-serif;letter-spacing:0px;word-spacing:0px;fill:#000000;fill-opacity:1;stroke:none"
       transform="matrix(0.47382671,0,0,0.47382671,198.2491,855.57508)"><flowRegion
         id="flowRegion4577"><rect
           id="rect4579"
           width="528"
           height="174"
           x="-90"
           y="222" /></flowRegion><flowPara
         id="flowPara4581"
         style="font-style:normal;font-variant:normal;font-weight:normal;font-stretch:normal;font-family:Comfortaa;-inkscape-font-specification:Comfortaa">Hélène Ross</flowPara></flowRoot>    <flowRoot
       transform="matrix(0.28409091,0,0,0.28409091,181.93182,925.78517)"
       style="font-style:normal;font-weight:normal;font-size:40px;line-height:1.25;font-family:sans-serif;letter-spacing:0px;word-spacing:0px;fill:#000000;fill-opacity:1;stroke:none"
       id="flowRoot4589"
       xml:space="preserve"><flowRegion
         id="flowRegion4585"><rect
           y="222"
           x="-90"
           height="174"
           width="528"
           id="rect4583" /></flowRegion><flowPara
         style="font-style:normal;font-variant:normal;font-weight:300;font-stretch:normal;font-family:Comfortaa;-inkscape-font-specification:'Comfortaa Light'"
         id="flowPara4587">Production Manager</flowPara></flowRoot>    <flowRoot
       xml:space="preserve"
       id="flowRoot4601"
       style="font-style:normal;font-weight:normal;font-size:40px;line-height:1.25;font-family:sans-serif;letter-spacing:0px;word-spacing:0px;fill:#000000;fill-opacity:1;stroke:none"
       transform="matrix(0.28409091,0,0,0.28409091,181.93182,942.22475)"><flowRegion
         id="flowRegion4597"><rect
           id="rect4595"
           width="528"
           height="174"
           x="-90"
           y="222" /></flowRegion><flowPara
         id="flowPara4599"
         style="font-style:normal;font-variant:normal;font-weight:300;font-stretch:normal;font-family:Comfortaa;-inkscape-font-specification:'Comfortaa Light'">514.895.1904</flowPara></flowRoot>    <flowRoot
       transform="matrix(0.28409091,0,0,0.28409091,181.93182,956.30637)"
       style="font-style:normal;font-weight:normal;font-size:40px;line-height:1.25;font-family:sans-serif;letter-spacing:0px;word-spacing:0px;fill:#000000;fill-opacity:1;stroke:none"
       id="flowRoot4611"
       xml:space="preserve"><flowRegion
         id="flowRegion4607"><rect
           y="222"
           x="-90"
           height="174"
           width="528"
           id="rect4605" /></flowRegion><flowPara
         style="font-style:normal;font-variant:normal;font-weight:300;font-stretch:normal;font-family:Comfortaa;-inkscape-font-specification:'Comfortaa Light'"
         id="flowPara4609">hellross@gmail.com</flowPara></flowRoot>  </g>
</svg>
