<?xml version="1.0" encoding="utf-8"?>
<!-- Generator: Adobe Illustrator 15.0.0, SVG Export Plug-In . SVG Version: 6.00 Build 0)  -->
<!DOCTYPE svg PUBLIC "-//W3C//DTD SVG 1.1//EN" "http://www.w3.org/Graphics/SVG/1.1/DTD/svg11.dtd">
<svg version="1.1" id="Layer_1" xmlns="http://www.w3.org/2000/svg" xmlns:xlink="http://www.w3.org/1999/xlink" x="0px" y="0px"
	 width="1728px" height="1728px" viewBox="0 0 1728 1728" enable-background="new 0 0 1728 1728" xml:space="preserve">
<g>
	
		<polygon fill="none" stroke="#404041" stroke-width="5" stroke-linecap="round" stroke-linejoin="round" stroke-miterlimit="10" points="
		-2414.983,-953.097 -2445.986,-1314.819 -2271.286,-1314.819 	"/>
	
		<polygon fill="none" stroke="#404041" stroke-width="5" stroke-linecap="round" stroke-linejoin="round" stroke-miterlimit="10" points="
		-2414.983,-953.097 -2178.332,-1223.179 -2271.286,-1314.819 	"/>
	
		<polygon fill="none" stroke="#6D6E70" stroke-width="5" stroke-linecap="round" stroke-linejoin="round" stroke-miterlimit="10" points="
		-2693.54,-1223.415 -2992.265,-1273.022 -3077.668,-1140.583 	"/>
	
		<polygon fill="none" stroke="#6D6E70" stroke-width="5" stroke-linecap="round" stroke-linejoin="round" stroke-miterlimit="10" points="
		-2657.455,-1091.271 -2445.986,-1314.819 -2271.286,-1314.819 	"/>
	
		<polygon fill="none" stroke="#6D6E70" stroke-width="5" stroke-linecap="round" stroke-linejoin="round" stroke-miterlimit="10" points="
		-2657.455,-1091.271 -2583.159,-1008.837 -2178.332,-1223.179 	"/>
	
		<polygon fill="none" stroke="#D0D2D3" stroke-width="5" stroke-linecap="round" stroke-linejoin="round" stroke-miterlimit="10" points="
		-2992.265,-1273.022 -2657.455,-1091.271 -2693.54,-1223.415 	"/>
	
		<polygon fill="none" stroke="#929497" stroke-width="5" stroke-linecap="round" stroke-linejoin="round" stroke-miterlimit="10" points="
		-2693.54,-1223.415 -2445.986,-1314.819 -2657.455,-1091.271 	"/>
	
		<polygon fill="none" stroke="#6D6E70" stroke-width="5" stroke-linecap="round" stroke-linejoin="round" stroke-miterlimit="10" points="
		-2657.455,-1091.271 -2414.983,-953.097 -2583.159,-1008.837 	"/>
	
		<polygon fill="none" stroke="#D0D2D3" stroke-width="5" stroke-linecap="round" stroke-linejoin="round" stroke-miterlimit="10" points="
		-2657.455,-1091.271 -2583.159,-1008.837 -2466.332,-449.181 	"/>
	
		<polygon fill="none" stroke="#D0D2D3" stroke-width="5" stroke-linecap="round" stroke-linejoin="round" stroke-miterlimit="10" points="
		-2583.159,-1008.837 -2414.983,-953.097 -2466.332,-449.181 	"/>
</g>
<g>
	
		<polygon fill="none" stroke="#404041" stroke-width="5" stroke-linecap="round" stroke-linejoin="round" stroke-miterlimit="10" points="
		-872.808,-828.355 -903.811,-1190.076 -729.111,-1190.076 	"/>
	
		<polygon fill="none" stroke="#404041" stroke-width="5" stroke-linecap="round" stroke-linejoin="round" stroke-miterlimit="10" points="
		-872.808,-828.355 -636.157,-1098.437 -729.111,-1190.076 	"/>
	
		<polygon fill="none" stroke="#6D6E70" stroke-width="5" stroke-linecap="round" stroke-linejoin="round" stroke-miterlimit="10" points="
		-1151.365,-1098.672 -1450.089,-1148.279 -1535.493,-1015.842 	"/>
	
		<polygon fill="none" stroke="#6D6E70" stroke-width="5" stroke-linecap="round" stroke-linejoin="round" stroke-miterlimit="10" points="
		-1130.493,-976.5 -903.811,-1190.076 -729.111,-1190.076 	"/>
	
		<polygon fill="none" stroke="#6D6E70" stroke-width="5" stroke-linecap="round" stroke-linejoin="round" stroke-miterlimit="10" points="
		-1130.493,-976.5 -1040.984,-884.096 -636.157,-1098.437 	"/>
	
		<polygon fill="none" stroke="#D0D2D3" stroke-width="5" stroke-linecap="round" stroke-linejoin="round" stroke-miterlimit="10" points="
		-1450.089,-1148.279 -1130.493,-976.5 -1151.365,-1098.672 	"/>
	
		<polygon fill="none" stroke="#929497" stroke-width="5" stroke-linecap="round" stroke-linejoin="round" stroke-miterlimit="10" points="
		-1151.365,-1098.672 -903.811,-1190.076 -1130.493,-976.5 	"/>
	
		<polygon fill="none" stroke="#6D6E70" stroke-width="5" stroke-linecap="round" stroke-linejoin="round" stroke-miterlimit="10" points="
		-1130.493,-976.5 -872.808,-828.355 -1040.984,-884.096 	"/>
	
		<polygon fill="none" stroke="#D0D2D3" stroke-width="5" stroke-linecap="round" stroke-linejoin="round" stroke-miterlimit="10" points="
		-1130.493,-976.5 -1040.984,-884.096 -986.493,-328.5 	"/>
	
		<polygon fill="none" stroke="#D0D2D3" stroke-width="5" stroke-linecap="round" stroke-linejoin="round" stroke-miterlimit="10" points="
		-1040.984,-884.096 -872.808,-828.355 -986.493,-328.5 	"/>
	
		<polygon fill="none" stroke="#404041" stroke-width="5" stroke-linecap="round" stroke-linejoin="round" stroke-miterlimit="10" points="
		-300.95,-1333.752 -228.507,-1435.5 -563.493,-1399.5 	"/>
	
		<polygon fill="none" stroke="#6D6E70" stroke-width="5" stroke-linecap="round" stroke-linejoin="round" stroke-miterlimit="10" points="
		-563.493,-1399.5 -535.376,-1296.31 -300.95,-1333.752 	"/>
	
		<polygon fill="none" stroke="#929497" stroke-width="5" stroke-linecap="round" stroke-linejoin="round" stroke-miterlimit="10" points="
		-729.111,-1190.076 -535.376,-1296.31 -563.493,-1399.5 	"/>
	
		<polygon fill="none" stroke="#D0D2D3" stroke-width="5" stroke-linecap="round" stroke-linejoin="round" stroke-miterlimit="10" points="
		-636.157,-1098.437 -535.376,-1296.31 -729.111,-1190.076 	"/>
</g>
<g>
	
		<polygon fill="none" stroke="#404041" stroke-width="5" stroke-linecap="round" stroke-linejoin="round" stroke-miterlimit="10" points="
		898.659,-666 859.991,-1044 1033.21,-1044 	"/>
	
		<polygon fill="none" stroke="#404041" stroke-width="5" stroke-linecap="round" stroke-linejoin="round" stroke-miterlimit="10" points="
		898.659,-666 1126.341,-943.375 1033.21,-1044 	"/>
	
		<polygon fill="none" stroke="#6D6E70" stroke-width="5" stroke-linecap="round" stroke-linejoin="round" stroke-miterlimit="10" points="
		646.659,-809.028 859.991,-1044 1033.21,-1044 	"/>
	
		<polygon fill="none" stroke="#6D6E70" stroke-width="5" stroke-linecap="round" stroke-linejoin="round" stroke-miterlimit="10" points="
		646.659,-809.028 718.659,-711 1126.341,-943.375 	"/>
	
		<polygon fill="none" stroke="#929497" stroke-width="5" stroke-linecap="round" stroke-linejoin="round" stroke-miterlimit="10" points="
		610.659,-918 859.991,-1044 646.659,-809.028 	"/>
	
		<polygon fill="none" stroke="#6D6E70" stroke-width="5" stroke-linecap="round" stroke-linejoin="round" stroke-miterlimit="10" points="
		646.659,-809.028 898.659,-666 718.659,-711 	"/>
	
		<polygon fill="none" stroke="#6D6E70" stroke-width="5" stroke-linecap="round" stroke-linejoin="round" stroke-miterlimit="10" points="
		898.659,-666 970.659,-558 1126.341,-943.375 	"/>
	
		<polygon fill="none" stroke="#D0D2D3" stroke-width="5" stroke-linecap="round" stroke-linejoin="round" stroke-miterlimit="10" points="
		718.659,-711 601.659,-558 898.659,-666 	"/>
	
		<polygon fill="none" stroke="#D0D2D3" stroke-width="5" stroke-linecap="round" stroke-linejoin="round" stroke-miterlimit="10" points="
		601.659,-558 970.659,-558 826.659,-414 	"/>
	
		<polygon fill="none" stroke="#404041" stroke-width="5" stroke-linecap="round" stroke-linejoin="round" stroke-miterlimit="10" points="
		859.991,-1044 1033.21,-1044 970.659,-1350 	"/>
	
		<polygon fill="none" stroke="#6D6E70" stroke-width="5" stroke-linecap="round" stroke-linejoin="round" stroke-miterlimit="10" points="
		1126.341,-943.375 970.659,-1350 1033.21,-1044 	"/>
	
		<polygon fill="none" stroke="#6D6E70" stroke-width="5" stroke-linecap="round" stroke-linejoin="round" stroke-miterlimit="10" points="
		970.659,-1350 859.991,-1044 610.659,-918 	"/>
	
		<polygon fill="none" stroke="#D0D2D3" stroke-width="5" stroke-linecap="round" stroke-linejoin="round" stroke-miterlimit="10" points="
		718.659,-711 1126.341,-943.375 826.659,-414 	"/>
</g>
<g>
	
		<polygon fill="none" stroke="#404041" stroke-width="5" stroke-linecap="round" stroke-linejoin="round" stroke-miterlimit="10" points="
		-2569.5,801 -2677.5,824.436 -2614.5,405 	"/>
	
		<polygon fill="none" stroke="#404041" stroke-width="5" stroke-linecap="round" stroke-linejoin="round" stroke-miterlimit="10" points="
		-2814.221,1067.684 -2371.5,1026 -2416.5,1224 	"/>
	
		<polygon fill="none" stroke="#404041" stroke-width="5" stroke-linecap="round" stroke-linejoin="round" stroke-miterlimit="10" points="
		-2814.221,1067.684 -2560.5,1323 -2416.5,1224 	"/>
	
		<polygon fill="none" stroke="#6D6E70" stroke-width="5" stroke-linecap="round" stroke-linejoin="round" stroke-miterlimit="10" points="
		-2569.5,801 -2494.297,490.404 -2614.5,405 	"/>
	
		<polygon fill="none" stroke="#6D6E70" stroke-width="5" stroke-linecap="round" stroke-linejoin="round" stroke-miterlimit="10" points="
		-2677.5,824.436 -2371.5,1026 -2416.5,1224 	"/>
	
		<polygon fill="none" stroke="#929497" stroke-width="5" stroke-linecap="round" stroke-linejoin="round" stroke-miterlimit="10" points="
		-2569.5,801 -2371.5,1026 -2677.5,824.436 	"/>
	
		<polygon fill="none" stroke="#6D6E70" stroke-width="5" stroke-linecap="round" stroke-linejoin="round" stroke-miterlimit="10" points="
		-2677.5,824.436 -2814.221,1067.684 -2767.5,891 	"/>
	
		<polygon fill="none" stroke="#929497" stroke-width="5" stroke-linecap="round" stroke-linejoin="round" stroke-miterlimit="10" points="
		-2494.297,490.404 -2677.5,824.436 -2569.5,801 	"/>
	
		<polygon fill="none" stroke="#929497" stroke-width="5" stroke-linecap="round" stroke-linejoin="round" stroke-miterlimit="10" points="
		-2677.5,824.436 -2767.5,891 -2884.5,792 	"/>
	
		<polygon fill="none" stroke="#D0D2D3" stroke-width="5" stroke-linecap="round" stroke-linejoin="round" stroke-miterlimit="10" points="
		-2884.5,792 -2677.5,824.436 -2494.297,490.404 	"/>
	
		<polygon fill="none" stroke="#D0D2D3" stroke-width="5" stroke-linecap="round" stroke-linejoin="round" stroke-miterlimit="10" points="
		-2677.5,824.436 -2767.5,891 -2560.5,1323 	"/>
</g>
<g>
	
		<polygon fill="none" stroke="#404041" stroke-width="5" stroke-linecap="round" stroke-linejoin="round" stroke-miterlimit="10" points="
		2673,-567 2649.564,-675 3069,-612 	"/>
	
		<polygon fill="none" stroke="#404041" stroke-width="5" stroke-linecap="round" stroke-linejoin="round" stroke-miterlimit="10" points="
		2406.316,-811.722 2448,-432 2250,-414 	"/>
	
		<polygon fill="none" stroke="#404041" stroke-width="5" stroke-linecap="round" stroke-linejoin="round" stroke-miterlimit="10" points="
		2406.316,-811.722 2151,-558 2250,-414 	"/>
	
		<polygon fill="none" stroke="#6D6E70" stroke-width="5" stroke-linecap="round" stroke-linejoin="round" stroke-miterlimit="10" points="
		2673,-567 2983.598,-491.796 3069,-612 	"/>
	
		<polygon fill="none" stroke="#6D6E70" stroke-width="5" stroke-linecap="round" stroke-linejoin="round" stroke-miterlimit="10" points="
		2649.564,-675 2583,-765 2151,-558 	"/>
	
		<polygon fill="none" stroke="#929497" stroke-width="5" stroke-linecap="round" stroke-linejoin="round" stroke-miterlimit="10" points="
		2673,-567 2448,-432 2649.564,-675 	"/>
	
		<polygon fill="none" stroke="#6D6E70" stroke-width="5" stroke-linecap="round" stroke-linejoin="round" stroke-miterlimit="10" points="
		2649.564,-675 2406.316,-811.722 2583,-765 	"/>
	
		<polygon fill="none" stroke="#D0D2D3" stroke-width="5" stroke-linecap="round" stroke-linejoin="round" stroke-miterlimit="10" points="
		2682,-882 2406.316,-811.722 2493,-954 	"/>
	
		<polygon fill="none" stroke="#6D6E70" stroke-width="5" stroke-linecap="round" stroke-linejoin="round" stroke-miterlimit="10" points="
		2406.316,-811.722 2493,-1314 2493,-954 	"/>
	
		<polygon fill="none" stroke="#D0D2D3" stroke-width="5" stroke-linecap="round" stroke-linejoin="round" stroke-miterlimit="10" points="
		2493,-954 2493,-1314 2682,-882 	"/>
	
		<polygon fill="none" stroke="#929497" stroke-width="5" stroke-linecap="round" stroke-linejoin="round" stroke-miterlimit="10" points="
		2983.598,-491.796 2649.564,-675 2673,-567 	"/>
	
		<polygon fill="none" stroke="#929497" stroke-width="5" stroke-linecap="round" stroke-linejoin="round" stroke-miterlimit="10" points="
		2649.564,-675 2583,-765 2682,-882 	"/>
	
		<polygon fill="none" stroke="#D0D2D3" stroke-width="5" stroke-linecap="round" stroke-linejoin="round" stroke-miterlimit="10" points="
		2682,-882 2649.564,-675 2983.598,-491.796 	"/>
	
		<polygon fill="none" stroke="#D0D2D3" stroke-width="5" stroke-linecap="round" stroke-linejoin="round" stroke-miterlimit="10" points="
		2583,-765 2406.316,-811.722 2682,-882 	"/>
	
		<polygon fill="none" stroke="#D0D2D3" stroke-width="5" stroke-linecap="round" stroke-linejoin="round" stroke-miterlimit="10" points="
		2649.564,-675 2448,-432 2250,-414 	"/>
</g>
<g>
	
		<polygon fill="none" stroke="#6D6E70" stroke-width="5" stroke-linecap="round" stroke-linejoin="round" stroke-miterlimit="10" points="
		-940.5,675 -1039.5,363.303 -886.5,279 	"/>
	
		<polygon fill="none" stroke="#929497" stroke-width="5" stroke-linecap="round" stroke-linejoin="round" stroke-miterlimit="10" points="
		-1039.5,363.303 -886.5,279 -886.5,63 	"/>
	
		<polygon fill="none" stroke="#404041" stroke-width="5" stroke-linecap="round" stroke-linejoin="round" stroke-miterlimit="10" points="
		-1093.5,1098 -949.5,1665 -949.5,1341 	"/>
	
		<polygon fill="none" stroke="#404041" stroke-width="5" stroke-linecap="round" stroke-linejoin="round" stroke-miterlimit="10" points="
		-940.5,675 -832.5,698.436 -886.5,279 	"/>
	
		<polygon fill="none" stroke="#404041" stroke-width="5" stroke-linecap="round" stroke-linejoin="round" stroke-miterlimit="10" points="
		-688.5,942.514 -1138.5,900 -1093.5,1098 	"/>
	
		<polygon fill="none" stroke="#404041" stroke-width="5" stroke-linecap="round" stroke-linejoin="round" stroke-miterlimit="10" points="
		-688.5,942.514 -949.5,1197 -1093.5,1098 	"/>
	
		<polygon fill="none" stroke="#6D6E70" stroke-width="5" stroke-linecap="round" stroke-linejoin="round" stroke-miterlimit="10" points="
		-832.5,698.436 -1138.5,900 -1093.5,1098 	"/>
	
		<polygon fill="none" stroke="#929497" stroke-width="5" stroke-linecap="round" stroke-linejoin="round" stroke-miterlimit="10" points="
		-940.5,675 -1138.5,900 -832.5,698.436 	"/>
	
		<polygon fill="none" stroke="#6D6E70" stroke-width="5" stroke-linecap="round" stroke-linejoin="round" stroke-miterlimit="10" points="
		-832.5,698.436 -688.5,942.514 -742.5,765 	"/>
	
		<polygon fill="none" stroke="#929497" stroke-width="5" stroke-linecap="round" stroke-linejoin="round" stroke-miterlimit="10" points="
		-1039.5,363.303 -832.5,698.436 -940.5,675 	"/>
	
		<polygon fill="none" stroke="#929497" stroke-width="5" stroke-linecap="round" stroke-linejoin="round" stroke-miterlimit="10" points="
		-832.5,698.436 -742.5,765 -625.5,666 	"/>
	
		<polygon fill="none" stroke="#D0D2D3" stroke-width="5" stroke-linecap="round" stroke-linejoin="round" stroke-miterlimit="10" points="
		-625.5,666 -832.5,698.436 -1039.5,363.303 	"/>
	
		<polygon fill="none" stroke="#D0D2D3" stroke-width="5" stroke-linecap="round" stroke-linejoin="round" stroke-miterlimit="10" points="
		-832.5,698.436 -742.5,765 -949.5,1197 	"/>
	
		<polygon fill="none" stroke="#D0D2D3" stroke-width="5" stroke-linecap="round" stroke-linejoin="round" stroke-miterlimit="10" points="
		-949.5,1197 -1093.5,1098 -949.5,1341 	"/>
	
		<polygon fill="none" stroke="#D0D2D3" stroke-width="5" stroke-linecap="round" stroke-linejoin="round" stroke-miterlimit="10" points="
		-886.5,279 -625.5,666 -886.5,63 	"/>
	
		<polygon fill="none" stroke="#D0D2D3" stroke-width="5" stroke-linecap="round" stroke-linejoin="round" stroke-miterlimit="10" points="
		-949.5,1341 -688.5,942.514 -949.5,1665 	"/>
</g>
<g>
	<g>
		
			<polygon fill="none" stroke="#404041" stroke-width="5" stroke-linecap="round" stroke-linejoin="round" stroke-miterlimit="10" points="
			-3060.75,2750.006 -3153.689,2690.211 -2812.555,2438.171 		"/>
		
			<polygon fill="none" stroke="#404041" stroke-width="5" stroke-linecap="round" stroke-linejoin="round" stroke-miterlimit="10" points="
			-3422.368,2765.533 -3079.842,3049.111 -3251.668,3157.299 		"/>
		
			<polygon fill="none" stroke="#404041" stroke-width="5" stroke-linecap="round" stroke-linejoin="round" stroke-miterlimit="10" points="
			-3422.368,2765.533 -3423.495,3125.48 -3251.668,3157.299 		"/>
		
			<polygon fill="none" stroke="#6D6E70" stroke-width="5" stroke-linecap="round" stroke-linejoin="round" stroke-miterlimit="10" points="
			-3060.75,2750.006 -2787.948,2583.558 -2812.555,2438.171 		"/>
		
			<polygon fill="none" stroke="#6D6E70" stroke-width="5" stroke-linecap="round" stroke-linejoin="round" stroke-miterlimit="10" points="
			-3153.689,2690.211 -3079.842,3049.111 -3251.668,3157.299 		"/>
		
			<polygon fill="none" stroke="#929497" stroke-width="5" stroke-linecap="round" stroke-linejoin="round" stroke-miterlimit="10" points="
			-3060.75,2750.006 -3079.842,3049.111 -3153.689,2690.211 		"/>
		
			<polygon fill="none" stroke="#6D6E70" stroke-width="5" stroke-linecap="round" stroke-linejoin="round" stroke-miterlimit="10" points="
			-3153.689,2690.211 -3422.368,2765.533 -3264.396,2673.639 		"/>
		
			<polygon fill="none" stroke="#929497" stroke-width="5" stroke-linecap="round" stroke-linejoin="round" stroke-miterlimit="10" points="
			-2787.948,2583.558 -3153.689,2690.211 -3060.75,2750.006 		"/>
		
			<polygon fill="none" stroke="#929497" stroke-width="5" stroke-linecap="round" stroke-linejoin="round" stroke-miterlimit="10" points="
			-3153.689,2690.211 -3264.396,2673.639 -3277.124,2520.902 		"/>
		
			<polygon fill="none" stroke="#D0D2D3" stroke-width="5" stroke-linecap="round" stroke-linejoin="round" stroke-miterlimit="10" points="
			-3277.124,2520.902 -3153.689,2690.211 -2787.948,2583.558 		"/>
		
			<polygon fill="none" stroke="#D0D2D3" stroke-width="5" stroke-linecap="round" stroke-linejoin="round" stroke-miterlimit="10" points="
			-3153.689,2690.211 -3264.396,2673.639 -3423.495,3125.48 		"/>
	</g>
	<g>
		
			<polygon fill="none" stroke="#404041" stroke-width="5" stroke-linecap="round" stroke-linejoin="round" stroke-miterlimit="10" points="
			-2768.008,3042.748 -2708.212,3135.688 -2456.173,2794.553 		"/>
		
			<polygon fill="none" stroke="#404041" stroke-width="5" stroke-linecap="round" stroke-linejoin="round" stroke-miterlimit="10" points="
			-2783.536,3404.365 -3067.113,3061.84 -3175.3,3233.666 		"/>
		
			<polygon fill="none" stroke="#404041" stroke-width="5" stroke-linecap="round" stroke-linejoin="round" stroke-miterlimit="10" points="
			-2783.536,3404.365 -3143.481,3405.494 -3175.3,3233.666 		"/>
		
			<polygon fill="none" stroke="#6D6E70" stroke-width="5" stroke-linecap="round" stroke-linejoin="round" stroke-miterlimit="10" points="
			-2768.008,3042.748 -2601.559,2769.946 -2456.173,2794.553 		"/>
		
			<polygon fill="none" stroke="#6D6E70" stroke-width="5" stroke-linecap="round" stroke-linejoin="round" stroke-miterlimit="10" points="
			-2708.212,3135.688 -3067.113,3061.84 -3175.3,3233.666 		"/>
		
			<polygon fill="none" stroke="#929497" stroke-width="5" stroke-linecap="round" stroke-linejoin="round" stroke-miterlimit="10" points="
			-2768.008,3042.748 -3067.113,3061.84 -2708.212,3135.688 		"/>
		
			<polygon fill="none" stroke="#6D6E70" stroke-width="5" stroke-linecap="round" stroke-linejoin="round" stroke-miterlimit="10" points="
			-2708.212,3135.688 -2783.536,3404.365 -2691.639,3246.395 		"/>
		
			<polygon fill="none" stroke="#929497" stroke-width="5" stroke-linecap="round" stroke-linejoin="round" stroke-miterlimit="10" points="
			-2601.559,2769.946 -2708.212,3135.688 -2768.008,3042.748 		"/>
		
			<polygon fill="none" stroke="#929497" stroke-width="5" stroke-linecap="round" stroke-linejoin="round" stroke-miterlimit="10" points="
			-2708.212,3135.688 -2691.639,3246.395 -2538.905,3259.123 		"/>
		
			<polygon fill="none" stroke="#D0D2D3" stroke-width="5" stroke-linecap="round" stroke-linejoin="round" stroke-miterlimit="10" points="
			-2538.905,3259.123 -2708.212,3135.688 -2601.559,2769.946 		"/>
		
			<polygon fill="none" stroke="#D0D2D3" stroke-width="5" stroke-linecap="round" stroke-linejoin="round" stroke-miterlimit="10" points="
			-2708.212,3135.688 -2691.639,3246.395 -3143.481,3405.494 		"/>
	</g>
	<g>
		
			<polygon fill="none" stroke="#404041" stroke-width="5" stroke-linecap="round" stroke-linejoin="round" stroke-miterlimit="10" points="
			-2487.993,2177.25 -2547.788,2084.311 -2799.827,2425.443 		"/>
		
			<polygon fill="none" stroke="#404041" stroke-width="5" stroke-linecap="round" stroke-linejoin="round" stroke-miterlimit="10" points="
			-2472.464,1815.63 -2188.887,2158.157 -2080.699,1986.33 		"/>
		
			<polygon fill="none" stroke="#404041" stroke-width="5" stroke-linecap="round" stroke-linejoin="round" stroke-miterlimit="10" points="
			-2472.464,1815.63 -2112.52,1814.504 -2080.699,1986.33 		"/>
		
			<polygon fill="none" stroke="#6D6E70" stroke-width="5" stroke-linecap="round" stroke-linejoin="round" stroke-miterlimit="10" points="
			-2487.993,2177.25 -2654.44,2450.05 -2799.827,2425.443 		"/>
		
			<polygon fill="none" stroke="#6D6E70" stroke-width="5" stroke-linecap="round" stroke-linejoin="round" stroke-miterlimit="10" points="
			-2547.788,2084.311 -2188.887,2158.157 -2080.699,1986.33 		"/>
		
			<polygon fill="none" stroke="#929497" stroke-width="5" stroke-linecap="round" stroke-linejoin="round" stroke-miterlimit="10" points="
			-2487.993,2177.25 -2188.887,2158.157 -2547.788,2084.311 		"/>
		
			<polygon fill="none" stroke="#6D6E70" stroke-width="5" stroke-linecap="round" stroke-linejoin="round" stroke-miterlimit="10" points="
			-2547.788,2084.311 -2472.464,1815.63 -2564.36,1973.602 		"/>
		
			<polygon fill="none" stroke="#929497" stroke-width="5" stroke-linecap="round" stroke-linejoin="round" stroke-miterlimit="10" points="
			-2654.44,2450.05 -2547.788,2084.311 -2487.993,2177.25 		"/>
		
			<polygon fill="none" stroke="#929497" stroke-width="5" stroke-linecap="round" stroke-linejoin="round" stroke-miterlimit="10" points="
			-2547.788,2084.311 -2564.36,1973.602 -2717.096,1960.875 		"/>
		
			<polygon fill="none" stroke="#D0D2D3" stroke-width="5" stroke-linecap="round" stroke-linejoin="round" stroke-miterlimit="10" points="
			-2717.096,1960.875 -2547.788,2084.311 -2654.44,2450.05 		"/>
		
			<polygon fill="none" stroke="#D0D2D3" stroke-width="5" stroke-linecap="round" stroke-linejoin="round" stroke-miterlimit="10" points="
			-2547.788,2084.311 -2564.36,1973.602 -2112.52,1814.504 		"/>
	</g>
	<g>
		
			<polygon fill="none" stroke="#404041" stroke-width="5" stroke-linecap="round" stroke-linejoin="round" stroke-miterlimit="10" points="
			-2195.251,2469.992 -2102.312,2529.787 -2443.445,2781.826 		"/>
		
			<polygon fill="none" stroke="#404041" stroke-width="5" stroke-linecap="round" stroke-linejoin="round" stroke-miterlimit="10" points="
			-1833.633,2454.463 -2176.159,2170.886 -2004.332,2062.697 		"/>
		
			<polygon fill="none" stroke="#404041" stroke-width="5" stroke-linecap="round" stroke-linejoin="round" stroke-miterlimit="10" points="
			-1833.633,2454.463 -1832.504,2094.518 -2004.332,2062.697 		"/>
		
			<polygon fill="none" stroke="#6D6E70" stroke-width="5" stroke-linecap="round" stroke-linejoin="round" stroke-miterlimit="10" points="
			-2195.251,2469.992 -2468.051,2636.438 -2443.445,2781.826 		"/>
		
			<polygon fill="none" stroke="#6D6E70" stroke-width="5" stroke-linecap="round" stroke-linejoin="round" stroke-miterlimit="10" points="
			-2102.312,2529.787 -2176.159,2170.886 -2004.332,2062.697 		"/>
		
			<polygon fill="none" stroke="#929497" stroke-width="5" stroke-linecap="round" stroke-linejoin="round" stroke-miterlimit="10" points="
			-2195.251,2469.992 -2176.159,2170.886 -2102.312,2529.787 		"/>
		
			<polygon fill="none" stroke="#6D6E70" stroke-width="5" stroke-linecap="round" stroke-linejoin="round" stroke-miterlimit="10" points="
			-2102.312,2529.787 -1833.633,2454.463 -1991.604,2546.359 		"/>
		
			<polygon fill="none" stroke="#929497" stroke-width="5" stroke-linecap="round" stroke-linejoin="round" stroke-miterlimit="10" points="
			-2468.051,2636.438 -2102.312,2529.787 -2195.251,2469.992 		"/>
		
			<polygon fill="none" stroke="#929497" stroke-width="5" stroke-linecap="round" stroke-linejoin="round" stroke-miterlimit="10" points="
			-2102.312,2529.787 -1991.604,2546.359 -1978.875,2699.094 		"/>
		
			<polygon fill="none" stroke="#D0D2D3" stroke-width="5" stroke-linecap="round" stroke-linejoin="round" stroke-miterlimit="10" points="
			-1978.875,2699.094 -2102.312,2529.787 -2468.051,2636.438 		"/>
		
			<polygon fill="none" stroke="#D0D2D3" stroke-width="5" stroke-linecap="round" stroke-linejoin="round" stroke-miterlimit="10" points="
			-2102.312,2529.787 -1991.604,2546.359 -1832.504,2094.518 		"/>
	</g>
</g>
<g>
	<g>
		
			<polygon fill="none" stroke="#404041" stroke-width="5" stroke-linecap="round" stroke-linejoin="round" stroke-miterlimit="10" points="
			-741.993,2559.087 -682.197,2466.147 -430.159,2807.282 		"/>
		
			<polygon fill="none" stroke="#404041" stroke-width="5" stroke-linecap="round" stroke-linejoin="round" stroke-miterlimit="10" points="
			-757.521,2197.468 -996.552,2495.448 -1149.287,2368.169 		"/>
		
			<polygon fill="none" stroke="#404041" stroke-width="5" stroke-linecap="round" stroke-linejoin="round" stroke-miterlimit="10" points="
			-757.521,2197.468 -1117.467,2196.341 -1149.287,2368.169 		"/>
		
			<polygon fill="none" stroke="#6D6E70" stroke-width="5" stroke-linecap="round" stroke-linejoin="round" stroke-miterlimit="10" points="
			-741.993,2559.087 -575.545,2831.89 -430.159,2807.282 		"/>
		
			<polygon fill="none" stroke="#6D6E70" stroke-width="5" stroke-linecap="round" stroke-linejoin="round" stroke-miterlimit="10" points="
			-682.197,2466.147 -665.626,2355.44 -1117.467,2196.341 		"/>
		
			<polygon fill="none" stroke="#929497" stroke-width="5" stroke-linecap="round" stroke-linejoin="round" stroke-miterlimit="10" points="
			-741.993,2559.087 -996.552,2495.448 -682.197,2466.147 		"/>
		
			<polygon fill="none" stroke="#6D6E70" stroke-width="5" stroke-linecap="round" stroke-linejoin="round" stroke-miterlimit="10" points="
			-682.197,2466.147 -757.521,2197.468 -665.626,2355.44 		"/>
		
			<polygon fill="none" stroke="#D0D2D3" stroke-width="5" stroke-linecap="round" stroke-linejoin="round" stroke-miterlimit="10" points="
			-512.891,2342.712 -757.521,2197.468 -595.622,2158.157 		"/>
		
			<polygon fill="none" stroke="#6D6E70" stroke-width="5" stroke-linecap="round" stroke-linejoin="round" stroke-miterlimit="10" points="
			-757.521,2197.468 -341.063,1903.599 -595.622,2158.157 		"/>
		
			<polygon fill="none" stroke="#D0D2D3" stroke-width="5" stroke-linecap="round" stroke-linejoin="round" stroke-miterlimit="10" points="
			-595.622,2158.157 -341.063,1903.599 -512.891,2342.712 		"/>
		
			<polygon fill="none" stroke="#929497" stroke-width="5" stroke-linecap="round" stroke-linejoin="round" stroke-miterlimit="10" points="
			-575.545,2831.89 -682.197,2466.147 -741.993,2559.087 		"/>
		
			<polygon fill="none" stroke="#929497" stroke-width="5" stroke-linecap="round" stroke-linejoin="round" stroke-miterlimit="10" points="
			-682.197,2466.147 -665.626,2355.44 -512.891,2342.712 		"/>
		
			<polygon fill="none" stroke="#D0D2D3" stroke-width="5" stroke-linecap="round" stroke-linejoin="round" stroke-miterlimit="10" points="
			-512.891,2342.712 -682.197,2466.147 -575.545,2831.89 		"/>
		
			<polygon fill="none" stroke="#D0D2D3" stroke-width="5" stroke-linecap="round" stroke-linejoin="round" stroke-miterlimit="10" points="
			-665.626,2355.44 -757.521,2197.468 -512.891,2342.712 		"/>
		
			<polygon fill="none" stroke="#D0D2D3" stroke-width="5" stroke-linecap="round" stroke-linejoin="round" stroke-miterlimit="10" points="
			-682.197,2466.147 -996.552,2495.448 -1149.287,2368.169 		"/>
	</g>
	<g>
		
			<polygon fill="none" stroke="#404041" stroke-width="5" stroke-linecap="round" stroke-linejoin="round" stroke-miterlimit="10" points="
			-1022.008,2660.911 -1081.804,2753.851 -1333.842,2412.716 		"/>
		
			<polygon fill="none" stroke="#404041" stroke-width="5" stroke-linecap="round" stroke-linejoin="round" stroke-miterlimit="10" points="
			-1006.478,3022.528 -767.449,2724.55 -614.714,2851.829 		"/>
		
			<polygon fill="none" stroke="#404041" stroke-width="5" stroke-linecap="round" stroke-linejoin="round" stroke-miterlimit="10" points="
			-1006.478,3022.528 -646.534,3023.657 -614.714,2851.829 		"/>
		
			<polygon fill="none" stroke="#6D6E70" stroke-width="5" stroke-linecap="round" stroke-linejoin="round" stroke-miterlimit="10" points="
			-1022.008,2660.911 -1188.455,2388.11 -1333.842,2412.716 		"/>
		
			<polygon fill="none" stroke="#6D6E70" stroke-width="5" stroke-linecap="round" stroke-linejoin="round" stroke-miterlimit="10" points="
			-1081.804,2753.851 -1098.375,2864.558 -646.534,3023.657 		"/>
		
			<polygon fill="none" stroke="#929497" stroke-width="5" stroke-linecap="round" stroke-linejoin="round" stroke-miterlimit="10" points="
			-1022.008,2660.911 -767.449,2724.55 -1081.804,2753.851 		"/>
		
			<polygon fill="none" stroke="#6D6E70" stroke-width="5" stroke-linecap="round" stroke-linejoin="round" stroke-miterlimit="10" points="
			-1081.804,2753.851 -1006.478,3022.528 -1098.375,2864.558 		"/>
		
			<polygon fill="none" stroke="#D0D2D3" stroke-width="5" stroke-linecap="round" stroke-linejoin="round" stroke-miterlimit="10" points="
			-1251.11,2877.286 -1006.478,3022.528 -1168.378,3061.839 		"/>
		
			<polygon fill="none" stroke="#6D6E70" stroke-width="5" stroke-linecap="round" stroke-linejoin="round" stroke-miterlimit="10" points="
			-1006.478,3022.528 -1422.937,3316.399 -1168.379,3061.841 		"/>
		
			<polygon fill="none" stroke="#D0D2D3" stroke-width="5" stroke-linecap="round" stroke-linejoin="round" stroke-miterlimit="10" points="
			-1168.379,3061.841 -1422.937,3316.399 -1251.11,2877.286 		"/>
		
			<polygon fill="none" stroke="#929497" stroke-width="5" stroke-linecap="round" stroke-linejoin="round" stroke-miterlimit="10" points="
			-1188.455,2388.11 -1081.804,2753.851 -1022.008,2660.911 		"/>
		
			<polygon fill="none" stroke="#929497" stroke-width="5" stroke-linecap="round" stroke-linejoin="round" stroke-miterlimit="10" points="
			-1081.804,2753.851 -1098.375,2864.558 -1251.11,2877.286 		"/>
		
			<polygon fill="none" stroke="#D0D2D3" stroke-width="5" stroke-linecap="round" stroke-linejoin="round" stroke-miterlimit="10" points="
			-1251.11,2877.286 -1081.804,2753.851 -1188.455,2388.11 		"/>
		
			<polygon fill="none" stroke="#D0D2D3" stroke-width="5" stroke-linecap="round" stroke-linejoin="round" stroke-miterlimit="10" points="
			-1098.375,2864.558 -1006.478,3022.528 -1251.11,2877.286 		"/>
		
			<polygon fill="none" stroke="#D0D2D3" stroke-width="5" stroke-linecap="round" stroke-linejoin="round" stroke-miterlimit="10" points="
			-1081.804,2753.851 -767.449,2724.55 -614.714,2851.829 		"/>
	</g>
</g>
<g>
	<g>
		
			<polygon fill="none" stroke="#404041" stroke-width="5" stroke-linecap="round" stroke-linejoin="round" stroke-miterlimit="10" points="
			459.938,2228.284 857.051,2534.554 614.104,2585.669 		"/>
		
			<polygon fill="none" stroke="#404041" stroke-width="5" stroke-linecap="round" stroke-linejoin="round" stroke-miterlimit="10" points="
			465.783,2228.284 489.422,2586.599 619.947,2585.669 		"/>
		
			<polygon fill="none" stroke="#6D6E70" stroke-width="5" stroke-linecap="round" stroke-linejoin="round" stroke-miterlimit="10" points="
			853.895,2222.458 1100.201,2046.306 1255.5,2080.825 		"/>
		
			<polygon fill="none" stroke="#6D6E70" stroke-width="5" stroke-linecap="round" stroke-linejoin="round" stroke-miterlimit="10" points="
			746.902,2150.827 857.051,2534.554 614.104,2585.669 		"/>
		
			<polygon fill="none" stroke="#6D6E70" stroke-width="5" stroke-linecap="round" stroke-linejoin="round" stroke-miterlimit="10" points="
			752.746,2150.827 624.113,2148.78 489.422,2586.599 		"/>
		
			<polygon fill="none" stroke="#D0D2D3" stroke-width="5" stroke-linecap="round" stroke-linejoin="round" stroke-miterlimit="10" points="
			1100.201,2046.306 752.746,2150.827 853.895,2222.458 		"/>
		
			<polygon fill="none" stroke="#929497" stroke-width="5" stroke-linecap="round" stroke-linejoin="round" stroke-miterlimit="10" points="
			848.051,2222.458 857.051,2534.554 746.902,2150.827 		"/>
		
			<polygon fill="none" stroke="#6D6E70" stroke-width="5" stroke-linecap="round" stroke-linejoin="round" stroke-miterlimit="10" points="
			752.746,2150.827 465.783,2228.284 624.113,2148.78 		"/>
		
			<polygon fill="none" stroke="#D0D2D3" stroke-width="5" stroke-linecap="round" stroke-linejoin="round" stroke-miterlimit="10" points="
			752.746,2150.827 624.113,2148.78 192.719,1794.446 		"/>
		
			<polygon fill="none" stroke="#D0D2D3" stroke-width="5" stroke-linecap="round" stroke-linejoin="round" stroke-miterlimit="10" points="
			624.113,2148.78 465.783,2228.284 192.719,1794.446 		"/>
		
			<polygon fill="none" stroke="#404041" stroke-width="5" stroke-linecap="round" stroke-linejoin="round" stroke-miterlimit="10" points="
			418.787,2990.019 439.51,3113.19 650.924,2850.864 		"/>
		
			<polygon fill="none" stroke="#6D6E70" stroke-width="5" stroke-linecap="round" stroke-linejoin="round" stroke-miterlimit="10" points="
			650.924,2850.864 558.076,2797.778 418.787,2990.019 		"/>
		
			<polygon fill="none" stroke="#929497" stroke-width="5" stroke-linecap="round" stroke-linejoin="round" stroke-miterlimit="10" points="
			619.947,2585.669 558.076,2797.778 650.924,2850.864 		"/>
		
			<polygon fill="none" stroke="#D0D2D3" stroke-width="5" stroke-linecap="round" stroke-linejoin="round" stroke-miterlimit="10" points="
			489.422,2586.599 558.076,2797.778 619.947,2585.669 		"/>
	</g>
	<g>
		
			<polygon fill="none" stroke="#404041" stroke-width="5" stroke-linecap="round" stroke-linejoin="round" stroke-miterlimit="10" points="
			1268.063,2991.716 870.949,2685.446 1113.896,2634.329 		"/>
		
			<polygon fill="none" stroke="#404041" stroke-width="5" stroke-linecap="round" stroke-linejoin="round" stroke-miterlimit="10" points="
			1262.219,2991.716 1238.58,2633.401 1108.053,2634.329 		"/>
		
			<polygon fill="none" stroke="#6D6E70" stroke-width="5" stroke-linecap="round" stroke-linejoin="round" stroke-miterlimit="10" points="
			874.105,2997.542 627.797,3173.692 472.5,3139.175 		"/>
		
			<polygon fill="none" stroke="#6D6E70" stroke-width="5" stroke-linecap="round" stroke-linejoin="round" stroke-miterlimit="10" points="
			981.098,3069.171 870.949,2685.446 1113.896,2634.329 		"/>
		
			<polygon fill="none" stroke="#6D6E70" stroke-width="5" stroke-linecap="round" stroke-linejoin="round" stroke-miterlimit="10" points="
			975.254,3069.171 1103.887,3071.218 1238.58,2633.401 		"/>
		
			<polygon fill="none" stroke="#D0D2D3" stroke-width="5" stroke-linecap="round" stroke-linejoin="round" stroke-miterlimit="10" points="
			627.797,3173.692 975.254,3069.171 874.105,2997.542 		"/>
		
			<polygon fill="none" stroke="#929497" stroke-width="5" stroke-linecap="round" stroke-linejoin="round" stroke-miterlimit="10" points="
			879.949,2997.542 870.949,2685.446 981.098,3069.171 		"/>
		
			<polygon fill="none" stroke="#6D6E70" stroke-width="5" stroke-linecap="round" stroke-linejoin="round" stroke-miterlimit="10" points="
			975.254,3069.171 1262.219,2991.716 1103.887,3071.218 		"/>
		
			<polygon fill="none" stroke="#D0D2D3" stroke-width="5" stroke-linecap="round" stroke-linejoin="round" stroke-miterlimit="10" points="
			975.254,3069.171 1103.887,3071.218 1535.281,3425.554 		"/>
		
			<polygon fill="none" stroke="#D0D2D3" stroke-width="5" stroke-linecap="round" stroke-linejoin="round" stroke-miterlimit="10" points="
			1103.887,3071.218 1262.219,2991.716 1535.281,3425.554 		"/>
		
			<polygon fill="none" stroke="#404041" stroke-width="5" stroke-linecap="round" stroke-linejoin="round" stroke-miterlimit="10" points="
			1309.213,2229.979 1288.492,2106.81 1077.076,2369.136 		"/>
		
			<polygon fill="none" stroke="#6D6E70" stroke-width="5" stroke-linecap="round" stroke-linejoin="round" stroke-miterlimit="10" points="
			1077.076,2369.136 1169.926,2422.22 1309.213,2229.979 		"/>
		
			<polygon fill="none" stroke="#929497" stroke-width="5" stroke-linecap="round" stroke-linejoin="round" stroke-miterlimit="10" points="
			1108.053,2634.329 1169.926,2422.22 1077.076,2369.136 		"/>
		
			<polygon fill="none" stroke="#D0D2D3" stroke-width="5" stroke-linecap="round" stroke-linejoin="round" stroke-miterlimit="10" points="
			1238.58,2633.401 1169.926,2422.22 1108.053,2634.329 		"/>
	</g>
</g>
<g>
	<g>
		
			<polygon fill="none" stroke="#404041" stroke-width="5" stroke-linecap="round" stroke-linejoin="round" stroke-miterlimit="10" points="
			3084.592,2537.483 3045.924,2159.483 3219.145,2159.483 		"/>
		
			<polygon fill="none" stroke="#404041" stroke-width="5" stroke-linecap="round" stroke-linejoin="round" stroke-miterlimit="10" points="
			3084.592,2537.483 3312.275,2260.108 3219.145,2159.483 		"/>
		
			<polygon fill="none" stroke="#6D6E70" stroke-width="5" stroke-linecap="round" stroke-linejoin="round" stroke-miterlimit="10" points="
			2832.592,2394.454 3045.924,2159.483 3219.145,2159.483 		"/>
		
			<polygon fill="none" stroke="#6D6E70" stroke-width="5" stroke-linecap="round" stroke-linejoin="round" stroke-miterlimit="10" points="
			2832.592,2394.454 2904.592,2492.483 3312.275,2260.108 		"/>
		
			<polygon fill="none" stroke="#929497" stroke-width="5" stroke-linecap="round" stroke-linejoin="round" stroke-miterlimit="10" points="
			2781.275,2285.483 3045.924,2159.483 2832.592,2394.454 		"/>
		
			<polygon fill="none" stroke="#6D6E70" stroke-width="5" stroke-linecap="round" stroke-linejoin="round" stroke-miterlimit="10" points="
			2832.592,2394.454 3084.592,2537.483 2904.592,2492.483 		"/>
		
			<polygon fill="none" stroke="#6D6E70" stroke-width="5" stroke-linecap="round" stroke-linejoin="round" stroke-miterlimit="10" points="
			3084.592,2537.483 3156.592,2645.483 3312.275,2260.108 		"/>
		
			<polygon fill="none" stroke="#D0D2D3" stroke-width="5" stroke-linecap="round" stroke-linejoin="round" stroke-miterlimit="10" points="
			2904.592,2492.483 2781.275,2645.483 3084.592,2537.483 		"/>
		
			<polygon fill="none" stroke="#D0D2D3" stroke-width="5" stroke-linecap="round" stroke-linejoin="round" stroke-miterlimit="10" points="
			2781.275,2645.483 3156.592,2645.483 3012.592,2789.483 		"/>
		
			<polygon fill="none" stroke="#404041" stroke-width="5" stroke-linecap="round" stroke-linejoin="round" stroke-miterlimit="10" points="
			3045.924,2159.483 3219.145,2159.483 3156.592,1853.483 		"/>
		
			<polygon fill="none" stroke="#6D6E70" stroke-width="5" stroke-linecap="round" stroke-linejoin="round" stroke-miterlimit="10" points="
			3312.275,2260.108 3156.592,1853.483 3219.145,2159.483 		"/>
		
			<polygon fill="none" stroke="#6D6E70" stroke-width="5" stroke-linecap="round" stroke-linejoin="round" stroke-miterlimit="10" points="
			3156.592,1853.483 3045.924,2159.483 2781.275,2285.483 		"/>
		
			<polygon fill="none" stroke="#D0D2D3" stroke-width="5" stroke-linecap="round" stroke-linejoin="round" stroke-miterlimit="10" points="
			2904.592,2492.483 3312.275,2260.108 3012.592,2789.483 		"/>
	</g>
	<g>
		
			<polygon fill="none" stroke="#404041" stroke-width="5" stroke-linecap="round" stroke-linejoin="round" stroke-miterlimit="10" points="
			2536.086,2436.804 2228.063,2659.29 2141.453,2509.278 		"/>
		
			<polygon fill="none" stroke="#404041" stroke-width="5" stroke-linecap="round" stroke-linejoin="round" stroke-miterlimit="10" points="
			2536.086,2436.804 2182.031,2378.312 2141.453,2509.278 		"/>
		
			<polygon fill="none" stroke="#6D6E70" stroke-width="5" stroke-linecap="round" stroke-linejoin="round" stroke-miterlimit="10" points="
			2538.221,2726.556 2228.063,2659.29 2141.453,2509.278 		"/>
		
			<polygon fill="none" stroke="#6D6E70" stroke-width="5" stroke-linecap="round" stroke-linejoin="round" stroke-miterlimit="10" points="
			2538.221,2726.556 2587.115,2615.188 2182.031,2378.312 		"/>
		
			<polygon fill="none" stroke="#929497" stroke-width="5" stroke-linecap="round" stroke-linejoin="round" stroke-miterlimit="10" points="
			2469.506,2825.483 2228.063,2659.29 2538.221,2726.556 		"/>
		
			<polygon fill="none" stroke="#6D6E70" stroke-width="5" stroke-linecap="round" stroke-linejoin="round" stroke-miterlimit="10" points="
			2538.221,2726.556 2536.086,2436.804 2587.115,2615.188 		"/>
		
			<polygon fill="none" stroke="#6D6E70" stroke-width="5" stroke-linecap="round" stroke-linejoin="round" stroke-miterlimit="10" points="
			2536.086,2436.804 2593.617,2320.45 2182.031,2378.312 		"/>
		
			<polygon fill="none" stroke="#D0D2D3" stroke-width="5" stroke-linecap="round" stroke-linejoin="round" stroke-miterlimit="10" points="
			2587.115,2615.188 2781.275,2645.483 2536.086,2436.804 		"/>
		
			<polygon fill="none" stroke="#D0D2D3" stroke-width="5" stroke-linecap="round" stroke-linejoin="round" stroke-miterlimit="10" points="
			2781.275,2645.483 2593.617,2320.45 2790.324,2373.157 		"/>
		
			<polygon fill="none" stroke="#404041" stroke-width="5" stroke-linecap="round" stroke-linejoin="round" stroke-miterlimit="10" points="
			2228.063,2659.29 2141.453,2509.278 1907.725,2716.45 		"/>
		
			<polygon fill="none" stroke="#6D6E70" stroke-width="5" stroke-linecap="round" stroke-linejoin="round" stroke-miterlimit="10" points="
			2182.031,2378.312 1907.725,2716.45 2141.453,2509.278 		"/>
		
			<polygon fill="none" stroke="#6D6E70" stroke-width="5" stroke-linecap="round" stroke-linejoin="round" stroke-miterlimit="10" points="
			1907.725,2716.45 2228.063,2659.29 2469.506,2825.483 		"/>
		
			<polygon fill="none" stroke="#D0D2D3" stroke-width="5" stroke-linecap="round" stroke-linejoin="round" stroke-miterlimit="10" points="
			2587.115,2615.188 2182.031,2378.312 2790.324,2373.157 		"/>
	</g>
	<g>
		
			<polygon fill="none" stroke="#404041" stroke-width="5" stroke-linecap="round" stroke-linejoin="round" stroke-miterlimit="10" points="
			2723.146,2962.163 3069.838,3117.675 2983.229,3267.688 		"/>
		
			<polygon fill="none" stroke="#404041" stroke-width="5" stroke-linecap="round" stroke-linejoin="round" stroke-miterlimit="10" points="
			2723.146,2962.163 2849.52,3298.03 2983.229,3267.688 		"/>
		
			<polygon fill="none" stroke="#6D6E70" stroke-width="5" stroke-linecap="round" stroke-linejoin="round" stroke-miterlimit="10" points="
			2973.014,2815.438 3069.838,3117.675 2983.229,3267.688 		"/>
		
			<polygon fill="none" stroke="#6D6E70" stroke-width="5" stroke-linecap="round" stroke-linejoin="round" stroke-miterlimit="10" points="
			2973.014,2815.438 2852.119,2828.778 2849.52,3298.03 		"/>
		
			<polygon fill="none" stroke="#929497" stroke-width="5" stroke-linecap="round" stroke-linejoin="round" stroke-miterlimit="10" points="
			3093.043,2825.483 3069.838,3117.675 2973.014,2815.438 		"/>
		
			<polygon fill="none" stroke="#6D6E70" stroke-width="5" stroke-linecap="round" stroke-linejoin="round" stroke-miterlimit="10" points="
			2973.014,2815.438 2723.146,2962.163 2852.119,2828.778 		"/>
		
			<polygon fill="none" stroke="#6D6E70" stroke-width="5" stroke-linecap="round" stroke-linejoin="round" stroke-miterlimit="10" points="
			2723.146,2962.163 2593.617,2970.517 2849.52,3298.03 		"/>
		
			<polygon fill="none" stroke="#D0D2D3" stroke-width="5" stroke-linecap="round" stroke-linejoin="round" stroke-miterlimit="10" points="
			2852.119,2828.778 2781.275,2645.483 2723.146,2962.163 		"/>
		
			<polygon fill="none" stroke="#D0D2D3" stroke-width="5" stroke-linecap="round" stroke-linejoin="round" stroke-miterlimit="10" points="
			2781.275,2645.483 2593.617,2970.517 2540.91,2773.808 		"/>
		
			<polygon fill="none" stroke="#404041" stroke-width="5" stroke-linecap="round" stroke-linejoin="round" stroke-miterlimit="10" points="
			3069.838,3117.675 2983.229,3267.688 3279.51,3366.517 		"/>
		
			<polygon fill="none" stroke="#6D6E70" stroke-width="5" stroke-linecap="round" stroke-linejoin="round" stroke-miterlimit="10" points="
			2849.52,3298.03 3279.51,3366.517 2983.229,3267.688 		"/>
		
			<polygon fill="none" stroke="#6D6E70" stroke-width="5" stroke-linecap="round" stroke-linejoin="round" stroke-miterlimit="10" points="
			3279.51,3366.517 3069.838,3117.675 3093.043,2825.483 		"/>
		
			<polygon fill="none" stroke="#D0D2D3" stroke-width="5" stroke-linecap="round" stroke-linejoin="round" stroke-miterlimit="10" points="
			2852.119,2828.778 2849.52,3298.03 2540.91,2773.808 		"/>
	</g>
</g>
<g>
	
		<polygon fill="none" stroke="#404041" stroke-width="5" stroke-linecap="round" stroke-linejoin="round" stroke-miterlimit="10" points="
		774,985.5 234,571.5 900,760.5 	"/>
	
		<polygon fill="none" stroke="#404041" stroke-width="5" stroke-linecap="round" stroke-linejoin="round" stroke-miterlimit="10" points="
		774,985.5 900,760.5 1494,841.5 	"/>
	
		<polygon fill="none" stroke="#404041" stroke-width="5" stroke-linecap="round" stroke-linejoin="round" stroke-miterlimit="10" points="
		774,985.5 1215,1291.5 603,1021.5 	"/>
	
		<polygon fill="none" stroke="#6D6E70" stroke-width="5" stroke-linecap="round" stroke-linejoin="round" stroke-miterlimit="10" points="
		801,679.5 630,814.5 603,1021.5 774,985.5 900,760.5 	"/>
	
		<polygon fill="none" stroke="#929497" stroke-width="5" stroke-linecap="round" stroke-linejoin="round" stroke-miterlimit="10" points="
		900,760.5 801,679.5 1077.195,436.5 	"/>
	
		<polygon fill="none" stroke="#D0D2D3" stroke-width="5" stroke-linecap="round" stroke-linejoin="round" stroke-miterlimit="10" points="
		1215,1291.5 1494,841.5 1077.195,436.5 	"/>
	
		<polygon fill="none" stroke="#929497" stroke-width="5" stroke-linecap="round" stroke-linejoin="round" stroke-miterlimit="10" points="
		603,1021.5 630,814.5 369,994.5 	"/>
	
		<polygon fill="none" stroke="#929497" stroke-width="5" stroke-linecap="round" stroke-linejoin="round" stroke-miterlimit="10" points="
		369,994.5 801,490.5 234,571.5 	"/>
	
		<polygon fill="none" stroke="#D0D2D3" stroke-width="5" stroke-linecap="round" stroke-linejoin="round" stroke-miterlimit="10" points="
		630,814.5 801,679.5 801,490.5 	"/>
</g>
</svg>
