<?xml version="1.0" encoding="utf-8"?>
<!-- Generator: Adobe Illustrator 15.0.0, SVG Export Plug-In . SVG Version: 6.00 Build 0)  -->
<!DOCTYPE svg PUBLIC "-//W3C//DTD SVG 1.1//EN" "http://www.w3.org/Graphics/SVG/1.1/DTD/svg11.dtd">
<svg version="1.1" id="Layer_1" xmlns="http://www.w3.org/2000/svg" xmlns:xlink="http://www.w3.org/1999/xlink" x="0px" y="0px"
	 width="648px" height="648px" viewBox="0 0 648 648" enable-background="new 0 0 648 648" xml:space="preserve">
<rect fill="#FFFFFF" width="648" height="648"/>
<path fill="#FBB040" d="M648,0"/>
<polygon fill="#FFE600" points="0,0 648,0 0,130.474 "/>
<polygon fill="#FF6E00" points="648,648 648,0 508.5,648 "/>
<polygon fill="#FF8C00" points="378,648 648,0 238.5,648 "/>
<polygon fill="#FFC800" points="0,245.313 648,0 0,371.287 "/>
<polygon fill="#FFAA00" points="0,486.026 648,0 0,634.5 "/>
<polygon opacity="0.6" fill="#FFE100" points="648,0 414,207 382.5,211.5 391.5,171 "/>
<polygon opacity="0.5" fill="#EC008C" stroke="#BE1E2D" stroke-linecap="round" stroke-linejoin="round" stroke-miterlimit="10" points="
	391.5,139.5 382.5,144 337.5,256.5 378,274.5 418.5,256.5 445.5,216 "/>
<polygon opacity="0.6" fill="#FFC800" points="405,175.5 648,648 180,648 "/>
<polygon fill="none" stroke="#939598" stroke-linecap="round" stroke-linejoin="round" stroke-miterlimit="10" points="112.5,256.5 
	112.5,184.5 108,166.5 112.5,148.5 157.5,99 198,72 202.5,81 198,94.5 171,121.5 153,153 153,211.5 139.5,252 121.5,261 "/>
<polygon fill="none" stroke="#939598" stroke-linecap="round" stroke-linejoin="round" stroke-miterlimit="10" points="90,409.5 
	108,234 130.5,198 193.5,121.5 225,121.5 283.5,193.5 306,265.5 292.5,270 270,252 256.5,211.5 207,175.5 166.5,225 108,400.5 "/>
<polygon fill="none" stroke="#939598" stroke-linecap="round" stroke-linejoin="round" stroke-miterlimit="10" points="99,396 
	135,216 162,193.5 238.5,112.5 252,108 337.5,162 342,216 324,220.5 306,198 297,180 256.5,171 207,216 121.5,391.5 "/>
<polygon fill="none" stroke="#1C75BC" stroke-linecap="round" stroke-linejoin="round" stroke-miterlimit="10" points="187,413 
	162,486 265.5,427.5 265.5,391.5 "/>
<polygon fill="none" stroke="#27AAE1" stroke-linecap="round" stroke-linejoin="round" stroke-miterlimit="10" points="211.5,261 
	162,414 252,369 "/>
<polygon fill="none" stroke="#00A79D" stroke-linecap="round" stroke-linejoin="round" stroke-miterlimit="10" points="193.5,351 
	166.5,445.5 103.5,459 "/>
<circle fill="none" stroke="#39B54A" stroke-linecap="round" stroke-linejoin="round" stroke-miterlimit="10" cx="319.5" cy="360" r="18"/>
<circle fill="none" stroke="#8DC63F" stroke-linecap="round" stroke-linejoin="round" stroke-miterlimit="10" cx="328.5" cy="378" r="13.5"/>
<circle fill="none" stroke="#EC008C" stroke-linecap="round" stroke-linejoin="round" stroke-miterlimit="10" cx="369" cy="405" r="90"/>
<circle fill="none" stroke="#D7DF23" stroke-linecap="round" stroke-linejoin="round" stroke-miterlimit="10" cx="189" cy="220.5" r="22.5"/>
<polygon fill="none" stroke="#939598" stroke-linecap="round" stroke-linejoin="round" stroke-miterlimit="10" points="145,648 
	207,481.5 207,472.5 283.5,427.5 310.5,400.5 337.5,382.5 351,351 409.5,292.5 432,256.5 423,243 405,243 360,265.5 342,291.682 
	292.5,333 279,333 270,319.5 243,297 238.5,283.5 261,220.5 306,162 355.5,148.5 382.5,157.5 414,144 414,130.5 364.5,108 
	292.5,117 279,117 261,126 193.5,207 180,216 171,247.5 0,539 0,648 "/>
</svg>
