<?xml version="1.0" encoding="utf-8"?>
<!-- Generator: Adobe Illustrator 15.0.0, SVG Export Plug-In . SVG Version: 6.00 Build 0)  -->
<!DOCTYPE svg PUBLIC "-//W3C//DTD SVG 1.1//EN" "http://www.w3.org/Graphics/SVG/1.1/DTD/svg11.dtd">
<svg version="1.1" id="Layer_1" xmlns="http://www.w3.org/2000/svg" xmlns:xlink="http://www.w3.org/1999/xlink" x="0px" y="0px"
	 width="864px" height="864px" viewBox="0 0 864 864" enable-background="new 0 0 864 864" xml:space="preserve">
<g>
	<polygon fill="none" stroke="#404041" stroke-linecap="round" stroke-linejoin="round" stroke-miterlimit="10" points="
		392.945,397.855 383.869,332.036 257.24,488.321 	"/>
	<polygon fill="none" stroke="#404041" stroke-linecap="round" stroke-linejoin="round" stroke-miterlimit="10" points="
		496.084,74.536 589.057,160.188 628.598,117.873 	"/>
	<polygon fill="none" stroke="#404041" stroke-linecap="round" stroke-linejoin="round" stroke-miterlimit="10" points="
		496.084,74.536 607.957,66.1 628.598,117.873 	"/>
	<polygon fill="none" stroke="#6D6E70" stroke-linecap="round" stroke-linejoin="round" stroke-miterlimit="10" points="
		386.331,409.35 343.461,505.241 250.625,499.815 	"/>
	<polygon fill="none" stroke="#6D6E70" stroke-linecap="round" stroke-linejoin="round" stroke-miterlimit="10" points="
		551.039,114.145 559.959,77.039 649.467,11.309 	"/>
	<polygon fill="none" stroke="#929497" stroke-linecap="round" stroke-linejoin="round" stroke-miterlimit="10" points="
		497.598,262.483 568.049,187.917 488.521,196.664 	"/>
	<polygon fill="none" stroke="#6D6E70" stroke-linecap="round" stroke-linejoin="round" stroke-miterlimit="10" points="
		486.539,169.408 496.084,74.536 504.084,135.518 	"/>
	<polygon fill="none" stroke="#D0D2D3" stroke-linecap="round" stroke-linejoin="round" stroke-miterlimit="10" points="
		330.85,377.641 407.664,191.245 354.854,182.876 	"/>
	<polygon fill="none" stroke="#6D6E70" stroke-linecap="round" stroke-linejoin="round" stroke-miterlimit="10" points="
		384.336,222.036 274.851,341.187 331.526,213.667 	"/>
	<polygon fill="none" stroke="#D0D2D3" stroke-linecap="round" stroke-linejoin="round" stroke-miterlimit="10" points="
		331.526,213.667 274.851,341.187 307.522,408.432 	"/>
	<polygon fill="none" stroke="#929497" stroke-linecap="round" stroke-linejoin="round" stroke-miterlimit="10" points="
		433.781,402.807 465.666,226.831 474.744,292.65 	"/>
	<polygon fill="none" stroke="#929497" stroke-linecap="round" stroke-linejoin="round" stroke-miterlimit="10" points="
		468.303,180.473 469.625,142.333 398.262,288.661 	"/>
	<polygon fill="none" stroke="#D0D2D3" stroke-linecap="round" stroke-linejoin="round" stroke-miterlimit="10" points="
		375.406,318.828 465.666,226.831 433.781,402.807 	"/>
	<polygon fill="none" stroke="#D0D2D3" stroke-linecap="round" stroke-linejoin="round" stroke-miterlimit="10" points="
		430.03,248.537 407.664,191.245 330.85,377.641 	"/>
	<polygon fill="none" stroke="#D0D2D3" stroke-linecap="round" stroke-linejoin="round" stroke-miterlimit="10" points="
		551.039,114.145 630.566,105.398 670.107,63.083 	"/>
	<polygon fill="none" stroke="#404041" stroke-linecap="round" stroke-linejoin="round" stroke-miterlimit="10" points="
		216.312,548.796 207.041,423.638 177.683,570.429 	"/>
	<polygon fill="none" stroke="#404041" stroke-linecap="round" stroke-linejoin="round" stroke-miterlimit="10" points="
		216.312,548.796 177.683,570.429 195.959,668.04 	"/>
	<polygon fill="none" stroke="#404041" stroke-linecap="round" stroke-linejoin="round" stroke-miterlimit="10" points="
		216.312,548.796 315.203,548.796 224.038,516.349 	"/>
	<polygon fill="none" stroke="#6D6E70" stroke-linecap="round" stroke-linejoin="round" stroke-miterlimit="10" points="
		163.775,553.433 186.953,524.073 224.038,516.349 216.312,548.796 177.683,570.429 	"/>
	<polygon fill="none" stroke="#929497" stroke-linecap="round" stroke-linejoin="round" stroke-miterlimit="10" points="
		177.683,570.429 163.775,553.433 80.336,568.884 	"/>
	<polygon fill="none" stroke="#D0D2D3" stroke-linecap="round" stroke-linejoin="round" stroke-miterlimit="10" points="
		315.203,548.796 195.959,668.04 80.336,568.884 	"/>
	<polygon fill="none" stroke="#929497" stroke-linecap="round" stroke-linejoin="round" stroke-miterlimit="10" points="
		224.038,516.349 186.953,524.073 225.583,468.446 	"/>
	<polygon fill="none" stroke="#929497" stroke-linecap="round" stroke-linejoin="round" stroke-miterlimit="10" points="
		225.583,468.446 105.059,499.351 207.041,423.638 	"/>
	<polygon fill="none" stroke="#D0D2D3" stroke-linecap="round" stroke-linejoin="round" stroke-miterlimit="10" points="
		186.953,524.073 163.775,553.433 105.059,499.351 	"/>
	<polygon fill="none" stroke="#404041" stroke-linecap="round" stroke-linejoin="round" stroke-miterlimit="10" points="
		160.686,689.407 106.922,736.97 68.124,732.505 108.149,689.407 137.508,677.046 	"/>
	<polygon fill="none" stroke="#6D6E70" stroke-linecap="round" stroke-linejoin="round" stroke-miterlimit="10" points="
		195.959,668.04 137.508,677.046 80.336,568.884 	"/>
	<polygon fill="none" stroke="#404041" stroke-linecap="round" stroke-linejoin="round" stroke-miterlimit="10" points="
		108.149,689.407 68.124,732.505 11.309,686.614 	"/>
	<polygon fill="none" stroke="#929497" stroke-linecap="round" stroke-linejoin="round" stroke-miterlimit="10" points="
		68.124,732.505 58.853,713.962 106.922,736.972 	"/>
	<polygon fill="none" stroke="#929497" stroke-linecap="round" stroke-linejoin="round" stroke-miterlimit="10" points="
		11.309,686.614 58.853,713.962 68.124,732.505 	"/>
	<polygon fill="none" stroke="#929497" stroke-linecap="round" stroke-linejoin="round" stroke-miterlimit="10" points="
		160.686,689.407 106.922,736.97 58.853,713.962 	"/>
	<polygon fill="none" stroke="#6D6E70" stroke-linecap="round" stroke-linejoin="round" stroke-miterlimit="10" points="
		80.336,568.884 11.309,686.614 108.149,689.407 	"/>
	<polygon fill="none" stroke="#6D6E70" stroke-linecap="round" stroke-linejoin="round" stroke-miterlimit="10" points="
		207.041,423.638 225.583,468.446 245.67,386.554 	"/>
	<polygon fill="none" stroke="#6D6E70" stroke-linecap="round" stroke-linejoin="round" stroke-miterlimit="10" points="
		225.583,468.446 268.848,457.63 224.038,516.349 	"/>
	<polygon fill="none" stroke="#D0D2D3" stroke-linecap="round" stroke-linejoin="round" stroke-miterlimit="10" points="
		195.959,668.04 160.686,689.407 80.336,568.884 	"/>
	<polygon fill="none" stroke="#404041" stroke-linecap="round" stroke-linejoin="round" stroke-miterlimit="10" points="
		466.145,471.054 531.965,480.132 375.679,606.759 	"/>
	<polygon fill="none" stroke="#404041" stroke-linecap="round" stroke-linejoin="round" stroke-miterlimit="10" points="
		789.465,367.917 703.813,274.944 746.127,235.402 	"/>
	<polygon fill="none" stroke="#404041" stroke-linecap="round" stroke-linejoin="round" stroke-miterlimit="10" points="
		789.465,367.917 797.9,256.044 746.127,235.402 	"/>
	<polygon fill="none" stroke="#6D6E70" stroke-linecap="round" stroke-linejoin="round" stroke-miterlimit="10" points="
		454.65,477.669 358.758,520.538 364.185,613.374 	"/>
	<polygon fill="none" stroke="#6D6E70" stroke-linecap="round" stroke-linejoin="round" stroke-miterlimit="10" points="
		749.855,312.962 786.961,304.04 852.691,214.534 	"/>
	<polygon fill="none" stroke="#929497" stroke-linecap="round" stroke-linejoin="round" stroke-miterlimit="10" points="
		601.518,366.402 676.084,295.952 667.336,375.479 	"/>
	<polygon fill="none" stroke="#6D6E70" stroke-linecap="round" stroke-linejoin="round" stroke-miterlimit="10" points="
		694.592,377.461 789.465,367.917 728.482,359.916 	"/>
	<polygon fill="none" stroke="#D0D2D3" stroke-linecap="round" stroke-linejoin="round" stroke-miterlimit="10" points="
		486.359,533.149 672.756,456.335 681.125,509.146 	"/>
	<polygon fill="none" stroke="#6D6E70" stroke-linecap="round" stroke-linejoin="round" stroke-miterlimit="10" points="
		641.965,479.663 522.814,589.149 650.334,532.474 	"/>
	<polygon fill="none" stroke="#D0D2D3" stroke-linecap="round" stroke-linejoin="round" stroke-miterlimit="10" points="
		650.334,532.474 522.814,589.149 455.568,556.479 	"/>
	<polygon fill="none" stroke="#929497" stroke-linecap="round" stroke-linejoin="round" stroke-miterlimit="10" points="
		461.193,430.219 637.17,398.334 571.35,389.257 	"/>
	<polygon fill="none" stroke="#929497" stroke-linecap="round" stroke-linejoin="round" stroke-miterlimit="10" points="
		683.527,395.697 721.668,394.377 575.34,465.739 	"/>
	<polygon fill="none" stroke="#D0D2D3" stroke-linecap="round" stroke-linejoin="round" stroke-miterlimit="10" points="
		545.172,488.593 637.17,398.334 461.193,430.219 	"/>
	<polygon fill="none" stroke="#D0D2D3" stroke-linecap="round" stroke-linejoin="round" stroke-miterlimit="10" points="
		615.463,433.97 672.756,456.335 486.359,533.149 	"/>
	<polygon fill="none" stroke="#D0D2D3" stroke-linecap="round" stroke-linejoin="round" stroke-miterlimit="10" points="
		749.855,312.962 758.602,233.435 800.918,193.893 	"/>
	<polygon fill="none" stroke="#404041" stroke-linecap="round" stroke-linejoin="round" stroke-miterlimit="10" points="
		315.203,647.688 440.363,656.96 293.57,686.317 	"/>
	<polygon fill="none" stroke="#404041" stroke-linecap="round" stroke-linejoin="round" stroke-miterlimit="10" points="
		315.203,647.688 293.57,686.317 195.959,668.04 	"/>
	<polygon fill="none" stroke="#404041" stroke-linecap="round" stroke-linejoin="round" stroke-miterlimit="10" points="
		315.203,647.688 315.203,548.796 347.652,639.962 	"/>
	<polygon fill="none" stroke="#6D6E70" stroke-linecap="round" stroke-linejoin="round" stroke-miterlimit="10" points="
		310.567,700.224 339.926,677.046 347.652,639.962 315.203,647.688 293.57,686.317 	"/>
	<polygon fill="none" stroke="#929497" stroke-linecap="round" stroke-linejoin="round" stroke-miterlimit="10" points="
		293.57,686.317 310.567,700.224 295.116,783.663 	"/>
	<polygon fill="none" stroke="#D0D2D3" stroke-linecap="round" stroke-linejoin="round" stroke-miterlimit="10" points="
		315.203,548.796 195.959,668.04 295.116,783.663 	"/>
	<polygon fill="none" stroke="#929497" stroke-linecap="round" stroke-linejoin="round" stroke-miterlimit="10" points="
		347.652,639.962 339.926,677.046 395.553,638.417 	"/>
	<polygon fill="none" stroke="#929497" stroke-linecap="round" stroke-linejoin="round" stroke-miterlimit="10" points="
		395.553,638.417 364.649,758.94 440.363,656.96 	"/>
	<polygon fill="none" stroke="#D0D2D3" stroke-linecap="round" stroke-linejoin="round" stroke-miterlimit="10" points="
		339.926,677.046 310.567,700.224 364.649,758.94 	"/>
	<polygon fill="none" stroke="#404041" stroke-linecap="round" stroke-linejoin="round" stroke-miterlimit="10" points="
		174.592,703.313 127.029,757.077 131.495,795.876 174.592,755.851 186.953,726.491 	"/>
	<polygon fill="none" stroke="#6D6E70" stroke-linecap="round" stroke-linejoin="round" stroke-miterlimit="10" points="
		195.959,668.04 186.953,726.491 295.116,783.663 	"/>
	<polygon fill="none" stroke="#404041" stroke-linecap="round" stroke-linejoin="round" stroke-miterlimit="10" points="
		174.592,755.851 131.495,795.876 177.385,852.69 	"/>
	<polygon fill="none" stroke="#929497" stroke-linecap="round" stroke-linejoin="round" stroke-miterlimit="10" points="
		131.495,795.876 150.038,805.146 127.028,757.077 	"/>
	<polygon fill="none" stroke="#929497" stroke-linecap="round" stroke-linejoin="round" stroke-miterlimit="10" points="
		177.385,852.69 150.038,805.146 131.495,795.876 	"/>
	<polygon fill="none" stroke="#929497" stroke-linecap="round" stroke-linejoin="round" stroke-miterlimit="10" points="
		174.592,703.313 127.029,757.077 150.038,805.146 	"/>
	<polygon fill="none" stroke="#6D6E70" stroke-linecap="round" stroke-linejoin="round" stroke-miterlimit="10" points="
		295.116,783.663 177.385,852.69 174.592,755.851 	"/>
	<polygon fill="none" stroke="#6D6E70" stroke-linecap="round" stroke-linejoin="round" stroke-miterlimit="10" points="
		440.363,656.96 395.553,638.417 477.447,618.329 	"/>
	<polygon fill="none" stroke="#6D6E70" stroke-linecap="round" stroke-linejoin="round" stroke-miterlimit="10" points="
		395.553,638.417 406.369,595.151 347.652,639.962 	"/>
	<polygon fill="none" stroke="#D0D2D3" stroke-linecap="round" stroke-linejoin="round" stroke-miterlimit="10" points="
		195.959,668.04 174.592,703.313 295.116,783.663 	"/>
	
		<line fill="none" stroke="#6D6E70" stroke-linecap="round" stroke-linejoin="round" stroke-miterlimit="10" x1="568.049" y1="187.917" x2="358.758" y2="520.538"/>
	<polyline fill="none" stroke="#6D6E70" stroke-linecap="round" stroke-linejoin="round" stroke-miterlimit="10" points="
		392.945,397.855 676.084,295.952 522.814,589.149 	"/>
	<polyline fill="none" stroke="#D0D2D3" stroke-linecap="round" stroke-linejoin="round" stroke-miterlimit="10" points="
		11.309,686.614 800.918,193.893 786.961,304.04 	"/>
	
		<line fill="none" stroke="#D0D2D3" stroke-linecap="round" stroke-linejoin="round" stroke-miterlimit="10" x1="407.664" y1="191.245" x2="703.813" y2="274.944"/>
	
		<line fill="none" stroke="#6D6E70" stroke-linecap="round" stroke-linejoin="round" stroke-miterlimit="10" x1="676.041" y1="295.909" x2="343.418" y2="505.2"/>
	<polyline fill="none" stroke="#6D6E70" stroke-linecap="round" stroke-linejoin="round" stroke-miterlimit="10" points="
		466.102,471.011 568.006,187.875 274.809,341.144 	"/>
	<polyline fill="none" stroke="#D0D2D3" stroke-linecap="round" stroke-linejoin="round" stroke-miterlimit="10" points="
		177.343,852.646 670.064,63.041 559.918,76.996 	"/>
	
		<line fill="none" stroke="#D0D2D3" stroke-linecap="round" stroke-linejoin="round" stroke-miterlimit="10" x1="672.713" y1="456.294" x2="589.014" y2="160.146"/>
</g>
</svg>
