<?xml version="1.0" encoding="utf-8"?>
<!-- Generator: Adobe Illustrator 15.0.0, SVG Export Plug-In . SVG Version: 6.00 Build 0)  -->
<!DOCTYPE svg PUBLIC "-//W3C//DTD SVG 1.1//EN" "http://www.w3.org/Graphics/SVG/1.1/DTD/svg11.dtd">
<svg version="1.1" id="Layer_1" xmlns="http://www.w3.org/2000/svg" xmlns:xlink="http://www.w3.org/1999/xlink" x="0px" y="0px"
	 width="1728px" height="1728px" viewBox="0 0 1728 1728" enable-background="new 0 0 1728 1728" xml:space="preserve">
<g>
	
		<polygon fill="none" stroke="#404041" stroke-width="5" stroke-linecap="round" stroke-linejoin="round" stroke-miterlimit="10" points="
		1077.017,-2699.097 1046.014,-3060.819 1220.714,-3060.819 	"/>
	
		<polygon fill="none" stroke="#404041" stroke-width="5" stroke-linecap="round" stroke-linejoin="round" stroke-miterlimit="10" points="
		1077.017,-2699.097 1313.668,-2969.179 1220.714,-3060.819 	"/>
	
		<polygon fill="none" stroke="#6D6E70" stroke-width="5" stroke-linecap="round" stroke-linejoin="round" stroke-miterlimit="10" points="
		798.46,-2969.415 499.735,-3019.022 414.332,-2886.583 	"/>
	
		<polygon fill="none" stroke="#6D6E70" stroke-width="5" stroke-linecap="round" stroke-linejoin="round" stroke-miterlimit="10" points="
		834.545,-2837.271 1046.014,-3060.819 1220.714,-3060.819 	"/>
	
		<polygon fill="none" stroke="#6D6E70" stroke-width="5" stroke-linecap="round" stroke-linejoin="round" stroke-miterlimit="10" points="
		834.545,-2837.271 908.841,-2754.837 1313.668,-2969.179 	"/>
	
		<polygon fill="none" stroke="#D0D2D3" stroke-width="5" stroke-linecap="round" stroke-linejoin="round" stroke-miterlimit="10" points="
		499.735,-3019.022 834.545,-2837.271 798.46,-2969.415 	"/>
	
		<polygon fill="none" stroke="#929497" stroke-width="5" stroke-linecap="round" stroke-linejoin="round" stroke-miterlimit="10" points="
		798.46,-2969.415 1046.014,-3060.819 834.545,-2837.271 	"/>
	
		<polygon fill="none" stroke="#6D6E70" stroke-width="5" stroke-linecap="round" stroke-linejoin="round" stroke-miterlimit="10" points="
		834.545,-2837.271 1077.017,-2699.097 908.841,-2754.837 	"/>
	
		<polygon fill="none" stroke="#D0D2D3" stroke-width="5" stroke-linecap="round" stroke-linejoin="round" stroke-miterlimit="10" points="
		834.545,-2837.271 908.841,-2754.837 1025.668,-2195.181 	"/>
	
		<polygon fill="none" stroke="#D0D2D3" stroke-width="5" stroke-linecap="round" stroke-linejoin="round" stroke-miterlimit="10" points="
		908.841,-2754.837 1077.017,-2699.097 1025.668,-2195.181 	"/>
</g>
<g>
	
		<polygon fill="none" stroke="#404041" stroke-width="5" stroke-linecap="round" stroke-linejoin="round" stroke-miterlimit="10" points="
		2619.192,-2574.355 2588.189,-2936.076 2762.889,-2936.076 	"/>
	
		<polygon fill="none" stroke="#404041" stroke-width="5" stroke-linecap="round" stroke-linejoin="round" stroke-miterlimit="10" points="
		2619.192,-2574.355 2855.843,-2844.437 2762.889,-2936.076 	"/>
	
		<polygon fill="none" stroke="#6D6E70" stroke-width="5" stroke-linecap="round" stroke-linejoin="round" stroke-miterlimit="10" points="
		2340.635,-2844.672 2041.911,-2894.279 1956.507,-2761.842 	"/>
	
		<polygon fill="none" stroke="#6D6E70" stroke-width="5" stroke-linecap="round" stroke-linejoin="round" stroke-miterlimit="10" points="
		2361.507,-2722.5 2588.189,-2936.076 2762.889,-2936.076 	"/>
	
		<polygon fill="none" stroke="#6D6E70" stroke-width="5" stroke-linecap="round" stroke-linejoin="round" stroke-miterlimit="10" points="
		2361.507,-2722.5 2451.016,-2630.096 2855.843,-2844.437 	"/>
	
		<polygon fill="none" stroke="#D0D2D3" stroke-width="5" stroke-linecap="round" stroke-linejoin="round" stroke-miterlimit="10" points="
		2041.911,-2894.279 2361.507,-2722.5 2340.635,-2844.672 	"/>
	
		<polygon fill="none" stroke="#929497" stroke-width="5" stroke-linecap="round" stroke-linejoin="round" stroke-miterlimit="10" points="
		2340.635,-2844.672 2588.189,-2936.076 2361.507,-2722.5 	"/>
	
		<polygon fill="none" stroke="#6D6E70" stroke-width="5" stroke-linecap="round" stroke-linejoin="round" stroke-miterlimit="10" points="
		2361.507,-2722.5 2619.192,-2574.355 2451.016,-2630.096 	"/>
	
		<polygon fill="none" stroke="#D0D2D3" stroke-width="5" stroke-linecap="round" stroke-linejoin="round" stroke-miterlimit="10" points="
		2361.507,-2722.5 2451.016,-2630.096 2505.507,-2074.5 	"/>
	
		<polygon fill="none" stroke="#D0D2D3" stroke-width="5" stroke-linecap="round" stroke-linejoin="round" stroke-miterlimit="10" points="
		2451.016,-2630.096 2619.192,-2574.355 2505.507,-2074.5 	"/>
	
		<polygon fill="none" stroke="#404041" stroke-width="5" stroke-linecap="round" stroke-linejoin="round" stroke-miterlimit="10" points="
		3191.05,-3079.752 3263.493,-3181.5 2928.507,-3145.5 	"/>
	
		<polygon fill="none" stroke="#6D6E70" stroke-width="5" stroke-linecap="round" stroke-linejoin="round" stroke-miterlimit="10" points="
		2928.507,-3145.5 2956.624,-3042.31 3191.05,-3079.752 	"/>
	
		<polygon fill="none" stroke="#929497" stroke-width="5" stroke-linecap="round" stroke-linejoin="round" stroke-miterlimit="10" points="
		2762.889,-2936.076 2956.624,-3042.31 2928.507,-3145.5 	"/>
	
		<polygon fill="none" stroke="#D0D2D3" stroke-width="5" stroke-linecap="round" stroke-linejoin="round" stroke-miterlimit="10" points="
		2855.843,-2844.437 2956.624,-3042.31 2762.889,-2936.076 	"/>
</g>
<g>
	
		<polygon fill="none" stroke="#404041" stroke-width="5" stroke-linecap="round" stroke-linejoin="round" stroke-miterlimit="10" points="
		4390.659,-2412 4351.991,-2790 4525.21,-2790 	"/>
	
		<polygon fill="none" stroke="#404041" stroke-width="5" stroke-linecap="round" stroke-linejoin="round" stroke-miterlimit="10" points="
		4390.659,-2412 4618.341,-2689.375 4525.21,-2790 	"/>
	
		<polygon fill="none" stroke="#6D6E70" stroke-width="5" stroke-linecap="round" stroke-linejoin="round" stroke-miterlimit="10" points="
		4138.659,-2555.028 4351.991,-2790 4525.21,-2790 	"/>
	
		<polygon fill="none" stroke="#6D6E70" stroke-width="5" stroke-linecap="round" stroke-linejoin="round" stroke-miterlimit="10" points="
		4138.659,-2555.028 4210.659,-2457 4618.341,-2689.375 	"/>
	
		<polygon fill="none" stroke="#929497" stroke-width="5" stroke-linecap="round" stroke-linejoin="round" stroke-miterlimit="10" points="
		4102.659,-2664 4351.991,-2790 4138.659,-2555.028 	"/>
	
		<polygon fill="none" stroke="#6D6E70" stroke-width="5" stroke-linecap="round" stroke-linejoin="round" stroke-miterlimit="10" points="
		4138.659,-2555.028 4390.659,-2412 4210.659,-2457 	"/>
	
		<polygon fill="none" stroke="#6D6E70" stroke-width="5" stroke-linecap="round" stroke-linejoin="round" stroke-miterlimit="10" points="
		4390.659,-2412 4462.659,-2304 4618.341,-2689.375 	"/>
	
		<polygon fill="none" stroke="#D0D2D3" stroke-width="5" stroke-linecap="round" stroke-linejoin="round" stroke-miterlimit="10" points="
		4210.659,-2457 4093.659,-2304 4390.659,-2412 	"/>
	
		<polygon fill="none" stroke="#D0D2D3" stroke-width="5" stroke-linecap="round" stroke-linejoin="round" stroke-miterlimit="10" points="
		4093.659,-2304 4462.659,-2304 4318.659,-2160 	"/>
	
		<polygon fill="none" stroke="#404041" stroke-width="5" stroke-linecap="round" stroke-linejoin="round" stroke-miterlimit="10" points="
		4351.991,-2790 4525.21,-2790 4462.659,-3096 	"/>
	
		<polygon fill="none" stroke="#6D6E70" stroke-width="5" stroke-linecap="round" stroke-linejoin="round" stroke-miterlimit="10" points="
		4618.341,-2689.375 4462.659,-3096 4525.21,-2790 	"/>
	
		<polygon fill="none" stroke="#6D6E70" stroke-width="5" stroke-linecap="round" stroke-linejoin="round" stroke-miterlimit="10" points="
		4462.659,-3096 4351.991,-2790 4102.659,-2664 	"/>
	
		<polygon fill="none" stroke="#D0D2D3" stroke-width="5" stroke-linecap="round" stroke-linejoin="round" stroke-miterlimit="10" points="
		4210.659,-2457 4618.341,-2689.375 4318.659,-2160 	"/>
</g>
<g>
	
		<polygon fill="none" stroke="#404041" stroke-width="5" stroke-linecap="round" stroke-linejoin="round" stroke-miterlimit="10" points="
		922.5,-945 814.5,-921.564 877.5,-1341 	"/>
	
		<polygon fill="none" stroke="#404041" stroke-width="5" stroke-linecap="round" stroke-linejoin="round" stroke-miterlimit="10" points="
		677.779,-678.316 1120.5,-720 1075.5,-522 	"/>
	
		<polygon fill="none" stroke="#404041" stroke-width="5" stroke-linecap="round" stroke-linejoin="round" stroke-miterlimit="10" points="
		677.779,-678.316 931.5,-423 1075.5,-522 	"/>
	
		<polygon fill="none" stroke="#6D6E70" stroke-width="5" stroke-linecap="round" stroke-linejoin="round" stroke-miterlimit="10" points="
		922.5,-945 997.703,-1255.596 877.5,-1341 	"/>
	
		<polygon fill="none" stroke="#6D6E70" stroke-width="5" stroke-linecap="round" stroke-linejoin="round" stroke-miterlimit="10" points="
		814.5,-921.564 1120.5,-720 1075.5,-522 	"/>
	
		<polygon fill="none" stroke="#929497" stroke-width="5" stroke-linecap="round" stroke-linejoin="round" stroke-miterlimit="10" points="
		922.5,-945 1120.5,-720 814.5,-921.564 	"/>
	
		<polygon fill="none" stroke="#6D6E70" stroke-width="5" stroke-linecap="round" stroke-linejoin="round" stroke-miterlimit="10" points="
		814.5,-921.564 677.779,-678.316 724.5,-855 	"/>
	
		<polygon fill="none" stroke="#929497" stroke-width="5" stroke-linecap="round" stroke-linejoin="round" stroke-miterlimit="10" points="
		997.703,-1255.596 814.5,-921.564 922.5,-945 	"/>
	
		<polygon fill="none" stroke="#929497" stroke-width="5" stroke-linecap="round" stroke-linejoin="round" stroke-miterlimit="10" points="
		814.5,-921.564 724.5,-855 607.5,-954 	"/>
	
		<polygon fill="none" stroke="#D0D2D3" stroke-width="5" stroke-linecap="round" stroke-linejoin="round" stroke-miterlimit="10" points="
		607.5,-954 814.5,-921.564 997.703,-1255.596 	"/>
	
		<polygon fill="none" stroke="#D0D2D3" stroke-width="5" stroke-linecap="round" stroke-linejoin="round" stroke-miterlimit="10" points="
		814.5,-921.564 724.5,-855 931.5,-423 	"/>
</g>
<g>
	
		<polygon fill="none" stroke="#404041" stroke-width="5" stroke-linecap="round" stroke-linejoin="round" stroke-miterlimit="10" points="
		6165,-2313 6141.564,-2421 6561,-2358 	"/>
	
		<polygon fill="none" stroke="#404041" stroke-width="5" stroke-linecap="round" stroke-linejoin="round" stroke-miterlimit="10" points="
		5898.316,-2557.722 5940,-2178 5742,-2160 	"/>
	
		<polygon fill="none" stroke="#404041" stroke-width="5" stroke-linecap="round" stroke-linejoin="round" stroke-miterlimit="10" points="
		5898.316,-2557.722 5643,-2304 5742,-2160 	"/>
	
		<polygon fill="none" stroke="#6D6E70" stroke-width="5" stroke-linecap="round" stroke-linejoin="round" stroke-miterlimit="10" points="
		6165,-2313 6475.598,-2237.796 6561,-2358 	"/>
	
		<polygon fill="none" stroke="#6D6E70" stroke-width="5" stroke-linecap="round" stroke-linejoin="round" stroke-miterlimit="10" points="
		6141.564,-2421 6075,-2511 5643,-2304 	"/>
	
		<polygon fill="none" stroke="#929497" stroke-width="5" stroke-linecap="round" stroke-linejoin="round" stroke-miterlimit="10" points="
		6165,-2313 5940,-2178 6141.564,-2421 	"/>
	
		<polygon fill="none" stroke="#6D6E70" stroke-width="5" stroke-linecap="round" stroke-linejoin="round" stroke-miterlimit="10" points="
		6141.564,-2421 5898.316,-2557.722 6075,-2511 	"/>
	
		<polygon fill="none" stroke="#D0D2D3" stroke-width="5" stroke-linecap="round" stroke-linejoin="round" stroke-miterlimit="10" points="
		6174,-2628 5898.316,-2557.722 5985,-2700 	"/>
	
		<polygon fill="none" stroke="#6D6E70" stroke-width="5" stroke-linecap="round" stroke-linejoin="round" stroke-miterlimit="10" points="
		5898.316,-2557.722 5985,-3060 5985,-2700 	"/>
	
		<polygon fill="none" stroke="#D0D2D3" stroke-width="5" stroke-linecap="round" stroke-linejoin="round" stroke-miterlimit="10" points="
		5985,-2700 5985,-3060 6174,-2628 	"/>
	
		<polygon fill="none" stroke="#929497" stroke-width="5" stroke-linecap="round" stroke-linejoin="round" stroke-miterlimit="10" points="
		6475.598,-2237.796 6141.564,-2421 6165,-2313 	"/>
	
		<polygon fill="none" stroke="#929497" stroke-width="5" stroke-linecap="round" stroke-linejoin="round" stroke-miterlimit="10" points="
		6141.564,-2421 6075,-2511 6174,-2628 	"/>
	
		<polygon fill="none" stroke="#D0D2D3" stroke-width="5" stroke-linecap="round" stroke-linejoin="round" stroke-miterlimit="10" points="
		6174,-2628 6141.564,-2421 6475.598,-2237.796 	"/>
	
		<polygon fill="none" stroke="#D0D2D3" stroke-width="5" stroke-linecap="round" stroke-linejoin="round" stroke-miterlimit="10" points="
		6075,-2511 5898.316,-2557.722 6174,-2628 	"/>
	
		<polygon fill="none" stroke="#D0D2D3" stroke-width="5" stroke-linecap="round" stroke-linejoin="round" stroke-miterlimit="10" points="
		6141.564,-2421 5940,-2178 5742,-2160 	"/>
</g>
<g>
	
		<polygon fill="none" stroke="#6D6E70" stroke-width="5" stroke-linecap="round" stroke-linejoin="round" stroke-miterlimit="10" points="
		2551.5,-1071 2452.5,-1382.697 2605.5,-1467 	"/>
	
		<polygon fill="none" stroke="#929497" stroke-width="5" stroke-linecap="round" stroke-linejoin="round" stroke-miterlimit="10" points="
		2452.5,-1382.697 2605.5,-1467 2605.5,-1683 	"/>
	
		<polygon fill="none" stroke="#404041" stroke-width="5" stroke-linecap="round" stroke-linejoin="round" stroke-miterlimit="10" points="
		2398.5,-648 2542.5,-81 2542.5,-405 	"/>
	
		<polygon fill="none" stroke="#404041" stroke-width="5" stroke-linecap="round" stroke-linejoin="round" stroke-miterlimit="10" points="
		2551.5,-1071 2659.5,-1047.564 2605.5,-1467 	"/>
	
		<polygon fill="none" stroke="#404041" stroke-width="5" stroke-linecap="round" stroke-linejoin="round" stroke-miterlimit="10" points="
		2803.5,-803.486 2353.5,-846 2398.5,-648 	"/>
	
		<polygon fill="none" stroke="#404041" stroke-width="5" stroke-linecap="round" stroke-linejoin="round" stroke-miterlimit="10" points="
		2803.5,-803.486 2542.5,-549 2398.5,-648 	"/>
	
		<polygon fill="none" stroke="#6D6E70" stroke-width="5" stroke-linecap="round" stroke-linejoin="round" stroke-miterlimit="10" points="
		2659.5,-1047.564 2353.5,-846 2398.5,-648 	"/>
	
		<polygon fill="none" stroke="#929497" stroke-width="5" stroke-linecap="round" stroke-linejoin="round" stroke-miterlimit="10" points="
		2551.5,-1071 2353.5,-846 2659.5,-1047.564 	"/>
	
		<polygon fill="none" stroke="#6D6E70" stroke-width="5" stroke-linecap="round" stroke-linejoin="round" stroke-miterlimit="10" points="
		2659.5,-1047.564 2803.5,-803.486 2749.5,-981 	"/>
	
		<polygon fill="none" stroke="#929497" stroke-width="5" stroke-linecap="round" stroke-linejoin="round" stroke-miterlimit="10" points="
		2452.5,-1382.697 2659.5,-1047.564 2551.5,-1071 	"/>
	
		<polygon fill="none" stroke="#929497" stroke-width="5" stroke-linecap="round" stroke-linejoin="round" stroke-miterlimit="10" points="
		2659.5,-1047.564 2749.5,-981 2866.5,-1080 	"/>
	
		<polygon fill="none" stroke="#D0D2D3" stroke-width="5" stroke-linecap="round" stroke-linejoin="round" stroke-miterlimit="10" points="
		2866.5,-1080 2659.5,-1047.564 2452.5,-1382.697 	"/>
	
		<polygon fill="none" stroke="#D0D2D3" stroke-width="5" stroke-linecap="round" stroke-linejoin="round" stroke-miterlimit="10" points="
		2659.5,-1047.564 2749.5,-981 2542.5,-549 	"/>
	
		<polygon fill="none" stroke="#D0D2D3" stroke-width="5" stroke-linecap="round" stroke-linejoin="round" stroke-miterlimit="10" points="
		2542.5,-549 2398.5,-648 2542.5,-405 	"/>
	
		<polygon fill="none" stroke="#D0D2D3" stroke-width="5" stroke-linecap="round" stroke-linejoin="round" stroke-miterlimit="10" points="
		2605.5,-1467 2866.5,-1080 2605.5,-1683 	"/>
	
		<polygon fill="none" stroke="#D0D2D3" stroke-width="5" stroke-linecap="round" stroke-linejoin="round" stroke-miterlimit="10" points="
		2542.5,-405 2803.5,-803.486 2542.5,-81 	"/>
</g>
<g>
	<g>
		
			<polygon fill="none" stroke="#404041" stroke-width="5" stroke-linecap="round" stroke-linejoin="round" stroke-miterlimit="10" points="
			431.25,1004.006 338.311,944.211 679.445,692.171 		"/>
		
			<polygon fill="none" stroke="#404041" stroke-width="5" stroke-linecap="round" stroke-linejoin="round" stroke-miterlimit="10" points="
			69.632,1019.533 412.158,1303.111 240.332,1411.299 		"/>
		
			<polygon fill="none" stroke="#404041" stroke-width="5" stroke-linecap="round" stroke-linejoin="round" stroke-miterlimit="10" points="
			69.632,1019.533 68.505,1379.48 240.332,1411.299 		"/>
		
			<polygon fill="none" stroke="#6D6E70" stroke-width="5" stroke-linecap="round" stroke-linejoin="round" stroke-miterlimit="10" points="
			431.25,1004.006 704.052,837.558 679.445,692.171 		"/>
		
			<polygon fill="none" stroke="#6D6E70" stroke-width="5" stroke-linecap="round" stroke-linejoin="round" stroke-miterlimit="10" points="
			338.311,944.211 412.158,1303.111 240.332,1411.299 		"/>
		
			<polygon fill="none" stroke="#929497" stroke-width="5" stroke-linecap="round" stroke-linejoin="round" stroke-miterlimit="10" points="
			431.25,1004.006 412.158,1303.111 338.311,944.211 		"/>
		
			<polygon fill="none" stroke="#6D6E70" stroke-width="5" stroke-linecap="round" stroke-linejoin="round" stroke-miterlimit="10" points="
			338.311,944.211 69.632,1019.533 227.604,927.639 		"/>
		
			<polygon fill="none" stroke="#929497" stroke-width="5" stroke-linecap="round" stroke-linejoin="round" stroke-miterlimit="10" points="
			704.052,837.558 338.311,944.211 431.25,1004.006 		"/>
		
			<polygon fill="none" stroke="#929497" stroke-width="5" stroke-linecap="round" stroke-linejoin="round" stroke-miterlimit="10" points="
			338.311,944.211 227.604,927.639 214.876,774.902 		"/>
		
			<polygon fill="none" stroke="#D0D2D3" stroke-width="5" stroke-linecap="round" stroke-linejoin="round" stroke-miterlimit="10" points="
			214.876,774.902 338.311,944.211 704.052,837.558 		"/>
		
			<polygon fill="none" stroke="#D0D2D3" stroke-width="5" stroke-linecap="round" stroke-linejoin="round" stroke-miterlimit="10" points="
			338.311,944.211 227.604,927.639 68.505,1379.48 		"/>
	</g>
	<g>
		
			<polygon fill="none" stroke="#404041" stroke-width="5" stroke-linecap="round" stroke-linejoin="round" stroke-miterlimit="10" points="
			723.992,1296.748 783.788,1389.688 1035.827,1048.553 		"/>
		
			<polygon fill="none" stroke="#404041" stroke-width="5" stroke-linecap="round" stroke-linejoin="round" stroke-miterlimit="10" points="
			708.464,1658.365 424.887,1315.84 316.7,1487.666 		"/>
		
			<polygon fill="none" stroke="#404041" stroke-width="5" stroke-linecap="round" stroke-linejoin="round" stroke-miterlimit="10" points="
			708.464,1658.365 348.519,1659.494 316.7,1487.666 		"/>
		
			<polygon fill="none" stroke="#6D6E70" stroke-width="5" stroke-linecap="round" stroke-linejoin="round" stroke-miterlimit="10" points="
			723.992,1296.748 890.441,1023.946 1035.827,1048.553 		"/>
		
			<polygon fill="none" stroke="#6D6E70" stroke-width="5" stroke-linecap="round" stroke-linejoin="round" stroke-miterlimit="10" points="
			783.788,1389.688 424.887,1315.84 316.7,1487.666 		"/>
		
			<polygon fill="none" stroke="#929497" stroke-width="5" stroke-linecap="round" stroke-linejoin="round" stroke-miterlimit="10" points="
			723.992,1296.748 424.887,1315.84 783.788,1389.688 		"/>
		
			<polygon fill="none" stroke="#6D6E70" stroke-width="5" stroke-linecap="round" stroke-linejoin="round" stroke-miterlimit="10" points="
			783.788,1389.688 708.464,1658.365 800.361,1500.395 		"/>
		
			<polygon fill="none" stroke="#929497" stroke-width="5" stroke-linecap="round" stroke-linejoin="round" stroke-miterlimit="10" points="
			890.441,1023.946 783.788,1389.688 723.992,1296.748 		"/>
		
			<polygon fill="none" stroke="#929497" stroke-width="5" stroke-linecap="round" stroke-linejoin="round" stroke-miterlimit="10" points="
			783.788,1389.688 800.361,1500.395 953.095,1513.123 		"/>
		
			<polygon fill="none" stroke="#D0D2D3" stroke-width="5" stroke-linecap="round" stroke-linejoin="round" stroke-miterlimit="10" points="
			953.095,1513.123 783.788,1389.688 890.441,1023.946 		"/>
		
			<polygon fill="none" stroke="#D0D2D3" stroke-width="5" stroke-linecap="round" stroke-linejoin="round" stroke-miterlimit="10" points="
			783.788,1389.688 800.361,1500.395 348.519,1659.494 		"/>
	</g>
	<g>
		
			<polygon fill="none" stroke="#404041" stroke-width="5" stroke-linecap="round" stroke-linejoin="round" stroke-miterlimit="10" points="
			1004.007,431.25 944.212,338.311 692.173,679.443 		"/>
		
			<polygon fill="none" stroke="#404041" stroke-width="5" stroke-linecap="round" stroke-linejoin="round" stroke-miterlimit="10" points="
			1019.536,69.63 1303.113,412.157 1411.301,240.33 		"/>
		
			<polygon fill="none" stroke="#404041" stroke-width="5" stroke-linecap="round" stroke-linejoin="round" stroke-miterlimit="10" points="
			1019.536,69.63 1379.48,68.504 1411.301,240.33 		"/>
		
			<polygon fill="none" stroke="#6D6E70" stroke-width="5" stroke-linecap="round" stroke-linejoin="round" stroke-miterlimit="10" points="
			1004.007,431.25 837.56,704.05 692.173,679.443 		"/>
		
			<polygon fill="none" stroke="#6D6E70" stroke-width="5" stroke-linecap="round" stroke-linejoin="round" stroke-miterlimit="10" points="
			944.212,338.311 1303.113,412.157 1411.301,240.33 		"/>
		
			<polygon fill="none" stroke="#929497" stroke-width="5" stroke-linecap="round" stroke-linejoin="round" stroke-miterlimit="10" points="
			1004.007,431.25 1303.113,412.157 944.212,338.311 		"/>
		
			<polygon fill="none" stroke="#6D6E70" stroke-width="5" stroke-linecap="round" stroke-linejoin="round" stroke-miterlimit="10" points="
			944.212,338.311 1019.536,69.63 927.64,227.602 		"/>
		
			<polygon fill="none" stroke="#929497" stroke-width="5" stroke-linecap="round" stroke-linejoin="round" stroke-miterlimit="10" points="
			837.56,704.05 944.212,338.311 1004.007,431.25 		"/>
		
			<polygon fill="none" stroke="#929497" stroke-width="5" stroke-linecap="round" stroke-linejoin="round" stroke-miterlimit="10" points="
			944.212,338.311 927.64,227.602 774.904,214.875 		"/>
		
			<polygon fill="none" stroke="#D0D2D3" stroke-width="5" stroke-linecap="round" stroke-linejoin="round" stroke-miterlimit="10" points="
			774.904,214.875 944.212,338.311 837.56,704.05 		"/>
		
			<polygon fill="none" stroke="#D0D2D3" stroke-width="5" stroke-linecap="round" stroke-linejoin="round" stroke-miterlimit="10" points="
			944.212,338.311 927.64,227.602 1379.48,68.504 		"/>
	</g>
	<g>
		
			<polygon fill="none" stroke="#404041" stroke-width="5" stroke-linecap="round" stroke-linejoin="round" stroke-miterlimit="10" points="
			1296.749,723.992 1389.688,783.787 1048.555,1035.826 		"/>
		
			<polygon fill="none" stroke="#404041" stroke-width="5" stroke-linecap="round" stroke-linejoin="round" stroke-miterlimit="10" points="
			1658.367,708.463 1315.841,424.886 1487.668,316.697 		"/>
		
			<polygon fill="none" stroke="#404041" stroke-width="5" stroke-linecap="round" stroke-linejoin="round" stroke-miterlimit="10" points="
			1658.367,708.463 1659.496,348.518 1487.668,316.697 		"/>
		
			<polygon fill="none" stroke="#6D6E70" stroke-width="5" stroke-linecap="round" stroke-linejoin="round" stroke-miterlimit="10" points="
			1296.749,723.992 1023.949,890.438 1048.555,1035.826 		"/>
		
			<polygon fill="none" stroke="#6D6E70" stroke-width="5" stroke-linecap="round" stroke-linejoin="round" stroke-miterlimit="10" points="
			1389.688,783.787 1315.841,424.886 1487.668,316.697 		"/>
		
			<polygon fill="none" stroke="#929497" stroke-width="5" stroke-linecap="round" stroke-linejoin="round" stroke-miterlimit="10" points="
			1296.749,723.992 1315.841,424.886 1389.688,783.787 		"/>
		
			<polygon fill="none" stroke="#6D6E70" stroke-width="5" stroke-linecap="round" stroke-linejoin="round" stroke-miterlimit="10" points="
			1389.688,783.787 1658.367,708.463 1500.396,800.359 		"/>
		
			<polygon fill="none" stroke="#929497" stroke-width="5" stroke-linecap="round" stroke-linejoin="round" stroke-miterlimit="10" points="
			1023.949,890.438 1389.688,783.787 1296.749,723.992 		"/>
		
			<polygon fill="none" stroke="#929497" stroke-width="5" stroke-linecap="round" stroke-linejoin="round" stroke-miterlimit="10" points="
			1389.688,783.787 1500.396,800.359 1513.125,953.094 		"/>
		
			<polygon fill="none" stroke="#D0D2D3" stroke-width="5" stroke-linecap="round" stroke-linejoin="round" stroke-miterlimit="10" points="
			1513.125,953.094 1389.688,783.787 1023.949,890.438 		"/>
		
			<polygon fill="none" stroke="#D0D2D3" stroke-width="5" stroke-linecap="round" stroke-linejoin="round" stroke-miterlimit="10" points="
			1389.688,783.787 1500.396,800.359 1659.496,348.518 		"/>
	</g>
</g>
<g>
	<g>
		
			<polygon fill="none" stroke="#404041" stroke-width="5" stroke-linecap="round" stroke-linejoin="round" stroke-miterlimit="10" points="
			2750.007,813.087 2809.803,720.147 3061.841,1061.282 		"/>
		
			<polygon fill="none" stroke="#404041" stroke-width="5" stroke-linecap="round" stroke-linejoin="round" stroke-miterlimit="10" points="
			2734.479,451.468 2495.448,749.448 2342.713,622.169 		"/>
		
			<polygon fill="none" stroke="#404041" stroke-width="5" stroke-linecap="round" stroke-linejoin="round" stroke-miterlimit="10" points="
			2734.479,451.468 2374.533,450.341 2342.713,622.169 		"/>
		
			<polygon fill="none" stroke="#6D6E70" stroke-width="5" stroke-linecap="round" stroke-linejoin="round" stroke-miterlimit="10" points="
			2750.007,813.087 2916.455,1085.89 3061.841,1061.282 		"/>
		
			<polygon fill="none" stroke="#6D6E70" stroke-width="5" stroke-linecap="round" stroke-linejoin="round" stroke-miterlimit="10" points="
			2809.803,720.147 2826.374,609.44 2374.533,450.341 		"/>
		
			<polygon fill="none" stroke="#929497" stroke-width="5" stroke-linecap="round" stroke-linejoin="round" stroke-miterlimit="10" points="
			2750.007,813.087 2495.448,749.448 2809.803,720.147 		"/>
		
			<polygon fill="none" stroke="#6D6E70" stroke-width="5" stroke-linecap="round" stroke-linejoin="round" stroke-miterlimit="10" points="
			2809.803,720.147 2734.479,451.468 2826.374,609.44 		"/>
		
			<polygon fill="none" stroke="#D0D2D3" stroke-width="5" stroke-linecap="round" stroke-linejoin="round" stroke-miterlimit="10" points="
			2979.109,596.712 2734.479,451.468 2896.378,412.157 		"/>
		
			<polygon fill="none" stroke="#6D6E70" stroke-width="5" stroke-linecap="round" stroke-linejoin="round" stroke-miterlimit="10" points="
			2734.479,451.468 3150.937,157.599 2896.378,412.157 		"/>
		
			<polygon fill="none" stroke="#D0D2D3" stroke-width="5" stroke-linecap="round" stroke-linejoin="round" stroke-miterlimit="10" points="
			2896.378,412.157 3150.937,157.599 2979.109,596.712 		"/>
		
			<polygon fill="none" stroke="#929497" stroke-width="5" stroke-linecap="round" stroke-linejoin="round" stroke-miterlimit="10" points="
			2916.455,1085.89 2809.803,720.147 2750.007,813.087 		"/>
		
			<polygon fill="none" stroke="#929497" stroke-width="5" stroke-linecap="round" stroke-linejoin="round" stroke-miterlimit="10" points="
			2809.803,720.147 2826.374,609.44 2979.109,596.712 		"/>
		
			<polygon fill="none" stroke="#D0D2D3" stroke-width="5" stroke-linecap="round" stroke-linejoin="round" stroke-miterlimit="10" points="
			2979.109,596.712 2809.803,720.147 2916.455,1085.89 		"/>
		
			<polygon fill="none" stroke="#D0D2D3" stroke-width="5" stroke-linecap="round" stroke-linejoin="round" stroke-miterlimit="10" points="
			2826.374,609.44 2734.479,451.468 2979.109,596.712 		"/>
		
			<polygon fill="none" stroke="#D0D2D3" stroke-width="5" stroke-linecap="round" stroke-linejoin="round" stroke-miterlimit="10" points="
			2809.803,720.147 2495.448,749.448 2342.713,622.169 		"/>
	</g>
	<g>
		
			<polygon fill="none" stroke="#404041" stroke-width="5" stroke-linecap="round" stroke-linejoin="round" stroke-miterlimit="10" points="
			2469.992,914.911 2410.196,1007.851 2158.158,666.716 		"/>
		
			<polygon fill="none" stroke="#404041" stroke-width="5" stroke-linecap="round" stroke-linejoin="round" stroke-miterlimit="10" points="
			2485.522,1276.528 2724.551,978.55 2877.286,1105.829 		"/>
		
			<polygon fill="none" stroke="#404041" stroke-width="5" stroke-linecap="round" stroke-linejoin="round" stroke-miterlimit="10" points="
			2485.522,1276.528 2845.466,1277.657 2877.286,1105.829 		"/>
		
			<polygon fill="none" stroke="#6D6E70" stroke-width="5" stroke-linecap="round" stroke-linejoin="round" stroke-miterlimit="10" points="
			2469.992,914.911 2303.545,642.11 2158.158,666.716 		"/>
		
			<polygon fill="none" stroke="#6D6E70" stroke-width="5" stroke-linecap="round" stroke-linejoin="round" stroke-miterlimit="10" points="
			2410.196,1007.851 2393.625,1118.558 2845.466,1277.657 		"/>
		
			<polygon fill="none" stroke="#929497" stroke-width="5" stroke-linecap="round" stroke-linejoin="round" stroke-miterlimit="10" points="
			2469.992,914.911 2724.551,978.55 2410.196,1007.851 		"/>
		
			<polygon fill="none" stroke="#6D6E70" stroke-width="5" stroke-linecap="round" stroke-linejoin="round" stroke-miterlimit="10" points="
			2410.196,1007.851 2485.522,1276.528 2393.625,1118.558 		"/>
		
			<polygon fill="none" stroke="#D0D2D3" stroke-width="5" stroke-linecap="round" stroke-linejoin="round" stroke-miterlimit="10" points="
			2240.89,1131.286 2485.522,1276.528 2323.622,1315.839 		"/>
		
			<polygon fill="none" stroke="#6D6E70" stroke-width="5" stroke-linecap="round" stroke-linejoin="round" stroke-miterlimit="10" points="
			2485.522,1276.528 2069.063,1570.399 2323.621,1315.841 		"/>
		
			<polygon fill="none" stroke="#D0D2D3" stroke-width="5" stroke-linecap="round" stroke-linejoin="round" stroke-miterlimit="10" points="
			2323.621,1315.841 2069.063,1570.399 2240.89,1131.286 		"/>
		
			<polygon fill="none" stroke="#929497" stroke-width="5" stroke-linecap="round" stroke-linejoin="round" stroke-miterlimit="10" points="
			2303.545,642.11 2410.196,1007.851 2469.992,914.911 		"/>
		
			<polygon fill="none" stroke="#929497" stroke-width="5" stroke-linecap="round" stroke-linejoin="round" stroke-miterlimit="10" points="
			2410.196,1007.851 2393.625,1118.558 2240.89,1131.286 		"/>
		
			<polygon fill="none" stroke="#D0D2D3" stroke-width="5" stroke-linecap="round" stroke-linejoin="round" stroke-miterlimit="10" points="
			2240.89,1131.286 2410.196,1007.851 2303.545,642.11 		"/>
		
			<polygon fill="none" stroke="#D0D2D3" stroke-width="5" stroke-linecap="round" stroke-linejoin="round" stroke-miterlimit="10" points="
			2393.625,1118.558 2485.522,1276.528 2240.89,1131.286 		"/>
		
			<polygon fill="none" stroke="#D0D2D3" stroke-width="5" stroke-linecap="round" stroke-linejoin="round" stroke-miterlimit="10" points="
			2410.196,1007.851 2724.551,978.55 2877.286,1105.829 		"/>
	</g>
</g>
<g>
	<g>
		
			<polygon fill="none" stroke="#404041" stroke-width="5" stroke-linecap="round" stroke-linejoin="round" stroke-miterlimit="10" points="
			3951.938,482.284 4349.051,788.554 4106.104,839.669 		"/>
		
			<polygon fill="none" stroke="#404041" stroke-width="5" stroke-linecap="round" stroke-linejoin="round" stroke-miterlimit="10" points="
			3957.783,482.284 3981.422,840.599 4111.947,839.669 		"/>
		
			<polygon fill="none" stroke="#6D6E70" stroke-width="5" stroke-linecap="round" stroke-linejoin="round" stroke-miterlimit="10" points="
			4345.895,476.458 4592.201,300.306 4747.5,334.825 		"/>
		
			<polygon fill="none" stroke="#6D6E70" stroke-width="5" stroke-linecap="round" stroke-linejoin="round" stroke-miterlimit="10" points="
			4238.902,404.827 4349.051,788.554 4106.104,839.669 		"/>
		
			<polygon fill="none" stroke="#6D6E70" stroke-width="5" stroke-linecap="round" stroke-linejoin="round" stroke-miterlimit="10" points="
			4244.746,404.827 4116.113,402.78 3981.422,840.599 		"/>
		
			<polygon fill="none" stroke="#D0D2D3" stroke-width="5" stroke-linecap="round" stroke-linejoin="round" stroke-miterlimit="10" points="
			4592.201,300.306 4244.746,404.827 4345.895,476.458 		"/>
		
			<polygon fill="none" stroke="#929497" stroke-width="5" stroke-linecap="round" stroke-linejoin="round" stroke-miterlimit="10" points="
			4340.051,476.458 4349.051,788.554 4238.902,404.827 		"/>
		
			<polygon fill="none" stroke="#6D6E70" stroke-width="5" stroke-linecap="round" stroke-linejoin="round" stroke-miterlimit="10" points="
			4244.746,404.827 3957.783,482.284 4116.113,402.78 		"/>
		
			<polygon fill="none" stroke="#D0D2D3" stroke-width="5" stroke-linecap="round" stroke-linejoin="round" stroke-miterlimit="10" points="
			4244.746,404.827 4116.113,402.78 3684.719,48.446 		"/>
		
			<polygon fill="none" stroke="#D0D2D3" stroke-width="5" stroke-linecap="round" stroke-linejoin="round" stroke-miterlimit="10" points="
			4116.113,402.78 3957.783,482.284 3684.719,48.446 		"/>
		
			<polygon fill="none" stroke="#404041" stroke-width="5" stroke-linecap="round" stroke-linejoin="round" stroke-miterlimit="10" points="
			3910.787,1244.019 3931.51,1367.19 4142.924,1104.864 		"/>
		
			<polygon fill="none" stroke="#6D6E70" stroke-width="5" stroke-linecap="round" stroke-linejoin="round" stroke-miterlimit="10" points="
			4142.924,1104.864 4050.076,1051.778 3910.787,1244.019 		"/>
		
			<polygon fill="none" stroke="#929497" stroke-width="5" stroke-linecap="round" stroke-linejoin="round" stroke-miterlimit="10" points="
			4111.947,839.669 4050.076,1051.778 4142.924,1104.864 		"/>
		
			<polygon fill="none" stroke="#D0D2D3" stroke-width="5" stroke-linecap="round" stroke-linejoin="round" stroke-miterlimit="10" points="
			3981.422,840.599 4050.076,1051.778 4111.947,839.669 		"/>
	</g>
	<g>
		
			<polygon fill="none" stroke="#404041" stroke-width="5" stroke-linecap="round" stroke-linejoin="round" stroke-miterlimit="10" points="
			4760.063,1245.716 4362.949,939.446 4605.896,888.329 		"/>
		
			<polygon fill="none" stroke="#404041" stroke-width="5" stroke-linecap="round" stroke-linejoin="round" stroke-miterlimit="10" points="
			4754.219,1245.716 4730.58,887.401 4600.053,888.329 		"/>
		
			<polygon fill="none" stroke="#6D6E70" stroke-width="5" stroke-linecap="round" stroke-linejoin="round" stroke-miterlimit="10" points="
			4366.105,1251.542 4119.797,1427.692 3964.5,1393.175 		"/>
		
			<polygon fill="none" stroke="#6D6E70" stroke-width="5" stroke-linecap="round" stroke-linejoin="round" stroke-miterlimit="10" points="
			4473.098,1323.171 4362.949,939.446 4605.896,888.329 		"/>
		
			<polygon fill="none" stroke="#6D6E70" stroke-width="5" stroke-linecap="round" stroke-linejoin="round" stroke-miterlimit="10" points="
			4467.254,1323.171 4595.887,1325.218 4730.58,887.401 		"/>
		
			<polygon fill="none" stroke="#D0D2D3" stroke-width="5" stroke-linecap="round" stroke-linejoin="round" stroke-miterlimit="10" points="
			4119.797,1427.692 4467.254,1323.171 4366.105,1251.542 		"/>
		
			<polygon fill="none" stroke="#929497" stroke-width="5" stroke-linecap="round" stroke-linejoin="round" stroke-miterlimit="10" points="
			4371.949,1251.542 4362.949,939.446 4473.098,1323.171 		"/>
		
			<polygon fill="none" stroke="#6D6E70" stroke-width="5" stroke-linecap="round" stroke-linejoin="round" stroke-miterlimit="10" points="
			4467.254,1323.171 4754.219,1245.716 4595.887,1325.218 		"/>
		
			<polygon fill="none" stroke="#D0D2D3" stroke-width="5" stroke-linecap="round" stroke-linejoin="round" stroke-miterlimit="10" points="
			4467.254,1323.171 4595.887,1325.218 5027.281,1679.554 		"/>
		
			<polygon fill="none" stroke="#D0D2D3" stroke-width="5" stroke-linecap="round" stroke-linejoin="round" stroke-miterlimit="10" points="
			4595.887,1325.218 4754.219,1245.716 5027.281,1679.554 		"/>
		
			<polygon fill="none" stroke="#404041" stroke-width="5" stroke-linecap="round" stroke-linejoin="round" stroke-miterlimit="10" points="
			4801.213,483.979 4780.492,360.81 4569.076,623.136 		"/>
		
			<polygon fill="none" stroke="#6D6E70" stroke-width="5" stroke-linecap="round" stroke-linejoin="round" stroke-miterlimit="10" points="
			4569.076,623.136 4661.926,676.22 4801.213,483.979 		"/>
		
			<polygon fill="none" stroke="#929497" stroke-width="5" stroke-linecap="round" stroke-linejoin="round" stroke-miterlimit="10" points="
			4600.053,888.329 4661.926,676.22 4569.076,623.136 		"/>
		
			<polygon fill="none" stroke="#D0D2D3" stroke-width="5" stroke-linecap="round" stroke-linejoin="round" stroke-miterlimit="10" points="
			4730.58,887.401 4661.926,676.22 4600.053,888.329 		"/>
	</g>
</g>
<g>
	<g>
		
			<polygon fill="none" stroke="#404041" stroke-width="5" stroke-linecap="round" stroke-linejoin="round" stroke-miterlimit="10" points="
			6576.592,791.483 6537.924,413.483 6711.145,413.483 		"/>
		
			<polygon fill="none" stroke="#404041" stroke-width="5" stroke-linecap="round" stroke-linejoin="round" stroke-miterlimit="10" points="
			6576.592,791.483 6804.275,514.108 6711.145,413.483 		"/>
		
			<polygon fill="none" stroke="#6D6E70" stroke-width="5" stroke-linecap="round" stroke-linejoin="round" stroke-miterlimit="10" points="
			6324.592,648.454 6537.924,413.483 6711.145,413.483 		"/>
		
			<polygon fill="none" stroke="#6D6E70" stroke-width="5" stroke-linecap="round" stroke-linejoin="round" stroke-miterlimit="10" points="
			6324.592,648.454 6396.592,746.483 6804.275,514.108 		"/>
		
			<polygon fill="none" stroke="#929497" stroke-width="5" stroke-linecap="round" stroke-linejoin="round" stroke-miterlimit="10" points="
			6273.275,539.483 6537.924,413.483 6324.592,648.454 		"/>
		
			<polygon fill="none" stroke="#6D6E70" stroke-width="5" stroke-linecap="round" stroke-linejoin="round" stroke-miterlimit="10" points="
			6324.592,648.454 6576.592,791.483 6396.592,746.483 		"/>
		
			<polygon fill="none" stroke="#6D6E70" stroke-width="5" stroke-linecap="round" stroke-linejoin="round" stroke-miterlimit="10" points="
			6576.592,791.483 6648.592,899.483 6804.275,514.108 		"/>
		
			<polygon fill="none" stroke="#D0D2D3" stroke-width="5" stroke-linecap="round" stroke-linejoin="round" stroke-miterlimit="10" points="
			6396.592,746.483 6273.275,899.483 6576.592,791.483 		"/>
		
			<polygon fill="none" stroke="#D0D2D3" stroke-width="5" stroke-linecap="round" stroke-linejoin="round" stroke-miterlimit="10" points="
			6273.275,899.483 6648.592,899.483 6504.592,1043.483 		"/>
		
			<polygon fill="none" stroke="#404041" stroke-width="5" stroke-linecap="round" stroke-linejoin="round" stroke-miterlimit="10" points="
			6537.924,413.483 6711.145,413.483 6648.592,107.483 		"/>
		
			<polygon fill="none" stroke="#6D6E70" stroke-width="5" stroke-linecap="round" stroke-linejoin="round" stroke-miterlimit="10" points="
			6804.275,514.108 6648.592,107.483 6711.145,413.483 		"/>
		
			<polygon fill="none" stroke="#6D6E70" stroke-width="5" stroke-linecap="round" stroke-linejoin="round" stroke-miterlimit="10" points="
			6648.592,107.483 6537.924,413.483 6273.275,539.483 		"/>
		
			<polygon fill="none" stroke="#D0D2D3" stroke-width="5" stroke-linecap="round" stroke-linejoin="round" stroke-miterlimit="10" points="
			6396.592,746.483 6804.275,514.108 6504.592,1043.483 		"/>
	</g>
	<g>
		
			<polygon fill="none" stroke="#404041" stroke-width="5" stroke-linecap="round" stroke-linejoin="round" stroke-miterlimit="10" points="
			6028.086,690.804 5720.063,913.29 5633.453,763.278 		"/>
		
			<polygon fill="none" stroke="#404041" stroke-width="5" stroke-linecap="round" stroke-linejoin="round" stroke-miterlimit="10" points="
			6028.086,690.804 5674.031,632.312 5633.453,763.278 		"/>
		
			<polygon fill="none" stroke="#6D6E70" stroke-width="5" stroke-linecap="round" stroke-linejoin="round" stroke-miterlimit="10" points="
			6030.221,980.556 5720.063,913.29 5633.453,763.278 		"/>
		
			<polygon fill="none" stroke="#6D6E70" stroke-width="5" stroke-linecap="round" stroke-linejoin="round" stroke-miterlimit="10" points="
			6030.221,980.556 6079.115,869.188 5674.031,632.312 		"/>
		
			<polygon fill="none" stroke="#929497" stroke-width="5" stroke-linecap="round" stroke-linejoin="round" stroke-miterlimit="10" points="
			5961.506,1079.483 5720.063,913.29 6030.221,980.556 		"/>
		
			<polygon fill="none" stroke="#6D6E70" stroke-width="5" stroke-linecap="round" stroke-linejoin="round" stroke-miterlimit="10" points="
			6030.221,980.556 6028.086,690.804 6079.115,869.188 		"/>
		
			<polygon fill="none" stroke="#6D6E70" stroke-width="5" stroke-linecap="round" stroke-linejoin="round" stroke-miterlimit="10" points="
			6028.086,690.804 6085.617,574.45 5674.031,632.312 		"/>
		
			<polygon fill="none" stroke="#D0D2D3" stroke-width="5" stroke-linecap="round" stroke-linejoin="round" stroke-miterlimit="10" points="
			6079.115,869.188 6273.275,899.483 6028.086,690.804 		"/>
		
			<polygon fill="none" stroke="#D0D2D3" stroke-width="5" stroke-linecap="round" stroke-linejoin="round" stroke-miterlimit="10" points="
			6273.275,899.483 6085.617,574.45 6282.324,627.157 		"/>
		
			<polygon fill="none" stroke="#404041" stroke-width="5" stroke-linecap="round" stroke-linejoin="round" stroke-miterlimit="10" points="
			5720.063,913.29 5633.453,763.278 5399.725,970.45 		"/>
		
			<polygon fill="none" stroke="#6D6E70" stroke-width="5" stroke-linecap="round" stroke-linejoin="round" stroke-miterlimit="10" points="
			5674.031,632.312 5399.725,970.45 5633.453,763.278 		"/>
		
			<polygon fill="none" stroke="#6D6E70" stroke-width="5" stroke-linecap="round" stroke-linejoin="round" stroke-miterlimit="10" points="
			5399.725,970.45 5720.063,913.29 5961.506,1079.483 		"/>
		
			<polygon fill="none" stroke="#D0D2D3" stroke-width="5" stroke-linecap="round" stroke-linejoin="round" stroke-miterlimit="10" points="
			6079.115,869.188 5674.031,632.312 6282.324,627.157 		"/>
	</g>
	<g>
		
			<polygon fill="none" stroke="#404041" stroke-width="5" stroke-linecap="round" stroke-linejoin="round" stroke-miterlimit="10" points="
			6215.146,1216.163 6561.838,1371.675 6475.229,1521.688 		"/>
		
			<polygon fill="none" stroke="#404041" stroke-width="5" stroke-linecap="round" stroke-linejoin="round" stroke-miterlimit="10" points="
			6215.146,1216.163 6341.52,1552.03 6475.229,1521.688 		"/>
		
			<polygon fill="none" stroke="#6D6E70" stroke-width="5" stroke-linecap="round" stroke-linejoin="round" stroke-miterlimit="10" points="
			6465.014,1069.438 6561.838,1371.675 6475.229,1521.688 		"/>
		
			<polygon fill="none" stroke="#6D6E70" stroke-width="5" stroke-linecap="round" stroke-linejoin="round" stroke-miterlimit="10" points="
			6465.014,1069.438 6344.119,1082.778 6341.52,1552.03 		"/>
		
			<polygon fill="none" stroke="#929497" stroke-width="5" stroke-linecap="round" stroke-linejoin="round" stroke-miterlimit="10" points="
			6585.043,1079.483 6561.838,1371.675 6465.014,1069.438 		"/>
		
			<polygon fill="none" stroke="#6D6E70" stroke-width="5" stroke-linecap="round" stroke-linejoin="round" stroke-miterlimit="10" points="
			6465.014,1069.438 6215.146,1216.163 6344.119,1082.778 		"/>
		
			<polygon fill="none" stroke="#6D6E70" stroke-width="5" stroke-linecap="round" stroke-linejoin="round" stroke-miterlimit="10" points="
			6215.146,1216.163 6085.617,1224.517 6341.52,1552.03 		"/>
		
			<polygon fill="none" stroke="#D0D2D3" stroke-width="5" stroke-linecap="round" stroke-linejoin="round" stroke-miterlimit="10" points="
			6344.119,1082.778 6273.275,899.483 6215.146,1216.163 		"/>
		
			<polygon fill="none" stroke="#D0D2D3" stroke-width="5" stroke-linecap="round" stroke-linejoin="round" stroke-miterlimit="10" points="
			6273.275,899.483 6085.617,1224.517 6032.91,1027.808 		"/>
		
			<polygon fill="none" stroke="#404041" stroke-width="5" stroke-linecap="round" stroke-linejoin="round" stroke-miterlimit="10" points="
			6561.838,1371.675 6475.229,1521.688 6771.51,1620.517 		"/>
		
			<polygon fill="none" stroke="#6D6E70" stroke-width="5" stroke-linecap="round" stroke-linejoin="round" stroke-miterlimit="10" points="
			6341.52,1552.03 6771.51,1620.517 6475.229,1521.688 		"/>
		
			<polygon fill="none" stroke="#6D6E70" stroke-width="5" stroke-linecap="round" stroke-linejoin="round" stroke-miterlimit="10" points="
			6771.51,1620.517 6561.838,1371.675 6585.043,1079.483 		"/>
		
			<polygon fill="none" stroke="#D0D2D3" stroke-width="5" stroke-linecap="round" stroke-linejoin="round" stroke-miterlimit="10" points="
			6344.119,1082.778 6341.52,1552.03 6032.91,1027.808 		"/>
	</g>
</g>
<g>
	
		<polygon fill="none" stroke="#404041" stroke-width="5" stroke-linecap="round" stroke-linejoin="round" stroke-miterlimit="10" points="
		4266,-760.5 3726,-1174.5 4392,-985.5 	"/>
	
		<polygon fill="none" stroke="#404041" stroke-width="5" stroke-linecap="round" stroke-linejoin="round" stroke-miterlimit="10" points="
		4266,-760.5 4392,-985.5 4986,-904.5 	"/>
	
		<polygon fill="none" stroke="#404041" stroke-width="5" stroke-linecap="round" stroke-linejoin="round" stroke-miterlimit="10" points="
		4266,-760.5 4707,-454.5 4095,-724.5 	"/>
	
		<polygon fill="none" stroke="#6D6E70" stroke-width="5" stroke-linecap="round" stroke-linejoin="round" stroke-miterlimit="10" points="
		4293,-1066.5 4122,-931.5 4095,-724.5 4266,-760.5 4392,-985.5 	"/>
	
		<polygon fill="none" stroke="#929497" stroke-width="5" stroke-linecap="round" stroke-linejoin="round" stroke-miterlimit="10" points="
		4392,-985.5 4293,-1066.5 4569.195,-1309.5 	"/>
	
		<polygon fill="none" stroke="#D0D2D3" stroke-width="5" stroke-linecap="round" stroke-linejoin="round" stroke-miterlimit="10" points="
		4707,-454.5 4986,-904.5 4569.195,-1309.5 	"/>
	
		<polygon fill="none" stroke="#929497" stroke-width="5" stroke-linecap="round" stroke-linejoin="round" stroke-miterlimit="10" points="
		4095,-724.5 4122,-931.5 3861,-751.5 	"/>
	
		<polygon fill="none" stroke="#929497" stroke-width="5" stroke-linecap="round" stroke-linejoin="round" stroke-miterlimit="10" points="
		3861,-751.5 4293,-1255.5 3726,-1174.5 	"/>
	
		<polygon fill="none" stroke="#D0D2D3" stroke-width="5" stroke-linecap="round" stroke-linejoin="round" stroke-miterlimit="10" points="
		4122,-931.5 4293,-1066.5 4293,-1255.5 	"/>
</g>
</svg>
