<?xml version="1.0" encoding="UTF-8" standalone="no"?>
<!-- Created with Inkscape (http://www.inkscape.org/) -->

<svg
   xmlns:dc="http://purl.org/dc/elements/1.1/"
   xmlns:cc="http://creativecommons.org/ns#"
   xmlns:rdf="http://www.w3.org/1999/02/22-rdf-syntax-ns#"
   xmlns:svg="http://www.w3.org/2000/svg"
   xmlns="http://www.w3.org/2000/svg"
   xmlns:sodipodi="http://sodipodi.sourceforge.net/DTD/sodipodi-0.dtd"
   xmlns:inkscape="http://www.inkscape.org/namespaces/inkscape"
   id="svg2"
   version="1.1"
   inkscape:version="0.48.4 r9939"
   width="1024"
   height="1024"
   sodipodi:docname="birdie.svg">
  <metadata
     id="metadata8">
    <rdf:RDF>
      <cc:Work
         rdf:about="">
        <dc:format>image/svg+xml</dc:format>
        <dc:type
           rdf:resource="http://purl.org/dc/dcmitype/StillImage" />
        <dc:title></dc:title>
      </cc:Work>
    </rdf:RDF>
  </metadata>
  <defs
     id="defs6" />
  <sodipodi:namedview
     pagecolor="#ffffff"
     bordercolor="#666666"
     borderopacity="1"
     objecttolerance="10"
     gridtolerance="10"
     guidetolerance="10"
     inkscape:pageopacity="0"
     inkscape:pageshadow="2"
     inkscape:window-width="1600"
     inkscape:window-height="852"
     id="namedview4"
     showgrid="true"
     inkscape:showpageshadow="false"
     inkscape:object-paths="true"
     inkscape:snap-intersection-paths="true"
     inkscape:object-nodes="true"
     inkscape:snap-smooth-nodes="false"
     inkscape:snap-midpoints="true"
     inkscape:zoom="0.66894531"
     inkscape:cx="512"
     inkscape:cy="512"
     inkscape:window-x="0"
     inkscape:window-y="25"
     inkscape:window-maximized="1"
     inkscape:current-layer="svg2"
     showguides="false"
     inkscape:snap-object-midpoints="true"
     inkscape:snap-center="true"
     inkscape:snap-grids="true"
     inkscape:snap-bbox="false"
     inkscape:snap-global="true"
     inkscape:snap-to-guides="false">
    <inkscape:grid
       type="xygrid"
       id="grid2987"
       empspacing="8"
       visible="true"
       enabled="true"
       snapvisiblegridlinesonly="true" />
  </sodipodi:namedview>
  <rect
     style="fill:#673a26;fill-opacity:1;stroke:none"
     id="rect4723"
     width="1024"
     height="1024"
     x="0"
     y="0" />
  <g
     inkscape:groupmode="layer"
     id="layer1"
     inkscape:label="Layer"
     style="display:inline">
    <path
       style="fill:#71e2fb;fill-opacity:1;stroke:none"
       d="m 336,392 168,96 -48,-40 z"
       id="path3153"
       inkscape:connector-curvature="0" />
    <path
       style="fill:#44838f;fill-opacity:1;stroke:none"
       d="m 712,704 -8,24 296,104 z"
       id="path3171"
       inkscape:connector-curvature="0"
       sodipodi:nodetypes="cccc" />
    <path
       style="fill:#1b4134;fill-opacity:1;stroke:none"
       d="M 584,784 496,757.36454 368,688 z"
       id="path4049"
       inkscape:connector-curvature="0" />
    <path
       style="fill:#003744;fill-opacity:1;stroke:none"
       d="m 712,776 32,-16 -48,-8 z"
       id="path3237"
       inkscape:connector-curvature="0" />
    <path
       style="fill:#0e7ecd;fill-opacity:1;stroke:none"
       d="m 360,552 104,96 -96,40 z"
       id="path3183"
       inkscape:connector-curvature="0" />
    <path
       style="fill:#0f9ff4;fill-opacity:1;stroke:none"
       d="m 328,632 8,-24 32,80 z"
       id="path3095"
       inkscape:connector-curvature="0" />
    <path
       style="fill:#429593;fill-opacity:1;stroke:none"
       d="m 320,568 -64,-48 80,88 z"
       id="path3101"
       inkscape:connector-curvature="0" />
    <path
       style="fill:#c5c2bd;fill-opacity:1;stroke:none"
       d="m 320,864 8,-24 24,-24 48,0 24,16 16,0 0,56 48,8 -8,64 -32,40 0,24 -112,0 -8,-32 16,-32 -8,-48 -16,-32 z"
       id="path4037"
       inkscape:connector-curvature="0" />
    <path
       style="fill:#577261;fill-opacity:1;stroke:none"
       d="m 176,520 80,0 8,-16 z"
       id="path3015"
       inkscape:connector-curvature="0" />
    <path
       style="fill:#152525;fill-opacity:1;stroke:none"
       d="m 176,520 64,-24 -8,-24 z"
       id="path3011"
       inkscape:connector-curvature="0" />
    <path
       style="fill:#c9dbe8;fill-opacity:1;stroke:none"
       d="m 176,520 64,-24 c 0,0 24,8 24,8 z"
       id="path3013"
       inkscape:connector-curvature="0" />
    <path
       style="fill:#a3bfd4;fill-opacity:1;stroke:none"
       d="m 176,520 8,-16 c 0,0 48,-32 48,-32 z"
       id="path3009"
       inkscape:connector-curvature="0" />
    <path
       style="fill:#93abc0;fill-opacity:1;stroke:none"
       d="m 232,472 -16,0 -32,32 z"
       id="path3017"
       inkscape:connector-curvature="0" />
    <path
       style="fill:#076edd;fill-opacity:1;stroke:none"
       d="m 216,472 16,-40 0,40 z"
       id="path3019"
       inkscape:connector-curvature="0" />
    <path
       style="fill:#2295ef;fill-opacity:1;stroke:none"
       d="m 232,432 48,-40 -48,80 z"
       id="path3021"
       inkscape:connector-curvature="0"
       sodipodi:nodetypes="cccc" />
    <path
       style="fill:#012f5e;fill-opacity:1;stroke:none"
       d="m 240,496 72,-40 -48,48 z"
       id="path3025"
       inkscape:connector-curvature="0" />
    <path
       style="fill:#1f383d;fill-opacity:1;stroke:none"
       d="m 240,496 80,-72 -88,48 z"
       id="path3027"
       inkscape:connector-curvature="0" />
    <path
       style="fill:#07577d;fill-opacity:1;stroke:none"
       d="m 216,520 8,40 32,-40 z"
       id="path3029"
       inkscape:connector-curvature="0"
       sodipodi:nodetypes="cccc" />
    <path
       style="fill:#106dd9;fill-opacity:1;stroke:none"
       d="M 224,560 328,632 256,520 z"
       id="path3031"
       inkscape:connector-curvature="0"
       sodipodi:nodetypes="cccc" />
    <path
       style="fill:#0c9fdc;fill-opacity:1;stroke:none"
       d="m 216,584 0,40 64,120 z"
       id="path3033"
       inkscape:connector-curvature="0" />
    <path
       style="fill:#085768;fill-opacity:1;stroke:none"
       d="m 280,744 120,72 0,-24 z"
       id="path3035"
       inkscape:connector-curvature="0" />
    <path
       style="fill:#0b86df;fill-opacity:1;stroke:none"
       d="M 328,632 280,744 216,584 z"
       id="path3037"
       inkscape:connector-curvature="0" />
    <path
       style="fill:#1498e0;fill-opacity:1;stroke:none"
       d="m 360,552 -24,56 c 0,0 32,80 32,80 z"
       id="path3039"
       inkscape:connector-curvature="0" />
    <path
       style="fill:#095a6c;fill-opacity:1;stroke:none"
       d="m 368,688 128,96 0,-26.63546 z"
       id="path3041"
       inkscape:connector-curvature="0"
       sodipodi:nodetypes="cccc" />
    <path
       style="fill:#3a502e;fill-opacity:1;stroke:none"
       d="m 368,688 272,112 120,32 z"
       id="path3043"
       inkscape:connector-curvature="0" />
    <path
       style="fill:#403d2a;fill-opacity:1;stroke:none"
       d="M 760,832 744,800 368,688 z"
       id="path3045"
       inkscape:connector-curvature="0" />
    <path
       style="fill:#5b5346;fill-opacity:1;stroke:none"
       d="m 368,688 344,88 -16,-24 z"
       id="path3069"
       inkscape:connector-curvature="0"
       sodipodi:nodetypes="cccc" />
    <path
       style="fill:#738376;fill-opacity:1;stroke:none"
       d="m 368,688 328,64 16,-8 z"
       id="path3071"
       inkscape:connector-curvature="0"
       sodipodi:nodetypes="cccc" />
    <path
       style="fill:#3b6d6d;fill-opacity:1;stroke:none"
       d="M 712,744 704,728 368,688 z"
       id="path3075"
       inkscape:connector-curvature="0"
       sodipodi:nodetypes="cccc" />
    <path
       style="fill:#133223;fill-opacity:1;stroke:none"
       d="m 400,816 104,16 24,-32 z"
       id="path3077"
       inkscape:connector-curvature="0" />
    <path
       style="fill:#0e2a1e;fill-opacity:1;stroke:none"
       d="m 400,816 0,-24 128,8 z"
       id="path3079"
       inkscape:connector-curvature="0" />
    <path
       style="fill:#0a3a22;fill-opacity:1;stroke:none"
       d="m 528,800 8,24 -32,8 z"
       id="path3081"
       inkscape:connector-curvature="0"
       sodipodi:nodetypes="cccc" />
    <path
       style="fill:#042a32;fill-opacity:1;stroke:none"
       d="m 528,800 56,-16 -88,-26.63546 z"
       id="path3083"
       inkscape:connector-curvature="0"
       sodipodi:nodetypes="cccc" />
    <path
       style="fill:#07414e;fill-opacity:1;stroke:none"
       d="M 528,800 496,757.36454 496,784 z"
       id="path3085"
       inkscape:connector-curvature="0"
       sodipodi:nodetypes="cccc" />
    <path
       style="fill:#21423c;fill-opacity:1;stroke:none"
       d="m 528,800 -128,-8 96,-8 z"
       id="path3087"
       inkscape:connector-curvature="0" />
    <path
       style="fill:#05506a;fill-opacity:1;stroke:none"
       d="m 400,792 c 0,0 -32,-104 -32,-104 l 128,96 z"
       id="path3089"
       inkscape:connector-curvature="0" />
    <path
       style="fill:#295d51;fill-opacity:1;stroke:none"
       d="M 400,792 368,688 280,744 z"
       id="path3091"
       inkscape:connector-curvature="0" />
    <path
       style="fill:#0a72a1;fill-opacity:1;stroke:none"
       d="m 280,744 88,-56 -40,-56 z"
       id="path3093"
       inkscape:connector-curvature="0" />
    <path
       style="fill:#0f63ab;fill-opacity:1;stroke:none"
       d="m 328,632 8,-24 -80,-88 z"
       id="path3097"
       inkscape:connector-curvature="0" />
    <path
       style="fill:#1165ae;fill-opacity:1;stroke:none"
       d="m 256,520 96,8 -32,40 z"
       id="path3099"
       inkscape:connector-curvature="0" />
    <path
       style="fill:#305b5a;fill-opacity:1;stroke:none"
       d="m 320,568 40,-16 c 0,0 -24,56 -24,56 z"
       id="path3103"
       inkscape:connector-curvature="0" />
    <path
       style="fill:#3f96d4;fill-opacity:1;stroke:none"
       d="m 320,568 40,-16 -8,-24 z"
       id="path3105"
       inkscape:connector-curvature="0" />
    <path
       style="fill:#05a5ee;fill-opacity:1;stroke:none"
       d="m 312,456 c 0,0 56,0 56,0 l -104,48 z"
       id="path3107"
       inkscape:connector-curvature="0" />
    <path
       style="fill:#037ade;fill-opacity:1;stroke:none"
       d="m 264,504 -8,16 112,-64 z"
       id="path3109"
       inkscape:connector-curvature="0" />
    <path
       style="fill:#015bc2;fill-opacity:1;stroke:none"
       d="m 256,520 112,-64 -40,56 z"
       id="path3113"
       inkscape:connector-curvature="0" />
    <path
       style="fill:#1270cb;fill-opacity:1;stroke:none"
       d="m 328,512 24,16 -96,-8 z"
       id="path3115"
       inkscape:connector-curvature="0" />
    <path
       style="fill:#133e42;fill-opacity:1;stroke:none"
       d="M 584,784 640,800 368,688 z"
       id="path3117"
       inkscape:connector-curvature="0" />
    <path
       style="fill:#052523;fill-opacity:1;stroke:none"
       d="m 536,824 48,-40 -56,16 z"
       id="path3119"
       inkscape:connector-curvature="0"
       sodipodi:nodetypes="cccc" />
    <path
       style="fill:#0e0b0c;fill-opacity:1;stroke:none"
       d="m 504,832 -48,80 80,-88 z"
       id="path3121"
       inkscape:connector-curvature="0"
       sodipodi:nodetypes="cccc" />
    <path
       style="fill:#292b2d;fill-opacity:1;stroke:none"
       d="m 456,912 -16,0 -56,32 z"
       id="path3123"
       inkscape:connector-curvature="0"
       sodipodi:nodetypes="cccc" />
    <path
       style="fill:#07100d;fill-opacity:1;stroke:none"
       d="m 456,912 -64,40 -8,-8 z"
       id="path3125"
       inkscape:connector-curvature="0"
       sodipodi:nodetypes="cccc" />
    <path
       style="fill:#333230;fill-opacity:1;stroke:none"
       d="m 456,912 -48,0 0,-8 z"
       id="path3129"
       inkscape:connector-curvature="0"
       sodipodi:nodetypes="cccc" />
    <path
       style="fill:#212227;fill-opacity:1;stroke:none"
       d="m 408,904 48,8 0,-8 z"
       id="path3131"
       inkscape:connector-curvature="0"
       sodipodi:nodetypes="cccc" />
    <path
       style="fill:#35a5f9;fill-opacity:1;stroke:none"
       d="m 280,392 24,-8 -72,88 z"
       id="path3133"
       inkscape:connector-curvature="0" />
    <path
       style="fill:#0b80f2;fill-opacity:1;stroke:none"
       d="m 304,384 32,8 -104,80 z"
       id="path3135"
       inkscape:connector-curvature="0" />
    <path
       style="fill:#0875dd;fill-opacity:1;stroke:none"
       d="m 336,392 -16,32 -88,48 z"
       id="path3137"
       inkscape:connector-curvature="0" />
    <path
       style="fill:#364d52;fill-opacity:1;stroke:none"
       d="m 320,424 32,0 -112,72 z"
       id="path3139"
       inkscape:connector-curvature="0" />
    <path
       style="fill:#0a1814;fill-opacity:1;stroke:none"
       d="m 352,424 -112,72 72,-40 z"
       id="path3141"
       inkscape:connector-curvature="0" />
    <path
       style="fill:#0985e4;fill-opacity:1;stroke:none"
       d="m 352,424 16,32 -56,0 z"
       id="path3143"
       inkscape:connector-curvature="0" />
    <path
       style="fill:#0557c4;fill-opacity:1;stroke:none"
       d="m 352,424 -16,-32 -16,32 z"
       id="path3145"
       inkscape:connector-curvature="0" />
    <path
       style="fill:#4abffb;fill-opacity:1;stroke:none"
       d="m 336,392 120,96 48,0 z"
       id="path3151"
       inkscape:connector-curvature="0" />
    <path
       style="fill:#0aa1f2;fill-opacity:1;stroke:none"
       d="m 336,392 c 0,0 32,64 32,64 l 88,32 z"
       id="path3155"
       inkscape:connector-curvature="0" />
    <path
       style="fill:#0fb1ef;fill-opacity:1;stroke:none"
       d="m 504,488 72,40 88,104 z"
       id="path3157"
       inkscape:connector-curvature="0" />
    <path
       style="fill:#11b5f5;fill-opacity:1;stroke:none"
       d="M 456,488 664,632 C 664,632 504,488 504,488 z"
       id="path3159"
       inkscape:connector-curvature="0" />
    <path
       style="fill:#0c7fdd;fill-opacity:1;stroke:none"
       d="m 368,456 -40,56 128,-24 z"
       id="path3161"
       inkscape:connector-curvature="0" />
    <path
       style="fill:#0276df;fill-opacity:1;stroke:none"
       d="M 352,528 328,512 456,488 z"
       id="path3163"
       inkscape:connector-curvature="0" />
    <path
       style="fill:#0196e4;fill-opacity:1;stroke:none"
       d="m 456,488 208,144 48,72 z"
       id="path3165"
       inkscape:connector-curvature="0" />
    <path
       style="fill:#2083aa;fill-opacity:1;stroke:none"
       d="M 712,704 704,728 552,592 z"
       id="path3167"
       inkscape:connector-curvature="0"
       sodipodi:nodetypes="cccc" />
    <path
       style="fill:#518495;fill-opacity:1;stroke:none"
       d="M 712,704 824,736 664,632 z"
       id="path3169"
       inkscape:connector-curvature="0"
       sodipodi:nodetypes="cccc" />
    <path
       style="fill:#4a8e9c;fill-opacity:1;stroke:none"
       d="M 712,704 960,840 928,792 z"
       id="path3173"
       inkscape:connector-curvature="0"
       sodipodi:nodetypes="cccc" />
    <path
       style="fill:#849c89;fill-opacity:1;stroke:none"
       d="M 744,800 712,776 368,688 z"
       id="path3175"
       inkscape:connector-curvature="0" />
    <path
       style="fill:#0989c7;fill-opacity:1;stroke:none"
       d="m 456,488 -96,64 -8,-24 z"
       id="path3177"
       inkscape:connector-curvature="0" />
    <path
       style="fill:#3fa8de;fill-opacity:1;stroke:none"
       d="M 360,552 552,592 456,488 z"
       id="path3179"
       inkscape:connector-curvature="0"
       sodipodi:nodetypes="cccc" />
    <path
       style="fill:#0f6692;fill-opacity:1;stroke:none"
       d="m 456,488 96,104 160,112 z"
       id="path3181"
       inkscape:connector-curvature="0" />
    <path
       style="fill:#1476ae;fill-opacity:1;stroke:none"
       d="M 464,648 632,688 360,552 z"
       id="path3185"
       inkscape:connector-curvature="0" />
    <path
       style="fill:#284344;fill-opacity:1;stroke:none"
       d="M 360,552 632,688 552,592 z"
       id="path3187"
       inkscape:connector-curvature="0" />
    <path
       style="fill:#7e7a59;fill-opacity:1;stroke:none"
       d="m 552,592 80,96 72,40 z"
       id="path3189"
       inkscape:connector-curvature="0" />
    <path
       style="fill:#107ca1;fill-opacity:1;stroke:none"
       d="m 464,648 240,80 -72,-40 z"
       id="path3191"
       inkscape:connector-curvature="0" />
    <path
       style="fill:#042d40;fill-opacity:1;stroke:none"
       d="m 368,688 96,-40 48,40 z"
       id="path3193"
       inkscape:connector-curvature="0"
       sodipodi:nodetypes="cccc" />
    <path
       style="fill:#05313e;fill-opacity:1;stroke:none"
       d="m 536,824 48,-40 56,16 z"
       id="path3233"
       inkscape:connector-curvature="0"
       sodipodi:nodetypes="cccc" />
    <path
       style="fill:#0f9ff4;fill-opacity:1;stroke:none"
       d="m 224,560 -8,24 112,48 z"
       id="path3235"
       inkscape:connector-curvature="0"
       sodipodi:nodetypes="cccc" />
    <path
       style="fill:#014a64;fill-opacity:1;stroke:none"
       d="m 744,760 32,0 -64,-56 z"
       id="path3239"
       inkscape:connector-curvature="0"
       sodipodi:nodetypes="cccc" />
    <path
       style="fill:#0757a2;fill-opacity:1;stroke:none"
       d="m 744,760 -32,-56 -8,24 z"
       id="path3241"
       inkscape:connector-curvature="0" />
    <path
       style="fill:#022e39;fill-opacity:1;stroke:none"
       d="m 704,728 8,16 32,16 z"
       id="path3243"
       inkscape:connector-curvature="0" />
    <path
       style="fill:#03485b;fill-opacity:1;stroke:none"
       d="m 712,744 -16,8 48,8 z"
       id="path3245"
       inkscape:connector-curvature="0" />
    <path
       style="fill:#255545;fill-opacity:1;stroke:none"
       d="m 824,736 c 0,0 104,56 104,56 L 712,704 z"
       id="path3247"
       inkscape:connector-curvature="0" />
    <path
       style="fill:#333230;fill-opacity:1;stroke:none"
       d="m 400,816 -52,-8 4,8 z"
       id="path4023"
       inkscape:connector-curvature="0"
       sodipodi:nodetypes="cccc" />
    <path
       style="fill:#0c0703;fill-opacity:1;stroke:none"
       d="m 348,808 -28,24 32,-16 z"
       id="path4025"
       inkscape:connector-curvature="0"
       sodipodi:nodetypes="cccc" />
    <path
       style="fill:#292b2d;fill-opacity:1;stroke:none"
       d="m 320,832 0,32 8,-24 z"
       id="path4027"
       inkscape:connector-curvature="0" />
    <path
       style="fill:#052816;fill-opacity:1;stroke:none"
       d="m 328,840 24,-24 -32,16 z"
       id="path4029"
       inkscape:connector-curvature="0" />
    <path
       style="fill:#292b2d;fill-opacity:1;stroke:none"
       d="m 400,816 24,8 0,8 z"
       id="path4031"
       inkscape:connector-curvature="0" />
    <path
       style="fill:#38424a;fill-opacity:1;stroke:none"
       d="m 424,824 16,8 -16,0 z"
       id="path4033"
       inkscape:connector-curvature="0" />
    <path
       style="fill:#272d29;fill-opacity:1;stroke:none"
       d="m 424,832 -8,24 24,-24 z"
       id="path4035"
       inkscape:connector-curvature="0" />
    <path
       style="fill:#4e6361;fill-opacity:1;stroke:none"
       d="M 512,688 704,728 368,688 z"
       id="path4039"
       inkscape:connector-curvature="0" />
    <path
       style="fill:#738376;fill-opacity:1;stroke:none"
       d="m 512,688 -48,-40 240,80 z"
       id="path4041"
       inkscape:connector-curvature="0" />
    <path
       style="fill:#025d97;fill-opacity:1;stroke:none"
       d="M 776,760 960,840 712,704 z"
       id="path4043"
       inkscape:connector-curvature="0"
       sodipodi:nodetypes="cccc" />
    <path
       style="fill:#38424a;fill-opacity:1;stroke:none"
       d="m 504,832 -48,72 0,8 z"
       id="path4051"
       inkscape:connector-curvature="0" />
    <path
       style="fill:#3c4144;fill-opacity:1;stroke:none"
       d="m 384,944 -8,32 16,-24 z"
       id="path4053"
       inkscape:connector-curvature="0"
       sodipodi:nodetypes="cccc" />
    <path
       style="fill:#272d29;fill-opacity:1;stroke:none"
       d="m 408,904 0,8 -24,8 z"
       id="path4055"
       inkscape:connector-curvature="0"
       sodipodi:nodetypes="cccc" />
    <path
       style="fill:#0e0b0c;fill-opacity:1;stroke:none"
       d="m 408,960 -8,24 16,-24 z"
       id="path4057"
       inkscape:connector-curvature="0" />
    <path
       style="fill:#202831;fill-opacity:1;stroke:none"
       d="m 456,920 8,-8 40,-80 -48,80 z"
       id="path4059"
       inkscape:connector-curvature="0"
       sodipodi:nodetypes="ccccc" />
    <path
       style="fill:#181e19;fill-opacity:1;stroke:none"
       d="m 456,912 0,8 -48,40 z"
       id="path3127"
       inkscape:connector-curvature="0"
       sodipodi:nodetypes="cccc" />
    <path
       style="fill:#272d29;fill-opacity:1;stroke:none"
       d="m 464,920 -56,40 8,0 z"
       id="path4021"
       inkscape:connector-curvature="0"
       sodipodi:nodetypes="cccc" />
    <path
       style="fill:#212227;fill-opacity:1;stroke:none"
       d="m 464,912 0,8 -56,40 z"
       id="path4061"
       inkscape:connector-curvature="0" />
    <path
       style="fill:#212227;fill-opacity:1;stroke:#000000;stroke-width:0.2;stroke-linecap:butt;stroke-linejoin:miter;stroke-miterlimit:4;stroke-opacity:1;stroke-dasharray:none"
       d="m 400,816 -40,8 -8,-8 z"
       id="path4017"
       inkscape:connector-curvature="0"
       sodipodi:nodetypes="cccc" />
    <path
       style="fill:#3c4144;fill-opacity:1;stroke:#000000;stroke-width:0.2;stroke-linecap:butt;stroke-linejoin:miter;stroke-miterlimit:4;stroke-opacity:1;stroke-dasharray:none"
       d="m 360,824 -8,24 0,-32 z"
       id="path4019"
       inkscape:connector-curvature="0" />
  </g>
</svg>
