<?xml version="1.0" encoding="UTF-8" standalone="no"?>
<!-- Created with Inkscape (http://www.inkscape.org/) -->

<svg
   xmlns:dc="http://purl.org/dc/elements/1.1/"
   xmlns:cc="http://creativecommons.org/ns#"
   xmlns:rdf="http://www.w3.org/1999/02/22-rdf-syntax-ns#"
   xmlns:svg="http://www.w3.org/2000/svg"
   xmlns="http://www.w3.org/2000/svg"
   xmlns:sodipodi="http://sodipodi.sourceforge.net/DTD/sodipodi-0.dtd"
   xmlns:inkscape="http://www.inkscape.org/namespaces/inkscape"
   width="1024"
   height="1024"
   id="svg2"
   version="1.1"
   inkscape:version="0.48.4 r9939"
   sodipodi:docname="drawing.svg"
   inkscape:export-filename="/home/nathanel/brick-geek-blue.png"
   inkscape:export-xdpi="90"
   inkscape:export-ydpi="90">
  <defs
     id="defs4" />
  <sodipodi:namedview
     id="base"
     pagecolor="#ffffff"
     bordercolor="#666666"
     borderopacity="1.0"
     inkscape:pageopacity="0.0"
     inkscape:pageshadow="2"
     inkscape:zoom="0.87304688"
     inkscape:cx="512"
     inkscape:cy="512"
     inkscape:document-units="px"
     inkscape:current-layer="layer2"
     showgrid="false"
     inkscape:showpageshadow="false"
     borderlayer="true"
     showguides="false"
     inkscape:guide-bbox="true"
     inkscape:object-paths="true"
     inkscape:snap-intersection-paths="true"
     inkscape:object-nodes="true"
     inkscape:snap-smooth-nodes="true"
     inkscape:snap-midpoints="true"
     inkscape:snap-object-midpoints="true"
     inkscape:snap-center="true">
    <inkscape:grid
       type="xygrid"
       id="grid2985"
       empspacing="4"
       visible="true"
       enabled="true"
       snapvisiblegridlinesonly="true" />
    <sodipodi:guide
       orientation="1,0"
       position="512,224"
       id="guide3061" />
    <sodipodi:guide
       orientation="0,1"
       position="728,296"
       id="guide3083" />
    <sodipodi:guide
       orientation="0,1"
       position="520,536"
       id="guide3092" />
    <sodipodi:guide
       orientation="0,1"
       position="628,448"
       id="guide4465" />
  </sodipodi:namedview>
  <metadata
     id="metadata7">
    <rdf:RDF>
      <cc:Work
         rdf:about="">
        <dc:format>image/svg+xml</dc:format>
        <dc:type
           rdf:resource="http://purl.org/dc/dcmitype/StillImage" />
        <dc:title></dc:title>
      </cc:Work>
    </rdf:RDF>
  </metadata>
  <g
     inkscape:groupmode="layer"
     id="layer2"
     inkscape:label="Layer"
     style="display:inline">
    <path
       inkscape:connector-curvature="0"
       id="path4772"
       d="M 2.3e-6,1024 416,0 512,0 z"
       style="color:#000000;fill:#2c5aa0;stroke:none;stroke-width:1;marker:none;visibility:visible;display:inline;overflow:visible;enable-background:accumulate"
       sodipodi:nodetypes="cccc" />
    <path
       sodipodi:nodetypes="cccc"
       style="color:#000000;fill:#3771c8;stroke:none;stroke-width:1;marker:none;visibility:visible;display:inline;overflow:visible;enable-background:accumulate"
       d="M 2.3e-6,1024 416,0 320,0 z"
       id="path4774"
       inkscape:connector-curvature="0" />
    <path
       inkscape:connector-curvature="0"
       id="path4776"
       d="M 2.3e-6,1024 224,0 320,0 z"
       style="color:#000000;fill:#5f8dd3;stroke:none;stroke-width:1;marker:none;visibility:visible;display:inline;overflow:visible;enable-background:accumulate"
       sodipodi:nodetypes="cccc" />
    <path
       sodipodi:nodetypes="cccc"
       style="color:#000000;fill:#87aade;stroke:none;stroke-width:1;marker:none;visibility:visible;display:inline;overflow:visible;enable-background:accumulate"
       d="M 2.3e-6,1024 224,0 128,0 z"
       id="path4778"
       inkscape:connector-curvature="0" />
    <path
       inkscape:connector-curvature="0"
       id="path4780"
       d="M 2.3e-6,1024 32.000002,0 128,0 z"
       style="color:#000000;fill:#afc6e9;stroke:none;stroke-width:1;marker:none;visibility:visible;display:inline;overflow:visible;enable-background:accumulate"
       sodipodi:nodetypes="cccc" />
    <path
       sodipodi:nodetypes="cccc"
       style="color:#000000;fill:#d7e3f4;stroke:none;stroke-width:1;marker:none;visibility:visible;display:inline;overflow:visible;enable-background:accumulate"
       d="M 2.3e-6,1024 32.000002,0 2.3e-6,0 z"
       id="path4782"
       inkscape:connector-curvature="0" />
    <path
       sodipodi:nodetypes="cccc"
       style="color:#000000;fill:#2c5aa0;stroke:none;stroke-width:1;stroke-linecap:butt;stroke-linejoin:miter;stroke-miterlimit:4;stroke-opacity:1;stroke-dasharray:none;stroke-dashoffset:0;marker:none;visibility:visible;display:inline;overflow:visible;enable-background:accumulate"
       d="M 1024,1024 608,0 512,0 z"
       id="path4539"
       inkscape:connector-curvature="0" />
    <path
       inkscape:connector-curvature="0"
       id="path4541"
       d="M 1024,1024 608,0 704,0 z"
       style="color:#000000;fill:#3771c8;stroke:none;stroke-width:1;stroke-linecap:butt;stroke-linejoin:miter;stroke-miterlimit:4;stroke-opacity:1;stroke-dasharray:none;stroke-dashoffset:0;marker:none;visibility:visible;display:inline;overflow:visible;enable-background:accumulate"
       sodipodi:nodetypes="cccc" />
    <path
       sodipodi:nodetypes="cccc"
       style="color:#000000;fill:#5f8dd3;stroke:none;stroke-width:1;stroke-linecap:butt;stroke-linejoin:miter;stroke-miterlimit:4;stroke-opacity:1;stroke-dasharray:none;stroke-dashoffset:0;marker:none;visibility:visible;display:inline;overflow:visible;enable-background:accumulate"
       d="M 1024,1024 800,0 704,0 z"
       id="path4543"
       inkscape:connector-curvature="0" />
    <path
       inkscape:connector-curvature="0"
       id="path4545"
       d="M 1024,1024 800,0 896,0 z"
       style="color:#000000;fill:#87aade;stroke:none;stroke-width:1;stroke-linecap:butt;stroke-linejoin:miter;stroke-miterlimit:4;stroke-opacity:1;stroke-dasharray:none;stroke-dashoffset:0;marker:none;visibility:visible;display:inline;overflow:visible;enable-background:accumulate"
       sodipodi:nodetypes="cccc" />
    <path
       sodipodi:nodetypes="cccc"
       style="color:#000000;fill:#afc6e9;stroke:none;stroke-width:1;stroke-linecap:butt;stroke-linejoin:miter;stroke-miterlimit:4;stroke-opacity:1;stroke-dasharray:none;stroke-dashoffset:0;marker:none;visibility:visible;display:inline;overflow:visible;enable-background:accumulate"
       d="M 1024,1024 992,0 896,0 z"
       id="path4547"
       inkscape:connector-curvature="0" />
    <path
       inkscape:connector-curvature="0"
       id="path4549"
       d="M 1024,1024 992,0 l 32,0 z"
       style="color:#000000;fill:#d7e3f4;stroke:none;stroke-width:1;stroke-linecap:butt;stroke-linejoin:miter;stroke-miterlimit:4;stroke-opacity:1;stroke-dasharray:none;stroke-dashoffset:0;marker:none;visibility:visible;display:inline;overflow:visible;enable-background:accumulate"
       sodipodi:nodetypes="cccc" />
    <path
       style="color:#000000;fill:#214478;stroke:none;stroke-width:1;stroke-linecap:butt;stroke-linejoin:miter;stroke-miterlimit:4;stroke-opacity:1;stroke-dasharray:none;stroke-dashoffset:0;marker:none;visibility:visible;display:inline;overflow:visible;enable-background:accumulate"
       d="M 2e-5,1024 1024,1024 512,0 z"
       id="path4513"
       inkscape:connector-curvature="0"
       sodipodi:nodetypes="cccc" />
    <path
       style="color:#000000;fill:#baa3a3;fill-opacity:1;stroke:none;stroke-width:0.25;marker:none;visibility:visible;display:inline;overflow:visible;enable-background:accumulate"
       d="M 536 200 L 488 208 L 472 216 L 472 208 L 448 208 L 424 224 L 416 216 L 400 232 L 384 232 L 376 240 L 360 240 L 320 264 L 328 264 L 288 296 L 296 296 L 272 328 L 256 360 L 240 384 L 256 392 L 232 424 L 240 424 L 208 448 L 224 448 L 208 472 L 232 456 L 224 472 L 232 480 L 240 496 L 224 504 L 216 520 L 224 528 L 216 536 L 232 552 L 232 568 L 224 576 L 232 592 L 216 608 L 232 616 L 224 632 L 240 640 L 232 648 L 224 672 L 232 669.34375 L 232 712 L 264 784 L 280 800 L 296 800 L 304 792 L 312 776 L 320 824 L 352 888 L 344 1024 L 484 1024 L 672 1024 L 664.65625 902.65625 L 704 824 L 712 776 L 720 792 L 728 800 L 744 800 L 760 784 L 792 712 L 792 664 L 776 648 L 760 640 L 776 624 L 768 608 L 776 600 L 784 576 L 784 536 L 768 528 L 776 528 L 776 504 L 776 480 L 760 480 L 768 472 L 768 456 L 752 440 L 744 432 L 752 424 L 752 416 L 736 368 L 720 360 L 704 344 L 704 328 L 688 320 L 688 312 L 656 312 L 648 288 L 632 280 L 624 264 L 608 264 L 600 248 L 584 232 L 576 232 L 536 200 z M 312 448 L 313.03125 450.09375 L 312 453.96875 L 312 448 z "
       id="path4642" />
    <g
       id="g4595"
       style="stroke:none">
      <path
         inkscape:connector-curvature="0"
         style="color:#000000;fill:#baa3a3;fill-opacity:1;stroke:none;stroke-width:0.25000000000000000;marker:none;visibility:visible;display:inline;overflow:visible;enable-background:accumulate"
         d="m 264,640 0,8 8,16 8,24 8,16 -16,16 -24,-16 16,-64 z m 24,64 16,24 0,32 -16,0 -8,-28 8,-28 z"
         id="path4448" />
      <path
         style="color:#000000;fill:#f6d6d6;fill-opacity:1;stroke:none;stroke-width:0.25000000000000000;marker:none;visibility:visible;display:inline;overflow:visible;enable-background:accumulate"
         d="m 264,640 -16,32 0,32 32,72 8,-16 16,0 8,16 -8,16 -8,8 -16,0 -16,-16 -32,-72 0,-48 16,-16 z"
         id="path4450"
         inkscape:connector-curvature="0"
         sodipodi:nodetypes="ccccccccccccccc" />
      <path
         style="color:#000000;fill:#c5a7a7;fill-opacity:1;stroke:none;stroke-width:0.25000000000000000;marker:none;visibility:visible;display:inline;overflow:visible;enable-background:accumulate"
         d="m 264,640 -16,64 24,16 16,-16 -8,28 8,28 16,0 0,-32 8,48 -8,-16 -16,0 -8,16 -32,-72 0,-32 z"
         id="path4452"
         inkscape:connector-curvature="0" />
      <path
         style="color:#000000;fill:none;stroke:none;stroke-width:0.25000000000000000;marker:none;visibility:visible;display:inline;overflow:visible;enable-background:accumulate"
         d="m 312,776 -8,-48 0,32 z"
         id="path4454"
         inkscape:connector-curvature="0" />
      <path
         inkscape:connector-curvature="0"
         id="path4299"
         d="m 512,792 8,-8 32,0 8,8 48,16 -56,-48 -16,-24 -8,-16 24,8 16,0 8,-8 8,-24 -8,-16 -16,-16 -24,-32 -24,-8 0,168 z"
         style="color:#000000;fill:none;stroke:none;stroke-width:0.25000000000000000;marker:none;visibility:visible;display:inline;overflow:visible;enable-background:accumulate" />
      <path
         inkscape:connector-curvature="0"
         id="path4459"
         d="m 512,992 16,0 40,-16 88,-56 48,-96 16,-96 0,-56 8,-24 -8,0 8,-56 -16,8 0,-40 -8,8 8,-24 -16,0 8,-40 -16,0 8,-16 -16,-8 16,0 -24,-16 16,0 -32,-24 16,0 -32,-40 24,0 -24,-24 -24,-24 -48,-16 -8,-8 -8,0 -40,6.65625 L 512,992 z"
         style="color:#000000;fill:#f6d6d6;fill-opacity:1;stroke:none;stroke-width:0.25000000000000000;marker:none;visibility:visible;display:inline;overflow:visible;enable-background:accumulate" />
      <path
         inkscape:connector-curvature="0"
         id="path3075"
         d="m 512,992 0,-657.34375 -8,1.34375 -40,-8 -32,16 -24,8 -24,32 0,-16 -40,48 -24,48 -6.96875,-13.90625 -1.03125,3.875 0,34.03125 -4,40 -4,8 0,52 -16,28 12,-8 -4,60 8,-4 0,64 16,96 48,96 88,56 40,16 16,0 z"
         style="color:#000000;fill:#ffd6d6;fill-opacity:1;stroke:none;stroke-width:0.25000000000000000;marker:none;visibility:visible;display:inline;overflow:visible;enable-background:accumulate" />
      <path
         inkscape:connector-curvature="0"
         id="path3918"
         d="m 720,728 -32,88 -48,88 -72,56 -40,24 -16,8 16,0 40,-16 88,-56 48,-96 z"
         style="color:#000000;fill:#a69292;fill-opacity:1;stroke:none;stroke-width:0.25000000000000000;marker:none;visibility:visible;display:inline;overflow:visible;enable-background:accumulate" />
      <path
         sodipodi:nodetypes="cccccccccccc"
         inkscape:connector-curvature="0"
         id="path3055"
         d="m 352,888 -8,136 328,0 L 664.65625,902.65625 656,920 l -88,56 -40,16 -16,0 -16,0 -40,-16 -88,-56 z"
         style="color:#000000;fill:none;stroke:none;stroke-width:0.25000000000000000;marker:none;visibility:visible;display:inline;overflow:visible;enable-background:accumulate" />
      <path
         inkscape:connector-curvature="0"
         id="path4437"
         d="m 712,544 -16,28 12,0 0,40 16,-16 -8,60 8,-4 -12,16 8,60 24,-132 -12,-76 z"
         style="color:#000000;fill:#d8bcbc;fill-opacity:1;stroke:none;stroke-width:0.25000000000000000;marker:none;visibility:visible;display:inline;overflow:visible;enable-background:accumulate" />
      <path
         sodipodi:nodetypes="cccccccccccccccccccccccccccccccccccccccccccccccccccccccccccccccccccccccccccccccccccccccccccccccccccccccccccccccccccccccccccccccc"
         inkscape:connector-curvature="0"
         id="path3053"
         d="m 304,728 -16,-24 -8,-16 -8,-4 -8,-12 -16,8 0,-16 -24,8 8,-24 8,-8 -16,-8 8,-16 -16,-8 16,-16 -8,-16 8,-8 0,-16 -16,-16 8,-8 -8,-8 8,-16 16,-8 -8,-16 -8,-8 8,-16 -24,16 16,-24 -16,0 32,-24 -8,0 24,-32 -16,-8 16,-24 16,-32 24,-32 -8,0 40,-32 -8,0 40,-24 16,0 8,-8 16,0 16,-16 8,8 24,-16 24,0 0,8 16,-8 48,-8 40,32 8,0 16,16 8,16 16,0 8,16 16,8 8,24 32,0 0,8 16,8 0,16 16,16 16,8 16,48 0,8 -8,8 8,8 16,16 0,16 -8,8 16,0 0,24 0,24 -8,0 16,8 0,40 -8,24 -8,8 8,16 -16,16 0,8 -8,16 -8,24 -8,16 -16,24 0,-56 8,-24 -8,0 8,-56 -16,8 0,-40 -8,8 8,-24 -16,0 8,-40 -16,0 8,-16 -16,-8 16,0 -24,-16 16,0 -32,-24 16,0 -32,-40 24,0 -24,-24 -24,-24 -48,-16 -8,-8 -8,0 -48,8 -40,-8 -32,16 -24,8 -24,32 0,-16 -40,48 -24,48 -8,-16 0,40 -4,40 -4,8 0,52 -16,28 12,-8 -4,60 8,-4 z"
         style="color:#000000;fill:#333333;fill-opacity:1;stroke:none;stroke-width:0.25000000000000000;marker:none;visibility:visible;display:inline;overflow:visible;enable-background:accumulate" />
      <path
         sodipodi:nodetypes="cccccccccccc"
         inkscape:connector-curvature="0"
         id="path3057"
         d="m 416,808 80,4 32,0 80,-4 -48,-16 -8,-8 -32,0 -8,8 -8,-8 -32,0 -8,8 z"
         style="color:#000000;fill:#c5a7a7;fill-opacity:1;stroke:none;stroke-width:0.25000000000000000;marker:none;visibility:visible;display:inline;overflow:visible;enable-background:accumulate" />
      <path
         inkscape:connector-curvature="0"
         id="path3101"
         d="m 760,640 0,8 -8,16 -8,24 -8,16 16,16 24,-16 -16,-64 z m -24,64 -16,24 0,32 16,0 8,-28 -8,-28 z"
         style="color:#000000;fill:#baa3a3;fill-opacity:1;stroke:none;stroke-width:0.25000000000000000;marker:none;visibility:visible;display:inline;overflow:visible;enable-background:accumulate" />
      <path
         inkscape:connector-curvature="0"
         id="path3910"
         d="m 416,808 48,-16 8,-8 32,0 8,8 0,-168 -24,8 -24,32 -16,16 -8,16 8,24 8,8 16,0 24,-8 -8,16 -16,24 -56,48 z"
         style="color:#000000;fill:#d8bcbc;fill-opacity:1;stroke:none;stroke-width:0.25000000000000000;marker:none;visibility:visible;display:inline;overflow:visible;enable-background:accumulate" />
      <path
         inkscape:connector-curvature="0"
         id="path3885"
         d="m 468,704 0,4 20,0 4,-8 -12,-8 -4,0 z"
         style="color:#000000;fill:#333333;fill-opacity:1;stroke:none;stroke-width:0.25000000000000000;marker:none;visibility:visible;display:inline;overflow:visible;enable-background:accumulate" />
      <path
         style="color:#000000;fill:#333333;fill-opacity:1;stroke:none;stroke-width:0.25000000000000000;marker:none;visibility:visible;display:inline;overflow:visible;enable-background:accumulate"
         d="m 556,704 0,4 -20,0 -4,-8 12,-8 4,0 z"
         id="path3887"
         inkscape:connector-curvature="0" />
      <path
         style="color:#000000;fill:#e6e6e6;fill-opacity:1;stroke:none;stroke-width:0.25000000000000000;marker:none;visibility:visible;display:inline;overflow:visible;enable-background:accumulate"
         d="m 568,584 28,-24 36,0 32,16 12,16 -32,12 -44,-4 z"
         id="path3893"
         inkscape:connector-curvature="0"
         sodipodi:nodetypes="cccccccc" />
      <path
         sodipodi:type="arc"
         style="fill:#1a1a1a;stroke:none"
         id="path3891"
         sodipodi:cx="408"
         sodipodi:cy="584"
         sodipodi:rx="16"
         sodipodi:ry="16"
         d="m 424,584 a 16,16 0 1 1 -32,0 16,16 0 1 1 32,0 z"
         transform="matrix(-1.25,0,0,1.25,1130,-150)" />
      <path
         style="color:#000000;fill:#333333;fill-opacity:1;stroke:none;stroke-width:0.25000000000000000;marker:none;visibility:visible;display:inline;overflow:visible;enable-background:accumulate"
         d="m 580,488 -8,8 8,8 12,8 8,8 40,-4 32,16 8,20 12,12 4,-12 -8,-24 -16,-16 -16,-16 -24,-8 z"
         id="path3895"
         inkscape:connector-curvature="0"
         sodipodi:nodetypes="ccccccccccccccc" />
      <path
         sodipodi:nodetypes="ccccccccccccccccccccccccccccc"
         inkscape:connector-curvature="0"
         id="path3920"
         d="m 464,328 48,24 40,-16 80,48 -8,0 24,40 -16,0 32,32 -8,0 16,24 24,64 8,-40 -16,0 8,-16 -16,-8 16,0 -24,-16 16,0 -32,-24 16,0 -32,-40 24,0 -24,-24 -24,-24 -48,-16 -8,-8 -8,0 -48,8 z"
         style="color:#000000;fill:#d8bcbc;fill-opacity:1;stroke:none;stroke-width:0.25000000000000000;marker:none;visibility:visible;display:inline;overflow:visible;enable-background:accumulate" />
      <path
         sodipodi:nodetypes="cccccc"
         inkscape:connector-curvature="0"
         id="path4262"
         d="m 656,920 -4,32 -140,72 160,0 -8,-120 z"
         style="color:#000000;fill:#f6d6d6;fill-opacity:1;stroke:none;stroke-width:0.25000000000000000;marker:none;visibility:visible;display:inline;overflow:visible;enable-background:accumulate" />
      <path
         sodipodi:nodetypes="ccccccccccccccc"
         inkscape:connector-curvature="0"
         id="path4270"
         d="m 760,640 16,32 0,32 -32,72 -8,-16 -16,0 -8,16 8,16 8,8 16,0 16,-16 32,-72 0,-48 -16,-16 z"
         style="color:#000000;fill:#f6d6d6;fill-opacity:1;stroke:none;stroke-width:0.25000000000000000;marker:none;visibility:visible;display:inline;overflow:visible;enable-background:accumulate" />
      <path
         inkscape:connector-curvature="0"
         id="path4272"
         d="m 512,624 24,16 24,40 16,16 0,24 8,-24 -8,-16 -16,-16 -24,-32 z"
         style="color:#000000;fill:#c5a7a7;fill-opacity:1;stroke:none;stroke-width:0.25000000000000000;marker:none;visibility:visible;display:inline;overflow:visible;enable-background:accumulate" />
      <path
         inkscape:connector-curvature="0"
         id="path4276"
         d="m 760,640 16,64 -24,16 -16,-16 8,28 -8,28 -16,0 0,-32 -8,48 8,-16 16,0 8,16 32,-72 0,-32 z"
         style="color:#000000;fill:#c5a7a7;fill-opacity:1;stroke:none;stroke-width:0.25000000000000000;marker:none;visibility:visible;display:inline;overflow:visible;enable-background:accumulate" />
      <path
         inkscape:connector-curvature="0"
         id="path4278"
         d="m 568,584 28,-20 36,0 28,12 8,16 -24,12 32,-12 -12,-16 -32,-16 -36,0 z"
         style="color:#000000;fill:#333333;fill-opacity:1;stroke:none;stroke-width:0.25000000000000000;marker:none;visibility:visible;overflow:visible;enable-background:accumulate" />
      <path
         inkscape:connector-curvature="0"
         id="path4280"
         d="m 568,584 -4,0 -4,4 36,16 48,0 -44,-4 z"
         style="color:#000000;fill:#baa3a3;fill-opacity:1;stroke:none;stroke-width:0.25000000000000000;marker:none;visibility:visible;display:inline;overflow:visible;enable-background:accumulate" />
      <path
         inkscape:connector-curvature="0"
         id="path4282"
         d="m 656,920 -88,56 -40,16 -16,0 0,32 140,-72 z"
         style="color:#000000;fill:#baa3a3;fill-opacity:1;stroke:none;stroke-width:0.25000000000000000;marker:none;visibility:visible;display:inline;overflow:visible;enable-background:accumulate" />
      <path
         inkscape:connector-curvature="0"
         id="path4284"
         d="m 512,992 -16,0 -12,32 28,0 z"
         style="color:#000000;fill:none;stroke:none;stroke-width:0.25000000000000000;marker:none;visibility:visible;display:inline;overflow:visible;enable-background:accumulate" />
      <path
         inkscape:connector-curvature="0"
         id="path4286"
         d="m 368,920 -24,104 8,-136 z"
         style="color:#000000;fill:#b29c9c;fill-opacity:1;stroke:none;stroke-width:0.25000000000000000;marker:none;visibility:visible;display:inline;overflow:visible;enable-background:accumulate" />
      <path
         inkscape:connector-curvature="0"
         id="path4288"
         d="m 368,920 -24,104 140,0 12,-32 -40,-16 z"
         style="color:#000000;fill:#a69292;fill-opacity:1;stroke:none;stroke-width:0.25000000000000000;marker:none;visibility:visible;display:inline;overflow:visible;enable-background:accumulate" />
      <path
         sodipodi:nodetypes="ccccccccc"
         inkscape:connector-curvature="0"
         id="path4290"
         d="m 456,820 56,8 56,-8 40,-12 -40,16 -56,8 -56,-8 -40,-16 z"
         style="color:#000000;fill:#333333;fill-opacity:1;stroke:none;stroke-width:0.25000000000000000;marker:none;visibility:visible;display:inline;overflow:visible;enable-background:accumulate" />
      <path
         inkscape:connector-curvature="0"
         id="path4292"
         d="m 712,776 8,-48 0,32 z"
         style="color:#000000;fill:none;stroke:none;stroke-width:0.25000000000000000;marker:none;visibility:visible;display:inline;overflow:visible;enable-background:accumulate" />
      <path
         inkscape:connector-curvature="0"
         id="path4301"
         d="m 512,992 -16,0 -12,32 28,0 z"
         style="color:#000000;fill:#baa3a3;fill-opacity:1;stroke:none;stroke-width:0.25000000000000000;marker:none;visibility:visible;display:inline;overflow:visible;enable-background:accumulate" />
      <path
         sodipodi:nodetypes="cccccccc"
         inkscape:connector-curvature="0"
         id="path4305"
         d="m 456,584 -28,-24 -36,0 -32,16 -12,16 32,12 44,-4 z"
         style="color:#000000;fill:#e6e6e6;fill-opacity:1;stroke:none;stroke-width:0.25000000000000000;marker:none;visibility:visible;display:inline;overflow:visible;enable-background:accumulate" />
      <path
         transform="matrix(1.25,0,0,1.25,-106,-150)"
         d="m 424,584 a 16,16 0 1 1 -32,0 16,16 0 1 1 32,0 z"
         sodipodi:ry="16"
         sodipodi:rx="16"
         sodipodi:cy="584"
         sodipodi:cx="408"
         id="path4307"
         style="fill:#1a1a1a;stroke:none;display:inline"
         sodipodi:type="arc" />
      <path
         sodipodi:nodetypes="ccccccccccccccc"
         inkscape:connector-curvature="0"
         id="path4309"
         d="m 444,488 8,8 -8,8 -12,8 -8,8 -40,-4 -32,16 -8,20 -12,12 -4,-12 8,-24 16,-16 16,-16 24,-8 z"
         style="color:#000000;fill:#333333;fill-opacity:1;stroke:none;stroke-width:0.25000000000000000;marker:none;visibility:visible;display:inline;overflow:visible;enable-background:accumulate" />
      <path
         style="color:#000000;fill:#333333;fill-opacity:1;stroke:none;stroke-width:0.25000000000000000;marker:none;visibility:visible;display:inline;overflow:visible;enable-background:accumulate"
         d="m 456,584 -28,-20 -36,0 -28,12 -8,16 24,12 -32,-12 12,-16 32,-16 36,0 z"
         id="path4311"
         inkscape:connector-curvature="0" />
      <path
         style="color:#000000;fill:#baa3a3;fill-opacity:1;stroke:none;stroke-width:0.25000000000000000;marker:none;visibility:visible;display:inline;overflow:visible;enable-background:accumulate"
         d="m 456,584 4,0 4,4 -36,16 -48,0 44,-4 z"
         id="path4313"
         inkscape:connector-curvature="0" />
      <path
         inkscape:connector-curvature="0"
         id="path4350"
         d="m 416,808 40,12 56,8 56,-8 40,-12 -80,4 -32,0 -80,-4 z"
         style="color:#000000;fill:#e6e6e6;fill-opacity:1;stroke:none;stroke-width:0.25000000000000000;marker:none;visibility:visible;display:inline;overflow:visible;enable-background:accumulate" />
      <path
         sodipodi:nodetypes="ccccccccccccc"
         inkscape:connector-curvature="0"
         id="path3059"
         d="m 416,808 40,16 56,8 56,-8 40,-16 -8,16 -23.21712,23.21712 L 560,864 512,872 464,864 448.20959,848.20959 424,824 z"
         style="color:#000000;fill:#ffd6d6;fill-opacity:1;stroke:none;stroke-width:0.25000000000000000;marker:none;visibility:visible;display:inline;overflow:visible;enable-background:accumulate" />
      <path
         inkscape:connector-curvature="0"
         id="path4274"
         d="m 608,808 -8,24 -40,40 -48,16 -48,-16 -40,-40 -8,-24 8,16 40,40 48,8 48,-8 40,-40 z"
         style="color:#000000;fill:#bda7a7;fill-opacity:1;stroke:none;stroke-width:0.25000000000000000;marker:none;visibility:visible;display:inline;overflow:visible;enable-background:accumulate" />
      <path
         transform="matrix(-0.4375,0,0,0.4375,798.5,317.5)"
         d="m 424,584 a 16,16 0 1 1 -32,0 16,16 0 1 1 32,0 z"
         sodipodi:ry="16"
         sodipodi:rx="16"
         sodipodi:cy="584"
         sodipodi:cx="408"
         id="path4461"
         style="fill:#e6e6e6;fill-opacity:1;stroke:none"
         sodipodi:type="arc" />
      <path
         sodipodi:type="arc"
         style="fill:#e6e6e6;fill-opacity:1;stroke:none;display:inline"
         id="path4463"
         sodipodi:cx="408"
         sodipodi:cy="584"
         sodipodi:rx="16"
         sodipodi:ry="16"
         d="m 424,584 a 16,16 0 1 1 -32,0 16,16 0 1 1 32,0 z"
         transform="matrix(0.4375,0,0,0.4375,225.5,317.5)" />
    </g>
  </g>
</svg>
