<?xml version="1.0" encoding="UTF-8" standalone="no"?>
<!-- Created with Inkscape (http://www.inkscape.org/) -->

<svg
   xmlns:dc="http://purl.org/dc/elements/1.1/"
   xmlns:cc="http://creativecommons.org/ns#"
   xmlns:rdf="http://www.w3.org/1999/02/22-rdf-syntax-ns#"
   xmlns:svg="http://www.w3.org/2000/svg"
   xmlns="http://www.w3.org/2000/svg"
   xmlns:sodipodi="http://sodipodi.sourceforge.net/DTD/sodipodi-0.dtd"
   xmlns:inkscape="http://www.inkscape.org/namespaces/inkscape"
   id="svg2"
   version="1.1"
   inkscape:version="0.48.4 r9939"
   width="640"
   height="640"
   sodipodi:docname="nath.svg"
   inkscape:export-filename="/home/nathanel/nath.png"
   inkscape:export-xdpi="90"
   inkscape:export-ydpi="90">
  <metadata
     id="metadata8">
    <rdf:RDF>
      <cc:Work
         rdf:about="">
        <dc:format>image/svg+xml</dc:format>
        <dc:type
           rdf:resource="http://purl.org/dc/dcmitype/StillImage" />
        <dc:title />
      </cc:Work>
    </rdf:RDF>
  </metadata>
  <defs
     id="defs6" />
  <sodipodi:namedview
     pagecolor="#ffffff"
     bordercolor="#666666"
     borderopacity="1"
     objecttolerance="10"
     gridtolerance="10"
     guidetolerance="10"
     inkscape:pageopacity="0"
     inkscape:pageshadow="2"
     inkscape:window-width="1920"
     inkscape:window-height="1057"
     id="namedview4"
     showgrid="false"
     inkscape:object-paths="true"
     inkscape:snap-intersection-paths="true"
     inkscape:object-nodes="true"
     inkscape:snap-smooth-nodes="true"
     inkscape:snap-midpoints="true"
     inkscape:snap-object-midpoints="true"
     inkscape:snap-center="true"
     borderlayer="true"
     inkscape:showpageshadow="false"
     inkscape:zoom="1.390625"
     inkscape:cx="320"
     inkscape:cy="320"
     inkscape:window-x="1600"
     inkscape:window-y="0"
     inkscape:window-maximized="1"
     inkscape:current-layer="svg2"
     showguides="true"
     inkscape:guide-bbox="true">
    <inkscape:grid
       type="xygrid"
       id="grid2987"
       empspacing="4"
       visible="true"
       enabled="true"
       snapvisiblegridlinesonly="true" />
    <sodipodi:guide
       orientation="0,1"
       position="0,640"
       id="guide3061" />
    <sodipodi:guide
       orientation="0,1"
       position="0,0"
       id="guide3074" />
  </sodipodi:namedview>
  <rect
     style="fill:#ffe680;fill-opacity:1;stroke:none"
     id="rect3043"
     width="640"
     height="640"
     x="0"
     y="0" />
  <g
     id="g4282">
    <path
       sodipodi:nodetypes="cccc"
       style="color:#000000;fill:#808080;stroke:none;stroke-width:0.25;marker:none;visibility:visible;overflow:visible;enable-background:accumulate"
       d="M 640,640 0,304 0,256 z"
       id="path4273"
       inkscape:connector-curvature="0" />
    <path
       inkscape:connector-curvature="0"
       id="path4259"
       d="M 640,640 0,640 0,592 z"
       style="color:#000000;fill:#f9f9f9;stroke:none;stroke-width:0.25;marker:none;visibility:visible;overflow:visible;enable-background:accumulate" />
    <path
       sodipodi:nodetypes="cccc"
       style="color:#000000;fill:#f2f2f2;stroke:none;stroke-width:0.25;marker:none;visibility:visible;overflow:visible;enable-background:accumulate"
       d="M 640,640 0,592 0,544 z"
       id="path4261"
       inkscape:connector-curvature="0" />
    <path
       inkscape:connector-curvature="0"
       id="path4263"
       d="M 640,640 0,544 0,496 z"
       style="color:#000000;fill:#ececec;stroke:none;stroke-width:0.25;marker:none;visibility:visible;overflow:visible;enable-background:accumulate"
       sodipodi:nodetypes="cccc" />
    <path
       sodipodi:nodetypes="cccc"
       style="color:#000000;fill:#e6e6e6;stroke:none;stroke-width:0.25;marker:none;visibility:visible;overflow:visible;enable-background:accumulate"
       d="M 640,640 0,496 0,448 z"
       id="path4265"
       inkscape:connector-curvature="0" />
    <path
       inkscape:connector-curvature="0"
       id="path4267"
       d="M 640,640 0,448 0,400 z"
       style="color:#000000;fill:#cccccc;stroke:none;stroke-width:0.25;marker:none;visibility:visible;overflow:visible;enable-background:accumulate"
       sodipodi:nodetypes="cccc" />
    <path
       sodipodi:nodetypes="cccc"
       style="color:#000000;fill:#b3b3b3;stroke:none;stroke-width:0.25;marker:none;visibility:visible;overflow:visible;enable-background:accumulate"
       d="M 640,640 0,400 0,352 z"
       id="path4269"
       inkscape:connector-curvature="0" />
    <path
       inkscape:connector-curvature="0"
       id="path4271"
       d="M 640,640 0,352 0,304 z"
       style="color:#000000;fill:#999999;stroke:none;stroke-width:0.25;marker:none;visibility:visible;overflow:visible;enable-background:accumulate"
       sodipodi:nodetypes="cccc" />
    <path
       inkscape:connector-curvature="0"
       id="path4275"
       d="M 640,640 0,256 0,208 z"
       style="color:#000000;fill:#666666;stroke:none;stroke-width:0.25;marker:none;visibility:visible;overflow:visible;enable-background:accumulate"
       sodipodi:nodetypes="cccc" />
    <path
       sodipodi:nodetypes="cccc"
       style="color:#000000;fill:#4d4d4d;stroke:none;stroke-width:0.25;marker:none;visibility:visible;overflow:visible;enable-background:accumulate"
       d="M 640,640 0,208 0,160 z"
       id="path4277"
       inkscape:connector-curvature="0" />
    <path
       inkscape:connector-curvature="0"
       id="path4279"
       d="M 640,640 0,160 0,112 z"
       style="color:#000000;fill:#333333;stroke:none;stroke-width:0.25;marker:none;visibility:visible;overflow:visible;enable-background:accumulate"
       sodipodi:nodetypes="cccc" />
    <path
       sodipodi:nodetypes="cccc"
       style="color:#000000;fill:#1a1a1a;stroke:none;stroke-width:0.25;marker:none;visibility:visible;overflow:visible;enable-background:accumulate"
       d="M 640,640 0,112 0,64 z"
       id="path4281"
       inkscape:connector-curvature="0" />
    <path
       inkscape:connector-curvature="0"
       id="path4283"
       d="M 640,640 0,64 0,0 z"
       style="color:#000000;fill:#000000;stroke:none;stroke-width:0.25;marker:none;visibility:visible;overflow:visible;enable-background:accumulate"
       sodipodi:nodetypes="cccc" />
  </g>
  <rect
     style="fill:#000000;fill-opacity:1;stroke:none"
     id="rect4285"
     width="0"
     height="0"
     x="0"
     y="0" />
  <path
     inkscape:connector-curvature="0"
     id="path4096"
     d="m 344.00005,112 -16,8 -16,0 -16,8 -16,8 -16,16 L 248,168 l -8,16 0,16 -16,40 0,16 0,24 -2,4 2,4 4,16 -4,24 0,48 0,24 0,24 -8,32 0,32 16,40 1.65625,2.78125 L 224,544 l -8,-8 -16,8 -8,0 -8,8 -24,8 -8,8 -1.875,8.46875 L 120,584 l -32,16 -24,0 -32,8 -24,16 -8,16 248,0 152.00005,0 88,0 72,0 80,0 -8,-8 -32,-24 -8,-8 -30.7813,-12.3125 -1.2187,-3.6875 -56,-32 -8,0 -16,-8 -24,-24 0,-32 16,-24 8,-32 -8,-32 8,0 8,-16 8,-40 0,-32 -8,-8 -8,0 8,-48 -8,-40 -8,-24 -16,-24 -16,-16 -24,-16 -24,-8 -24,-8 -24,-8 z M 255,252 255.4375,252.15625 240,256 l 15,-4 z m 33.00005,36 -15.125,9.09375 c 0,-0.009 0,-0.0226 0,-0.0312 l 15.125,-9.0625 z"
     style="color:#000000;fill:#e7c9c9;fill-opacity:1;stroke:none;stroke-width:0.25;marker:none;visibility:visible;display:inline;overflow:visible;enable-background:accumulate" />
  <g
     id="g4219">
    <path
       sodipodi:nodetypes="ccccccc"
       inkscape:connector-curvature="0"
       id="path3973"
       d="m 354,284 -14,8 12,8 32,0 24,-12 -26,-6 z"
       style="color:#000000;fill:#e6e6e6;fill-opacity:1;stroke:none;stroke-width:0.25;marker:none;visibility:visible;display:inline;overflow:visible;enable-background:accumulate" />
    <path
       sodipodi:nodetypes="cccccccc"
       inkscape:connector-curvature="0"
       id="rect4348"
       d="m 283,283 -39,-1 -6,5 -2,5 4,8 28,-2 20,-10 z"
       style="fill:#e6e6e6;fill-opacity:1;stroke:none" />
    <path
       sodipodi:type="arc"
       style="fill:#1a1a1a;fill-opacity:1;stroke:none"
       id="path3064"
       sodipodi:cx="361"
       sodipodi:cy="282"
       sodipodi:rx="12"
       sodipodi:ry="12"
       d="m 373,282 c 0,6.62742 -5.37258,12 -12,12 -6.62742,0 -12,-5.37258 -12,-12 0,-6.62742 5.37258,-12 12,-12 6.62742,0 12,5.37258 12,12 z"
       transform="translate(-98.999999,10.000001)" />
    <path
       transform="matrix(0.83333333,0,0,0.83333333,-38.833332,57.000001)"
       d="m 373,282 c 0,6.62742 -5.37258,12 -12,12 -6.62742,0 -12,-5.37258 -12,-12 0,-6.62742 5.37258,-12 12,-12 6.62742,0 12,5.37258 12,12 z"
       sodipodi:ry="12"
       sodipodi:rx="12"
       sodipodi:cy="282"
       sodipodi:cx="361"
       id="path3066"
       style="fill:#34261d;fill-opacity:1;stroke:none"
       sodipodi:type="arc" />
    <path
       sodipodi:nodetypes="cccccccccccccccccccccccc"
       inkscape:connector-curvature="0"
       id="path3938"
       d="m 448,280 -40,8 -24,16 -32,0 -32,-16 8,32 8,16 0,16 -8,8 -8,0 -16,8 8,0 8,8 24,8 16,0 16,8 16,8 8,24 8,8 24,-16 16,-24 8,-24 0,-8 z"
       style="color:#000000;fill:#f6d6d6;fill-opacity:1;stroke:none;stroke-width:0.25;marker:none;visibility:visible;overflow:visible;enable-background:accumulate" />
    <path
       sodipodi:nodetypes="cccc"
       id="path4393"
       d="m 340,292 -20,-4 32,16 z"
       style="color:#000000;fill:#d8bcbc;fill-opacity:1;stroke:none;stroke-width:0.25;marker:none;visibility:visible;overflow:visible;enable-background:accumulate"
       inkscape:connector-curvature="0" />
    <path
       sodipodi:nodetypes="cccc"
       id="path4391"
       d="m 336,280 -16,8 20,4 z"
       style="color:#000000;fill:#e7c9c9;fill-opacity:1;stroke:none;stroke-width:0.25;marker:none;visibility:visible;overflow:visible;enable-background:accumulate"
       inkscape:connector-curvature="0" />
    <path
       sodipodi:nodetypes="cccccccccccccc"
       inkscape:connector-curvature="0"
       id="path3936"
       d="m 368,256 -32,16 -8,0 -8,16 16,-8 18,-10 28,0 18,6 8,12 40,-8 -24,-8 -16,0 -16,-8 z"
       style="color:#000000;fill:#d8bcbc;fill-opacity:1;stroke:none;stroke-width:0.25;marker:none;visibility:visible;overflow:visible;enable-background:accumulate" />
    <path
       sodipodi:nodetypes="ccccc"
       inkscape:connector-curvature="0"
       id="path3952"
       d="m 272,472 -8,-56 -8,16 -8,8 z"
       style="color:#000000;fill:#e5c8c8;fill-opacity:1;stroke:none;stroke-width:0.25;marker:none;visibility:visible;overflow:visible;enable-background:accumulate" />
    <path
       sodipodi:nodetypes="ccccccccccccc"
       inkscape:connector-curvature="0"
       id="path3950"
       d="m 360,408 -24,24 -24,8 -16,0 -16,-8 -16,-24 0,8 8,56 8,16 24,16 24,-8 16,-16 z"
       style="color:#000000;fill:#d8bcbc;fill-opacity:1;stroke:none;stroke-width:0.25;marker:none;visibility:visible;overflow:visible;enable-background:accumulate" />
    <path
       sodipodi:nodetypes="ccccccc"
       inkscape:connector-curvature="0"
       id="path3948"
       d="m 360,408 -16,72 24,-16 24,-16 0,-16 -24,-16 z"
       style="color:#000000;fill:#f6d6d6;fill-opacity:1;stroke:none;stroke-width:0.25;marker:none;visibility:visible;overflow:visible;enable-background:accumulate" />
    <path
       sodipodi:nodetypes="ccccccccc"
       inkscape:connector-curvature="0"
       id="path3914"
       d="m 272,400 -8,8 16,24 16,8 16,0 24,-8 24,-24 -16,-8 z"
       style="color:#000000;fill:#c3abab;fill-opacity:1;stroke:none;stroke-width:0.25;marker:none;visibility:visible;overflow:visible;enable-background:accumulate" />
    <path
       sodipodi:nodetypes="cccccccccc"
       inkscape:connector-curvature="0"
       id="path4001"
       d="m 496,344 -8,-24 -24,8 8,24 0,8 -8,8 8,8 8,0 8,-8 z"
       style="color:#000000;fill:#baa3a3;fill-opacity:1;stroke:none;stroke-width:0.25;marker:none;visibility:visible;display:inline;overflow:visible;enable-background:accumulate" />
    <path
       sodipodi:nodetypes="cccccc"
       inkscape:connector-curvature="0"
       id="path2997"
       d="m 480,312 -16,16 24,-8 8,24 -8,-32 z"
       style="color:#000000;fill:#a69292;fill-opacity:1;stroke:none;stroke-width:0.25;marker:none;visibility:visible;display:inline;overflow:visible;enable-background:accumulate" />
    <path
       sodipodi:nodetypes="ccccccccccccccccccc"
       inkscape:connector-curvature="0"
       id="path4027"
       d="m 280,328 4,-32 -12,8 -32,0 -8,-12 -4,12 -4,24 0,48 8,40 8,14.40625 0,-14.40625 8,-16 16,-8 8,-8 8,-16 8,0 -16,-8 0,-16 z"
       style="color:#000000;fill:#e5c8c8;fill-opacity:1;stroke:none;stroke-width:0.25;marker:none;visibility:visible;overflow:visible;enable-background:accumulate" />
    <path
       sodipodi:nodetypes="cccc"
       inkscape:connector-curvature="0"
       id="path3945"
       d="m 288,288 -4,8 -4,32 z"
       style="color:#000000;fill:#d8bcbc;fill-opacity:1;stroke:none;stroke-width:0.25;marker:none;visibility:visible;overflow:visible;enable-background:accumulate" />
    <path
       id="path3850"
       d="m 232,292 -8,-4 4,16 4,-12 z"
       style="color:#000000;fill:#baa3a3;fill-opacity:1;stroke:none;stroke-width:0.25;marker:none;visibility:visible;overflow:visible;enable-background:accumulate"
       inkscape:connector-curvature="0" />
    <path
       id="path4382"
       d="m 264,264 -24,4 -16,20 8,4 3,-15 13,-5 32,6 4,4 4,6 -8,-16 -16,-8 z"
       style="color:#000000;fill:#d8bcbc;fill-opacity:1;stroke:none;stroke-width:0.25;marker:none;visibility:visible;overflow:visible;enable-background:accumulate"
       inkscape:connector-curvature="0" />
    <path
       sodipodi:nodetypes="cccccccccc"
       inkscape:connector-curvature="0"
       id="path3865"
       d="m 464,368 8,8 8,0 8,-8 8,-24 -8,40 -8,16 -8,0 -8,-24 z"
       style="color:#000000;fill:#e7c9c9;fill-opacity:1;stroke:none;stroke-width:0.25;marker:none;visibility:visible;display:inline;overflow:visible;enable-background:accumulate" />
    <path
       sodipodi:nodetypes="ccccccccccccccccc"
       inkscape:connector-curvature="0"
       id="path3891"
       d="m 288,272 0,8 0,8 -8,40 -8,16 0,16 16,8 16,0 16,-8 8,0 8,-8 0,-16 -8,-16 -8,-32 8,-16 8,-16 z"
       style="color:#000000;fill:#efd0d0;fill-opacity:1;stroke:none;stroke-width:0.25;marker:none;visibility:visible;display:inline;overflow:visible;enable-background:accumulate" />
    <path
       sodipodi:nodetypes="ccccccccccccccccccccccccccccccccccccccccc"
       inkscape:connector-curvature="0"
       id="path3931"
       d="m 288,272 48,-16 16,-8 24,0 32,8 16,16 24,8 8,80 0,-80 -8,-32 -8,-16 0,-24 -8,-16 -8,8 -8,-8 -8,8 -16,-16 0,16 -16,-24 8,24 -24,-32 8,32 -24,-32 8,32 -16,-24 8,24 -40,-32 0,0 24,32 -24,-16 8,16 -24,-16 -24,16 -24,24 -8,24 -8,32 8,-16 8,-8 15,-4 21,7 z"
       style="color:#000000;fill:#e7c9c9;fill-opacity:1;stroke:none;stroke-width:0.25;marker:none;visibility:visible;display:inline;overflow:visible;enable-background:accumulate" />
    <path
       sodipodi:nodetypes="ccccccccccccccccccc"
       inkscape:connector-curvature="0"
       id="path3825"
       d="m 264,168 -16,16 -8,16 -16,56 0,24 8,-32 8,-24 24,-24 24,-16 24,16 -8,-16 24,16 -24,-32 8,16 -24,-16 8,16 -16,-16 0,8 z"
       style="color:#000000;fill:#d8bcbc;fill-opacity:1;stroke:none;stroke-width:0.25;marker:none;visibility:visible;display:inline;overflow:visible;enable-background:accumulate" />
    <path
       sodipodi:nodetypes="cccccccccc"
       inkscape:connector-curvature="0"
       id="path3787"
       d="m 264,408 16,24 16,8 16,0 24,-8 24,-24 -24,0 -16,8 -40,0 z"
       style="color:#000000;fill:#eecfcf;fill-opacity:1;stroke:none;stroke-width:0.25;marker:none;visibility:visible;display:inline;overflow:visible;enable-background:accumulate" />
    <path
       sodipodi:nodetypes="cccccccc"
       inkscape:connector-curvature="0"
       id="path3791"
       d="m 344,400 16,8 -24,0 -16,8 -40,0 -16,-8 8,-8 z"
       style="color:#000000;fill:#bda7a7;fill-opacity:1;stroke:none;stroke-width:0.25;marker:none;visibility:visible;display:inline;overflow:visible;enable-background:accumulate" />
    <path
       sodipodi:nodetypes="cccc"
       inkscape:connector-curvature="0"
       id="path3796"
       d="m 240,200 -16,56 0,-16 z"
       style="color:#000000;fill:#333333;fill-opacity:1;stroke:none;stroke-width:0.25;marker:none;visibility:visible;display:inline;overflow:visible;enable-background:accumulate" />
    <path
       sodipodi:nodetypes="ccccc"
       inkscape:connector-curvature="0"
       id="path3800"
       d="m 464,328 8,24 0,8 -8,8 z"
       style="color:#000000;fill:#e7c9c9;fill-opacity:1;stroke:none;stroke-width:0.25;marker:none;visibility:visible;display:inline;overflow:visible;enable-background:accumulate" />
    <path
       sodipodi:nodetypes="cccccccc"
       inkscape:connector-curvature="0"
       id="path3900"
       d="M 561.21875,587.6875 568,608 l -8,32 80,0 -8,-8 -32,-24 -8,-8 z"
       style="color:#000000;fill:#f6d6d6;fill-opacity:1;stroke:none;stroke-width:0.25;marker:none;visibility:visible;display:inline;overflow:visible;enable-background:accumulate" />
    <path
       sodipodi:nodetypes="cccccccc"
       inkscape:connector-curvature="0"
       id="path3898"
       d="m 496,552 0,40 -8,48 72,0 8,-32 -6.78125,-20.3125 L 552,584 z"
       style="color:#000000;fill:#c3abab;fill-opacity:1;stroke:none;stroke-width:0.25;marker:none;visibility:visible;display:inline;overflow:visible;enable-background:accumulate" />
    <path
       sodipodi:nodetypes="ccccccc"
       inkscape:connector-curvature="0"
       id="path3856"
       d="m 456,520 -56,120 88,0 8,-48 0,-40 -16,-8 z"
       style="color:#000000;fill:#e7c9c9;fill-opacity:1;stroke:none;stroke-width:0.25;marker:none;visibility:visible;display:inline;overflow:visible;enable-background:accumulate" />
    <path
       sodipodi:nodetypes="ccccccccccccc"
       inkscape:connector-curvature="0"
       id="path3861"
       d="m 248,640 152,0 56,-120 0,-32 -8,8 -24,24 -32,32 -24,24 -72,8 L 256,568 233.65625,530.78125 224,544 z"
       style="color:#000000;fill:#b29c9c;fill-opacity:1;stroke:none;stroke-width:0.25;marker:none;visibility:visible;display:inline;overflow:visible;enable-background:accumulate" />
    <path
       sodipodi:nodetypes="cccccccccc"
       inkscape:connector-curvature="0"
       id="path3827"
       d="m 248,640 -24,-96 -72,32 -32,8 -32,16 -24,0 -32,8 -24,16 -8,16 z"
       style="color:#000000;fill:#a69292;fill-opacity:1;stroke:none;stroke-width:0.25;marker:none;visibility:visible;display:inline;overflow:visible;enable-background:accumulate" />
    <path
       sodipodi:nodetypes="ccccccc"
       inkscape:connector-curvature="0"
       id="path4011"
       d="m 504,552 16,64 -8,24 48,0 0,-32 -8,-16 z"
       style="color:#000000;fill:#808080;fill-opacity:1;stroke:none;stroke-width:0.25;marker:none;visibility:visible;display:inline;overflow:visible;enable-background:accumulate" />
    <path
       sodipodi:nodetypes="ccccccc"
       inkscape:connector-curvature="0"
       id="path3991"
       d="m 504,552 48,40 8,16 0,32 8,-32 -8,-24 z"
       style="color:#000000;fill:#898989;fill-opacity:1;stroke:none;stroke-width:0.25;marker:none;visibility:visible;display:inline;overflow:visible;enable-background:accumulate" />
    <path
       sodipodi:nodetypes="ccccccc"
       inkscape:connector-curvature="0"
       id="path3832"
       d="m 496,552 0,40 -8,48 24,0 8,-24 -16,-64 z"
       style="color:#000000;fill:#717171;fill-opacity:1;stroke:none;stroke-width:0.25;marker:none;visibility:visible;display:inline;overflow:visible;enable-background:accumulate" />
    <path
       sodipodi:nodetypes="cccccc"
       inkscape:connector-curvature="0"
       id="path4006"
       d="m 184,552 -24,8 -8,8 -16,72 24,-72 z"
       style="color:#000000;fill:#505050;fill-opacity:1;stroke:none;stroke-width:0.25;marker:none;visibility:visible;display:inline;overflow:visible;enable-background:accumulate" />
    <path
       sodipodi:nodetypes="cccccccc"
       inkscape:connector-curvature="0"
       id="path3996"
       d="m 184,552 -24,16 -24,72 48,0 24,-16 8,-64 -8,-8 z"
       style="color:#000000;fill:#666666;fill-opacity:1;stroke:none;stroke-width:0.25;marker:none;visibility:visible;display:inline;overflow:visible;enable-background:accumulate" />
    <path
       sodipodi:nodetypes="cccccccccccc"
       inkscape:connector-curvature="0"
       id="path3834"
       d="m 216,536 -16,8 -8,0 -8,8 24,0 8,8 -8,64 -24,16 32,0 8,-80 0,-16 z"
       style="color:#000000;fill:#555555;fill-opacity:1;stroke:none;stroke-width:0.25;marker:none;visibility:visible;display:inline;overflow:visible;enable-background:accumulate" />
    <path
       sodipodi:nodetypes="ccccccccc"
       inkscape:connector-curvature="0"
       id="path3863"
       d="m 464,328 16,-16 8,0 8,32 0,-32 -8,-8 -8,0 -8,8 z"
       style="color:#000000;fill:#f6d6d6;fill-opacity:1;stroke:none;stroke-width:0.25;marker:none;visibility:visible;display:inline;overflow:visible;enable-background:accumulate" />
    <path
       sodipodi:nodetypes="ccccc"
       inkscape:connector-curvature="0"
       id="path3009"
       d="m 472,384 0,8 8,0 0,-8 z"
       style="color:#000000;fill:#1a1a1a;stroke:none;stroke-width:0.25;marker:none;visibility:visible;display:inline;overflow:visible;enable-background:accumulate" />
    <path
       sodipodi:nodetypes="cccc"
       inkscape:connector-curvature="0"
       id="path3893"
       d="m 288,368 8,8 8,-8 z"
       style="color:#000000;fill:#a69292;fill-opacity:1;stroke:none;stroke-width:0.25;marker:none;visibility:visible;display:inline;overflow:visible;enable-background:accumulate" />
    <path
       sodipodi:nodetypes="cccccc"
       inkscape:connector-curvature="0"
       id="path3904"
       d="m 456,488 0,32 -56,120 -56,0 24,-64 z"
       style="color:#000000;fill:#baa3a3;fill-opacity:1;stroke:none;stroke-width:0.25;marker:none;visibility:visible;display:inline;overflow:visible;enable-background:accumulate" />
    <path
       transform="translate(13,6)"
       d="m 373,282 c 0,6.62742 -5.37258,12 -12,12 -6.62742,0 -12,-5.37258 -12,-12 0,-6.62742 5.37258,-12 12,-12 6.62742,0 12,5.37258 12,12 z"
       sodipodi:ry="12"
       sodipodi:rx="12"
       sodipodi:cy="282"
       sodipodi:cx="361"
       id="path4322"
       style="fill:#1a1a1a;fill-opacity:1;stroke:none"
       sodipodi:type="arc" />
    <path
       sodipodi:nodetypes="ccccccc"
       id="path4312"
       d="m 408,288 -24,12 -32,0 -12,-8 12,12 32,0 z"
       style="color:#000000;fill:#baa3a3;fill-opacity:1;stroke:none;stroke-width:0.25;marker:none;visibility:visible;display:inline;overflow:visible;enable-background:accumulate"
       inkscape:connector-curvature="0" />
    <path
       sodipodi:nodetypes="cccc"
       inkscape:connector-curvature="0"
       id="path4314"
       d="m 340,292 -20,-4 32,16 z"
       style="color:#000000;fill:none;stroke:none;stroke-width:0.25;marker:none;visibility:visible;display:inline;overflow:visible;enable-background:accumulate" />
    <path
       sodipodi:nodetypes="cccc"
       inkscape:connector-curvature="0"
       id="path4318"
       d="m 340,292 -4,-12 -16,8 z"
       style="color:#000000;fill:none;stroke:none;stroke-width:0.25;marker:none;visibility:visible;display:inline;overflow:visible;enable-background:accumulate" />
    <path
       sodipodi:type="arc"
       style="fill:#34261d;fill-opacity:1;stroke:none"
       id="path4397"
       sodipodi:cx="361"
       sodipodi:cy="282"
       sodipodi:rx="12"
       sodipodi:ry="12"
       d="m 373,282 c 0,6.62742 -5.37258,12 -12,12 -6.62742,0 -12,-5.37258 -12,-12 0,-6.62742 5.37258,-12 12,-12 6.62742,0 12,5.37258 12,12 z"
       transform="matrix(0.83333333,0,0,0.83333333,73.166667,53)" />
    <path
       sodipodi:nodetypes="ccccccc"
       inkscape:connector-curvature="0"
       id="path4324"
       d="m 340,292 12,6 32,0 24,-10 -24,12 -32,0 z"
       style="color:#000000;fill:#333333;fill-opacity:1;stroke:none;stroke-width:0.25;marker:none;visibility:visible;display:inline;overflow:visible;enable-background:accumulate" />
    <path
       sodipodi:nodetypes="ccccccccc"
       inkscape:connector-curvature="0"
       id="path4328"
       d="m 232,292 5,-13 11,-3 32,4 4,2 -4,-4 -32,-6 -13,5 z"
       style="color:#000000;fill:#a69292;fill-opacity:1;stroke:none;stroke-width:0.25;marker:none;visibility:visible;display:inline;overflow:visible;enable-background:accumulate" />
    <path
       sodipodi:nodetypes="ccccccc"
       inkscape:connector-curvature="0"
       id="path4330"
       d="m 232,292 8,12 32,0 16,-16 -20,12 -28,0 z"
       style="color:#000000;fill:#baa3a3;fill-opacity:1;stroke:none;stroke-width:0.25;marker:none;visibility:visible;display:inline;overflow:visible;enable-background:accumulate" />
    <path
       sodipodi:nodetypes="cccccccc"
       inkscape:connector-curvature="0"
       id="path4346"
       d="m 232,292 5,-13 11,-3 32,4 4,2 -40,-2 -8,6 z"
       style="color:#000000;fill:#b09b9b;fill-opacity:1;stroke:none;stroke-width:0.25;marker:none;visibility:visible;display:inline;overflow:visible;enable-background:accumulate" />
    <path
       sodipodi:nodetypes="ccccccccccc"
       inkscape:connector-curvature="0"
       id="path4362"
       d="m 232,292 8,8 -4,-8 2,-5 6,-5 39,1 5,5 -4,-6 -40,-2 -8,6 z"
       style="color:#000000;fill:#333333;fill-opacity:1;stroke:none;stroke-width:0.25;marker:none;visibility:visible;display:inline;overflow:visible;enable-background:accumulate" />
    <path
       sodipodi:nodetypes="cccc"
       inkscape:connector-curvature="0"
       id="path4384"
       d="m 280,272 8,0 0,16 z"
       style="color:#000000;fill:#baa3a3;fill-opacity:1;stroke:none;stroke-width:0.25;marker:none;visibility:visible;display:inline;overflow:visible;enable-background:accumulate" />
    <path
       sodipodi:nodetypes="ccccc"
       inkscape:connector-curvature="0"
       id="path4386"
       d="m 240,300 28,-2 20,-10 -20,12 z"
       style="color:#000000;fill:#333333;fill-opacity:1;stroke:none;stroke-width:0.25;marker:none;visibility:visible;display:inline;overflow:visible;enable-background:accumulate" />
    <path
       sodipodi:nodetypes="ccccccccc"
       id="path3844"
       d="m 354,274 -18,6 4,12 14,-10 28,-2 26,8 -8,-8 -18,-6 z"
       style="color:#000000;fill:#b09b9b;fill-opacity:1;stroke:none;stroke-width:0.25;marker:none;visibility:visible;display:inline;overflow:visible;enable-background:accumulate"
       inkscape:connector-curvature="0" />
    <path
       sodipodi:nodetypes="ccccccc"
       inkscape:connector-curvature="0"
       id="path4320"
       d="m 340,292 14,-8 28,-2 26,6 -26,-8 -28,2 z"
       style="color:#000000;fill:#333333;fill-opacity:1;stroke:none;stroke-width:0.25;marker:none;visibility:visible;display:inline;overflow:visible;enable-background:accumulate" />
    <path
       sodipodi:nodetypes="ccccccccc"
       inkscape:connector-curvature="0"
       id="path3845"
       d="m 408,288 -8,-12 -18,-6 -28,0 -18,10 18,-6 28,0 18,6 z"
       style="color:#000000;fill:#a69292;fill-opacity:1;stroke:none;stroke-width:0.25;marker:none;visibility:visible;overflow:visible;enable-background:accumulate" />
    <path
       sodipodi:nodetypes="cccc"
       inkscape:connector-curvature="0"
       id="path3077"
       d="m 272,304 16,-16 -4,8 z"
       style="color:#000000;fill:#d8bcbc;fill-opacity:1;stroke:none;stroke-width:0.25;marker:none;visibility:visible;display:inline;overflow:visible;enable-background:accumulate" />
    <path
       sodipodi:nodetypes="cccccccccccc"
       inkscape:connector-curvature="0"
       id="path3926"
       d="m 256,252 -16,4 -8,8 -8,16 -2,4 2,4 16,-20 24,-4 16,8 8,0 -12,-13 z"
       style="color:#000000;fill:#333333;fill-opacity:1;stroke:none;stroke-width:0.25;marker:none;visibility:visible;overflow:visible;enable-background:accumulate" />
    <path
       sodipodi:nodetypes="cccccccccccc"
       inkscape:connector-curvature="0"
       id="path2993"
       d="m 328,272 8,-16 16,-8 24,0 32,8 16,16 -16,0 -16,-8 -24,-8 -16,8 -16,8 z"
       style="color:#000000;fill:#333333;stroke:none;stroke-width:0.25;marker:none;visibility:visible;display:inline;overflow:visible;enable-background:accumulate" />
    <path
       sodipodi:nodetypes="ccccccccccccccccccccccccccccccccccccccccccccccccccccccccccccccccccccccccccccccccccccccccccccccccccccccccc"
       inkscape:connector-curvature="0"
       id="path3849"
       d="m 344,112 -16,8 -16,0 -16,8 -16,8 -16,16 -16,16 -8,16 0,16 8,-16 16,-16 16,8 0,-8 16,16 -8,-16 24,16 -8,-16 40,32 -8,-24 16,24 -8,-32 24,32 -8,-32 24,32 -8,-24 16,24 0,-16 16,16 8,-8 8,8 8,-8 8,16 0,24 8,16 8,32 0,48 0,32 0,8 -8,24 -16,24 -24,16 -8,-8 -8,-24 -16,-8 -16,-8 -16,0 -24,-8 -8,-8 -8,0 -8,8 -8,-8 -8,0 -8,16 -8,8 -16,8 -8,16 0,14.40625 L 232,416 l -8,-40 0,24 0,24 -8,32 0,32 16,40 24,40 40,16 72,-8 24,-24 32,-32 24,-24 8,-8 16,-24 8,-32 -8,-32 -8,-24 0,-24 0,-24 8,-16 8,-8 8,-48 -8,-40 -8,-24 -16,-24 -16,-16 -24,-16 -24,-8 -24,-8 z m -72,288 72,0 16,8 8,8 24,16 0,16 -24,16 -24,16 -16,16 -24,8 -24,-16 -8,-16 -24,-32 8,-8 8,-16 0,-8 z"
       style="color:#000000;fill:#333333;stroke:none;stroke-width:0.25;marker:none;visibility:visible;overflow:visible;enable-background:accumulate" />
    <path
       sodipodi:nodetypes="cccccc"
       inkscape:connector-curvature="0"
       id="path3789"
       d="m 296,440 -8,8 16,24 16,-24 -8,-8 z"
       style="color:#000000;fill:#333333;fill-opacity:1;stroke:none;stroke-width:0.25;marker:none;visibility:visible;display:inline;overflow:visible;enable-background:accumulate" />
  </g>
</svg>
