<?xml version="1.0" encoding="UTF-8" standalone="no"?>
<!-- Created with Inkscape (http://www.inkscape.org/) -->

<svg
   xmlns:dc="http://purl.org/dc/elements/1.1/"
   xmlns:cc="http://creativecommons.org/ns#"
   xmlns:rdf="http://www.w3.org/1999/02/22-rdf-syntax-ns#"
   xmlns:svg="http://www.w3.org/2000/svg"
   xmlns="http://www.w3.org/2000/svg"
   xmlns:sodipodi="http://sodipodi.sourceforge.net/DTD/sodipodi-0.dtd"
   xmlns:inkscape="http://www.inkscape.org/namespaces/inkscape"
   width="1296"
   height="512"
   id="svg2"
   version="1.1"
   inkscape:version="0.91 r13725"
   sodipodi:docname="ddl.svg"
   inkscape:export-filename="/media/Dropbox/Public/www/graphic/ddl/ddl.png"
   inkscape:export-xdpi="90"
   inkscape:export-ydpi="90">
  <defs
     id="defs4" />
  <sodipodi:namedview
     id="base"
     pagecolor="#ffffff"
     bordercolor="#666666"
     borderopacity="1.0"
     inkscape:pageopacity="0.0"
     inkscape:pageshadow="2"
     inkscape:zoom="1.0895062"
     inkscape:cx="648"
     inkscape:cy="256"
     inkscape:document-units="px"
     inkscape:current-layer="layer1"
     showgrid="false"
     inkscape:showpageshadow="false"
     inkscape:snap-center="true"
     inkscape:snap-object-midpoints="true"
     inkscape:snap-midpoints="true"
     inkscape:snap-smooth-nodes="true"
     inkscape:object-nodes="true"
     inkscape:object-paths="true"
     inkscape:snap-intersection-paths="true"
     showguides="true"
     inkscape:guide-bbox="true"
     fit-margin-top="0"
     fit-margin-left="0"
     fit-margin-right="0"
     fit-margin-bottom="0"
     inkscape:window-width="1920"
     inkscape:window-height="1043"
     inkscape:window-x="1600"
     inkscape:window-y="0"
     inkscape:window-maximized="1">
    <inkscape:grid
       type="xygrid"
       id="grid2985"
       empspacing="8"
       visible="true"
       enabled="true"
       snapvisiblegridlinesonly="true"
       originx="63.999995px"
       originy="-512.00002px" />
    <sodipodi:guide
       position="0,0"
       orientation="0,1296.0105"
       id="guide7326" />
    <sodipodi:guide
       position="1296.0105,0"
       orientation="-512.00006,0"
       id="guide7328" />
    <sodipodi:guide
       position="1296.0105,512.00006"
       orientation="0,-1296.0105"
       id="guide7330" />
    <sodipodi:guide
       position="0,512.00006"
       orientation="512.00006,0"
       id="guide7332" />
  </sodipodi:namedview>
  <metadata
     id="metadata7">
    <rdf:RDF>
      <cc:Work
         rdf:about="">
        <dc:format>image/svg+xml</dc:format>
        <dc:type
           rdf:resource="http://purl.org/dc/dcmitype/StillImage" />
        <dc:title></dc:title>
      </cc:Work>
    </rdf:RDF>
  </metadata>
  <g
     inkscape:label="Layer 1"
     inkscape:groupmode="layer"
     id="layer1"
     transform="translate(64,-28.362244)">
    <g
       id="g3028"
       inkscape:export-xdpi="90"
       inkscape:export-ydpi="90">
      <path
         id="path3984"
         d="m 784.01054,28.362233 0,511.999997 447.99996,0 0,-511.999997 -447.99996,0 z"
         style="fill:#4d4d4d;fill-opacity:0.47058824;stroke:#000000;stroke-width:0;stroke-linecap:round;stroke-linejoin:round;stroke-miterlimit:4;stroke-dasharray:none;stroke-opacity:1"
         inkscape:connector-curvature="0" />
      <rect
         ry="0"
         rx="0"
         y="28.362183"
         x="704.01056"
         height="512"
         width="512"
         id="rect3761"
         style="fill:#ff5555;fill-opacity:1;stroke:#000000;stroke-width:0;stroke-linecap:round;stroke-linejoin:round;stroke-miterlimit:4;stroke-dasharray:none;stroke-opacity:1" />
    </g>
    <g
       id="g3032"
       inkscape:export-xdpi="90"
       inkscape:export-ydpi="90">
      <path
         inkscape:connector-curvature="0"
         style="fill:#4d4d4d;fill-opacity:0.47058824;stroke:#000000;stroke-width:0;stroke-linecap:round;stroke-linejoin:round;stroke-miterlimit:4;stroke-dasharray:none;stroke-opacity:1"
         d="m 400,28.362233 0,511.999997 448,0 0,-511.999997 -448,0 z"
         id="path3964" />
      <path
         transform="translate(-128,28.362183)"
         inkscape:connector-curvature="0"
         id="rect3812"
         d="m 512,0 0,512 448,0 0,-512 -448,0 z"
         style="fill:#8dc7c7;fill-opacity:1;stroke:#000000;stroke-width:0;stroke-linecap:round;stroke-linejoin:round;stroke-miterlimit:4;stroke-dasharray:none;stroke-opacity:1" />
    </g>
    <g
       id="g3036"
       inkscape:export-xdpi="90"
       inkscape:export-ydpi="90">
      <path
         id="path3962"
         d="m 15.999995,28.362233 0,511.999997 384.000005,0 0,-511.999997 -384.000005,0 z"
         style="fill:#4d4d4d;fill-opacity:0.47058824;stroke:#000000;stroke-width:0;stroke-linecap:round;stroke-linejoin:round;stroke-miterlimit:4;stroke-dasharray:none;stroke-opacity:1"
         inkscape:connector-curvature="0" />
      <path
         inkscape:connector-curvature="0"
         style="fill:#e2b567;fill-opacity:1;stroke:#000000;stroke-width:0;stroke-linecap:round;stroke-linejoin:round;stroke-miterlimit:4;stroke-dasharray:none;stroke-opacity:1"
         d="m -5e-6,28.362183 0,511.999997 384.000005,0 0,-511.999997 -384.000005,0 z"
         id="path3886" />
    </g>
    <g
       id="g3052"
       inkscape:export-xdpi="90"
       inkscape:export-ydpi="90">
      <path
         style="fill:#4d4d4d;fill-opacity:0.47058824"
         d="m 1077.7917,77.393436 c -46.861,-0.34023 -91.70566,23.164474 -117.78116,63.343744 l 0,0.34375 C 933.93504,100.90166 889.0902,77.396956 842.22929,77.737186 c -16.94969,0.12307 -34.16116,3.36119 -50.84375,10.062497 -71.35831,28.668957 -105.98317,109.770117 -77.3125,181.124997 27.48961,68.43305 245.9375,255.4375 245.9375,255.4375 l 0,-0.34375 c 0,0 218.44776,-187.00445 245.93746,-255.4375 28.6706,-71.35488 -5.9542,-152.45604 -77.3125,-181.124997 -16.6826,-6.701307 -33.8942,-9.939427 -50.8438,-10.062497 z"
         id="path3834"
         inkscape:connector-curvature="0" />
      <g
         id="g3048">
        <path
           style="fill:#f9f9f9"
           d="m 960.01054,508.01843 0,-382.9375 c -26.0755,-40.179267 -70.9203,-63.683977 -117.78125,-63.343747 -16.94969,0.12307 -34.16116,3.361193 -50.84375,10.0625 -71.35831,28.668957 -105.98317,109.770117 -77.3125,181.124997 27.48961,68.43305 245.9375,255.4375 245.9375,255.4375 l 0,-0.34375 z"
           id="path3989"
           inkscape:connector-curvature="0" />
        <path
           style="fill:#ececec"
           d="m 960.01054,124.73718 0,0.34375 0,382.9375 c 0,0 218.44776,-187.00445 245.93746,-255.4375 28.6706,-71.35488 -5.9542,-152.45604 -77.3125,-181.124997 -16.6826,-6.701307 -33.8941,-9.93943 -50.8438,-10.0625 -46.8609,-0.34023 -91.70566,23.16448 -117.78116,63.343747 z"
           id="path3795"
           inkscape:connector-curvature="0" />
      </g>
    </g>
    <g
       id="g3064"
       inkscape:export-xdpi="90"
       inkscape:export-ydpi="90">
      <path
         inkscape:connector-curvature="0"
         style="fill:#4d4d4d;fill-opacity:0.47058824;stroke:#000000;stroke-width:0;stroke-linecap:round;stroke-linejoin:round;stroke-miterlimit:4;stroke-dasharray:none;stroke-opacity:1"
         d="m -64,76.362192 0,447.999988 c 123.71178,0 224,-100.28822 224,-224 C 160,176.6504 59.71178,76.362192 -64,76.362192 Z"
         id="path3838" />
      <g
         id="g3040">
        <path
           style="fill:#ececec;fill-opacity:1;stroke:#000000;stroke-width:0;stroke-linecap:round;stroke-linejoin:round;stroke-miterlimit:4;stroke-dasharray:none;stroke-opacity:1"
           d="M 224,256 0,256 0,480 c 123.71178,0 224,-100.28822 224,-224 z"
           id="path3999"
           transform="translate(-64,28.362183)"
           inkscape:connector-curvature="0" />
        <path
           style="fill:#f9f9f9;fill-opacity:1;stroke:#000000;stroke-width:0;stroke-linecap:round;stroke-linejoin:round;stroke-miterlimit:4;stroke-dasharray:none;stroke-opacity:1"
           d="m 0,32 0,224 224,0 C 224,132.28822 123.71178,32 0,32 Z"
           id="path3818"
           transform="translate(-64,28.362183)"
           inkscape:connector-curvature="0" />
      </g>
    </g>
    <g
       id="g3058"
       inkscape:export-xdpi="90"
       inkscape:export-ydpi="90">
      <path
         id="path3836"
         d="m 320,76.362186 0,447.999994 c 123.71178,0 224,-100.28822 224,-224 C 544,176.6504 443.71178,76.362186 320,76.362186 Z"
         style="fill:#4d4d4d;fill-opacity:0.47058824;stroke:#000000;stroke-width:0;stroke-linecap:round;stroke-linejoin:round;stroke-miterlimit:4;stroke-dasharray:none;stroke-opacity:1"
         inkscape:connector-curvature="0" />
      <g
         id="g3044">
        <path
           style="fill:#ececec;fill-opacity:1;stroke:#000000;stroke-width:0;stroke-linecap:round;stroke-linejoin:round;stroke-miterlimit:4;stroke-dasharray:none;stroke-opacity:1"
           d="m 608,256 -224,0 0,224 c 123.71178,0 224,-100.28822 224,-224 z"
           id="path3996"
           transform="translate(-64,28.362183)"
           inkscape:connector-curvature="0" />
        <path
           style="fill:#f9f9f9;fill-opacity:1;stroke:#000000;stroke-width:0;stroke-linecap:round;stroke-linejoin:round;stroke-miterlimit:4;stroke-dasharray:none;stroke-opacity:1"
           d="m 384,32 0,224 224,0 C 608,132.28822 507.71178,32 384,32 Z"
           id="path3826"
           transform="translate(-64,28.362183)"
           inkscape:connector-curvature="0" />
      </g>
    </g>
  </g>
</svg>
