<?xml version="1.0" encoding="UTF-8" standalone="no"?>
<!-- Created with Inkscape (http://www.inkscape.org/) -->

<svg
   xmlns:dc="http://purl.org/dc/elements/1.1/"
   xmlns:cc="http://creativecommons.org/ns#"
   xmlns:rdf="http://www.w3.org/1999/02/22-rdf-syntax-ns#"
   xmlns:svg="http://www.w3.org/2000/svg"
   xmlns="http://www.w3.org/2000/svg"
   xmlns:xlink="http://www.w3.org/1999/xlink"
   xmlns:sodipodi="http://sodipodi.sourceforge.net/DTD/sodipodi-0.dtd"
   xmlns:inkscape="http://www.inkscape.org/namespaces/inkscape"
   width="1024"
   height="272"
   viewBox="0 0 1024 272.00001"
   id="svg5059"
   version="1.1"
   inkscape:version="0.91 r13725"
   sodipodi:docname="ddl-grey.svg"
   inkscape:export-filename="/media/Dropbox/Public/www/graphic/ddl/ddl-grey.png"
   inkscape:export-xdpi="90"
   inkscape:export-ydpi="90">
  <defs
     id="defs5061">
    <linearGradient
       inkscape:collect="always"
       id="linearGradient4183">
      <stop
         style="stop-color:#c2c2c2;stop-opacity:1"
         offset="0"
         id="stop4185" />
      <stop
         style="stop-color:#969696;stop-opacity:1"
         offset="1"
         id="stop4187" />
    </linearGradient>
    <linearGradient
       inkscape:collect="always"
       xlink:href="#linearGradient4183"
       id="linearGradient4189"
       x1="48.048359"
       y1="339.2056"
       x2="1008.0483"
       y2="595.20563"
       gradientUnits="userSpaceOnUse"
       gradientTransform="matrix(0.99999989,0,0,1.0008267,4.0288867e-5,-16.179722)" />
  </defs>
  <sodipodi:namedview
     id="base"
     pagecolor="#ffffff"
     bordercolor="#666666"
     borderopacity="1.0"
     inkscape:pageopacity="0.0"
     inkscape:pageshadow="2"
     inkscape:zoom="1.3808594"
     inkscape:cx="512"
     inkscape:cy="136"
     inkscape:document-units="px"
     inkscape:current-layer="layer1"
     showgrid="false"
     units="px"
     borderlayer="true"
     inkscape:showpageshadow="false"
     fit-margin-top="0"
     fit-margin-left="0"
     fit-margin-right="0"
     fit-margin-bottom="0"
     showborder="true"
     inkscape:window-width="1920"
     inkscape:window-height="1043"
     inkscape:window-x="1600"
     inkscape:window-y="0"
     inkscape:window-maximized="1"
     inkscape:snap-bbox="true"
     inkscape:bbox-paths="true"
     inkscape:bbox-nodes="true"
     inkscape:snap-bbox-edge-midpoints="true"
     inkscape:snap-bbox-midpoints="true"
     inkscape:snap-intersection-paths="true"
     inkscape:object-paths="true"
     inkscape:object-nodes="true"
     inkscape:snap-smooth-nodes="true"
     inkscape:snap-midpoints="true"
     inkscape:snap-grids="true"
     inkscape:snap-nodes="true"
     showguides="true"
     inkscape:guide-bbox="true">
    <inkscape:grid
       type="xygrid"
       id="grid5741"
       dotted="false"
       empspacing="8"
       originx="-9.9475982e-14"
       originy="1.5403936e-05" />
    <sodipodi:guide
       position="0,0"
       orientation="0,1024"
       id="guide4591" />
    <sodipodi:guide
       position="1024,0"
       orientation="-272,0"
       id="guide4593" />
    <sodipodi:guide
       position="1024,272.00001"
       orientation="0,-1024"
       id="guide4595" />
    <sodipodi:guide
       position="0,272.00001"
       orientation="272,0"
       id="guide4597" />
    <sodipodi:guide
       position="560,264.00003"
       orientation="0,1"
       id="guide4599" />
  </sodipodi:namedview>
  <metadata
     id="metadata5064">
    <rdf:RDF>
      <cc:Work
         rdf:about="">
        <dc:format>image/svg+xml</dc:format>
        <dc:type
           rdf:resource="http://purl.org/dc/dcmitype/StillImage" />
        <dc:title></dc:title>
      </cc:Work>
    </rdf:RDF>
  </metadata>
  <g
     inkscape:label="Layer 1"
     inkscape:groupmode="layer"
     id="layer1"
     transform="translate(15.951641,-323.20561)">
    <path
       style="fill:url(#linearGradient4189);fill-opacity:1;stroke:#000000;stroke-width:0.2013597;stroke-linecap:round;stroke-linejoin:round;stroke-miterlimit:4;stroke-dasharray:none;stroke-opacity:1"
       d="m -15.951599,323.30627 1023.999899,0 0.125,255.79864 -1023.999901,0 z"
       id="rect4039"
       inkscape:connector-curvature="0"
       sodipodi:nodetypes="ccccc" />
    <path
       style="fill:#4d4d4d;fill-opacity:0.8;stroke:#000000;stroke-width:0;stroke-linecap:round;stroke-linejoin:round;stroke-miterlimit:4;stroke-dasharray:none;stroke-opacity:1"
       d="m 744.04836,371.70695 -32,32 0,64 128,128 128,-128 0,-64 -32,-32 -32,0 -32,0 -32,32 -32,-32 -32,0 -32,0 z"
       id="path4400"
       inkscape:connector-curvature="0" />
    <path
       style="fill:#4d4d4d;fill-opacity:0.8;stroke:none;stroke-width:0.25;stroke-miterlimit:4;stroke-dasharray:none"
       d="m 504.04836,339.70695 0,256 64,0 32,0 16,0 16,0 32,0 32,0 0,-48 -32,0 -32,0 -16,0 -16,0 -32,0 0,-208 -64,0 z"
       id="path4298"
       inkscape:connector-curvature="0" />
    <path
       style="fill:#4d4d4d;fill-opacity:0.8;stroke:none;stroke-width:0.25;stroke-miterlimit:4;stroke-dasharray:none"
       d="m 94.235859,339.62885 c -3.9375,-0.0469 -6.1875,0.0781 -6.1875,0.0781 l -32,0 -64,0 0,256 64,0 32,0 c 0,0 144.000001,8 144.000001,-128 0,-119 -110.25,-127.75 -137.812501,-128.07812 z m -38.1875,48.07812 32,0 c 80.000001,0 80.000001,80 80.000001,80 0,0 1e-5,80 -80.000001,80 l -32,0 0,-160 z"
       id="path4200"
       inkscape:connector-curvature="0" />
    <g
       transform="translate(48.173364,-753.06805)"
       id="g3967"
       style="fill:#f9f9f9;stroke:none"
       inkscape:export-xdpi="179.521"
       inkscape:export-ydpi="179.521">
      <path
         inkscape:connector-curvature="0"
         id="rect3952"
         d="m -4.9999999e-6,1056.0001 63.9999999999999,0 0,256 -63.9999999999999,0 z"
         style="fill:#f2f2f2;fill-opacity:1;stroke:none;stroke-width:0.25;stroke-miterlimit:4;stroke-dasharray:none"
         transform="translate(-64,28.362183)" />
      <path
         inkscape:connector-curvature="0"
         id="rect3954"
         d="m 63.999996,1056.0001 32,0 0,48 -32,0 z"
         style="fill:#f9f9f9;stroke:none;stroke-width:0.25;stroke-miterlimit:4;stroke-dasharray:none"
         transform="translate(-64,28.362183)" />
      <path
         inkscape:connector-curvature="0"
         id="rect3956"
         d="m -4.9999999e-6,1292.3623 31.9999999999999,0 0,48 -31.9999999999999,0 z"
         style="fill:#ffffff;fill-opacity:1;stroke:none;stroke-width:0.25;stroke-miterlimit:4;stroke-dasharray:none" />
      <path
         sodipodi:nodetypes="ccccc"
         transform="translate(-64,28.362183)"
         inkscape:connector-curvature="0"
         id="path3958"
         d="m 176,1184.0001 c 0,0 0,-80 -80.000005,-80 l 0,-48 c 0,0 144.000005,-8 144.000005,128 z"
         style="color:#000000;display:inline;overflow:visible;visibility:visible;fill:#e6e6e6;fill-opacity:1;stroke:none;stroke-width:0.25;stroke-linecap:round;stroke-linejoin:round;stroke-miterlimit:4;stroke-dasharray:none;stroke-dashoffset:0;stroke-opacity:1;marker:none;enable-background:accumulate" />
      <path
         style="color:#000000;display:inline;overflow:visible;visibility:visible;fill:#f9f9f9;fill-opacity:1;stroke:none;stroke-width:0.25;stroke-linecap:round;stroke-linejoin:round;stroke-miterlimit:4;stroke-dasharray:none;stroke-dashoffset:0;stroke-opacity:1;marker:none;enable-background:accumulate"
         d="m 112,1212.3623 c 0,0 0,80 -80.00001,80 l 0,48 c 0,0 144.00001,8 144.00001,-128 z"
         id="path3965"
         inkscape:connector-curvature="0"
         sodipodi:nodetypes="ccccc" />
    </g>
    <g
       id="g4139"
       transform="translate(32.173359,-753.06805)"
       inkscape:export-xdpi="179.521"
       inkscape:export-ydpi="179.521">
      <path
         style="fill:#ffffff;fill-opacity:1;stroke:#000000;stroke-width:0;stroke-linecap:round;stroke-linejoin:round;stroke-miterlimit:4;stroke-dasharray:none;stroke-opacity:1"
         d="m 672,1212.3623 128,128 0,-128 -128,0 z"
         id="path4043"
         inkscape:connector-curvature="0" />
      <path
         style="fill:#f2f2f2;fill-opacity:1;stroke:#000000;stroke-width:0;stroke-linecap:round;stroke-linejoin:round;stroke-miterlimit:4;stroke-dasharray:none;stroke-opacity:1"
         d="m 672,1148.3623 0,64 64.00004,0 64.00004,0 0,-64 -64.00004,0 -64.00004,0 z"
         id="path4047"
         inkscape:connector-curvature="0" />
      <path
         transform="translate(-64,28.362183)"
         id="path4131"
         d="m 832,1088 -32,0 -32,0 0,32 32,0 32,0 0,-32 z"
         style="fill:#e6e6e6;fill-opacity:1;stroke:#000000;stroke-width:0;stroke-linecap:round;stroke-linejoin:round;stroke-miterlimit:4;stroke-dasharray:none;stroke-opacity:1"
         inkscape:connector-curvature="0" />
      <path
         transform="translate(-64,28.362183)"
         id="path4126"
         d="m 832,1088 0,32 32,0 -32,-32 z"
         style="fill:#f2f2f2;fill-opacity:1;stroke:#000000;stroke-width:0;stroke-linecap:round;stroke-linejoin:round;stroke-miterlimit:4;stroke-dasharray:none;stroke-opacity:1"
         inkscape:connector-curvature="0" />
      <path
         transform="translate(-64,28.362183)"
         id="path4051"
         d="m 736,1120 32,0 0,-32 -32,32 z"
         style="fill:#ffffff;fill-opacity:1;stroke:#000000;stroke-width:0;stroke-linecap:round;stroke-linejoin:round;stroke-miterlimit:4;stroke-dasharray:none;stroke-opacity:1"
         inkscape:connector-curvature="0" />
      <path
         inkscape:connector-curvature="0"
         id="path4117"
         d="m 928,1212.3623 -128,128 0,-128 128,0 z"
         style="fill:#f9f9f9;fill-opacity:1;stroke:#000000;stroke-width:0;stroke-linecap:round;stroke-linejoin:round;stroke-miterlimit:4;stroke-dasharray:none;stroke-opacity:1" />
      <path
         inkscape:connector-curvature="0"
         id="path4119"
         d="m 800,1148.3623 0,64 64.00004,0 64.00004,0 0,-64 -64.00004,0 -64.00004,0 z"
         style="fill:#ececec;fill-opacity:1;stroke:#000000;stroke-width:0;stroke-linecap:round;stroke-linejoin:round;stroke-miterlimit:4;stroke-dasharray:none;stroke-opacity:1" />
      <path
         inkscape:connector-curvature="0"
         style="fill:#cccccc;fill-opacity:1;stroke:#000000;stroke-width:0;stroke-linecap:round;stroke-linejoin:round;stroke-miterlimit:4;stroke-dasharray:none;stroke-opacity:1"
         d="m 896,1116.3623 -32,0 -32,0 0,32 32,0 32,0 0,-32 z"
         id="path4133" />
      <path
         inkscape:connector-curvature="0"
         style="fill:#ececec;fill-opacity:1;stroke:#000000;stroke-width:0;stroke-linecap:round;stroke-linejoin:round;stroke-miterlimit:4;stroke-dasharray:none;stroke-opacity:1"
         d="m 896,1116.3623 0,32 32,0 -32,-32 z"
         id="path4135" />
      <path
         inkscape:connector-curvature="0"
         style="fill:#f9f9f9;fill-opacity:1;stroke:#000000;stroke-width:0;stroke-linecap:round;stroke-linejoin:round;stroke-miterlimit:4;stroke-dasharray:none;stroke-opacity:1"
         d="m 800,1148.3623 32,0 0,-32 -32,32 z"
         id="path4137" />
    </g>
    <g
       id="g4559"
       transform="matrix(0.96874996,0,0,0.96874996,32.130599,10.999979)">
      <g
         style="fill:#4d4d4d;fill-opacity:0.49411765"
         transform="matrix(1.3112189,0,0,1,-305.81143,0)"
         id="g4542">
        <path
           inkscape:connector-curvature="0"
           id="path4497"
           style="font-style:normal;font-variant:normal;font-weight:normal;font-stretch:normal;font-size:20px;line-height:125%;font-family:Ubuntu;-inkscape-font-specification:Ubuntu;letter-spacing:0px;word-spacing:0px;fill:#4d4d4d;fill-opacity:0.49411765;stroke:none"
           d="m 985.58832,592.17882 15.02448,0 0,-3.15762 q 0,-3.99879 -1.81172,-5.84935 -1.81163,-1.86351 -5.71994,-1.86351 -3.88226,0 -5.68107,1.86351 -1.81175,1.85056 -1.81175,5.84935 l 0,3.15762 z m -2.14821,2.6141 0,-5.37055 q 0,-5.61642 2.34233,-8.24345 2.32939,-2.62703 7.2987,-2.62703 4.99534,0 7.33756,2.63996 2.3424,2.63998 2.3424,8.23052 l 0,5.37055 -19.32099,0 z" />
        <path
           inkscape:connector-curvature="0"
           id="path4499"
           style="font-style:normal;font-variant:normal;font-weight:normal;font-stretch:normal;font-size:20px;line-height:125%;font-family:Ubuntu;-inkscape-font-specification:Ubuntu;letter-spacing:0px;word-spacing:0px;fill:#4d4d4d;fill-opacity:0.49411765;stroke:none"
           d="m 990.49297,566.10259 q -0.23297,0.40117 -0.33646,0.87999 -0.11662,0.46588 -0.11662,1.03529 0,2.0188 1.32,3.10585 1.30701,1.07411 3.76585,1.07411 l 7.63516,0 0,2.3941 -14.4939,0 0,-2.3941 2.25167,0 q -1.31993,-0.75058 -1.95403,-1.9541 -0.64705,-1.20353 -0.64705,-2.92469 0,-0.24587 0.0388,-0.54352 0.0258,-0.29764 0.0906,-0.65999 l 2.44591,-0.0133 z" />
        <path
           inkscape:connector-curvature="0"
           id="path4501"
           style="font-style:normal;font-variant:normal;font-weight:normal;font-stretch:normal;font-size:20px;line-height:125%;font-family:Ubuntu;-inkscape-font-specification:Ubuntu;letter-spacing:0px;word-spacing:0px;fill:#4d4d4d;fill-opacity:0.49411765;stroke:none"
           d="m 994.91888,551.75096 1.16469,0 0,10.94813 q 2.45871,-0.15529 3.75287,-1.47527 1.28116,-1.33293 1.28116,-3.70115 0,-1.37176 -0.3365,-2.65292 -0.3364,-1.29411 -1.00933,-2.56233 l 2.25173,0 q 0.5434,1.28117 0.8282,2.62703 0.2847,1.34588 0.2847,2.73057 0,3.46821 -2.0188,5.49995 -2.01875,2.01881 -5.46113,2.01881 -3.55873,0 -5.64229,-1.91529 -2.09646,-1.92821 -2.09646,-5.18936 0,-2.92467 1.88934,-4.61996 1.87657,-1.70821 5.11182,-1.70821 z m -0.69889,2.38115 q -1.95409,0.0258 -3.11877,1.09999 -1.16469,1.06116 -1.16469,2.82115 0,1.99292 1.12586,3.19645 1.12586,1.19056 3.17059,1.37174 l -0.0132,-8.48933 z" />
        <path
           inkscape:connector-curvature="0"
           id="path4503"
           style="font-style:normal;font-variant:normal;font-weight:normal;font-stretch:normal;font-size:20px;line-height:125%;font-family:Ubuntu;-inkscape-font-specification:Ubuntu;letter-spacing:0px;word-spacing:0px;fill:#4d4d4d;fill-opacity:0.49411765;stroke:none"
           d="m 995.47532,541.25576 q 0,2.88585 0.65993,3.99878 0.66007,1.11294 2.25172,1.11294 1.26832,0 2.01893,-0.82823 0.7375,-0.84117 0.7375,-2.27763 0,-1.97998 -1.39761,-3.17056 -1.4105,-1.20351 -3.73987,-1.20351 l -0.5306,0 0,2.36821 z m -0.98354,-4.74937 8.26932,0 0,2.38116 -2.1999,0 q 1.32,0.81528 1.9541,2.03174 0.6211,1.21646 0.6211,2.97644 0,2.22586 -1.2424,3.54585 -1.2552,1.30705 -3.35172,1.30705 -2.44586,0 -3.6882,-1.63058 -1.24234,-1.64351 -1.24234,-4.89171 l 0,-3.33879 -0.23296,0 q -1.64347,0 -2.53637,1.08704 -0.90588,1.07412 -0.90588,3.02822 0,1.24234 0.29763,2.41997 0.29763,1.17764 0.8929,2.26468 l -2.19995,0 q -0.5047,-1.30705 -0.75057,-2.53644 -0.25882,-1.22941 -0.25882,-2.3941 0,-3.14468 1.63054,-4.6976 1.63061,-1.55293 4.94352,-1.55293 z" />
        <path
           inkscape:connector-curvature="0"
           id="path4505"
           style="font-style:normal;font-variant:normal;font-weight:normal;font-stretch:normal;font-size:20px;line-height:125%;font-family:Ubuntu;-inkscape-font-specification:Ubuntu;letter-spacing:0px;word-spacing:0px;fill:#4d4d4d;fill-opacity:0.49411765;stroke:none"
           d="m 991.0494,520.30419 q -1.60464,-0.89294 -2.36816,-2.13528 -0.76352,-1.24234 -0.76352,-2.92468 0,-2.26468 1.59171,-3.49409 1.5788,-1.22939 4.50357,-1.22939 l 8.7481,0 0,2.39409 -8.67044,0 q -2.08356,0 -3.09294,0.73764 -1.00938,0.73764 -1.00938,2.25175 0,1.85057 1.22936,2.92468 1.22935,1.0741 3.35174,1.0741 l 8.19166,0 0,2.3941 -8.67044,0 q -2.09655,0 -3.09294,0.73764 -1.00938,0.73764 -1.00938,2.27763 0,1.82468 1.24235,2.8988 1.22935,1.0741 3.33875,1.0741 l 8.19166,0 0,2.39409 -14.49397,0 0,-2.39409 2.25168,0 q -1.33287,-0.81529 -1.96698,-1.95411 -0.63411,-1.1388 -0.63411,-2.70467 0,-1.57881 0.80234,-2.67881 0.80236,-1.11292 2.32934,-1.6435 z" />
        <path
           inkscape:connector-curvature="0"
           id="path4507"
           style="font-style:normal;font-variant:normal;font-weight:normal;font-stretch:normal;font-size:20px;line-height:125%;font-family:Ubuntu;-inkscape-font-specification:Ubuntu;letter-spacing:0px;word-spacing:0px;fill:#4d4d4d;fill-opacity:0.49411765;stroke:none"
           d="m 985.58832,494.60325 15.02448,0 0,-3.15762 q 0,-3.99879 -1.81172,-5.84937 -1.81163,-1.86351 -5.71994,-1.86351 -3.88226,0 -5.68107,1.86351 -1.81175,1.85058 -1.81175,5.84937 l 0,3.15762 z m -2.14821,2.61408 0,-5.37053 q 0,-5.61642 2.34233,-8.24345 2.32939,-2.62705 7.2987,-2.62705 4.99534,0 7.33756,2.63998 2.3424,2.63998 2.3424,8.23052 l 0,5.37053 -19.32099,0 z" />
        <path
           inkscape:connector-curvature="0"
           id="path4509"
           style="font-style:normal;font-variant:normal;font-weight:normal;font-stretch:normal;font-size:20px;line-height:125%;font-family:Ubuntu;-inkscape-font-specification:Ubuntu;letter-spacing:0px;word-spacing:0px;fill:#4d4d4d;fill-opacity:0.49411765;stroke:none"
           d="m 994.91888,464.52823 1.16469,0 0,10.94813 q 2.45871,-0.15529 3.75287,-1.47528 1.28116,-1.33293 1.28116,-3.70115 0,-1.37174 -0.3365,-2.65291 -0.3364,-1.2941 -1.00933,-2.56232 l 2.25173,0 q 0.5434,1.28115 0.8282,2.62703 0.2847,1.34586 0.2847,2.73057 0,3.46819 -2.0188,5.49994 -2.01875,2.0188 -5.46113,2.0188 -3.55873,0 -5.64229,-1.91527 -2.09646,-1.92822 -2.09646,-5.18936 0,-2.92469 1.88934,-4.61996 1.87657,-1.70822 5.11182,-1.70822 z m -0.69889,2.38115 q -1.95409,0.0258 -3.11877,1.09999 -1.16469,1.06117 -1.16469,2.82115 0,1.99292 1.12586,3.19644 1.12586,1.19058 3.17059,1.37175 l -0.0132,-8.48933 z" />
        <path
           inkscape:connector-curvature="0"
           id="path4511"
           style="font-style:normal;font-variant:normal;font-weight:normal;font-stretch:normal;font-size:20px;line-height:125%;font-family:Ubuntu;-inkscape-font-specification:Ubuntu;letter-spacing:0px;word-spacing:0px;fill:#4d4d4d;fill-opacity:0.49411765;stroke:none"
           d="m 988.69418,451.38011 2.25173,0 q -0.51761,1.00941 -0.77642,2.09645 -0.2588,1.08705 -0.2588,2.25175 0,1.77292 0.54345,2.66586 0.54358,0.87999 1.63061,0.87999 0.82823,0 1.30701,-0.63411 0.46593,-0.63412 0.8929,-2.54939 l 0.18128,-0.81529 q 0.54345,-2.53645 1.53998,-3.59761 0.98353,-1.07412 2.75634,-1.07412 2.01884,0 3.19654,1.6047 1.1776,1.59175 1.1776,4.38702 0,1.16469 -0.233,2.43291 -0.22,1.25529 -0.6729,2.65293 l -2.45873,0 q 0.68573,-1.32 1.03523,-2.60116 0.3364,-1.28116 0.3364,-2.53645 0,-1.68234 -0.5694,-2.58821 -0.58226,-0.90587 -1.63046,-0.90587 -0.97068,0 -1.48829,0.65999 -0.51761,0.64705 -0.99639,2.85998 l -0.19414,0.82823 q -0.46593,2.21292 -1.42349,3.19644 -0.97068,0.98351 -2.65298,0.98351 -2.04473,0 -3.1576,-1.4494 -1.11293,-1.4494 -1.11293,-4.11525 0,-1.31999 0.19411,-2.48469 0.19411,-1.16468 0.58235,-2.14821 z" />
        <path
           inkscape:connector-curvature="0"
           id="path4513"
           style="font-style:normal;font-variant:normal;font-weight:normal;font-stretch:normal;font-size:20px;line-height:125%;font-family:Ubuntu;-inkscape-font-specification:Ubuntu;letter-spacing:0px;word-spacing:0px;fill:#4d4d4d;fill-opacity:0.49411765;stroke:none"
           d="m 988.26713,446.79898 0,-2.38116 14.49397,0 0,2.38116 -14.49397,0 z m -5.64231,0 0,-2.38116 3.01528,0 0,2.38116 -3.01528,0 z" />
        <path
           inkscape:connector-curvature="0"
           id="path4515"
           style="font-style:normal;font-variant:normal;font-weight:normal;font-stretch:normal;font-size:20px;line-height:125%;font-family:Ubuntu;-inkscape-font-specification:Ubuntu;letter-spacing:0px;word-spacing:0px;fill:#4d4d4d;fill-opacity:0.49411765;stroke:none"
           d="m 995.34585,429.9109 q -2.58818,0 -4.01167,1.07411 -1.42349,1.06117 -1.42349,2.98937 0,1.91529 1.42349,2.98939 1.42349,1.06118 4.01167,1.06118 2.57533,0 3.99882,-1.06118 1.42353,-1.0741 1.42353,-2.98939 0,-1.9282 -1.42353,-2.98937 -1.42349,-1.07411 -3.99882,-1.07411 z m 5.61645,-2.38116 q 3.7012,0 5.5,1.64352 1.8117,1.64351 1.8117,5.03407 0,1.25528 -0.1941,2.36822 -0.1812,1.11292 -0.5694,2.16114 l -2.3164,0 q 0.5694,-1.04822 0.8411,-2.07057 0.2717,-1.02233 0.2717,-2.0835 0,-2.34233 -1.2293,-3.50703 -1.2165,-1.16469 -3.6882,-1.16469 l -1.1777,0 q 1.2812,0.73764 1.9153,1.88939 0.6341,1.15176 0.6341,2.75645 0,2.66586 -2.0318,4.29643 -2.03171,1.63057 -5.38345,1.63057 -3.36459,0 -5.39633,-1.63057 -2.0318,-1.63057 -2.0318,-4.29643 0,-1.60469 0.63411,-2.75645 0.63411,-1.15175 1.9153,-1.88939 l -2.2,0 0,-2.38116 12.69517,0 z" />
        <path
           inkscape:connector-curvature="0"
           id="path4517"
           style="font-style:normal;font-variant:normal;font-weight:normal;font-stretch:normal;font-size:20px;line-height:125%;font-family:Ubuntu;-inkscape-font-specification:Ubuntu;letter-spacing:0px;word-spacing:0px;fill:#4d4d4d;fill-opacity:0.49411765;stroke:none"
           d="m 994.013,410.57695 8.7481,0 0,2.38116 -8.67044,0 q -2.05772,0 -3.08008,0.80235 -1.02224,0.80235 -1.02224,2.40703 0,1.92822 1.22936,3.04116 1.22935,1.11292 3.35174,1.11292 l 8.19166,0 0,2.3941 -14.49397,0 0,-2.3941 2.25168,0 q -1.30699,-0.8541 -1.95404,-2.00586 -0.64705,-1.1647 -0.64705,-2.6788 0,-2.49762 1.55288,-3.77879 1.53998,-1.28117 4.5424,-1.28117 z" />
        <path
           inkscape:connector-curvature="0"
           id="path4519"
           style="font-style:normal;font-variant:normal;font-weight:normal;font-stretch:normal;font-size:20px;line-height:125%;font-family:Ubuntu;-inkscape-font-specification:Ubuntu;letter-spacing:0px;word-spacing:0px;fill:#4d4d4d;fill-opacity:0.49411765;stroke:none"
           d="m 983.44011,397.26061 0,-2.6141 17.12109,0 0,-9.40814 2.1999,0 0,12.02224 -19.32099,0 z" />
        <path
           inkscape:connector-curvature="0"
           id="path4521"
           style="font-style:normal;font-variant:normal;font-weight:normal;font-stretch:normal;font-size:20px;line-height:125%;font-family:Ubuntu;-inkscape-font-specification:Ubuntu;letter-spacing:0px;word-spacing:0px;fill:#4d4d4d;fill-opacity:0.49411765;stroke:none"
           d="m 989.93653,377.46079 q 0,1.91527 1.50115,3.02821 1.48829,1.11293 4.08932,1.11293 2.60117,0 4.10231,-1.09999 1.48829,-1.11293 1.48829,-3.04115 0,-1.90234 -1.50114,-3.01527 -1.50115,-1.11292 -4.08946,-1.11292 -2.57519,0 -4.07634,1.11292 -1.51413,1.11293 -1.51413,3.01527 z m -2.01881,0 q 0,-3.10585 2.01881,-4.87878 2.01876,-1.77292 5.59047,-1.77292 3.55886,0 5.5906,1.77292 2.0188,1.77293 2.0188,4.87878 0,3.1188 -2.0188,4.89173 -2.03174,1.75997 -5.5906,1.75997 -3.57171,0 -5.59047,-1.75997 -2.01881,-1.77293 -2.01881,-4.89173 z" />
        <path
           inkscape:connector-curvature="0"
           id="path4523"
           style="font-style:normal;font-variant:normal;font-weight:normal;font-stretch:normal;font-size:20px;line-height:125%;font-family:Ubuntu;-inkscape-font-specification:Ubuntu;letter-spacing:0px;word-spacing:0px;fill:#4d4d4d;fill-opacity:0.49411765;stroke:none"
           d="m 988.26713,368.58322 0,-2.52351 12.16457,-4.52936 -12.16457,-4.52937 0,-2.52351 14.49397,5.43524 0,3.23527 -14.49397,5.43524 z" />
        <path
           inkscape:connector-curvature="0"
           id="path4525"
           style="font-style:normal;font-variant:normal;font-weight:normal;font-stretch:normal;font-size:20px;line-height:125%;font-family:Ubuntu;-inkscape-font-specification:Ubuntu;letter-spacing:0px;word-spacing:0px;fill:#4d4d4d;fill-opacity:0.49411765;stroke:none"
           d="m 994.91888,338.79291 1.16469,0 0,10.94813 q 2.45871,-0.15529 3.75287,-1.47528 1.28116,-1.33293 1.28116,-3.70114 0,-1.37174 -0.3365,-2.65291 -0.3364,-1.2941 -1.00933,-2.56234 l 2.25173,0 q 0.5434,1.28117 0.8282,2.62705 0.2847,1.34586 0.2847,2.73055 0,3.46821 -2.0188,5.49995 -2.01875,2.01881 -5.46113,2.01881 -3.55873,0 -5.64229,-1.91528 -2.09646,-1.92822 -2.09646,-5.18937 0,-2.92467 1.88934,-4.61994 1.87657,-1.70823 5.11182,-1.70823 z m -0.69889,2.38116 q -1.95409,0.0258 -3.11877,1.09999 -1.16469,1.06117 -1.16469,2.82114 0,1.99293 1.12586,3.19644 1.12586,1.19059 3.17059,1.37176 l -0.0132,-8.48933 z" />
      </g>
      <g
         id="g4651">
        <path
           d="m 985.5883,583.92072 15.0245,0 0,-3.15762 q 0,-3.99879 -1.81174,-5.84935 -1.81163,-1.86351 -5.71994,-1.86351 -3.88226,0 -5.68107,1.86351 -1.81175,1.85056 -1.81175,5.84935 l 0,3.15762 z m -2.14821,2.6141 0,-5.37055 q 0,-5.61642 2.34233,-8.24345 2.32939,-2.62703 7.2987,-2.62703 4.99534,0 7.33758,2.63996 2.3424,2.63998 2.3424,8.23052 l 0,5.37055 -19.32101,0 z"
           style="font-style:normal;font-variant:normal;font-weight:normal;font-stretch:normal;font-size:20px;line-height:125%;font-family:Ubuntu;-inkscape-font-specification:Ubuntu;letter-spacing:0px;word-spacing:0px;fill:#e6e6e6;fill-opacity:1;stroke:none"
           id="path4606"
           inkscape:connector-curvature="0" />
        <path
           d="m 990.49295,557.84449 q -0.23297,0.40117 -0.33646,0.87999 -0.11662,0.46588 -0.11662,1.03529 0,2.0188 1.32,3.10585 1.30701,1.07411 3.76585,1.07411 l 7.63518,0 0,2.3941 -14.49392,0 0,-2.3941 2.25167,0 q -1.31993,-0.75058 -1.95403,-1.9541 -0.64705,-1.20353 -0.64705,-2.92469 0,-0.24587 0.0388,-0.54352 0.0258,-0.29764 0.0906,-0.65999 l 2.44591,-0.0132 z"
           style="font-style:normal;font-variant:normal;font-weight:normal;font-stretch:normal;font-size:20px;line-height:125%;font-family:Ubuntu;-inkscape-font-specification:Ubuntu;letter-spacing:0px;word-spacing:0px;fill:#e6e6e6;fill-opacity:1;stroke:none"
           id="path4608"
           inkscape:connector-curvature="0" />
        <path
           d="m 994.91886,543.49286 1.16469,0 0,10.94813 q 2.45871,-0.15529 3.75287,-1.47527 1.28118,-1.33293 1.28118,-3.70115 0,-1.37176 -0.3365,-2.65292 -0.3364,-1.29411 -1.00935,-2.56233 l 2.25175,0 q 0.5434,1.28117 0.8282,2.62703 0.2846,1.34588 0.2846,2.73057 0,3.46821 -2.0187,5.49995 -2.01877,2.01881 -5.46115,2.01881 -3.55873,0 -5.64229,-1.91529 -2.09646,-1.92821 -2.09646,-5.18936 0,-2.92467 1.88934,-4.61996 1.87657,-1.70821 5.11182,-1.70821 z m -0.69889,2.38115 q -1.95409,0.0258 -3.11877,1.09999 -1.16469,1.06116 -1.16469,2.82115 0,1.99292 1.12586,3.19645 1.12586,1.19056 3.17059,1.37174 l -0.0133,-8.48933 z"
           style="font-style:normal;font-variant:normal;font-weight:normal;font-stretch:normal;font-size:20px;line-height:125%;font-family:Ubuntu;-inkscape-font-specification:Ubuntu;letter-spacing:0px;word-spacing:0px;fill:#e6e6e6;fill-opacity:1;stroke:none"
           id="path4610"
           inkscape:connector-curvature="0" />
        <path
           d="m 995.4753,532.99766 q 0,2.88585 0.65993,3.99878 0.66007,1.11294 2.25172,1.11294 1.26832,0 2.01885,-0.82823 0.7376,-0.84117 0.7376,-2.27763 0,-1.97998 -1.39763,-3.17056 -1.4105,-1.20351 -3.73987,-1.20351 l -0.5306,0 0,2.36821 z m -0.98354,-4.74937 8.26934,0 0,2.38116 -2.2,0 q 1.32,0.81528 1.9541,2.03174 0.6211,1.21646 0.6211,2.97644 0,2.22586 -1.2423,3.54585 -1.2552,1.30705 -3.35174,1.30705 -2.44586,0 -3.6882,-1.63058 -1.24234,-1.64351 -1.24234,-4.89171 l 0,-3.33879 -0.23296,0 q -1.64347,0 -2.53637,1.08704 -0.90588,1.07412 -0.90588,3.02822 0,1.24234 0.29763,2.41997 0.29763,1.17764 0.8929,2.26468 l -2.19995,0 q -0.5047,-1.30705 -0.75057,-2.53644 -0.25882,-1.22941 -0.25882,-2.3941 0,-3.14468 1.63054,-4.6976 1.63061,-1.55293 4.94352,-1.55293 z"
           style="font-style:normal;font-variant:normal;font-weight:normal;font-stretch:normal;font-size:20px;line-height:125%;font-family:Ubuntu;-inkscape-font-specification:Ubuntu;letter-spacing:0px;word-spacing:0px;fill:#e6e6e6;fill-opacity:1;stroke:none"
           id="path4612"
           inkscape:connector-curvature="0" />
        <path
           d="m 991.04938,512.04609 q -1.60464,-0.89294 -2.36816,-2.13528 -0.76352,-1.24234 -0.76352,-2.92468 0,-2.26468 1.59171,-3.49409 1.5788,-1.22939 4.50357,-1.22939 l 8.74812,0 0,2.39409 -8.67046,0 q -2.08356,0 -3.09294,0.73764 -1.00938,0.73764 -1.00938,2.25175 0,1.85057 1.22936,2.92468 1.22935,1.0741 3.35174,1.0741 l 8.19168,0 0,2.3941 -8.67046,0 q -2.09655,0 -3.09294,0.73764 -1.00938,0.73764 -1.00938,2.27763 0,1.82468 1.24235,2.8988 1.22935,1.0741 3.33875,1.0741 l 8.19168,0 0,2.39409 -14.49399,0 0,-2.39409 2.25168,0 q -1.33287,-0.81529 -1.96698,-1.95411 -0.63411,-1.1388 -0.63411,-2.70467 0,-1.57881 0.80234,-2.67881 0.80236,-1.11292 2.32934,-1.6435 z"
           style="font-style:normal;font-variant:normal;font-weight:normal;font-stretch:normal;font-size:20px;line-height:125%;font-family:Ubuntu;-inkscape-font-specification:Ubuntu;letter-spacing:0px;word-spacing:0px;fill:#e6e6e6;fill-opacity:1;stroke:none"
           id="path4614"
           inkscape:connector-curvature="0" />
        <path
           d="m 985.5883,486.34515 15.0245,0 0,-3.15762 q 0,-3.99879 -1.81174,-5.84937 -1.81163,-1.86351 -5.71994,-1.86351 -3.88226,0 -5.68107,1.86351 -1.81175,1.85058 -1.81175,5.84937 l 0,3.15762 z m -2.14821,2.61408 0,-5.37053 q 0,-5.61642 2.34233,-8.24345 2.32939,-2.62705 7.2987,-2.62705 4.99534,0 7.33758,2.63998 2.3424,2.63998 2.3424,8.23052 l 0,5.37053 -19.32101,0 z"
           style="font-style:normal;font-variant:normal;font-weight:normal;font-stretch:normal;font-size:20px;line-height:125%;font-family:Ubuntu;-inkscape-font-specification:Ubuntu;letter-spacing:0px;word-spacing:0px;fill:#e6e6e6;fill-opacity:1;stroke:none"
           id="path4616"
           inkscape:connector-curvature="0" />
        <path
           d="m 994.91886,456.27013 1.16469,0 0,10.94813 q 2.45871,-0.15529 3.75287,-1.47528 1.28118,-1.33293 1.28118,-3.70115 0,-1.37174 -0.3365,-2.65291 -0.3364,-1.2941 -1.00935,-2.56232 l 2.25175,0 q 0.5434,1.28115 0.8282,2.62703 0.2846,1.34586 0.2846,2.73057 0,3.46819 -2.0187,5.49994 -2.01877,2.0188 -5.46115,2.0188 -3.55873,0 -5.64229,-1.91527 -2.09646,-1.92822 -2.09646,-5.18936 0,-2.92469 1.88934,-4.61996 1.87657,-1.70822 5.11182,-1.70822 z m -0.69889,2.38115 q -1.95409,0.0258 -3.11877,1.09999 -1.16469,1.06117 -1.16469,2.82115 0,1.99292 1.12586,3.19644 1.12586,1.19058 3.17059,1.37175 l -0.0133,-8.48933 z"
           style="font-style:normal;font-variant:normal;font-weight:normal;font-stretch:normal;font-size:20px;line-height:125%;font-family:Ubuntu;-inkscape-font-specification:Ubuntu;letter-spacing:0px;word-spacing:0px;fill:#e6e6e6;fill-opacity:1;stroke:none"
           id="path4618"
           inkscape:connector-curvature="0" />
        <path
           d="m 988.69416,443.12201 2.25173,0 q -0.51761,1.00941 -0.77642,2.09645 -0.2588,1.08705 -0.2588,2.25175 0,1.77292 0.54345,2.66586 0.54358,0.87999 1.63061,0.87999 0.82823,0 1.30701,-0.63411 0.46593,-0.63412 0.8929,-2.54939 l 0.18128,-0.81529 q 0.54345,-2.53645 1.53998,-3.59761 0.98353,-1.07412 2.75634,-1.07412 2.01886,0 3.19656,1.6047 1.1775,1.59175 1.1775,4.38702 0,1.16469 -0.2329,2.43291 -0.22,1.25529 -0.6729,2.65293 l -2.45875,0 q 0.68575,-1.32 1.03525,-2.60116 0.3364,-1.28116 0.3364,-2.53645 0,-1.68234 -0.5694,-2.58821 -0.58228,-0.90587 -1.63048,-0.90587 -0.97068,0 -1.48829,0.65999 -0.51761,0.64705 -0.99639,2.85998 l -0.19414,0.82823 q -0.46593,2.21292 -1.42349,3.19644 -0.97068,0.98351 -2.65298,0.98351 -2.04473,0 -3.1576,-1.4494 -1.11293,-1.4494 -1.11293,-4.11525 0,-1.31999 0.19411,-2.48469 0.19411,-1.16468 0.58235,-2.14821 z"
           style="font-style:normal;font-variant:normal;font-weight:normal;font-stretch:normal;font-size:20px;line-height:125%;font-family:Ubuntu;-inkscape-font-specification:Ubuntu;letter-spacing:0px;word-spacing:0px;fill:#e6e6e6;fill-opacity:1;stroke:none"
           id="path4620"
           inkscape:connector-curvature="0" />
        <path
           d="m 988.26711,438.54088 0,-2.38116 14.49399,0 0,2.38116 -14.49399,0 z m -5.64231,0 0,-2.38116 3.01528,0 0,2.38116 -3.01528,0 z"
           style="font-style:normal;font-variant:normal;font-weight:normal;font-stretch:normal;font-size:20px;line-height:125%;font-family:Ubuntu;-inkscape-font-specification:Ubuntu;letter-spacing:0px;word-spacing:0px;fill:#e6e6e6;fill-opacity:1;stroke:none"
           id="path4622"
           inkscape:connector-curvature="0" />
        <path
           d="m 995.34583,421.6528 q -2.58818,0 -4.01167,1.07411 -1.42349,1.06117 -1.42349,2.98937 0,1.91529 1.42349,2.98939 1.42349,1.06118 4.01167,1.06118 2.57533,0 3.99882,-1.06118 1.42345,-1.0741 1.42345,-2.98939 0,-1.9282 -1.42345,-2.98937 -1.42349,-1.07411 -3.99882,-1.07411 z m 5.61647,-2.38116 q 3.7012,0 5.4999,1.64352 1.8118,1.64351 1.8118,5.03407 0,1.25528 -0.1941,2.36822 -0.1812,1.11292 -0.5695,2.16114 l -2.3163,0 q 0.5694,-1.04822 0.841,-2.07057 0.2718,-1.02233 0.2718,-2.0835 0,-2.34233 -1.2293,-3.50703 -1.2165,-1.16469 -3.6882,-1.16469 l -1.1777,0 q 1.2812,0.73764 1.9153,1.88939 0.6341,1.15176 0.6341,2.75645 0,2.66586 -2.0318,4.29643 -2.03173,1.63057 -5.38347,1.63057 -3.36459,0 -5.39633,-1.63057 -2.0318,-1.63057 -2.0318,-4.29643 0,-1.60469 0.63411,-2.75645 0.63411,-1.15175 1.9153,-1.88939 l -2.2,0 0,-2.38116 12.69519,0 z"
           style="font-style:normal;font-variant:normal;font-weight:normal;font-stretch:normal;font-size:20px;line-height:125%;font-family:Ubuntu;-inkscape-font-specification:Ubuntu;letter-spacing:0px;word-spacing:0px;fill:#e6e6e6;fill-opacity:1;stroke:none"
           id="path4624"
           inkscape:connector-curvature="0" />
        <path
           d="m 994.01298,402.31885 8.74812,0 0,2.38116 -8.67046,0 q -2.05772,0 -3.08008,0.80235 -1.02224,0.80235 -1.02224,2.40703 0,1.92822 1.22936,3.04116 1.22935,1.11292 3.35174,1.11292 l 8.19168,0 0,2.3941 -14.49399,0 0,-2.3941 2.25168,0 q -1.30699,-0.8541 -1.95404,-2.00586 -0.64705,-1.1647 -0.64705,-2.6788 0,-2.49762 1.55288,-3.77879 1.53998,-1.28117 4.5424,-1.28117 z"
           style="font-style:normal;font-variant:normal;font-weight:normal;font-stretch:normal;font-size:20px;line-height:125%;font-family:Ubuntu;-inkscape-font-specification:Ubuntu;letter-spacing:0px;word-spacing:0px;fill:#e6e6e6;fill-opacity:1;stroke:none"
           id="path4626"
           inkscape:connector-curvature="0" />
        <path
           d="m 983.44009,389.00251 0,-2.6141 17.12101,0 0,-9.40814 2.2,0 0,12.02224 -19.32101,0 z"
           style="font-style:normal;font-variant:normal;font-weight:normal;font-stretch:normal;font-size:20px;line-height:125%;font-family:Ubuntu;-inkscape-font-specification:Ubuntu;letter-spacing:0px;word-spacing:0px;fill:#e6e6e6;fill-opacity:1;stroke:none"
           id="path4628"
           inkscape:connector-curvature="0" />
        <path
           d="m 989.93651,369.20269 q 0,1.91527 1.50115,3.02821 1.48829,1.11293 4.08932,1.11293 2.60117,0 4.10231,-1.09999 1.48831,-1.11293 1.48831,-3.04115 0,-1.90234 -1.50116,-3.01527 -1.50115,-1.11292 -4.08946,-1.11292 -2.57519,0 -4.07634,1.11292 -1.51413,1.11293 -1.51413,3.01527 z m -2.01881,0 q 0,-3.10585 2.01881,-4.87878 2.01876,-1.77292 5.59047,-1.77292 3.55886,0 5.59062,1.77292 2.0187,1.77293 2.0187,4.87878 0,3.1188 -2.0187,4.89173 -2.03176,1.75997 -5.59062,1.75997 -3.57171,0 -5.59047,-1.75997 -2.01881,-1.77293 -2.01881,-4.89173 z"
           style="font-style:normal;font-variant:normal;font-weight:normal;font-stretch:normal;font-size:20px;line-height:125%;font-family:Ubuntu;-inkscape-font-specification:Ubuntu;letter-spacing:0px;word-spacing:0px;fill:#e6e6e6;fill-opacity:1;stroke:none"
           id="path4630"
           inkscape:connector-curvature="0" />
        <path
           d="m 988.26711,360.32512 0,-2.52351 12.16459,-4.52936 -12.16459,-4.52937 0,-2.52351 14.49399,5.43524 0,3.23527 -14.49399,5.43524 z"
           style="font-style:normal;font-variant:normal;font-weight:normal;font-stretch:normal;font-size:20px;line-height:125%;font-family:Ubuntu;-inkscape-font-specification:Ubuntu;letter-spacing:0px;word-spacing:0px;fill:#e6e6e6;fill-opacity:1;stroke:none"
           id="path4632"
           inkscape:connector-curvature="0" />
        <path
           d="m 994.91886,330.53481 1.16469,0 0,10.94813 q 2.45871,-0.15529 3.75287,-1.47528 1.28118,-1.33293 1.28118,-3.70114 0,-1.37174 -0.3365,-2.65291 -0.3364,-1.2941 -1.00935,-2.56234 l 2.25175,0 q 0.5434,1.28117 0.8282,2.62705 0.2846,1.34586 0.2846,2.73055 0,3.46821 -2.0187,5.49995 -2.01877,2.01881 -5.46115,2.01881 -3.55873,0 -5.64229,-1.91528 -2.09646,-1.92822 -2.09646,-5.18937 0,-2.92467 1.88934,-4.61994 1.87657,-1.70823 5.11182,-1.70823 z m -0.69889,2.38116 q -1.95409,0.0258 -3.11877,1.09999 -1.16469,1.06117 -1.16469,2.82114 0,1.99293 1.12586,3.19644 1.12586,1.19059 3.17059,1.37176 l -0.0133,-8.48933 z"
           style="font-style:normal;font-variant:normal;font-weight:normal;font-stretch:normal;font-size:20px;line-height:125%;font-family:Ubuntu;-inkscape-font-specification:Ubuntu;letter-spacing:0px;word-spacing:0px;fill:#e6e6e6;fill-opacity:1;stroke:none"
           id="path4634"
           inkscape:connector-curvature="0" />
      </g>
    </g>
    <path
       inkscape:connector-curvature="0"
       id="path4216"
       d="m 350.23586,339.62885 c -3.9375,-0.0469 -6.1875,0.0781 -6.1875,0.0781 l -32,0 -64,0 0,256 64,0 32,0 c 0,0 144,8 144,-128 0,-119 -110.25,-127.75 -137.8125,-128.07812 z m -38.1875,48.07812 32,0 c 80,0 80,80 80,80 0,0 10e-6,80 -80,80 l -32,0 0,-160 z"
       style="fill:#4d4d4d;fill-opacity:0.8;stroke:none;stroke-width:0.25;stroke-miterlimit:4;stroke-dasharray:none" />
    <g
       inkscape:export-ydpi="179.521"
       inkscape:export-xdpi="179.521"
       style="fill:#f9f9f9;stroke:none"
       id="g4186"
       transform="translate(304.04836,-753.06805)">
      <path
         transform="translate(-64,28.362183)"
         style="fill:#f2f2f2;fill-opacity:1;stroke:none;stroke-width:0.25;stroke-miterlimit:4;stroke-dasharray:none"
         d="m -4.9999999e-6,1056.0001 63.9999999999999,0 0,256 -63.9999999999999,0 z"
         id="path4188"
         inkscape:connector-curvature="0" />
      <path
         transform="translate(-64,28.362183)"
         style="fill:#f9f9f9;stroke:none;stroke-width:0.25;stroke-miterlimit:4;stroke-dasharray:none"
         d="m 63.999996,1056.0001 32,0 0,48 -32,0 z"
         id="path4190"
         inkscape:connector-curvature="0" />
      <path
         style="fill:#ffffff;fill-opacity:1;stroke:none;stroke-width:0.25;stroke-miterlimit:4;stroke-dasharray:none"
         d="m -4.9999999e-6,1292.3623 31.9999999999999,0 0,48 -31.9999999999999,0 z"
         id="path4192"
         inkscape:connector-curvature="0" />
      <path
         style="color:#000000;display:inline;overflow:visible;visibility:visible;fill:#e6e6e6;fill-opacity:1;stroke:none;stroke-width:0.25;stroke-linecap:round;stroke-linejoin:round;stroke-miterlimit:4;stroke-dasharray:none;stroke-dashoffset:0;stroke-opacity:1;marker:none;enable-background:accumulate"
         d="m 176,1184.0001 c 0,0 0,-80 -80.000005,-80 l 0,-48 c 0,0 144.000005,-8 144.000005,128 z"
         id="path4194"
         inkscape:connector-curvature="0"
         transform="translate(-64,28.362183)"
         sodipodi:nodetypes="ccccc" />
      <path
         sodipodi:nodetypes="ccccc"
         inkscape:connector-curvature="0"
         id="path4196"
         d="m 112,1212.3623 c 0,0 0,80 -80.00001,80 l 0,48 c 0,0 144.00001,8 144.00001,-128 z"
         style="color:#000000;display:inline;overflow:visible;visibility:visible;fill:#f9f9f9;fill-opacity:1;stroke:none;stroke-width:0.25;stroke-linecap:round;stroke-linejoin:round;stroke-miterlimit:4;stroke-dasharray:none;stroke-dashoffset:0;stroke-opacity:1;marker:none;enable-background:accumulate" />
    </g>
    <g
       id="g4263"
       transform="translate(0,-7.4986357)">
      <g
         inkscape:export-ydpi="179.521"
         inkscape:export-xdpi="179.521"
         style="fill:#f9f9f9;stroke:none"
         id="g4151"
         transform="translate(48.173364,-745.56941)">
        <path
           style="fill:#f2f2f2;fill-opacity:1;stroke:none;stroke-width:0.25;stroke-miterlimit:4;stroke-dasharray:none"
           d="m 448,1084.3623 64,0 0,256 -64,0 z"
           id="path3990"
           inkscape:connector-curvature="0" />
        <path
           style="fill:#ffffff;fill-opacity:1;stroke:none;stroke-width:0.25;stroke-miterlimit:4;stroke-dasharray:none"
           d="m 512,1292.3623 32,0 0,48 -32,0 z"
           id="path4011"
           inkscape:connector-curvature="0" />
        <path
           style="fill:#f2f2f2;fill-opacity:1;stroke:none;stroke-width:0.25;stroke-miterlimit:4;stroke-dasharray:none"
           d="m 624,1264 0,16 16,0 0,-16 -16,0 z"
           id="path4101"
           transform="translate(-64,28.362183)"
           inkscape:connector-curvature="0" />
        <path
           style="fill:#ffffff;fill-opacity:1;stroke:none;stroke-width:0.25;stroke-miterlimit:4;stroke-dasharray:none"
           d="m 608,1264 0,16 16,0 0,-16 -16,0 z"
           id="path4031"
           transform="translate(-64,28.362183)"
           inkscape:connector-curvature="0" />
        <path
           style="fill:#f9f9f9;fill-opacity:1;stroke:none;stroke-width:0.25;stroke-miterlimit:4;stroke-dasharray:none"
           d="m 672,1264 -32,48 32,0 0,-48 z"
           id="path4087"
           transform="translate(-64,28.362183)"
           inkscape:connector-curvature="0" />
        <path
           style="fill:#ffffff;fill-opacity:1;stroke:none;stroke-width:0.25;stroke-miterlimit:4;stroke-dasharray:none"
           d="m 640,1264 0,48 32,-48 -32,0 z"
           id="path4033"
           transform="translate(-64,28.362183)"
           inkscape:connector-curvature="0" />
        <path
           style="fill:#f9f9f9;stroke:none;stroke-width:0.25;stroke-miterlimit:4;stroke-dasharray:none"
           d="m 688,1288 -16,24 32,0 -16,-24 z"
           id="path4084"
           transform="translate(-64,28.362183)"
           inkscape:connector-curvature="0" />
        <path
           style="fill:#f9f9f9;stroke:none;stroke-width:0.25;stroke-miterlimit:4;stroke-dasharray:none"
           d="m 672,1264 0,48 16,-24 -16,-24 z"
           id="path4074"
           transform="translate(-64,28.362183)"
           inkscape:connector-curvature="0" />
        <path
           style="fill:#ececec;fill-opacity:1;stroke:none;stroke-width:0.25;stroke-miterlimit:4;stroke-dasharray:none"
           d="m 704,1264 -16,24 16,24 0,-48 z"
           id="path4079"
           transform="translate(-64,28.362183)"
           inkscape:connector-curvature="0" />
        <path
           style="fill:#e6e6e6;fill-opacity:1;stroke:none;stroke-width:0.25;stroke-miterlimit:4;stroke-dasharray:none"
           d="m 672,1264 16,24 16,-24 -32,0 z"
           id="path4035"
           transform="translate(-64,28.362183)"
           inkscape:connector-curvature="0" />
        <path
           id="path4103"
           d="m 560,1308.3623 0,16 16,0 0,-16 -16,0 z"
           style="fill:#ececec;fill-opacity:1;stroke:none;stroke-width:0.25;stroke-miterlimit:4;stroke-dasharray:none"
           inkscape:connector-curvature="0" />
        <path
           id="path4105"
           d="m 544,1308.3623 0,16 16,0 0,-16 -16,0 z"
           style="fill:#f9f9f9;fill-opacity:1;stroke:none;stroke-width:0.25;stroke-miterlimit:4;stroke-dasharray:none"
           inkscape:connector-curvature="0" />
        <path
           inkscape:connector-curvature="0"
           style="fill:#f9f9f9;stroke:none;stroke-width:0.25;stroke-miterlimit:4;stroke-dasharray:none"
           d="m 560,1324.3623 0,16 16,0 0,-16 -16,0 z"
           id="path4107" />
        <path
           inkscape:connector-curvature="0"
           style="fill:#ffffff;fill-opacity:1;stroke:none;stroke-width:0.25;stroke-miterlimit:4;stroke-dasharray:none"
           d="m 544,1324.3623 0,16 16,0 0,-16 -16,0 z"
           id="path4109" />
      </g>
      <path
         style="fill:#f2f2f2;fill-opacity:1;stroke:none;stroke-width:0.25;stroke-miterlimit:4;stroke-dasharray:none"
         d="m 496.17336,338.79289 64,0 0,256 -64,0 z"
         id="path4220"
         inkscape:connector-curvature="0" />
      <path
         style="fill:#ffffff;fill-opacity:1;stroke:none;stroke-width:0.25;stroke-miterlimit:4;stroke-dasharray:none"
         d="m 560.17336,546.79289 32,0 0,48 -32,0 z"
         id="path4222"
         inkscape:connector-curvature="0" />
      <path
         style="fill:#f2f2f2;fill-opacity:1;stroke:none;stroke-width:0.25;stroke-miterlimit:4;stroke-dasharray:none"
         d="m 608.17336,546.79277 0,16 16,0 0,-16 -16,0 z"
         id="path4224"
         inkscape:connector-curvature="0" />
      <path
         style="fill:#ffffff;fill-opacity:1;stroke:none;stroke-width:0.25;stroke-miterlimit:4;stroke-dasharray:none"
         d="m 592.17336,546.79277 0,16 16,0 0,-16 -16,0 z"
         id="path4226"
         inkscape:connector-curvature="0" />
      <path
         style="fill:#f9f9f9;fill-opacity:1;stroke:none;stroke-width:0.25;stroke-miterlimit:4;stroke-dasharray:none"
         d="m 656.17336,546.79277 -32,48 32,0 0,-48 z"
         id="path4228"
         inkscape:connector-curvature="0" />
      <path
         style="fill:#ffffff;fill-opacity:1;stroke:none;stroke-width:0.25;stroke-miterlimit:4;stroke-dasharray:none"
         d="m 624.17336,546.79277 0,48 32,-48 -32,0 z"
         id="path4230"
         inkscape:connector-curvature="0" />
      <path
         style="fill:#f9f9f9;stroke:none;stroke-width:0.25;stroke-miterlimit:4;stroke-dasharray:none"
         d="m 672.17336,570.79277 -16,24 32,0 -16,-24 z"
         id="path4232"
         inkscape:connector-curvature="0" />
      <path
         style="fill:#f9f9f9;stroke:none;stroke-width:0.25;stroke-miterlimit:4;stroke-dasharray:none"
         d="m 656.17336,546.79277 0,48 16,-24 -16,-24 z"
         id="path4234"
         inkscape:connector-curvature="0" />
      <path
         style="fill:#ececec;fill-opacity:1;stroke:none;stroke-width:0.25;stroke-miterlimit:4;stroke-dasharray:none"
         d="m 688.17336,546.79277 -16,24 16,24 0,-48 z"
         id="path4236"
         inkscape:connector-curvature="0" />
      <path
         style="fill:#e6e6e6;fill-opacity:1;stroke:none;stroke-width:0.25;stroke-miterlimit:4;stroke-dasharray:none"
         d="m 656.17336,546.79277 16,24 16,-24 -32,0 z"
         id="path4238"
         inkscape:connector-curvature="0" />
      <path
         id="path4240"
         d="m 608.17336,562.79289 0,16 16,0 0,-16 -16,0 z"
         style="fill:#ececec;fill-opacity:1;stroke:none;stroke-width:0.25;stroke-miterlimit:4;stroke-dasharray:none"
         inkscape:connector-curvature="0" />
      <path
         id="path4242"
         d="m 592.17336,562.79289 0,16 16,0 0,-16 -16,0 z"
         style="fill:#f9f9f9;fill-opacity:1;stroke:none;stroke-width:0.25;stroke-miterlimit:4;stroke-dasharray:none"
         inkscape:connector-curvature="0" />
      <path
         inkscape:connector-curvature="0"
         style="fill:#f9f9f9;stroke:none;stroke-width:0.25;stroke-miterlimit:4;stroke-dasharray:none"
         d="m 608.17336,578.79289 0,16 16,0 0,-16 -16,0 z"
         id="path4244" />
      <path
         inkscape:connector-curvature="0"
         style="fill:#ffffff;fill-opacity:1;stroke:none;stroke-width:0.25;stroke-miterlimit:4;stroke-dasharray:none"
         d="m 592.17336,578.79289 0,16 16,0 0,-16 -16,0 z"
         id="path4246" />
    </g>
  </g>
</svg>
