<?xml version="1.0" encoding="UTF-8" standalone="no"?>
<!-- Created with Inkscape (http://www.inkscape.org/) -->

<svg
   xmlns:dc="http://purl.org/dc/elements/1.1/"
   xmlns:cc="http://creativecommons.org/ns#"
   xmlns:rdf="http://www.w3.org/1999/02/22-rdf-syntax-ns#"
   xmlns:svg="http://www.w3.org/2000/svg"
   xmlns="http://www.w3.org/2000/svg"
   xmlns:xlink="http://www.w3.org/1999/xlink"
   xmlns:sodipodi="http://sodipodi.sourceforge.net/DTD/sodipodi-0.dtd"
   xmlns:inkscape="http://www.inkscape.org/namespaces/inkscape"
   width="1280"
   height="1280"
   id="svg3802"
   version="1.1"
   inkscape:version="0.48.4 r9939"
   sodipodi:docname="actarus.svg">
  <defs
     id="defs3804">
    <linearGradient
       id="linearGradient3991">
      <stop
         style="stop-color:#002500;stop-opacity:1;"
         offset="0"
         id="stop3993" />
      <stop
         style="stop-color:#006200;stop-opacity:0.50980395;"
         offset="1"
         id="stop3995" />
    </linearGradient>
    <linearGradient
       inkscape:collect="always"
       xlink:href="#linearGradient3991"
       id="linearGradient4421"
       gradientUnits="userSpaceOnUse"
       x1="1832"
       y1="216"
       x2="1816"
       y2="256" />
    <linearGradient
       inkscape:collect="always"
       xlink:href="#linearGradient3991"
       id="linearGradient4423"
       gradientUnits="userSpaceOnUse"
       x1="1832"
       y1="216"
       x2="1816"
       y2="256" />
  </defs>
  <sodipodi:namedview
     id="base"
     pagecolor="#ffffff"
     bordercolor="#666666"
     borderopacity="1.0"
     inkscape:pageopacity="0.0"
     inkscape:pageshadow="2"
     inkscape:zoom="0.5"
     inkscape:cx="303"
     inkscape:cy="556"
     inkscape:document-units="px"
     inkscape:current-layer="layer2"
     showgrid="false"
     inkscape:showpageshadow="false"
     inkscape:window-width="1920"
     inkscape:window-height="1057"
     inkscape:window-x="1600"
     inkscape:window-y="0"
     inkscape:window-maximized="1"
     showguides="true"
     inkscape:guide-bbox="true"
     inkscape:object-paths="true"
     inkscape:snap-intersection-paths="true"
     inkscape:object-nodes="true"
     inkscape:snap-smooth-nodes="true"
     inkscape:snap-midpoints="true"
     inkscape:snap-object-midpoints="true"
     inkscape:snap-center="true"
     inkscape:snap-grids="true"
     showborder="true"
     fit-margin-top="0"
     fit-margin-left="0"
     fit-margin-right="0"
     fit-margin-bottom="0">
    <inkscape:grid
       type="xygrid"
       id="grid3820"
       empspacing="8"
       visible="true"
       enabled="true"
       snapvisiblegridlinesonly="true"
       originx="-1608px"
       originy="656px" />
  </sodipodi:namedview>
  <metadata
     id="metadata3807">
    <rdf:RDF>
      <cc:Work
         rdf:about="">
        <dc:format>image/svg+xml</dc:format>
        <dc:type
           rdf:resource="http://purl.org/dc/dcmitype/StillImage" />
        <dc:title></dc:title>
      </cc:Work>
    </rdf:RDF>
  </metadata>
  <g
     inkscape:label="Layer 1"
     inkscape:groupmode="layer"
     id="layer1"
     transform="translate(-272,-100.36218)"
     style="opacity:0.64680852;display:inline"
     sodipodi:insensitive="true" />
  <g
     inkscape:groupmode="layer"
     id="layer2"
     inkscape:label="Layer 2"
     style="display:inline"
     transform="translate(-272,440)">
    <path
       style="fill:#b3b3b3;stroke:none"
       d="M 873.5938,-100.1875 C 793.7231,-87.71688 616,-32.283311 616,216 c 0,0 1.0091,44.42548 48,176 40,112 -8,176 -8,176 0,0 -40,96 80,96 0,0 80,-24 176,-24 96,0 176,24 176,24 120,0 80,-96 80,-96 0,0 -40,-72 -8,-176 41.0879,-133.5357 48,-176 48,-176 0,-248.283311 -177.7231,-303.71688 -257.5938,-316.1875 L 912,-8 873.5938,-100.1875 z"
       id="path4177"
       inkscape:connector-curvature="0" />
    <path
       style="fill:#e9d09b;fill-opacity:1;stroke:none"
       d="m 704,152 -24,40 0,72 48,56 80,0 104,-32 104,32 80,0 48,-56 0,-72 -24,-40 -72,0 -136,40 -136,-40 -72,0 z"
       id="path4282"
       inkscape:connector-curvature="0" />
    <g
       id="g4255"
       style="stroke:none"
       transform="translate(-792,0)">
      <path
         sodipodi:nodetypes="ccccc"
         inkscape:connector-curvature="0"
         id="path3924"
         d="m 1960,232 40,0 16,-240 -56,216 z"
         style="fill:#ff0000;fill-opacity:1;stroke:none" />
      <path
         sodipodi:nodetypes="cccc"
         inkscape:connector-curvature="0"
         id="path3922"
         d="m 2016,-8 -32,240 16,0 z"
         style="fill:#aa0000;stroke:none" />
      <path
         sodipodi:nodetypes="cccc"
         inkscape:connector-curvature="0"
         id="path4253"
         d="m 2016,-8 -56,240 0,-24 z"
         style="fill:#800000;stroke:none" />
    </g>
    <g
       id="g4260"
       transform="matrix(-1,0,0,1,2616,0)"
       style="stroke:none">
      <path
         style="fill:#ff0000;fill-opacity:1;stroke:none"
         d="m 1960,232 40,0 16,-240 -56,216 z"
         id="path4262"
         inkscape:connector-curvature="0"
         sodipodi:nodetypes="ccccc" />
      <path
         style="fill:#aa0000;stroke:none"
         d="m 2016,-8 -32,240 16,0 z"
         id="path4264"
         inkscape:connector-curvature="0"
         sodipodi:nodetypes="cccc" />
      <path
         style="fill:#800000;stroke:none"
         d="m 2016,-8 -56,240 0,-24 z"
         id="path4266"
         inkscape:connector-curvature="0"
         sodipodi:nodetypes="cccc" />
    </g>
    <path
       style="fill:#b3b3b3;stroke:none"
       d="m 728,424 c -0.2215,3.77662 -0.546,7.9562 -1.0312,12.46875 -0.4853,4.51255 -1.1363,9.36588 -1.9688,14.53125 -0.8325,5.16537 -1.8618,10.63993 -3.125,16.375 -1.2632,5.73507 -2.7538,11.71585 -4.5312,17.9375 -1.7775,6.22165 -3.8437,12.68739 -6.2188,19.3125 -2.3751,6.62511 -5.0688,13.42955 -8.125,20.375 -3.0562,6.94545 -6.4605,14.00482 -10.2812,21.1875 -1.9104,3.59134 -3.9141,7.20869 -6.0313,10.84375 -2.1172,3.63506 -4.3531,7.30035 -6.6875,10.96875 0,0 -0.375,1.125 -0.875,3.09375 -0.5,1.96875 -1.125,4.78125 -1.625,8.15625 -0.5,3.375 -0.875,7.3125 -0.875,11.53125 0,2.10937 0.094,4.28516 0.3125,6.5 C 677.1562,599.49609 677.5,601.75 678,604 c 0.5,2.25 1.1562,4.50391 2,6.71875 0.8438,2.21484 1.875,4.39063 3.125,6.5 1.25,2.10937 2.7188,4.16016 4.4375,6.09375 1.7187,1.93359 3.6875,3.75 5.9375,5.4375 2.25,1.6875 4.7812,3.22266 7.625,4.59375 2.8438,1.37109 6,2.57813 9.5,3.5625 3.5,0.98437 7.3438,1.75391 11.5625,2.28125 C 726.4062,639.71484 731,640 736,640 c 0,0 5,-1.5 14,-3.75 4.5,-1.125 10,-2.4375 16.375,-3.84375 C 772.75,631 780,629.5 788,628 c 8,-1.5 16.75,-3 26.125,-4.40625 C 823.5,622.1875 833.5,620.875 844,619.75 c 10.5,-1.125 21.5,-2.0625 32.875,-2.71875 5.6875,-0.32813 11.4531,-0.57422 17.3125,-0.75 C 900.0469,616.10547 906,616 912,616 c 6,0 11.9531,0.10547 17.8125,0.28125 5.8594,0.17578 11.625,0.42187 17.3125,0.75 C 958.5,617.6875 969.5,618.625 980,619.75 c 10.5,1.125 20.5,2.4375 29.875,3.84375 C 1019.25,625 1028,626.5 1036,628 c 8,1.5 15.25,3 21.625,4.40625 6.375,1.40625 11.875,2.71875 16.375,3.84375 9,2.25 14,3.75 14,3.75 5,0 9.5938,-0.28516 13.8125,-0.8125 4.2187,-0.52734 8.0625,-1.29688 11.5625,-2.28125 3.5,-0.98437 6.6562,-2.19141 9.5,-3.5625 2.8438,-1.37109 5.375,-2.90625 7.625,-4.59375 2.25,-1.6875 4.2188,-3.50391 5.9375,-5.4375 1.7187,-1.93359 3.1875,-3.98438 4.4375,-6.09375 1.25,-2.10937 2.2812,-4.28516 3.125,-6.5 0.8438,-2.21484 1.5,-4.46875 2,-6.71875 0.5,-2.25 0.8438,-4.50391 1.0625,-6.71875 0.2187,-2.21484 0.3125,-4.39063 0.3125,-6.5 0,-4.21875 -0.375,-8.15625 -0.875,-11.53125 -0.5,-3.375 -1.125,-6.1875 -1.625,-8.15625 C 1144.375,569.125 1144,568 1144,568 c -2.3344,-3.6684 -4.5703,-7.33369 -6.6875,-10.96875 -2.1172,-3.63506 -4.1209,-7.25241 -6.0313,-10.84375 -3.8207,-7.18268 -7.225,-14.24205 -10.2812,-21.1875 -3.0562,-6.94545 -5.7499,-13.74989 -8.125,-20.375 -2.3751,-6.62511 -4.4413,-13.09085 -6.2188,-19.3125 -1.7774,-6.22165 -3.268,-12.20243 -4.5312,-17.9375 -1.2632,-5.73507 -2.2925,-11.20963 -3.125,-16.375 -0.8325,-5.16537 -1.4835,-10.0187 -1.9688,-14.53125 C 1096.546,431.9562 1096.2215,427.77662 1096,424 l -368,0 z"
       id="path4210"
       inkscape:connector-curvature="0" />
    <path
       style="fill:#483737;stroke:none"
       d="m 728,424 368,0 c 0.2215,3.77662 0.546,7.9562 1.0312,12.46875 0.4853,4.51255 1.1363,9.36588 1.9688,14.53125 0.8325,5.16537 1.8618,10.63993 3.125,16.375 1.2632,5.73507 2.7538,11.71585 4.5312,17.9375 1.7775,6.22165 3.8437,12.68739 6.2188,19.3125 2.3751,6.62511 5.0688,13.42955 8.125,20.375 3.0562,6.94545 6.4605,14.00482 10.2812,21.1875 1.9104,3.59134 3.9141,7.20869 6.0313,10.84375 2.1172,3.63506 4.3531,7.30035 6.6875,10.96875 0,0 0.375,1.125 0.875,3.09375 0.5,1.96875 1.125,4.78125 1.625,8.15625 0.5,3.375 0.875,7.3125 0.875,11.53125 0,2.10937 -0.094,4.28516 -0.3125,6.5 C 1146.8438,599.49609 1146.5,601.75 1146,604 c -0.5,2.25 -1.1562,4.50391 -2,6.71875 -0.8438,2.21484 -1.875,4.39063 -3.125,6.5 -1.25,2.10937 -2.7188,4.16016 -4.4375,6.09375 -1.7187,1.93359 -3.6875,3.75 -5.9375,5.4375 -2.25,1.6875 -4.7812,3.22266 -7.625,4.59375 -2.8438,1.37109 -6,2.57813 -9.5,3.5625 -3.5,0.98437 -7.3438,1.75391 -11.5625,2.28125 C 1097.5938,639.71484 1093,640 1088,640 c 0,0 -5,-1.5 -14,-3.75 -4.5,-1.125 -10,-2.4375 -16.375,-3.84375 C 1051.25,631 1044,629.5 1036,628 c -8,-1.5 -16.75,-3 -26.125,-4.40625 C 1000.5,622.1875 990.5,620.875 980,619.75 c -10.5,-1.125 -21.5,-2.0625 -32.875,-2.71875 -5.6875,-0.32813 -11.4531,-0.57422 -17.3125,-0.75 C 923.9531,616.10547 918,616 912,616 c -6,0 -11.9531,0.10547 -17.8125,0.28125 -5.8594,0.17578 -11.625,0.42187 -17.3125,0.75 C 865.5,617.6875 854.5,618.625 844,619.75 c -10.5,1.125 -20.5,2.4375 -29.875,3.84375 C 804.75,625 796,626.5 788,628 c -8,1.5 -15.25,3 -21.625,4.40625 C 760,633.8125 754.5,635.125 750,636.25 c -9,2.25 -14,3.75 -14,3.75 -5,0 -9.5938,-0.28516 -13.8125,-0.8125 -4.2187,-0.52734 -8.0625,-1.29688 -11.5625,-2.28125 -3.5,-0.98437 -6.6562,-2.19141 -9.5,-3.5625 -2.8438,-1.37109 -5.375,-2.90625 -7.625,-4.59375 -2.25,-1.6875 -4.2188,-3.50391 -5.9375,-5.4375 -1.7187,-1.93359 -3.1875,-3.98438 -4.4375,-6.09375 -1.25,-2.10937 -2.2812,-4.28516 -3.125,-6.5 -0.8438,-2.21484 -1.5,-4.46875 -2,-6.71875 -0.5,-2.25 -0.8438,-4.50391 -1.0625,-6.71875 -0.2187,-2.21484 -0.3125,-4.39063 -0.3125,-6.5 0,-4.21875 0.375,-8.15625 0.875,-11.53125 0.5,-3.375 1.125,-6.1875 1.625,-8.15625 C 679.625,569.125 680,568 680,568 c 2.3344,-3.6684 4.5703,-7.33369 6.6875,-10.96875 2.1172,-3.63506 4.1209,-7.25241 6.0313,-10.84375 3.8207,-7.18268 7.225,-14.24205 10.2812,-21.1875 3.0562,-6.94545 5.7499,-13.74989 8.125,-20.375 2.3751,-6.62511 4.4413,-13.09085 6.2188,-19.3125 1.7774,-6.22165 3.268,-12.20243 4.5312,-17.9375 1.2632,-5.73507 2.2925,-11.20963 3.125,-16.375 0.8325,-5.16537 1.4835,-10.0187 1.9688,-14.53125 C 727.454,431.9562 727.7785,427.77662 728,424 z"
       id="path4208"
       inkscape:connector-curvature="0" />
    <path
       style="fill:#4d4d4d;stroke:none"
       d="m 704,400 c 0,0 8,80 -48,168 0,0 -40,96 80,96 0,0 80,-24 176,-24 96,0 176,24 176,24 120,0 80,-96 80,-96 -56,-88 -48,-168 -48,-168 l -8,0 -16,0 -368,0 -16,0 -8,0 z m 24,24 368,0 c 1.7719,30.21298 10.6491,85.30566 48,144 0,0 24,72 -56,72 0,0 -80,-24 -176,-24 -96,0 -176,24 -176,24 -80,0 -56,-72 -56,-72 37.3509,-58.69434 46.2281,-113.78702 48,-144 z"
       id="path4183"
       inkscape:connector-curvature="0" />
    <path
       style="fill:#550000;stroke:none"
       d="m 981.5312,680.9375 c -0.2409,-0.87753 -0.5481,-1.7472 -0.7812,-2.625 -1.3887,-5.22949 -2.6294,-10.46216 -3.75,-15.6875 -1.1206,-5.22534 -2.125,-10.4375 -3,-15.625 -0.875,-5.1875 -1.6295,-10.35278 -2.2812,-15.46875 -0.652,-5.11597 -1.2051,-10.17676 -1.6563,-15.1875 -0.9023,-10.02148 -1.4218,-19.82031 -1.6563,-29.21875 -0.2343,-9.39844 -0.1918,-18.40039 0.063,-26.90625 0.2538,-8.50586 0.7187,-16.5 1.2812,-23.84375 0.5625,-7.34375 1.2461,-14.02539 1.9375,-19.9375 0.2975,-2.54419 0.5774,-4.31913 0.875,-6.5625 L 912,552 851.4375,509.875 c 0.2976,2.24337 0.5775,4.01831 0.875,6.5625 0.6914,5.91211 1.375,12.59375 1.9375,19.9375 0.5625,7.34375 1.0273,15.33789 1.2812,23.84375 0.2542,8.50586 0.2964,17.50781 0.063,26.90625 -0.2346,9.39844 -0.754,19.19727 -1.6563,29.21875 -0.4512,5.01074 -1.0043,10.07153 -1.6563,15.1875 -0.6516,5.11597 -1.4062,10.28125 -2.2812,15.46875 -0.875,5.1875 -1.8794,10.39966 -3,15.625 -1.1206,5.22534 -2.3613,10.45801 -3.75,15.6875 -0.2331,0.8778 -0.5403,1.74747 -0.7812,2.625 0.9601,2.53115 1.9116,5.19411 2.875,7.6875 3.9843,10.3125 8.0039,20.29688 12,29.75 3.996,9.45312 7.9687,18.375 11.9062,26.625 3.9375,8.25 7.8164,15.79688 11.625,22.5 1.9043,3.35156 3.7974,6.50586 5.6562,9.40625 1.8589,2.90039 3.6954,5.5625 5.5,7.96875 1.8047,2.40625 3.5709,4.56836 5.3126,6.4375 1.7416,1.86914 3.455,3.46094 5.125,4.75 1.6699,1.28906 3.3168,2.27148 4.9062,2.9375 1.5894,0.66602 3.125,1 4.625,1 1.5,0 3.0356,-0.33398 4.625,-1 1.5894,-0.66602 3.2363,-1.64844 4.9062,-2.9375 1.67,-1.28906 3.3834,-2.88086 5.125,-4.75 1.7417,-1.86914 3.5079,-4.03125 5.3126,-6.4375 1.8046,-2.40625 3.6411,-5.06836 5.5,-7.96875 1.8588,-2.90039 3.7519,-6.05469 5.6562,-9.40625 3.8086,-6.70312 7.6875,-14.25 11.625,-22.5 3.9375,-8.25 7.9102,-17.17188 11.9062,-26.625 3.9961,-9.45312 8.0157,-19.4375 12,-29.75 0.9634,-2.49339 1.9149,-5.15635 2.875,-7.6875 z"
       id="path4016"
       inkscape:connector-curvature="0" />
    <path
       style="fill:#800000;stroke:none"
       d="m 981.5312,680.9375 c -0.9601,2.53115 -1.9116,5.19411 -2.875,7.6875 -3.9843,10.3125 -8.0039,20.29688 -12,29.75 -3.996,9.45312 -7.9687,18.375 -11.9062,26.625 -3.9375,8.25 -7.8164,15.79688 -11.625,22.5 -1.9043,3.35156 -3.7974,6.50586 -5.6562,9.40625 -1.8589,2.90039 -3.6954,5.5625 -5.5,7.96875 -1.8047,2.40625 -3.5709,4.56836 -5.3126,6.4375 -1.7416,1.86914 -3.455,3.46094 -5.125,4.75 -1.6699,1.28906 -3.3168,2.27148 -4.9062,2.9375 -1.5894,0.66602 -3.125,1 -4.625,1 -1.5,0 -3.0356,-0.33398 -4.625,-1 -1.5894,-0.66602 -3.2363,-1.64844 -4.9062,-2.9375 -1.67,-1.28906 -3.3834,-2.88086 -5.125,-4.75 -1.7417,-1.86914 -3.5079,-4.03125 -5.3126,-6.4375 -1.8046,-2.40625 -3.6411,-5.06836 -5.5,-7.96875 -1.8588,-2.90039 -3.7519,-6.05469 -5.6562,-9.40625 -3.8086,-6.70312 -7.6875,-14.25 -11.625,-22.5 -3.9375,-8.25 -7.9102,-17.17188 -11.9062,-26.625 -3.9961,-9.45312 -8.0157,-19.4375 -12,-29.75 -0.9634,-2.49339 -1.9149,-5.15635 -2.875,-7.6875 -1.1943,4.35038 -2.4151,8.70414 -3.8126,13.03125 -1.679,5.19995 -3.5077,10.39453 -5.5,15.53125 -1.9919,5.13672 -4.1411,10.21021 -6.4687,15.25 -2.3276,5.03979 -4.8456,10.02832 -7.5313,14.9375 -2.6854,4.90918 -5.5589,9.75513 -8.625,14.5 -3.0658,4.74487 -6.3124,9.39062 -9.7812,13.9375 -3.4688,4.54688 -7.1373,8.99731 -11.0312,13.3125 -3.8942,4.31519 -8.002,8.48145 -12.3438,12.53125 -4.3418,4.0498 -8.938,7.96802 -13.75,11.71875 -4.812,3.75073 -9.8518,7.33203 -15.1562,10.75 -5.3048,3.41797 -10.8676,6.66724 -16.6876,9.71875 -5.8197,3.05151 -11.8923,5.91113 -18.25,8.5625 -4.5907,1.91467 -9.4934,3.59038 -14.375,5.28125 L 912,840 l 212.8438,0 c -4.8815,-1.69087 -9.7842,-3.36658 -14.375,-5.28125 -6.3576,-2.65137 -12.4303,-5.51099 -18.25,-8.5625 -5.8199,-3.05151 -11.3829,-6.30078 -16.6876,-9.71875 -5.3045,-3.41797 -10.3442,-6.99927 -15.1562,-10.75 -4.812,-3.75073 -9.4082,-7.66895 -13.75,-11.71875 -4.3418,-4.0498 -8.4496,-8.21606 -12.3438,-12.53125 -3.894,-4.31519 -7.5624,-8.76562 -11.0312,-13.3125 -3.4688,-4.54688 -6.7154,-9.19263 -9.7812,-13.9375 -3.0661,-4.74487 -5.9395,-9.59082 -8.625,-14.5 -2.6857,-4.90918 -5.2037,-9.89771 -7.5313,-14.9375 -2.3276,-5.03979 -4.4766,-10.11328 -6.4687,-15.25 -1.9922,-5.13672 -3.8209,-10.3313 -5.5,-15.53125 -1.3974,-4.32711 -2.6182,-8.68087 -3.8126,-13.03125 z"
       id="path3082"
       inkscape:connector-curvature="0" />
    <path
       style="fill:#501616;stroke:none"
       d="m 981.5312,680.9375 c 3.0109,-7.93753 6.01,-15.91494 8.9688,-24.125 C 994.4023,645.98438 998.25,635 1002,624 c 7.5,-22 14.625,-44 21.0938,-64.625 6.4687,-20.625 12.2812,-39.875 17.1562,-56.375 8.9021,-30.13033 13.4378,-46.80119 14.375,-50.21875 L 972.5625,509.875 c -0.2976,2.24337 -0.5775,4.01831 -0.875,6.5625 -0.6914,5.91211 -1.375,12.59375 -1.9375,19.9375 -0.5625,7.34375 -1.0273,15.33789 -1.2812,23.84375 -0.254,8.50586 -0.2964,17.50781 -0.063,26.90625 0.2345,9.39844 0.754,19.19727 1.6563,29.21875 0.4512,5.01074 1.0043,10.07153 1.6563,15.1875 0.6518,5.11597 1.4062,10.28125 2.2812,15.46875 0.875,5.1875 1.8794,10.39966 3,15.625 1.1206,5.22534 2.3613,10.45801 3.75,15.6875 0.2331,0.8778 0.5403,1.74747 0.7812,2.625 z"
       id="path4023"
       inkscape:connector-curvature="0" />
    <path
       style="fill:#d40000;stroke:none"
       d="m 1160.4688,840 39.5937,0 15.9375,0 C 1062.9513,746.83975 1081.4651,521.39568 1092.0312,448 l -14.2812,0 c -0.7524,2.58203 -0.8363,2.60526 -2.0625,7.25 -1.2891,4.88281 -2.7871,10.85742 -4.375,17.71875 -1.5879,6.86133 -3.2813,14.625 -4.9375,23.15625 -1.6562,8.53125 -3.2871,17.82617 -4.7812,27.71875 -1.4942,9.89258 -2.8672,20.39844 -3.9688,31.34375 -0.5508,5.47266 -1.0281,11.04077 -1.4375,16.71875 -0.4094,5.67798 -0.7295,11.43652 -0.9687,17.28125 -0.2393,5.84473 -0.3973,11.7771 -0.4376,17.75 -0.04,5.9729 0.031,12 0.2188,18.0625 0.1875,6.0625 0.4934,12.16772 0.9375,18.28125 0.4441,6.11353 1.0205,12.24902 1.75,18.375 0.7295,6.12598 1.6125,12.2439 2.6563,18.34375 1.0437,6.09985 2.2695,12.15234 3.6562,18.1875 1.3867,6.03516 2.929,12.03687 4.6875,17.96875 1.7585,5.93188 3.7158,11.80371 5.875,17.59375 2.1592,5.79004 4.5364,11.51538 7.125,17.125 2.5886,5.60962 5.3906,11.10938 8.4375,16.5 3.0469,5.39062 6.3411,10.64819 9.875,15.78125 3.5339,5.13306 7.2939,10.13184 11.3438,14.96875 4.0498,4.83691 8.3742,9.52905 12.9687,14.03125 2.2972,2.2511 4.6549,4.46481 7.0937,6.625 2.4389,2.16019 4.9473,4.2793 7.5313,6.34375 2.584,2.06445 5.2672,4.06735 8,6.03125 2.7328,1.9639 5.5211,3.86023 8.4063,5.71875 1.6596,1.0691 3.4139,2.09203 5.125,3.125 z"
       id="path4113"
       inkscape:connector-curvature="0" />
    <path
       style="fill:#aa0000;stroke:none"
       d="m 1160.4688,840 c -1.7111,-1.03297 -3.4654,-2.0559 -5.125,-3.125 -2.8852,-1.85852 -5.6735,-3.75485 -8.4063,-5.71875 -2.7328,-1.9639 -5.416,-3.9668 -8,-6.03125 -2.584,-2.06445 -5.0924,-4.18356 -7.5313,-6.34375 -2.4388,-2.16019 -4.7965,-4.3739 -7.0937,-6.625 -4.5945,-4.5022 -8.9189,-9.19434 -12.9687,-14.03125 -4.0499,-4.83691 -7.8099,-9.83569 -11.3438,-14.96875 -3.5339,-5.13306 -6.8281,-10.39063 -9.875,-15.78125 -3.0469,-5.39062 -5.8489,-10.89038 -8.4375,-16.5 -2.5886,-5.60962 -4.9658,-11.33496 -7.125,-17.125 -2.1592,-5.79004 -4.1165,-11.66187 -5.875,-17.59375 -1.7585,-5.93188 -3.3008,-11.93359 -4.6875,-17.96875 -1.3867,-6.03516 -2.6125,-12.08765 -3.6562,-18.1875 -1.0438,-6.09985 -1.9268,-12.21777 -2.6563,-18.34375 -0.7295,-6.12598 -1.3059,-12.26147 -1.75,-18.375 -0.4441,-6.11353 -0.75,-12.21875 -0.9375,-18.28125 -0.1875,-6.0625 -0.259,-12.0896 -0.2188,-18.0625 0.04,-5.9729 0.1983,-11.90527 0.4376,-17.75 0.2392,-5.84473 0.5593,-11.60327 0.9687,-17.28125 0.4094,-5.67798 0.8867,-11.24609 1.4375,-16.71875 1.1016,-10.94531 2.4746,-21.45117 3.9688,-31.34375 1.4941,-9.89258 3.125,-19.1875 4.7812,-27.71875 1.6562,-8.53125 3.3496,-16.29492 4.9375,-23.15625 1.5879,-6.86133 3.0859,-12.83594 4.375,-17.71875 1.2262,-4.64474 1.3101,-4.66797 2.0625,-7.25 l -16.25,0 -6.875,4.78125 c -0.9372,3.41756 -5.4729,20.08842 -14.375,50.21875 -4.875,16.5 -10.6876,35.75 -17.1562,56.375 C 1016.6249,580 1009.5,602 1002,624 c -3.75,11 -7.5977,21.98438 -11.5,32.8125 -2.9588,8.21006 -5.9579,16.18747 -8.9688,24.125 1.1945,4.35038 2.4152,8.70414 3.8126,13.03125 1.679,5.19995 3.5076,10.39453 5.5,15.53125 1.9919,5.13672 4.1411,10.21021 6.4687,15.25 2.3276,5.03979 4.8456,10.02832 7.5313,14.9375 2.6854,4.90918 5.5589,9.75513 8.625,14.5 3.0658,4.74487 6.3124,9.39062 9.7812,13.9375 3.4688,4.54688 7.1373,8.99731 11.0312,13.3125 3.8942,4.31519 8.002,8.48145 12.3438,12.53125 4.3418,4.0498 8.938,7.96802 13.75,11.71875 4.812,3.75073 9.8517,7.33203 15.1562,10.75 5.3048,3.41797 10.8677,6.66724 16.6876,9.71875 5.8197,3.05151 11.8924,5.91113 18.25,8.5625 4.5907,1.91467 9.4933,3.59038 14.375,5.28125 l 35.625,0 z"
       id="path4021"
       inkscape:connector-curvature="0" />
    <path
       style="fill:#800000;stroke:none"
       d="m 1096,424 -34.5,24 30.5312,0 C 1094.1681,433.15723 1096,424 1096,424 z"
       id="path3079"
       inkscape:connector-curvature="0" />
    <path
       style="fill:#501616;stroke:none"
       d="m 769.375,452.78125 c 0.9372,3.41756 5.4729,20.08842 14.375,50.21875 4.875,16.5 10.6875,35.75 17.1562,56.375 C 807.375,580 814.5,602 822,624 c 3.75,11 7.5977,21.98438 11.5,32.8125 2.9588,8.21006 5.9579,16.18747 8.9688,24.125 0.2409,-0.87753 0.5481,-1.7472 0.7812,-2.625 1.3887,-5.22949 2.6294,-10.46216 3.75,-15.6875 1.1206,-5.22534 2.125,-10.4375 3,-15.625 0.875,-5.1875 1.6295,-10.35278 2.2812,-15.46875 0.652,-5.11597 1.2051,-10.17676 1.6563,-15.1875 0.9023,-10.02148 1.4218,-19.82031 1.6563,-29.21875 0.2343,-9.39844 0.1918,-18.40039 -0.063,-26.90625 -0.2538,-8.50586 -0.7187,-16.5 -1.2812,-23.84375 -0.5625,-7.34375 -1.2461,-14.02539 -1.9375,-19.9375 -0.2975,-2.54419 -0.5774,-4.31913 -0.875,-6.5625 l -82.0625,-57.09375 z"
       id="path4030"
       inkscape:connector-curvature="0" />
    <path
       style="fill:#d40000;stroke:none"
       d="m 746.25,448 -14.2812,0 C 742.5349,521.39723 761.048,746.84037 608,840 l 55.5312,0 c 1.7111,-1.03297 3.4654,-2.0559 5.125,-3.125 2.8852,-1.85852 5.6735,-3.75485 8.4063,-5.71875 2.7328,-1.9639 5.416,-3.9668 8,-6.03125 2.584,-2.06445 5.0924,-4.18356 7.5313,-6.34375 2.4388,-2.16019 4.7965,-4.3739 7.0937,-6.625 4.5945,-4.5022 8.9189,-9.19434 12.9687,-14.03125 4.0499,-4.83691 7.8099,-9.83569 11.3438,-14.96875 3.5339,-5.13306 6.8281,-10.39063 9.875,-15.78125 3.0469,-5.39062 5.8489,-10.89038 8.4375,-16.5 2.5886,-5.60962 4.9658,-11.33496 7.125,-17.125 2.1592,-5.79004 4.1165,-11.66187 5.875,-17.59375 1.7585,-5.93188 3.3008,-11.93359 4.6875,-17.96875 1.3867,-6.03516 2.6125,-12.08765 3.6562,-18.1875 1.0438,-6.09985 1.9268,-12.21777 2.6563,-18.34375 0.7295,-6.12598 1.3059,-12.26147 1.75,-18.375 0.4441,-6.11353 0.75,-12.21875 0.9375,-18.28125 0.1875,-6.0625 0.259,-12.0896 0.2188,-18.0625 -0.04,-5.9729 -0.1983,-11.90527 -0.4376,-17.75 -0.2392,-5.84473 -0.5593,-11.60327 -0.9687,-17.28125 -0.4094,-5.67798 -0.8867,-11.24609 -1.4375,-16.71875 -1.1016,-10.94531 -2.4746,-21.45117 -3.9688,-31.34375 -1.4941,-9.89258 -3.125,-19.1875 -4.7812,-27.71875 -1.6562,-8.53125 -3.3496,-16.29492 -4.9375,-23.15625 -1.5879,-6.86133 -3.0859,-12.83594 -4.375,-17.71875 -1.2262,-4.64474 -1.3101,-4.66797 -2.0625,-7.25 z"
       id="path4110"
       inkscape:connector-curvature="0" />
    <path
       style="fill:#aa0000;stroke:none"
       d="m 746.25,448 c 0.7524,2.58203 0.8363,2.60526 2.0625,7.25 1.2891,4.88281 2.7871,10.85742 4.375,17.71875 1.5879,6.86133 3.2813,14.625 4.9375,23.15625 1.6562,8.53125 3.2871,17.82617 4.7812,27.71875 1.4942,9.89258 2.8672,20.39844 3.9688,31.34375 0.5508,5.47266 1.0281,11.04077 1.4375,16.71875 0.4094,5.67798 0.7295,11.43652 0.9687,17.28125 0.2393,5.84473 0.3973,11.7771 0.4376,17.75 0.04,5.9729 -0.031,12 -0.2188,18.0625 -0.1875,6.0625 -0.4934,12.16772 -0.9375,18.28125 -0.4441,6.11353 -1.0205,12.24902 -1.75,18.375 -0.7295,6.12598 -1.6125,12.2439 -2.6563,18.34375 -1.0437,6.09985 -2.2695,12.15234 -3.6562,18.1875 -1.3867,6.03516 -2.929,12.03687 -4.6875,17.96875 -1.7585,5.93188 -3.7158,11.80371 -5.875,17.59375 -2.1592,5.79004 -4.5364,11.51538 -7.125,17.125 -2.5886,5.60962 -5.3906,11.10938 -8.4375,16.5 -3.0469,5.39062 -6.3411,10.64819 -9.875,15.78125 -3.5339,5.13306 -7.2939,10.13184 -11.3438,14.96875 -4.0498,4.83691 -8.3742,9.52905 -12.9687,14.03125 -2.2972,2.2511 -4.6549,4.46481 -7.0937,6.625 -2.4389,2.16019 -4.9473,4.2793 -7.5313,6.34375 -2.584,2.06445 -5.2672,4.06735 -8,6.03125 -2.7328,1.9639 -5.5211,3.86023 -8.4063,5.71875 -1.6596,1.0691 -3.4139,2.09203 -5.125,3.125 l 35.625,0 c 4.8816,-1.69087 9.7842,-3.36658 14.375,-5.28125 6.3577,-2.65137 12.4303,-5.51099 18.25,-8.5625 5.82,-3.05151 11.3828,-6.30078 16.6876,-9.71875 5.3044,-3.41797 10.3442,-6.99927 15.1562,-10.75 4.812,-3.75073 9.4082,-7.66895 13.75,-11.71875 4.3418,-4.0498 8.4495,-8.21606 12.3438,-12.53125 3.894,-4.31519 7.5624,-8.76562 11.0312,-13.3125 3.4688,-4.54688 6.7154,-9.19263 9.7812,-13.9375 3.0662,-4.74487 5.9396,-9.59082 8.625,-14.5 2.6857,-4.90918 5.2037,-9.89771 7.5313,-14.9375 2.3276,-5.03979 4.4767,-10.11328 6.4687,-15.25 1.9923,-5.13672 3.821,-10.3313 5.5,-15.53125 1.3975,-4.32711 2.6182,-8.68087 3.8126,-13.03125 -3.0109,-7.93753 -6.01,-15.91494 -8.9688,-24.125 C 829.5977,645.98438 825.75,635 822,624 814.5,602 807.3751,580 800.9062,559.375 794.4376,538.75 788.625,519.5 783.75,503 774.8479,472.86967 770.3122,456.19881 769.375,452.78125 L 762.5,448 l -16.25,0 z"
       id="path4028"
       inkscape:connector-curvature="0" />
    <path
       style="fill:#800000;stroke:none"
       d="m 728,424 c 0,0 1.8319,9.15633 3.9688,24 L 762.5,448 728,424 z"
       id="path3069"
       inkscape:connector-curvature="0" />
    <path
       style="fill:#808080;stroke:none"
       d="M 873.5938,-100.1875 912,-80 l 0,72 z"
       id="path4179"
       inkscape:connector-curvature="0" />
    <path
       inkscape:connector-curvature="0"
       id="path4181"
       d="M 950.4062,-100.1875 912,-80 l 0,72 z"
       style="fill:#808080;fill-opacity:1;stroke:none" />
    <path
       style="fill:#ff0000;fill-opacity:1;stroke:none"
       d="m 912,-16 24,-88 -24,-168 -24,168 z"
       id="path3049"
       inkscape:connector-curvature="0"
       sodipodi:nodetypes="ccccc" />
    <path
       style="fill:#808080;stroke:none"
       d="m 1136,376 56,-8 c 0,0 24,0 24,-88 0,-64 -16,-64 -16,-64 l -40,-16 -0.125,1 33.7188,15 c 0,0 0.2312,0 0.625,0.125 0.3937,0.125 0.95,0.375 1.625,0.875 0.6749,0.5 1.4687,1.25 2.3124,2.375 0.8438,1.125 1.7563,2.625 2.6563,4.625 0.9,2 1.7813,4.5 2.625,7.625 0.8437,3.125 1.6375,6.875 2.3125,11.375 0.675,4.5 1.2313,9.75 1.625,15.875 C 1207.7687,265 1208,272 1208,280 c 0,5.5 -0.092,10.66602 -0.25,15.5 -0.1582,4.83398 -0.3922,9.35156 -0.6875,13.5625 -0.2953,4.21094 -0.6512,8.11914 -1.0625,11.75 -0.4113,3.63086 -0.8688,6.96875 -1.375,10.0625 -0.5062,3.09375 -1.0449,5.93164 -1.625,8.53125 -0.5801,2.59961 -1.2109,4.94531 -1.8438,7.09375 -0.6328,2.14844 -1.273,4.10352 -1.9374,5.84375 -0.6645,1.74023 -1.3563,3.28125 -2.0313,4.65625 -1.35,2.75 -2.6719,4.82812 -3.9375,6.375 -1.2656,1.54688 -2.4562,2.5625 -3.4688,3.25 -1.0125,0.6875 -1.8781,1.01562 -2.4687,1.1875 -0.5906,0.17188 -0.9063,0.1875 -0.9063,0.1875 L 1136,376 z"
       id="path4096"
       inkscape:connector-curvature="0" />
    <path
       style="fill:#999999;stroke:none"
       d="m 1136,376 50.4062,-8 c 0,0 0.3157,-0.0156 0.9063,-0.1875 0.5906,-0.17188 1.4562,-0.5 2.4687,-1.1875 1.0126,-0.6875 2.2032,-1.70312 3.4688,-3.25 1.2656,-1.54688 2.5875,-3.625 3.9375,-6.375 0.675,-1.375 1.3668,-2.91602 2.0313,-4.65625 0.6644,-1.74023 1.3046,-3.69531 1.9374,-5.84375 0.6329,-2.14844 1.2637,-4.49414 1.8438,-7.09375 0.5801,-2.59961 1.1188,-5.4375 1.625,-8.53125 0.5062,-3.09375 0.9637,-6.43164 1.375,-10.0625 0.4113,-3.63086 0.7672,-7.53906 1.0625,-11.75 0.2953,-4.21094 0.5293,-8.72852 0.6875,-13.5625 0.1582,-4.83398 0.25,-10 0.25,-15.5 0,-8 -0.2313,-15 -0.625,-21.125 -0.3937,-6.125 -0.95,-11.375 -1.625,-15.875 -0.675,-4.5 -1.4688,-8.25 -2.3125,-11.375 -0.8437,-3.125 -1.725,-5.625 -2.625,-7.625 -0.9,-2 -1.8125,-3.5 -2.6563,-4.625 -0.8437,-1.125 -1.6375,-1.875 -2.3124,-2.375 -0.675,-0.5 -1.2313,-0.75 -1.625,-0.875 C 1193.825,216 1193.5938,216 1193.5938,216 L 1159.875,201 1136,376 z"
       id="path3869"
       inkscape:connector-curvature="0" />
    <path
       sodipodi:nodetypes="cccsssccc"
       inkscape:connector-curvature="0"
       id="path3926"
       d="m 728,-40 c 13.5955,27.190987 48.6201,61.67067 59.3438,74.4375 -1.2062,0.801555 -2.3806,1.49063 -3.5938,2.3125 -5.8125,3.9375 -11.7148,8.113281 -17.6562,12.53125 -5.9415,4.417969 -11.9219,9.078125 -17.9376,14 -6.0156,4.921875 -12.0585,10.113281 -18.0937,15.5625 C 724.0273,84.292969 718,90 712,96 c 0,0 -3.3867,5.89458 -6.5,11.34375 C 678.8972,43.194856 728,-40 728,-40 z"
       style="fill:#808080;stroke:none" />
    <path
       style="fill:#cccccc;stroke:none"
       d="m 728,-40 0,24 c 0,0 19.9125,37.640896 43.6562,61.21875 1.1089,-0.792381 2.2104,-1.593431 3.3126,-2.375 2.9417,-2.087402 5.875,-4.125 8.7812,-6.09375 1.1832,-0.801542 2.3547,-1.592783 3.5312,-2.375 -5.3829,-6.397363 -16.7723,-18.178189 -28.5312,-31.75 -2.949,-3.40366197 -5.9079,-6.9276042 -8.8125,-10.5 -2.9046,-3.572396 -5.756,-7.184658 -8.4375,-10.8125 -2.6815,-3.627842 -5.2202,-7.273749 -7.5,-10.84375 -2.2798,-3.570001 -4.3006,-7.069877 -6,-10.46875 z"
       id="path4238"
       inkscape:connector-curvature="0" />
    <path
       sodipodi:nodetypes="ccccsc"
       inkscape:connector-curvature="0"
       id="path3928"
       d="M 733.9688,75.46875 C 713.6204,29.52103 728,-16 728,-16 c 0,0 19.9476,37.707437 43.7188,61.28125 -1.8829,1.358769 -3.731,2.591591 -5.625,4 -5.9415,4.417969 -11.9219,9.078125 -17.9376,14 -4.7144,3.857247 -9.4574,8.007927 -14.1874,12.1875 z"
       style="fill:#008700;fill-opacity:1;stroke:none" />
    <path
       style="fill:#999999;stroke:none"
       d="m 664.125,201 -33.7188,15 c 0,0 -0.2312,0 -0.625,0.125 -0.3937,0.125 -0.95,0.375 -1.625,0.875 -0.6749,0.5 -1.4687,1.25 -2.3124,2.375 C 625,220.5 624.0875,222 623.1875,224 c -0.9,2 -1.7813,4.5 -2.625,7.625 -0.8437,3.125 -1.6375,6.875 -2.3125,11.375 -0.675,4.5 -1.2313,9.75 -1.625,15.875 C 616.2313,265 616,272 616,280 c 0,5.5 0.092,10.66602 0.25,15.5 0.1582,4.83398 0.3922,9.35156 0.6875,13.5625 0.2953,4.21094 0.6512,8.11914 1.0625,11.75 0.4113,3.63086 0.8688,6.96875 1.375,10.0625 0.5062,3.09375 1.0449,5.93164 1.625,8.53125 0.5801,2.59961 1.2109,4.94531 1.8438,7.09375 0.6328,2.14844 1.273,4.10352 1.9374,5.84375 0.6645,1.74023 1.3563,3.28125 2.0313,4.65625 1.35,2.75 2.6719,4.82812 3.9375,6.375 1.2656,1.54688 2.4562,2.5625 3.4688,3.25 1.0125,0.6875 1.8781,1.01562 2.4687,1.1875 0.5906,0.17188 0.9063,0.1875 0.9063,0.1875 L 688,376 664.125,201 z"
       id="path4101"
       inkscape:connector-curvature="0" />
    <path
       style="fill:#808080;stroke:none"
       d="m 664,200 -40,16 c 0,0 -16,0 -16,64 0,88 24,88 24,88 l 56,8 -50.4062,-8 c 0,0 -0.3157,-0.0156 -0.9063,-0.1875 -0.5906,-0.17188 -1.4562,-0.5 -2.4687,-1.1875 -1.0126,-0.6875 -2.2032,-1.70312 -3.4688,-3.25 -1.2656,-1.54688 -2.5875,-3.625 -3.9375,-6.375 -0.675,-1.375 -1.3668,-2.91602 -2.0313,-4.65625 -0.6644,-1.74023 -1.3046,-3.69531 -1.9374,-5.84375 -0.6329,-2.14844 -1.2637,-4.49414 -1.8438,-7.09375 -0.5801,-2.59961 -1.1188,-5.4375 -1.625,-8.53125 -0.5062,-3.09375 -0.9637,-6.43164 -1.375,-10.0625 -0.4113,-3.63086 -0.7672,-7.53906 -1.0625,-11.75 -0.2953,-4.21094 -0.5293,-8.72852 -0.6875,-13.5625 -0.1582,-4.83398 -0.25,-10 -0.25,-15.5 0,-8 0.2313,-15 0.625,-21.125 0.3937,-6.125 0.95,-11.375 1.625,-15.875 0.675,-4.5 1.4688,-8.25 2.3125,-11.375 0.8437,-3.125 1.725,-5.625 2.625,-7.625 0.9,-2 1.8125,-3.5 2.6563,-4.625 0.8437,-1.125 1.6375,-1.875 2.3124,-2.375 0.675,-0.5 1.2313,-0.75 1.625,-0.875 C 630.175,216 630.4062,216 630.4062,216 L 664.125,201 664,200 z"
       id="path3938"
       inkscape:connector-curvature="0" />
    <g
       id="g4118"
       style="stroke:none"
       transform="translate(-792,0)">
      <path
         sodipodi:nodetypes="ccccccc"
         inkscape:connector-curvature="0"
         id="path3918"
         d="m 1768,248 c 0,0 0,8 16,8 0,0 48,0 72,8 0,0 16,0 24,-16 0,0 0,-16 -8,-24 0,0 -48,-24 -96,8 0,0 -8,8 -8,16 z"
         style="fill:#ffffff;stroke:none" />
      <path
         d="m 1832,236 c 0,6.62742 -5.3726,12 -12,12 -6.6274,0 -12,-5.37258 -12,-12 0,-6.62742 5.3726,-12 12,-12 6.6274,0 12,5.37258 12,12 z"
         sodipodi:ry="12"
         sodipodi:rx="12"
         sodipodi:cy="236"
         sodipodi:cx="1820"
         id="path3857"
         style="fill:none;stroke:none"
         sodipodi:type="arc" />
      <path
         id="path3964"
         d="m 1837.6562,214.40625 c -1.0426,-0.12743 -2.1392,-0.3138 -3.1562,-0.40625 -2.75,-0.25 -5.4062,-0.35938 -7.9688,-0.375 -2.5624,-0.0156 -5.0312,0.0625 -7.4062,0.25 -2.375,0.1875 -4.6562,0.45312 -6.8438,0.8125 C 1810.0938,215.04688 1808,215.5 1806,216 c -2.8621,0.71552 -5.3032,1.66804 -7.7812,2.59375 C 1794.3844,223.38467 1792,229.38637 1792,236 c 0,8.5063 3.8566,16.05224 9.8438,21.1875 3.3147,-0.17315 6.6598,-0.33704 10.0312,-0.21875 4.4531,0.15625 8.875,0.53125 13.125,1.03125 3.5858,0.42186 6.9094,0.95649 10.125,1.5 7.7281,-4.98393 12.875,-13.62034 12.875,-23.5 0,-8.73803 -4.072,-16.45891 -10.3438,-21.59375 z"
         style="fill:#2b1100;stroke:none"
         inkscape:connector-curvature="0" />
      <path
         id="path3971"
         d="m 1831.8438,213.875 c -1.7917,-0.11227 -3.6042,-0.23958 -5.3126,-0.25 -2.5624,-0.0156 -5.0312,0.0625 -7.4062,0.25 -2.375,0.1875 -4.6562,0.45312 -6.8438,0.8125 C 1810.0938,215.04688 1808,215.5 1806,216 c -0.7241,0.18103 -1.2692,0.45957 -1.9688,0.65625 -5.5908,4.62217 -9.2187,11.52303 -9.2187,19.34375 0,8.83848 4.5518,16.59551 11.4375,21.09375 1.883,-0.0197 3.7345,-0.19133 5.625,-0.125 4.4531,0.15625 8.875,0.53125 13.125,1.03125 1.9585,0.23042 3.6692,0.53817 5.5312,0.8125 8.6379,-3.99648 14.6563,-12.66945 14.6563,-22.8125 0,-9.61336 -5.4275,-17.87598 -13.3437,-22.125 z"
         style="fill:url(#linearGradient4421);fill-opacity:1;stroke:none"
         inkscape:connector-curvature="0" />
      <path
         transform="matrix(0.9,0,0,0.9,182,23.6)"
         d="m 1840,236 c 0,11.04569 -8.9543,20 -20,20 -11.0457,0 -20,-8.95431 -20,-20 0,-11.04569 8.9543,-20 20,-20 11.0457,0 20,8.95431 20,20 z"
         sodipodi:ry="20"
         sodipodi:rx="20"
         sodipodi:cy="236"
         sodipodi:cx="1820"
         id="path3863"
         style="fill:#28170b;stroke:none"
         sodipodi:type="arc" />
      <path
         sodipodi:nodetypes="cccccscsccc"
         style="fill:#1a1a1a;stroke:none"
         d="m 1760,256 c 8,8 16,8 16,8 24,-16 80,0 80,0 16,0 24,-16 24,-16 0,-16 -8,-24 -8,-24 -56,-24 -88,0 -96,8 -8,8 -24,16 -24,16 0,0 16,-8 16,-16 0,-8 32,-40 104,-16 0,0 8,8 24,-8 0,0 -16,16 -24,16 0,0 8,8 8,24 0,0 -8,16 -24,16 0,0 -56,-16 -80,0 0,0 -16,0 -16,-8 z"
         id="path3908"
         inkscape:connector-curvature="0" />
      <path
         style="fill:none;stroke:none"
         d="m 1752,248 c 0,0 16,-8 24,-16 8,-8 40,-32 96,-8 0,0 8,8 8,24 0,0 -8,16 -24,16 0,0 -56,-16 -80,0 0,0 -8,0 -16,-8"
         id="path3916"
         inkscape:connector-curvature="0" />
      <path
         sodipodi:nodetypes="cscccccccscccccc"
         style="fill:#1a1a1a;stroke:none"
         d="m 1752,248 c 0,0 16,-8 24,-16 8,-8 40,-32 96,-8 0,0 8,8 8,24 0,0 -8,16 -24,16 0,0 -56,-16 -80,0 0,0 -8,0 -16,-8 0,0 0,8 16,8 0,0 24,-6 80,2 0,0 8,1 16,-2 5.4597,-2.04738 16,-8 24,-8 0,0 -7,-4 -27,7 0,0 4,-7 15,-15 0,0 -4,-16 -12,-24 0,0 -48,-16 -96,8 0,0 -8,16 -24,16 z"
         id="path3912"
         inkscape:connector-curvature="0" />
      <path
         sodipodi:nodetypes="cccccc"
         inkscape:connector-curvature="0"
         id="path3865"
         d="m 1888,184 c -40,8 -56,24 -56,24 -16,16 -72,16 -72,16 -32,0 -40,-24 -40,-24 0,0 24,-8 80,-8 0,0 40,0 88,-8 z"
         style="fill:#1a1a1a;stroke:none" />
      <path
         sodipodi:type="arc"
         style="fill:#241c1c;stroke:none"
         id="path3975"
         sodipodi:cx="1820"
         sodipodi:cy="236"
         sodipodi:rx="20"
         sodipodi:ry="20"
         d="m 1840,236 c 0,11.04569 -8.9543,20 -20,20 -11.0457,0 -20,-8.95431 -20,-20 0,-11.04569 8.9543,-20 20,-20 11.0457,0 20,8.95431 20,20 z"
         transform="matrix(0.81,0,0,0.81,345.8,44.84)" />
      <path
         transform="matrix(0.6075,0,0,0.6075,714.35,92.63)"
         d="m 1840,236 c 0,11.04569 -8.9543,20 -20,20 -11.0457,0 -20,-8.95431 -20,-20 0,-11.04569 8.9543,-20 20,-20 11.0457,0 20,8.95431 20,20 z"
         sodipodi:ry="20"
         sodipodi:rx="20"
         sodipodi:cy="236"
         sodipodi:cx="1820"
         id="path3977"
         style="fill:#280b0b;stroke:none"
         sodipodi:type="arc" />
      <path
         sodipodi:type="arc"
         style="fill:#483e37;stroke:none"
         id="path3979"
         sodipodi:cx="1820"
         sodipodi:cy="236"
         sodipodi:rx="20"
         sodipodi:ry="20"
         d="m 1840,236 c 0,11.04569 -8.9543,20 -20,20 -11.0457,0 -20,-8.95431 -20,-20 0,-11.04569 8.9543,-20 20,-20 11.0457,0 20,8.95431 20,20 z"
         transform="matrix(0.455625,0,0,0.455625,990.7625,128.4725)" />
      <path
         transform="matrix(0.2278125,0,0,0.2278125,1405.3813,182.23625)"
         d="m 1840,236 c 0,11.04569 -8.9543,20 -20,20 -11.0457,0 -20,-8.95431 -20,-20 0,-11.04569 8.9543,-20 20,-20 11.0457,0 20,8.95431 20,20 z"
         sodipodi:ry="20"
         sodipodi:rx="20"
         sodipodi:cy="236"
         sodipodi:cx="1820"
         id="path3981"
         style="fill:#1a1a1a;stroke:none"
         sodipodi:type="arc" />
      <path
         transform="translate(4,-4)"
         d="m 1816,236 c 0,2.20914 -1.7909,4 -4,4 -2.2091,0 -4,-1.79086 -4,-4 0,-2.20914 1.7909,-4 4,-4 2.2091,0 4,1.79086 4,4 z"
         sodipodi:ry="4"
         sodipodi:rx="4"
         sodipodi:cy="236"
         sodipodi:cx="1812"
         id="path3853"
         style="fill:#ffffff;fill-opacity:0.68627451;stroke:none"
         sodipodi:type="arc" />
      <path
         d="m 1832,248 c 0,4.41828 -3.5817,8 -8,8 -4.4183,0 -8,-3.58172 -8,-8 0,-4.41828 3.5817,-8 8,-8 4.4183,0 8,3.58172 8,8 z"
         sodipodi:ry="8"
         sodipodi:rx="8"
         sodipodi:cy="248"
         sodipodi:cx="1824"
         id="path3855"
         style="fill:#ffffff;fill-opacity:0.68627451;stroke:none"
         sodipodi:type="arc" />
      <path
         style="fill:#ffffff;stroke:none"
         d="m 1640,248 c 0,0 0,8 -16,8 0,0 -48,0 -72,8 0,0 -16,0 -24,-16 0,0 0,-16 8,-24 0,0 48,-24 96,8 0,0 8,8 8,16 z"
         id="path4050"
         inkscape:connector-curvature="0"
         sodipodi:nodetypes="ccccccc" />
      <path
         transform="matrix(-1,0,0,1,3408,0)"
         sodipodi:type="arc"
         style="fill:none;stroke:none"
         id="path4052"
         sodipodi:cx="1820"
         sodipodi:cy="236"
         sodipodi:rx="12"
         sodipodi:ry="12"
         d="m 1832,236 c 0,6.62742 -5.3726,12 -12,12 -6.6274,0 -12,-5.37258 -12,-12 0,-6.62742 5.3726,-12 12,-12 6.6274,0 12,5.37258 12,12 z" />
      <path
         style="fill:#2b1100;stroke:none"
         d="m 1570.3438,214.40625 c 1.0426,-0.12743 2.1392,-0.3138 3.1562,-0.40625 2.75,-0.25 5.4062,-0.35938 7.9688,-0.375 2.5624,-0.0156 5.0312,0.0625 7.4062,0.25 2.375,0.1875 4.6562,0.45312 6.8438,0.8125 2.1874,0.35938 4.2812,0.8125 6.2812,1.3125 2.8621,0.71552 5.3032,1.66804 7.7812,2.59375 3.8344,4.79092 6.2188,10.79262 6.2188,17.40625 0,8.5063 -3.8566,16.05224 -9.8438,21.1875 -3.3147,-0.17315 -6.6598,-0.33704 -10.0312,-0.21875 C 1591.6719,257.125 1587.25,257.5 1583,258 c -3.5858,0.42186 -6.9094,0.95649 -10.125,1.5 C 1565.1469,254.51607 1560,245.87966 1560,236 c 0,-8.73803 4.072,-16.45891 10.3438,-21.59375 z"
         id="path4054"
         inkscape:connector-curvature="0" />
      <path
         style="fill:url(#linearGradient4423);fill-opacity:1;stroke:none"
         d="m 1576.1562,213.875 c 1.7917,-0.11227 3.6042,-0.23958 5.3126,-0.25 2.5624,-0.0156 5.0312,0.0625 7.4062,0.25 2.375,0.1875 4.6562,0.45312 6.8438,0.8125 2.1874,0.35938 4.2812,0.8125 6.2812,1.3125 0.7241,0.18103 1.2692,0.45957 1.9688,0.65625 5.5908,4.62217 9.2187,11.52303 9.2187,19.34375 0,8.83848 -4.5518,16.59551 -11.4375,21.09375 -1.883,-0.0197 -3.7345,-0.19133 -5.625,-0.125 C 1591.6719,257.125 1587.25,257.5 1583,258 c -1.9585,0.23042 -3.6692,0.53817 -5.5312,0.8125 -8.6379,-3.99648 -14.6563,-12.66945 -14.6563,-22.8125 0,-9.61336 5.4275,-17.87598 13.3437,-22.125 z"
         id="path4056"
         inkscape:connector-curvature="0" />
      <path
         sodipodi:type="arc"
         style="fill:#28170b;stroke:none"
         id="path4058"
         sodipodi:cx="1820"
         sodipodi:cy="236"
         sodipodi:rx="20"
         sodipodi:ry="20"
         d="m 1840,236 c 0,11.04569 -8.9543,20 -20,20 -11.0457,0 -20,-8.95431 -20,-20 0,-11.04569 8.9543,-20 20,-20 11.0457,0 20,8.95431 20,20 z"
         transform="matrix(-0.9,0,0,0.9,3226,23.6)" />
      <path
         inkscape:connector-curvature="0"
         id="path4060"
         d="m 1648,256 c -8,8 -16,8 -16,8 -24,-16 -80,0 -80,0 -16,0 -24,-16 -24,-16 0,-16 8,-24 8,-24 56,-24 88,0 96,8 8,8 24,16 24,16 0,0 -16,-8 -16,-16 0,-8 -32,-40 -104,-16 0,0 -8,8 -24,-8 0,0 16,16 24,16 0,0 -8,8 -8,24 0,0 8,16 24,16 0,0 56,-16 80,0 0,0 16,0 16,-8 z"
         style="fill:#1a1a1a;stroke:none"
         sodipodi:nodetypes="cccccscsccc" />
      <path
         inkscape:connector-curvature="0"
         id="path4062"
         d="m 1656,248 c 0,0 -16,-8 -24,-16 -8,-8 -40,-32 -96,-8 0,0 -8,8 -8,24 0,0 8,16 24,16 0,0 56,-16 80,0 0,0 8,0 16,-8"
         style="fill:none;stroke:none" />
      <path
         inkscape:connector-curvature="0"
         id="path4064"
         d="m 1656,248 c 0,0 -16,-8 -24,-16 -8,-8 -40,-32 -96,-8 0,0 -8,8 -8,24 0,0 8,16 24,16 0,0 56,-16 80,0 0,0 8,0 16,-8 0,0 0,8 -16,8 0,0 -24,-6 -80,2 0,0 -8,1 -16,-2 -5.4597,-2.04738 -16,-8 -24,-8 0,0 7,-4 27,7 0,0 -4,-7 -15,-15 0,0 4,-16 12,-24 0,0 48,-16 96,8 0,0 8,16 24,16 z"
         style="fill:#1a1a1a;stroke:none"
         sodipodi:nodetypes="cscccccccscccccc" />
      <path
         style="fill:#1a1a1a;stroke:none"
         d="m 1520,184 c 40,8 56,24 56,24 16,16 72,16 72,16 32,0 40,-24 40,-24 0,0 -24,-8 -80,-8 0,0 -40,0 -88,-8 z"
         id="path4066"
         inkscape:connector-curvature="0"
         sodipodi:nodetypes="cccccc" />
      <path
         transform="matrix(-0.81,0,0,0.81,3062.2,44.84)"
         d="m 1840,236 c 0,11.04569 -8.9543,20 -20,20 -11.0457,0 -20,-8.95431 -20,-20 0,-11.04569 8.9543,-20 20,-20 11.0457,0 20,8.95431 20,20 z"
         sodipodi:ry="20"
         sodipodi:rx="20"
         sodipodi:cy="236"
         sodipodi:cx="1820"
         id="path4068"
         style="fill:#241c1c;stroke:none"
         sodipodi:type="arc" />
      <path
         sodipodi:type="arc"
         style="fill:#280b0b;stroke:none"
         id="path4070"
         sodipodi:cx="1820"
         sodipodi:cy="236"
         sodipodi:rx="20"
         sodipodi:ry="20"
         d="m 1840,236 c 0,11.04569 -8.9543,20 -20,20 -11.0457,0 -20,-8.95431 -20,-20 0,-11.04569 8.9543,-20 20,-20 11.0457,0 20,8.95431 20,20 z"
         transform="matrix(-0.6075,0,0,0.6075,2693.65,92.63)" />
      <path
         transform="matrix(-0.455625,0,0,0.455625,2417.2375,128.4725)"
         d="m 1840,236 c 0,11.04569 -8.9543,20 -20,20 -11.0457,0 -20,-8.95431 -20,-20 0,-11.04569 8.9543,-20 20,-20 11.0457,0 20,8.95431 20,20 z"
         sodipodi:ry="20"
         sodipodi:rx="20"
         sodipodi:cy="236"
         sodipodi:cx="1820"
         id="path4072"
         style="fill:#483e37;stroke:none"
         sodipodi:type="arc" />
      <path
         sodipodi:type="arc"
         style="fill:#1a1a1a;stroke:none"
         id="path4074"
         sodipodi:cx="1820"
         sodipodi:cy="236"
         sodipodi:rx="20"
         sodipodi:ry="20"
         d="m 1840,236 c 0,11.04569 -8.9543,20 -20,20 -11.0457,0 -20,-8.95431 -20,-20 0,-11.04569 8.9543,-20 20,-20 11.0457,0 20,8.95431 20,20 z"
         transform="matrix(-0.2278125,0,0,0.2278125,2002.6187,182.23625)" />
      <path
         transform="matrix(-1,0,0,1,3396,-4)"
         sodipodi:type="arc"
         style="fill:#ffffff;fill-opacity:0.68627451;stroke:none"
         id="path4076"
         sodipodi:cx="1812"
         sodipodi:cy="236"
         sodipodi:rx="4"
         sodipodi:ry="4"
         d="m 1816,236 c 0,2.20914 -1.7909,4 -4,4 -2.2091,0 -4,-1.79086 -4,-4 0,-2.20914 1.7909,-4 4,-4 2.2091,0 4,1.79086 4,4 z" />
      <path
         transform="matrix(-1,0,0,1,3416,0)"
         sodipodi:type="arc"
         style="fill:#ffffff;fill-opacity:0.68627451;stroke:none"
         id="path4078"
         sodipodi:cx="1824"
         sodipodi:cy="248"
         sodipodi:rx="8"
         sodipodi:ry="8"
         d="m 1832,248 c 0,4.41828 -3.5817,8 -8,8 -4.4183,0 -8,-3.58172 -8,-8 0,-4.41828 3.5817,-8 8,-8 4.4183,0 8,3.58172 8,8 z" />
    </g>
    <path
       style="fill:#806600;fill-opacity:1;stroke:none"
       d="m 735.4062,159.71875 c -66.4693,1.65373 -56.6553,94.1045 -19.5,134.125 -1.2983,-1.44 -2.5658,-2.9326 -3.7812,-4.5 -2.6326,-3.39513 -5.0671,-7.04831 -7.2812,-10.9375 -2.2142,-3.88919 -4.2131,-8.00865 -5.9688,-12.25 -1.7557,-4.24135 -3.2741,-8.61087 -4.5312,-13.0625 -1.2572,-4.45163 -2.2502,-8.97999 -2.9688,-13.5 -0.7186,-4.52001 -1.1412,-9.02225 -1.2812,-13.46875 -0.1401,-4.4465 -0.01,-8.83139 0.4687,-13.0625 0.2393,-2.11555 0.5673,-4.18365 0.9687,-6.21875 0.4015,-2.0351 0.9002,-4.03184 1.4688,-5.96875 0.5686,-1.93691 1.228,-3.83527 1.9688,-5.65625 0.7407,-1.82098 1.5508,-3.56268 2.4687,-5.25 0.9179,-1.68732 1.9312,-3.30783 3.0313,-4.84375 1.1,-1.53592 2.2752,-3.00821 3.5624,-4.375 1.2873,-1.36679 2.6769,-2.63259 4.1563,-3.8125 1.4794,-1.17991 3.0734,-2.27469 4.75,-3.25 1.6766,-0.97531 3.4337,-1.84079 5.3125,-2.59375 1.8788,-0.75296 3.8828,-1.39337 5.9688,-1.90625 2.0859,-0.51288 4.2643,-0.90119 6.5624,-1.15625 2.2982,-0.25506 4.7034,-0.36424 7.2188,-0.34375 1.9318,0.0157 3.9375,0.125 6,0.3125 5.9961,0.5451 11.8897,1.16682 17.6875,1.875 5.7978,0.70818 11.4865,1.49877 17.0625,2.34375 11.152,1.68995 21.8452,3.63934 31.9688,5.71875 10.1235,2.07941 19.6868,4.30392 28.5937,6.5625 8.9069,2.25858 17.1543,4.5538 24.6563,6.78125 7.5019,2.22745 14.2474,4.38897 20.1562,6.375 5.9088,1.98603 10.9975,3.77819 15.125,5.3125 C 907.5049,206.03738 912,208 912,208 c 0,0 4.4951,-1.96262 12.75,-5.03125 4.1275,-1.53431 9.2162,-3.32647 15.125,-5.3125 5.9088,-1.98603 12.6543,-4.14755 20.1562,-6.375 7.502,-2.22745 15.7494,-4.52267 24.6563,-6.78125 8.9069,-2.25858 18.4702,-4.48309 28.5937,-6.5625 10.1236,-2.07941 20.8168,-4.0288 31.9688,-5.71875 5.576,-0.84498 11.2647,-1.63557 17.0625,-2.34375 5.7978,-0.70818 11.6914,-1.3299 17.6875,-1.875 2.75,-0.25 5.3879,-0.33423 7.9062,-0.28125 2.5184,0.053 4.9268,0.25684 7.2188,0.59375 2.292,0.33691 4.4602,0.80444 6.5312,1.40625 2.0711,0.60181 4.0508,1.30859 5.9063,2.15625 1.8555,0.84766 3.5735,1.83179 5.2187,2.90625 1.6453,1.07446 3.2159,2.24902 4.6563,3.53125 1.4404,1.28223 2.759,2.65405 4,4.125 1.241,1.47095 2.3906,3.04688 3.4375,4.6875 1.0469,1.64062 1.9856,3.36499 2.8438,5.15625 0.8581,1.79126 1.6376,3.63965 2.3124,5.5625 0.6749,1.92285 1.2532,3.9021 1.75,5.9375 0.4969,2.0354 0.8946,4.15234 1.2188,6.28125 0.3242,2.12891 0.593,4.29663 0.75,6.5 0.157,2.20337 0.2236,4.42871 0.2188,6.6875 -0.01,4.51758 -0.3438,9.125 -0.9688,13.75 -0.625,4.625 -1.5527,9.26367 -2.75,13.84375 -1.1973,4.58008 -2.6484,9.08594 -4.375,13.46875 -1.7266,4.38281 -3.7246,8.6543 -5.9375,12.6875 -2.2129,4.0332 -4.6563,7.84375 -7.3125,11.375 -1.2199,1.62176 -2.4744,3.1638 -3.7812,4.65625 C 1146.9011,250.91315 1155.3466,153.72112 1080,160 c -96,8 -168,40 -168,40 0,0 -72,-32 -168,-40 -3,-0.25 -5.856,-0.34937 -8.5938,-0.28125 z"
       id="path4162"
       inkscape:connector-curvature="0" />
    <path
       inkscape:connector-curvature="0"
       style="fill:#005b00;fill-opacity:0.5098038;stroke:none"
       d="M 735.4062,159.71875 C 650.5347,161.83032 690,312 752,312 c 64,0 128,-24 128,-24 0,0 24,-8 32,-8 8,0 32,8 32,8 0,0 64,24 128,24 64,0 104,-160 8,-152 -96,8 -168,40 -168,40 0,0 -72,-32 -168,-40 -3,-0.25 -5.856,-0.34937 -8.5938,-0.28125 z"
       id="path3824" />
    <path
       sodipodi:nodetypes="cccc"
       inkscape:connector-curvature="0"
       id="path3136"
       d="m 912,-16 24,-88 -24,-168 z"
       style="fill:#aa0000;fill-opacity:1;stroke:none" />
    <path
       style="fill:#1a1a1a;fill-opacity:0.47058824;stroke:none"
       d="m 736.2188,485.8125 c 4.1585,4.85347 8.4776,9.67224 13.0312,14.46875 4.7812,5.03625 9.7944,10.04964 15.0312,15 5.2369,4.95036 10.6934,9.84669 16.4063,14.6875 5.7129,4.84081 11.6655,9.63615 17.875,14.34375 6.2095,4.7076 12.6797,9.32427 19.4063,13.875 6.7265,4.55073 13.7045,9.03605 20.9687,13.40625 7.2642,4.3702 14.8027,8.64648 22.625,12.8125 7.8223,4.16602 15.9429,8.21808 24.3437,12.15625 C 894.3071,600.50067 903,604.31333 912,608 c 9,-3.68667 17.6929,-7.49933 26.0938,-11.4375 8.4008,-3.93817 16.5214,-7.99023 24.3437,-12.15625 7.8223,-4.16602 15.3608,-8.4423 22.625,-12.8125 7.2642,-4.3702 14.2422,-8.85552 20.9687,-13.40625 6.7266,-4.55073 13.1968,-9.1674 19.4063,-13.875 6.2095,-4.7076 12.1621,-9.50294 17.875,-14.34375 5.7129,-4.84081 11.1694,-9.73714 16.4063,-14.6875 5.2368,-4.95036 10.25,-9.96375 15.0312,-15 4.5536,-4.79651 8.8727,-9.61528 13.0312,-14.46875 1.2789,-14.87559 2.8142,-27.83883 4.25,-37.8125 l -14.2812,0 -16.25,0 -6.875,4.78125 L 972.5625,509.875 912,552 851.4375,509.875 769.375,452.78125 762.5,448 l -16.25,0 -14.2812,0 c 1.4358,9.97388 2.9711,22.93678 4.25,37.8125 z"
       id="path4120"
       inkscape:connector-curvature="0" />
    <path
       style="fill:#ffb800;fill-opacity:1;stroke:none"
       d="M 912,576 C 1200,464 1176,224 1176,224 1168,192 1112,96 1112,96 1016,0 912,-24 912,-24 l 0,224 c 0,0 72,-32 168,-40 96,-8 56,152 -8,152 -64,0 -128,-24 -128,-24 0,0 -24,-8 -32,-8 l 0,296 z"
       id="path3963"
       inkscape:connector-curvature="0" />
    <path
       style="fill:#ffcc00;stroke:none"
       d="m 912,576 0,-296 c -8,0 -32,8 -32,8 0,0 -64,24 -128,24 -62,0 -101.4652,-150.16968 -16.5938,-152.28125 0.6846,-0.017 1.3628,-0.035 2.0626,-0.0312 2.0987,0.0109 4.2812,0.125 6.5312,0.3125 96,8 168,40 168,40 l 0,-224 c 0,0 -104,24.00000042 -200,120 0,0 -56,96 -64,128 0,0 -24,240 264,352 z"
       id="path3051"
       inkscape:connector-curvature="0" />
    <path
       style="fill:#ececec;fill-opacity:1;stroke:none"
       d="m 1157.625,217.46875 -3.125,22.9375 c 19.96,2.43398 40.8002,10.09847 60.875,20.34375 -0.036,-0.55753 -0.024,-1.33135 -0.062,-1.875 -0.438,-6.125 -1.063,-11.375 -1.813,-15.875 -0.7275,-4.36528 -1.5943,-7.9634 -2.5,-11.03125 -29.3388,-8.30466 -48.3382,-13.22674 -53.375,-14.5 z"
       id="path4044"
       inkscape:connector-curvature="0" />
    <path
       style="fill:#ffc955;fill-opacity:1;stroke:none"
       d="m 912,568 c 288,-107.52 264,-337.90625 264,-337.90625 -8,-30.72 -64,-122.90625 -64,-122.90625 C 1016,15.0275 912,-8 912,-8 l 0,208 c 0,0 72,-32 168,-40 96,-8 56,152 -8,152 -64,0 -128,-24 -128,-24 0,0 -24,-8 -32,-8 l 0,288 z"
       id="path3968"
       inkscape:connector-curvature="0" />
    <path
       style="fill:#ececec;stroke:none"
       d="m 613,231.96875 c -0.9057,3.06785 -1.7725,6.66597 -2.5,11.03125 -0.75,4.5 -1.375,9.75 -1.8125,15.875 -0.039,0.54365 -0.027,1.31747 -0.062,1.875 20.0748,-10.24528 40.915,-17.90977 60.875,-20.34375 l -3.125,-22.9375 c -5.0368,1.27326 -24.0362,6.19534 -53.375,14.5 z"
       id="path4048"
       inkscape:connector-curvature="0" />
    <path
       style="fill:#ffdd55;stroke:none"
       d="m 912,568 0,-288 c -8,0 -32,8 -32,8 0,0 -64,24 -128,24 -62,0 -101.4652,-150.16968 -16.5938,-152.28125 0.6846,-0.017 1.3628,-0.035 2.0626,-0.0312 2.0987,0.0109 4.2812,0.125 6.5312,0.3125 96,8 168,40 168,40 l 0,-208 c 0,0 -104,23.0275 -200,115.1875 0,0 -56,92.18625 -64,122.90625 0,0 -24,230.38625 264,337.90625 z"
       id="path4231"
       inkscape:connector-curvature="0" />
    <path
       style="fill:#808080;stroke:none"
       d="m 1096,-40 c -13.5955,27.190987 -48.6201,61.67067 -59.3438,74.4375 1.2062,0.801555 2.3806,1.49063 3.5938,2.3125 5.8125,3.9375 11.7148,8.113281 17.6562,12.53125 5.9415,4.417969 11.9219,9.078125 17.9376,14 6.0156,4.921875 12.0585,10.113281 18.0937,15.5625 C 1099.9727,84.292969 1106,90 1112,96 c 0,0 3.3867,5.89458 6.5,11.34375 C 1145.1028,43.194856 1096,-40 1096,-40 z"
       id="path4247"
       inkscape:connector-curvature="0"
       sodipodi:nodetypes="cccsssccc" />
    <path
       style="fill:#cccccc;stroke:none"
       d="m 1096,-40 c -1.6994,3.398873 -3.7202,6.898749 -6,10.46875 -2.2798,3.570001 -4.8185,7.215908 -7.5,10.84375 -2.6815,3.627842 -5.5329,7.240104 -8.4375,10.8125 -2.9046,3.5723958 -5.8635,7.09633803 -8.8125,10.5 -11.7589,13.571811 -23.1483,25.352637 -28.5312,31.75 1.1764,0.782217 2.348,1.573458 3.5312,2.375 2.9062,1.96875 5.8364,4.005371 8.7812,6.09375 1.1063,0.784875 2.2071,1.578697 3.3126,2.375 C 1076.0875,21.640896 1096,-16 1096,-16 l 0,-24 z"
       id="path4249"
       inkscape:connector-curvature="0" />
    <path
       style="fill:#008700;fill-opacity:1;stroke:none"
       d="M 1090.0312,75.46875 C 1110.3796,29.52103 1096,-16 1096,-16 c 0,0 -19.9476,37.707437 -43.7188,61.28125 1.8829,1.358769 3.731,2.591591 5.625,4 5.9415,4.417969 11.9219,9.078125 17.9376,14 4.7144,3.857247 9.4574,8.007927 14.1874,12.1875 z"
       id="path4251"
       inkscape:connector-curvature="0"
       sodipodi:nodetypes="ccccsc" />
    <path
       style="fill:#ff0000;stroke:none"
       d="m 1155.1562,786.25 c 0.9779,1.22059 1.8389,2.51286 2.8438,3.71875 3.9648,4.75781 8.1487,9.38623 12.5312,13.875 4.3826,4.48877 8.9931,8.8418 13.8126,13.03125 4.8193,4.18945 9.8497,8.20264 15.125,12.0625 C 1204.7439,832.79736 1210.25,836.5 1216,840 l 64,0 0,-6.15625 c -2.0412,-0.54664 -1.4856,-0.34351 -3.75,-0.96875 -8.375,-2.3125 -18.1875,-5.17188 -28.7812,-8.5 C 1236.875,821.04688 1225.5,817.25 1214,813 c -5.75,-2.125 -11.5195,-4.34961 -17.25,-6.6875 -5.7305,-2.33789 -11.4219,-4.77344 -16.9688,-7.3125 -5.5468,-2.53906 -10.957,-5.17773 -16.1562,-7.90625 -2.9634,-1.55517 -5.6601,-3.23002 -8.4688,-4.84375 z"
       id="path4040"
       inkscape:connector-curvature="0" />
    <path
       style="fill:#ff2424;fill-opacity:1;stroke:none"
       d="m 1155.1562,786.25 c 2.8087,1.61373 5.5054,3.28858 8.4688,4.84375 5.1992,2.72852 10.6094,5.36719 16.1562,7.90625 5.5469,2.53906 11.2383,4.97461 16.9688,7.3125 5.7305,2.33789 11.5,4.5625 17.25,6.6875 11.5,4.25 22.875,8.04688 33.4688,11.375 10.5937,3.32812 20.4062,6.1875 28.7812,8.5 2.2644,0.62524 1.7088,0.42211 3.75,0.96875 L 1280,808 c -69.718,-9.95971 -120.7772,-38.51268 -149.4375,-58.65625 1.9757,3.57769 3.8916,7.19241 6.0313,10.6875 3.1865,5.20508 6.5588,10.31592 10.125,15.3125 2.6622,3.73018 5.5573,7.31101 8.4374,10.90625 z"
       id="path3089"
       inkscape:connector-curvature="0" />
    <path
       style="fill:#ff0000;stroke:none"
       d="m 544,833.84375 0,6.15625 64,0 c 5.75,-3.5 11.2561,-7.20264 16.5312,-11.0625 5.2753,-3.85986 10.3057,-7.87305 15.125,-12.0625 4.8195,-4.18945 9.43,-8.54248 13.8126,-13.03125 4.3825,-4.48877 8.5664,-9.11719 12.5312,-13.875 1.0049,-1.20589 1.8659,-2.49816 2.8438,-3.71875 -2.8087,1.61373 -5.5054,3.28858 -8.4688,4.84375 -5.1992,2.72852 -10.6094,5.36719 -16.1562,7.90625 -5.5469,2.53906 -11.2383,4.97461 -16.9688,7.3125 -5.7305,2.33789 -11.5,4.5625 -17.25,6.6875 -11.5,4.25 -22.875,8.04688 -33.4688,11.375 -10.5937,3.32812 -20.4062,6.1875 -28.7812,8.5 -2.2644,0.62524 -1.7088,0.42211 -3.75,0.96875 z"
       id="path4037"
       inkscape:connector-curvature="0" />
    <path
       style="fill:#ff2424;fill-opacity:1;stroke:none"
       d="m 544,833.84375 c 2.0412,-0.54664 1.4856,-0.34351 3.75,-0.96875 8.375,-2.3125 18.1875,-5.17188 28.7812,-8.5 C 587.125,821.04688 598.5,817.25 610,813 c 5.75,-2.125 11.5195,-4.34961 17.25,-6.6875 5.7305,-2.33789 11.4219,-4.77344 16.9688,-7.3125 5.5468,-2.53906 10.957,-5.17773 16.1562,-7.90625 2.9634,-1.55517 5.6601,-3.23002 8.4688,-4.84375 2.8801,-3.59524 5.7752,-7.17607 8.4374,-10.90625 3.5662,-4.99658 6.9385,-10.10742 10.125,-15.3125 2.1397,-3.49509 4.0556,-7.10981 6.0313,-10.6875 C 664.7772,769.48732 613.718,798.04029 544,808 l 0,25.84375 z"
       id="path3091"
       inkscape:connector-curvature="0" />
    <path
       style="fill:#ffff98;fill-opacity:1;stroke:none"
       d="m 839.4375,300.125 c -5.8541,1.45642 -12.1369,2.91578 -18.8125,4.28125 C 813.75,305.8125 806.5,307.125 799,308.25 c -7.5,1.125 -15.25,2.0625 -23.125,2.71875 -3.9375,0.32813 -7.8906,0.57422 -11.875,0.75 -0.031,10e-4 -0.063,-10e-4 -0.094,0 17.8161,80.82628 45.6288,158.22943 72.4063,221.5625 0.9016,0.50179 1.7148,1.03219 2.625,1.53125 7.2642,3.9829 14.8027,7.89068 22.625,11.6875 7.8223,3.79682 15.9429,7.47331 24.3437,11.0625 7.3029,3.12007 14.933,6.11456 22.6876,9.0625 -39.1915,-105.20182 -60.15,-193.2423 -69.1563,-266.5 z"
       id="path3980"
       inkscape:connector-curvature="0" />
    <path
       style="fill:#00f000;fill-opacity:0.23696684;stroke:none"
       d="m 835.1875,175.25 c -7.774,-1.92298 -15.783,-3.86204 -24.4375,-5.625 -10.125,-2.0625 -20.8125,-3.98438 -31.9688,-5.625 -5.5781,-0.82031 -11.2617,-1.54492 -17.0624,-2.21875 -5.4838,-0.637 -11.0877,-1.20518 -16.75,-1.6875 0.6806,50.20481 7.9017,101.55884 18.9374,151.625 0.031,-10e-4 0.063,10e-4 0.094,0 3.9844,-0.17578 7.9375,-0.42187 11.875,-0.75 7.875,-0.65625 15.625,-1.59375 23.125,-2.71875 7.5,-1.125 14.75,-2.4375 21.625,-3.84375 6.6756,-1.36547 12.9584,-2.82483 18.8125,-4.28125 -5.8614,-47.67725 -6.743,-89.11682 -4.25,-124.875 z"
       id="path3978"
       inkscape:connector-curvature="0" />
    <path
       style="fill:#ffff98;fill-opacity:1;stroke:none"
       d="M 892.3438,-2.3125 C 887.0471,-0.58958666 881.0807,1.4662151 874.0312,4.15625 866.25,7.1255176 857.5,10.712031 848,15.03125 c -4.75,2.159609 -9.6836,4.500385 -14.7812,7.03125 -5.0977,2.530865 -10.3594,5.262866 -15.75,8.1875 -5.3907,2.924634 -10.9024,6.034086 -16.5313,9.375 -5.6289,3.340914 -11.375,6.907793 -17.1875,10.6875 -5.8125,3.779707 -11.7148,7.790238 -17.6562,12.03125 -4.9954,3.565716 -10.0429,7.374793 -15.0938,11.28125 -4.5912,28.08073 -6.4298,57.06838 -6.0312,86.46875 5.6623,0.48232 11.2662,1.0505 16.75,1.6875 5.8007,0.67383 11.4843,1.39844 17.0624,2.21875 11.1563,1.64062 21.8438,3.5625 31.9688,5.625 8.6545,1.76296 16.6635,3.70202 24.4375,5.625 6.662,-95.556945 36.6428,-150.464484 57.1563,-177.5625 z"
       id="path3976"
       inkscape:connector-curvature="0" />
    <path
       style="fill:#a7ffa7;fill-opacity:0.23529412;stroke:none"
       d="M 686.9375,214.6875 C 686.0945,258.32726 714.9044,312 752,312 c 64,0 128,-24 128,-24 0,0 24,-8 32,-8 8,0 32,8 32,8 0,0 64,24 128,24 37.9558,0 67.4763,-56.27374 65.1875,-100.40625 -0.136,3.8429 -0.4916,7.73457 -1.1875,11.65625 -0.75,4.22663 -1.8086,8.47195 -3.1562,12.65625 -1.3477,4.1843 -2.9844,8.30939 -4.875,12.3125 -1.8907,4.00311 -4.0274,7.87944 -6.4063,11.5625 -2.3789,3.68306 -5,7.18209 -7.8125,10.40625 -1.4062,1.61208 -2.8706,3.15368 -4.375,4.625 -1.5044,1.47132 -3.0605,2.8743 -4.6562,4.1875 -1.5958,1.3132 -3.2261,2.51852 -4.9063,3.65625 -1.6802,1.13773 -3.3984,2.21135 -5.1563,3.15625 -1.7578,0.9449 -3.5463,1.76529 -5.375,2.5 -1.8286,0.73471 -3.7011,1.36784 -5.5937,1.875 -1.8926,0.50716 -3.8003,0.89399 -5.75,1.15625 -1.9497,0.26226 -3.9375,0.40625 -5.9375,0.40625 -8,0 -16,-0.33728 -23.875,-0.90625 -7.875,-0.56897 -15.625,-1.36837 -23.125,-2.34375 -7.5,-0.97538 -14.75,-2.12453 -21.625,-3.34375 -6.875,-1.21922 -13.375,-2.512 -19.375,-3.8125 -6,-1.3005 -11.5,-2.59328 -16.375,-3.8125 -4.875,-1.21922 -9.125,-2.36837 -12.625,-3.34375 -7,-1.95075 -11,-3.25 -11,-3.25 0,0 -6,-1.73475 -13,-3.46875 -3.5,-0.867 -7.25,-1.72475 -10.625,-2.375 C 917,264.4435 914,264 912,264 c -2,0 -5,0.4435 -8.375,1.09375 -3.375,0.65025 -7.125,1.508 -10.625,2.375 -7,1.734 -13,3.46875 -13,3.46875 0,0 -4,1.29925 -11,3.25 -3.5,0.97538 -7.75,2.12453 -12.625,3.34375 -4.875,1.21922 -10.375,2.512 -16.375,3.8125 -6,1.3005 -12.5,2.59328 -19.375,3.8125 -6.875,1.21922 -14.125,2.36837 -21.625,3.34375 -7.5,0.97538 -15.25,1.77478 -23.125,2.34375 C 768,291.41272 760,291.75 752,291.75 c -1.9375,0 -3.8596,-0.1286 -5.75,-0.375 -1.8904,-0.2464 -3.7567,-0.61673 -5.5938,-1.09375 -1.837,-0.47702 -3.6287,-1.05814 -5.4062,-1.75 -1.7775,-0.69186 -3.5383,-1.48409 -5.25,-2.375 -1.7117,-0.89091 -3.3915,-1.89456 -5.0312,-2.96875 -1.6398,-1.07419 -3.2197,-2.22707 -4.7813,-3.46875 -1.5616,-1.24168 -3.0853,-2.57535 -4.5625,-3.96875 -1.4772,-1.3934 -2.9259,-2.84567 -4.3125,-4.375 -2.7731,-3.05865 -5.3454,-6.36732 -7.7187,-9.875 -2.3734,-3.50768 -4.5449,-7.23203 -6.4688,-11.0625 -1.9239,-3.83047 -3.6065,-7.7855 -5.0312,-11.8125 -1.4248,-4.027 -2.5929,-8.12148 -3.4688,-12.21875 -0.8402,-3.93004 -1.3971,-7.83784 -1.6875,-11.71875 z"
       id="path4079"
       inkscape:connector-curvature="0" />
    <path
       style="fill:#003800;fill-opacity:0.15686275;stroke:none"
       d="m 735.4062,159.71875 c -37.5184,0.93344 -50.6888,30.80674 -48.4062,63.84375 0.1855,-1.90759 0.4556,-3.78585 0.8125,-5.625 0.3569,-1.83915 0.8093,-3.61989 1.3437,-5.375 0.5345,-1.75511 1.1568,-3.46954 1.875,-5.125 0.7183,-1.65546 1.5292,-3.27228 2.4376,-4.8125 0.9083,-1.54022 1.9267,-2.99688 3.0312,-4.40625 1.1045,-1.40937 2.2867,-2.76834 3.5938,-4.03125 1.307,-1.26291 2.7343,-2.43039 4.25,-3.53125 1.5156,-1.10086 3.1444,-2.1393 4.875,-3.0625 1.7305,-0.9232 3.5483,-1.7388 5.5,-2.46875 1.9516,-0.72995 4.0397,-1.35391 6.2187,-1.875 2.179,-0.52109 4.4625,-0.95338 6.875,-1.25 2.4125,-0.29662 4.9415,-0.47469 7.5937,-0.53125 2.7378,-0.0584 5.5938,0.0357 8.5938,0.25 12,0.85714 23.625,2.03125 34.7812,3.4375 11.1563,1.40625 21.8438,3.04464 31.9688,4.8125 10.125,1.76786 19.6875,3.65179 28.5938,5.59375 8.9062,1.94196 17.1562,3.94643 24.6562,5.875 7.5,1.92857 14.25,3.80357 20.1562,5.53125 5.9063,1.72768 10.9688,3.28571 15.0938,4.625 C 907.5,214.27232 912,216 912,216 c 0,0 4.5,-1.72768 12.75,-4.40625 4.125,-1.33929 9.1875,-2.89732 15.0938,-4.625 5.9062,-1.72768 12.6562,-3.60268 20.1562,-5.53125 7.5,-1.92857 15.75,-3.93304 24.6562,-5.875 8.9063,-1.94196 18.4688,-3.82589 28.5938,-5.59375 10.125,-1.76786 20.8125,-3.40625 31.9688,-4.8125 11.1562,-1.40625 22.7812,-2.58036 34.7812,-3.4375 3,-0.21429 5.856,-0.27713 8.5938,-0.21875 2.7377,0.0584 5.3613,0.24861 7.8437,0.5625 2.4824,0.31389 4.8286,0.729 7.0625,1.28125 2.2339,0.55225 4.3516,1.22656 6.3438,2 1.9921,0.77344 3.8676,1.64753 5.625,2.625 1.7573,0.97747 3.4082,2.05441 4.9374,3.21875 1.5293,1.16434 2.9419,2.41595 4.25,3.75 1.3082,1.33405 2.5,2.76339 3.5938,4.25 1.0938,1.48661 2.0825,3.03425 2.9688,4.65625 0.8862,1.622 1.6582,3.32227 2.3437,5.0625 0.6855,1.74023 1.2896,3.53369 1.7813,5.375 0.4916,1.84131 0.8828,3.73103 1.1874,5.65625 0.1621,1.02386 0.2332,2.08112 0.3438,3.125 2.259,-35.22727 -12.987,-66.71984 -56.875,-63.0625 -96,8 -168,40 -168,40 0,0 -72,-32 -168,-40 -3,-0.25 -5.856,-0.34937 -8.5938,-0.28125 z"
       id="path4083"
       inkscape:connector-curvature="0" />
  </g>
</svg>
