<?xml version="1.0" encoding="UTF-8" standalone="no"?>
<!-- Created with Inkscape (http://www.inkscape.org/) -->

<svg
   xmlns:dc="http://purl.org/dc/elements/1.1/"
   xmlns:cc="http://creativecommons.org/ns#"
   xmlns:rdf="http://www.w3.org/1999/02/22-rdf-syntax-ns#"
   xmlns:svg="http://www.w3.org/2000/svg"
   xmlns="http://www.w3.org/2000/svg"
   xmlns:sodipodi="http://sodipodi.sourceforge.net/DTD/sodipodi-0.dtd"
   xmlns:inkscape="http://www.inkscape.org/namespaces/inkscape"
   width="1920"
   height="1080"
   viewBox="0 0 1920 1080"
   id="svg2"
   version="1.1"
   inkscape:version="0.91 r13725"
   sodipodi:docname="gudetama-futon.svg"
   inkscape:export-filename="/media/Disk/Dropbox/TNDesigns/graphic/illustrations/gudetama/gudetama-futon-yellow.svg"
   inkscape:export-xdpi="90"
   inkscape:export-ydpi="90">
  <defs
     id="defs4" />
  <sodipodi:namedview
     id="base"
     pagecolor="#ffffff"
     bordercolor="#666666"
     borderopacity="1.0"
     inkscape:pageopacity="0.0"
     inkscape:pageshadow="2"
     inkscape:zoom="0.57026852"
     inkscape:cx="834.94806"
     inkscape:cy="605.30955"
     inkscape:document-units="px"
     inkscape:current-layer="layer1"
     showgrid="false"
     units="px"
     borderlayer="true"
     inkscape:showpageshadow="false"
     inkscape:window-width="2560"
     inkscape:window-height="1044"
     inkscape:window-x="2160"
     inkscape:window-y="0"
     inkscape:window-maximized="1" />
  <metadata
     id="metadata7">
    <rdf:RDF>
      <cc:Work
         rdf:about="">
        <dc:format>image/svg+xml</dc:format>
        <dc:type
           rdf:resource="http://purl.org/dc/dcmitype/StillImage" />
        <dc:title></dc:title>
      </cc:Work>
    </rdf:RDF>
  </metadata>
  <g
     inkscape:label="Layer 1"
     inkscape:groupmode="layer"
     id="layer1"
     transform="translate(0,27.63786)">
    <rect
       style="fill:#ffeeaa;fill-opacity:1;stroke:none;stroke-width:5;stroke-linecap:round;stroke-linejoin:round;stroke-miterlimit:4;stroke-dasharray:none;stroke-opacity:1"
       id="rect6797"
       width="2048"
       height="2048"
       x="-64"
       y="-511.63785" />
    <g
       id="g7680"
       transform="translate(1.0816536e-6,6.939274e-7)">
      <path
         sodipodi:nodetypes="cscccscscc"
         inkscape:connector-curvature="0"
         id="path4227"
         d="m 809.24722,521.65553 c -19.99085,1.26691 -43.69253,5.56629 -49.64593,18.46533 -10.76154,23.31667 -37.06753,36.46966 -37.06753,36.46966 0,0 -15.54444,7.17436 -15.54444,23.31667 1.95054,19.18661 27.12044,27.4785 42.11877,28.99796 16.06852,1.63553 74.87687,9.47462 143.21885,1.49307 40.95364,-4.78291 127.94276,6.57649 127.94276,6.57649 0,0 50.5194,10.16368 72.6404,-6.57649 22.1209,-16.74017 21.822,-23.91453 55.6013,-37.66539 143.0002,-50.14776 -281.83711,-73.90226 -339.26418,-71.0773 z"
         style="fill:#ffffff;fill-rule:evenodd;stroke:#000000;stroke-width:5.97863293;stroke-linecap:round;stroke-linejoin:round;stroke-miterlimit:4;stroke-dasharray:none;stroke-opacity:1" />
      <path
         id="path4221"
         d="m 862.34037,404.41289 c -28.14731,-0.004 -60.79987,5.43264 -78.82455,27.19578 -21.78108,25.29274 -32.10262,84.72342 7.94271,115.55576 44.40982,34.09754 151.87053,24.55167 189.35218,15.67523 4.50205,-0.83862 9.0345,-1.34423 13.49396,-1.60909 -4.38438,-2.49447 -8.67958,-5.26516 -12.86106,-8.35141 -10.53578,-8.52654 -20.61408,-58.66959 -46.29238,-68.90841 -33.3975,-13.31672 -38.0479,3.17072 -42.69818,-11.62564 -2.21827,-9.748 6.50221,-42.33436 11.61396,-64.38007 -9.49869,-1.5728 -24.7406,-3.54989 -41.72664,-3.55215 z"
         style="fill:#ffb03b;fill-opacity:1;fill-rule:evenodd;stroke:#000000;stroke-width:5.97863293;stroke-linecap:round;stroke-linejoin:round;stroke-miterlimit:4;stroke-dasharray:none;stroke-opacity:1"
         inkscape:connector-curvature="0" />
      <path
         style="fill:#de8672;fill-opacity:1;fill-rule:evenodd;stroke:#000000;stroke-width:5.97863293;stroke-linecap:round;stroke-linejoin:round;stroke-miterlimit:4;stroke-dasharray:none;stroke-opacity:1"
         d="m 924.14308,386.16268 c 8.64957,2.46793 46.16414,15.86282 93.86832,72.44219 39.3824,46.70931 56.7547,40.03676 67.8542,40.26245 44.7474,-2.32872 77.5413,2.26977 111.1818,5.18351 0,0 20.2921,0.21137 12.2598,19.44664 -7.3666,17.64129 -8.0323,22.82869 -4.2275,31.7065 28.3645,44.07772 -27.2007,30.06669 -47.7711,29.59273 -46.8938,-4.5907 -120.9979,8.57839 -175.86535,-31.91787 -10.53578,-8.52654 -20.61317,-58.66996 -46.29147,-68.90878 -33.3975,-13.31672 -38.04779,3.17065 -42.69807,-11.62571 -2.34084,-10.28662 7.55036,-46.15244 12.47121,-68.06326 4.30701,-20.45959 7.30408,-21.49852 19.21816,-18.1184 z"
         id="path4957"
         inkscape:connector-curvature="0"
         sodipodi:nodetypes="csccscccsccc" />
      <ellipse
         transform="matrix(0.99610443,-0.08818141,0.08818141,0.99610443,0,0)"
         ry="9.9337292"
         rx="4.9668646"
         cy="538.70496"
         cx="783.90558"
         id="path4229"
         style="fill:#000000;fill-opacity:1;stroke:#000000;stroke-width:1.65562153;stroke-linecap:round;stroke-linejoin:round;stroke-miterlimit:4;stroke-dasharray:none;stroke-opacity:1" />
      <ellipse
         style="fill:#000000;fill-opacity:1;stroke:#000000;stroke-width:1.65562141;stroke-linecap:round;stroke-linejoin:round;stroke-miterlimit:4;stroke-dasharray:none;stroke-opacity:1"
         id="ellipse4231"
         cx="920.78473"
         cy="-130.93948"
         rx="4.9668646"
         ry="9.9337292"
         transform="matrix(0.94831571,0.3173284,0.3173284,-0.94831571,0,0)" />
      <path
         style="fill:#ffffff;fill-rule:evenodd;stroke:#000000;stroke-width:4.93352604;stroke-linecap:round;stroke-linejoin:round;stroke-miterlimit:4;stroke-dasharray:none;stroke-opacity:1"
         d="m 847.32038,448.51956 c -2.3242,-7.8135 -3.97331,-15.20798 3.22616,-25.06113 4.44369,-6.27644 10.2274,-4.40916 9.06442,4.12904 -0.55649,17.14978 -3.55358,50.25827 -12.29058,20.93209 z"
         id="path4227-9"
         inkscape:connector-curvature="0"
         sodipodi:nodetypes="cccc" />
      <path
         sodipodi:nodetypes="csccscccsccc"
         inkscape:connector-curvature="0"
         id="path4217"
         d="m 924.14308,386.16268 c 8.64957,2.46793 46.16414,15.86282 93.86832,72.44219 39.3824,46.70931 56.7547,40.03676 67.8542,40.26245 44.7474,-2.32872 77.5413,2.26977 111.1818,5.18351 0,0 20.2921,0.21137 12.2598,19.44664 -7.3666,17.64129 -8.0323,23.25143 -4.2275,32.12925 28.3645,44.07772 -27.2007,16.53858 -47.7711,16.06462 -46.8938,-4.59069 -113.5998,8.5784 -168.46718,-31.91786 -10.53577,-8.52655 -20.61316,-58.66997 -46.29146,-68.90878 -33.39751,-13.31672 -38.0478,3.17065 -42.69807,-11.62572 -2.34084,-10.28662 0.15218,-33.04708 5.07303,-54.9579 4.30701,-20.45959 7.30408,-21.49852 19.21816,-18.1184 z"
         style="fill:#de8672;fill-opacity:1;fill-rule:evenodd;stroke:#000000;stroke-width:5.97863293;stroke-linecap:round;stroke-linejoin:round;stroke-miterlimit:4;stroke-dasharray:none;stroke-opacity:1" />
      <path
         sodipodi:nodetypes="csccccc"
         inkscape:connector-curvature="0"
         id="path6004"
         d="m 759.37757,583.56681 c -4.09378,6.40663 -16.11878,16.29462 35.79658,19.62863 65.1671,4.18504 53.50877,3.58718 53.50877,3.58718 0,0 37.66539,1.79359 0.29893,7.77222 -26.51561,3.65426 -81.35816,11.26613 -113.31846,-4.73608 -9.71664,-4.84817 -15.16294,-14.71374 -4.16168,-23.66243 12.89712,-9.03516 41.96589,-21.62677 27.87586,-2.58952 z"
         style="fill:#e6e6e6;fill-opacity:1;fill-rule:evenodd;stroke:none;stroke-width:1px;stroke-linecap:butt;stroke-linejoin:miter;stroke-opacity:1" />
      <path
         sodipodi:nodetypes="csscc"
         inkscape:connector-curvature="0"
         id="path6006"
         d="m 1076.7678,604.09223 c 31.9857,-10.76154 30.491,-0.29893 9.8647,9.26688 -20.6263,9.56582 -43.9988,16.64937 -83.4019,7.4733 -43.64404,-10.16368 -28.09959,-15.24552 -1.1957,-11.95727 38.1989,4.29063 56.1839,1.25085 74.7329,-4.78291 z"
         style="fill:#e6e6e6;fill-opacity:1;fill-rule:evenodd;stroke:none;stroke-width:1px;stroke-linecap:butt;stroke-linejoin:miter;stroke-opacity:1" />
      <path
         style="fill:#efc4be;fill-opacity:1;fill-rule:evenodd;stroke:none;stroke-width:5;stroke-linecap:round;stroke-linejoin:round;stroke-miterlimit:4;stroke-dasharray:none;stroke-opacity:1"
         d="m 925.95165,414.90174 c 8.21708,2.34453 36.31805,39.89068 82.00055,93.33248 28.5354,33.38226 40.8292,25.58238 74.6252,27.48779 42.5099,-2.21229 73.6642,2.15628 105.6226,4.92434 12.3911,0.38744 7.2184,6.94194 9.4243,11.33171 23.5643,40.18282 -26.2634,11.27274 -45.8053,10.82247 -44.5491,-4.36115 -106.6515,8.99498 -158.77552,-29.47645 -10.00898,-8.10023 -20.85077,-57.21611 -45.24516,-66.94299 -31.72762,-12.65088 -37.41365,-1.00404 -41.83142,-15.06059 -2.2238,-9.77228 0.43471,-11.49635 1.72748,-19.20628 4.09166,-19.4366 6.93886,-20.42359 18.25727,-17.21248 z"
         id="path6703"
         inkscape:connector-curvature="0"
         sodipodi:nodetypes="cscccccsccc" />
      <path
         sodipodi:nodetypes="csccc"
         inkscape:connector-curvature="0"
         id="path4223"
         d="m 884.55472,490.49821 c 0,0 15.24551,-7.77223 20.92521,-20.02842 5.6797,-12.2562 7.77223,-13.75086 11.35941,-13.45193 5.98883,0.80803 6.34151,8.58193 5.00726,13.26359 -1.96691,7.17008 -4.90626,21.83597 -15.22535,35.26903"
         style="fill:#ffb03b;fill-opacity:1;fill-rule:evenodd;stroke:#000000;stroke-width:5.97863293;stroke-linecap:round;stroke-linejoin:round;stroke-miterlimit:4;stroke-dasharray:none;stroke-opacity:1" />
      <path
         sodipodi:nodetypes="cccccssssscsssssscssssscsssccc"
         inkscape:connector-curvature="0"
         id="path6777"
         d="m 915.76972,401.92102 c -0.10116,0.44786 -0.20209,0.71348 -0.3036,1.19573 -0.69412,12.91356 -1.25899,-2.24517 24.5591,16.33147 42.62923,43.50616 69.31538,85.44904 79.32428,93.54926 19.8395,16.05157 27.8344,18.83642 79.8568,17.8168 15.8655,0.36557 65.5274,5.96365 92.4797,5.34806 4.5131,-0.10307 3.653,-8.31213 2.8538,-7.76054 -0.7991,0.55159 -1.7255,0.85935 -2.8538,0.88512 -6.7381,0.1539 -14.8962,-0.0815 -23.5899,-0.52547 -8.6938,-0.44386 -17.9244,-1.09557 -26.8081,-1.77957 -17.7675,-1.36801 -34.1489,-2.86025 -42.0817,-3.04303 -13.0056,0.2549 -23.2578,0.27286 -31.633,-0.0958 -4.1876,-0.18431 -7.9063,-0.46614 -11.2637,-0.86176 -3.3574,-0.39563 -6.3556,-0.90449 -9.101,-1.54838 -2.7455,-0.64388 -5.2384,-1.42265 -7.5901,-2.35174 -2.3517,-0.92911 -4.5615,-2.00897 -6.7376,-3.26024 -2.1762,-1.25125 -4.3179,-2.67274 -6.5368,-4.28313 -2.219,-1.61036 -4.5146,-3.40935 -6.9946,-5.41579 -1.2511,-1.01253 -2.7622,-2.55402 -4.533,-4.56105 -1.7708,-2.00703 -3.8007,-4.48107 -6.0884,-7.35652 -4.5753,-5.75089 -10.18234,-13.11103 -16.80787,-21.57913 -6.62553,-8.46809 -14.27146,-18.04438 -22.92433,-28.22101 -4.32642,-5.08832 -8.9032,-10.32554 -13.73217,-15.65187 -4.82897,-5.32634 -9.90985,-10.74141 -15.23851,-16.17968 -3.22726,-2.32208 -6.04212,-4.11599 -8.49619,-5.50455 -2.45409,-1.38855 -4.5455,-2.37225 -6.32895,-3.06871 -1.78345,-0.69648 -3.25926,-1.10638 -4.47463,-1.3522 -1.21538,-0.24583 -2.17175,-0.32537 -2.92159,-0.362 -0.74984,-0.0366 -1.2923,-0.0293 -1.67916,-0.0981 -0.18441,-0.0329 -0.23585,-0.18558 -0.35498,-0.26622 z"
         style="fill:#f5dce9;fill-opacity:1;fill-rule:evenodd;stroke:none;stroke-width:5;stroke-linecap:round;stroke-linejoin:round;stroke-miterlimit:4;stroke-dasharray:none;stroke-opacity:1" />
      <path
         sodipodi:nodetypes="cccssscssssscsssssscssssscccsccsscc"
         inkscape:connector-curvature="0"
         id="path6772"
         d="m 915.76972,401.92102 c 0.1191,0.0806 0.17057,0.23341 0.35498,0.26623 0.38686,0.0689 0.92932,0.0615 1.67916,0.0981 0.74984,0.0366 1.70621,0.11611 2.92159,0.362 1.21537,0.24581 2.69118,0.65572 4.47463,1.3522 1.78345,0.69646 3.87486,1.68016 6.32895,3.06871 2.45407,1.38856 5.26893,3.18247 8.49619,5.50455 5.32866,5.43827 10.40954,10.85333 15.23851,16.17967 4.82897,5.32633 9.40575,10.56356 13.73217,15.65187 8.65287,10.17664 16.2988,19.75293 22.92433,28.22102 6.62553,8.4681 12.23257,15.82824 16.80787,21.57913 2.2877,2.87545 4.3176,5.34949 6.0884,7.35652 1.7708,2.00703 3.2819,3.54852 4.533,4.56105 2.48,2.00644 4.7756,3.80542 6.9946,5.41579 2.2189,1.61038 4.3606,3.03188 6.5368,4.28313 2.1761,1.25127 4.3859,2.33113 6.7376,3.26023 2.3517,0.9291 4.8446,1.70787 7.5901,2.35175 2.7454,0.64388 5.7436,1.15275 9.101,1.54838 3.3574,0.39562 7.0761,0.67745 11.2637,0.86176 8.3752,0.36862 18.6274,0.35066 31.633,0.0958 7.9328,0.18278 24.3142,1.67502 42.0817,3.04303 8.8837,0.684 18.1143,1.33571 26.8081,1.77957 8.6937,0.44387 16.8518,0.67937 23.5899,0.52546 1.1283,-0.0258 2.0547,-0.33352 2.8538,-0.88511 0.7992,-0.55159 1.4708,-1.34679 2.0902,-2.34708 1.2389,-2.00058 2.2686,-4.82251 3.6853,-8.15523 0.205,-0.59432 0.3094,-1.07758 0.4694,-1.62077 -1.9726,-2.8221 -8.0373,-3.22731 -21.2545,-1.63946 -40.3679,3.34119 -50.5715,5.73492 -64.4595,5.3691 -12.7999,-0.33717 -18.1555,-7.02331 -41.4604,-5.81049 -86.01503,-4.04445 -42.57,-39.6336 -135.12334,-112.46992 -5.14179,-4.0871 -8.93244,-6.93357 -14.70785,-4.75925 -3.53525,1.33094 -4.94266,-4.82398 -6.42235,-0.73418 -0.53784,1.48655 -1.06119,3.35958 -1.58704,5.6865 z"
         style="fill:#efc3bd;fill-opacity:1;fill-rule:evenodd;stroke:none;stroke-width:5;stroke-linecap:round;stroke-linejoin:round;stroke-miterlimit:4;stroke-dasharray:none;stroke-opacity:1" />
      <path
         sodipodi:nodetypes="cssscc"
         inkscape:connector-curvature="0"
         id="path6908"
         d="m 800.22855,428.90751 c -6.07299,4.63463 -20.7786,21.78941 -23.08733,39.74625 -2.78989,21.69919 8.0597,10.8496 9.91963,5.2698 1.85993,-5.57979 -1.23996,-14.41446 7.43972,-23.24913 4.49396,-4.5742 9.7653,-11.52238 12.16953,-14.77983 5.15432,-8.31505 0.51736,-12.28573 -6.44155,-6.98709 z"
         style="fill:#ffffff;fill-rule:evenodd;stroke:none;stroke-width:1px;stroke-linecap:butt;stroke-linejoin:miter;stroke-opacity:1" />
      <path
         sodipodi:nodetypes="cccccc"
         inkscape:connector-curvature="0"
         id="path6910"
         d="m 798.03154,520.77664 c 3.66514,2.77312 12.50479,8.90242 23.3749,12.54323 17.24846,6.60872 25.6498,7.27752 41.75659,9.42114 49.44551,6.77829 2.82021,20.52682 -17.66935,13.17452 -13.79449,-4.95982 -46.49827,-10.69461 -57.81285,-28.67394 -10.39509,-14.96576 4.27481,-11.07293 10.35071,-6.46495 z"
         style="fill:#f7931e;fill-opacity:1;fill-rule:evenodd;stroke:none;stroke-width:1px;stroke-linecap:butt;stroke-linejoin:miter;stroke-opacity:1" />
    </g>
  </g>
</svg>
