<?xml version="1.0" encoding="UTF-8" standalone="no"?>
<!-- Created with Inkscape (http://www.inkscape.org/) -->

<svg
   xmlns:dc="http://purl.org/dc/elements/1.1/"
   xmlns:cc="http://creativecommons.org/ns#"
   xmlns:rdf="http://www.w3.org/1999/02/22-rdf-syntax-ns#"
   xmlns:svg="http://www.w3.org/2000/svg"
   xmlns="http://www.w3.org/2000/svg"
   xmlns:sodipodi="http://sodipodi.sourceforge.net/DTD/sodipodi-0.dtd"
   xmlns:inkscape="http://www.inkscape.org/namespaces/inkscape"
   width="1920"
   height="1080"
   viewBox="0 0 1920 1080"
   id="svg2"
   version="1.1"
   inkscape:version="0.91 r13725"
   sodipodi:docname="gudetama-twins.svg"
   inkscape:export-filename="/media/Disk/Dropbox/TNDesigns/graphic/illustrations/gudetama/gudetama-twins-grey.png"
   inkscape:export-xdpi="90"
   inkscape:export-ydpi="90">
  <defs
     id="defs4" />
  <sodipodi:namedview
     id="base"
     pagecolor="#ffffff"
     bordercolor="#666666"
     borderopacity="1.0"
     inkscape:pageopacity="0.0"
     inkscape:pageshadow="2"
     inkscape:zoom="0.40324074"
     inkscape:cx="960"
     inkscape:cy="540"
     inkscape:document-units="px"
     inkscape:current-layer="layer1"
     showgrid="false"
     borderlayer="true"
     units="px"
     inkscape:showpageshadow="false"
     inkscape:window-width="2560"
     inkscape:window-height="1044"
     inkscape:window-x="2160"
     inkscape:window-y="0"
     inkscape:window-maximized="1"
     inkscape:object-paths="true"
     inkscape:snap-intersection-paths="true"
     inkscape:object-nodes="true"
     inkscape:snap-smooth-nodes="true"
     inkscape:snap-midpoints="true" />
  <metadata
     id="metadata7">
    <rdf:RDF>
      <cc:Work
         rdf:about="">
        <dc:format>image/svg+xml</dc:format>
        <dc:type
           rdf:resource="http://purl.org/dc/dcmitype/StillImage" />
        <dc:title></dc:title>
      </cc:Work>
    </rdf:RDF>
  </metadata>
  <g
     inkscape:label="Layer 1"
     inkscape:groupmode="layer"
     id="layer1"
     transform="translate(0,27.63784)">
    <rect
       style="fill:#ececec;fill-opacity:1;stroke:none;stroke-width:5;stroke-linecap:round;stroke-linejoin:round;stroke-miterlimit:4;stroke-dasharray:none;stroke-opacity:1"
       id="rect5881"
       width="2048"
       height="2048"
       x="-64"
       y="-511.63785" />
    <g
       id="g5802"
       transform="translate(703.5,-284.00001)">
      <ellipse
         ry="57"
         rx="169.5"
         cy="947.65686"
         cx="170"
         id="path5737"
         style="fill:#b3b3b3;fill-opacity:1;stroke:none;stroke-width:5;stroke-linecap:round;stroke-linejoin:round;stroke-miterlimit:4;stroke-dasharray:none;stroke-opacity:1" />
      <ellipse
         style="fill:#b3b3b3;fill-opacity:1;stroke:none;stroke-width:5;stroke-linecap:round;stroke-linejoin:round;stroke-miterlimit:4;stroke-dasharray:none;stroke-opacity:1"
         id="ellipse5739"
         cx="380"
         cy="893.80463"
         rx="132.5"
         ry="44.557522" />
      <path
         style="fill:#ffb03b;fill-opacity:1;fill-rule:evenodd;stroke:#000000;stroke-width:5;stroke-linecap:round;stroke-linejoin:round;stroke-miterlimit:4;stroke-dasharray:none;stroke-opacity:1"
         d="m 305.88203,590.63182 c 97.16116,4.84075 104.15264,91.4839 107.05732,151.17631 2.5334,52.19822 20.71915,117.73903 60.17788,131.60857 4.35185,1.24958 22,-5.25 19,9 -2.64826,12.57922 -7.5,18 -17,18 -27.46544,-3.68098 -55.77929,-7.75513 -78.61882,-2.23352 4.98604,4.26772 5.07355,21.59853 -4.06445,24.64453 -9.54594,3.18198 -64.69998,7.42458 -112.42969,-17.67773 C 149.30604,829.8256 168.36716,586.008 305.88203,590.63182 Z"
         id="path5045"
         inkscape:connector-curvature="0"
         sodipodi:nodetypes="cccsccscc" />
      <path
         style="fill:#ffb03b;fill-opacity:1;fill-rule:evenodd;stroke:#000000;stroke-width:5;stroke-linecap:round;stroke-linejoin:round;stroke-miterlimit:4;stroke-dasharray:none;stroke-opacity:1"
         d="m 389.02409,788.98902 c 0,0 4.36396,14.80762 -1.56802,33.20711 -2.7413,8.50281 -4,18.25 2.5,20.75 14.28638,5.36707 20.44182,-11.35622 23.75,-27"
         id="path5047"
         inkscape:connector-curvature="0"
         sodipodi:nodetypes="cscc" />
      <path
         sodipodi:nodetypes="csssc"
         inkscape:connector-curvature="0"
         id="path5061"
         d="m 326.83044,874.16365 c 0,0 19.61456,22.34366 44.39057,25.68272 13.24873,1.78553 18.92767,-5.34619 24.58452,-2.16421 5.65685,3.18198 6.17462,21.9632 -3.37132,25.14518 -9.54594,3.18198 -64.70026,7.42465 -112.42998,-17.67767"
         style="fill:#ffb03b;fill-opacity:1;fill-rule:evenodd;stroke:#000000;stroke-width:5;stroke-linecap:round;stroke-linejoin:round;stroke-miterlimit:4;stroke-dasharray:none;stroke-opacity:1" />
      <path
         style="fill:#ffb03b;fill-opacity:1;fill-rule:evenodd;stroke:#000000;stroke-width:5;stroke-linecap:round;stroke-linejoin:round;stroke-miterlimit:4;stroke-dasharray:none;stroke-opacity:1"
         d="m 325.39938,804.46542 c 10.18298,21.82182 25.33921,21.57174 39.35631,33.3698 2.06298,1.85668 6.125,7 1.75,13.875 -3.80202,5.75706 -11.05134,4.13782 -16.13037,3.02436 -5.48439,-1.20864 -23.07341,-5.92523 -42.11963,-19.89936"
         id="path5049"
         inkscape:connector-curvature="0"
         sodipodi:nodetypes="ccccc" />
      <path
         sodipodi:nodetypes="sssccsssscsccss"
         inkscape:connector-curvature="0"
         id="path4217"
         d="m 197.45703,678.31306 c -60.35025,0.70825 -88.70626,47.81133 -95.39062,57.83789 -7.778181,11.66726 -20.505526,49.4978 -5.30274,88.38867 9.74514,24.92944 5.75475,29.8927 3.39063,39.33985 -6.703425,18.17499 -8.802536,36.71049 -24.6543,47.27734 -21,13 -33,16.5 -37.5,16 -4.5,-0.5 -22,-5.25 -19,9 2.648257,12.57922 7.5,18 17,18 9.5,0 16,-4.75 32,-2 13.426046,2.3076 54.84374,6.7564 67.83203,10.01953 -4.98604,4.26772 -5.07355,21.59853 4.06445,24.64453 9.54594,3.18198 64.69998,7.42459 112.42969,-17.67773 41.05522,-22.40974 60.39464,-74.69042 67.5293,-115.25781 6.71751,-39.24443 -7.42476,-152.3827 -90.15625,-171.82813 -11.63412,-2.73451 -22.36669,-3.86004 -32.24219,-3.74414 z"
         style="fill:#ffb03b;fill-opacity:1;fill-rule:evenodd;stroke:#000000;stroke-width:5;stroke-linecap:round;stroke-linejoin:round;stroke-miterlimit:4;stroke-dasharray:none;stroke-opacity:1" />
      <path
         sodipodi:nodetypes="cscc"
         inkscape:connector-curvature="0"
         id="path4219"
         d="m 127.75,860.40681 c 0,0 2,24 4.75,32.5 2.75,8.5 4,18.25 -2.5,20.75 -14.28638,5.36707 -20.44182,-11.35622 -23.75,-27"
         style="fill:none;fill-rule:evenodd;stroke:#000000;stroke-width:5;stroke-linecap:round;stroke-linejoin:round;stroke-miterlimit:4;stroke-dasharray:none;stroke-opacity:1" />
      <path
         sodipodi:nodetypes="cssccc"
         inkscape:connector-curvature="0"
         id="path4221"
         d="m 206.75,868.28181 c 0,0 -15.375,22 -23.625,25.875 -8.25,3.875 -18,8.25 -20.5,10.5 -2.06298,1.85668 -6.125,7 -1.75,13.875 3.80202,5.75706 11.05134,4.13782 16.13037,3.02436 5.48439,-1.20864 23.07341,-5.92523 42.11963,-19.89936"
         style="fill:none;fill-rule:evenodd;stroke:#000000;stroke-width:5;stroke-linecap:round;stroke-linejoin:round;stroke-miterlimit:4;stroke-dasharray:none;stroke-opacity:1" />
      <ellipse
         transform="matrix(0.96096379,-0.27667417,0.27667417,0.96096379,0,0)"
         ry="4.9497476"
         rx="10.429825"
         cy="765.87183"
         cx="-88.170479"
         id="path4223"
         style="fill:#000000;fill-opacity:1;stroke:#000000;stroke-width:5;stroke-linecap:round;stroke-linejoin:round;stroke-miterlimit:4;stroke-dasharray:none;stroke-opacity:1" />
      <ellipse
         style="fill:#000000;fill-opacity:1;stroke:#000000;stroke-width:5;stroke-linecap:round;stroke-linejoin:round;stroke-miterlimit:4;stroke-dasharray:none;stroke-opacity:1"
         id="ellipse4225"
         cx="-410.0885"
         cy="672.08362"
         rx="10.429825"
         ry="4.9497476"
         transform="matrix(-0.96096379,-0.27667417,-0.27667417,0.96096379,0,0)" />
      <path
         sodipodi:nodetypes="ccccc"
         inkscape:connector-curvature="0"
         id="path4227"
         d="m 145.32631,783.20926 c 5.38645,-3.21664 20.89277,-10.79778 44.48668,0.71364 7.78637,3.55185 5.84412,8.54906 -4.49098,7.87664 -12.50289,0.0829 -25.47,-0.11871 -38.18779,-0.3888 -9.40632,-0.59619 -7.29637,-4.80621 -1.80791,-8.20148 z"
         style="fill:#ffffff;fill-rule:evenodd;stroke:#000000;stroke-width:5;stroke-linecap:round;stroke-linejoin:round;stroke-miterlimit:4;stroke-dasharray:none;stroke-opacity:1" />
      <path
         sodipodi:nodetypes="cccc"
         inkscape:connector-curvature="0"
         id="path5032"
         d="m 128.5,724.65681 c 0,0 -0.5,-23.5 30.75,-26.5 27.38668,-1.98247 3.40127,20.63425 -5.46607,26.7989 -5.65485,3.92434 -25.71356,16.67138 -25.28393,-0.2989 z"
         style="fill:#ffffff;fill-rule:evenodd;stroke:none;stroke-width:5;stroke-linecap:butt;stroke-linejoin:miter;stroke-miterlimit:4;stroke-dasharray:none;stroke-opacity:1" />
      <path
         sodipodi:nodetypes="cccccc"
         inkscape:connector-curvature="0"
         id="path5034"
         d="m 299.25,887.90681 c 0,0 -0.875,35.5 -37.125,64.25 -10.88883,7.95501 -26.43774,13.93119 -18.125,4 16.10258,-18.33222 17.45028,-18.07466 28.43045,-34.54624 8.56137,-12.87799 12.55176,-30.10036 20.18355,-42.28926 3.79313,-6.03347 8.22193,-4.85637 6.636,8.5855 z"
         style="fill:#f7931e;fill-opacity:1;fill-rule:evenodd;stroke:none;stroke-width:5;stroke-linecap:butt;stroke-linejoin:miter;stroke-miterlimit:4;stroke-dasharray:none;stroke-opacity:1" />
      <path
         style="fill:#ffb03b;fill-opacity:1;fill-rule:evenodd;stroke:#000000;stroke-width:5;stroke-linecap:round;stroke-linejoin:round;stroke-miterlimit:4;stroke-dasharray:none;stroke-opacity:1"
         d="m 205.5,938.15681 c 0,0 -19.61456,22.34366 -44.39057,25.68272 -13.24873,1.78553 -18.92767,-5.34619 -24.58452,-2.16421 -5.65685,3.18198 -6.17462,21.9632 3.37132,25.14518 9.54594,3.18198 64.70026,7.42465 112.42998,-17.67767"
         id="path5036"
         inkscape:connector-curvature="0"
         sodipodi:nodetypes="csssc" />
      <ellipse
         style="fill:#000000;fill-opacity:1;stroke:#000000;stroke-width:5;stroke-linecap:round;stroke-linejoin:round;stroke-miterlimit:4;stroke-dasharray:none;stroke-opacity:1"
         id="ellipse5051"
         cx="-460.71527"
         cy="573.46619"
         rx="10.429825"
         ry="4.9497476"
         transform="matrix(-0.98523358,-0.17121561,-0.17121561,0.98523358,0,0)" />
      <ellipse
         transform="matrix(0.79292209,-0.60932303,0.60932303,0.79292209,0,0)"
         ry="4.9497476"
         rx="10.429825"
         cy="699.60852"
         cx="-184.05048"
         id="ellipse5053"
         style="fill:#000000;fill-opacity:1;stroke:#000000;stroke-width:5;stroke-linecap:round;stroke-linejoin:round;stroke-miterlimit:4;stroke-dasharray:none;stroke-opacity:1" />
      <path
         sodipodi:nodetypes="csccsc"
         inkscape:connector-curvature="0"
         id="path5074"
         d="m 218.03153,654.48031 c 0,0 16.51212,-45.01523 55.15433,-47.0226 21.54295,-1.11911 16.20065,13.92213 0.1626,21.4481 -20.90775,10.06206 -27.50453,17.44381 -38.69992,29.81714 -7.07107,7.77818 -11.31371,16.08668 -15.20279,16.08668 -3.88909,0 -8.83884,-4.06586 -1.41422,-20.32932 z"
         style="fill:#ffffff;fill-rule:evenodd;stroke:none;stroke-width:5;stroke-linecap:butt;stroke-linejoin:miter;stroke-miterlimit:4;stroke-dasharray:none;stroke-opacity:1" />
      <path
         style="fill:#ffffff;fill-rule:evenodd;stroke:#000000;stroke-width:5;stroke-linecap:round;stroke-linejoin:round;stroke-miterlimit:4;stroke-dasharray:none;stroke-opacity:1"
         d="m 328.48177,669.23043 c -18.29315,7.25447 -27.63091,32.09104 -9.245,20.73507 12.01691,-7.16787 19.43612,-8.35983 29.67381,-9.38263 25.64095,-1.65842 -2.55463,-16.33246 -20.42881,-11.35244 z"
         id="path5055-8"
         inkscape:connector-curvature="0"
         sodipodi:nodetypes="cccc" />
    </g>
    <rect
       style="fill:#ececec;fill-opacity:1;stroke:none;stroke-width:5;stroke-linecap:round;stroke-linejoin:round;stroke-miterlimit:4;stroke-dasharray:none;stroke-opacity:1"
       id="rect5883"
       width="64"
       height="64"
       x="-128"
       y="-511.63785" />
    <rect
       y="-447.63785"
       x="-128"
       height="64"
       width="64"
       id="rect5885"
       style="fill:#c6e9af;fill-opacity:1;stroke:none;stroke-width:5;stroke-linecap:round;stroke-linejoin:round;stroke-miterlimit:4;stroke-dasharray:none;stroke-opacity:1" />
    <rect
       style="fill:#afc6e9;fill-opacity:1;stroke:none;stroke-width:5;stroke-linecap:round;stroke-linejoin:round;stroke-miterlimit:4;stroke-dasharray:none;stroke-opacity:1"
       id="rect5887"
       width="64"
       height="64"
       x="-128"
       y="-383.63785" />
  </g>
</svg>
