<?xml version="1.0" encoding="UTF-8" standalone="no"?>
<!-- Created with Inkscape (http://www.inkscape.org/) -->

<svg
   xmlns:dc="http://purl.org/dc/elements/1.1/"
   xmlns:cc="http://creativecommons.org/ns#"
   xmlns:rdf="http://www.w3.org/1999/02/22-rdf-syntax-ns#"
   xmlns:svg="http://www.w3.org/2000/svg"
   xmlns="http://www.w3.org/2000/svg"
   xmlns:sodipodi="http://sodipodi.sourceforge.net/DTD/sodipodi-0.dtd"
   xmlns:inkscape="http://www.inkscape.org/namespaces/inkscape"
   width="1920"
   height="1080"
   viewBox="0 0 1920 1080"
   id="svg3459"
   version="1.1"
   inkscape:version="0.91 r13725"
   sodipodi:docname="gudetama-bye.svg"
   inkscape:export-filename="/media/Disk/Dropbox/TNDesigns/graphic/illustrations/gudetama/gudetama-bye-blue.png"
   inkscape:export-xdpi="90"
   inkscape:export-ydpi="90">
  <defs
     id="defs3461" />
  <sodipodi:namedview
     id="base"
     pagecolor="#ffffff"
     bordercolor="#666666"
     borderopacity="1.0"
     inkscape:pageopacity="0.0"
     inkscape:pageshadow="2"
     inkscape:zoom="0.80648148"
     inkscape:cx="960"
     inkscape:cy="540"
     inkscape:document-units="px"
     inkscape:current-layer="layer1"
     showgrid="false"
     borderlayer="true"
     inkscape:showpageshadow="false"
     units="px"
     inkscape:snap-grids="false"
     inkscape:window-width="2560"
     inkscape:window-height="1044"
     inkscape:window-x="2160"
     inkscape:window-y="0"
     inkscape:window-maximized="0"
     inkscape:object-paths="true"
     inkscape:snap-intersection-paths="true"
     inkscape:object-nodes="true"
     inkscape:snap-smooth-nodes="true"
     inkscape:snap-midpoints="true">
    <inkscape:grid
       type="xygrid"
       id="grid3467"
       empspacing="8" />
  </sodipodi:namedview>
  <metadata
     id="metadata3464">
    <rdf:RDF>
      <cc:Work
         rdf:about="">
        <dc:format>image/svg+xml</dc:format>
        <dc:type
           rdf:resource="http://purl.org/dc/dcmitype/StillImage" />
        <dc:title></dc:title>
      </cc:Work>
    </rdf:RDF>
  </metadata>
  <g
     inkscape:label="Layer 1"
     inkscape:groupmode="layer"
     id="layer1"
     transform="translate(0,27.63781)">
    <rect
       style="fill:#afdde9;fill-opacity:1;stroke:none;stroke-width:11;stroke-linecap:round;stroke-linejoin:round;stroke-miterlimit:4;stroke-dasharray:none;stroke-opacity:1"
       id="rect4672"
       width="2048"
       height="2048"
       x="-64"
       y="-511.63782"
       inkscape:export-xdpi="90"
       inkscape:export-ydpi="90" />
    <g
       id="g4661"
       transform="translate(704,-284)">
      <g
         transform="matrix(0.98967713,0,0,0.98967713,3.0099304,8.574563)"
         id="g4651">
        <path
           inkscape:connector-curvature="0"
           style="fill:#ffffff;fill-opacity:1;stroke:#000000;stroke-width:11;stroke-linecap:round;stroke-linejoin:round;stroke-miterlimit:4;stroke-dasharray:none;stroke-opacity:1"
           d="m 492.11855,804.36008 -110.8756,-33.91403 -48.91637,17.60965 -15.65018,-37.17556 -256.76624,53.47994 243.06915,28.04521 25.43473,22.82744 41.7423,-44.34961 46.30587,28.69624 75.65634,-35.21928 z"
           id="path4631" />
        <path
           inkscape:connector-curvature="0"
           style="fill:#ffffff;fill-opacity:1;stroke:#000000;stroke-width:11;stroke-linecap:round;stroke-linejoin:round;stroke-miterlimit:4;stroke-dasharray:none;stroke-opacity:1"
           d="m 492.11855,804.36008 -75.65634,35.21928 -46.30587,-28.69624 -41.7423,44.34961 -25.43473,-22.82744 -243.06915,-28.04521 a 216.10506,244.81447 0 0 0 216.1026,244.81482 216.10506,244.81447 0 0 0 216.10579,-244.81482 z"
           id="path4629" />
        <path
           style="fill:#ffb03b;fill-opacity:1;fill-rule:evenodd;stroke:#000000;stroke-width:11;stroke-linecap:round;stroke-linejoin:round;stroke-miterlimit:4;stroke-dasharray:none;stroke-opacity:1"
           d="m 58.185967,849.03047 c 0,0 -6.456536,19.13901 -0.230583,50.03814 6.225936,30.89911 1.38353,46.57926 1.38353,46.57926 0,0 -4.381207,8.99303 1.614147,11.99071 5.995336,2.99768 24.442578,2.07531 29.284984,-5.53417 4.842389,-7.60949 2.99766,-11.06834 2.536494,-13.37426 -0.461182,-2.30589 -8.993029,-48.65457 13.835421,-66.41005 22.82846,-17.75546 -48.423993,-23.28963 -48.423993,-23.28963 z"
           id="path4356"
           inkscape:connector-curvature="0"
           sodipodi:nodetypes="cscssssc" />
        <path
           style="fill:#ffb03b;fill-opacity:1;fill-rule:evenodd;stroke:#000000;stroke-width:11;stroke-linecap:round;stroke-linejoin:round;stroke-miterlimit:4;stroke-dasharray:none;stroke-opacity:1"
           d="m 159.47238,874.32115 c 0,0 -54.78551,31.95823 -104.353337,-7.17428 -38.281703,-30.2224 -39.272497,-72.74857 -35.222597,-99.20071 4.0499,-26.45214 14.437157,-49.34748 30.657146,-67.76462 25.231058,-33.2151 31.911036,-67.63018 48.074752,-93.90792 9.645256,-15.64146 58.179606,-81.57206 136.500196,-58.70883 85.26147,24.8894 90.24853,80.00623 85.09819,111.42349 -4.17608,23.09844 -11.79119,45.97025 -19.87736,67.93379 -15.65299,41.74133 -20.87066,57.39434 -14.34857,76.96059 6.52207,19.56624 -24.13172,61.30757 -24.13172,61.30757 0,0 -35.21925,43.69796 -102.3967,9.13092 z"
           id="path4352"
           inkscape:connector-curvature="0"
           sodipodi:nodetypes="cszccsccscc" />
        <path
           style="fill:#ffb03b;fill-opacity:1;fill-rule:evenodd;stroke:#000000;stroke-width:11;stroke-linecap:round;stroke-linejoin:round;stroke-miterlimit:4;stroke-dasharray:none;stroke-opacity:1"
           d="m 262.48911,800.60648 c 0,0 24.67319,-0.46118 44.73455,12.91305 7.71757,5.14505 7.69275,8.86908 5.53417,18.44725 -4.42661,19.64193 -7.84007,23.52023 -9.45419,42.42864 -0.35359,4.14196 14.2966,7.60949 14.2966,7.60949 0,0 6.45653,1.84472 2.53649,6.45652 -3.92004,4.61183 -17.75546,18.67784 -34.58857,11.52953 -16.8331,-7.1483 -21.9061,-36.66389 -21.9061,-36.66389 0,0 -17.71362,31.34383 -67.77352,25.09479 -50.0599,-6.24904 -57.78013,-38.78175 -59.743,-68.44579"
           id="path4354"
           inkscape:connector-curvature="0"
           sodipodi:nodetypes="cssscssczc" />
        <path
           style="fill:#ffffff;fill-rule:evenodd;stroke:none;stroke-width:11;stroke-linecap:round;stroke-linejoin:round;stroke-miterlimit:4;stroke-dasharray:none;stroke-opacity:1"
           d="m 128.97724,606.4493 c 0,0 23.28963,-35.97211 62.72061,-38.7392 39.43096,-2.76708 59.03115,16.83311 59.03115,16.83311 0,0 22.13669,20.06138 -11.9907,15.44957 -34.12739,-4.61182 -50.26872,-4.15064 -65.02651,4.38121 -14.7578,8.53184 -28.59322,22.59786 -37.81683,24.67317 -9.22363,2.07533 -25.59554,2.30592 -6.91772,-22.59786 z"
           id="path4358"
           inkscape:connector-curvature="0" />
        <path
           style="fill:#ffffff;fill-rule:evenodd;stroke:none;stroke-width:11;stroke-linecap:round;stroke-linejoin:round;stroke-miterlimit:4;stroke-dasharray:none;stroke-opacity:1"
           d="m 170.26723,817.44247 c 1.76336,-8.74446 7.03856,-33.11874 -4.6261,-32.28556 -6.45656,0.46119 -11.99071,3.45886 -11.99071,20.98374 0,17.52488 10.37658,32.74384 10.37658,32.74384 0,0 6.68712,9.45422 9.45419,8.76243 2.7671,-0.69176 4.61183,-4.6118 1.38355,-8.76243 -3.40416,-6.51256 -5.90429,-14.99405 -4.59751,-21.44202 z"
           id="path4360"
           inkscape:connector-curvature="0"
           sodipodi:nodetypes="csscscc" />
        <path
           style="fill:#ffffff;fill-rule:evenodd;stroke:none;stroke-width:11;stroke-linecap:round;stroke-linejoin:round;stroke-miterlimit:4;stroke-dasharray:none;stroke-opacity:1"
           d="m 50.052231,773.623 c 2.797077,-3.49551 9.978465,-13.21429 9.978465,-20.74875 0,-10.37657 -1.152948,-14.06602 -6.687135,-12.68247 -9.496286,2.37408 -19.139007,33.66619 -20.522538,47.50163 -1.383546,13.83543 -0.230599,17.98606 3.689442,22.59786 3.920042,4.61181 7.3789,0.92237 7.609483,-3.92004 -0.673546,-10.87949 -0.937625,-23.90422 5.932283,-32.74823 z"
           id="path4362"
           inkscape:connector-curvature="0"
           sodipodi:nodetypes="csssscc" />
      </g>
    </g>
    <rect
       style="fill:#e3f4d7;fill-opacity:1;stroke:none;stroke-width:11;stroke-linecap:round;stroke-linejoin:round;stroke-miterlimit:4;stroke-dasharray:none;stroke-opacity:1"
       id="rect4735"
       width="64"
       height="64"
       x="-128"
       y="-511.63782" />
    <rect
       y="-447.63782"
       x="-128"
       height="64"
       width="64"
       id="rect4737"
       style="fill:#b7b7c8;fill-opacity:1;stroke:none;stroke-width:11;stroke-linecap:round;stroke-linejoin:round;stroke-miterlimit:4;stroke-dasharray:none;stroke-opacity:1" />
    <rect
       style="fill:#afdde9;fill-opacity:1;stroke:none;stroke-width:11;stroke-linecap:round;stroke-linejoin:round;stroke-miterlimit:4;stroke-dasharray:none;stroke-opacity:1"
       id="rect4739"
       width="64"
       height="64"
       x="-128"
       y="-383.63782" />
  </g>
</svg>
