<?xml version="1.0" encoding="UTF-8" standalone="no"?>
<!-- Created with Inkscape (http://www.inkscape.org/) -->

<svg
   xmlns:dc="http://purl.org/dc/elements/1.1/"
   xmlns:cc="http://creativecommons.org/ns#"
   xmlns:rdf="http://www.w3.org/1999/02/22-rdf-syntax-ns#"
   xmlns:svg="http://www.w3.org/2000/svg"
   xmlns="http://www.w3.org/2000/svg"
   xmlns:sodipodi="http://sodipodi.sourceforge.net/DTD/sodipodi-0.dtd"
   xmlns:inkscape="http://www.inkscape.org/namespaces/inkscape"
   width="1920"
   height="1080"
   id="svg2"
   version="1.1"
   inkscape:version="0.48.4 r9939"
   inkscape:export-filename="/media/Disk/Dropbox/TNDesigns/graphic/wallpapers/doo.png"
   inkscape:export-xdpi="90"
   inkscape:export-ydpi="90"
   sodipodi:docname="doo.svg">
  <defs
     id="defs4" />
  <sodipodi:namedview
     id="base"
     pagecolor="#000000"
     bordercolor="#666666"
     borderopacity="1.0"
     inkscape:pageopacity="0"
     inkscape:pageshadow="2"
     inkscape:zoom="0.49497475"
     inkscape:cx="691.12976"
     inkscape:cy="462.85714"
     inkscape:document-units="px"
     inkscape:current-layer="layer1"
     showgrid="false"
     showborder="true"
     inkscape:showpageshadow="false"
     inkscape:window-width="1920"
     inkscape:window-height="1057"
     inkscape:window-x="1600"
     inkscape:window-y="0"
     inkscape:window-maximized="1"
     borderlayer="true" />
  <metadata
     id="metadata7">
    <rdf:RDF>
      <cc:Work
         rdf:about="">
        <dc:format>image/svg+xml</dc:format>
        <dc:type
           rdf:resource="http://purl.org/dc/dcmitype/StillImage" />
        <dc:title></dc:title>
      </cc:Work>
    </rdf:RDF>
  </metadata>
  <g
     inkscape:label="Layer 1"
     inkscape:groupmode="layer"
     id="layer1"
     transform="translate(0,27.637817)">
    <rect
       style="fill:#ffc871;fill-opacity:1;stroke:none"
       id="rect2985"
       width="2000"
       height="2000"
       x="-40"
       y="-487.63782"
       rx="5.2244329" />
    <g
       id="g3883"
       style="fill:#000000;fill-opacity:0.47058824"
       transform="translate(-10,10)">
      <path
         inkscape:connector-curvature="0"
         id="path3885"
         style="font-size:144px;font-style:normal;font-variant:normal;font-weight:bold;font-stretch:normal;text-align:center;line-height:125%;letter-spacing:0px;word-spacing:0px;text-anchor:middle;fill:#000000;fill-opacity:0.47058824;stroke:none;font-family:Monospace;-inkscape-font-specification:Monospace Bold"
         d="m 412.30078,450.62781 13.57031,0 c -21.04691,17.62509 -31.57034,38.55475 -31.57031,62.78906 -3e-5,24.42189 10.47652,45.35156 31.42969,62.78907 l -13.42969,0 c -20.81253,-16.54688 -31.21877,-37.42968 -31.21875,-62.64844 -2e-5,-24.93744 10.40622,-45.91398 31.21875,-62.92969" />
      <path
         inkscape:connector-curvature="0"
         id="path3887"
         style="font-size:144px;font-style:normal;font-variant:normal;font-weight:bold;font-stretch:normal;text-align:center;line-height:125%;letter-spacing:0px;word-spacing:0px;text-anchor:middle;fill:#000000;fill-opacity:0.47058824;stroke:none;font-family:Monospace;-inkscape-font-specification:Monospace Bold"
         d="m 527.19141,496.04969 0,16.45312 c -3.5157,2.76566 -6.96101,4.80472 -10.33594,6.11719 -3.32819,1.26566 -6.84381,1.89847 -10.54688,1.89844 -4.2188,3e-5 -8.97661,-1.19528 -14.27343,-3.58594 -1.0313,-0.46871 -1.80473,-0.79684 -2.32032,-0.98438 -3.60941,-1.59371 -6.63284,-2.67183 -9.07031,-3.23437 -2.39065,-0.56246 -4.78128,-0.84371 -7.17187,-0.84375 -3.65628,4e-5 -7.14846,0.67973 -10.47657,2.03906 -3.28126,1.35941 -6.65625,3.51566 -10.125,6.46875 l 0,-16.10156 c 3.65625,-2.81245 7.1953,-4.85151 10.61719,-6.11719 3.42186,-1.31244 7.0781,-1.96869 10.96875,-1.96875 4.49997,6e-5 9.79684,1.28912 15.89063,3.86719 l 0.0703,0 2.10937,0.98437 c 5.48433,2.5313 10.45307,3.79693 14.90625,3.79688 3.32807,5e-5 6.58588,-0.70308 9.77344,-2.10938 3.18743,-1.40619 6.51555,-3.63275 9.98438,-6.67968" />
      <path
         inkscape:connector-curvature="0"
         id="path3889"
         style="font-size:144px;font-style:normal;font-variant:normal;font-weight:bold;font-stretch:normal;text-align:center;line-height:125%;letter-spacing:0px;word-spacing:0px;text-anchor:middle;fill:#000000;fill-opacity:0.47058824;stroke:none;font-family:Monospace;-inkscape-font-specification:Monospace Bold"
         d="m 620.00391,444.65125 0,13.35937 -86.69532,0 0,-13.35937 86.69532,0" />
      <path
         inkscape:connector-curvature="0"
         id="path3891"
         style="font-size:144px;font-style:normal;font-variant:normal;font-weight:bold;font-stretch:normal;text-align:center;line-height:125%;letter-spacing:0px;word-spacing:0px;text-anchor:middle;fill:#000000;fill-opacity:0.47058824;stroke:none;font-family:Monospace;-inkscape-font-specification:Monospace Bold"
         d="m 743.68359,564.745 0,11.32031 c -11.57823,3.8906 -22.59385,6.77341 -33.04687,8.64844 -10.40633,1.87497 -20.74226,2.81246 -31.00781,2.8125 -10.26568,-4e-5 -20.67192,-0.93753 -31.21875,-2.8125 -10.50002,-1.87503 -21.4922,-4.75784 -32.97657,-8.64844 l 0,-11.32031 c 11.10937,3.23436 21.96093,5.67186 32.55469,7.3125 10.64059,1.6406 21.14058,2.46092 31.5,2.46094 10.35931,-2e-5 20.8593,-0.82034 31.5,-2.46094 10.64053,-1.59377 21.53895,-4.03127 32.69531,-7.3125" />
      <path
         inkscape:connector-curvature="0"
         id="path3893"
         style="font-size:144px;font-style:normal;font-variant:normal;font-weight:bold;font-stretch:normal;text-align:center;line-height:125%;letter-spacing:0px;word-spacing:0px;text-anchor:middle;fill:#000000;fill-opacity:0.47058824;stroke:none;font-family:Monospace;-inkscape-font-specification:Monospace Bold"
         d="m 825.87891,444.65125 0,13.35937 -86.69532,0 0,-13.35937 86.69532,0" />
      <path
         inkscape:connector-curvature="0"
         id="path3895"
         style="font-size:144px;font-style:normal;font-variant:normal;font-weight:bold;font-stretch:normal;text-align:center;line-height:125%;letter-spacing:0px;word-spacing:0px;text-anchor:middle;fill:#000000;fill-opacity:0.47058824;stroke:none;font-family:Monospace;-inkscape-font-specification:Monospace Bold"
         d="m 860.19141,576.20594 -13.35938,0 c 20.90621,-17.39063 31.35933,-38.3203 31.35938,-62.78907 -5e-5,-24.28118 -10.50004,-45.21085 -31.5,-62.78906 l 13.5,0 c 20.85932,16.92196 31.28899,37.8985 31.28906,62.92969 -7e-5,25.31251 -10.42974,46.1953 -31.28906,62.64844" />
      <path
         inkscape:connector-curvature="0"
         id="path3897"
         style="font-size:144px;font-style:normal;font-variant:normal;font-weight:bold;font-stretch:normal;text-align:center;line-height:125%;letter-spacing:0px;word-spacing:0px;text-anchor:middle;fill:#000000;fill-opacity:0.47058824;stroke:none;font-family:Monospace;-inkscape-font-specification:Monospace Bold"
         d="m 992.66012,496.04969 0,16.45312 c -3.5157,2.76566 -6.96097,4.80472 -10.3359,6.11719 -3.32819,1.26566 -6.84381,1.89847 -10.54688,1.89844 -4.2188,3e-5 -8.97661,-1.19528 -14.27343,-3.58594 -1.0313,-0.46871 -1.80473,-0.79684 -2.32032,-0.98438 -3.60941,-1.59371 -6.63284,-2.67183 -9.07031,-3.23437 -2.39065,-0.56246 -4.78128,-0.84371 -7.17187,-0.84375 -3.65628,4e-5 -7.14846,0.67973 -10.47657,2.03906 -3.28126,1.35941 -6.65625,3.51566 -10.125,6.46875 l 0,-16.10156 c 3.65625,-2.81245 7.1953,-4.85151 10.61719,-6.11719 3.42186,-1.31244 7.0781,-1.96869 10.96875,-1.96875 4.49997,6e-5 9.79684,1.28912 15.89063,3.86719 l 0.0703,0 2.10937,0.98437 c 5.48433,2.5313 10.45307,3.79693 14.90625,3.79688 3.32807,5e-5 6.58588,-0.70308 9.77344,-2.10938 3.18743,-1.40619 6.51555,-3.63275 9.98435,-6.67968" />
      <path
         inkscape:connector-curvature="0"
         id="path3899"
         style="font-size:40px;font-style:normal;font-weight:normal;line-height:125%;letter-spacing:0px;word-spacing:0px;fill:#000000;fill-opacity:0.47058824;stroke:none;font-family:Sans;-inkscape-font-specification:Monospace Bold"
         d="m 1110.5742,450.48719 c 20.9062,-0.98427 42.4687,-2.76552 64.6875,-5.34375 l 5.9063,7.3125 c -15.6564,14.34383 -29.2501,25.87507 -40.7813,34.59375 14.6249,-2.20306 34.7812,-4.89837 60.4688,-8.08594 l 1.4765,10.40625 c -17.3438,1.40631 -30.0704,3.98443 -38.1797,7.73437 -13.3125,6.18755 -19.9688,15.65629 -19.9687,28.40625 -10e-5,14.43752 13.664,21.72657 40.9922,21.86719 l 0.4218,11.67188 c -15.9375,-0.14063 -28.2188,-2.55469 -36.8437,-7.24219 -10.5469,-5.76562 -15.8204,-14.06249 -15.8203,-24.89063 -10e-5,-11.81246 6.4218,-22.71088 19.2656,-32.69531 -18.6094,2.76568 -34.7344,5.27349 -48.375,7.52344 l -9.4922,1.54687 -2.039,-10.47656 5.9062,-0.70312 5.2031,-0.63282 8.7891,-0.98437 5.2734,-0.5625 5.9063,-0.70313 c 16.3124,-11.90617 29.8124,-23.34366 40.5,-34.3125 -16.6876,2.90635 -33.6798,5.0626 -50.9766,6.46875 l -2.3203,-10.89843" />
      <path
         inkscape:connector-curvature="0"
         id="path3901"
         style="font-size:40px;font-style:normal;font-weight:normal;line-height:125%;letter-spacing:0px;word-spacing:0px;fill:#000000;fill-opacity:0.47058824;stroke:none;font-family:Sans;-inkscape-font-specification:Monospace Bold"
         d="m 1282.6992,463.98719 c -10.5469,-6.56241 -23.6954,-12.21084 -39.4453,-16.94532 l 5.3437,-9.84375 c 14.4375,4.26574 27.8203,9.79699 40.1485,16.59375 l -6.0469,10.19532 m -61.3125,20.74218 c 25.5,-8.62492 43.4531,-12.93741 53.8594,-12.9375 10.5468,9e-5 18.328,3.35164 23.3437,10.05469 3.6562,4.96882 5.4843,11.36725 5.4844,19.19531 -10e-5,30.32815 -16.711,50.39063 -50.1328,60.1875 l -7.6641,-10.125 c 30.75,-6.74999 46.1249,-23.36716 46.125,-49.85156 -10e-5,-12.93743 -5.9532,-19.40618 -17.8593,-19.40625 -9.3751,7e-5 -25.4063,4.71101 -48.0938,14.13281 l -5.0625,-11.25" />
      <path
         inkscape:connector-curvature="0"
         id="path3903"
         style="font-size:40px;font-style:normal;font-weight:normal;line-height:125%;letter-spacing:0px;word-spacing:0px;fill:#000000;fill-opacity:0.47058824;stroke:none;font-family:Sans;-inkscape-font-specification:Monospace Bold"
         d="m 1345.418,450.48719 c 20.9062,-0.98427 42.4686,-2.76552 64.6875,-5.34375 l 5.9062,7.3125 c -15.6563,14.34383 -29.2501,25.87507 -40.7812,34.59375 14.6249,-2.20306 34.7811,-4.89837 60.4687,-8.08594 l 1.4766,10.40625 c -17.3439,1.40631 -30.0704,3.98443 -38.1797,7.73437 -13.3126,6.18755 -19.9688,15.65629 -19.9688,28.40625 0,14.43752 13.664,21.72657 40.9922,21.86719 l 0.4219,11.67188 c -15.9376,-0.14063 -28.2188,-2.55469 -36.8438,-7.24219 -10.5469,-5.76562 -15.8203,-14.06249 -15.8203,-24.89063 0,-11.81246 6.4218,-22.71088 19.2657,-32.69531 -18.6095,2.76568 -34.7345,5.27349 -48.375,7.52344 l -9.4922,1.54687 -2.0391,-10.47656 5.9063,-0.70312 5.2031,-0.63282 8.789,-0.98437 5.2735,-0.5625 5.9062,-0.70313 c 16.3125,-11.90617 29.8125,-23.34366 40.5,-34.3125 -16.6875,2.90635 -33.6797,5.0626 -50.9765,6.46875 l -2.3203,-10.89843" />
      <path
         inkscape:connector-curvature="0"
         id="path3905"
         style="font-size:40px;font-style:normal;font-weight:normal;line-height:125%;letter-spacing:0px;word-spacing:0px;fill:#000000;fill-opacity:0.47058824;stroke:none;font-family:Sans;-inkscape-font-specification:Monospace Bold"
         d="m 1517.543,463.98719 c -10.547,-6.56241 -23.6954,-12.21084 -39.4454,-16.94532 l 5.3438,-9.84375 c 14.4374,4.26574 27.8202,9.79699 40.1484,16.59375 l -6.0468,10.19532 m -61.3125,20.74218 c 25.4999,-8.62492 43.453,-12.93741 53.8593,-12.9375 10.5468,9e-5 18.3281,3.35164 23.3438,10.05469 3.6561,4.96882 5.4843,11.36725 5.4844,19.19531 -10e-5,30.32815 -16.7111,50.39063 -50.1329,60.1875 l -7.664,-10.125 c 30.7499,-6.74999 46.1249,-23.36716 46.125,-49.85156 -10e-5,-12.93743 -5.9532,-19.40618 -17.8594,-19.40625 -9.3751,7e-5 -25.4063,4.71101 -48.0937,14.13281 l -5.0625,-11.25" />
    </g>
    <g
       id="g3870">
      <path
         d="m 412.30078,450.62781 13.57031,0 c -21.04691,17.62509 -31.57034,38.55475 -31.57031,62.78906 -3e-5,24.42189 10.47652,45.35156 31.42969,62.78907 l -13.42969,0 c -20.81253,-16.54688 -31.21877,-37.42968 -31.21875,-62.64844 -2e-5,-24.93744 10.40622,-45.91398 31.21875,-62.92969"
         style="font-size:144px;font-style:normal;font-variant:normal;font-weight:bold;font-stretch:normal;text-align:center;line-height:125%;letter-spacing:0px;word-spacing:0px;text-anchor:middle;fill:#ffffff;fill-opacity:1;stroke:none;font-family:Monospace;-inkscape-font-specification:Monospace Bold"
         id="path3837"
         inkscape:connector-curvature="0" />
      <path
         d="m 527.19141,496.04969 0,16.45312 c -3.5157,2.76566 -6.96101,4.80472 -10.33594,6.11719 -3.32819,1.26566 -6.84381,1.89847 -10.54688,1.89844 -4.2188,3e-5 -8.97661,-1.19528 -14.27343,-3.58594 -1.0313,-0.46871 -1.80473,-0.79684 -2.32032,-0.98438 -3.60941,-1.59371 -6.63284,-2.67183 -9.07031,-3.23437 -2.39065,-0.56246 -4.78128,-0.84371 -7.17187,-0.84375 -3.65628,4e-5 -7.14846,0.67973 -10.47657,2.03906 -3.28126,1.35941 -6.65625,3.51566 -10.125,6.46875 l 0,-16.10156 c 3.65625,-2.81245 7.1953,-4.85151 10.61719,-6.11719 3.42186,-1.31244 7.0781,-1.96869 10.96875,-1.96875 4.49997,6e-5 9.79684,1.28912 15.89063,3.86719 l 0.0703,0 2.10937,0.98437 c 5.48433,2.5313 10.45307,3.79693 14.90625,3.79688 3.32807,5e-5 6.58588,-0.70308 9.77344,-2.10938 3.18743,-1.40619 6.51555,-3.63275 9.98438,-6.67968"
         style="font-size:144px;font-style:normal;font-variant:normal;font-weight:bold;font-stretch:normal;text-align:center;line-height:125%;letter-spacing:0px;word-spacing:0px;text-anchor:middle;fill:#ffffff;fill-opacity:1;stroke:none;font-family:Monospace;-inkscape-font-specification:Monospace Bold"
         id="path3839"
         inkscape:connector-curvature="0" />
      <path
         d="m 620.00391,444.65125 0,13.35937 -86.69532,0 0,-13.35937 86.69532,0"
         style="font-size:144px;font-style:normal;font-variant:normal;font-weight:bold;font-stretch:normal;text-align:center;line-height:125%;letter-spacing:0px;word-spacing:0px;text-anchor:middle;fill:#ffffff;fill-opacity:1;stroke:none;font-family:Monospace;-inkscape-font-specification:Monospace Bold"
         id="path3841"
         inkscape:connector-curvature="0" />
      <path
         d="m 743.68359,564.745 0,11.32031 c -11.57823,3.8906 -22.59385,6.77341 -33.04687,8.64844 -10.40633,1.87497 -20.74226,2.81246 -31.00781,2.8125 -10.26568,-4e-5 -20.67192,-0.93753 -31.21875,-2.8125 -10.50002,-1.87503 -21.4922,-4.75784 -32.97657,-8.64844 l 0,-11.32031 c 11.10937,3.23436 21.96093,5.67186 32.55469,7.3125 10.64059,1.6406 21.14058,2.46092 31.5,2.46094 10.35931,-2e-5 20.8593,-0.82034 31.5,-2.46094 10.64053,-1.59377 21.53895,-4.03127 32.69531,-7.3125"
         style="font-size:144px;font-style:normal;font-variant:normal;font-weight:bold;font-stretch:normal;text-align:center;line-height:125%;letter-spacing:0px;word-spacing:0px;text-anchor:middle;fill:#ffffff;fill-opacity:1;stroke:none;font-family:Monospace;-inkscape-font-specification:Monospace Bold"
         id="path3843"
         inkscape:connector-curvature="0" />
      <path
         d="m 825.87891,444.65125 0,13.35937 -86.69532,0 0,-13.35937 86.69532,0"
         style="font-size:144px;font-style:normal;font-variant:normal;font-weight:bold;font-stretch:normal;text-align:center;line-height:125%;letter-spacing:0px;word-spacing:0px;text-anchor:middle;fill:#ffffff;fill-opacity:1;stroke:none;font-family:Monospace;-inkscape-font-specification:Monospace Bold"
         id="path3845"
         inkscape:connector-curvature="0" />
      <path
         d="m 860.19141,576.20594 -13.35938,0 c 20.90621,-17.39063 31.35933,-38.3203 31.35938,-62.78907 -5e-5,-24.28118 -10.50004,-45.21085 -31.5,-62.78906 l 13.5,0 c 20.85932,16.92196 31.28899,37.8985 31.28906,62.92969 -7e-5,25.31251 -10.42974,46.1953 -31.28906,62.64844"
         style="font-size:144px;font-style:normal;font-variant:normal;font-weight:bold;font-stretch:normal;text-align:center;line-height:125%;letter-spacing:0px;word-spacing:0px;text-anchor:middle;fill:#ffffff;fill-opacity:1;stroke:none;font-family:Monospace;-inkscape-font-specification:Monospace Bold"
         id="path3847"
         inkscape:connector-curvature="0" />
      <path
         d="m 992.66012,496.04969 0,16.45312 c -3.5157,2.76566 -6.96097,4.80472 -10.3359,6.11719 -3.32819,1.26566 -6.84381,1.89847 -10.54688,1.89844 -4.2188,3e-5 -8.97661,-1.19528 -14.27343,-3.58594 -1.0313,-0.46871 -1.80473,-0.79684 -2.32032,-0.98438 -3.60941,-1.59371 -6.63284,-2.67183 -9.07031,-3.23437 -2.39065,-0.56246 -4.78128,-0.84371 -7.17187,-0.84375 -3.65628,4e-5 -7.14846,0.67973 -10.47657,2.03906 -3.28126,1.35941 -6.65625,3.51566 -10.125,6.46875 l 0,-16.10156 c 3.65625,-2.81245 7.1953,-4.85151 10.61719,-6.11719 3.42186,-1.31244 7.0781,-1.96869 10.96875,-1.96875 4.49997,6e-5 9.79684,1.28912 15.89063,3.86719 l 0.0703,0 2.10937,0.98437 c 5.48433,2.5313 10.45307,3.79693 14.90625,3.79688 3.32807,5e-5 6.58588,-0.70308 9.77344,-2.10938 3.18743,-1.40619 6.51555,-3.63275 9.98435,-6.67968"
         style="font-size:144px;font-style:normal;font-variant:normal;font-weight:bold;font-stretch:normal;text-align:center;line-height:125%;letter-spacing:0px;word-spacing:0px;text-anchor:middle;fill:#ffffff;fill-opacity:1;stroke:none;font-family:Monospace;-inkscape-font-specification:Monospace Bold"
         id="path3849"
         inkscape:connector-curvature="0" />
      <path
         d="m 1110.5742,450.48719 c 20.9062,-0.98427 42.4687,-2.76552 64.6875,-5.34375 l 5.9063,7.3125 c -15.6564,14.34383 -29.2501,25.87507 -40.7813,34.59375 14.6249,-2.20306 34.7812,-4.89837 60.4688,-8.08594 l 1.4765,10.40625 c -17.3438,1.40631 -30.0704,3.98443 -38.1797,7.73437 -13.3125,6.18755 -19.9688,15.65629 -19.9687,28.40625 -10e-5,14.43752 13.664,21.72657 40.9922,21.86719 l 0.4218,11.67188 c -15.9375,-0.14063 -28.2188,-2.55469 -36.8437,-7.24219 -10.5469,-5.76562 -15.8204,-14.06249 -15.8203,-24.89063 -10e-5,-11.81246 6.4218,-22.71088 19.2656,-32.69531 -18.6094,2.76568 -34.7344,5.27349 -48.375,7.52344 l -9.4922,1.54687 -2.039,-10.47656 5.9062,-0.70312 5.2031,-0.63282 8.7891,-0.98437 5.2734,-0.5625 5.9063,-0.70313 c 16.3124,-11.90617 29.8124,-23.34366 40.5,-34.3125 -16.6876,2.90635 -33.6798,5.0626 -50.9766,6.46875 l -2.3203,-10.89843"
         style="font-size:40px;font-style:normal;font-weight:normal;line-height:125%;letter-spacing:0px;word-spacing:0px;fill:#ffffff;fill-opacity:1;stroke:none;font-family:Sans;-inkscape-font-specification:Monospace Bold"
         id="path3851"
         inkscape:connector-curvature="0" />
      <path
         d="m 1282.6992,463.98719 c -10.5469,-6.56241 -23.6954,-12.21084 -39.4453,-16.94532 l 5.3437,-9.84375 c 14.4375,4.26574 27.8203,9.79699 40.1485,16.59375 l -6.0469,10.19532 m -61.3125,20.74218 c 25.5,-8.62492 43.4531,-12.93741 53.8594,-12.9375 10.5468,9e-5 18.328,3.35164 23.3437,10.05469 3.6562,4.96882 5.4843,11.36725 5.4844,19.19531 -10e-5,30.32815 -16.711,50.39063 -50.1328,60.1875 l -7.6641,-10.125 c 30.75,-6.74999 46.1249,-23.36716 46.125,-49.85156 -10e-5,-12.93743 -5.9532,-19.40618 -17.8593,-19.40625 -9.3751,7e-5 -25.4063,4.71101 -48.0938,14.13281 l -5.0625,-11.25"
         style="font-size:40px;font-style:normal;font-weight:normal;line-height:125%;letter-spacing:0px;word-spacing:0px;fill:#ffffff;fill-opacity:1;stroke:none;font-family:Sans;-inkscape-font-specification:Monospace Bold"
         id="path3853"
         inkscape:connector-curvature="0" />
      <path
         d="m 1345.418,450.48719 c 20.9062,-0.98427 42.4686,-2.76552 64.6875,-5.34375 l 5.9062,7.3125 c -15.6563,14.34383 -29.2501,25.87507 -40.7812,34.59375 14.6249,-2.20306 34.7811,-4.89837 60.4687,-8.08594 l 1.4766,10.40625 c -17.3439,1.40631 -30.0704,3.98443 -38.1797,7.73437 -13.3126,6.18755 -19.9688,15.65629 -19.9688,28.40625 0,14.43752 13.664,21.72657 40.9922,21.86719 l 0.4219,11.67188 c -15.9376,-0.14063 -28.2188,-2.55469 -36.8438,-7.24219 -10.5469,-5.76562 -15.8203,-14.06249 -15.8203,-24.89063 0,-11.81246 6.4218,-22.71088 19.2657,-32.69531 -18.6095,2.76568 -34.7345,5.27349 -48.375,7.52344 l -9.4922,1.54687 -2.0391,-10.47656 5.9063,-0.70312 5.2031,-0.63282 8.789,-0.98437 5.2735,-0.5625 5.9062,-0.70313 c 16.3125,-11.90617 29.8125,-23.34366 40.5,-34.3125 -16.6875,2.90635 -33.6797,5.0626 -50.9765,6.46875 l -2.3203,-10.89843"
         style="font-size:40px;font-style:normal;font-weight:normal;line-height:125%;letter-spacing:0px;word-spacing:0px;fill:#ffffff;fill-opacity:1;stroke:none;font-family:Sans;-inkscape-font-specification:Monospace Bold"
         id="path3855"
         inkscape:connector-curvature="0" />
      <path
         d="m 1517.543,463.98719 c -10.547,-6.56241 -23.6954,-12.21084 -39.4454,-16.94532 l 5.3438,-9.84375 c 14.4374,4.26574 27.8202,9.79699 40.1484,16.59375 l -6.0468,10.19532 m -61.3125,20.74218 c 25.4999,-8.62492 43.453,-12.93741 53.8593,-12.9375 10.5468,9e-5 18.3281,3.35164 23.3438,10.05469 3.6561,4.96882 5.4843,11.36725 5.4844,19.19531 -10e-5,30.32815 -16.7111,50.39063 -50.1329,60.1875 l -7.664,-10.125 c 30.7499,-6.74999 46.1249,-23.36716 46.125,-49.85156 -10e-5,-12.93743 -5.9532,-19.40618 -17.8594,-19.40625 -9.3751,7e-5 -25.4063,4.71101 -48.0937,14.13281 l -5.0625,-11.25"
         style="font-size:40px;font-style:normal;font-weight:normal;line-height:125%;letter-spacing:0px;word-spacing:0px;fill:#ffffff;fill-opacity:1;stroke:none;font-family:Sans;-inkscape-font-specification:Monospace Bold"
         id="path3857"
         inkscape:connector-curvature="0" />
    </g>
  </g>
</svg>
