<?xml version="1.0" encoding="UTF-8" standalone="no"?>
<!-- Created with Inkscape (http://www.inkscape.org/) -->

<svg
   xmlns:dc="http://purl.org/dc/elements/1.1/"
   xmlns:cc="http://creativecommons.org/ns#"
   xmlns:rdf="http://www.w3.org/1999/02/22-rdf-syntax-ns#"
   xmlns:svg="http://www.w3.org/2000/svg"
   xmlns="http://www.w3.org/2000/svg"
   xmlns:sodipodi="http://sodipodi.sourceforge.net/DTD/sodipodi-0.dtd"
   xmlns:inkscape="http://www.inkscape.org/namespaces/inkscape"
   width="1920"
   height="1080"
   id="svg2"
   version="1.1"
   inkscape:version="0.91 r13725"
   inkscape:export-filename="/media/Dropbox/TNDesigns/graphic/wallpapers/kaomoji/suki.png"
   inkscape:export-xdpi="90"
   inkscape:export-ydpi="90"
   sodipodi:docname="suki.svg">
  <defs
     id="defs4" />
  <sodipodi:namedview
     id="base"
     pagecolor="#000000"
     bordercolor="#666666"
     borderopacity="1.0"
     inkscape:pageopacity="0"
     inkscape:pageshadow="2"
     inkscape:zoom="0.4455"
     inkscape:cx="960"
     inkscape:cy="540"
     inkscape:document-units="px"
     inkscape:current-layer="layer1"
     showgrid="true"
     showborder="true"
     inkscape:showpageshadow="false"
     inkscape:window-width="1920"
     inkscape:window-height="1038"
     inkscape:window-x="1600"
     inkscape:window-y="0"
     inkscape:window-maximized="1"
     borderlayer="true"
     inkscape:snap-bbox="true"
     inkscape:bbox-paths="true"
     inkscape:bbox-nodes="true"
     inkscape:snap-bbox-edge-midpoints="true"
     inkscape:snap-bbox-midpoints="true"
     inkscape:object-paths="true"
     inkscape:snap-intersection-paths="true"
     inkscape:object-nodes="true"
     inkscape:snap-smooth-nodes="true"
     inkscape:snap-midpoints="true"
     inkscape:snap-object-midpoints="true"
     inkscape:snap-center="true"
     inkscape:snap-grids="true"
     inkscape:snap-page="true"
     inkscape:snap-others="false"
     inkscape:snap-global="true">
    <inkscape:grid
       type="xygrid"
       id="grid4184"
       empspacing="5" />
  </sodipodi:namedview>
  <metadata
     id="metadata7">
    <rdf:RDF>
      <cc:Work
         rdf:about="">
        <dc:format>image/svg+xml</dc:format>
        <dc:type
           rdf:resource="http://purl.org/dc/dcmitype/StillImage" />
        <dc:title></dc:title>
      </cc:Work>
    </rdf:RDF>
  </metadata>
  <g
     inkscape:label="Layer 1"
     inkscape:groupmode="layer"
     id="layer1"
     transform="translate(0,27.637817)">
    <rect
       style="fill:#87de87;fill-opacity:1;stroke:none"
       id="rect2985"
       width="2000"
       height="2000"
       x="-40"
       y="-487.63782"
       rx="5.2244329"
       sodipodi:insensitive="true" />
    <g
       id="g4446"
       transform="translate(3.0000425,2.5)">
      <g
         style="fill:#000000;fill-opacity:0.47058824"
         id="g4299"
         transform="translate(1.5e-5,-1.344747)">
        <path
           d="m 181.61007,448.31261 95.96214,0 0,-24.60568 13.81704,0 0,24.60568 51.8612,0 0,11.92429 -51.8612,0 0,42.39747 q 3.59621,10.22082 3.59621,23.28076 0,28.01262 -15.14195,42.9653 -15.14196,14.76341 -48.83281,19.49527 l -2.08202,-13.24921 q 26.49842,-3.40694 38.99054,-13.43849 12.68139,-10.22082 13.62776,-27.82334 l 0,-2.46057 -0.37855,0 q -8.70663,12.68139 -28.76972,12.68139 -15.70978,0 -26.30914,-10.22082 -10.4101,-10.4101 -10.4101,-25.74133 0,-15.33123 10.4101,-25.55205 10.59936,-10.41009 26.30914,-10.41009 14.38486,0 24.79496,8.51735 l 0.37854,0 0,-20.44164 -95.96214,0 0,-11.92429 z m 48.26498,59.81072 q 0,9.84227 7.00316,16.65615 7.19243,6.81388 17.60252,6.81388 10.59937,0 17.60253,-6.81388 7.00315,-6.81388 7.00315,-16.65615 0,-9.84227 -7.00315,-16.46687 -7.00316,-6.81388 -17.60253,-6.81388 -10.41009,0 -17.60252,6.81388 -7.00316,6.81388 -7.00316,16.46687 z"
           style="font-style:normal;font-variant:normal;font-weight:bold;font-stretch:normal;font-size:medium;line-height:125%;font-family:Sans;-inkscape-font-specification:'Sans Bold';letter-spacing:0px;word-spacing:0px;fill:#000000;fill-opacity:0.47058824;stroke:none;stroke-width:1px;stroke-linecap:butt;stroke-linejoin:miter;stroke-opacity:1"
           id="path4301"
           inkscape:connector-curvature="0" />
        <path
           d="m 471.19998,496.19904 q -42.39748,1.5142 -94.63723,1.5142 l 0,-11.92429 q 37.09779,0 90.09464,-1.32492 -4.35331,-12.87067 -6.62461,-24.03786 -45.80441,1.32492 -76.65615,1.32492 l 0,-12.11356 q 36.52997,0 74.57413,-1.13565 -1.70347,-10.78864 -2.27129,-22.33438 l 13.81704,-0.7571 q 0.75709,10.78864 2.64984,22.71293 25.36277,-0.94637 49.96845,-2.27129 l 0.56783,12.11356 q -33.12303,1.5142 -48.45426,2.08202 2.64984,11.73502 6.81388,23.84858 29.90536,-1.13564 45.61514,-1.89274 l 0.37855,11.92429 q -13.62776,0.7571 -41.26183,1.89274 7.76025,16.84543 18.92744,33.69086 l -12.68139,8.89589 q -26.49842,-12.30283 -49.5899,-12.30283 -38.42271,0 -38.42271,21.19873 0,13.62776 12.68138,20.25237 12.87067,6.62461 41.45111,6.62461 20.44164,0 44.10094,-3.78549 l 1.70347,12.30284 q -23.28075,3.78548 -45.80441,3.78548 -69.27445,0 -69.27445,-39.17981 0,-14.38485 12.87066,-23.6593 12.87067,-9.46372 40.69401,-9.46372 20.63091,0 41.07255,8.1388 l 0.18928,-0.37855 q -7.19243,-13.43849 -12.49211,-25.74133 z"
           style="font-style:normal;font-variant:normal;font-weight:bold;font-stretch:normal;font-size:medium;line-height:125%;font-family:Sans;-inkscape-font-specification:'Sans Bold';letter-spacing:0px;word-spacing:0px;fill:#000000;fill-opacity:0.47058824;stroke:none;stroke-width:1px;stroke-linecap:butt;stroke-linejoin:miter;stroke-opacity:1"
           id="path4303"
           inkscape:connector-curvature="0" />
        <path
           d="m 762.68263,473.86466 q 11.35646,10.78864 20.44164,23.6593 l -10.59937,8.13881 q -7.76026,-13.05994 -18.5489,-22.52366 l 8.70663,-9.27445 z m 18.92744,-12.30284 q 13.43849,11.35647 21.57729,21.76656 l -10.03155,8.8959 q -8.51735,-13.24921 -20.06309,-21.76656 l 8.51735,-8.8959 z m -68.51735,21.57729 q 23.09148,19.68454 34.8265,32.36593 11.92429,12.68138 22.52366,26.49842 10.59937,13.81703 19.49527,27.63407 -9.84228,7.00315 -16.08833,13.43848 -8.70663,-17.79179 -17.98107,-31.7981 -9.27445,-14.19559 -32.93376,-38.23344 l -20.44164,-14.57413 10.59937,-15.33123 z"
           style="font-style:normal;font-variant:normal;font-weight:bold;font-stretch:normal;font-size:medium;line-height:125%;font-family:Sans;-inkscape-font-specification:'Sans Bold';letter-spacing:0px;word-spacing:0px;fill:#000000;fill-opacity:0.47058824;stroke:none;stroke-width:1px;stroke-linecap:butt;stroke-linejoin:miter;stroke-opacity:1"
           id="path4305"
           inkscape:connector-curvature="0" />
        <path
           d="m 895.17223,603.70693 q -36.71924,-34.0694 -36.71924,-86.11987 0,-52.05048 36.71924,-86.11988 l 14.38486,0 q -37.09779,34.8265 -37.09779,86.11988 0,51.29337 37.09779,86.11987 l -14.38486,0 z"
           style="font-style:normal;font-variant:normal;font-weight:bold;font-stretch:normal;font-size:medium;line-height:125%;font-family:Sans;-inkscape-font-specification:'Sans Bold';letter-spacing:0px;word-spacing:0px;fill:#000000;fill-opacity:0.47058824;stroke:none;stroke-width:1px;stroke-linecap:butt;stroke-linejoin:miter;stroke-opacity:1"
           id="path4307"
           inkscape:connector-curvature="0" />
        <path
           d="m 936.24479,570.01608 q 0,-7.94953 5.48896,-13.62776 5.67823,-5.67824 13.81703,-5.67824 7.94953,0 13.62776,5.67824 5.67823,5.67823 5.67823,13.62776 0,8.1388 -5.67823,13.62776 -5.67823,5.67823 -13.62776,5.67823 -8.1388,0 -13.81703,-5.67823 -5.48896,-5.48896 -5.48896,-13.62776 z m 6.05678,0 q 0,5.29968 3.97476,9.27445 3.97477,3.97476 9.27445,3.97476 5.11041,0 9.08517,-3.97476 4.16404,-3.97477 4.16404,-9.27445 0,-5.11041 -4.16404,-9.08518 -3.97476,-4.16403 -9.08517,-4.16403 -5.29968,0 -9.27445,4.16403 -3.97476,3.97477 -3.97476,9.08518 z"
           style="font-style:normal;font-variant:normal;font-weight:bold;font-stretch:normal;font-size:medium;line-height:125%;font-family:Sans;-inkscape-font-specification:'Sans Bold';letter-spacing:0px;word-spacing:0px;fill:#000000;fill-opacity:0.47058824;stroke:none;stroke-width:1px;stroke-linecap:butt;stroke-linejoin:miter;stroke-opacity:1"
           id="path4309"
           inkscape:connector-curvature="0" />
        <path
           d="m 1036.371,480.67854 0,-15.14196 71.9243,46.37224 0,15.14196 -71.9243,46.37224 0,-15.14196 62.4605,-38.61199 0,-0.37854 -62.4605,-38.61199 z"
           style="font-style:normal;font-variant:normal;font-weight:bold;font-stretch:normal;font-size:medium;line-height:125%;font-family:Sans;-inkscape-font-specification:'Sans Bold';letter-spacing:0px;word-spacing:0px;fill:#000000;fill-opacity:0.47058824;stroke:none;stroke-width:1px;stroke-linecap:butt;stroke-linejoin:miter;stroke-opacity:1"
           id="path4311"
           inkscape:connector-curvature="0" />
        <path
           d="m 1132.7117,588.3757 c 4.164,2.27129 10.5993,6.24606 17.6025,6.24606 6.8139,0 11.735,-2.83912 18.1703,-6.24606 2.4606,-1.5142 6.6246,-4.54259 13.2492,-4.54259 6.6247,0 10.978,3.02839 13.4385,4.54259 6.2461,3.40694 11.1672,6.24606 18.1704,6.24606 7.0031,0 13.2492,-3.78549 17.6025,-6.24606 5.2997,-2.83912 9.4637,-4.54259 13.817,-4.54259 4.3533,0 8.5174,1.70347 13.8171,4.54259 4.3533,2.27129 10.5993,6.24606 17.6025,6.24606 7.0031,0 11.9243,-2.83912 18.1703,-6.24606 2.4606,-1.5142 7.0032,-4.54259 13.6278,-4.54259 l 0,-14.95268 c -8.1388,0 -13.0599,3.78549 -17.6025,6.24606 -5.2997,2.83911 -9.653,4.54258 -14.1956,4.54258 -4.5426,0 -11.1672,-3.02839 -13.817,-4.54258 -4.7319,-2.83912 -10.7887,-6.24606 -17.6026,-6.24606 -6.8138,0 -12.8706,3.40694 -17.6025,6.24606 -2.6498,1.51419 -9.2744,4.54258 -13.817,4.54258 -4.5426,0 -8.8959,-1.70347 -14.1956,-4.54258 -4.5426,-2.46057 -9.0852,-6.24606 -17.4133,-6.24606 -8.1388,0 -12.8706,3.78549 -17.2239,6.24606 -5.2997,2.83911 -9.653,4.54258 -14.1956,4.54258 -4.7319,0 -11.1672,-3.02839 -13.817,-4.54258 -4.9212,-2.83912 -10.978,-6.24606 -17.7918,-6.24606 l 0,14.95268 c 4.5425,0 8.7066,1.70347 14.0063,4.54259 z"
           style="font-style:normal;font-variant:normal;font-weight:bold;font-stretch:normal;font-size:medium;line-height:125%;font-family:Sans;-inkscape-font-specification:'Sans Bold';letter-spacing:0px;word-spacing:0px;fill:#000000;fill-opacity:0.47058824;stroke:none;stroke-width:1px;stroke-linecap:butt;stroke-linejoin:miter;stroke-opacity:1"
           id="path4313"
           inkscape:connector-curvature="0" />
        <path
           d="m 1390.3142,480.67854 -62.4606,38.61199 0,0.37854 62.4606,38.61199 0,15.14196 -71.9243,-46.37224 0,-15.14196 71.9243,-46.37224 0,15.14196 z"
           style="font-style:normal;font-variant:normal;font-weight:bold;font-stretch:normal;font-size:medium;line-height:125%;font-family:Sans;-inkscape-font-specification:'Sans Bold';letter-spacing:0px;word-spacing:0px;fill:#000000;fill-opacity:0.47058824;stroke:none;stroke-width:1px;stroke-linecap:butt;stroke-linejoin:miter;stroke-opacity:1"
           id="path4315"
           inkscape:connector-curvature="0" />
        <path
           d="m 1409.4309,570.01608 q 0,-7.94953 5.489,-13.62776 5.6782,-5.67824 13.817,-5.67824 7.9495,0 13.6278,5.67824 5.6782,5.67823 5.6782,13.62776 0,8.1388 -5.6782,13.62776 -5.6783,5.67823 -13.6278,5.67823 -8.1388,0 -13.817,-5.67823 -5.489,-5.48896 -5.489,-13.62776 z m 6.0568,0 q 0,5.29968 3.9748,9.27445 3.9747,3.97476 9.2744,3.97476 5.1104,0 9.0852,-3.97476 4.164,-3.97477 4.164,-9.27445 0,-5.11041 -4.164,-9.08518 -3.9748,-4.16403 -9.0852,-4.16403 -5.2997,0 -9.2744,4.16403 -3.9748,3.97477 -3.9748,9.08518 z"
           style="font-style:normal;font-variant:normal;font-weight:bold;font-stretch:normal;font-size:medium;line-height:125%;font-family:Sans;-inkscape-font-specification:'Sans Bold';letter-spacing:0px;word-spacing:0px;fill:#000000;fill-opacity:0.47058824;stroke:none;stroke-width:1px;stroke-linecap:butt;stroke-linejoin:miter;stroke-opacity:1"
           id="path4317"
           inkscape:connector-curvature="0" />
        <path
           d="m 1531.5129,431.46718 q 36.7193,34.0694 36.7193,86.11988 0,52.05047 -36.7193,86.11987 l -14.3848,0 q 37.0978,-34.8265 37.0978,-86.11987 0,-51.29338 -37.0978,-86.11988 l 14.3848,0 z"
           style="font-style:normal;font-variant:normal;font-weight:bold;font-stretch:normal;font-size:medium;line-height:125%;font-family:Sans;-inkscape-font-specification:'Sans Bold';letter-spacing:0px;word-spacing:0px;fill:#000000;fill-opacity:0.47058824;stroke:none;stroke-width:1px;stroke-linecap:butt;stroke-linejoin:miter;stroke-opacity:1"
           id="path4319"
           inkscape:connector-curvature="0" />
        <path
           d="m 1610.2511,583.45456 -5.489,-14.00631 q 24.4164,-14.95268 36.1515,-44.85804 11.735,-30.09464 14.0063,-88.76972 l 14.0063,1.32493 q -2.6499,63.21766 -16.4669,96.52996 -13.817,33.31231 -42.2082,49.77918 z"
           style="font-style:normal;font-variant:normal;font-weight:bold;font-stretch:normal;font-size:medium;line-height:125%;font-family:Sans;-inkscape-font-specification:'Sans Bold';letter-spacing:0px;word-spacing:0px;fill:#000000;fill-opacity:0.47058824;stroke:none;stroke-width:1px;stroke-linecap:butt;stroke-linejoin:miter;stroke-opacity:1"
           id="path4321"
           inkscape:connector-curvature="0" />
        <path
           d="m 1687.8536,438.09179 11.1672,-6.05678 q 9.4637,11.92429 17.4133,23.6593 l -11.3565,5.86751 q -8.1388,-11.73502 -17.224,-23.47003 z m 21.388,-5.48896 11.3565,-6.24606 q 9.653,12.11357 17.7918,24.03786 l -11.5457,6.05678 q -7.9496,-11.54574 -17.6026,-23.84858 z"
           style="font-style:normal;font-variant:normal;font-weight:bold;font-stretch:normal;font-size:medium;line-height:125%;font-family:Sans;-inkscape-font-specification:'Sans Bold';letter-spacing:0px;word-spacing:0px;fill:#000000;fill-opacity:0.47058824;stroke:none;stroke-width:1px;stroke-linecap:butt;stroke-linejoin:miter;stroke-opacity:1"
           id="path4323"
           inkscape:connector-curvature="0" />
      </g>
      <g
         transform="translate(-6.00007,-6.344747)"
         id="g4259">
        <path
           inkscape:connector-curvature="0"
           id="path4223"
           style="font-style:normal;font-variant:normal;font-weight:bold;font-stretch:normal;font-size:medium;line-height:125%;font-family:Sans;-inkscape-font-specification:'Sans Bold';letter-spacing:0px;word-spacing:0px;fill:#ffffff;fill-opacity:1;stroke:none;stroke-width:1px;stroke-linecap:butt;stroke-linejoin:miter;stroke-opacity:1"
           d="m 181.61007,448.31261 95.96214,0 0,-24.60568 13.81704,0 0,24.60568 51.8612,0 0,11.92429 -51.8612,0 0,42.39747 q 3.59621,10.22082 3.59621,23.28076 0,28.01262 -15.14195,42.9653 -15.14196,14.76341 -48.83281,19.49527 l -2.08202,-13.24921 q 26.49842,-3.40694 38.99054,-13.43849 12.68139,-10.22082 13.62776,-27.82334 l 0,-2.46057 -0.37855,0 q -8.70663,12.68139 -28.76972,12.68139 -15.70978,0 -26.30914,-10.22082 -10.4101,-10.4101 -10.4101,-25.74133 0,-15.33123 10.4101,-25.55205 10.59936,-10.41009 26.30914,-10.41009 14.38486,0 24.79496,8.51735 l 0.37854,0 0,-20.44164 -95.96214,0 0,-11.92429 z m 48.26498,59.81072 q 0,9.84227 7.00316,16.65615 7.19243,6.81388 17.60252,6.81388 10.59937,0 17.60253,-6.81388 7.00315,-6.81388 7.00315,-16.65615 0,-9.84227 -7.00315,-16.46687 -7.00316,-6.81388 -17.60253,-6.81388 -10.41009,0 -17.60252,6.81388 -7.00316,6.81388 -7.00316,16.46687 z" />
        <path
           inkscape:connector-curvature="0"
           id="path4225"
           style="font-style:normal;font-variant:normal;font-weight:bold;font-stretch:normal;font-size:medium;line-height:125%;font-family:Sans;-inkscape-font-specification:'Sans Bold';letter-spacing:0px;word-spacing:0px;fill:#ffffff;fill-opacity:1;stroke:none;stroke-width:1px;stroke-linecap:butt;stroke-linejoin:miter;stroke-opacity:1"
           d="m 471.19998,496.19904 q -42.39748,1.5142 -94.63723,1.5142 l 0,-11.92429 q 37.09779,0 90.09464,-1.32492 -4.35331,-12.87067 -6.62461,-24.03786 -45.80441,1.32492 -76.65615,1.32492 l 0,-12.11356 q 36.52997,0 74.57413,-1.13565 -1.70347,-10.78864 -2.27129,-22.33438 l 13.81704,-0.7571 q 0.75709,10.78864 2.64984,22.71293 25.36277,-0.94637 49.96845,-2.27129 l 0.56783,12.11356 q -33.12303,1.5142 -48.45426,2.08202 2.64984,11.73502 6.81388,23.84858 29.90536,-1.13564 45.61514,-1.89274 l 0.37855,11.92429 q -13.62776,0.7571 -41.26183,1.89274 7.76025,16.84543 18.92744,33.69086 l -12.68139,8.89589 q -26.49842,-12.30283 -49.5899,-12.30283 -38.42271,0 -38.42271,21.19873 0,13.62776 12.68138,20.25237 12.87067,6.62461 41.45111,6.62461 20.44164,0 44.10094,-3.78549 l 1.70347,12.30284 q -23.28075,3.78548 -45.80441,3.78548 -69.27445,0 -69.27445,-39.17981 0,-14.38485 12.87066,-23.6593 12.87067,-9.46372 40.69401,-9.46372 20.63091,0 41.07255,8.1388 l 0.18928,-0.37855 q -7.19243,-13.43849 -12.49211,-25.74133 z" />
        <path
           inkscape:connector-curvature="0"
           id="path4227"
           style="font-style:normal;font-variant:normal;font-weight:bold;font-stretch:normal;font-size:medium;line-height:125%;font-family:Sans;-inkscape-font-specification:'Sans Bold';letter-spacing:0px;word-spacing:0px;fill:#ffffff;fill-opacity:1;stroke:none;stroke-width:1px;stroke-linecap:butt;stroke-linejoin:miter;stroke-opacity:1"
           d="m 762.68263,473.86466 q 11.35646,10.78864 20.44164,23.6593 l -10.59937,8.13881 q -7.76026,-13.05994 -18.5489,-22.52366 l 8.70663,-9.27445 z m 18.92744,-12.30284 q 13.43849,11.35647 21.57729,21.76656 l -10.03155,8.8959 q -8.51735,-13.24921 -20.06309,-21.76656 l 8.51735,-8.8959 z m -68.51735,21.57729 q 23.09148,19.68454 34.8265,32.36593 11.92429,12.68138 22.52366,26.49842 10.59937,13.81703 19.49527,27.63407 -9.84228,7.00315 -16.08833,13.43848 -8.70663,-17.79179 -17.98107,-31.7981 -9.27445,-14.19559 -32.93376,-38.23344 l -20.44164,-14.57413 10.59937,-15.33123 z" />
        <path
           inkscape:connector-curvature="0"
           id="path4229"
           style="font-style:normal;font-variant:normal;font-weight:bold;font-stretch:normal;font-size:medium;line-height:125%;font-family:Sans;-inkscape-font-specification:'Sans Bold';letter-spacing:0px;word-spacing:0px;fill:#ffffff;fill-opacity:1;stroke:none;stroke-width:1px;stroke-linecap:butt;stroke-linejoin:miter;stroke-opacity:1"
           d="m 895.17223,603.70693 q -36.71924,-34.0694 -36.71924,-86.11987 0,-52.05048 36.71924,-86.11988 l 14.38486,0 q -37.09779,34.8265 -37.09779,86.11988 0,51.29337 37.09779,86.11987 l -14.38486,0 z" />
        <path
           inkscape:connector-curvature="0"
           id="path4231"
           style="font-style:normal;font-variant:normal;font-weight:bold;font-stretch:normal;font-size:medium;line-height:125%;font-family:Sans;-inkscape-font-specification:'Sans Bold';letter-spacing:0px;word-spacing:0px;fill:#ffffff;fill-opacity:1;stroke:none;stroke-width:1px;stroke-linecap:butt;stroke-linejoin:miter;stroke-opacity:1"
           d="m 936.24479,570.01608 q 0,-7.94953 5.48896,-13.62776 5.67823,-5.67824 13.81703,-5.67824 7.94953,0 13.62776,5.67824 5.67823,5.67823 5.67823,13.62776 0,8.1388 -5.67823,13.62776 -5.67823,5.67823 -13.62776,5.67823 -8.1388,0 -13.81703,-5.67823 -5.48896,-5.48896 -5.48896,-13.62776 z m 6.05678,0 q 0,5.29968 3.97476,9.27445 3.97477,3.97476 9.27445,3.97476 5.11041,0 9.08517,-3.97476 4.16404,-3.97477 4.16404,-9.27445 0,-5.11041 -4.16404,-9.08518 -3.97476,-4.16403 -9.08517,-4.16403 -5.29968,0 -9.27445,4.16403 -3.97476,3.97477 -3.97476,9.08518 z" />
        <path
           inkscape:connector-curvature="0"
           id="path4233"
           style="font-style:normal;font-variant:normal;font-weight:bold;font-stretch:normal;font-size:medium;line-height:125%;font-family:Sans;-inkscape-font-specification:'Sans Bold';letter-spacing:0px;word-spacing:0px;fill:#ffffff;fill-opacity:1;stroke:none;stroke-width:1px;stroke-linecap:butt;stroke-linejoin:miter;stroke-opacity:1"
           d="m 1036.371,480.67854 0,-15.14196 71.9243,46.37224 0,15.14196 -71.9243,46.37224 0,-15.14196 62.4605,-38.61199 0,-0.37854 -62.4605,-38.61199 z" />
        <path
           inkscape:connector-curvature="0"
           id="path4235"
           style="font-style:normal;font-variant:normal;font-weight:bold;font-stretch:normal;font-size:medium;line-height:125%;font-family:Sans;-inkscape-font-specification:'Sans Bold';letter-spacing:0px;word-spacing:0px;fill:#ffffff;fill-opacity:1;stroke:none;stroke-width:1px;stroke-linecap:butt;stroke-linejoin:miter;stroke-opacity:1"
           d="m 1132.7117,588.3757 c 4.164,2.27129 10.5993,6.24606 17.6025,6.24606 6.8139,0 11.735,-2.83912 18.1703,-6.24606 2.4606,-1.5142 6.6246,-4.54259 13.2492,-4.54259 6.6247,0 10.978,3.02839 13.4385,4.54259 6.2461,3.40694 11.1672,6.24606 18.1704,6.24606 7.0031,0 13.2492,-3.78549 17.6025,-6.24606 5.2997,-2.83912 9.4637,-4.54259 13.817,-4.54259 4.3533,0 8.5174,1.70347 13.8171,4.54259 4.3533,2.27129 10.5993,6.24606 17.6025,6.24606 7.0031,0 11.9243,-2.83912 18.1703,-6.24606 2.4606,-1.5142 7.0032,-4.54259 13.6278,-4.54259 l 0,-14.95268 c -8.1388,0 -13.0599,3.78549 -17.6025,6.24606 -5.2997,2.83911 -9.653,4.54258 -14.1956,4.54258 -4.5426,0 -11.1672,-3.02839 -13.817,-4.54258 -4.7319,-2.83912 -10.7887,-6.24606 -17.6026,-6.24606 -6.8138,0 -12.8706,3.40694 -17.6025,6.24606 -2.6498,1.51419 -9.2744,4.54258 -13.817,4.54258 -4.5426,0 -8.8959,-1.70347 -14.1956,-4.54258 -4.5426,-2.46057 -9.0852,-6.24606 -17.4133,-6.24606 -8.1388,0 -12.8706,3.78549 -17.2239,6.24606 -5.2997,2.83911 -9.653,4.54258 -14.1956,4.54258 -4.7319,0 -11.1672,-3.02839 -13.817,-4.54258 -4.9212,-2.83912 -10.978,-6.24606 -17.7918,-6.24606 l 0,14.95268 c 4.5425,0 8.7066,1.70347 14.0063,4.54259 z" />
        <path
           inkscape:connector-curvature="0"
           id="path4237"
           style="font-style:normal;font-variant:normal;font-weight:bold;font-stretch:normal;font-size:medium;line-height:125%;font-family:Sans;-inkscape-font-specification:'Sans Bold';letter-spacing:0px;word-spacing:0px;fill:#ffffff;fill-opacity:1;stroke:none;stroke-width:1px;stroke-linecap:butt;stroke-linejoin:miter;stroke-opacity:1"
           d="m 1390.3142,480.67854 -62.4606,38.61199 0,0.37854 62.4606,38.61199 0,15.14196 -71.9243,-46.37224 0,-15.14196 71.9243,-46.37224 0,15.14196 z" />
        <path
           inkscape:connector-curvature="0"
           id="path4239"
           style="font-style:normal;font-variant:normal;font-weight:bold;font-stretch:normal;font-size:medium;line-height:125%;font-family:Sans;-inkscape-font-specification:'Sans Bold';letter-spacing:0px;word-spacing:0px;fill:#ffffff;fill-opacity:1;stroke:none;stroke-width:1px;stroke-linecap:butt;stroke-linejoin:miter;stroke-opacity:1"
           d="m 1409.4309,570.01608 q 0,-7.94953 5.489,-13.62776 5.6782,-5.67824 13.817,-5.67824 7.9495,0 13.6278,5.67824 5.6782,5.67823 5.6782,13.62776 0,8.1388 -5.6782,13.62776 -5.6783,5.67823 -13.6278,5.67823 -8.1388,0 -13.817,-5.67823 -5.489,-5.48896 -5.489,-13.62776 z m 6.0568,0 q 0,5.29968 3.9748,9.27445 3.9747,3.97476 9.2744,3.97476 5.1104,0 9.0852,-3.97476 4.164,-3.97477 4.164,-9.27445 0,-5.11041 -4.164,-9.08518 -3.9748,-4.16403 -9.0852,-4.16403 -5.2997,0 -9.2744,4.16403 -3.9748,3.97477 -3.9748,9.08518 z" />
        <path
           inkscape:connector-curvature="0"
           id="path4241"
           style="font-style:normal;font-variant:normal;font-weight:bold;font-stretch:normal;font-size:medium;line-height:125%;font-family:Sans;-inkscape-font-specification:'Sans Bold';letter-spacing:0px;word-spacing:0px;fill:#ffffff;fill-opacity:1;stroke:none;stroke-width:1px;stroke-linecap:butt;stroke-linejoin:miter;stroke-opacity:1"
           d="m 1531.5129,431.46718 q 36.7193,34.0694 36.7193,86.11988 0,52.05047 -36.7193,86.11987 l -14.3848,0 q 37.0978,-34.8265 37.0978,-86.11987 0,-51.29338 -37.0978,-86.11988 l 14.3848,0 z" />
        <path
           inkscape:connector-curvature="0"
           id="path4243"
           style="font-style:normal;font-variant:normal;font-weight:bold;font-stretch:normal;font-size:medium;line-height:125%;font-family:Sans;-inkscape-font-specification:'Sans Bold';letter-spacing:0px;word-spacing:0px;fill:#ffffff;fill-opacity:1;stroke:none;stroke-width:1px;stroke-linecap:butt;stroke-linejoin:miter;stroke-opacity:1"
           d="m 1610.2511,583.45456 -5.489,-14.00631 q 24.4164,-14.95268 36.1515,-44.85804 11.735,-30.09464 14.0063,-88.76972 l 14.0063,1.32493 q -2.6499,63.21766 -16.4669,96.52996 -13.817,33.31231 -42.2082,49.77918 z" />
        <path
           inkscape:connector-curvature="0"
           id="path4245"
           style="font-style:normal;font-variant:normal;font-weight:bold;font-stretch:normal;font-size:medium;line-height:125%;font-family:Sans;-inkscape-font-specification:'Sans Bold';letter-spacing:0px;word-spacing:0px;fill:#ffffff;fill-opacity:1;stroke:none;stroke-width:1px;stroke-linecap:butt;stroke-linejoin:miter;stroke-opacity:1"
           d="m 1687.8536,438.09179 11.1672,-6.05678 q 9.4637,11.92429 17.4133,23.6593 l -11.3565,5.86751 q -8.1388,-11.73502 -17.224,-23.47003 z m 21.388,-5.48896 11.3565,-6.24606 q 9.653,12.11357 17.7918,24.03786 l -11.5457,6.05678 q -7.9496,-11.54574 -17.6026,-23.84858 z" />
      </g>
    </g>
  </g>
</svg>
