<?xml version="1.0" encoding="UTF-8" standalone="no"?>
<!-- Created with Inkscape (http://www.inkscape.org/) -->

<svg
   width="512"
   height="512"
   viewBox="0 0 135.46666 135.46668"
   version="1.1"
   id="svg1136"
   inkscape:export-filename="/media/MEGA/Design/graphic/illustrations/evangelion/sahaquiel.png"
   inkscape:export-xdpi="600"
   inkscape:export-ydpi="600"
   inkscape:version="1.1.2 (0a00cf5339, 2022-02-04)"
   sodipodi:docname="neon-genesis-evangelion-sachiel.svg"
   xmlns:inkscape="http://www.inkscape.org/namespaces/inkscape"
   xmlns:sodipodi="http://sodipodi.sourceforge.net/DTD/sodipodi-0.dtd"
   xmlns="http://www.w3.org/2000/svg"
   xmlns:svg="http://www.w3.org/2000/svg"
   xmlns:rdf="http://www.w3.org/1999/02/22-rdf-syntax-ns#"
   xmlns:cc="http://creativecommons.org/ns#"
   xmlns:dc="http://purl.org/dc/elements/1.1/">
  <defs
     id="defs1130" />
  <sodipodi:namedview
     id="base"
     pagecolor="#ffffff"
     bordercolor="#666666"
     borderopacity="1.0"
     inkscape:pageopacity="0.0"
     inkscape:pageshadow="2"
     inkscape:zoom="2.375"
     inkscape:cx="181.26316"
     inkscape:cy="256"
     inkscape:document-units="px"
     inkscape:current-layer="layer1"
     showgrid="false"
     inkscape:showpageshadow="false"
     borderlayer="true"
     units="px"
     showguides="false"
     inkscape:pagecheckerboard="0"
     inkscape:window-width="3840"
     inkscape:window-height="2133"
     inkscape:window-x="0"
     inkscape:window-y="0"
     inkscape:window-maximized="1">
    <inkscape:grid
       type="xygrid"
       id="grid1410"
       empspacing="8" />
  </sodipodi:namedview>
  <metadata
     id="metadata1133">
    <rdf:RDF>
      <cc:Work
         rdf:about="">
        <dc:format>image/svg+xml</dc:format>
        <dc:type
           rdf:resource="http://purl.org/dc/dcmitype/StillImage" />
      </cc:Work>
    </rdf:RDF>
  </metadata>
  <g
     inkscape:label="Background"
     inkscape:groupmode="layer"
     id="layer1"
     transform="translate(0,-161.53332)"
     style="display:inline"
     sodipodi:insensitive="true">
    <rect
       style="opacity:1;fill:#000000;fill-opacity:1;stroke:none;stroke-width:0.3048;stroke-linecap:round;stroke-linejoin:round;stroke-miterlimit:4;stroke-dasharray:none;stroke-opacity:1"
       id="rect1412"
       width="135.16187"
       height="135.16187"
       x="0.15240239"
       y="161.68573" />
  </g>
  <g
     inkscape:groupmode="layer"
     id="layer2"
     inkscape:label="Lilith"
     sodipodi:insensitive="true"
     style="display:none">
    <g
       id="g1439"
       transform="translate(373.89404,8.2176215)"
       style="fill:#000000;stroke:#ffffff">
      <g
         transform="translate(-189.26981,102.19728)"
         style="display:inline;opacity:1;fill:#000000;stroke:#ffffff;stroke-width:0.3175;stroke-miterlimit:4;stroke-dasharray:none"
         id="g1900">
        <path
           sodipodi:type="star"
           style="opacity:1;fill:#000000;fill-opacity:1;stroke:#ffffff;stroke-width:0.35124448;stroke-linecap:round;stroke-linejoin:round;stroke-miterlimit:4;stroke-dasharray:none"
           id="path1777"
           sodipodi:sides="3"
           sodipodi:cx="-116.8909"
           sodipodi:cy="-45.765865"
           sodipodi:r1="16.93281"
           sodipodi:r2="8.4664049"
           sodipodi:arg1="1.5707963"
           sodipodi:arg2="2.6179939"
           inkscape:flatsided="true"
           inkscape:rounded="0"
           inkscape:randomized="0"
           d="m -116.8909,-28.833055 -14.66424,-25.399215 29.32848,-10e-7 z"
           inkscape:transform-center-y="3.8260573"
           transform="matrix(0.90403649,0,0,0.90382111,-11.217262,-5.1434608)" />
        <path
           style="fill:#000000;stroke:#ffffff;stroke-width:0.3175;stroke-linecap:butt;stroke-linejoin:miter;stroke-miterlimit:4;stroke-dasharray:none;stroke-opacity:1"
           d="m -116.8909,-31.203385 c 0,-22.956346 0,-22.956346 0,-22.956346"
           id="path1844"
           inkscape:connector-curvature="0" />
        <g
           style="fill:#000000;stroke:#ffffff"
           id="g1951">
          <g
             style="fill:#000000;stroke:#ffffff"
             id="g1920">
            <path
               style="fill:#000000;stroke:#ffffff;stroke-width:0.3175;stroke-linecap:butt;stroke-linejoin:miter;stroke-miterlimit:4;stroke-dasharray:none;stroke-opacity:1"
               d="m -125.19974,-52.124494 c -3.81,0 -5.715,1.905003 -5.715,1.905003 0,0 1.905,1.905003 5.715,1.905003 3.81,0 5.715,-1.905003 5.715,-1.905003 0,0 -1.905,-1.905003 -5.715,-1.905003 z"
               id="path872-9"
               inkscape:connector-curvature="0"
               sodipodi:nodetypes="ccccc" />
            <circle
               r="1.7638906"
               cy="50.21949"
               cx="-125.19975"
               id="circle882-3"
               style="opacity:1;fill:#000000;fill-opacity:1;stroke:#ffffff;stroke-width:0.3175;stroke-linecap:round;stroke-linejoin:round;stroke-miterlimit:4;stroke-dasharray:none"
               transform="scale(1,-1)" />
          </g>
          <g
             style="fill:#000000;stroke:#ffffff"
             id="g1924">
            <path
               sodipodi:nodetypes="ccccc"
               inkscape:connector-curvature="0"
               id="path1812"
               d="m -125.19974,-46.884254 c -3.81,0 -5.715,1.905003 -5.715,1.905003 0,0 1.905,1.905003 5.715,1.905003 3.81,0 5.715,-1.905003 5.715,-1.905003 0,0 -1.905,-1.905003 -5.715,-1.905003 z"
               style="fill:#000000;stroke:#ffffff;stroke-width:0.3175;stroke-linecap:butt;stroke-linejoin:miter;stroke-miterlimit:4;stroke-dasharray:none;stroke-opacity:1" />
            <circle
               transform="scale(1,-1)"
               style="opacity:1;fill:#000000;fill-opacity:1;stroke:#ffffff;stroke-width:0.3175;stroke-linecap:round;stroke-linejoin:round;stroke-miterlimit:4;stroke-dasharray:none"
               id="circle1815"
               cx="-125.19975"
               cy="44.979252"
               r="1.7638906" />
          </g>
          <g
             style="fill:#000000;stroke:#ffffff"
             id="g1928">
            <path
               style="fill:#000000;stroke:#ffffff;stroke-width:0.3175;stroke-linecap:butt;stroke-linejoin:miter;stroke-miterlimit:4;stroke-dasharray:none;stroke-opacity:1"
               d="m -125.19974,-41.644014 c -3.81,0 -5.715,1.905003 -5.715,1.905003 0,0 1.905,1.905003 5.715,1.905003 3.81,0 5.715,-1.905003 5.715,-1.905003 0,0 -1.905,-1.905003 -5.715,-1.905003 z"
               id="path1825"
               inkscape:connector-curvature="0"
               sodipodi:nodetypes="ccccc" />
            <circle
               r="1.7638906"
               cy="39.73901"
               cx="-125.19975"
               id="circle1827"
               style="opacity:1;fill:#000000;fill-opacity:1;stroke:#ffffff;stroke-width:0.3175;stroke-linecap:round;stroke-linejoin:round;stroke-miterlimit:4;stroke-dasharray:none"
               transform="scale(1,-1)" />
          </g>
          <g
             style="fill:#000000;stroke:#ffffff"
             id="g1916">
            <path
               sodipodi:nodetypes="ccccc"
               inkscape:connector-curvature="0"
               id="path1846"
               d="m -108.58206,-52.124494 c 3.81,0 5.715,1.905003 5.715,1.905003 0,0 -1.905,1.905003 -5.715,1.905003 -3.81,0 -5.715,-1.905003 -5.715,-1.905003 0,0 1.905,-1.905003 5.715,-1.905003 z"
               style="fill:#000000;stroke:#ffffff;stroke-width:0.3175;stroke-linecap:butt;stroke-linejoin:miter;stroke-miterlimit:4;stroke-dasharray:none;stroke-opacity:1" />
            <circle
               transform="scale(-1)"
               style="opacity:1;fill:#000000;fill-opacity:1;stroke:#ffffff;stroke-width:0.3175;stroke-linecap:round;stroke-linejoin:round;stroke-miterlimit:4;stroke-dasharray:none"
               id="circle1848"
               cx="108.58206"
               cy="50.21949"
               r="1.7638906" />
          </g>
          <g
             style="fill:#000000;stroke:#ffffff"
             id="g1912">
            <path
               style="fill:#000000;stroke:#ffffff;stroke-width:0.3175;stroke-linecap:butt;stroke-linejoin:miter;stroke-miterlimit:4;stroke-dasharray:none;stroke-opacity:1"
               d="m -108.58206,-46.884254 c 3.81,0 5.715,1.905003 5.715,1.905003 0,0 -1.905,1.905003 -5.715,1.905003 -3.81,0 -5.715,-1.905003 -5.715,-1.905003 0,0 1.905,-1.905003 5.715,-1.905003 z"
               id="path1852"
               inkscape:connector-curvature="0"
               sodipodi:nodetypes="ccccc" />
            <circle
               r="1.7638906"
               cy="44.979252"
               cx="108.58206"
               id="circle1854"
               style="opacity:1;fill:#000000;fill-opacity:1;stroke:#ffffff;stroke-width:0.3175;stroke-linecap:round;stroke-linejoin:round;stroke-miterlimit:4;stroke-dasharray:none"
               transform="scale(-1)" />
          </g>
          <g
             style="fill:#000000;stroke:#ffffff"
             id="g1908">
            <path
               sodipodi:nodetypes="ccccc"
               inkscape:connector-curvature="0"
               id="path1858"
               d="m -108.58206,-41.644014 c 3.81,0 5.715,1.905003 5.715,1.905003 0,0 -1.905,1.905003 -5.715,1.905003 -3.81,0 -5.715,-1.905003 -5.715,-1.905003 0,0 1.905,-1.905003 5.715,-1.905003 z"
               style="fill:#000000;stroke:#ffffff;stroke-width:0.3175;stroke-linecap:butt;stroke-linejoin:miter;stroke-miterlimit:4;stroke-dasharray:none;stroke-opacity:1" />
            <circle
               transform="scale(-1)"
               style="opacity:1;fill:#000000;fill-opacity:1;stroke:#ffffff;stroke-width:0.3175;stroke-linecap:round;stroke-linejoin:round;stroke-miterlimit:4;stroke-dasharray:none"
               id="circle1860"
               cx="108.58206"
               cy="39.73901"
               r="1.7638906" />
          </g>
          <g
             style="fill:#000000;stroke:#ffffff"
             id="g1904">
            <path
               style="fill:#000000;stroke:#ffffff;stroke-width:0.3175;stroke-linecap:butt;stroke-linejoin:miter;stroke-miterlimit:4;stroke-dasharray:none;stroke-opacity:1"
               d="m -108.58206,-36.403774 c 3.81,0 5.715,1.905003 5.715,1.905003 0,0 -1.905,1.905003 -5.715,1.905003 -3.81,0 -5.715,-1.905003 -5.715,-1.905003 0,0 1.905,-1.905003 5.715,-1.905003 z"
               id="path1864"
               inkscape:connector-curvature="0"
               sodipodi:nodetypes="ccccc" />
            <circle
               r="1.7638906"
               cy="34.498772"
               cx="108.58206"
               id="circle1866"
               style="opacity:1;fill:#000000;fill-opacity:1;stroke:#ffffff;stroke-width:0.3175;stroke-linecap:round;stroke-linejoin:round;stroke-miterlimit:4;stroke-dasharray:none"
               transform="scale(-1)" />
          </g>
        </g>
      </g>
    </g>
  </g>
  <g
     inkscape:groupmode="layer"
     id="layer3"
     inkscape:label="Sachiel"
     sodipodi:insensitive="true"
     style="display:inline">
    <g
       style="display:inline;opacity:1;fill:#000000;stroke:#ffffff;stroke-width:0.3048;stroke-linecap:round;stroke-linejoin:round;stroke-miterlimit:4;stroke-dasharray:none"
       id="g4773"
       transform="translate(84.931252,83.476055)">
      <path
         inkscape:connector-curvature="0"
         style="fill:#000000;fill-opacity:1;stroke:#ffffff;stroke-width:1.152;stroke-linecap:round;stroke-linejoin:round;stroke-miterlimit:4;stroke-dasharray:none"
         d="m -65,-112 c -22.091391,0 -40,17.90862 -40,40 0,17.308969 10.994837,28.978437 26.380859,33.220703 L -65,-7 -51.380859,-38.779297 C -35.994839,-43.021563 -25,-54.691031 -25,-72 c 0,-22.09138 -17.908609,-40 -40,-40 z"
         transform="scale(0.26458334)"
         id="path3892" />
      <g
         id="g3784"
         style="fill:#000000;stroke:#ffffff">
        <circle
           r="2.286"
           cy="-16.876635"
           cx="-11.481027"
           id="path3949"
           style="fill:#000000;fill-opacity:1;stroke:#ffffff;stroke-width:0.3048;stroke-linecap:round;stroke-linejoin:round;stroke-miterlimit:4;stroke-dasharray:none" />
        <circle
           transform="scale(-1,1)"
           style="fill:#000000;fill-opacity:1;stroke:#ffffff;stroke-width:0.3048;stroke-linecap:round;stroke-linejoin:round;stroke-miterlimit:4;stroke-dasharray:none"
           id="circle3961"
           cx="22.91481"
           cy="-16.876635"
           r="2.286" />
      </g>
    </g>
  </g>
  <g
     inkscape:groupmode="layer"
     id="layer4"
     inkscape:label="Ramiel"
     sodipodi:insensitive="true"
     style="display:none">
    <g
       transform="translate(-34.096942,399.72455)"
       style="display:inline;opacity:1;fill:#000000;stroke:#ffffff"
       id="g2437">
      <path
         sodipodi:nodetypes="ccccccccc"
         inkscape:connector-curvature="0"
         id="path1864-3"
         d="m 101.83028,-345.96121 13.81125,13.81124 -0.15875,0.15875 0.15875,0.15875 -13.81125,13.81126 -13.811256,-13.81126 0.15875,-0.15875 -0.15875,-0.15875 z"
         style="opacity:1;fill:#000000;fill-opacity:1;stroke:#ffffff;stroke-width:0.3048;stroke-linecap:round;stroke-linejoin:round;stroke-miterlimit:4;stroke-dasharray:none" />
      <path
         sodipodi:nodetypes="cccc"
         style="fill:#000000;stroke:#ffffff;stroke-width:0.3048;stroke-linecap:butt;stroke-linejoin:miter;stroke-miterlimit:4;stroke-dasharray:none;stroke-opacity:1"
         d="m 101.83028,-345.96122 -3.175005,10.795 v 1.905 l 3.175005,15.24"
         id="path1868-7"
         inkscape:connector-curvature="0" />
      <path
         sodipodi:nodetypes="ccc"
         style="fill:none;stroke:#ffffff;stroke-width:0.3048;stroke-linecap:butt;stroke-linejoin:miter;stroke-miterlimit:4;stroke-dasharray:none;stroke-opacity:1"
         d="m 88.019024,-332.14997 10.636251,-3.01625 16.986255,3.01625"
         id="path1866-6"
         inkscape:connector-curvature="0" />
      <path
         sodipodi:nodetypes="ccc"
         inkscape:connector-curvature="0"
         id="path2430"
         d="m 88.019024,-331.83247 10.636251,-1.42875 16.986255,1.42875"
         style="fill:none;stroke:#ffffff;stroke-width:0.3048;stroke-linecap:butt;stroke-linejoin:miter;stroke-miterlimit:4;stroke-dasharray:none;stroke-opacity:1" />
    </g>
  </g>
  <g
     inkscape:groupmode="layer"
     id="layer5"
     inkscape:label="Israfel"
     sodipodi:insensitive="true"
     style="display:none">
    <g
       transform="translate(151.63585,-217.00009)"
       style="display:inline;opacity:1;fill:#000000;stroke:#ffffff;stroke-width:0.3175;stroke-miterlimit:4;stroke-dasharray:none"
       id="g2114">
      <circle
         r="10.386635"
         cy="284.73343"
         cx="-83.902512"
         id="path2080"
         style="opacity:1;fill:#000000;fill-opacity:1;stroke:#ffffff;stroke-width:0.3175;stroke-linecap:round;stroke-linejoin:round;stroke-miterlimit:4;stroke-dasharray:none;stroke-opacity:1" />
      <g
         id="g2126"
         style="fill:#000000;stroke:#ffffff">
        <circle
           style="opacity:1;fill:#000000;fill-opacity:1;stroke:#ffffff;stroke-width:0.3175;stroke-linecap:round;stroke-linejoin:round;stroke-miterlimit:4;stroke-dasharray:none;stroke-opacity:1"
           id="path2082"
           cx="-83.902512"
           cy="279.0936"
           r="2.9608946" />
        <circle
           style="opacity:1;fill:#ffffff;fill-opacity:1;stroke:#ffffff;stroke-width:0.3175;stroke-linecap:round;stroke-linejoin:round;stroke-miterlimit:4;stroke-dasharray:none;stroke-opacity:1"
           id="path2090"
           cx="-83.902512"
           cy="277.47641"
           r="0.56823486" />
        <circle
           r="0.56823486"
           cy="279.90219"
           cx="-82.501976"
           id="circle2092"
           style="opacity:1;fill:#ffffff;fill-opacity:1;stroke:#ffffff;stroke-width:0.3175;stroke-linecap:round;stroke-linejoin:round;stroke-miterlimit:4;stroke-dasharray:none;stroke-opacity:1" />
        <circle
           style="opacity:1;fill:#ffffff;fill-opacity:1;stroke:#ffffff;stroke-width:0.3175;stroke-linecap:round;stroke-linejoin:round;stroke-miterlimit:4;stroke-dasharray:none;stroke-opacity:1"
           id="circle2094"
           cx="-85.303032"
           cy="279.90219"
           r="0.56823486" />
      </g>
    </g>
  </g>
  <g
     inkscape:groupmode="layer"
     id="layer6"
     inkscape:label="Sahaquiel"
     sodipodi:insensitive="true"
     style="display:none">
    <g
       style="display:inline;opacity:1;stroke:#ffffff"
       id="g1727"
       transform="translate(164.26436,82.336063)">
      <circle
         r="3.9560513"
         cy="-14.612271"
         cx="-96.522469"
         id="path829"
         style="opacity:1;fill:none;fill-opacity:1;stroke:#ffffff;stroke-width:0.3175;stroke-linecap:round;stroke-linejoin:round;stroke-miterlimit:4;stroke-dasharray:none" />
      <circle
         style="opacity:1;fill:none;fill-opacity:1;stroke:#ffffff;stroke-width:0.3175;stroke-linecap:round;stroke-linejoin:round;stroke-miterlimit:4;stroke-dasharray:none"
         id="circle831"
         cx="-96.522469"
         cy="-14.612271"
         r="5.246119" />
      <path
         inkscape:connector-curvature="0"
         id="path845"
         d="m -96.522469,-9.1127996 c -6.966081,0 -10.549471,-5.4994714 -10.549471,-5.4994714 0,0 3.58339,-5.499472 10.549471,-5.499472 6.966089,0 10.549476,5.499472 10.549476,5.499472 0,0 -3.583387,5.4994714 -10.549476,5.4994714 z"
         style="fill:none;stroke:#ffffff;stroke-width:0.4318;stroke-linecap:butt;stroke-linejoin:miter;stroke-miterlimit:4;stroke-dasharray:none;stroke-opacity:1"
         sodipodi:nodetypes="ccccc" />
      <path
         sodipodi:nodetypes="ssscs"
         inkscape:connector-curvature="0"
         id="path1658"
         d="m -95.887469,-2.1087126 c 0,0.350701 -0.2843,0.635 -0.635,0.635 -0.3507,0 -0.635,-0.284299 -0.635,-0.635 0,-0.350701 1e-5,0 0.63501,-6.985 0.635,6.985 0.63499,6.634299 0.63499,6.985 z"
         style="opacity:1;fill:#ffffff;fill-opacity:1;stroke:#ffffff;stroke-width:0.3175;stroke-linecap:round;stroke-linejoin:round;stroke-miterlimit:4;stroke-dasharray:none" />
      <path
         style="opacity:1;fill:#ffffff;fill-opacity:1;stroke:#ffffff;stroke-width:0.3175;stroke-linecap:round;stroke-linejoin:round;stroke-miterlimit:4;stroke-dasharray:none"
         d="m -95.887469,-27.096743 c 0,-0.350701 -0.2843,-0.635 -0.635,-0.635 -0.3507,0 -0.635,0.284299 -0.635,0.635 0,0.350701 1e-5,0 0.63501,6.985 0.635,-6.985 0.63499,-6.634299 0.63499,-6.985 z"
         id="path1661"
         inkscape:connector-curvature="0"
         sodipodi:nodetypes="ssscs" />
      <path
         style="opacity:1;fill:#ffffff;fill-opacity:1;stroke:#ffffff;stroke-width:0.3175;stroke-linecap:round;stroke-linejoin:round;stroke-miterlimit:4;stroke-dasharray:none"
         d="m -104.40352,-23.896614 c -0.13947,-0.241564 -0.44836,-0.324331 -0.68992,-0.184863 -0.24157,0.139467 -0.32434,0.448356 -0.18487,0.68992 0.13947,0.241566 1e-5,-4e-6 3.21522,4.558786 -2.34043,-5.063847 -2.20097,-4.822277 -2.34043,-5.063843 z"
         id="path1673"
         inkscape:connector-curvature="0"
         sodipodi:nodetypes="ssscs"
         inkscape:transform-center-x="4.3756434"
         inkscape:transform-center-y="-7.3939278" />
      <path
         inkscape:transform-center-y="-7.3939278"
         inkscape:transform-center-x="-4.3756435"
         sodipodi:nodetypes="ssscs"
         inkscape:connector-curvature="0"
         id="path1677"
         d="m -88.641415,-23.896614 c 0.13947,-0.241564 0.44836,-0.324331 0.68992,-0.184863 0.24157,0.139467 0.32434,0.448356 0.18487,0.68992 -0.13947,0.241566 -10e-6,-4e-6 -3.21522,4.558786 2.34043,-5.063847 2.20097,-4.822277 2.34043,-5.063843 z"
         style="opacity:1;fill:#ffffff;fill-opacity:1;stroke:#ffffff;stroke-width:0.3175;stroke-linecap:round;stroke-linejoin:round;stroke-miterlimit:4;stroke-dasharray:none" />
      <path
         style="opacity:1;fill:#ffffff;fill-opacity:1;stroke:#ffffff;stroke-width:0.3175;stroke-linecap:round;stroke-linejoin:round;stroke-miterlimit:4;stroke-dasharray:none"
         d="m -88.641417,-5.3279283 c 0.13947,0.241564 0.44836,0.324331 0.68992,0.184863 0.24157,-0.139467 0.32434,-0.448356 0.18487,-0.68992 -0.13947,-0.241566 -1e-5,4e-6 -3.21522,-4.5587857 2.34043,5.0638467 2.20097,4.8222767 2.34043,5.0638427 z"
         id="path1681"
         inkscape:connector-curvature="0"
         sodipodi:nodetypes="ssscs"
         inkscape:transform-center-x="-4.3756435"
         inkscape:transform-center-y="7.3939278" />
      <path
         inkscape:transform-center-y="7.3939278"
         inkscape:transform-center-x="4.3756434"
         sodipodi:nodetypes="ssscs"
         inkscape:connector-curvature="0"
         id="path1686"
         d="m -104.4035,-5.3279283 c -0.13947,0.241564 -0.44836,0.324331 -0.68992,0.184863 -0.24157,-0.139467 -0.32434,-0.448356 -0.18487,-0.68992 0.13947,-0.241566 1e-5,4e-6 3.21522,-4.5587857 -2.34043,5.0638467 -2.20097,4.8222767 -2.34043,5.0638427 z"
         style="opacity:1;fill:#ffffff;fill-opacity:1;stroke:#ffffff;stroke-width:0.3175;stroke-linecap:round;stroke-linejoin:round;stroke-miterlimit:4;stroke-dasharray:none" />
      <path
         sodipodi:nodetypes="ssscs"
         inkscape:connector-curvature="0"
         id="path1688"
         d="m -82.256939,-14.27289 c 0.187435,0 0.33938,-0.151947 0.33938,-0.339381 0,-0.187434 -0.151945,-0.339381 -0.33938,-0.339381 -0.187435,0 0,6e-6 -3.733185,0.339386 3.733185,0.33938 3.54575,0.339376 3.733185,0.339376 z"
         style="opacity:1;fill:#ffffff;fill-opacity:1;stroke:#ffffff;stroke-width:0.3175;stroke-linecap:round;stroke-linejoin:round;stroke-miterlimit:4;stroke-dasharray:none" />
      <path
         style="opacity:1;fill:#ffffff;fill-opacity:1;stroke:#ffffff;stroke-width:0.3175;stroke-linecap:round;stroke-linejoin:round;stroke-miterlimit:4;stroke-dasharray:none"
         d="m -110.80512,-14.27289 c -0.18744,0 -0.33938,-0.151947 -0.33938,-0.339381 0,-0.187434 0.15194,-0.339381 0.33938,-0.339381 0.18743,0 0,6e-6 3.73318,0.339386 -3.73318,0.33938 -3.54575,0.339376 -3.73318,0.339376 z"
         id="path1690"
         inkscape:connector-curvature="0"
         sodipodi:nodetypes="ssscs" />
    </g>
  </g>
</svg>
