<?xml version="1.0" encoding="UTF-8" standalone="no"?>
<!-- Created with Inkscape (http://www.inkscape.org/) -->

<svg
   xmlns:dc="http://purl.org/dc/elements/1.1/"
   xmlns:cc="http://creativecommons.org/ns#"
   xmlns:rdf="http://www.w3.org/1999/02/22-rdf-syntax-ns#"
   xmlns:svg="http://www.w3.org/2000/svg"
   xmlns="http://www.w3.org/2000/svg"
   xmlns:xlink="http://www.w3.org/1999/xlink"
   xmlns:sodipodi="http://sodipodi.sourceforge.net/DTD/sodipodi-0.dtd"
   xmlns:inkscape="http://www.inkscape.org/namespaces/inkscape"
   width="1024"
   height="1024"
   id="svg2"
   version="1.1"
   inkscape:version="0.48.4 r9939"
   sodipodi:docname="pikachu candy.svg"
   inkscape:export-filename="/home/nathanel/pikachu.png"
   inkscape:export-xdpi="90"
   inkscape:export-ydpi="90">
  <defs
     id="defs4">
    <linearGradient
       id="linearGradient3822">
      <stop
         style="stop-color:#c8a500;stop-opacity:1;"
         offset="0"
         id="stop3824" />
      <stop
         style="stop-color:#000000;stop-opacity:0;"
         offset="1"
         id="stop3826" />
    </linearGradient>
    <linearGradient
       id="linearGradient4396">
      <stop
         style="stop-color:#ff8967;stop-opacity:1;"
         offset="0"
         id="stop4398" />
      <stop
         style="stop-color:#f24200;stop-opacity:1;"
         offset="1"
         id="stop4400" />
    </linearGradient>
    <linearGradient
       id="linearGradient4264">
      <stop
         style="stop-color:#666666;stop-opacity:0.66666669;"
         offset="0"
         id="stop4266" />
      <stop
         style="stop-color:#8e8e8e;stop-opacity:0.43137255;"
         offset="1"
         id="stop4268" />
    </linearGradient>
    <linearGradient
       id="linearGradient4256">
      <stop
         style="stop-color:#808080;stop-opacity:1;"
         offset="0"
         id="stop4258" />
      <stop
         style="stop-color:#808080;stop-opacity:0.43137255;"
         offset="1"
         id="stop4260" />
    </linearGradient>
    <linearGradient
       id="linearGradient4240">
      <stop
         style="stop-color:#ffe571;stop-opacity:1;"
         offset="0"
         id="stop4242" />
      <stop
         style="stop-color:#ffdd41;stop-opacity:1;"
         offset="1"
         id="stop4244" />
    </linearGradient>
    <linearGradient
       id="linearGradient4230">
      <stop
         style="stop-color:#ffe571;stop-opacity:1;"
         offset="0"
         id="stop4232" />
      <stop
         style="stop-color:#ffdd41;stop-opacity:1;"
         offset="1"
         id="stop4234" />
    </linearGradient>
    <linearGradient
       id="linearGradient4222">
      <stop
         style="stop-color:#ffdc3f;stop-opacity:1;"
         offset="0"
         id="stop4224" />
      <stop
         style="stop-color:#f9e06d;stop-opacity:0;"
         offset="1"
         id="stop4226" />
    </linearGradient>
    <linearGradient
       id="linearGradient4214">
      <stop
         style="stop-color:#ffd516;stop-opacity:1;"
         offset="0"
         id="stop4216" />
      <stop
         style="stop-color:#f9e06d;stop-opacity:0;"
         offset="1"
         id="stop4218" />
    </linearGradient>
    <radialGradient
       inkscape:collect="always"
       xlink:href="#linearGradient4230"
       id="radialGradient4236"
       cx="532.61719"
       cy="543.58313"
       fx="532.61719"
       fy="543.58313"
       r="280.30389"
       gradientTransform="matrix(0.77059219,0.51372806,-0.71384521,1.070768,498.60358,-312.00618)"
       gradientUnits="userSpaceOnUse" />
    <linearGradient
       inkscape:collect="always"
       xlink:href="#linearGradient4240"
       id="linearGradient4246"
       x1="193"
       y1="463.66562"
       x2="313"
       y2="655.66559"
       gradientUnits="userSpaceOnUse" />
    <radialGradient
       inkscape:collect="always"
       xlink:href="#linearGradient4222"
       id="radialGradient4282"
       cx="443.81808"
       cy="552.57654"
       fx="443.81808"
       fy="552.57654"
       r="60"
       gradientTransform="matrix(1.5578939,-2.6983514,2.0780926,1.1997873,-1375.7267,1098.965)"
       gradientUnits="userSpaceOnUse" />
    <radialGradient
       inkscape:collect="always"
       xlink:href="#linearGradient4214"
       id="radialGradient4298"
       cx="590.31012"
       cy="562.87634"
       fx="590.31012"
       fy="562.87634"
       r="38.073407"
       gradientTransform="matrix(2.1344989,2.1344989,-2.1012038,2.1012038,490.70158,-1886.372)"
       gradientUnits="userSpaceOnUse" />
    <filter
       id="filter4348"
       style="color-interpolation-filters:sRGB;"
       inkscape:label="Drop Shadow">
      <feFlood
         id="feFlood4350"
         flood-opacity="0.3"
         flood-color="rgb(0,0,0)"
         result="flood" />
      <feComposite
         id="feComposite4352"
         in2="SourceGraphic"
         in="flood"
         operator="in"
         result="composite1" />
      <feGaussianBlur
         id="feGaussianBlur4354"
         in="composite"
         stdDeviation="4"
         result="blur" />
      <feOffset
         id="feOffset4356"
         dx="-4"
         dy="0"
         result="offset" />
      <feComposite
         id="feComposite4358"
         in2="offset"
         in="SourceGraphic"
         operator="over"
         result="composite2" />
    </filter>
    <radialGradient
       inkscape:collect="always"
       xlink:href="#linearGradient4396"
       id="radialGradient4402"
       cx="328"
       cy="404.36218"
       fx="328"
       fy="404.36218"
       r="40"
       gradientUnits="userSpaceOnUse" />
    <radialGradient
       inkscape:collect="always"
       xlink:href="#linearGradient4396"
       id="radialGradient4410"
       cx="704"
       cy="242.48233"
       fx="704"
       fy="242.48233"
       r="14.875812"
       gradientTransform="matrix(1.0755708,-3.7345926e-7,6.026458e-7,1.7006269,-53.201972,-168.00951)"
       gradientUnits="userSpaceOnUse" />
    <linearGradient
       inkscape:collect="always"
       xlink:href="#linearGradient3822"
       id="linearGradient3828"
       x1="568"
       y1="556.36218"
       x2="576"
       y2="508.36221"
       gradientUnits="userSpaceOnUse" />
    <linearGradient
       inkscape:collect="always"
       xlink:href="#linearGradient3822"
       id="linearGradient3836"
       x1="464"
       y1="564.36218"
       x2="408"
       y2="540.36218"
       gradientUnits="userSpaceOnUse" />
    <linearGradient
       inkscape:collect="always"
       xlink:href="#linearGradient3822"
       id="linearGradient3844"
       x1="585"
       y1="791.66559"
       x2="585"
       y2="607.66559"
       gradientUnits="userSpaceOnUse" />
    <linearGradient
       inkscape:collect="always"
       xlink:href="#linearGradient3822"
       id="linearGradient3855"
       x1="121"
       y1="511.66562"
       x2="257"
       y2="615.66559"
       gradientUnits="userSpaceOnUse" />
  </defs>
  <sodipodi:namedview
     id="base"
     pagecolor="#ffffff"
     bordercolor="#666666"
     borderopacity="1.0"
     inkscape:pageopacity="0.0"
     inkscape:pageshadow="2"
     inkscape:zoom="0.86914062"
     inkscape:cx="380.83595"
     inkscape:cy="512"
     inkscape:document-units="px"
     inkscape:current-layer="layer2"
     showgrid="false"
     inkscape:showpageshadow="false"
     borderlayer="true"
     inkscape:object-paths="true"
     inkscape:snap-intersection-paths="true"
     inkscape:object-nodes="true"
     inkscape:snap-smooth-nodes="true"
     inkscape:snap-midpoints="true"
     inkscape:snap-object-midpoints="false"
     inkscape:snap-center="false"
     inkscape:snap-grids="true"
     inkscape:window-width="1920"
     inkscape:window-height="1057"
     inkscape:window-x="0"
     inkscape:window-y="0"
     inkscape:window-maximized="1"
     fit-margin-top="0"
     fit-margin-left="0"
     fit-margin-right="0"
     fit-margin-bottom="0"
     inkscape:snap-nodes="true">
    <inkscape:grid
       type="xygrid"
       id="grid2996"
       empspacing="8"
       visible="true"
       enabled="true"
       snapvisiblegridlinesonly="true"
       originx="121px"
       originy="-175.66561px" />
  </sodipodi:namedview>
  <metadata
     id="metadata7">
    <rdf:RDF>
      <cc:Work
         rdf:about="">
        <dc:format>image/svg+xml</dc:format>
        <dc:type
           rdf:resource="http://purl.org/dc/dcmitype/StillImage" />
        <dc:title />
      </cc:Work>
    </rdf:RDF>
  </metadata>
  <g
     inkscape:groupmode="layer"
     id="layer2"
     inkscape:label="Layer"
     transform="translate(121,147.30341)">
    <rect
       style="fill:#ffccaa;fill-opacity:1;stroke:none"
       id="rect4418"
       width="1024"
       height="1024"
       x="-121"
       y="-147.30342"
       rx="0"
       ry="0" />
    <path
       style="fill:#808080;fill-opacity:0.43137255;stroke:none;stroke-width:1;stroke-miterlimit:4;stroke-dasharray:none"
       d="m 173.375,632.875 c -50.61323,0.12089 -71.14071,4.31041 -78.46875,6.53125 -0.808675,0.24509 -1.426868,0.46707 -1.9375,0.65625 -1.167144,0.4321 -1.65625,0.71875 -1.65625,0.71875 -57.306652,33.85491 -73.71875,132.875 -73.71875,132.875 20.455692,16.95222 216.9375,-29.84375 216.9375,-29.84375 l -12.3125,43 75.5,-1.25 C 297.2489,787.57436 297,789.60561 297,791.65625 c 0,5.67619 1.85419,11.22069 5.34375,16.5625 -23.16431,17.03152 -48.41845,36.87299 -75.28125,59.90625 0,0 9.81645,19.04735 115.46875,-6.75 11.37867,-2.77835 23.8636,-6.08321 37.53125,-9.96875 43.83139,12.60228 101.60319,20.25 164.9375,20.25 25.99385,0 51.04969,-1.29506 74.59375,-3.6875 22.35536,8.73683 48.9053,15.27073 77.40625,18.3125 39.25424,4.18942 74.80591,0.98438 100.78125,-7.5625 L 938,961.5625 c 5.67279,3.35057 12.72486,1.32493 15.8125,-4.53125 l 0.3125,-0.59375 c 3.08764,-5.85618 1.01654,-13.27443 -4.65625,-16.625 L 824.25,865.875 C 834.94545,858.07182 841,848.49264 841,837.65625 l 0,-24 0,-0.0312 c 0,-0.40924 -0.014,-0.80951 -0.0312,-1.21875 -4.5e-4,-0.0105 4.6e-4,-0.0208 0,-0.0312 -0.0177,-0.40925 -0.0278,-0.80958 -0.0625,-1.21875 -8.7e-4,-0.0101 8.8e-4,-0.0213 0,-0.0312 -0.0352,-0.40954 -0.10414,-0.84063 -0.15625,-1.25 -10e-4,-0.0103 10e-4,-0.021 0,-0.0312 -0.0525,-0.40919 -0.11824,-0.80982 -0.1875,-1.21875 -0.002,-0.0102 0.002,-0.0212 0,-0.0312 -0.0697,-0.409 -0.13245,-0.8101 -0.21875,-1.21875 -0.002,-0.01 0.002,-0.0214 0,-0.0312 -0.0868,-0.40895 -0.20925,-0.81024 -0.3125,-1.21875 -0.002,-0.01 0.002,-0.0217 0,-0.0312 -0.20985,-0.82709 -0.47358,-1.64397 -0.75,-2.46875 -0.003,-0.009 0.003,-0.0222 0,-0.0312 -0.27733,-0.82517 -0.59484,-1.64661 -0.9375,-2.46875 -0.004,-0.009 0.004,-0.0226 0,-0.0312 -0.34358,-0.82257 -0.71731,-1.64992 -1.125,-2.46875 -0.004,-0.008 0.004,-0.0232 0,-0.0312 -0.40862,-0.81931 -0.87224,-1.62266 -1.34375,-2.4375 -0.004,-0.008 0.004,-0.0237 0,-0.0312 -0.47242,-0.81531 -0.99715,-1.62737 -1.53125,-2.4375 -0.005,-0.007 0.005,-0.0243 0,-0.0312 -0.53492,-0.81046 -1.09215,-1.60169 -1.6875,-2.40625 -0.005,-0.006 0.005,-0.0249 0,-0.0312 -0.5963,-0.80508 -1.25074,-1.60779 -1.90625,-2.40625 -0.005,-0.006 0.005,-0.0253 0,-0.0312 -0.65629,-0.79878 -1.34825,-1.58357 -2.0625,-2.375 -0.005,-0.006 0.005,-0.0258 0,-0.0312 -5.04051,-5.58139 -11.52382,-10.95806 -19.1875,-16.03125 -1.09481,-0.72522 -2.20071,-1.44432 -3.34375,-2.15625 -4.57218,-2.84585 -9.52161,-5.5832 -14.8125,-8.1875 -2.5327,-1.24741 -5.15734,-2.44228 -7.84375,-3.625 30.70465,-14.89345 33.6875,-20.71875 33.6875,-20.71875 -32.85688,-10.86441 -59.35847,-17.18234 -80.59375,-20.875 C 720.35798,711.95797 707.1112,710.64608 697,710.25 c -11.58622,-13.68547 -32.49618,-27.17985 -70.25,-31.28125 0,0 14.09375,-9.93997 14.09375,-22.46875 0,0 -14.09746,9.93702 -42.3125,17.3125 0,0 21.14752,-11.76945 14.09375,-28.71875 0,0 -14.09744,16.21826 -42.3125,23.59375 0,0 -50.82371,0.41136 -126.4375,49.90625 -55.78253,8.04936 -100.67322,22.55006 -125.53125,40.5625 l -6.0625,-0.96875 c 5.19772,-9.37049 9.00158,-18.46072 11.71875,-27.15625 -2.02665,-10.68448 -3.78534,-21.66152 -5.625,-32.84375 -3.31644,-20.15868 -7.66974,-40.63815 -17.71875,-59.8125 -55.70363,-4.15839 -96.91331,-5.57253 -127.28125,-5.5 z"
       transform="translate(-121,-147.30341)"
       id="path4145"
       inkscape:connector-curvature="0"
       sodipodi:nodetypes="scccccccsccscscsccccccscscccccccccccccccccccccccccccccccccsccccccccccscs" />
    <path
       style="color:#000000;fill:url(#linearGradient4246);fill-opacity:1;stroke:url(#linearGradient3855);stroke-width:1;stroke-linecap:round;stroke-linejoin:round;stroke-miterlimit:4;stroke-opacity:1;stroke-dasharray:none;stroke-dashoffset:0;marker:none;visibility:visible;display:inline;overflow:visible;enable-background:accumulate"
       d="m 196.625,463.46875 c -0.78418,-0.0123 -1.4248,0.004 -1.9375,0.0312 -1.17188,0.0625 -1.6875,0.1875 -1.6875,0.1875 -64,16 -128,112 -128,112 8,24 192,40 192,40 l -32,40 64,24 8,-8 -8,24 8,-8 0,16 8,-16 8,8 8,-8 4,8 0.4375,-0.84375 c -0.22201,-7.68364 0.0544,-15.35551 0.75,-22.9375 0.28606,-2.22422 0.64735,-4.46832 1.0625,-6.71875 l -14.25,-9.5 c 9.02557,-7.89737 16.77809,-15.95511 23.4375,-23.96875 3.81113,-11.59191 8.0008,-23.39711 12.21875,-35.4375 7.60387,-21.70571 14.50987,-44.0802 16.125,-66.96875 C 249.42175,469.64643 207.99472,463.64685 196.625,463.46875 z"
       id="path3003"
       transform="translate(-121,-147.30341)"
       inkscape:connector-curvature="0"
       sodipodi:nodetypes="ssccccccccccccccccccscs" />
    <path
       style="color:#000000;fill:url(#radialGradient4236);fill-opacity:1;stroke:url(#linearGradient3844);stroke-width:1;stroke-linecap:round;stroke-linejoin:round;stroke-miterlimit:4;stroke-opacity:1;stroke-dasharray:none;stroke-dashoffset:0;marker:none;visibility:visible;overflow:visible;enable-background:accumulate"
       d="m 689,183.6875 c 0,0 -16,16 -48,16 0,0 -136,-32.03125 -256,98.96875 l 31.09375,-8.53125 c -19.68202,5.76297 -71.13761,22.9905 -141.78125,62.96875 -0.46994,0.85862 -1.00122,1.63665 -1.4375,2.53125 -1.21648,2.4944 -2.28794,5.11719 -3.15625,7.875 -0.8683,2.75781 -1.54468,5.65906 -1.9375,8.65625 -0.39282,2.99719 -0.49121,6.09996 -0.28125,9.3125 0.10498,1.60627 0.28296,3.2194 0.5625,4.875 0.27955,1.6556 0.65498,3.36057 1.125,5.0625 0.47002,1.70193 1.04234,3.411 1.71875,5.15625 0.67641,1.74525 1.44503,3.52693 2.34375,5.3125 0.89872,1.78557 1.92557,3.58336 3.0625,5.40625 1.13693,1.82289 2.39019,3.67405 3.78125,5.53125 1.39106,1.8572 2.9014,3.70524 4.5625,5.59375 1.6611,1.88851 3.45919,3.80193 5.40625,5.71875 1.94706,1.91682 4.06358,3.83913 6.3125,5.78125 2.24892,1.94212 4.65205,3.91058 7.21875,5.875 1.36046,1.04123 2.89059,2.07815 4.34375,3.125 25.75279,-0.81574 56.26723,-2.97314 93.0625,-7.21875 l -32,4.96875 c 0,0 -14.31567,27.87715 -8,51.03125 10.23369,37.51805 -0.18856,73.89603 -12.34375,108.59375 0.51589,0.71098 1.15181,1.31892 1.625,2.0625 1.53125,2.40625 2.84375,4.96875 3.96875,7.59375 1.125,2.625 2.0625,5.3125 2.84375,7.96875 0.78125,2.65625 1.40625,5.28125 1.90625,7.78125 1,5 1.5,9.5 1.75,12.75 0.25,3.25 0.25,5.25 0.25,5.25 -1,0.5 -2.07617,0.86731 -3.21875,1.125 -1.14258,0.25769 -2.33594,0.39397 -3.59375,0.4375 -1.25781,0.0435 -2.5918,-0.0137 -3.9375,-0.15625 -1.3457,-0.1425 -2.71875,-0.35587 -4.125,-0.65625 -2.8125,-0.60077 -5.73438,-1.49904 -8.625,-2.5625 -0.9254,-0.34045 -1.80014,-0.78361 -2.71875,-1.15625 -3.82425,11.97205 -7.12425,23.76148 -8.59375,35.1875 1.26672,0.90213 2.47912,1.74418 3.8125,2.78125 2.25,1.75 4.54688,3.67188 6.8125,5.78125 2.26562,2.10937 4.5,4.40625 6.5625,6.84375 2.0625,2.4375 3.98438,5.01562 5.625,7.75 0.82031,1.36719 1.54492,2.7832 2.21875,4.21875 0.67383,1.43555 1.28125,2.90625 1.78125,4.40625 0,0 -0.97098,1.59877 -3.4375,4.21875 -1.23326,1.30999 -2.83008,2.87451 -4.875,4.625 -2.04492,1.75049 -4.54464,3.67076 -7.53125,5.71875 -2.375,1.6286 -5.3307,3.35819 -8.375,5.09375 8.94232,41.60292 37.2519,79.75774 103.75,98.15625 5.8038,8.65323 18.1583,17.41735 32.46875,22.1875 16.49299,5.49766 30.39568,3.95442 34.65625,-3.03125 14.16549,2.55225 25.16489,-0.17264 28.375,-7.125 C 538.29685,832.93044 545,828.50966 545,821 c 0,-3.30957 -1.32085,-6.86746 -3.65625,-10.46875 C 569,799.66561 609,799.66561 636.5,806.46875 c 5.55429,4.43001 12.69368,8.36664 20.5,10.96875 10.08307,3.36102 19.0721,3.78112 24.9375,1.6875 2.27498,0.88639 4.63245,1.64301 7.0625,2.21875 13.3634,3.16612 24.83526,0.33543 29.625,-6.40625 10.86034,-0.8908 18.375,-6.58456 18.375,-15.25 0,-4.04891 -1.64361,-8.23664 -4.5,-12.15625 8.97059,-11.72239 30.321,-47.6324 4.78125,-99.28125 16.78306,-18.82061 23.15902,-46.29902 17.71875,-78.125 -2.62555,-19.07507 -10.05509,-41.19538 -25.65625,-65.875 -0.0125,-0.0198 -0.0187,-0.0427 -0.0312,-0.0625 -0.10635,-0.16812 -0.20539,-0.33164 -0.3125,-0.5 0,0 80,-40 88,-104 0,0 5.90301,-7.16333 10,-18.65625 -0.50969,-0.19133 -1.06294,-0.2887 -1.5625,-0.5 -2.39277,-1.01206 -4.68449,-2.24984 -6.8125,-3.6875 -2.12801,-1.43766 -4.09661,-3.06536 -5.90625,-4.875 -1.80964,-1.80964 -3.43734,-3.80949 -4.875,-5.9375 -1.43766,-2.12801 -2.67544,-4.38848 -3.6875,-6.78125 -1.01206,-2.39277 -1.81091,-4.8961 -2.34375,-7.5 -0.53284,-2.6039 -0.8125,-5.30108 -0.8125,-8.0625 0,-2.76142 0.27966,-5.4586 0.8125,-8.0625 0.53284,-2.6039 1.33169,-5.13848 2.34375,-7.53125 1.01206,-2.39277 2.24984,-4.65324 3.6875,-6.78125 1.42491,-2.10914 3.05319,-4.07837 4.84375,-5.875 -3.37422,-3.9065 -7.09912,-7.8171 -11.6875,-11.75 0,0 0,-72 -96,-112 0,0 16,-8 16,-24 0,0 -16,8 -48,8 0,0 24,-8 16,-32 z"
       transform="translate(-121,-147.30341)"
       id="path2999"
       inkscape:connector-curvature="0"
       sodipodi:nodetypes="cccccsssssssssssssscccscssssscsccssccssssscsssccsccsccscscsccccccccsssssssssscccccc" />
    <path
       style="color:#000000;fill:#682a13;fill-opacity:1;stroke:none;stroke-width:1;stroke-linecap:round;stroke-linejoin:round;stroke-miterlimit:4;stroke-opacity:1;stroke-dasharray:none;stroke-dashoffset:0;marker:none;visibility:visible;display:inline;overflow:visible;enable-background:accumulate"
       d="m 186.9375,291.59377 c -1.45316,-1.04685 -2.98329,-2.08377 -4.34375,-3.125 -2.5667,-1.96442 -4.96983,-3.93288 -7.21875,-5.875 -2.24892,-1.94212 -4.36544,-3.86443 -6.3125,-5.78125 -1.94706,-1.91682 -3.74515,-3.83024 -5.40625,-5.71875 -1.6611,-1.88851 -3.17144,-3.73655 -4.5625,-5.59375 -1.39106,-1.8572 -2.64432,-3.70836 -3.78125,-5.53125 -1.13693,-1.82289 -2.16378,-3.62068 -3.0625,-5.40625 -0.89872,-1.78557 -1.66734,-3.56725 -2.34375,-5.3125 -0.67641,-1.74525 -1.24873,-3.45432 -1.71875,-5.15625 -0.47002,-1.70193 -0.84545,-3.4069 -1.125,-5.0625 -0.27954,-1.6556 -0.45752,-3.26873 -0.5625,-4.875 -0.20996,-3.21254 -0.11157,-6.31531 0.28125,-9.3125 0.39282,-2.99719 1.0692,-5.89844 1.9375,-8.65625 0.86831,-2.75781 1.93977,-5.3806 3.15625,-7.875 0.43628,-0.8946 0.96756,-1.67263 1.4375,-2.53125 -29.45051,16.66647 -62.16556,37.20985 -97.312495,62.59375 0,0 11.112325,27.01431 130.937495,23.21875 z"
       id="path3045"
       inkscape:connector-curvature="0"
       sodipodi:nodetypes="cssssssssssssssccc" />
    <path
       style="color:#000000;fill:#682a13;fill-opacity:1;stroke:none;stroke-width:1;stroke-linecap:round;stroke-linejoin:round;stroke-miterlimit:4;stroke-opacity:1;stroke-dasharray:none;stroke-dashoffset:0;marker:none;visibility:visible;display:inline;overflow:visible;enable-background:accumulate"
       d="m 207.78125,576.03127 c 3.0443,-1.73556 6,-3.46515 8.375,-5.09375 2.98661,-2.04799 5.48633,-3.96826 7.53125,-5.71875 2.04492,-1.75049 3.64174,-3.31501 4.875,-4.625 2.46652,-2.61998 3.4375,-4.21875 3.4375,-4.21875 -0.5,-1.5 -1.10742,-2.9707 -1.78125,-4.40625 -0.67383,-1.43555 -1.39844,-2.85156 -2.21875,-4.21875 -1.64062,-2.73438 -3.5625,-5.3125 -5.625,-7.75 -2.0625,-2.4375 -4.29688,-4.73438 -6.5625,-6.84375 -2.26562,-2.10937 -4.5625,-4.03125 -6.8125,-5.78125 -1.33338,-1.03707 -2.54578,-1.87912 -3.8125,-2.78125 -1.55992,17.00288 -1.04926,34.48889 2.59375,51.4375 z"
       id="path3055"
       inkscape:connector-curvature="0"
       sodipodi:nodetypes="cssscssssscc" />
    <path
       style="color:#000000;fill:#682a13;fill-opacity:1;stroke:none;stroke-width:1;stroke-linecap:round;stroke-linejoin:round;stroke-miterlimit:4;stroke-opacity:1;stroke-dasharray:none;stroke-dashoffset:0;marker:none;visibility:visible;display:inline;overflow:visible;enable-background:accumulate"
       d="m 213.78125,489.40627 c 0.91861,0.37264 1.79335,0.8158 2.71875,1.15625 2.89062,1.06346 5.8125,1.96173 8.625,2.5625 1.40625,0.30038 2.7793,0.51375 4.125,0.65625 1.3457,0.1425 2.67969,0.19978 3.9375,0.15625 1.25781,-0.0435 2.45117,-0.17981 3.59375,-0.4375 1.14258,-0.25769 2.21875,-0.625 3.21875,-1.125 0,0 0,-2 -0.25,-5.25 -0.25,-3.25 -0.75,-7.75 -1.75,-12.75 -0.5,-2.5 -1.125,-5.125 -1.90625,-7.78125 -0.78125,-2.65625 -1.71875,-5.34375 -2.84375,-7.96875 -1.125,-2.625 -2.4375,-5.1875 -3.96875,-7.59375 -0.47319,-0.74358 -1.10911,-1.35152 -1.625,-2.0625 -4.82507,13.77345 -9.66247,27.24991 -13.875,40.4375 z"
       id="path3069"
       inkscape:connector-curvature="0"
       sodipodi:nodetypes="cssscscssssscc" />
    <path
       style="color:#000000;fill:#682a13;fill-opacity:1;stroke:none;stroke-width:1;stroke-linecap:round;stroke-linejoin:round;stroke-miterlimit:4;stroke-opacity:1;stroke-dasharray:none;stroke-dashoffset:0;marker:none;visibility:visible;display:inline;overflow:visible;enable-background:accumulate"
       d="m 297,671.6875 -8,8 -8,40 c 0,0 38.63569,22.07665 56.28125,29.53125 -0.0759,-0.16585 -0.14373,-0.33392 -0.21875,-0.5 -0.71611,-1.58572 -1.38912,-3.17449 -2.03125,-4.78125 -0.18715,-0.46778 -0.3815,-0.93684 -0.5625,-1.40625 -0.48576,-1.25976 -0.93271,-2.51034 -1.375,-3.78125 -0.26375,-0.7585 -0.53262,-1.519 -0.78125,-2.28125 -0.0847,-0.25969 -0.16699,-0.52114 -0.25,-0.78125 -0.13906,-0.43593 -0.27203,-0.87543 -0.40625,-1.3125 -0.29302,-0.9538 -0.57346,-1.91597 -0.84375,-2.875 -0.0383,-0.13604 -0.0871,-0.2701 -0.125,-0.40625 -0.0345,-0.12408 -0.0596,-0.25084 -0.0937,-0.375 -0.32014,-1.16365 -0.6185,-2.32937 -0.90625,-3.5 -0.31642,-1.28729 -0.62791,-2.58004 -0.90625,-3.875 -1.01017,-4.69966 -1.76138,-9.42696 -2.3125,-14.1875 L 321,703.6875 l 4,-8 -4,-8 -8,8 -8,-8 -8,16 0,-16 -8,8 z"
       transform="translate(-121,-147.30341)"
       id="path3050"
       inkscape:connector-curvature="0"
       sodipodi:nodetypes="ccccccsccccsccsscccccccccc" />
    <path
       sodipodi:type="arc"
       style="opacity:1;fill:#76482c;stroke:none;stroke-width:1.11111110999999996;stroke-miterlimit:4;stroke-dasharray:none;fill-opacity:1"
       id="path3008"
       sodipodi:cx="328"
       sodipodi:cy="404.36218"
       sodipodi:rx="40"
       sodipodi:ry="40"
       d="m 368,404.36218 c 0,22.09139 -17.90861,40 -40,40 -22.09139,0 -40,-17.90861 -40,-40 0,-22.09139 17.90861,-40 40,-40 22.09139,0 40,17.90861 40,40 z"
       transform="matrix(0.9,0,0,0.9,100.8,-135.56376)" />
    <path
       transform="matrix(0.73086683,0.3248297,0,0.73086683,392.27568,-213.71685)"
       d="m 368,404.36218 c 0,22.09139 -17.90861,40 -40,40 -22.09139,0 -40,-17.90861 -40,-40 0,-22.09139 17.90861,-40 40,-40 22.09139,0 40,17.90861 40,40 z"
       sodipodi:ry="40"
       sodipodi:rx="40"
       sodipodi:cy="404.36218"
       sodipodi:cx="328"
       id="path3010"
       style="opacity:1;fill:#76482c;stroke:none;stroke-width:1.36823831999999990;stroke-miterlimit:4;stroke-dasharray:none;fill-opacity:1"
       sodipodi:type="arc" />
    <path
       transform="translate(24.000005,-87.99998)"
       d="m 368,404.36218 c 0,22.09139 -17.90861,40 -40,40 -22.09139,0 -40,-17.90861 -40,-40 0,-22.09139 17.90861,-40 40,-40 22.09139,0 40,17.90861 40,40 z"
       sodipodi:ry="40"
       sodipodi:rx="40"
       sodipodi:cy="404.36218"
       sodipodi:cx="328"
       id="path3012"
       style="opacity:1;fill:url(#radialGradient4402);stroke:none;stroke-width:1;stroke-miterlimit:4;stroke-dasharray:none;fill-opacity:1"
       sodipodi:type="arc" />
    <path
       style="color:#000000;fill:url(#radialGradient4282);fill-opacity:1;stroke:url(#linearGradient3836);stroke-width:1;stroke-linecap:round;stroke-linejoin:round;stroke-miterlimit:4;stroke-opacity:1;stroke-dasharray:none;stroke-dashoffset:0;marker:none;visibility:visible;display:inline;overflow:visible;enable-background:accumulate"
       d="m 352,556.3622 c 48,40 88,24 88,24 l 8,0 0,-8 8,0 0,-8 8,0 0,-8 8,0 0,-8 c 0,0 -8,-64 -72,-96"
       id="path3066"
       inkscape:connector-curvature="0"
       sodipodi:nodetypes="ccccccccccc" />
    <path
       style="color:#000000;fill:none;stroke:none;stroke-width:1;stroke-linecap:round;stroke-linejoin:round;stroke-miterlimit:4;stroke-opacity:1;stroke-dasharray:none;stroke-dashoffset:0;marker:none;visibility:visible;display:inline;overflow:visible;enable-background:accumulate"
       d="m 568,516.3622 c -8,8 -8,32 -8,32 l 8,0 0,8 8,0 0,8 c 32,-8 40,-24 40,-24 0,0 48,-56 -8,-144"
       id="path3071"
       inkscape:connector-curvature="0"
       sodipodi:nodetypes="cccccccc" />
    <path
       id="path3105"
       d="m 691.6875,208.12502 c -1.79056,1.79663 -3.41884,3.76586 -4.84375,5.875 -1.43766,2.12801 -2.67544,4.38848 -3.6875,6.78125 -1.01206,2.39277 -1.81091,4.92735 -2.34375,7.53125 -0.53284,2.6039 -0.8125,5.30108 -0.8125,8.0625 0,2.76142 0.27966,5.4586 0.8125,8.0625 0.53284,2.6039 1.33169,5.10723 2.34375,7.5 1.01206,2.39277 2.24984,4.65324 3.6875,6.78125 1.43766,2.12801 3.06536,4.12786 4.875,5.9375 1.80964,1.80964 3.77824,3.43734 5.90625,4.875 2.12801,1.43766 4.41973,2.67544 6.8125,3.6875 0.49956,0.2113 1.05281,0.30867 1.5625,0.5 5.67141,-15.9095 7.63789,-40.18071 -14.3125,-65.59375 z"
       style="color:#000000;fill:url(#radialGradient4410);fill-opacity:1;stroke:none;stroke-width:1;stroke-linecap:round;stroke-linejoin:round;stroke-miterlimit:4;stroke-opacity:1;stroke-dasharray:none;stroke-dashoffset:0;marker:none;visibility:visible;display:inline;overflow:visible;enable-background:accumulate"
       inkscape:connector-curvature="0"
       sodipodi:nodetypes="csssssssssscc" />
    <path
       id="path3929"
       d="M 629.96875,247.39345 C 603.3964,257.38854 568,252.3622 568,252.3622 c -56,40 -128,24 -128,24 4.61265,18.45061 -1.41406,31.56267 -7.34375,39.375 6.86673,33.23791 68.41167,65.25287 143.34375,73.25 79.529,8.48775 144,-13.27878 144,-48.625 l 0,-24 c 0,-26.86232 -37.248,-53.8434 -90.03125,-68.96875 z"
       style="fill:#ff6363;fill-opacity:1;stroke:none;stroke-width:1;stroke-linecap:round;stroke-linejoin:round;stroke-miterlimit:4;stroke-opacity:1;stroke-dasharray:none"
       inkscape:connector-curvature="0"
       sodipodi:nodetypes="ccccsssc" />
    <path
       id="path3931"
       d="M 629.96875,247.39345 C 603.3964,257.38854 568,252.3622 568,252.3622 c -56,40 -128,24 -128,24 2.97138,11.88552 1.51956,21.56028 -1.46875,29.03125 18.27923,27.96838 72.9073,52.67217 137.46875,59.5625 79.529,8.48774 144,-13.27878 144,-48.625 0,-26.86232 -37.248,-53.81215 -90.03125,-68.9375 z"
       style="fill:#ff8080;stroke:none;stroke-width:1;stroke-linecap:round;stroke-linejoin:round;stroke-miterlimit:4;stroke-opacity:1;stroke-dasharray:none"
       inkscape:connector-curvature="0"
       sodipodi:nodetypes="ccccssc" />
    <rect
       transform="matrix(0.46638929,-0.88457958,0.86102835,0.50855696,0,0)"
       rx="11.950003"
       ry="11.892404"
       y="765.25873"
       x="15.782303"
       height="186.95285"
       width="24.571121"
       id="rect3933"
       style="fill:#fff6d5;stroke:none;stroke-width:1.00058369999999996;stroke-linecap:round;stroke-linejoin:round;stroke-miterlimit:4;stroke-opacity:1;stroke-dasharray:none;opacity:1" />
    <path
       inkscape:connector-curvature="0"
       id="path3962"
       d="m 701.84375,223.01845 c 4.28208,7.9812 6.7283,15.7373 7.53125,22.9375 C 793.94197,232.36071 800,220.3622 800,220.3622 c -37.26451,-24.84301 -67.32233,-41.78911 -91.40625,-53.59375 2.5602,1.83405 5.15729,3.69079 7.40625,5.59375 1.625,1.375 3.14307,2.75342 4.5625,4.15625 1.41943,1.40283 2.72852,2.82617 3.90625,4.25 1.17773,1.42383 2.2251,2.84326 3.125,4.28125 0.8999,1.43799 1.66406,2.89844 2.25,4.34375 0.58594,1.44531 1.01416,2.8667 1.25,4.3125 0.23584,1.4458 0.27539,2.9043 0.125,4.34375 -0.15039,1.43945 -0.48975,2.88623 -1.0625,4.3125 -0.57275,1.42627 -1.375,2.84375 -2.40625,4.25 -1.03125,1.40625 -2.28662,2.77686 -3.8125,4.15625 -1.52588,1.37939 -3.31836,2.74805 -5.375,4.09375 -2.05664,1.3457 -4.37646,2.69482 -7,4 -2.62354,1.30518 -5.55469,2.58594 -8.78125,3.84375 -0.28349,0.11051 -0.64921,0.20238 -0.9375,0.3125 z"
       style="color:#000000;fill:#682a13;fill-opacity:1;stroke:none;stroke-width:1;stroke-linecap:round;stroke-linejoin:round;stroke-miterlimit:4;stroke-opacity:1;stroke-dasharray:none;stroke-dashoffset:0;marker:none;visibility:visible;overflow:visible;enable-background:accumulate"
       sodipodi:nodetypes="ccccsssssssssssssc" />
    <path
       inkscape:connector-curvature="0"
       id="path3964"
       d="m 701.84375,223.01845 c 0.28829,-0.11012 0.65401,-0.20199 0.9375,-0.3125 3.22656,-1.25781 6.15771,-2.53857 8.78125,-3.84375 2.62354,-1.30518 4.94336,-2.6543 7,-4 2.05664,-1.3457 3.84912,-2.71436 5.375,-4.09375 1.52588,-1.37939 2.78125,-2.75 3.8125,-4.15625 1.03125,-1.40625 1.8335,-2.82373 2.40625,-4.25 0.57275,-1.42627 0.91211,-2.87305 1.0625,-4.3125 0.15039,-1.43945 0.11084,-2.89795 -0.125,-4.34375 -0.23584,-1.4458 -0.66406,-2.86719 -1.25,-4.3125 -0.58594,-1.44531 -1.3501,-2.90576 -2.25,-4.34375 -0.8999,-1.43799 -1.94727,-2.85742 -3.125,-4.28125 -1.17773,-1.42383 -2.48682,-2.84717 -3.90625,-4.25 -1.41943,-1.40283 -2.9375,-2.78125 -4.5625,-4.15625 -2.24896,-1.90296 -4.84605,-3.7597 -7.40625,-5.59375 -18.41374,-9.02543 -33.43867,-15.11881 -44.90625,-19 C 679.99457,174.26956 680,196.3622 680,196.3622 c 4.58838,3.9329 8.31328,7.8435 11.6875,11.75 4.36112,5.04908 7.5271,10.00588 10.15625,14.90625 z"
       style="color:#000000;fill:#ffdd41;fill-opacity:1;stroke:none;stroke-width:1;stroke-linecap:round;stroke-linejoin:round;stroke-miterlimit:4;stroke-opacity:1;stroke-dasharray:none;stroke-dashoffset:0;marker:none;visibility:visible;overflow:visible;enable-background:accumulate"
       sodipodi:nodetypes="cssssssssssssscccsc" />
    <path
       inkscape:connector-curvature="0"
       id="path3991"
       d="m 567.625,210.43752 c -3.60898,1.21084 -7.62385,1.9375 -11.875,1.9375 -0.084,0 -0.16617,5.3e-4 -0.25,0 1.23299,1.78137 2.68519,3.2176 4.25,4 3.92745,1.96373 7.19773,-0.67796 7.875,-5.9375 z"
       style="fill:#999999;stroke:none;stroke-width:1;stroke-linecap:round;stroke-linejoin:round;stroke-miterlimit:4;stroke-opacity:1;stroke-dasharray:none"
       sodipodi:nodetypes="cscsc" />
    <path
       sodipodi:nodetypes="ccccccc"
       inkscape:connector-curvature="0"
       id="path4209"
       d="m 608,396.3622 c 48,80 32,152 -32,168 l 0,-8 -8,0 0,-8 -8,0 c 0,-32 32,-40 16,-80"
       style="color:#000000;fill:url(#radialGradient4298);fill-opacity:1;stroke:url(#linearGradient3828);stroke-width:1;stroke-linecap:round;stroke-linejoin:round;stroke-miterlimit:4;stroke-opacity:1;stroke-dasharray:none;stroke-dashoffset:0;marker:none;visibility:visible;display:inline;overflow:visible;enable-background:accumulate" />
    <path
       sodipodi:type="arc"
       style="fill:#3a1e0e;fill-opacity:1;stroke:none;stroke-width:1.36823833000000006;stroke-miterlimit:4;stroke-dasharray:none"
       id="path4274"
       sodipodi:cx="328"
       sodipodi:cy="404.36218"
       sodipodi:rx="40"
       sodipodi:ry="40"
       d="m 368,404.36218 c 0,22.09139 -17.90861,40 -40,40 -22.09139,0 -40,-17.90861 -40,-40 0,-22.09139 17.90861,-40 40,-40 22.09139,0 40,17.90861 40,40 z"
       transform="matrix(0.65960732,0.29315881,0,0.65960732,415.64881,-174.51415)" />
    <path
       transform="matrix(0.81225,0,0,0.81225,129.582,-100.08098)"
       d="m 368,404.36218 c 0,22.09139 -17.90861,40 -40,40 -22.09139,0 -40,-17.90861 -40,-40 0,-22.09139 17.90861,-40 40,-40 22.09139,0 40,17.90861 40,40 z"
       sodipodi:ry="40"
       sodipodi:rx="40"
       sodipodi:cy="404.36218"
       sodipodi:cx="328"
       id="path4276"
       style="fill:#3a1e0e;fill-opacity:1;stroke:none;stroke-width:1.11111116000000010;stroke-miterlimit:4;stroke-dasharray:none"
       sodipodi:type="arc" />
    <path
       sodipodi:type="arc"
       style="fill:#f9f9f9;fill-opacity:1;stroke:none;stroke-width:1.11111116000000010;stroke-miterlimit:4;stroke-dasharray:none"
       id="path4278"
       sodipodi:cx="328"
       sodipodi:cy="404.36218"
       sodipodi:rx="40"
       sodipodi:ry="40"
       d="m 368,404.36218 c 0,22.09139 -17.90861,40 -40,40 -22.09139,0 -40,-17.90861 -40,-40 0,-22.09139 17.90861,-40 40,-40 22.09139,0 40,17.90861 40,40 z"
       transform="matrix(0.20612496,0,0,0.20612496,328.39101,120.76806)" />
    <path
       transform="matrix(0.2014376,0.08952782,0,0.2014376,558.26216,57.482991)"
       d="m 368,404.36218 c 0,22.09139 -17.90861,40 -40,40 -22.09139,0 -40,-17.90861 -40,-40 0,-22.09139 17.90861,-40 40,-40 22.09139,0 40,17.90861 40,40 z"
       sodipodi:ry="40"
       sodipodi:rx="40"
       sodipodi:cy="404.36218"
       sodipodi:cx="328"
       id="path4280"
       style="fill:#f9f9f9;fill-opacity:1;stroke:none"
       sodipodi:type="arc" />
  </g>
  <path
     style="fill:none;stroke:#000000;stroke-width:0.70710677;stroke-linecap:round;stroke-linejoin:round;stroke-miterlimit:4;stroke-opacity:1;stroke-dasharray:none;display:none"
     d="m 624.625,533.74091 c -3.60898,1.21084 -7.62385,1.9375 -11.875,1.9375 -0.084,0 -0.16617,5.3e-4 -0.25,0 1.23299,1.78137 2.68519,3.2176 4.25,4 3.92745,1.96373 7.19773,-0.67796 7.875,-5.9375 z"
     id="path3119"
     inkscape:connector-curvature="0" />
</svg>
