<?xml version="1.0" encoding="UTF-8" standalone="no"?>
<!-- Created with Inkscape (http://www.inkscape.org/) -->

<svg
   xmlns:dc="http://purl.org/dc/elements/1.1/"
   xmlns:cc="http://creativecommons.org/ns#"
   xmlns:rdf="http://www.w3.org/1999/02/22-rdf-syntax-ns#"
   xmlns:svg="http://www.w3.org/2000/svg"
   xmlns="http://www.w3.org/2000/svg"
   xmlns:sodipodi="http://sodipodi.sourceforge.net/DTD/sodipodi-0.dtd"
   xmlns:inkscape="http://www.inkscape.org/namespaces/inkscape"
   width="2094"
   height="2094"
   id="svg2"
   version="1.1"
   inkscape:version="0.91 r13725"
   sodipodi:docname="logo.svg">
  <defs
     id="defs4" />
  <sodipodi:namedview
     id="base"
     pagecolor="#ffffff"
     bordercolor="#666666"
     borderopacity="1.0"
     inkscape:pageopacity="0.0"
     inkscape:pageshadow="2"
     inkscape:zoom="0.23140864"
     inkscape:cx="267.82544"
     inkscape:cy="866.43267"
     inkscape:document-units="px"
     inkscape:current-layer="layer1"
     showgrid="true"
     inkscape:object-paths="true"
     inkscape:snap-intersection-paths="true"
     inkscape:object-nodes="true"
     inkscape:snap-smooth-nodes="true"
     inkscape:snap-midpoints="true"
     showguides="true"
     inkscape:guide-bbox="true"
     inkscape:window-width="1600"
     inkscape:window-height="864"
     inkscape:window-x="0"
     inkscape:window-y="0"
     inkscape:window-maximized="1"
     inkscape:showpageshadow="false"
     inkscape:snap-object-midpoints="true"
     inkscape:snap-grids="true"
     inkscape:snap-page="false"
     inkscape:snap-to-guides="true"
     inkscape:snap-nodes="true"
     fit-margin-top="0"
     fit-margin-left="0"
     fit-margin-right="0"
     fit-margin-bottom="0">
    <inkscape:grid
       type="xygrid"
       id="grid2985"
       empspacing="8"
       visible="true"
       enabled="true"
       snapvisiblegridlinesonly="true"
       originx="-850.61717"
       originy="1934.9063" />
    <sodipodi:guide
       orientation="1,0"
       position="1037.3828,766.90632"
       id="guide4096" />
    <sodipodi:guide
       orientation="0,1"
       position="1501.3828,686.90626"
       id="guide4141" />
    <sodipodi:guide
       orientation="0,1"
       position="2124.6818,269.90726"
       id="guide4389" />
    <sodipodi:guide
       orientation="1,0"
       position="525.38283,-81.093743"
       id="guide4393" />
    <sodipodi:guide
       orientation="-1,1.2246468e-16"
       position="1549.3828,1198.9063"
       id="guide4395" />
    <sodipodi:guide
       orientation="0,1"
       position="445.38283,62.906257"
       id="guide4399" />
    <sodipodi:guide
       orientation="0,1"
       position="2845.3828,-529.09374"
       id="guide4403" />
    <sodipodi:guide
       orientation="1,0"
       position="1869.3828,1774.9063"
       id="guide4553" />
    <sodipodi:guide
       orientation="-1.8369702e-16,-1"
       position="973.38283,1262.9063"
       id="guide4555" />
    <sodipodi:guide
       orientation="1,0"
       position="1197.3828,1038.9063"
       id="guide4561" />
  </sodipodi:namedview>
  <metadata
     id="metadata7">
    <rdf:RDF>
      <cc:Work
         rdf:about="">
        <dc:format>image/svg+xml</dc:format>
        <dc:type
           rdf:resource="http://purl.org/dc/dcmitype/StillImage" />
        <dc:title></dc:title>
      </cc:Work>
    </rdf:RDF>
  </metadata>
  <g
     inkscape:groupmode="layer"
     id="layer4"
     inkscape:label="Sun"
     style="display:inline"
     transform="translate(-850.61717,-352.90593)"
     sodipodi:insensitive="true">
    <path
       style="fill:#ffcc00;fill-opacity:1;stroke:none"
       d="m 39.90625,1408.875 c -0.8286,2.5748 -1.6955,5.1327 -2.5,7.7188 -2.0255,6.5127 -3.97485,13.0442 -5.84375,19.625 -1.8689,6.5806 -3.6651,13.1977 -5.375,19.8437 -1.7099,6.646 -3.3263,13.322 -4.875,20.0313 -1.5487,6.709 -3.02075,13.4486 -4.40625,20.2187 -1.3851,6.7701 -2.68645,13.5773 -3.90625,20.4063 -1.1442,6.4052 -2.22235,12.827 -3.21875,19.2812 l 504.53125,0 -474.40625,-127.125 z"
       id="path3951"
       transform="translate(1056,351.99972)"
       inkscape:connector-curvature="0" />
    <path
       style="fill:#ffcc00;fill-opacity:1;stroke:none"
       d="M 1362.1875,1022.8438 1065.9062,1536 1120,1536 1494.7812,1161.2188 c -6.7853,-8.9312 -13.6481,-17.7942 -20.7812,-26.4376 -8.4778,-10.2726 -17.1723,-20.3374 -26.125,-30.1874 -8.9527,-9.8505 -18.1524,-19.4962 -27.5625,-28.9063 -9.4101,-9.4101 -19.056,-18.6098 -28.9063,-27.5625 -9.5331,-8.6646 -19.2894,-17.0614 -29.2187,-25.2812 z m 226.9687,296.375 -375.4687,216.7812 256.0313,0 175.75,-47.0938 c -0.9159,-4.2752 -1.8,-8.5618 -2.7813,-12.8124 -1.5487,-6.7094 -3.1651,-13.3853 -4.875,-20.0313 -1.7099,-6.646 -3.5061,-13.2633 -5.375,-19.8437 -1.8689,-6.5808 -3.818,-13.1123 -5.8437,-19.625 -2.0258,-6.5133 -4.1321,-12.9941 -6.3126,-19.4376 -2.1802,-6.443 -4.4483,-12.8472 -6.7812,-19.2187 -2.3329,-6.3715 -4.7355,-12.7026 -7.2188,-19 -2.4832,-6.2974 -5.0249,-12.5601 -7.6562,-18.7813 -2.9887,-7.0661 -6.2918,-13.9727 -9.4688,-20.9374 z"
       id="path3949"
       transform="translate(1056,351.99972)"
       inkscape:connector-curvature="0" />
    <path
       style="fill:#ffcc00;fill-opacity:1;stroke:none"
       d="m 1072,872 c 0,0 -2,17 -5.25,42.625 -1.625,12.8125 -3.5623,27.79688 -5.7188,43.875 -2.156,16.07812 -4.5312,33.25 -7.0312,50.5 -2.5,17.25 -5.1252,34.5781 -7.7812,50.9062 -2.6565,16.3284 -5.3438,31.6563 -7.9688,44.9688 -1.3125,6.6562 -2.6055,12.8027 -3.875,18.3125 -1.2695,5.5098 -2.5154,10.3984 -3.7188,14.5 -1.2029,4.1016 -2.3554,7.4122 -3.4687,9.8437 -0.5566,1.2161 -1.1265,2.2195 -1.6563,2.9688 -0.5295,0.7493 -1.0312,1.25 -1.5312,1.5 -1.0268,0.5134 -28.9062,9.5625 -24,8 l 24,8 60.8125,149.6875 108.125,-403.5625 c -0.071,-0.034 -0.1474,-0.0588 -0.2187,-0.0937 -12.1248,-5.842 -24.433,-11.39355 -36.875,-16.65625 -6.2215,-2.6313 -12.4839,-5.17325 -18.7813,-7.65625 -6.2974,-2.4835 -12.6285,-4.88585 -19,-7.21875 -3.5226,-1.28977 -7.0814,-2.50373 -10.625,-3.75 L 1072,872 Z m -80,550.125 0,113.875 34.3125,0 30.2813,-113 L 992,1422.125 Z"
       transform="translate(1056,351.99972)"
       id="path3986"
       inkscape:connector-curvature="0" />
    <path
       style="fill:#ffcc00;fill-opacity:1;stroke:none"
       d="M 548.6875,1220.6875 504,1320 l 0,8 24,64 0,4.0938 24.90625,14.375 26.53125,-159.0313 -30.75,-30.75 z M 562.75,1416.1562 770.3125,1536 864,1536 746.71875,1418.7188 562.75,1416.1562 Z"
       transform="translate(1056,351.99972)"
       id="path3993"
       inkscape:connector-curvature="0" />
    <path
       style="fill:#ffcc00;fill-opacity:1;stroke:none"
       d="M 432,1104 329.21875,1001.2188 c -8.9312,6.7853 -17.7942,13.6481 -26.4375,20.7812 -10.2726,8.4778 -20.3376,17.1723 -30.1875,26.125 -9.8504,8.9527 -19.49615,18.1524 -28.90625,27.5625 -9.4101,9.4101 -18.6098,19.056 -27.5625,28.9063 -8.9527,9.8499 -17.6472,19.9149 -26.125,30.1874 -8.4778,10.2729 -16.73295,20.7284 -24.71875,31.4063 -3.5585,4.7584 -6.88535,9.6946 -10.34375,14.5313 L 425.625,1337 448,1296 468.9375,1140.9375 432,1104 Z"
       id="path5023"
       transform="translate(1056,351.99972)"
       inkscape:connector-curvature="0" />
  </g>
  <g
     inkscape:label="Base"
     inkscape:groupmode="layer"
     id="layer1"
     transform="translate(-850.61717,-893.26811)"
     style="display:inline"
     sodipodi:insensitive="true">
    <path
       style="fill:#ffffff;fill-opacity:1;stroke:none"
       d="m 397,1906.625 0,30.7812 2.375,0 c 4.3947,0 8.14556,-0.2605 11.28125,-0.8124 1.56784,-0.276 2.99721,-0.6485 4.25,-1.0626 1.25279,-0.414 2.34373,-0.8852 3.28125,-1.4374 0.93788,-0.5517 1.76555,-1.1876 2.46875,-1.9376 0.7032,-0.7499 1.28134,-1.6128 1.75,-2.5624 0.46866,-0.9497 0.82824,-2.0057 1.0625,-3.1563 0.23426,-1.1506 0.34375,-2.3971 0.34375,-3.75 0,-1.3373 -0.12036,-2.5795 -0.34375,-3.75 -0.22339,-1.1705 -0.55311,-2.2776 -1,-3.2813 -0.44689,-1.0036 -1.01699,-1.9133 -1.6875,-2.75 -0.67051,-0.8366 -1.44952,-1.5804 -2.34375,-2.25 -0.89423,-0.6695 -1.88193,-1.2788 -3,-1.7812 -1.11807,-0.5024 -2.34548,-0.915 -3.6875,-1.25 -1.34202,-0.335 -2.80892,-0.5824 -4.375,-0.75 -1.56608,-0.1676 -3.241,-0.25 -5.03125,-0.25 l -5.34375,0 z"
       id="path3657"
       transform="translate(1056,892.3619)"
       inkscape:connector-curvature="0" />
    <path
       style="fill:#ffffff;fill-opacity:1;stroke:none"
       d="m 397,1906.625 5.34375,0 c 1.79025,0 3.46517,0.082 5.03125,0.25 1.56608,0.1676 3.03298,0.415 4.375,0.75 1.34202,0.335 2.56943,0.7476 3.6875,1.25 1.11807,0.5024 2.10577,1.1117 3,1.7812 0.89423,0.6696 1.67324,1.4134 2.34375,2.25 0.67051,0.8367 1.24061,1.7464 1.6875,2.75 0.44689,1.0037 0.77661,2.1108 1,3.2813 0.22339,1.1705 0.34375,2.4127 0.34375,3.75 0,1.3529 -0.10949,2.5994 -0.34375,3.75 -0.23426,1.1506 -0.59384,2.2066 -1.0625,3.1563 -0.46866,0.9496 -1.0468,1.8125 -1.75,2.5624 -0.7032,0.75 -1.53087,1.3859 -2.46875,1.9376 -0.93752,0.5522 -2.02846,1.0234 -3.28125,1.4374 -1.25279,0.4141 -2.68216,0.7866 -4.25,1.0626 -3.13569,0.5519 -6.88655,0.8124 -11.28125,0.8124 l -2.375,0 0,-30.7812 z"
       id="path3655"
       transform="translate(1056,892.3619)"
       inkscape:connector-curvature="0" />
    <path
       style="fill:#ffffff;fill-opacity:1;stroke:none"
       d="m 645.65625,1875.75 -14.1875,35.3438 28.40625,0 -14.21875,-35.3438 z"
       id="path3653"
       transform="translate(1056,892.3619)"
       inkscape:connector-curvature="0" />
    <path
       style="fill:#ffffff;fill-opacity:1;stroke:none"
       d="m 645.65625,1875.75 14.21875,35.3438 -28.40625,0 14.1875,-35.3438 z"
       id="path3651"
       transform="translate(1056,892.3619)"
       inkscape:connector-curvature="0" />
    <path
       style="fill:#ffffff;fill-opacity:1;stroke:none"
       d="m 397,1855.0312 0,27.7188 1.9375,0 c 4.1669,0 7.73543,-0.2605 10.6875,-0.7812 1.47604,-0.2604 2.79524,-0.5781 3.96875,-0.9688 1.17351,-0.3907 2.19072,-0.8539 3.0625,-1.375 0.87103,-0.5207 1.62867,-1.1339 2.28125,-1.8438 0.65258,-0.7098 1.19041,-1.5075 1.625,-2.4062 0.43459,-0.8987 0.78294,-1.9129 1,-3 0.21706,-1.0871 0.3125,-2.256 0.3125,-3.5312 0,-1.1507 -0.10208,-2.2431 -0.3125,-3.25 -0.21042,-1.007 -0.51658,-1.9181 -0.9375,-2.7813 -0.42092,-0.8632 -0.96223,-1.6556 -1.59375,-2.375 -0.63152,-0.7194 -1.37654,-1.3619 -2.21875,-1.9375 -0.84221,-0.5756 -1.79077,-1.0995 -2.84375,-1.5312 -1.05298,-0.4318 -2.2049,-0.7747 -3.46875,-1.0626 -2.52771,-0.5757 -5.47203,-0.875 -8.84375,-0.875 l -4.65625,0 z"
       id="path3649"
       transform="translate(1056,892.3619)"
       inkscape:connector-curvature="0" />
    <path
       style="fill:#ffffff;fill-opacity:1;stroke:none"
       d="m 397,1855.0312 4.65625,0 c 3.37172,0 6.31604,0.2993 8.84375,0.875 1.26385,0.2879 2.41577,0.6308 3.46875,1.0626 1.05298,0.4317 2.00154,0.9556 2.84375,1.5312 0.84221,0.5756 1.58723,1.2181 2.21875,1.9375 0.63152,0.7194 1.17283,1.5118 1.59375,2.375 0.42092,0.8632 0.72708,1.7743 0.9375,2.7813 0.21042,1.0069 0.3125,2.0993 0.3125,3.25 0,1.2752 -0.0954,2.4441 -0.3125,3.5312 -0.21706,1.0871 -0.56541,2.1013 -1,3 -0.43459,0.8987 -0.97242,1.6964 -1.625,2.4062 -0.65258,0.7099 -1.41022,1.3231 -2.28125,1.8438 -0.87178,0.5211 -1.88899,0.9843 -3.0625,1.375 -1.17351,0.3907 -2.49271,0.7084 -3.96875,0.9688 -2.95207,0.5207 -6.5206,0.7812 -10.6875,0.7812 l -1.9375,0 0,-27.7188 z"
       id="path3647"
       transform="translate(1056,892.3619)"
       inkscape:connector-curvature="0" />
    <path
       style="fill:#ffffff;fill-opacity:1;stroke:none"
       d="m 1199.7188,1826.375 0,142.4062 144.125,0 0,-35.75 -67.2813,0 0,-106.6562 -76.8437,0 z"
       id="path3645"
       transform="translate(1056,892.3619)"
       inkscape:connector-curvature="0" />
    <path
       style="fill:#ffffff;fill-opacity:1;stroke:none"
       d="m 1199.7188,1826.375 76.8437,0 0,106.6562 67.2813,0 0,35.75 -144.125,0 0,-142.4062 z"
       id="path3643"
       transform="translate(1056,892.3619)"
       inkscape:connector-curvature="0" />
    <path
       style="fill:#ffffff;fill-opacity:1;stroke:none"
       d="m 1009.3438,1826.375 0,142.4062 144.0312,0 0,-35.75 -67.3125,0 0,-17.5312 46.8437,0 0,-35.75 -46.8437,0 0,-17.625 67.3125,0 0,-35.75 -144.0312,0 z"
       id="path3641"
       transform="translate(1056,892.3619)"
       inkscape:connector-curvature="0" />
    <path
       style="fill:#ffffff;fill-opacity:1;stroke:none"
       d="m 1009.3438,1826.375 144.0312,0 0,35.75 -67.3125,0 0,17.625 46.8437,0 0,35.75 -46.8437,0 0,17.5312 67.3125,0 0,35.75 -144.0312,0 0,-142.4062 z"
       id="path3639"
       transform="translate(1056,892.3619)"
       inkscape:connector-curvature="0" />
    <path
       style="fill:#ffffff;fill-opacity:1;stroke:none"
       d="m 590.875,1826.375 -60.21875,142.4062 76.8125,0 10,-24.0937 56.40625,0 10,24.0937 76.71875,0 -60.25,-142.4062 -109.46875,0 z"
       id="path3637"
       transform="translate(1056,892.3619)"
       inkscape:connector-curvature="0" />
    <path
       style="fill:#ffffff;fill-opacity:1;stroke:none"
       d="m 590.875,1826.375 109.46875,0 60.25,142.4062 -76.71875,0 -10,-24.0937 -56.40625,0 -10,24.0937 -76.8125,0 60.21875,-142.4062 z"
       id="path3635"
       transform="translate(1056,892.3619)"
       inkscape:connector-curvature="0" />
    <path
       style="fill:#ffffff;fill-opacity:1;stroke:none"
       d="m 320.15625,1826.375 0,142.4062 121.0625,0 c 4.69805,1e-4 9.13821,-0.2386 13.3125,-0.6874 4.17429,-0.4489 8.06791,-1.1034 11.71875,-2 3.65084,-0.8967 7.05981,-2.0319 10.1875,-3.375 3.12769,-1.3432 5.9889,-2.8991 8.59375,-4.6876 2.60452,-1.7884 4.89056,-3.7266 6.84375,-5.8124 0.9766,-1.043 1.87371,-2.1325 2.6875,-3.25 0.81379,-1.1176 1.5365,-2.2765 2.1875,-3.4688 0.651,-1.1923 1.23053,-2.4203 1.71875,-3.6875 0.48822,-1.2672 0.89329,-2.564 1.21875,-3.9063 0.32546,-1.3422 0.55603,-2.7074 0.71875,-4.125 0.16272,-1.4175 0.25,-2.8821 0.25,-4.375 0,-1.9127 -0.14813,-3.7434 -0.4375,-5.5 -0.28937,-1.7565 -0.73413,-3.4317 -1.3125,-5.0312 -0.57837,-1.5995 -1.28925,-3.1209 -2.15625,-4.5625 -0.867,-1.4416 -1.87597,-2.8109 -3.03125,-4.0937 -1.15563,-1.2829 -2.44957,-2.5141 -3.875,-3.7188 -1.42543,-1.2047 -2.99222,-2.3744 -4.6875,-3.5 -1.69528,-1.1256 -3.50357,-2.2044 -5.46875,-3.25 -1.96518,-1.0456 -4.07738,-2.0665 -6.3125,-3.0312 1.88475,-0.8785 3.66312,-1.804 5.3125,-2.7813 1.64938,-0.9773 3.17981,-2.0175 4.59375,-3.0937 1.41394,-1.0763 2.69656,-2.1997 3.875,-3.375 1.17844,-1.1754 2.24462,-2.3818 3.1875,-3.6563 0.94288,-1.2745 1.7615,-2.595 2.46875,-3.9687 0.70725,-1.3738 1.30969,-2.8082 1.78125,-4.2813 0.47156,-1.4731 0.82669,-2.99 1.0625,-4.5625 0.23581,-1.5725 0.34375,-3.203 0.34375,-4.875 0,-1.5317 -0.10399,-3.0173 -0.28125,-4.4688 -0.17726,-1.4514 -0.42681,-2.8787 -0.78125,-4.25 -0.35444,-1.3712 -0.81222,-2.6777 -1.34375,-3.9687 -0.53153,-1.291 -1.1352,-2.5704 -1.84375,-3.7813 -0.70855,-1.2108 -1.52077,-2.3692 -2.40625,-3.5 -0.88548,-1.1307 -1.84391,-2.2306 -2.90625,-3.2812 -1.06234,-1.0506 -2.22964,-2.0607 -3.46875,-3.0312 -1.23911,-0.9706 -2.55295,-1.8909 -3.96875,-2.7813 -1.41618,-0.8904 -2.91436,-1.7208 -4.5,-2.5 -1.58564,-0.7792 -3.24478,-1.5196 -5,-2.1875 -3.51043,-1.3359 -7.37303,-2.4218 -11.5625,-3.3125 -4.18947,-0.8907 -8.72429,-1.5858 -13.59375,-2.0313 -4.86946,-0.4454 -10.0746,-0.6562 -15.625,-0.6562 l -108.5625,0 z"
       id="path3633"
       transform="translate(1056,892.3619)"
       inkscape:connector-curvature="0" />
    <path
       style="fill:#ffffff;fill-opacity:1;stroke:none"
       d="m 320.15625,1826.375 108.5625,0 c 5.5504,0 10.75554,0.2108 15.625,0.6562 4.86946,0.4455 9.40428,1.1406 13.59375,2.0313 4.18947,0.8907 8.05207,1.9766 11.5625,3.3125 1.75522,0.6679 3.41436,1.4083 5,2.1875 1.58564,0.7792 3.08382,1.6096 4.5,2.5 1.4158,0.8904 2.72964,1.8107 3.96875,2.7813 1.23911,0.9705 2.40641,1.9806 3.46875,3.0312 1.06234,1.0506 2.02077,2.1505 2.90625,3.2812 0.88548,1.1308 1.6977,2.2892 2.40625,3.5 0.70855,1.2109 1.31222,2.4903 1.84375,3.7813 0.53153,1.291 0.98931,2.5975 1.34375,3.9687 0.35444,1.3713 0.60399,2.7986 0.78125,4.25 0.17726,1.4515 0.28125,2.9371 0.28125,4.4688 0,1.672 -0.10794,3.3025 -0.34375,4.875 -0.23581,1.5725 -0.59094,3.0894 -1.0625,4.5625 -0.47156,1.4731 -1.074,2.9075 -1.78125,4.2813 -0.70725,1.3737 -1.52587,2.6942 -2.46875,3.9687 -0.94288,1.2745 -2.00906,2.4809 -3.1875,3.6563 -1.17844,1.1753 -2.46106,2.2987 -3.875,3.375 -1.41394,1.0762 -2.94437,2.1164 -4.59375,3.0937 -1.64938,0.9773 -3.42775,1.9028 -5.3125,2.7813 2.23512,0.9647 4.34732,1.9856 6.3125,3.0312 1.96518,1.0456 3.77347,2.1244 5.46875,3.25 1.69528,1.1256 3.26207,2.2953 4.6875,3.5 1.42543,1.2047 2.71937,2.4359 3.875,3.7188 1.15528,1.2828 2.16425,2.6521 3.03125,4.0937 0.867,1.4416 1.57788,2.963 2.15625,4.5625 0.57837,1.5995 1.02313,3.2747 1.3125,5.0312 0.28937,1.7566 0.4375,3.5873 0.4375,5.5 0,1.4929 -0.0873,2.9575 -0.25,4.375 -0.16272,1.4176 -0.39329,2.7828 -0.71875,4.125 -0.32546,1.3423 -0.73053,2.6391 -1.21875,3.9063 -0.48822,1.2672 -1.06775,2.4952 -1.71875,3.6875 -0.651,1.1923 -1.37371,2.3512 -2.1875,3.4688 -0.81379,1.1175 -1.7109,2.207 -2.6875,3.25 -1.95319,2.0858 -4.23923,4.024 -6.84375,5.8124 -2.60485,1.7885 -5.46606,3.3444 -8.59375,4.6876 -3.12769,1.3431 -6.53666,2.4783 -10.1875,3.375 -3.65084,0.8966 -7.54446,1.5511 -11.71875,2 -4.17429,0.4488 -8.61445,0.6875 -13.3125,0.6874 l -121.0625,0 0,-142.4062 z"
       id="path3631"
       transform="translate(1056,892.3619)"
       inkscape:connector-curvature="0" />
    <path
       style="fill:#ffffff;fill-opacity:1;stroke:none"
       d="m 878.4375,1824.125 c -4.9636,0 -9.7752,0.2038 -14.40625,0.5938 -4.63105,0.3899 -9.07747,0.9708 -13.375,1.75 -4.29753,0.7791 -8.44322,1.7386 -12.40625,2.9062 -3.96303,1.1676 -7.74745,2.5385 -11.375,4.0938 -3.62793,1.5552 -7.05042,3.2823 -10.25,5.1562 -3.19958,1.8739 -6.16494,3.9011 -8.9375,6.0938 -2.77256,2.1926 -5.34065,4.5509 -7.6875,7.0624 -2.34685,2.5116 -4.48378,5.1695 -6.40625,8 -1.9232,2.8307 -3.61792,5.7181 -5.0625,8.6876 -1.44458,2.9694 -2.62924,6.016 -3.59375,9.125 -0.96451,3.1089 -1.70452,6.2821 -2.1875,9.5312 -0.48298,3.2491 -0.71875,6.5787 -0.71875,9.9688 0,2.4652 0.11683,4.8922 0.375,7.2812 0.25817,2.389 0.67118,4.7499 1.1875,7.0625 0.51632,2.3126 1.16304,4.5764 1.9375,6.8125 0.77446,2.2361 1.65491,4.4344 2.6875,6.5938 1.03259,2.1593 2.2093,4.2926 3.5,6.375 1.2907,2.0823 2.7012,4.1196 4.25,6.125 1.5488,2.0053 3.22437,3.9782 5.03125,5.9062 1.80688,1.928 3.74755,3.8056 5.8125,5.6562 2.06478,1.8507 4.34262,3.6 6.8125,5.2188 2.46988,1.6188 5.12504,3.113 8,4.5 2.87496,1.387 5.97001,2.657 9.25,3.8125 3.27999,1.1555 6.75251,2.2009 10.4375,3.125 3.68499,0.9241 7.56629,1.7134 11.65625,2.4063 4.08996,0.6928 8.38012,1.2882 12.875,1.75 4.49488,0.4617 9.19398,0.8004 14.09375,1.0312 4.89977,0.2308 10.00788,0.3438 15.3125,0.3438 5.49285,-1e-4 13.5146,-0.1788 24.03125,-0.5313 10.51665,-0.3525 23.5282,-0.8787 39.0625,-1.5937 l 0,-76.8126 -76.84375,0 0,22.3126 c -2.3113,0 -4.47807,-0.1 -6.5,-0.2813 -2.02193,-0.1813 -3.89231,-0.45 -5.625,-0.8125 -1.73269,-0.3625 -3.33767,-0.8003 -4.78125,-1.3438 -1.44358,-0.5434 -2.7204,-1.1818 -3.875,-1.9062 -1.1546,-0.7244 -2.1655,-1.5324 -3.03125,-2.4375 -0.86575,-0.9051 -1.61046,-1.9144 -2.1875,-3 -0.57704,-1.0856 -0.9928,-2.2652 -1.28125,-3.5313 -0.28845,-1.266 -0.4375,-2.6161 -0.4375,-4.0624 0,-1.5237 0.17329,-2.9704 0.5,-4.3438 0.32671,-1.3734 0.81363,-2.6826 1.46875,-3.9062 0.65512,-1.2237 1.48353,-2.3632 2.46875,-3.4376 0.98522,-1.0743 2.12047,-2.0743 3.4375,-3 1.31625,-0.9248 2.74948,-1.7426 4.28125,-2.4374 1.53177,-0.6949 3.1589,-1.2547 4.90625,-1.7188 1.74735,-0.4641 3.5995,-0.8301 5.5625,-1.0625 1.963,-0.2324 4.04003,-0.3437 6.21875,-0.3437 3.27717,-1e-4 6.63622,0.1803 10.0625,0.5624 3.42628,0.3822 6.9261,0.9553 10.5,1.7188 3.5739,0.7635 7.21745,1.7308 10.9375,2.875 3.72005,1.1442 7.51027,2.476 11.375,4 l 37.03125,-42.8125 c -3.0688,-1.5082 -6.20503,-2.9403 -9.4375,-4.2813 -3.23247,-1.3409 -6.57123,-2.5773 -9.96875,-3.75 -3.39752,-1.1726 -6.87355,-2.278 -10.4375,-3.2812 -3.56395,-1.0032 -7.20575,-1.9174 -10.9375,-2.75 -3.73212,-0.8315 -7.42257,-1.5628 -11.09375,-2.1875 -3.67118,-0.6247 -7.32778,-1.1454 -10.9375,-1.5625 -3.60972,-0.4171 -7.17101,-0.7286 -10.71875,-0.9375 -3.54774,-0.2089 -7.07725,-0.3125 -10.5625,-0.3125 z"
       id="path3629"
       transform="translate(1056,892.3619)"
       inkscape:connector-curvature="0" />
    <path
       style="fill:#ffffff;fill-opacity:1;stroke:none"
       d="m 878.4375,1824.125 c 3.48525,0 7.01476,0.1036 10.5625,0.3125 3.54774,0.2089 7.10903,0.5204 10.71875,0.9375 3.60972,0.4171 7.26632,0.9378 10.9375,1.5625 3.67118,0.6247 7.36163,1.356 11.09375,2.1875 3.73175,0.8326 7.37355,1.7468 10.9375,2.75 3.56395,1.0032 7.03998,2.1086 10.4375,3.2812 3.39752,1.1727 6.73628,2.4091 9.96875,3.75 3.23247,1.341 6.3687,2.7731 9.4375,4.2813 L 925.5,1886 c -3.86473,-1.524 -7.65495,-2.8558 -11.375,-4 -3.72005,-1.1442 -7.3636,-2.1115 -10.9375,-2.875 -3.5739,-0.7635 -7.07372,-1.3366 -10.5,-1.7188 -3.42628,-0.3821 -6.78533,-0.5625 -10.0625,-0.5624 -2.17872,0 -4.25575,0.1113 -6.21875,0.3437 -1.963,0.2324 -3.81515,0.5984 -5.5625,1.0625 -1.74735,0.4641 -3.37448,1.0239 -4.90625,1.7188 -1.53177,0.6948 -2.965,1.5126 -4.28125,2.4374 -1.31703,0.9257 -2.45228,1.9257 -3.4375,3 -0.98522,1.0744 -1.81363,2.2139 -2.46875,3.4376 -0.65512,1.2236 -1.14204,2.5328 -1.46875,3.9062 -0.32671,1.3734 -0.5,2.8201 -0.5,4.3438 0,1.4463 0.14905,2.7964 0.4375,4.0624 0.28845,1.2661 0.70421,2.4457 1.28125,3.5313 0.57704,1.0856 1.32175,2.0949 2.1875,3 0.86575,0.9051 1.87665,1.7131 3.03125,2.4375 1.1546,0.7244 2.43142,1.3628 3.875,1.9062 1.44358,0.5435 3.04856,0.9813 4.78125,1.3438 1.73269,0.3625 3.60307,0.6312 5.625,0.8125 2.02193,0.1813 4.1887,0.2813 6.5,0.2813 l 0,-22.3126 76.84375,0 0,76.8126 c -15.5343,0.715 -28.54585,1.2412 -39.0625,1.5937 -10.51665,0.3525 -18.5384,0.5312 -24.03125,0.5313 -5.30462,0 -10.41273,-0.113 -15.3125,-0.3438 -4.89977,-0.2308 -9.59887,-0.5695 -14.09375,-1.0312 -4.49488,-0.4618 -8.78504,-1.0572 -12.875,-1.75 -4.08996,-0.6929 -7.97126,-1.4822 -11.65625,-2.4063 -3.68499,-0.9241 -7.15751,-1.9695 -10.4375,-3.125 -3.27999,-1.1555 -6.37504,-2.4255 -9.25,-3.8125 -2.87496,-1.387 -5.53012,-2.8812 -8,-4.5 -2.46988,-1.6188 -4.74772,-3.3681 -6.8125,-5.2188 -2.06495,-1.8506 -4.00562,-3.7282 -5.8125,-5.6562 -1.80688,-1.928 -3.48245,-3.9009 -5.03125,-5.9062 -1.5488,-2.0054 -2.9593,-4.0427 -4.25,-6.125 -1.2907,-2.0824 -2.46741,-4.2157 -3.5,-6.375 -1.03259,-2.1594 -1.91304,-4.3577 -2.6875,-6.5938 -0.77446,-2.2361 -1.42118,-4.4999 -1.9375,-6.8125 -0.51632,-2.3126 -0.92933,-4.6735 -1.1875,-7.0625 -0.25817,-2.389 -0.375,-4.816 -0.375,-7.2812 0,-3.3901 0.23577,-6.7197 0.71875,-9.9688 0.48298,-3.2491 1.22299,-6.4223 2.1875,-9.5312 0.96451,-3.109 2.14917,-6.1556 3.59375,-9.125 1.44458,-2.9695 3.1393,-5.8569 5.0625,-8.6876 1.92247,-2.8305 4.0594,-5.4884 6.40625,-8 2.34685,-2.5115 4.91494,-4.8698 7.6875,-7.0624 2.77256,-2.1927 5.73792,-4.2199 8.9375,-6.0938 3.19958,-1.8739 6.62207,-3.601 10.25,-5.1562 3.62755,-1.5553 7.41197,-2.9262 11.375,-4.0938 3.96303,-1.1676 8.10872,-2.1271 12.40625,-2.9062 4.29753,-0.7792 8.74395,-1.3601 13.375,-1.75 4.63105,-0.39 9.44265,-0.5938 14.40625,-0.5938 z"
       id="path3627"
       transform="translate(1056,892.3619)"
       inkscape:connector-curvature="0" />
    <path
       style="fill:#ffffff;fill-opacity:1;stroke:none"
       d="m 304,1808 0,176 1056,0 0,-176 -1056,0 z"
       id="rect3622"
       transform="translate(1056,892.3619)"
       inkscape:connector-curvature="0" />
    <path
       style="fill:#000078;fill-opacity:1;stroke:none"
       d="m 0,1760 0,64 256,0 0,208 576,62.9062 576,-62.9062 0,-208 256,0 0,-64 -1664,0 z m 878.4375,64.125 c 13.941,0 28.384,1.6739 43.3125,5 14.927,3.3303 28.50605,8.0298 40.78125,14.0625 L 925.5,1886 c -15.4589,-6.096 -29.7663,-9.1564 -42.875,-9.1562 -8.7149,0 -15.70375,1.8628 -20.96875,5.5624 -5.2681,3.7027 -7.875,8.5931 -7.875,14.6876 0,11.5706 9.22835,17.375 27.71875,17.375 l 0,-22.3126 76.84375,0 0,76.8126 c -31.0686,1.43 -52.10805,2.125 -63.09375,2.125 -42.437,0 -71.9193,-7.3825 -88.4375,-22.1876 -16.5196,-14.8049 -24.78125,-32.0904 -24.78125,-51.8124 0,-13.5602 3.8697,-25.9902 11.5625,-37.3126 7.6899,-11.322 18.76955,-20.0916 33.28125,-26.3124 14.5102,-6.2212 31.7081,-9.3438 51.5625,-9.3438 z m -558.28125,2.25 108.5625,0 c 22.2016,0 38.95185,3.5639 50.28125,10.6875 11.3264,7.1236 17,16.8089 17,29.0625 0,13.3762 -7.547,23.5663 -22.625,30.5938 8.9405,3.8592 15.72125,8.3684 20.34375,13.5 4.6211,5.1313 6.9375,11.5363 6.9375,19.1874 0,11.9431 -5.2069,21.4713 -15.625,28.625 -10.4194,7.154 -25.0203,10.7502 -43.8125,10.75 l -121.0625,0 0,-142.4062 z m 270.71875,0 109.46875,0 60.25,142.4062 -76.71875,0 -10,-24.0937 -56.40625,0 -10,24.0937 -76.8125,0 60.21875,-142.4062 z m 418.4688,0 144.0312,0 0,35.75 -67.3125,0 0,17.625 46.8437,0 0,35.75 -46.8437,0 0,17.5312 67.3125,0 0,35.75 -144.0312,0 0,-142.4062 z m 190.375,0 76.8437,0 0,106.6562 67.2813,0 0,35.75 -144.125,0 0,-142.4062 z M 397,1855.0312 l 0,27.7188 1.9375,0 c 8.3338,0 14.23165,-1.0408 17.71875,-3.125 3.4841,-2.0828 5.21875,-5.6802 5.21875,-10.7812 0,-9.205 -6.73185,-13.8126 -20.21875,-13.8126 l -4.65625,0 z m 248.65625,20.7188 -14.1875,35.3438 28.40625,0 -14.21875,-35.3438 z M 397,1906.625 l 0,30.7812 2.375,0 c 8.7894,0 15.0624,-1.1034 18.8125,-3.3124 3.7515,-2.2064 5.625,-5.9945 5.625,-11.4063 0,-10.6984 -7.14675,-16.0625 -21.46875,-16.0625 l -5.34375,0 z"
       transform="translate(1056,892.3619)"
       id="path4098"
       inkscape:connector-curvature="0" />
    <path
       style="font-style:normal;font-weight:bold;font-size:228px;line-height:125%;font-family:Sans;-inkscape-font-specification:'Sans Bold';text-align:center;letter-spacing:0px;word-spacing:0px;text-anchor:middle;fill:#b20001;fill-opacity:1;stroke:#b20000;stroke-width:25;stroke-linecap:butt;stroke-linejoin:miter;stroke-miterlimit:10;stroke-dasharray:none;stroke-opacity:1"
       d="m 321.15625,1561.7812 c -26.6446,3e-4 -47.56645,7.6486 -62.78125,22.9376 -15.1406,15.2891 -22.71875,36.4024 -22.71875,63.3437 0,26.8673 7.57815,47.9297 22.71875,63.2187 15.2148,15.289 36.13665,22.9376 62.78125,22.9376 26.7186,-1e-4 47.6717,-7.6485 62.8125,-22.9376 15.1404,-15.2889 22.6873,-36.3514 22.6875,-63.2187 -2e-4,-26.9413 -7.5471,-48.0545 -22.6875,-63.3437 -15.1408,-15.289 -36.0939,-22.9374 -62.8125,-22.9376 z m 777.09375,0 c -26.6446,3e-4 -47.5977,7.6486 -62.8125,22.9376 -15.1406,15.2891 -22.6875,36.4024 -22.6875,63.3437 0,26.8673 7.5469,47.9297 22.6875,63.2187 15.2148,15.289 36.1679,22.9376 62.8125,22.9376 26.7186,-1e-4 47.6404,-7.6485 62.7812,-22.9376 15.1405,-15.2889 22.7186,-36.3514 22.7188,-63.2187 -2e-4,-26.9413 -7.5784,-48.0545 -22.7188,-63.3437 -15.1408,-15.289 -36.0626,-22.9374 -62.7812,-22.9376 z m -1080.125,3 0,166.2188 40.65625,0 0,-115 38.28125,83.0312 27.15625,0 38.3125,-83.0312 0,115 40.53125,0 0,-166.2188 -54.4375,0 -38.09375,88.9376 -37.84375,-88.9376 z m 420.84375,0 0,166.2188 40.625,0 0,-114 60.4375,114 47.875,0 0,-166.2188 -40.625,0 0,114 -60.46875,-114 z m 171.21875,0 0,32.4063 55.21875,0 0,133.8125 42.84375,0 0,-133.8125 55.125,0 0,-32.4063 z m 236.6875,0 0,166.2188 42.84375,0 0,-62.9062 12.125,0 c 6.9765,0 12.56245,1.5196 16.71875,4.5624 4.2304,3.043 8.38655,8.7189 12.46875,17.0313 l 20.25,41.3125 45.65625,0 -23.28125,-47.2188 c -4.7501,-9.574 -9.4494,-16.699 -14.125,-21.375 -4.6017,-4.7498 -9.8243,-7.789 -15.6875,-9.125 10.6874,-3.3397 18.63665,-8.5428 23.90625,-15.5937 5.3436,-7.0507 8.03105,-16.0469 8.03125,-27.0313 -2e-4,-15.8826 -5.133,-27.4959 -15.375,-34.8437 -10.1681,-7.3475 -26.19925,-11.0311 -48.09375,-11.0313 z m 337.9688,0 63.3437,96.1876 0,70.0312 42.875,0 0,-70.0312 63.3437,-96.1876 -46.9687,0 -37.875,59.2188 -37.8437,-59.2188 z m 208.3124,0 -61.5624,166.2188 43.0624,0 10.5938,-30.2812 67,0 10.4688,30.2812 43.0937,0 -61.5625,-166.2188 z m 134.5938,0 0,166.2188 118.125,0 0,-32.4062 -75.2812,0 0,-133.8126 z m -1206.59375,28.0626 c 13.1366,0 23.33195,4.8204 30.53125,14.4687 7.1991,9.6486 10.78115,23.2345 10.78125,40.75 -10e-5,17.4415 -3.58215,30.9766 -10.78125,40.625 -7.1993,9.6484 -17.39465,14.4689 -30.53125,14.4687 -13.0626,1e-4 -23.1758,-4.8203 -30.375,-14.4687 -7.1993,-9.6484 -10.8126,-23.1835 -10.8125,-40.625 -10e-5,-17.5155 3.6132,-31.1014 10.8125,-40.75 7.1992,-9.6483 17.3124,-14.4686 30.375,-14.4687 z m 777.09375,0 c 13.1366,0 23.3007,4.8204 30.5,14.4687 7.1991,9.6486 10.7811,23.2345 10.7812,40.75 -10e-5,17.4415 -3.5821,30.9766 -10.7812,40.625 -7.1993,9.6484 -17.3634,14.4689 -30.5,14.4687 -13.0626,1e-4 -23.207,-4.8203 -30.4062,-14.4687 -7.1993,-9.6484 -10.7814,-23.1835 -10.7813,-40.625 -10e-5,-17.5155 3.582,-31.1014 10.7813,-40.75 7.1992,-9.6483 17.3436,-14.4686 30.4062,-14.4687 z m -208.53125,3 18.03125,0 c 8.9804,2e-4 15.42175,1.6407 19.28125,4.9062 3.9334,3.2657 5.8749,8.6798 5.875,16.25 -10e-5,7.6446 -1.9416,13.1291 -5.875,16.4688 -3.8595,3.3399 -10.30085,5.0001 -19.28125,5 l -18.03125,0 z m 529.03125,7.9062 22.7188,66.125 -45.5313,0 z m -675.3125,45.4062 0,32.4063 69.90625,0 0,-32.4063 z"
       transform="translate(1056,892.3619)"
       id="path4224"
       inkscape:connector-curvature="0"
       sodipodi:nodetypes="ccscsscccccscsscccccccccccccccccccccccccccccccccccccccccsccccccccccscccccccccccccccccccccccccccsccccscsssccccscssccccccccccccccccc" />
    <path
       style="font-style:normal;font-weight:bold;font-size:40px;line-height:125%;font-family:Sans;-inkscape-font-specification:'Sans Bold';letter-spacing:0px;word-spacing:0px;display:inline;fill:#000078;fill-opacity:1;stroke:#000078;stroke-width:4;stroke-linecap:butt;stroke-linejoin:miter;stroke-miterlimit:4;stroke-dasharray:none;stroke-opacity:1"
       d="m 2654.8125,2446.3618 0,5.6875 9.6875,0 0,23.4687 7.5312,0 0,-23.4687 13.5313,0 0,23.4687 7.125,0 0,-21.3124 6.7187,15.7187 4.75,0 6.7188,-15.7187 0,21.3124 7.125,0 0,-29.1562 -9.5625,0 -6.6563,15.5938 -6.6562,-15.5938 z"
       id="path4363"
       inkscape:connector-curvature="0"
       sodipodi:nodetypes="cccccccccccccccccccc" />
  </g>
  <g
     inkscape:groupmode="layer"
     id="layer2"
     inkscape:label="Top"
     style="display:inline"
     transform="translate(-850.61717,-352.90593)"
     sodipodi:insensitive="true">
    <path
       style="fill:#000078;fill-opacity:1;stroke:none"
       d="m 985.09375,626.4375 -33.4375,2.09375 L 880,816 767.9375,840 656,832 597.65625,732.75 567.125,750.21875 624,864 c 1.75,3.25 3.33575,6.5867 4.78125,10 1.4456,3.4133 2.74905,6.90915 3.90625,10.46875 1.1572,3.5595 2.1775,7.1862 3.0625,10.875 0.885,3.6887 1.6211,7.41795 2.25,11.21875 0.6289,3.8008 1.14235,7.6667 1.53125,11.5625 0.389,3.8958 0.67875,7.8389 0.84375,11.8125 0.165,3.9736 0.19905,7.9656 0.15625,12 -0.043,4.0344 -0.17185,8.1094 -0.40625,12.1875 -0.2344,4.0781 -0.55875,8.17655 -0.96875,12.28125 -0.4099,4.1048 -0.89945,8.22945 -1.46875,12.34375 -1.1387,8.2285 -2.5703,16.4609 -4.25,24.625 -0.3617,1.758 -0.73971,3.4992 -1.125,5.25 L 640,1024 l -16,32 0,56 -16,8 c -3.53034,-1.9256 -7.06909,-3.6996 -10.59375,-5.375 -2.08595,4.885 -4.12264,9.5297 -6.03125,13.75 -4.4375,9.8125 -8.2656,17.7344 -11,23.1875 -2.7344,5.4531 -1.71875,7.5937 -1.71875,7.5937 L 584,1208 l 24,8 -24,8 -32,192 0,64 -104,24 -72,-32 0,-43.6562 c -2.9916,0.2925 -6.2229,0.5452 -9.1875,0.8437 -22.1313,2.2284 -43.48565,4.598 -64.03125,7.125 -20.5454,2.527 -40.27345,5.1951 -59.09375,8 -18.8203,2.8049 -36.7318,5.7504 -53.6875,8.8125 -16.9557,3.0621 -32.95475,6.2329 -47.90625,9.5312 -7.476,1.6495 -14.70755,3.3269 -21.65625,5.0313 -6.9487,1.7044 -13.62695,3.4619 -20.03125,5.2187 -6.404,1.7574 -12.5327,3.5368 -18.375,5.3438 -5.842,1.807 -11.39355,3.6143 -16.65625,5.4688 -5.2627,1.854 -10.2092,3.757 -14.875,5.6562 -4.6658,1.8992 -9.04205,3.8086 -13.09375,5.75 -4.0514,1.9414 -7.79885,3.894 -11.21875,5.875 -3.4199,1.981 -6.51045,3.982 -9.28125,6 -2.7706,2.018 -5.2084,4.0726 -7.3125,6.125 -2.1042,2.0524 -3.8921,4.1032 -5.3125,6.1875 -1.4201,2.0843 -2.4687,4.199 -3.1875,6.3125 -0.3596,1.0567 -0.6316,2.1239 -0.8125,3.1875 C 0.10065,1529.8761 0,1530.9299 0,1532 l 0,4 0.5,0 1663,0 0.5,0 0,-4 c 0,-1.0701 -0.1005,-2.1239 -0.2812,-3.1875 -0.1811,-1.0636 -0.453,-2.1308 -0.8126,-3.1875 -0.7187,-2.1135 -1.7672,-4.2282 -3.1874,-6.3125 -1.4205,-2.0843 -3.2084,-4.1351 -5.3126,-6.1875 -2.104,-2.0524 -4.5418,-4.107 -7.3124,-6.125 -2.771,-2.018 -5.8614,-4.019 -9.2813,-6 -3.4199,-1.981 -7.1673,-3.9336 -11.2187,-5.875 -4.0518,-1.9414 -8.428,-3.8508 -13.0938,-5.75 -4.6658,-1.8992 -9.6123,-3.802 -14.875,-5.6562 -5.2627,-1.8546 -10.8141,-3.6618 -16.6562,-5.4688 -5.8424,-1.807 -11.971,-3.5868 -18.375,-5.3438 -6.4043,-1.7567 -13.0826,-3.5143 -20.0313,-5.2187 -6.9487,-1.7044 -14.1804,-3.382 -21.6563,-5.0313 -14.9513,-3.298 -30.9505,-6.4691 -47.9062,-9.5312 -16.9557,-3.0621 -34.8672,-6.0076 -53.6875,-8.8125 -18.8203,-2.8049 -38.5485,-5.473 -59.0937,-8 -20.5457,-2.527 -41.9,-4.8966 -64.0313,-7.125 -22.1313,-2.2284 -45.0161,-4.3099 -68.5937,-6.2187 -23.5779,-1.9094 -47.8653,-3.6501 -72.75,-5.2188 -10.2631,-0.647 -20.6574,-1.2535 -31.125,-1.8438 L 1024,1168 l -24,-8 c -4,-1.5 -7.854,-3.1855 -11.5625,-5.0625 -3.7085,-1.877 -7.2598,-3.9609 -10.6875,-6.1875 -3.4277,-2.2266 -6.7173,-4.6078 -9.875,-7.1562 -3.1577,-2.5491 -6.19525,-5.25 -9.09375,-8.0938 -2.8984,-2.8438 -5.6626,-5.8262 -8.3125,-8.9375 -2.65,-3.1113 -5.18165,-6.3359 -7.59375,-9.6875 -2.4121,-3.3516 -4.72125,-6.8419 -6.90625,-10.4062 -2.1851,-3.5646 -4.24995,-7.2188 -6.21875,-10.9688 -1.9688,-3.75 -3.83055,-7.5918 -5.59375,-11.5 -1.7631,-3.9082 -3.4316,-7.8984 -5,-11.9375 -1.5683,-4.0391 -3.0533,-8.1074 -4.4375,-12.25 -1.3843,-4.1426 -2.6641,-8.3437 -3.875,-12.5625 -1.211,-4.2188 -2.3267,-8.4824 -3.375,-12.75 -1.0484,-4.2676 -2.041,-8.5234 -2.9375,-12.8125 C 902.73835,1011.1094 901.25,1002.5 900,994 c -1.25,-8.5 -2.23835,-16.9219 -3.03125,-25.125 -0.793,-8.2031 -1.3906,-16.1875 -1.8125,-23.875 -0.4218,-7.6875 -0.6758,-15.0469 -0.8125,-22 -0.1368,-6.9531 -0.15615,-13.5 -0.0937,-19.5 0.125,-12 0.56245,-21.875 0.96875,-28.75 C 895.62505,867.875 896,864 896,864 l 89.09375,-237.5625 z"
       transform="translate(1056,351.99972)"
       id="path4154"
       inkscape:connector-curvature="0" />
    <path
       style="fill:#ffffff;stroke:#000078;stroke-width:10;stroke-linecap:round;stroke-linejoin:round;stroke-miterlimit:4;stroke-dasharray:none;stroke-opacity:1"
       d="M 1840.5938,712.09375 C 1822.3499,712.44751 1800.75,716.75 1776,728 c 0,0 -64,48 -24,96 l 32,24 -16,24 -40,-40 c 0,0 -40,-24 -32,16 0,0 8,40 40,40 l 8,16 -16,32 8,56 -8,32 96,80 128,-120 -24,-40 32,0 c 32,0 24,-24 24,-24 l -16,-32 c 16,-16 0,-24 0,-24 16,-8 0,-16 0,-16 l -16,-16 24,-16 0,-16 -56,-40 c -16,-8 -8,-24 -8,-24 0,0 -24.783,-24.8103 -71.4062,-23.90625 z"
       id="path5419"
       inkscape:connector-curvature="0" />
    <path
       inkscape:connector-curvature="0"
       style="fill:#ffffff;stroke:#000078;stroke-width:10;stroke-linecap:round;stroke-linejoin:round;stroke-miterlimit:4;stroke-dasharray:none;stroke-opacity:1"
       d="m 1728,1024 -24,32 -50.3438,28.75 L 1712,1184 1823.9509,1192.0105 1936,1168 2007.6562,980.53125 1952,984 1824,1104 Z"
       id="path3909"
       sodipodi:nodetypes="cccccccccc" />
    <path
       inkscape:connector-curvature="0"
       style="fill:#ffffff;stroke:#000078;stroke-width:10;stroke-linecap:round;stroke-linejoin:round;stroke-miterlimit:4;stroke-dasharray:none;stroke-opacity:1"
       d="m 2600,880 -24,40 -16,16 -8,16 -253.4375,90.5 c 0.1279,-1.4731 0.2611,-2.9097 0.4063,-4.3125 0.1099,-1.0638 0.2258,-2.042 0.3437,-3.0625 0.01,-0.055 0.025,-0.101 0.031,-0.1562 0.2586,-2.2311 0.4989,-4.3697 0.7812,-6.375 0.01,-0.072 0.021,-0.1476 0.031,-0.2188 0.2938,-2.0739 0.6082,-4.0105 0.9063,-5.8125 0.017,-0.1013 0.015,-0.1808 0.031,-0.2813 0.1966,-1.1773 0.4031,-2.2326 0.5937,-3.2812 0.051,-0.2812 0.106,-0.6035 0.1563,-0.875 0.038,-0.2054 0.056,-0.3627 0.094,-0.5625 0.066,-0.3495 0.1235,-0.6052 0.1875,-0.9375 0.2111,-1.0969 0.4377,-2.1933 0.625,-3.0938 0.4014,-1.9297 0.6207,-2.8774 0.8438,-3.8124 C 2303.8574,1008.5957 2304,1008 2304,1008 l -8,0 -8,0 -32,24 -48,-24 -8,16 0,16 -72,-56 -48,-8 -38.9062,2.4375 L 1952,1216 c 0,0 -0.3751,3.875 -0.7812,10.75 -0.4065,6.875 -0.8438,16.75 -0.9688,28.75 -0.062,6 -0.043,12.5469 0.094,19.5 0.1367,6.9531 0.3906,14.3125 0.8124,22 0.4221,7.6875 1.0195,15.6719 1.8126,23.875 0.7927,8.2031 1.7812,16.625 3.0312,25.125 1.25,8.5 2.7383,17.1094 4.5312,25.6875 0.8967,4.2891 1.8892,8.5449 2.9376,12.8125 1.0481,4.2676 2.1638,8.5312 3.375,12.75 1.2109,4.2188 2.4907,8.4199 3.875,12.5625 1.384,4.1426 2.8691,8.2109 4.4374,12.25 1.5686,4.0391 3.2371,8.0293 5,11.9375 1.7634,3.9082 3.625,7.75 5.5938,11.5 1.9688,3.75 4.0335,7.4043 6.2188,10.9688 2.1848,3.5643 4.4941,7.0546 6.9062,10.4062 2.4121,3.3516 4.9436,6.5762 7.5938,9.6875 2.6497,3.1113 5.4141,6.0937 8.3124,8.9375 2.8986,2.8438 5.9361,5.5449 9.0938,8.0938 3.1577,2.5488 6.4473,4.9296 9.875,7.1562 3.4277,2.2266 6.979,4.3105 10.6875,6.1875 3.7085,1.877 7.5625,3.5625 11.5625,5.0625 -4.9062,1.5625 22.9732,-7.4866 24,-8 16,-8 47.9998,-280 47.9998,-280 l 168.0002,32 24,24 56,-56 8,-24 c -0.9402,-0.3134 -1.8604,-0.6417 -2.7812,-0.9688 -0.2945,-0.1045 -0.5826,-0.2065 -0.875,-0.3124 -0.4728,-0.1713 -0.9387,-0.3565 -1.4063,-0.5313 -0.4701,-0.1758 -0.9413,-0.3519 -1.4063,-0.5313 -0.5711,-0.2202 -1.1554,-0.4306 -1.7187,-0.6562 -0.062,-0.025 -0.1257,-0.038 -0.1875,-0.062 -0.3105,-0.1249 -0.5981,-0.2798 -0.9062,-0.4063 -1.0303,-0.4228 -2.0586,-0.8407 -3.0626,-1.2812 -0.337,-0.1479 -0.6659,-0.2877 -1,-0.4375 -0.8295,-0.372 -1.6571,-0.7411 -2.4687,-1.125 -0.012,-0.01 -0.019,-0.025 -0.031,-0.031 -0.1146,-0.054 -0.2294,-0.1017 -0.3437,-0.1562 L 2600,1000 l 48,0 120,-64 8,-16 -120,23.99972 -48,-7.99972 -16,-8 c 0,0 16,-24 16,-32 0,-8 -8,-16 -8,-16 z"
       id="path3094"
       sodipodi:nodetypes="ccccccccccccccccccccccccccccccccccsccccccscscccsscsccccccccccccccccccccccccsc" />
    <path
       style="fill:#ffffff;stroke:#000078;stroke-width:10;stroke-linecap:round;stroke-linejoin:round;stroke-miterlimit:4;stroke-dasharray:none;stroke-opacity:1"
       d="M 567.125,750.21875 536,768 l -32,16 -24,24 -16,24 -8,152 16,8 -24,8 -8,16 8,32 -24,40 8,16 c 0,0 0.38656,-0.1377 1,-0.3438 0.46107,-0.1541 1.26842,-0.4175 2.03125,-0.6562 0.0921,-0.029 0.2476,-0.064 0.34375,-0.094 0.44877,-0.1387 0.93186,-0.2781 1.46875,-0.4374 1.09054,-0.3238 2.24846,-0.673 3.6875,-1.0626 0.11787,-0.032 0.22362,-0.061 0.34375,-0.094 1.70707,-0.4584 3.66516,-0.9617 5.8125,-1.4687 0.13958,-0.033 0.29613,-0.061 0.4375,-0.094 0.88772,-0.2075 1.85568,-0.4146 2.8125,-0.625 0.0803,-0.018 0.16918,-0.045 0.25,-0.062 1.06009,-0.2318 2.17164,-0.456 3.3125,-0.6875 1.07838,-0.2187 2.19581,-0.441 3.34375,-0.6562 2.03433,-0.3815 4.19524,-0.7368 6.4375,-1.0938 0.67314,-0.1072 1.34016,-0.2398 2.03125,-0.3438 0.85428,-0.1284 1.74393,-0.2522 2.625,-0.375 0.64193,-0.089 1.25042,-0.1952 1.90625,-0.2812 1.73001,-0.2271 3.48902,-0.4261 5.3125,-0.625 L 448,1296 l -48,88 0,64 48,32 80,-16 0,-32 -24,0 -32,-32 16,-8 24,24 16,8 0,-32 -24,-64 0,-8 72,-160 c 0,0 1.6406,-2.9844 4.375,-8.4375 2.7344,-5.4531 6.5625,-13.375 11,-23.1875 1.90861,-4.2203 3.9453,-8.865 6.03125,-13.75 3.52466,1.6754 7.06341,3.4494 10.59375,5.375 l 16,-8 0,-56 16,-32 -7.6875,-15.375 c 0.38529,-1.7508 0.7633,-3.492 1.125,-5.25 1.6797,-8.1641 3.1113,-16.3965 4.25,-24.625 0.5693,-4.1143 1.05885,-8.23895 1.46875,-12.34375 0.41,-4.1047 0.73435,-8.20315 0.96875,-12.28125 0.2344,-4.0781 0.36355,-8.1531 0.40625,-12.1875 0.043,-4.0344 0.01,-8.0264 -0.15625,-12 -0.165,-3.9736 -0.45475,-7.9167 -0.84375,-11.8125 -0.3889,-3.8958 -0.90235,-7.7617 -1.53125,-11.5625 -0.6289,-3.8008 -1.365,-7.53005 -2.25,-11.21875 -0.885,-3.6888 -1.9053,-7.3155 -3.0625,-10.875 C 631.5303,880.90915 630.22685,877.4133 628.78125,874 627.33575,870.5867 625.75,867.25 624,864 L 567.125,750.21875 Z"
       transform="translate(1056,351.99972)"
       id="path3092"
       inkscape:connector-curvature="0" />
    <path
       style="fill:#000078;fill-opacity:1;stroke:#000078;stroke-width:10;stroke-miterlimit:4;stroke-dasharray:none;stroke-opacity:1"
       d="m 1744,904 -16,32 -16,-24 c -128,-104 -24,-192 -24,-192 32,-96 184,-64 184,-64 l 104,72 c 0,0 -48,16 -64,8 0,0 -48,-48 -136,-8 0,0 -64,48 -24,96 l 32,24 -16,24 -40,-40 c 0,0 -40,-24 -32,16 0,0 8,40 40,40 z"
       id="path5415"
       inkscape:connector-curvature="0"
       sodipodi:nodetypes="ccccccccccccccc" />
    <path
       style="fill:#ffffff;stroke:#000078;stroke-width:10;stroke-linecap:round;stroke-linejoin:round;stroke-miterlimit:4;stroke-dasharray:none;stroke-opacity:1"
       d="m 1488,1456 c 0,0 88,-32 176,16 l 16,-8 0,-56 16,-32 -8,-16 -104,0 -40,-8 -16,-8 -24,8 -8,16 8,32 -24,40 z"
       id="path5435"
       inkscape:connector-curvature="0"
       sodipodi:nodetypes="cccccccccccccc" />
    <path
       style="fill:#ffffff;stroke:#000078;stroke-width:10;stroke-linecap:round;stroke-linejoin:round;stroke-miterlimit:4;stroke-dasharray:none;stroke-opacity:1"
       d="m 2304,1008 c 0,0 -40,152 80,192 l -8,24 -56,56 -24,-24 -64,-80 -32,-136 0,-16 8,-16 48,24 32,-24 z"
       id="path3883"
       inkscape:connector-curvature="0"
       sodipodi:nodetypes="cccccccccccc" />
  </g>
  <g
     inkscape:groupmode="layer"
     id="layer5"
     inkscape:label="Bagel"
     style="display:inline"
     transform="translate(-850.61717,-352.90593)"
     sodipodi:insensitive="true">
    <path
       style="fill:#ffffff;fill-opacity:1;stroke:none"
       d="m 2648,353.15597 c -162.838,0 -294.8437,132.00571 -294.8437,294.84375 0,162.83804 132.0057,294.84375 294.8437,294.84375 162.838,0 294.8437,-132.00571 294.8437,-294.84375 0,-162.83804 -132.0057,-294.84375 -294.8437,-294.84375 z m -88.25,175 c 27.8954,-0.39317 61.6319,46.01649 138,65.53125 46.8825,11.9802 64.0638,30.94085 78.875,67.96875 16,40 -23.9925,120.0114 -94.4375,144.1875 -81.555,31.8239 -145.5625,-8.1875 -137.5625,-40.1875 8,-32 24,-64 16,-96 -16,-32 -64,-104 -16,-136 5,-3.75 9.9592,-5.42719 15.125,-5.5 z"
       id="path3590"
       inkscape:connector-curvature="0"
       sodipodi:nodetypes="sssssssscsccs" />
    <g
       id="g3601">
      <path
         style="fill:#000078;fill-opacity:1;fill-rule:nonzero;stroke:none"
         d="m 2544.6325,533.66737 c -48,32 0,104 16,136 8,32 -8,64 -16,96 -8,32 56,72 137.555,40.1761 70.445,-24.1761 110.445,-104.1761 94.445,-144.1761 -14.8112,-37.0279 -32,-56 -78.8825,-67.9802 -90.5103,-23.1286 -121.1175,-84.0198 -153.1175,-60.0198 z m 28.8675,49.4576 c 0,0 35.1325,6.5424 83.1325,22.5424 39.2035,13.0678 68.9463,82.3571 64,104 -8,24 -88,72 -120,40 -28.2842,-28.2843 8.4613,-112.0112 -15.5387,-128.0112 -16,-8 -24.4613,-39.9888 -11.5938,-38.5312 z"
         id="path5100"
         inkscape:connector-curvature="0"
         sodipodi:nodetypes="ccccssccscscc" />
      <path
         style="fill:#000078;fill-opacity:1;stroke:none"
         d="m 2648,351.99972 c -163.4763,0 -296,132.5237 -296,296 0,163.4763 132.5237,296 296,296 163.4762,0 296,-132.5237 296,-296 0,-163.4763 -132.5238,-296 -296,-296 z m 45.4061,21.2812 c 0,1e-4 3.2158,9.8275 0.3439,16.9376 -0.1137,0.3215 -0.2488,0.6244 -0.4062,0.9374 -1.9862,3.9468 -6.8032,5.5487 -10.75,3.5626 -3.9467,-1.9862 -5.5175,-6.8034 -3.5313,-10.75 0.1574,-0.313 0.3085,-0.5926 0.5,-0.875 3.9976,-6.5437 13.8436,-9.8126 13.8436,-9.8126 z M 2632,391.99972 c 34.8125,3.0944 38.4248,45.5851 32,56 -6.4264,10.4135 -24,0 -24,24 16,64 120,112 136,112 16,0 22.7177,-13.7412 40,-16 22.6372,-2.9582 40,24 48,48 8,16 -20.1958,39.7893 0,56 11.8042,7.7893 16,16 16,40 0,24 -26.0534,38.4739 -16,56 5.9466,14.4739 11.8042,22.0712 0,32 -20.1958,14.0713 -37.6267,15.2914 -56,32 -15.1387,13.7668 -35.1461,59.3734 -48,64 -12.8527,4.6304 -59.4534,17.4905 -64,0 -3.4536,-14.5095 46.7339,-14.0198 40,-40 -9.2664,-22.0198 -48.176,0.7351 -64,8 -16.176,8.7351 -32.9759,20.2062 -56,0 -32.9761,-27.7938 -26.6445,23.8998 -32,32 -5.3545,8.1007 -114.9235,-36.3303 -115.625,-60.3125 8.7015,-16.0178 32.7055,-0.01 46.0625,-11.5625 10.643,-12.4476 -26.482,-194.149 -48.2187,-200.2188 -15.6052,-4.3575 -26.2763,38.074 1.0623,99.5313 18.0085,46.3616 -67.2811,-11.4375 -67.2811,-83.4375 0,-64 32,-120 56,-144 40,-40 128,-104 176,-104 z m 104.2188,35.0938 c -2e-4,0 -0.053,10.3551 -5.0313,16.1874 -0.2099,0.2691 -0.439,0.5031 -0.6875,0.75 -3.1353,3.1131 -8.1993,3.1039 -11.3125,-0.031 -3.113,-3.1351 -3.104,-8.1993 0.031,-11.3125 0.2484,-0.2469 0.5101,-0.4802 0.7812,-0.6875 5.8664,-4.9381 16.2188,-4.9062 16.2188,-4.9062 z m 42.7187,1.6874 c 3.5729,0.024 9.0709,0.5662 13.0625,3.2188 0.2921,0.1761 0.5689,0.3765 0.8438,0.5938 3.4663,2.7397 4.0522,7.7525 1.3123,11.2187 -2.7397,3.4663 -7.7525,4.0835 -11.2186,1.3437 -0.2749,-0.2172 -0.5431,-0.4432 -0.7814,-0.6874 -5.6048,-5.2329 -6.8123,-15.5313 -6.8123,-15.5313 0,0 1.4499,-0.1709 3.5937,-0.1563 z M 2688,451.99972 c 0,0 7.3069,7.3266 7.9375,14.9688 0.043,0.3384 0.062,0.6808 0.062,1.0312 0,4.4183 -3.5817,8 -8,8 -4.4182,0 -8,-3.5817 -8,-8 0,-0.3504 0.019,-0.6928 0.062,-1.0312 0.6306,-7.6423 7.9386,-14.9688 7.9386,-14.9688 z m 145.4061,10.0938 c 2e-4,-2e-4 0.4182,10.3469 -4.2811,16.4062 -0.1971,0.2785 -0.3882,0.5542 -0.625,0.8125 -2.9858,3.2568 -8.0557,3.4546 -11.3125,0.4687 -3.2569,-2.9854 -3.4858,-8.0244 -0.5,-11.2812 0.2368,-0.2583 0.4888,-0.4989 0.75,-0.7188 5.6284,-5.2074 15.969,-5.6874 15.9686,-5.6874 z m -73.1873,16.5312 c 1.0639,-0.028 1.6873,0 1.6873,0 2e-4,0 -0.4879,10.3305 -5.7186,15.9375 -0.2216,0.2595 -0.4595,0.5143 -0.7187,0.75 -3.2695,2.9719 -8.3406,2.7383 -11.3127,-0.5313 -2.9719,-3.2689 -2.7381,-8.3405 0.5314,-11.3124 0.2593,-0.2358 0.5324,-0.4612 0.8125,-0.6563 4.5588,-3.5059 11.5264,-4.1032 14.7188,-4.1875 z m 77.5937,39.5625 c 0,0 3.2469,9.8275 0.375,16.9375 -0.1137,0.3216 -0.2486,0.6557 -0.4064,0.9688 -1.9854,3.9465 -6.8031,5.5173 -10.75,3.5312 -3.9465,-1.9861 -5.5486,-6.772 -3.5623,-10.7188 0.1574,-0.3123 0.3398,-0.6237 0.5312,-0.9062 3.9976,-6.5436 13.8125,-9.8125 13.8125,-9.8125 z m 35.75,14.5625 c 0,0 9.713,3.5508 13.5,10.2188 0.1813,0.2889 0.3526,0.6195 0.5,0.9374 1.8587,4.0083 0.1019,8.7351 -3.9064,10.5938 -4.0081,1.8587 -8.735,0.1333 -10.5936,-3.875 -0.1474,-0.3179 -0.3037,-0.6433 -0.4064,-0.9688 -2.6437,-7.1974 0.9064,-16.9062 0.9064,-16.9062 z m -112.25,2.2188 c 3.5729,0.024 9.0709,0.5349 13.0625,3.1874 0.2921,0.1762 0.6001,0.3766 0.875,0.5938 3.4663,2.7398 4.0522,7.7838 1.3125,11.25 -2.7398,3.4663 -7.7839,4.0523 -11.25,1.3125 -0.2749,-0.2173 -0.5431,-0.4432 -0.7814,-0.6875 -5.6048,-5.2329 -6.8123,-15.5 -6.8123,-15.5 0,0 1.4499,-0.1709 3.5937,-0.1562 z m 144.8125,53.625 c 0,0 9.5684,3.9866 13.0625,10.8124 0.1687,0.2965 0.304,0.6135 0.4375,0.9376 1.6829,4.085 -0.2587,8.7546 -4.3439,10.4374 -4.085,1.6832 -8.7545,-0.2585 -10.4373,-4.3437 -0.1335,-0.324 -0.2558,-0.6391 -0.3438,-0.9687 -2.3289,-7.3062 1.625,-16.875 1.625,-16.875 z m -11.3125,48.25 c 0,0 3.2469,9.8274 0.375,16.9374 -0.1137,0.3217 -0.2486,0.6558 -0.4064,0.9688 -1.9861,3.9468 -6.8031,5.5174 -10.75,3.5312 -3.9465,-1.9861 -5.5486,-6.772 -3.5623,-10.7187 0.1574,-0.313 0.3398,-0.6238 0.5312,-0.9063 3.9976,-6.5434 13.8125,-9.8124 13.8125,-9.8124 z m 8,112 c 0,0 3.2469,9.8274 0.375,16.9374 -0.1137,0.3217 -0.2486,0.6558 -0.4064,0.9688 -1.9861,3.9468 -6.8031,5.5174 -10.75,3.5312 -3.9465,-1.9854 -5.5486,-6.772 -3.5623,-10.7187 0.1574,-0.313 0.3398,-0.6236 0.5312,-0.9063 3.9976,-6.5434 13.8125,-9.8124 13.8125,-9.8124 z"
         id="path5098"
         inkscape:connector-curvature="0"
         sodipodi:nodetypes="sssssccccccccccsccccccsccccccccscccccccccccccccccccccsssccccscsccsccscccscccccccccccccccccsccccccccccccccccccccccccc" />
    </g>
    <circle
       style="fill:#ffffff;fill-opacity:1;stroke:none"
       id="path3543"
       transform="matrix(1.1556363,0,0,1.1556363,3529.6448,-910.9543)"
       cx="-977.50891"
       cy="576.86401"
       r="255.13594" />
  </g>
</svg>
