<?xml version="1.0" encoding="UTF-8" standalone="no"?>
<!-- Created with Inkscape (http://www.inkscape.org/) -->

<svg
   xmlns:dc="http://purl.org/dc/elements/1.1/"
   xmlns:cc="http://creativecommons.org/ns#"
   xmlns:rdf="http://www.w3.org/1999/02/22-rdf-syntax-ns#"
   xmlns:svg="http://www.w3.org/2000/svg"
   xmlns="http://www.w3.org/2000/svg"
   xmlns:sodipodi="http://sodipodi.sourceforge.net/DTD/sodipodi-0.dtd"
   xmlns:inkscape="http://www.inkscape.org/namespaces/inkscape"
   width="1920"
   height="1080"
   id="svg2"
   version="1.1"
   inkscape:version="0.48.4 r9939"
   inkscape:export-filename="/media/Disk/Dropbox/TNDesigns/graphic/wallpapers/nani.png"
   inkscape:export-xdpi="90"
   inkscape:export-ydpi="90"
   sodipodi:docname="doo.svg">
  <defs
     id="defs4" />
  <sodipodi:namedview
     id="base"
     pagecolor="#000000"
     bordercolor="#666666"
     borderopacity="1.0"
     inkscape:pageopacity="0"
     inkscape:pageshadow="2"
     inkscape:zoom="0.37369792"
     inkscape:cx="960"
     inkscape:cy="540"
     inkscape:document-units="px"
     inkscape:current-layer="layer1"
     showgrid="false"
     showborder="true"
     inkscape:showpageshadow="false"
     inkscape:window-width="1920"
     inkscape:window-height="1057"
     inkscape:window-x="1600"
     inkscape:window-y="0"
     inkscape:window-maximized="1"
     borderlayer="true">
    <inkscape:grid
       type="xygrid"
       id="grid4158"
       empspacing="5"
       visible="true"
       enabled="true"
       snapvisiblegridlinesonly="true" />
  </sodipodi:namedview>
  <metadata
     id="metadata7">
    <rdf:RDF>
      <cc:Work
         rdf:about="">
        <dc:format>image/svg+xml</dc:format>
        <dc:type
           rdf:resource="http://purl.org/dc/dcmitype/StillImage" />
        <dc:title></dc:title>
      </cc:Work>
    </rdf:RDF>
  </metadata>
  <g
     inkscape:label="Layer 1"
     inkscape:groupmode="layer"
     id="layer1"
     transform="translate(0,27.637817)">
    <rect
       style="fill:#333333;fill-opacity:1;stroke:none"
       id="rect2985"
       width="2000"
       height="2000"
       x="-40"
       y="-487.63782"
       rx="5.2244329" />
    <g
       style="fill:#000000;fill-opacity:0.47058824"
       id="g4160"
       transform="translate(-10,10)">
      <path
         inkscape:connector-curvature="0"
         id="path4162"
         style="font-size:40px;font-style:normal;font-variant:normal;font-weight:normal;font-stretch:normal;line-height:125%;letter-spacing:0px;word-spacing:0px;fill:#000000;fill-opacity:0.47058824;stroke:none;font-family:Monospace;-inkscape-font-specification:Monospace"
         d="m 563.92969,449.25671 c -6.23443,10.6876 -10.89849,21.35165 -13.99219,31.99219 -3.04692,10.59382 -4.57036,21.2813 -4.57031,32.0625 -5e-5,10.73441 1.52339,21.4219 4.57031,32.0625 3.0937,10.64063 7.75776,21.35155 13.99219,32.13281 l -11.25,0 c -7.07817,-11.15626 -12.3516,-22.00781 -15.82032,-32.55469 -3.46878,-10.59372 -5.20315,-21.14059 -5.20312,-31.64062 -3e-5,-10.45307 1.73434,-20.9765 5.20312,-31.57031 3.46872,-10.59367 8.74215,-21.42178 15.82032,-32.48438 l 11.25,0" />
      <path
         inkscape:connector-curvature="0"
         id="path4164"
         style="font-size:40px;font-style:normal;font-variant:normal;font-weight:normal;font-stretch:normal;line-height:125%;letter-spacing:0px;word-spacing:0px;fill:#000000;fill-opacity:0.47058824;stroke:none;font-family:Monospace;-inkscape-font-specification:Monospace"
         d="m 718.26562,451.64734 c 3.04683,1e-4 5.92964,0.58604 8.64844,1.75781 2.76557,1.1251 5.17963,2.76573 7.24219,4.92187 2.10931,2.10948 3.70306,4.5001 4.78125,7.17188 1.12493,2.67196 1.68743,5.55477 1.6875,8.64844 -7e-5,6.18757 -2.17975,11.43757 -6.53906,15.75 -4.35943,4.26569 -9.67974,6.3985 -15.96094,6.39843 -6.32816,7e-5 -11.60159,-2.10931 -15.82031,-6.32812 -4.21878,-4.21868 -6.32815,-9.49211 -6.32813,-15.82031 -2e-5,-6.28116 2.15623,-11.60147 6.46875,-15.96094 4.31247,-4.35927 9.5859,-6.53896 15.82031,-6.53906 m 0,9.07031 c -3.70316,1e-4 -6.86722,1.3126 -9.49218,3.9375 -2.57816,2.57822 -3.86722,5.74227 -3.86719,9.49219 -3e-5,3.75008 1.26559,6.8907 3.79687,9.42187 2.57809,2.53132 5.71872,3.79695 9.42188,3.79688 3.74995,7e-5 6.93745,-1.28899 9.5625,-3.86719 2.67182,-2.57805 4.00776,-5.69523 4.00781,-9.35156 -5e-5,-3.70304 -1.31255,-6.8671 -3.9375,-9.49219 -2.62505,-2.6249 -5.78911,-3.9374 -9.49219,-3.9375" />
      <path
         sodipodi:nodetypes="cccccccccsssccccccscccsc"
         inkscape:connector-curvature="0"
         id="path4166"
         style="font-size:40px;font-style:normal;font-variant:normal;font-weight:normal;font-stretch:normal;line-height:125%;letter-spacing:0px;word-spacing:0px;fill:#000000;fill-opacity:0.47058824;stroke:none;font-family:Monospace;-inkscape-font-specification:Monospace"
         d="m 916.7641,539.89072 10.7515,0 0,38.74099 -13.32835,0 0,-25.41266 -89.5169,0 0,25.41266 -13.32832,0 0,-38.74099 5.95331,0 c 3.25803,0 5.36094,-6.72338 6.30874,-20.1702 0.94777,-13.44674 1.42169,-23.13198 1.42169,-29.05573 l 0,-36.96388 91.73833,0 0,86.18981 m -16.43825,0 0,-72.86149 -59.03953,0 0,23.99098 c 0,5.92375 -0.5924,16.20137 -1.7771,30.83285 -0.47394,8.53015 -0.91821,13.29873 -1.33284,14.30574 -0.41469,0.9478 -0.62202,1.80674 -0.62199,2.5768 -3e-5,0.77009 1.007,1.15512 3.02109,1.15512 l 59.75037,0" />
      <path
         inkscape:connector-curvature="0"
         id="path4168"
         style="font-size:40px;font-style:normal;font-variant:normal;font-weight:normal;font-stretch:normal;line-height:125%;letter-spacing:0px;word-spacing:0px;fill:#000000;fill-opacity:0.47058824;stroke:none;font-family:Monospace;-inkscape-font-specification:Monospace"
         d="m 978.1406,451.64734 c 3.0469,1e-4 5.9297,0.58604 8.6485,1.75781 2.7655,1.1251 5.1796,2.76573 7.2422,4.92187 2.1093,2.10948 3.703,4.5001 4.7812,7.17188 1.1249,2.67196 1.6874,5.55477 1.6875,8.64844 -10e-5,6.18757 -2.1798,11.43757 -6.5391,15.75 -4.3594,4.26569 -9.6797,6.3985 -15.9609,6.39843 -6.3282,7e-5 -11.6016,-2.10931 -15.8203,-6.32812 -4.2188,-4.21868 -6.3282,-9.49211 -6.3281,-15.82031 -10e-5,-6.28116 2.1562,-11.60147 6.4687,-15.96094 4.3125,-4.35927 9.5859,-6.53896 15.8203,-6.53906 m 0,9.07031 c -3.7031,1e-4 -6.8672,1.3126 -9.4922,3.9375 -2.5781,2.57822 -3.8672,5.74227 -3.8671,9.49219 -10e-5,3.75008 1.2655,6.8907 3.7968,9.42187 2.5781,2.53132 5.7187,3.79695 9.4219,3.79688 3.75,7e-5 6.9374,-1.28899 9.5625,-3.86719 2.6718,-2.57805 4.0078,-5.69523 4.0078,-9.35156 0,-3.70304 -1.3125,-6.8671 -3.9375,-9.49219 -2.625,-2.6249 -5.7891,-3.9374 -9.4922,-3.9375" />
      <path
         inkscape:connector-curvature="0"
         id="path4170"
         style="font-size:40px;font-style:normal;font-variant:normal;font-weight:normal;font-stretch:normal;line-height:125%;letter-spacing:0px;word-spacing:0px;fill:#000000;fill-opacity:0.47058824;stroke:none;font-family:Monospace;-inkscape-font-specification:Monospace"
         d="m 1045.9219,449.25671 11.25,0 c 7.0781,11.0626 12.3515,21.89071 15.8203,32.48438 3.4687,10.59381 5.2031,21.11724 5.2031,31.57031 0,10.54691 -1.7344,21.11721 -5.2031,31.71094 -3.4688,10.59375 -8.7422,21.42186 -15.8203,32.48437 l -11.25,0 c 6.2343,-10.87501 10.8749,-21.63281 13.9219,-32.27344 3.0937,-10.6406 4.6405,-21.28121 4.6406,-31.92187 -10e-5,-10.68745 -1.5469,-21.3515 -4.6406,-31.99219 -3.047,-10.64054 -7.6876,-21.32803 -13.9219,-32.0625" />
      <path
         inkscape:connector-curvature="0"
         id="path4172"
         style="font-size:144px;font-style:normal;font-weight:normal;text-align:center;line-height:125%;letter-spacing:0px;word-spacing:0px;text-anchor:middle;fill:#000000;fill-opacity:0.47058824;stroke:none;font-family:Sans;-inkscape-font-specification:Monospace"
         d="m 1179.375,446.09265 11.6719,0 0,40.28906 c 19.2655,8.81256 37.3593,18.70318 54.2812,29.67188 l -7.5937,11.67187 c -15.9376,-12.14058 -31.5001,-22.0312 -46.6875,-29.67187 l 0,64.61718 -11.6719,0 0,-116.57812 m 53.1563,34.52344 c -3.7501,-6.79679 -8.0861,-13.07804 -13.0079,-18.84375 l 7.6641,-5.34375 c 3.9843,4.12509 8.5312,10.35946 13.6406,18.70312 l -8.2968,5.48438 m 16.664,-7.17188 c -4.3595,-7.49991 -8.8594,-13.54678 -13.5,-18.14062 l 7.5938,-5.20313 c 5.0624,4.59386 9.8202,10.5001 14.2734,17.71875 l -8.3672,5.625" />
      <path
         inkscape:connector-curvature="0"
         id="path4174"
         style="font-size:144px;font-style:normal;font-weight:normal;text-align:center;line-height:125%;letter-spacing:0px;word-spacing:0px;text-anchor:middle;fill:#000000;fill-opacity:0.47058824;stroke:none;font-family:Sans;-inkscape-font-specification:Monospace"
         d="m 1270.8516,498.05359 117.4922,0 0,11.53125 -117.4922,0 0,-11.53125" />
    </g>
    <g
       id="g4090"
       style="fill:#ffffff">
      <path
         d="m 563.92969,449.25671 c -6.23443,10.6876 -10.89849,21.35165 -13.99219,31.99219 -3.04692,10.59382 -4.57036,21.2813 -4.57031,32.0625 -5e-5,10.73441 1.52339,21.4219 4.57031,32.0625 3.0937,10.64063 7.75776,21.35155 13.99219,32.13281 l -11.25,0 c -7.07817,-11.15626 -12.3516,-22.00781 -15.82032,-32.55469 -3.46878,-10.59372 -5.20315,-21.14059 -5.20312,-31.64062 -3e-5,-10.45307 1.73434,-20.9765 5.20312,-31.57031 3.46872,-10.59367 8.74215,-21.42178 15.82032,-32.48438 l 11.25,0"
         style="font-size:40px;font-style:normal;font-variant:normal;font-weight:normal;font-stretch:normal;line-height:125%;letter-spacing:0px;word-spacing:0px;fill:#ffffff;fill-opacity:1;stroke:none;font-family:Monospace;-inkscape-font-specification:Monospace"
         id="path4069"
         inkscape:connector-curvature="0" />
      <path
         d="m 718.26562,451.64734 c 3.04683,1e-4 5.92964,0.58604 8.64844,1.75781 2.76557,1.1251 5.17963,2.76573 7.24219,4.92187 2.10931,2.10948 3.70306,4.5001 4.78125,7.17188 1.12493,2.67196 1.68743,5.55477 1.6875,8.64844 -7e-5,6.18757 -2.17975,11.43757 -6.53906,15.75 -4.35943,4.26569 -9.67974,6.3985 -15.96094,6.39843 -6.32816,7e-5 -11.60159,-2.10931 -15.82031,-6.32812 -4.21878,-4.21868 -6.32815,-9.49211 -6.32813,-15.82031 -2e-5,-6.28116 2.15623,-11.60147 6.46875,-15.96094 4.31247,-4.35927 9.5859,-6.53896 15.82031,-6.53906 m 0,9.07031 c -3.70316,1e-4 -6.86722,1.3126 -9.49218,3.9375 -2.57816,2.57822 -3.86722,5.74227 -3.86719,9.49219 -3e-5,3.75008 1.26559,6.8907 3.79687,9.42187 2.57809,2.53132 5.71872,3.79695 9.42188,3.79688 3.74995,7e-5 6.93745,-1.28899 9.5625,-3.86719 2.67182,-2.57805 4.00776,-5.69523 4.00781,-9.35156 -5e-5,-3.70304 -1.31255,-6.8671 -3.9375,-9.49219 -2.62505,-2.6249 -5.78911,-3.9374 -9.49219,-3.9375"
         style="font-size:40px;font-style:normal;font-variant:normal;font-weight:normal;font-stretch:normal;line-height:125%;letter-spacing:0px;word-spacing:0px;fill:#ffffff;fill-opacity:1;stroke:none;font-family:Monospace;-inkscape-font-specification:Monospace"
         id="path4071"
         inkscape:connector-curvature="0" />
      <path
         d="m 916.7641,539.89072 10.7515,0 0,38.74099 -13.32835,0 0,-25.41266 -89.5169,0 0,25.41266 -13.32832,0 0,-38.74099 5.95331,0 c 3.25803,0 5.36094,-6.72338 6.30874,-20.1702 0.94777,-13.44674 1.42169,-23.13198 1.42169,-29.05573 l 0,-36.96388 91.73833,0 0,86.18981 m -16.43825,0 0,-72.86149 -59.03953,0 0,23.99098 c 0,5.92375 -0.5924,16.20137 -1.7771,30.83285 -0.47394,8.53015 -0.91821,13.29873 -1.33284,14.30574 -0.41469,0.9478 -0.62202,1.80674 -0.62199,2.5768 -3e-5,0.77009 1.007,1.15512 3.02109,1.15512 l 59.75037,0"
         style="font-size:40px;font-style:normal;font-variant:normal;font-weight:normal;font-stretch:normal;line-height:125%;letter-spacing:0px;word-spacing:0px;fill:#ffffff;fill-opacity:1;stroke:none;font-family:Monospace;-inkscape-font-specification:Monospace"
         id="path4073"
         inkscape:connector-curvature="0"
         sodipodi:nodetypes="cccccccccsssccccccscccsc" />
      <path
         d="m 978.1406,451.64734 c 3.0469,1e-4 5.9297,0.58604 8.6485,1.75781 2.7655,1.1251 5.1796,2.76573 7.2422,4.92187 2.1093,2.10948 3.703,4.5001 4.7812,7.17188 1.1249,2.67196 1.6874,5.55477 1.6875,8.64844 -10e-5,6.18757 -2.1798,11.43757 -6.5391,15.75 -4.3594,4.26569 -9.6797,6.3985 -15.9609,6.39843 -6.3282,7e-5 -11.6016,-2.10931 -15.8203,-6.32812 -4.2188,-4.21868 -6.3282,-9.49211 -6.3281,-15.82031 -10e-5,-6.28116 2.1562,-11.60147 6.4687,-15.96094 4.3125,-4.35927 9.5859,-6.53896 15.8203,-6.53906 m 0,9.07031 c -3.7031,1e-4 -6.8672,1.3126 -9.4922,3.9375 -2.5781,2.57822 -3.8672,5.74227 -3.8671,9.49219 -10e-5,3.75008 1.2655,6.8907 3.7968,9.42187 2.5781,2.53132 5.7187,3.79695 9.4219,3.79688 3.75,7e-5 6.9374,-1.28899 9.5625,-3.86719 2.6718,-2.57805 4.0078,-5.69523 4.0078,-9.35156 0,-3.70304 -1.3125,-6.8671 -3.9375,-9.49219 -2.625,-2.6249 -5.7891,-3.9374 -9.4922,-3.9375"
         style="font-size:40px;font-style:normal;font-variant:normal;font-weight:normal;font-stretch:normal;line-height:125%;letter-spacing:0px;word-spacing:0px;fill:#ffffff;fill-opacity:1;stroke:none;font-family:Monospace;-inkscape-font-specification:Monospace"
         id="path4075"
         inkscape:connector-curvature="0" />
      <path
         d="m 1045.9219,449.25671 11.25,0 c 7.0781,11.0626 12.3515,21.89071 15.8203,32.48438 3.4687,10.59381 5.2031,21.11724 5.2031,31.57031 0,10.54691 -1.7344,21.11721 -5.2031,31.71094 -3.4688,10.59375 -8.7422,21.42186 -15.8203,32.48437 l -11.25,0 c 6.2343,-10.87501 10.8749,-21.63281 13.9219,-32.27344 3.0937,-10.6406 4.6405,-21.28121 4.6406,-31.92187 -10e-5,-10.68745 -1.5469,-21.3515 -4.6406,-31.99219 -3.047,-10.64054 -7.6876,-21.32803 -13.9219,-32.0625"
         style="font-size:40px;font-style:normal;font-variant:normal;font-weight:normal;font-stretch:normal;line-height:125%;letter-spacing:0px;word-spacing:0px;fill:#ffffff;fill-opacity:1;stroke:none;font-family:Monospace;-inkscape-font-specification:Monospace"
         id="path4077"
         inkscape:connector-curvature="0" />
      <path
         d="m 1179.375,446.09265 11.6719,0 0,40.28906 c 19.2655,8.81256 37.3593,18.70318 54.2812,29.67188 l -7.5937,11.67187 c -15.9376,-12.14058 -31.5001,-22.0312 -46.6875,-29.67187 l 0,64.61718 -11.6719,0 0,-116.57812 m 53.1563,34.52344 c -3.7501,-6.79679 -8.0861,-13.07804 -13.0079,-18.84375 l 7.6641,-5.34375 c 3.9843,4.12509 8.5312,10.35946 13.6406,18.70312 l -8.2968,5.48438 m 16.664,-7.17188 c -4.3595,-7.49991 -8.8594,-13.54678 -13.5,-18.14062 l 7.5938,-5.20313 c 5.0624,4.59386 9.8202,10.5001 14.2734,17.71875 l -8.3672,5.625"
         style="font-size:144px;font-style:normal;font-weight:normal;text-align:center;line-height:125%;letter-spacing:0px;word-spacing:0px;text-anchor:middle;fill:#ffffff;fill-opacity:1;stroke:none;font-family:Sans;-inkscape-font-specification:Monospace"
         id="path4079"
         inkscape:connector-curvature="0" />
      <path
         d="m 1270.8516,498.05359 117.4922,0 0,11.53125 -117.4922,0 0,-11.53125"
         style="font-size:144px;font-style:normal;font-weight:normal;text-align:center;line-height:125%;letter-spacing:0px;word-spacing:0px;text-anchor:middle;fill:#ffffff;fill-opacity:1;stroke:none;font-family:Sans;-inkscape-font-specification:Monospace"
         id="path4081"
         inkscape:connector-curvature="0" />
    </g>
  </g>
</svg>
