<?xml version="1.0" encoding="UTF-8" standalone="no"?>
<!-- Created with Inkscape (http://www.inkscape.org/) -->

<svg
   xmlns:dc="http://purl.org/dc/elements/1.1/"
   xmlns:cc="http://creativecommons.org/ns#"
   xmlns:rdf="http://www.w3.org/1999/02/22-rdf-syntax-ns#"
   xmlns:svg="http://www.w3.org/2000/svg"
   xmlns="http://www.w3.org/2000/svg"
   xmlns:sodipodi="http://sodipodi.sourceforge.net/DTD/sodipodi-0.dtd"
   xmlns:inkscape="http://www.inkscape.org/namespaces/inkscape"
   width="1920"
   height="1080"
   id="svg2"
   version="1.1"
   inkscape:version="0.48.4 r9939"
   inkscape:export-filename="/media/Disk/Dropbox/TNDesigns/graphic/wallpapers/sousou.png"
   inkscape:export-xdpi="90"
   inkscape:export-ydpi="90"
   sodipodi:docname="sousou.svg">
  <defs
     id="defs4" />
  <sodipodi:namedview
     id="base"
     pagecolor="#000000"
     bordercolor="#666666"
     borderopacity="1.0"
     inkscape:pageopacity="0"
     inkscape:pageshadow="2"
     inkscape:zoom="0.49497475"
     inkscape:cx="691.12976"
     inkscape:cy="462.85714"
     inkscape:document-units="px"
     inkscape:current-layer="layer1"
     showgrid="false"
     showborder="true"
     inkscape:showpageshadow="false"
     inkscape:window-width="1920"
     inkscape:window-height="1057"
     inkscape:window-x="1600"
     inkscape:window-y="0"
     inkscape:window-maximized="1"
     borderlayer="true" />
  <metadata
     id="metadata7">
    <rdf:RDF>
      <cc:Work
         rdf:about="">
        <dc:format>image/svg+xml</dc:format>
        <dc:type
           rdf:resource="http://purl.org/dc/dcmitype/StillImage" />
        <dc:title></dc:title>
      </cc:Work>
    </rdf:RDF>
  </metadata>
  <g
     inkscape:label="Layer 1"
     inkscape:groupmode="layer"
     id="layer1"
     transform="translate(0,27.637817)">
    <rect
       style="fill:#a6dac2;fill-opacity:1;stroke:none"
       id="rect2985"
       width="2000"
       height="2000"
       x="-40"
       y="-487.63782"
       rx="5.2244329" />
    <g
       id="g4029"
       transform="translate(10,0)">
      <path
         inkscape:connector-curvature="0"
         id="path3987"
         style="font-size:40px;font-style:normal;font-variant:normal;font-weight:normal;font-stretch:normal;line-height:125%;letter-spacing:0px;word-spacing:0px;fill:#000000;fill-opacity:0.47058824;stroke:none;font-family:Sans;-inkscape-font-specification:Sans Bold"
         d="m 477.70641,485.25235 13.66974,0 1.37613,55.04587 c 0.55034,0.18352 1.49836,0.55049 2.84404,1.10092 0.55034,0.18352 2.04881,0.76455 4.49541,1.74311 11.2537,4.28138 23.27202,9.90828 36.05506,16.88073 l -8.25689,12.01835 c -11.43746,-7.15594 -22.96649,-13.24156 -34.58715,-18.25688 l -0.18349,2.66056 c -1.2e-4,9.60245 -1.4986,16.36085 -4.49541,20.27523 -3.91449,5.01529 -11.74323,7.52292 -23.48624,7.52292 -12.59947,0 -22.75236,-3.18042 -30.45872,-9.54128 -5.13766,-4.40366 -7.70647,-9.75533 -7.70642,-16.05504 -5e-5,-6.91129 3.18036,-12.72168 9.54129,-17.43119 6.91124,-4.77061 15.5045,-7.15592 25.77981,-7.15596 4.5259,4e-5 10.03049,0.7034 16.51376,2.11008 l -1.10092,-50.91742 m 1.28441,63.48624 c -6.78909,-1.89601 -12.75239,-2.84402 -17.88991,-2.84404 -5.44351,2e-5 -10.00007,1.0092 -13.66972,3.02752 -4.6484,2.38535 -6.97255,5.56577 -6.97248,9.54128 -7e-5,3.60858 2.26293,6.81958 6.78899,9.63303 4.40359,2.50765 9.90818,3.76147 16.51376,3.76147 10.45862,0 15.59622,-4.61773 15.41284,-13.85321 l -0.18348,-9.26605 m -93.3945,-86.33028 c 6.1162,0.36708 11.37612,0.55058 15.77982,0.55046 7.46173,1.2e-4 13.9755,-0.27511 19.54129,-0.82568 2.87456,-8.6849 5.77976,-20.30568 8.71559,-34.86239 l 14.40368,2.20184 c -1.95727,9.60258 -4.58723,20.00012 -7.88992,31.19266 8.86843,-0.85616 19.08249,-2.66043 30.64221,-5.41285 l 0.55045,13.48624 c -12.90528,2.69124 -24.67897,4.46493 -35.32109,5.32109 -10.21413,29.41904 -23.24163,55.84103 -39.08258,79.26606 L 380,545.06886 c 14.12842,-18.59322 26.3914,-41.83479 36.78898,-69.72477 -8.62388,0.36707 -16.11623,0.55056 -22.47706,0.55046 -2.62999,1e-4 -5.25995,-0.0611 -7.8899,-0.18348 l -0.8257,-13.30276 m 139.26606,34.31193 c -10.52002,-11.62071 -22.99707,-22.32406 -37.43119,-32.1101 l 9.63302,-9.90826 c 14.6176,9.05211 27.40046,19.44965 38.34863,31.19266 l -10.55046,10.8257" />
      <path
         inkscape:connector-curvature="0"
         id="path3989"
         style="font-size:40px;font-style:normal;font-variant:normal;font-weight:normal;font-stretch:normal;line-height:125%;letter-spacing:0px;word-spacing:0px;fill:#000000;fill-opacity:0.47058824;stroke:none;font-family:Sans;-inkscape-font-specification:Sans Bold"
         d="m 571.10091,578.83033 c -3.24161,-22.75228 -4.86241,-43.4862 -4.86238,-62.20184 -3e-5,-22.32407 4.00609,-48.86839 12.01834,-79.63303 l 14.12845,3.21102 c -8.25692,30.76463 -12.38535,57.00313 -12.38533,78.71559 -2e-5,6.72788 0.48927,14.67895 1.46789,23.85321 2.75226,-5.01526 6.8807,-12.41585 12.38533,-22.20183 l 9.17431,6.42201 c -11.62084,19.75538 -17.43123,34.98473 -17.4312,45.68808 -3e-5,1.83486 0.0611,3.45566 0.18349,4.86238 l -14.6789,1.28441 m 51.10092,-121.00917 c 22.20173,-4.09774 46.39132,-6.14667 72.5688,-6.1468 l 1.2844,14.40367 c -26.97259,-0.18338 -51.07043,1.89614 -72.29357,6.23853 l -1.55963,-14.4954 m 82.84403,112.38531 c -11.86558,1.65138 -22.81359,2.47707 -32.84404,2.47707 -17.73711,0 -30.70345,-2.56881 -38.89908,-7.70642 -9.11322,-5.6269 -13.66979,-16.422 -13.66972,-32.38532 -7e-5,-2.2018 0.0611,-4.25072 0.18349,-6.14679 l 14.22017,-1.74313 c -7e-5,1.16214 -0.0612,2.8441 -0.18348,5.04588 -0.0612,1.22328 -0.0919,1.98781 -0.0917,2.29357 -9e-5,10.2141 2.56871,17.12541 7.70642,20.73396 5.07635,3.36393 14.40356,5.04588 27.98165,5.04586 8.86836,2e-5 20.12218,-0.82566 33.76146,-2.47706 l 1.83485,14.86238" />
      <path
         inkscape:connector-curvature="0"
         id="path3991"
         style="font-size:144px;font-style:normal;font-variant:normal;font-weight:bold;font-stretch:normal;text-align:center;line-height:125%;letter-spacing:0px;word-spacing:0px;text-anchor:middle;fill:#000000;fill-opacity:0.47058824;stroke:none;font-family:Monospace;-inkscape-font-specification:Sans Bold"
         d="m 836.14677,443.60097 17.70642,0 c -27.46182,22.99706 -41.19269,50.30589 -41.19265,81.9266 -4e-5,31.86546 13.66967,59.17431 41.00917,81.92661 l -17.52294,0 c -27.156,-21.59022 -40.73397,-48.83791 -40.73394,-81.74312 -3e-5,-32.53814 13.57794,-59.90815 40.73394,-82.11009" />
      <path
         inkscape:connector-curvature="0"
         id="path3993"
         style="font-size:144px;font-style:normal;font-variant:normal;font-weight:bold;font-stretch:normal;text-align:center;line-height:125%;letter-spacing:0px;word-spacing:0px;text-anchor:middle;fill:#000000;fill-opacity:0.47058824;stroke:none;font-family:Monospace;-inkscape-font-specification:Sans Bold"
         d="m 937.33944,441.67437 c 7.88985,1.3e-4 14.67883,2.87475 20.36696,8.62384 5.74916,5.6882 8.62377,12.47718 8.62386,20.36698 -9e-5,7.89001 -2.84412,14.64841 -8.53211,20.27523 -5.68814,5.62699 -12.50771,8.44044 -20.45871,8.44036 -8.01228,8e-5 -14.83185,-2.81337 -20.45872,-8.44036 -5.62694,-5.68798 -8.4404,-12.44639 -8.44037,-20.27523 -3e-5,-7.8898 2.81343,-14.67878 8.44037,-20.36698 5.68804,-5.74909 12.50759,-8.62371 20.45872,-8.62384 m 0,46.42201 c 4.83174,9e-5 8.99075,-1.71245 12.47706,-5.13762 3.48617,-3.42497 5.22929,-7.52282 5.22935,-12.29357 -6e-5,-4.95402 -1.77377,-9.17419 -5.32109,-12.66055 -3.48631,-3.48612 -7.61475,-5.22923 -12.38532,-5.22936 -4.83185,1.3e-4 -8.99087,1.77383 -12.47707,5.32111 -3.42511,3.48635 -5.13765,7.67594 -5.13761,12.5688 -4e-5,4.77075 1.7125,8.8686 5.13761,12.29357 3.42503,3.42517 7.58405,5.13771 12.47707,5.13762" />
      <path
         inkscape:connector-curvature="0"
         id="path3995"
         style="font-size:144px;font-style:normal;font-variant:normal;font-weight:bold;font-stretch:normal;text-align:center;line-height:125%;letter-spacing:0px;word-spacing:0px;text-anchor:middle;fill:#000000;fill-opacity:0.47058824;stroke:none;font-family:Monospace;-inkscape-font-specification:Sans Bold"
         d="m 1162.6606,550.11473 c 9.2965,2e-5 13.9448,5.07648 13.945,15.22936 -2e-4,10.1529 -4.6485,15.22935 -13.945,15.22935 -9.2356,0 -13.8534,-5.07645 -13.8532,-15.22935 -2e-4,-10.15288 4.6176,-15.22934 13.8532,-15.22936" />
      <path
         inkscape:connector-curvature="0"
         id="path3997"
         style="font-size:144px;font-style:normal;font-variant:normal;font-weight:bold;font-stretch:normal;text-align:center;line-height:125%;letter-spacing:0px;word-spacing:0px;text-anchor:middle;fill:#000000;fill-opacity:0.47058824;stroke:none;font-family:Monospace;-inkscape-font-specification:Sans Bold"
         d="m 1275.3211,441.67437 c 7.8898,1.3e-4 14.6787,2.87475 20.367,8.62384 5.7492,5.6882 8.6237,12.47718 8.6239,20.36698 -2e-4,7.89001 -2.8442,14.64841 -8.5322,20.27523 -5.6881,5.62699 -12.5077,8.44044 -20.4587,8.44036 -8.0124,8e-5 -14.8318,-2.81337 -20.4588,-8.44036 -5.6269,-5.68798 -8.4404,-12.44639 -8.4403,-20.27523 -10e-5,-7.8898 2.8134,-14.67878 8.4403,-20.36698 5.6882,-5.74909 12.5076,-8.62371 20.4588,-8.62384 m 0,46.42201 c 4.8318,9e-5 8.9908,-1.71245 12.477,-5.13762 3.4862,-3.42497 5.2294,-7.52282 5.2294,-12.29357 0,-4.95402 -1.7737,-9.17419 -5.3211,-12.66055 -3.4863,-3.48612 -7.6147,-5.22923 -12.3853,-5.22936 -4.8319,1.3e-4 -8.9909,1.77383 -12.4771,5.32111 -3.4251,3.48635 -5.1376,7.67594 -5.1376,12.5688 0,4.77075 1.7125,8.8686 5.1376,12.29357 3.4251,3.42517 7.5841,5.13771 12.4771,5.13762" />
      <path
         inkscape:connector-curvature="0"
         id="path3999"
         style="font-size:144px;font-style:normal;font-variant:normal;font-weight:bold;font-stretch:normal;text-align:center;line-height:125%;letter-spacing:0px;word-spacing:0px;text-anchor:middle;fill:#000000;fill-opacity:0.47058824;stroke:none;font-family:Monospace;-inkscape-font-specification:Sans Bold"
         d="m 1388.6238,474.42666 c 7.7675,10e-5 11.6514,4.25086 11.6514,12.75229 0,8.50162 -3.8839,12.75238 -11.6514,12.7523 -7.7676,8e-5 -11.6514,-4.25068 -11.6513,-12.7523 -10e-5,-8.50143 3.8837,-12.75219 11.6513,-12.75229 m 8.0734,81.46788 1.2844,2.1101 c -3.1194,12.04894 -8.5016,26.69724 -16.1468,43.94496 l -12.5688,0 c 3.792,-15.59635 6.8502,-30.94802 9.1744,-46.05506 l 18.2568,0" />
      <path
         inkscape:connector-curvature="0"
         id="path4001"
         style="font-size:144px;font-style:normal;font-variant:normal;font-weight:bold;font-stretch:normal;text-align:center;line-height:125%;letter-spacing:0px;word-spacing:0px;text-anchor:middle;fill:#000000;fill-opacity:0.47058824;stroke:none;font-family:Monospace;-inkscape-font-specification:Sans Bold"
         d="m 1489.1742,607.45418 -17.4311,0 c 27.2783,-22.69113 40.9174,-49.99998 40.9174,-81.92661 0,-31.68187 -13.7003,-58.99071 -41.1009,-81.9266 l 17.6146,0 c 27.2172,22.07962 40.8256,49.44962 40.8258,82.11009 -2e-4,33.02754 -13.6086,60.27521 -40.8258,81.74312" />
    </g>
    <g
       id="g4011">
      <path
         d="m 482.70643,480.25209 13.66974,0 1.37613,55.04587 c 0.55034,0.18352 1.49836,0.55049 2.84404,1.10092 0.55034,0.18352 2.04881,0.76456 4.49541,1.74311 11.2537,4.28138 23.27202,9.90828 36.05506,16.88073 l -8.25689,12.01835 c -11.43746,-7.15594 -22.96649,-13.24156 -34.58715,-18.25688 l -0.18349,2.66056 c -1.2e-4,9.60245 -1.4986,16.36085 -4.49541,20.27523 -3.91449,5.01529 -11.74323,7.52293 -23.48624,7.52293 -12.59947,0 -22.75236,-3.18043 -30.45872,-9.54129 -5.13766,-4.40366 -7.70647,-9.75533 -7.70642,-16.05503 -5e-5,-6.9113 3.18036,-12.72169 9.54129,-17.4312 6.91124,-4.77061 15.5045,-7.15592 25.77981,-7.15596 4.5259,4e-5 10.03049,0.7034 16.51376,2.11008 l -1.10092,-50.91742 m 1.28441,63.48624 c -6.78909,-1.89601 -12.75239,-2.84401 -17.88991,-2.84404 -5.44351,3e-5 -10.00007,1.0092 -13.66972,3.02752 -4.6484,2.38535 -6.97255,5.56577 -6.97248,9.54128 -7e-5,3.60859 2.26293,6.81958 6.78899,9.63303 4.40359,2.50765 9.90818,3.76147 16.51376,3.76147 10.45862,0 15.59622,-4.61773 15.41284,-13.85321 l -0.18348,-9.26605 m -93.3945,-86.33028 c 6.1162,0.36709 11.37612,0.55058 15.77982,0.55046 7.46173,1.2e-4 13.9755,-0.27511 19.54129,-0.82568 2.87456,-8.6849 5.77976,-20.30568 8.71559,-34.86239 l 14.40368,2.20184 c -1.95727,9.60258 -4.58723,20.00012 -7.88992,31.19266 8.86843,-0.85616 19.08249,-2.66043 30.64221,-5.41285 l 0.55045,13.48624 c -12.90528,2.69124 -24.67897,4.46493 -35.32109,5.3211 -10.21413,29.41903 -23.24163,55.84102 -39.08258,79.26605 l -12.93577,-8.25688 c 14.12842,-18.59322 26.3914,-41.83479 36.78898,-69.72476 -8.62388,0.36706 -16.11623,0.55055 -22.47706,0.55045 -2.62999,10e-5 -5.25995,-0.0611 -7.8899,-0.18348 l -0.8257,-13.30276 m 139.26606,34.31193 c -10.52002,-11.62071 -22.99707,-22.32406 -37.43119,-32.1101 l 9.63302,-9.90826 c 14.6176,9.05211 27.40046,19.44965 38.34863,31.19266 l -10.55046,10.8257"
         style="font-size:40px;font-style:normal;font-variant:normal;font-weight:normal;font-stretch:normal;line-height:125%;letter-spacing:0px;word-spacing:0px;fill:#ffffff;fill-opacity:1;stroke:none;font-family:Sans;-inkscape-font-specification:Sans Bold"
         id="path3969"
         inkscape:connector-curvature="0" />
      <path
         d="m 576.10093,573.83007 c -3.24161,-22.75228 -4.86241,-43.4862 -4.86238,-62.20184 -3e-5,-22.32407 4.00609,-48.86839 12.01834,-79.63302 l 14.12845,3.21101 c -8.25692,30.76463 -12.38535,57.00313 -12.38533,78.71559 -2e-5,6.72788 0.48927,14.67895 1.46789,23.85321 2.75226,-5.01525 6.8807,-12.41585 12.38533,-22.20183 l 9.17431,6.42201 c -11.62084,19.75538 -17.43123,34.98474 -17.4312,45.68808 -3e-5,1.83486 0.0611,3.45566 0.18349,4.86238 l -14.6789,1.28441 M 627.20185,452.8209 c 22.20173,-4.09774 46.39132,-6.14666 72.5688,-6.1468 l 1.2844,14.40367 c -26.97259,-0.18337 -51.07043,1.89614 -72.29357,6.23853 l -1.55963,-14.4954 m 82.84403,112.38531 c -11.86558,1.65138 -22.81359,2.47707 -32.84404,2.47707 -17.73711,0 -30.70345,-2.56881 -38.89908,-7.70642 -9.11322,-5.6269 -13.66979,-16.422 -13.66972,-32.38532 -7e-5,-2.2018 0.0611,-4.25072 0.18349,-6.14679 l 14.22017,-1.74312 c -7e-5,1.16213 -0.0612,2.84409 -0.18348,5.04587 -0.0612,1.22328 -0.0918,1.98781 -0.0917,2.29358 -9e-5,10.21409 2.56871,17.1254 7.70642,20.73395 5.07635,3.36393 14.40356,5.04588 27.98165,5.04586 8.86836,2e-5 20.12218,-0.82566 33.76146,-2.47706 l 1.83485,14.86238"
         style="font-size:40px;font-style:normal;font-variant:normal;font-weight:normal;font-stretch:normal;line-height:125%;letter-spacing:0px;word-spacing:0px;fill:#ffffff;fill-opacity:1;stroke:none;font-family:Sans;-inkscape-font-specification:Sans Bold"
         id="path3971"
         inkscape:connector-curvature="0" />
      <path
         d="m 841.14679,438.60071 17.70642,0 c -27.46182,22.99706 -41.19269,50.30589 -41.19265,81.9266 -4e-5,31.86546 13.66967,59.17431 41.00917,81.92661 l -17.52294,0 c -27.156,-21.59022 -40.73397,-48.83791 -40.73394,-81.74312 -3e-5,-32.53814 13.57794,-59.90814 40.73394,-82.11009"
         style="font-size:144px;font-style:normal;font-variant:normal;font-weight:bold;font-stretch:normal;text-align:center;line-height:125%;letter-spacing:0px;word-spacing:0px;text-anchor:middle;fill:#ffffff;fill-opacity:1;stroke:none;font-family:Monospace;-inkscape-font-specification:Sans Bold"
         id="path3973"
         inkscape:connector-curvature="0" />
      <path
         d="m 942.33946,436.67411 c 7.88985,1.3e-4 14.67883,2.87475 20.36696,8.62384 5.74916,5.6882 8.62377,12.47719 8.62386,20.36698 -9e-5,7.89001 -2.84412,14.64841 -8.53211,20.27523 -5.68814,5.62699 -12.50771,8.44044 -20.45871,8.44037 -8.01228,7e-5 -14.83185,-2.81338 -20.45872,-8.44037 -5.62694,-5.68798 -8.4404,-12.44639 -8.44037,-20.27523 -3e-5,-7.88979 2.81343,-14.67878 8.44037,-20.36698 5.68804,-5.74909 12.50759,-8.62371 20.45872,-8.62384 m 0,46.42201 c 4.83174,9e-5 8.99075,-1.71245 12.47706,-5.13762 3.48617,-3.42497 5.22929,-7.52282 5.22935,-12.29357 -6e-5,-4.95401 -1.77377,-9.17419 -5.32109,-12.66055 -3.48631,-3.48612 -7.61475,-5.22923 -12.38532,-5.22936 -4.83185,1.3e-4 -8.99087,1.77383 -12.47707,5.32111 -3.42511,3.48635 -5.13765,7.67594 -5.13761,12.5688 -4e-5,4.77075 1.7125,8.8686 5.13761,12.29357 3.42503,3.42517 7.58405,5.13771 12.47707,5.13762"
         style="font-size:144px;font-style:normal;font-variant:normal;font-weight:bold;font-stretch:normal;text-align:center;line-height:125%;letter-spacing:0px;word-spacing:0px;text-anchor:middle;fill:#ffffff;fill-opacity:1;stroke:none;font-family:Monospace;-inkscape-font-specification:Sans Bold"
         id="path3975"
         inkscape:connector-curvature="0" />
      <path
         d="m 1167.6606,545.11447 c 9.2965,2e-5 13.9448,5.07648 13.945,15.22936 -2e-4,10.15291 -4.6485,15.22935 -13.945,15.22935 -9.2356,0 -13.8533,-5.07644 -13.8532,-15.22935 -10e-5,-10.15288 4.6176,-15.22934 13.8532,-15.22936"
         style="font-size:144px;font-style:normal;font-variant:normal;font-weight:bold;font-stretch:normal;text-align:center;line-height:125%;letter-spacing:0px;word-spacing:0px;text-anchor:middle;fill:#ffffff;fill-opacity:1;stroke:none;font-family:Monospace;-inkscape-font-specification:Sans Bold"
         id="path3977"
         inkscape:connector-curvature="0" />
      <path
         d="m 1280.3211,436.67411 c 7.8898,1.3e-4 14.6788,2.87475 20.367,8.62384 5.7492,5.6882 8.6238,12.47719 8.6239,20.36698 -10e-5,7.89001 -2.8442,14.64841 -8.5322,20.27523 -5.6881,5.62699 -12.5077,8.44044 -20.4587,8.44037 -8.0123,7e-5 -14.8318,-2.81338 -20.4587,-8.44037 -5.6269,-5.68798 -8.4405,-12.44639 -8.4403,-20.27523 -2e-4,-7.88979 2.8134,-14.67878 8.4403,-20.36698 5.6881,-5.74909 12.5076,-8.62371 20.4587,-8.62384 m 0,46.42201 c 4.8318,9e-5 8.9908,-1.71245 12.4771,-5.13762 3.4861,-3.42497 5.2293,-7.52282 5.2293,-12.29357 0,-4.95401 -1.7737,-9.17419 -5.3211,-12.66055 -3.4862,-3.48612 -7.6147,-5.22923 -12.3853,-5.22936 -4.8319,1.3e-4 -8.9909,1.77383 -12.4771,5.32111 -3.425,3.48635 -5.1376,7.67594 -5.1376,12.5688 0,4.77075 1.7126,8.8686 5.1376,12.29357 3.4251,3.42517 7.5841,5.13771 12.4771,5.13762"
         style="font-size:144px;font-style:normal;font-variant:normal;font-weight:bold;font-stretch:normal;text-align:center;line-height:125%;letter-spacing:0px;word-spacing:0px;text-anchor:middle;fill:#ffffff;fill-opacity:1;stroke:none;font-family:Monospace;-inkscape-font-specification:Sans Bold"
         id="path3979"
         inkscape:connector-curvature="0" />
      <path
         d="m 1393.6238,469.4264 c 7.7676,10e-5 11.6514,4.25086 11.6514,12.75229 0,8.50162 -3.8838,12.75238 -11.6514,12.7523 -7.7676,8e-5 -11.6514,-4.25068 -11.6513,-12.7523 -10e-5,-8.50143 3.8837,-12.75219 11.6513,-12.75229 m 8.0734,81.46789 1.2844,2.11009 c -3.1193,12.04894 -8.5016,26.69724 -16.1468,43.94496 l -12.5687,0 c 3.7919,-15.59635 6.8501,-30.94801 9.1743,-46.05505 l 18.2568,0"
         style="font-size:144px;font-style:normal;font-variant:normal;font-weight:bold;font-stretch:normal;text-align:center;line-height:125%;letter-spacing:0px;word-spacing:0px;text-anchor:middle;fill:#ffffff;fill-opacity:1;stroke:none;font-family:Monospace;-inkscape-font-specification:Sans Bold"
         id="path3981"
         inkscape:connector-curvature="0" />
      <path
         d="m 1494.1743,602.45392 -17.4311,0 c 27.2782,-22.69113 40.9173,-49.99998 40.9173,-81.92661 0,-31.68186 -13.7003,-58.99071 -41.1009,-81.9266 l 17.6147,0 c 27.2171,22.07962 40.8256,49.44962 40.8257,82.11009 -10e-5,33.02754 -13.6086,60.27522 -40.8257,81.74312"
         style="font-size:144px;font-style:normal;font-variant:normal;font-weight:bold;font-stretch:normal;text-align:center;line-height:125%;letter-spacing:0px;word-spacing:0px;text-anchor:middle;fill:#ffffff;fill-opacity:1;stroke:none;font-family:Monospace;-inkscape-font-specification:Sans Bold"
         id="path3983"
         inkscape:connector-curvature="0" />
    </g>
  </g>
</svg>
