<?xml version="1.0" encoding="UTF-8" standalone="no"?>
<!-- Created with Inkscape (http://www.inkscape.org/) -->

<svg
   xmlns:dc="http://purl.org/dc/elements/1.1/"
   xmlns:cc="http://creativecommons.org/ns#"
   xmlns:rdf="http://www.w3.org/1999/02/22-rdf-syntax-ns#"
   xmlns:svg="http://www.w3.org/2000/svg"
   xmlns="http://www.w3.org/2000/svg"
   xmlns:sodipodi="http://sodipodi.sourceforge.net/DTD/sodipodi-0.dtd"
   xmlns:inkscape="http://www.inkscape.org/namespaces/inkscape"
   width="1024"
   height="1024"
   id="svg2"
   version="1.1"
   inkscape:version="0.48.4 r9939"
   sodipodi:docname="sparrow.svg"
   inkscape:export-filename="/home/nathanel/sparrow.png"
   inkscape:export-xdpi="90"
   inkscape:export-ydpi="90">
  <defs
     id="defs4">
    <clipPath
       clipPathUnits="userSpaceOnUse"
       id="clipPath4040">
      <rect
         style="fill:none;stroke:#000000;stroke-width:0.2;stroke-linecap:round;stroke-linejoin:round;stroke-miterlimit:4;stroke-opacity:1;stroke-dasharray:none"
         id="rect4042"
         width="352"
         height="624"
         x="1296"
         y="188.36218"
         rx="5.9260001" />
    </clipPath>
  </defs>
  <sodipodi:namedview
     id="base"
     pagecolor="#ffffff"
     bordercolor="#666666"
     borderopacity="1.0"
     inkscape:pageopacity="0.0"
     inkscape:pageshadow="2"
     inkscape:zoom="0.671875"
     inkscape:cx="512"
     inkscape:cy="512"
     inkscape:document-units="px"
     inkscape:current-layer="layer1"
     showgrid="true"
     inkscape:showpageshadow="false"
     inkscape:object-paths="true"
     inkscape:snap-intersection-paths="true"
     inkscape:object-nodes="true"
     inkscape:snap-smooth-nodes="true"
     inkscape:snap-midpoints="true"
     inkscape:window-width="1600"
     inkscape:window-height="855"
     inkscape:window-x="0"
     inkscape:window-y="22"
     inkscape:window-maximized="1"
     fit-margin-top="0"
     fit-margin-left="0"
     fit-margin-right="0"
     fit-margin-bottom="0">
    <inkscape:grid
       type="xygrid"
       id="grid3102"
       empspacing="8"
       visible="true"
       enabled="true"
       snapvisiblegridlinesonly="true"
       originx="-120px"
       originy="-392px" />
  </sodipodi:namedview>
  <metadata
     id="metadata7">
    <rdf:RDF>
      <cc:Work
         rdf:about="">
        <dc:format>image/svg+xml</dc:format>
        <dc:type
           rdf:resource="http://purl.org/dc/dcmitype/StillImage" />
        <dc:title></dc:title>
      </cc:Work>
    </rdf:RDF>
  </metadata>
  <g
     inkscape:label="Layer 1"
     inkscape:groupmode="layer"
     id="layer1"
     transform="translate(-120,363.63781)"
     style="display:inline">
    <rect
       style="fill:#dcf4fc;fill-opacity:1;stroke:none"
       id="rect3892"
       width="1024"
       height="1024"
       x="120"
       y="-363.63782" />
    <rect
       style="fill:#ffeeaa;fill-opacity:1;stroke:none"
       id="rect3890"
       width="1024"
       height="504"
       x="120"
       y="156.36218" />
    <g
       id="g3894"
       style="stroke:none">
      <path
         inkscape:connector-curvature="0"
         id="path4044"
         d="m 504,316.36219 16,56 -24,80 z"
         style="fill:#566861;fill-opacity:1;stroke:none"
         sodipodi:nodetypes="cccc" />
      <path
         inkscape:connector-curvature="0"
         id="path4016"
         d="m 568,212.36219 -48,160 16,-136 z"
         style="fill:#2b606c;fill-opacity:1;stroke:none" />
      <path
         sodipodi:nodetypes="cccc"
         inkscape:connector-curvature="0"
         id="path4020"
         d="m 536,236.36219 -16,136 -16,-56 z"
         style="fill:#4a3a2f;fill-opacity:1;stroke:none" />
      <path
         inkscape:connector-curvature="0"
         id="path4018"
         d="m 536,236.36219 -16,136 -24,80 z"
         style="fill:#317371;fill-opacity:1;stroke:none"
         sodipodi:nodetypes="cccc" />
      <path
         inkscape:connector-curvature="0"
         id="path4022"
         d="m 536,236.36219 -32,80 8,-64 z"
         style="fill:#6e5c3b;fill-opacity:1;stroke:none" />
      <path
         inkscape:connector-curvature="0"
         id="path4024"
         d="m 504,316.36219 -16,72 8,64 z"
         style="fill:#74b5b8;fill-opacity:1;stroke:none"
         sodipodi:nodetypes="cccc" />
      <path
         inkscape:connector-curvature="0"
         id="path3977"
         d="m 544,148.36219 c 0,0 24,-48 24,-48 l 56,-24 z"
         style="fill:#356264;fill-opacity:1;stroke:none" />
      <path
         inkscape:connector-curvature="0"
         id="path3981"
         d="m 624,76.36219 -48,88 -120,136 z"
         style="fill:#3f2857;fill-opacity:1;stroke:none" />
      <path
         inkscape:connector-curvature="0"
         id="path3889"
         d="m 648,-99.63781 48,16 -40,16 z"
         style="fill:#951c3b;fill-opacity:1;stroke:none" />
      <path
         inkscape:connector-curvature="0"
         id="path3105"
         d="m 808,-115.63781 -80,32 -32,0 z"
         style="fill:#35323a;fill-opacity:1;stroke:none" />
      <path
         inkscape:connector-curvature="0"
         id="path3107"
         d="m 808,-115.63781 -112,32 16,-24 z"
         style="fill:#6967a9;fill-opacity:1;stroke:none" />
      <path
         inkscape:connector-curvature="0"
         id="path3877"
         d="m 712,-107.63781 -64,8 48,16 z"
         style="fill:#443943;fill-opacity:1;stroke:none" />
      <path
         inkscape:connector-curvature="0"
         id="path3879"
         d="m 712,-107.63781 -104,-16 64,-15.99999 z"
         style="fill:#834351;fill-opacity:1;stroke:none" />
      <path
         inkscape:connector-curvature="0"
         id="path3881"
         d="m 608,-123.63781 40,24 c 0,0 64,-8 64,-8 z"
         style="fill:#56403e;fill-opacity:1;stroke:none" />
      <path
         inkscape:connector-curvature="0"
         id="path3883"
         d="m 608,-123.63781 -56,48 80,8 z"
         style="fill:#a31c32;fill-opacity:1;stroke:none" />
      <path
         inkscape:connector-curvature="0"
         id="path3885"
         d="m 632,-67.63781 16,-32 -40,-24 z"
         style="fill:#5e2531;fill-opacity:1;stroke:none" />
      <path
         inkscape:connector-curvature="0"
         id="path3887"
         d="m 648,-99.63781 8,32 -24,0 z"
         style="fill:#2f2833;fill-opacity:1;stroke:none" />
      <path
         inkscape:connector-curvature="0"
         id="path3891"
         d="m 696,-83.63781 24,48 8,-48 z"
         style="fill:#ebb627;fill-opacity:1;stroke:none" />
      <path
         inkscape:connector-curvature="0"
         id="path3893"
         d="m 656,-67.63781 40,-16 24,48 z"
         style="fill:#f2ce30;fill-opacity:1;stroke:none" />
      <path
         inkscape:connector-curvature="0"
         id="path3895"
         d="m 656,-67.63781 -24,0 88,32 z"
         style="fill:#f6d42b;fill-opacity:1;stroke:none" />
      <path
         inkscape:connector-curvature="0"
         id="path3897"
         d="m 632,-67.63781 32,40 56,-8 z"
         style="fill:#744828;fill-opacity:1;stroke:none" />
      <path
         inkscape:connector-curvature="0"
         id="path3899"
         d="m 632,-67.63781 -80,-8 -24,80 z"
         style="fill:#fe5732;fill-opacity:1;stroke:none" />
      <path
         sodipodi:nodetypes="cccc"
         inkscape:connector-curvature="0"
         id="path3903"
         d="m 632,-67.63781 -40,56 72,-16 z"
         style="fill:#f36a2b;fill-opacity:1;stroke:none" />
      <path
         inkscape:connector-curvature="0"
         id="path3901"
         d="m 552,-75.63781 -56,80 32,0 z"
         style="fill:#ff7a34;fill-opacity:1;stroke:none" />
      <path
         inkscape:connector-curvature="0"
         id="path3905"
         d="m 720,-35.63781 8,40 -64,-32 z"
         style="fill:#00a2ae;fill-opacity:1;stroke:none" />
      <path
         inkscape:connector-curvature="0"
         id="path3907"
         d="m 664,-27.63781 56,72 8,-40 z"
         style="fill:#a15327;fill-opacity:1;stroke:none" />
      <path
         inkscape:connector-curvature="0"
         id="path3909"
         d="m 728,4.36219 0,72 -8,-32 z"
         style="fill:#828eab;fill-opacity:1;stroke:none" />
      <path
         inkscape:connector-curvature="0"
         id="path3911"
         d="m 728,76.36219 -40,56 32,-88 z"
         style="fill:#7c7699;fill-opacity:1;stroke:none" />
      <path
         inkscape:connector-curvature="0"
         id="path3913"
         d="m 688,132.36219 -24,8 c 0,0 24,-56 24,-56 z"
         style="fill:#47829d;fill-opacity:1;stroke:none" />
      <path
         inkscape:connector-curvature="0"
         id="path3915"
         d="m 688,84.36219 32,-40 -32,88 z"
         style="fill:#3d4045;fill-opacity:1;stroke:none" />
      <path
         inkscape:connector-curvature="0"
         id="path3917"
         d="m 496,4.36219 0,112 32,-112 z"
         style="fill:#ffbc5b;fill-opacity:1;stroke:none" />
      <path
         inkscape:connector-curvature="0"
         id="path3919"
         d="m 664,-27.63781 16,80 40,-8 z"
         style="fill:#dc2a30;fill-opacity:1;stroke:none" />
      <path
         inkscape:connector-curvature="0"
         id="path3921"
         d="m 664,-27.63781 -96,128 112,-48 z"
         style="fill:#e1a93f;fill-opacity:1;stroke:none" />
      <path
         inkscape:connector-curvature="0"
         id="path3923"
         d="m 688,84.36219 -24,32 c 0,0 0,24 0,24 z"
         style="fill:#1e5077;fill-opacity:1;stroke:none" />
      <path
         inkscape:connector-curvature="0"
         id="path3925"
         d="m 664,116.36219 -16,16 c 0,0 16,8 16,8 z"
         style="fill:#5a6786;fill-opacity:1;stroke:none" />
      <path
         inkscape:connector-curvature="0"
         id="path3927"
         d="m 648,132.36219 8,16 8,-8 z"
         style="fill:#483737;stroke:none" />
      <path
         inkscape:connector-curvature="0"
         id="path3953"
         d="m 720,44.36219 -40,8 -80,112 z"
         style="fill:#c33d43;fill-opacity:1;stroke:none" />
      <path
         inkscape:connector-curvature="0"
         id="path3929"
         d="m 648,132.36219 -8,8 16,8 z"
         style="fill:#241c1c;stroke:none" />
      <path
         inkscape:connector-curvature="0"
         id="path3931"
         d="m 496,116.36219 c 0,0 -8,72 -8,72 0,0 24,-40 24,-40 z"
         style="fill:#35a7cd;fill-opacity:1;stroke:none" />
      <path
         inkscape:connector-curvature="0"
         id="path3933"
         d="m 528,4.36219 -16,56 16,64 z"
         style="fill:#df9d67;fill-opacity:1;stroke:none" />
      <path
         inkscape:connector-curvature="0"
         id="path3935"
         d="m 512,60.36219 -16,56 c 0,0 16,32 16,32 z"
         style="fill:#0088b4;fill-opacity:1;stroke:none" />
      <path
         inkscape:connector-curvature="0"
         id="path3937"
         d="m 512,60.36219 0,88 16,-24 z"
         style="fill:#6d3b50;fill-opacity:1;stroke:none" />
      <path
         inkscape:connector-curvature="0"
         id="path3939"
         d="m 512,148.36219 0,32 c 0,0 -24,8 -24,8 z"
         style="fill:#593752;fill-opacity:1;stroke:none" />
      <path
         inkscape:connector-curvature="0"
         id="path3941"
         d="m 528,124.36219 -16,24 c 0,0 0,32 0,32 z"
         style="fill:#1e1724;fill-opacity:1;stroke:none" />
      <path
         inkscape:connector-curvature="0"
         id="path3947"
         d="m 592,-11.63781 -64,16 0,120 z"
         style="fill:#e96f26;fill-opacity:1;stroke:none" />
      <path
         sodipodi:nodetypes="cccc"
         inkscape:connector-curvature="0"
         id="path3945"
         d="m 568,100.36219 -40,24 64,-136 z"
         style="fill:#b69646;fill-opacity:1;stroke:none" />
      <path
         inkscape:connector-curvature="0"
         id="path3949"
         d="m 664,-27.63781 -72,16 -24,112 z"
         style="fill:#f47f29;fill-opacity:1;stroke:none" />
      <path
         sodipodi:nodetypes="cccc"
         inkscape:connector-curvature="0"
         id="path3951"
         d="m 720,44.36219 -120,120 88,-80 z"
         style="fill:#e37075;fill-opacity:1;stroke:none" />
      <path
         inkscape:connector-curvature="0"
         id="path3955"
         d="m 680,52.36219 -56,24 -24,88 z"
         style="fill:#b24329;fill-opacity:1;stroke:none" />
      <path
         sodipodi:nodetypes="cccc"
         inkscape:connector-curvature="0"
         id="path3957"
         d="m 632,156.36219 -88,80 56,-72 z"
         style="fill:#054d66;fill-opacity:1;stroke:none" />
      <path
         inkscape:connector-curvature="0"
         id="path3959"
         d="m 600,164.36219 -24,0 -32,72 z"
         style="fill:#005b82;fill-opacity:1;stroke:none" />
      <path
         inkscape:connector-curvature="0"
         id="path3961"
         d="m 576,164.36219 -120,136 88,-64 z"
         style="fill:#2d3445;fill-opacity:1;stroke:none" />
      <path
         inkscape:connector-curvature="0"
         id="path3963"
         d="m 456,300.36219 168,-224 -80,72 z"
         style="fill:#1f1928;fill-opacity:1;stroke:none" />
      <path
         inkscape:connector-curvature="0"
         id="path3965"
         d="m 544,148.36219 -32,32 c 0,0 -56,120 -56,120 z"
         style="fill:#435b82;fill-opacity:1;stroke:none" />
      <path
         inkscape:connector-curvature="0"
         id="path3969"
         d="m 568,100.36219 -40,24 -16,56 z"
         style="fill:#006898;fill-opacity:1;stroke:none" />
      <path
         sodipodi:nodetypes="cccc"
         inkscape:connector-curvature="0"
         id="path3971"
         d="m 656,148.36219 -16,16 8,-16 z"
         style="fill:#241f1c;stroke:none" />
      <path
         sodipodi:nodetypes="cccc"
         inkscape:connector-curvature="0"
         id="path3973"
         d="m 656,148.36219 8,0 8,8 z"
         style="fill:#3d4045;fill-opacity:1;stroke:none" />
      <path
         inkscape:connector-curvature="0"
         id="path3975"
         d="m 512,180.36219 32,-32 24,-48 z"
         style="fill:#203c3d;fill-opacity:1;stroke:none" />
      <path
         inkscape:connector-curvature="0"
         id="path3979"
         d="m 624,76.36219 -48,88 24,0 z"
         style="fill:#261d30;fill-opacity:1;stroke:none" />
      <path
         inkscape:connector-curvature="0"
         id="path3983"
         d="m 656,148.36219 0,8 16,0 z"
         style="fill:#241c1c;stroke:none" />
      <path
         inkscape:connector-curvature="0"
         id="path3985"
         d="m 656,148.36219 -16,16 16,-8 z"
         style="fill:#483e37;fill-opacity:1;stroke:none" />
      <path
         inkscape:connector-curvature="0"
         id="path3987"
         d="m 688,84.36219 -24,32 -64,48 z"
         style="fill:#a52b31;fill-opacity:1;stroke:none" />
      <path
         inkscape:connector-curvature="0"
         id="path3989"
         d="m 664,116.36219 -24,24 -40,24 z"
         style="fill:#572020;fill-opacity:1;stroke:none" />
      <path
         inkscape:connector-curvature="0"
         id="path3943"
         d="m 488,188.36219 -16,120 40,-128 z"
         style="fill:#754c71;fill-opacity:1;stroke:none"
         sodipodi:nodetypes="cccc" />
      <path
         inkscape:connector-curvature="0"
         id="path3993"
         d="m 632,-67.63781 -40,56 -64,16 z"
         style="fill:#f3732b;fill-opacity:1;stroke:none" />
      <path
         sodipodi:nodetypes="cccc"
         style="fill:#563535;fill-opacity:1;stroke:none"
         d="m 640,140.36219 -8,16 -32,8 z"
         id="path4014"
         inkscape:connector-curvature="0" />
    </g>
    <path
       style="fill:#3d4045;stroke:none;stroke-width:1px;stroke-linecap:butt;stroke-linejoin:miter;stroke-opacity:1;fill-opacity:1"
       d="m 536,520 -16,8 8,0 z"
       id="path3054"
       inkscape:connector-curvature="0"
       transform="translate(120,-363.63781)" />
    <path
       style="fill:#ffbc5b;stroke:none;stroke-width:1px;stroke-linecap:butt;stroke-linejoin:miter;stroke-opacity:1;fill-opacity:1"
       d="m 520,528 8,16 0,-16 z"
       id="path3056"
       inkscape:connector-curvature="0"
       transform="translate(120,-363.63781)" />
  </g>
</svg>
