<?xml version="1.0" encoding="UTF-8" standalone="no"?>
<!-- Created with Inkscape (http://www.inkscape.org/) -->

<svg
   xmlns:dc="http://purl.org/dc/elements/1.1/"
   xmlns:cc="http://creativecommons.org/ns#"
   xmlns:rdf="http://www.w3.org/1999/02/22-rdf-syntax-ns#"
   xmlns:svg="http://www.w3.org/2000/svg"
   xmlns="http://www.w3.org/2000/svg"
   xmlns:sodipodi="http://sodipodi.sourceforge.net/DTD/sodipodi-0.dtd"
   xmlns:inkscape="http://www.inkscape.org/namespaces/inkscape"
   width="1024"
   height="1024"
   id="svg2"
   version="1.1"
   inkscape:version="0.91 r13725"
   sodipodi:docname="bird-02.svg"
   inkscape:export-filename="/home/nathanel/sparrow.png"
   inkscape:export-xdpi="90"
   inkscape:export-ydpi="90">
  <sodipodi:namedview
     id="base"
     pagecolor="#ffffff"
     bordercolor="#666666"
     borderopacity="1.0"
     inkscape:pageopacity="0.0"
     inkscape:pageshadow="2"
     inkscape:zoom="0.85058594"
     inkscape:cx="305.08381"
     inkscape:cy="512"
     inkscape:document-units="px"
     inkscape:current-layer="layer1"
     showgrid="false"
     inkscape:showpageshadow="false"
     inkscape:object-paths="true"
     inkscape:snap-intersection-paths="true"
     inkscape:object-nodes="true"
     inkscape:snap-smooth-nodes="true"
     inkscape:snap-midpoints="true"
     inkscape:window-width="2560"
     inkscape:window-height="1044"
     inkscape:window-x="0"
     inkscape:window-y="0"
     inkscape:window-maximized="1"
     fit-margin-top="0"
     fit-margin-left="0"
     fit-margin-right="0"
     fit-margin-bottom="0">
    <inkscape:grid
       originy="-392px"
       originx="-120px"
       snapvisiblegridlinesonly="true"
       enabled="true"
       visible="true"
       empspacing="8"
       id="grid3102"
       type="xygrid" />
  </sodipodi:namedview>
  <defs
     id="defs4">
    <clipPath
       id="clipPath4040"
       clipPathUnits="userSpaceOnUse">
      <rect
         rx="5.9260001"
         y="188.36218"
         x="1296"
         height="624"
         width="352"
         id="rect4042"
         style="fill:none;stroke:#000000;stroke-width:0.2;stroke-linecap:round;stroke-linejoin:round;stroke-miterlimit:4;stroke-opacity:1;stroke-dasharray:none" />
    </clipPath>
    <filter
       id="filter4661"
       inkscape:label="Drop Shadow"
       style="color-interpolation-filters:sRGB;">
      <feFlood
         id="feFlood4663"
         result="flood"
         flood-color="rgb(0,0,0)"
         flood-opacity="0.498039" />
      <feComposite
         id="feComposite4665"
         result="composite1"
         operator="in"
         in2="SourceGraphic"
         in="flood" />
      <feGaussianBlur
         id="feGaussianBlur4667"
         result="blur"
         stdDeviation="5"
         in="composite1" />
      <feOffset
         id="feOffset4669"
         result="offset"
         dy="5"
         dx="0" />
      <feComposite
         id="feComposite4671"
         result="composite2"
         operator="over"
         in2="offset"
         in="SourceGraphic" />
    </filter>
  </defs>
  <metadata
     id="metadata7">
    <rdf:RDF>
      <cc:Work
         rdf:about="">
        <dc:format>image/svg+xml</dc:format>
        <dc:type
           rdf:resource="http://purl.org/dc/dcmitype/StillImage" />
        <dc:title></dc:title>
      </cc:Work>
    </rdf:RDF>
  </metadata>
  <g
     style="display:inline"
     transform="translate(-120,363.63781)"
     id="layer1"
     inkscape:groupmode="layer"
     inkscape:label="Layer 1">
    <path
       id="path4343"
       transform="translate(120,-363.63781)"
       d="M 488 520 L 496 528 L 496 544 L 504 528 L 500 520 L 488 520 z M 512 520 L 576.90039 579 L 624 736 L 648 816 L 656 752 L 640 680 L 633 624 L 664.05859 646.58789 L 672 672 L 669.09961 650.25391 L 688 664 L 664.10742 612.80078 L 656 552 L 652.44531 520 L 512 520 z "
       style="fill:#566861;fill-opacity:1;stroke:none;filter:url(#filter4661)" />
    <g
       id="g4271">
      <path
         sodipodi:nodetypes="cccc"
         style="fill:#566800;fill-opacity:1;stroke:none"
         d="m 760,316.36219 -16,56 24,80 z"
         id="path4044"
         inkscape:connector-curvature="0" />
      <path
         style="fill:#2b6000;fill-opacity:1;stroke:none"
         d="m 696,212.36219 48,160 -16,-136 z"
         id="path4016"
         inkscape:connector-curvature="0" />
      <path
         style="fill:#4a3a00;fill-opacity:1;stroke:none"
         d="m 728,236.36219 16,136 16,-56 z"
         id="path4020"
         inkscape:connector-curvature="0"
         sodipodi:nodetypes="cccc" />
      <path
         sodipodi:nodetypes="cccc"
         style="fill:#317300;fill-opacity:1;stroke:none"
         d="m 728,236.36219 16,136 24,80 z"
         id="path4018"
         inkscape:connector-curvature="0" />
      <path
         style="fill:#6e5c00;fill-opacity:1;stroke:none"
         d="m 728,236.36219 32,80 -8,-64 z"
         id="path4022"
         inkscape:connector-curvature="0" />
      <path
         sodipodi:nodetypes="cccc"
         style="fill:#74b500;fill-opacity:1;stroke:none"
         d="m 760,316.36219 16,72 -8,64 z"
         id="path4024"
         inkscape:connector-curvature="0" />
      <path
         style="fill:#356200;fill-opacity:1;stroke:none"
         d="m 720,148.36219 c 0,0 -24,-48 -24,-48 l -56,-24 z"
         id="path3977"
         inkscape:connector-curvature="0" />
      <path
         style="fill:#3f2800;fill-opacity:1;stroke:none"
         d="m 640,76.36219 48,88 120,136 z"
         id="path3981"
         inkscape:connector-curvature="0" />
      <path
         style="fill:#951c00;fill-opacity:1;stroke:none"
         d="m 616,-99.63781 -48,16 40,16 z"
         id="path3889"
         inkscape:connector-curvature="0" />
      <path
         style="fill:#353200;fill-opacity:1;stroke:none"
         d="m 456,-115.63781 80,32 32,0 z"
         id="path3105"
         inkscape:connector-curvature="0" />
      <path
         style="fill:#696700;fill-opacity:1;stroke:none"
         d="m 456,-115.63781 112,32 -16,-24 z"
         id="path3107"
         inkscape:connector-curvature="0" />
      <path
         style="fill:#443900;fill-opacity:1;stroke:none"
         d="m 552,-107.63781 64,8 -48,16 z"
         id="path3877"
         inkscape:connector-curvature="0" />
      <path
         style="fill:#834300;fill-opacity:1;stroke:none"
         d="m 552,-107.63781 104,-16 -64,-15.99999 z"
         id="path3879"
         inkscape:connector-curvature="0" />
      <path
         style="fill:#564000;fill-opacity:1;stroke:none"
         d="m 656,-123.63781 -40,24 c 0,0 -64,-8 -64,-8 z"
         id="path3881"
         inkscape:connector-curvature="0" />
      <path
         style="fill:#a31c00;fill-opacity:1;stroke:none"
         d="m 656,-123.63781 56,48 -80,8 z"
         id="path3883"
         inkscape:connector-curvature="0" />
      <path
         style="fill:#5e2500;fill-opacity:1;stroke:none"
         d="m 632,-67.63781 -16,-32 40,-24 z"
         id="path3885"
         inkscape:connector-curvature="0" />
      <path
         style="fill:#2f2800;fill-opacity:1;stroke:none"
         d="m 616,-99.63781 -8,32 24,0 z"
         id="path3887"
         inkscape:connector-curvature="0" />
      <path
         style="fill:#ebb600;fill-opacity:1;stroke:none"
         d="m 568,-83.63781 -24,48 -8,-48 z"
         id="path3891"
         inkscape:connector-curvature="0" />
      <path
         style="fill:#f2ce00;fill-opacity:1;stroke:none"
         d="m 608,-67.63781 -40,-16 -24,48 z"
         id="path3893"
         inkscape:connector-curvature="0" />
      <path
         style="fill:#f6d400;fill-opacity:1;stroke:none"
         d="m 608,-67.63781 24,0 -88,32 z"
         id="path3895"
         inkscape:connector-curvature="0" />
      <path
         style="fill:#744800;fill-opacity:1;stroke:none"
         d="m 632,-67.63781 -32,40 -56,-8 z"
         id="path3897"
         inkscape:connector-curvature="0" />
      <path
         style="fill:#fe5700;fill-opacity:1;stroke:none"
         d="m 632,-67.63781 80,-8 24,80 z"
         id="path3899"
         inkscape:connector-curvature="0" />
      <path
         style="fill:#f36a00;fill-opacity:1;stroke:none"
         d="m 632,-67.63781 40,56 -72,-16 z"
         id="path3903"
         inkscape:connector-curvature="0"
         sodipodi:nodetypes="cccc" />
      <path
         style="fill:#ff7a00;fill-opacity:1;stroke:none"
         d="m 712,-75.63781 56,80 -32,0 z"
         id="path3901"
         inkscape:connector-curvature="0" />
      <path
         style="fill:#00a200;fill-opacity:1;stroke:none"
         d="m 544,-35.63781 -8,40 64,-32 z"
         id="path3905"
         inkscape:connector-curvature="0" />
      <path
         style="fill:#a15300;fill-opacity:1;stroke:none"
         d="m 600,-27.63781 -56,72 -8,-40 z"
         id="path3907"
         inkscape:connector-curvature="0" />
      <path
         style="fill:#828e00;fill-opacity:1;stroke:none"
         d="m 536,4.36219 0,72 8,-32 z"
         id="path3909"
         inkscape:connector-curvature="0" />
      <path
         style="fill:#7c7600;fill-opacity:1;stroke:none"
         d="m 536,76.36219 40,56 -32,-88 z"
         id="path3911"
         inkscape:connector-curvature="0" />
      <path
         style="fill:#478200;fill-opacity:1;stroke:none"
         d="m 576,132.36219 24,8 c 0,0 -24,-56 -24,-56 z"
         id="path3913"
         inkscape:connector-curvature="0" />
      <path
         style="fill:#3d4000;fill-opacity:1;stroke:none"
         d="m 576,84.36219 -32,-40 32,88 z"
         id="path3915"
         inkscape:connector-curvature="0" />
      <path
         style="fill:#ffbc00;fill-opacity:1;stroke:none"
         d="m 768,4.36219 0,112 -32,-112 z"
         id="path3917"
         inkscape:connector-curvature="0" />
      <path
         style="fill:#dc2a00;fill-opacity:1;stroke:none"
         d="m 600,-27.63781 -16,80 -40,-8 z"
         id="path3919"
         inkscape:connector-curvature="0" />
      <path
         style="fill:#e1a900;fill-opacity:1;stroke:none"
         d="m 600,-27.63781 96,128 -112,-48 z"
         id="path3921"
         inkscape:connector-curvature="0" />
      <path
         style="fill:#1e5000;fill-opacity:1;stroke:none"
         d="m 576,84.36219 24,32 c 0,0 0,24 0,24 z"
         id="path3923"
         inkscape:connector-curvature="0" />
      <path
         style="fill:#5a6700;fill-opacity:1;stroke:none"
         d="m 600,116.36219 16,16 c 0,0 -16,8 -16,8 z"
         id="path3925"
         inkscape:connector-curvature="0" />
      <path
         style="fill:#483700;stroke:none"
         d="m 616,132.36219 -8,16 -8,-8 z"
         id="path3927"
         inkscape:connector-curvature="0" />
      <path
         style="fill:#c33d00;fill-opacity:1;stroke:none"
         d="m 544,44.36219 40,8 80,112 z"
         id="path3953"
         inkscape:connector-curvature="0" />
      <path
         style="fill:#241c00;stroke:none"
         d="m 616,132.36219 8,8 -16,8 z"
         id="path3929"
         inkscape:connector-curvature="0" />
      <path
         style="fill:#35a700;fill-opacity:1;stroke:none"
         d="m 768,116.36219 c 0,0 8,72 8,72 0,0 -24,-40 -24,-40 z"
         id="path3931"
         inkscape:connector-curvature="0" />
      <path
         style="fill:#df9d00;fill-opacity:1;stroke:none"
         d="m 736,4.36219 16,56 -16,64 z"
         id="path3933"
         inkscape:connector-curvature="0" />
      <path
         style="fill:#008800;fill-opacity:1;stroke:none"
         d="m 752,60.36219 16,56 c 0,0 -16,32 -16,32 z"
         id="path3935"
         inkscape:connector-curvature="0" />
      <path
         style="fill:#6d3b00;fill-opacity:1;stroke:none"
         d="m 752,60.36219 0,88 -16,-24 z"
         id="path3937"
         inkscape:connector-curvature="0" />
      <path
         style="fill:#593700;fill-opacity:1;stroke:none"
         d="m 752,148.36219 0,32 c 0,0 24,8 24,8 z"
         id="path3939"
         inkscape:connector-curvature="0" />
      <path
         style="fill:#1e1700;fill-opacity:1;stroke:none"
         d="m 736,124.36219 16,24 c 0,0 0,32 0,32 z"
         id="path3941"
         inkscape:connector-curvature="0" />
      <path
         style="fill:#e96f00;fill-opacity:1;stroke:none"
         d="m 672,-11.63781 64,16 0,120 z"
         id="path3947"
         inkscape:connector-curvature="0" />
      <path
         style="fill:#b69600;fill-opacity:1;stroke:none"
         d="m 696,100.36219 40,24 -64,-136 z"
         id="path3945"
         inkscape:connector-curvature="0"
         sodipodi:nodetypes="cccc" />
      <path
         style="fill:#f47f00;fill-opacity:1;stroke:none"
         d="m 600,-27.63781 72,16 24,112 z"
         id="path3949"
         inkscape:connector-curvature="0" />
      <path
         style="fill:#e37000;fill-opacity:1;stroke:none"
         d="m 544,44.36219 120,120 -88,-80 z"
         id="path3951"
         inkscape:connector-curvature="0"
         sodipodi:nodetypes="cccc" />
      <path
         style="fill:#b24300;fill-opacity:1;stroke:none"
         d="m 584,52.36219 56,24 24,88 z"
         id="path3955"
         inkscape:connector-curvature="0" />
      <path
         style="fill:#054d00;fill-opacity:1;stroke:none"
         d="m 632,156.36219 88,80 -56,-72 z"
         id="path3957"
         inkscape:connector-curvature="0"
         sodipodi:nodetypes="cccc" />
      <path
         style="fill:#005b00;fill-opacity:1;stroke:none"
         d="m 664,164.36219 24,0 32,72 z"
         id="path3959"
         inkscape:connector-curvature="0" />
      <path
         style="fill:#2d3400;fill-opacity:1;stroke:none"
         d="m 688,164.36219 120,136 -88,-64 z"
         id="path3961"
         inkscape:connector-curvature="0" />
      <path
         style="fill:#1f1900;fill-opacity:1;stroke:none"
         d="m 808,300.36219 -168,-224 80,72 z"
         id="path3963"
         inkscape:connector-curvature="0" />
      <path
         style="fill:#435b00;fill-opacity:1;stroke:none"
         d="m 720,148.36219 32,32 c 0,0 56,120 56,120 z"
         id="path3965"
         inkscape:connector-curvature="0" />
      <path
         style="fill:#006800;fill-opacity:1;stroke:none"
         d="m 696,100.36219 40,24 16,56 z"
         id="path3969"
         inkscape:connector-curvature="0" />
      <path
         style="fill:#241f00;stroke:none"
         d="m 608,148.36219 16,16 -8,-16 z"
         id="path3971"
         inkscape:connector-curvature="0"
         sodipodi:nodetypes="cccc" />
      <path
         style="fill:#3d4000;fill-opacity:1;stroke:none"
         d="m 608,148.36219 -8,0 -8,8 z"
         id="path3973"
         inkscape:connector-curvature="0"
         sodipodi:nodetypes="cccc" />
      <path
         style="fill:#203c00;fill-opacity:1;stroke:none"
         d="m 752,180.36219 -32,-32 -24,-48 z"
         id="path3975"
         inkscape:connector-curvature="0" />
      <path
         style="fill:#261d00;fill-opacity:1;stroke:none"
         d="m 640,76.36219 48,88 -24,0 z"
         id="path3979"
         inkscape:connector-curvature="0" />
      <path
         style="fill:#241c00;stroke:none"
         d="m 608,148.36219 0,8 -16,0 z"
         id="path3983"
         inkscape:connector-curvature="0" />
      <path
         style="fill:#483e00;fill-opacity:1;stroke:none"
         d="m 608,148.36219 16,16 -16,-8 z"
         id="path3985"
         inkscape:connector-curvature="0" />
      <path
         style="fill:#a52b00;fill-opacity:1;stroke:none"
         d="m 576,84.36219 24,32 64,48 z"
         id="path3987"
         inkscape:connector-curvature="0" />
      <path
         style="fill:#572000;fill-opacity:1;stroke:none"
         d="m 600,116.36219 24,24 40,24 z"
         id="path3989"
         inkscape:connector-curvature="0" />
      <path
         sodipodi:nodetypes="cccc"
         style="fill:#754c00;fill-opacity:1;stroke:none"
         d="m 776,188.36219 16,120 -40,-128 z"
         id="path3943"
         inkscape:connector-curvature="0" />
      <path
         style="fill:#f37300;fill-opacity:1;stroke:none"
         d="m 632,-67.63781 40,56 64,16 z"
         id="path3993"
         inkscape:connector-curvature="0" />
      <path
         inkscape:connector-curvature="0"
         id="path4014"
         d="m 624,140.36219 8,16 32,8 z"
         style="fill:#563500;fill-opacity:1;stroke:none"
         sodipodi:nodetypes="cccc" />
      <path
         style="fill:#3d4000;fill-opacity:1;stroke:none;stroke-width:1px;stroke-linecap:butt;stroke-linejoin:miter;stroke-opacity:1"
         d="m 608,156.36219 16,8 -8,0 z"
         id="path3054"
         inkscape:connector-curvature="0" />
      <path
         style="fill:#ffbc00;fill-opacity:1;stroke:none;stroke-width:1px;stroke-linecap:butt;stroke-linejoin:miter;stroke-opacity:1"
         d="m 624,164.36219 -8,16 0,-16 z"
         id="path3056"
         inkscape:connector-curvature="0" />
    </g>
  </g>
</svg>
