<?xml version="1.0" encoding="UTF-8" standalone="no"?>
<!-- Created with Inkscape (http://www.inkscape.org/) -->

<svg
   xmlns:dc="http://purl.org/dc/elements/1.1/"
   xmlns:cc="http://creativecommons.org/ns#"
   xmlns:rdf="http://www.w3.org/1999/02/22-rdf-syntax-ns#"
   xmlns:svg="http://www.w3.org/2000/svg"
   xmlns="http://www.w3.org/2000/svg"
   xmlns:sodipodi="http://sodipodi.sourceforge.net/DTD/sodipodi-0.dtd"
   xmlns:inkscape="http://www.inkscape.org/namespaces/inkscape"
   width="1024"
   height="1024"
   id="svg2"
   version="1.1"
   inkscape:version="0.91 r13725"
   sodipodi:docname="bird-07.svg"
   inkscape:export-filename="/home/nathanel/sparrow.png"
   inkscape:export-xdpi="90"
   inkscape:export-ydpi="90">
  <sodipodi:namedview
     id="base"
     pagecolor="#ffffff"
     bordercolor="#666666"
     borderopacity="1.0"
     inkscape:pageopacity="0.0"
     inkscape:pageshadow="2"
     inkscape:zoom="0.85058594"
     inkscape:cx="305.08381"
     inkscape:cy="512"
     inkscape:document-units="px"
     inkscape:current-layer="layer1"
     showgrid="false"
     inkscape:showpageshadow="false"
     inkscape:object-paths="true"
     inkscape:snap-intersection-paths="true"
     inkscape:object-nodes="true"
     inkscape:snap-smooth-nodes="true"
     inkscape:snap-midpoints="true"
     inkscape:window-width="2560"
     inkscape:window-height="1044"
     inkscape:window-x="0"
     inkscape:window-y="0"
     inkscape:window-maximized="1"
     fit-margin-top="0"
     fit-margin-left="0"
     fit-margin-right="0"
     fit-margin-bottom="0">
    <inkscape:grid
       type="xygrid"
       id="grid3102"
       empspacing="8"
       visible="true"
       enabled="true"
       snapvisiblegridlinesonly="true"
       originx="-120px"
       originy="-392px" />
  </sodipodi:namedview>
  <defs
     id="defs4">
    <clipPath
       clipPathUnits="userSpaceOnUse"
       id="clipPath4040">
      <rect
         style="fill:none;stroke:#000000;stroke-width:0.2;stroke-linecap:round;stroke-linejoin:round;stroke-miterlimit:4;stroke-opacity:1;stroke-dasharray:none"
         id="rect4042"
         width="352"
         height="624"
         x="1296"
         y="188.36218"
         rx="5.9260001" />
    </clipPath>
    <filter
       style="color-interpolation-filters:sRGB;"
       inkscape:label="Drop Shadow"
       id="filter4661">
      <feFlood
         flood-opacity="0.498039"
         flood-color="rgb(0,0,0)"
         result="flood"
         id="feFlood4663" />
      <feComposite
         in="flood"
         in2="SourceGraphic"
         operator="in"
         result="composite1"
         id="feComposite4665" />
      <feGaussianBlur
         in="composite1"
         stdDeviation="5"
         result="blur"
         id="feGaussianBlur4667" />
      <feOffset
         dx="0"
         dy="5"
         result="offset"
         id="feOffset4669" />
      <feComposite
         in="SourceGraphic"
         in2="offset"
         operator="over"
         result="composite2"
         id="feComposite4671" />
    </filter>
  </defs>
  <metadata
     id="metadata7">
    <rdf:RDF>
      <cc:Work
         rdf:about="">
        <dc:format>image/svg+xml</dc:format>
        <dc:type
           rdf:resource="http://purl.org/dc/dcmitype/StillImage" />
        <dc:title></dc:title>
      </cc:Work>
    </rdf:RDF>
  </metadata>
  <g
     inkscape:label="Layer 1"
     inkscape:groupmode="layer"
     id="layer1"
     transform="translate(-120,363.63781)"
     style="display:inline">
    <path
       style="fill:#566861;fill-opacity:1;stroke:none;filter:url(#filter4661)"
       d="M 488 520 L 496 528 L 496 544 L 504 528 L 500 520 L 488 520 z M 512 520 L 576.90039 579 L 624 736 L 648 816 L 656 752 L 640 680 L 633 624 L 664.05859 646.58789 L 672 672 L 669.09961 650.25391 L 688 664 L 664.10742 612.80078 L 656 552 L 652.44531 520 L 512 520 z "
       transform="translate(120,-363.63781)"
       id="path4343" />
    <g
       id="g4271">
      <path
         inkscape:connector-curvature="0"
         id="path4044"
         d="m 760,316.36219 -16,56 24,80 z"
         style="fill:#e4eee7;fill-opacity:1;stroke:none"
         sodipodi:nodetypes="cccc" />
      <path
         inkscape:connector-curvature="0"
         id="path4016"
         d="m 696,212.36219 48,160 -16,-136 z"
         style="fill:#6b8aa2;fill-opacity:1;stroke:none" />
      <path
         sodipodi:nodetypes="cccc"
         inkscape:connector-curvature="0"
         id="path4020"
         d="m 728,236.36219 16,136 16,-56 z"
         style="fill:#1c5f48;fill-opacity:1;stroke:none" />
      <path
         inkscape:connector-curvature="0"
         id="path4018"
         d="m 728,236.36219 16,136 24,80 z"
         style="fill:#092a4c;fill-opacity:1;stroke:none"
         sodipodi:nodetypes="cccc" />
      <path
         inkscape:connector-curvature="0"
         id="path4022"
         d="m 728,236.36219 32,80 -8,-64 z"
         style="fill:#ad2001;fill-opacity:1;stroke:none" />
      <path
         inkscape:connector-curvature="0"
         id="path4024"
         d="m 760,316.36219 16,72 -8,64 z"
         style="fill:#3e1ba9;fill-opacity:1;stroke:none"
         sodipodi:nodetypes="cccc" />
      <path
         inkscape:connector-curvature="0"
         id="path3977"
         d="m 720,148.36219 c 0,0 -24,-48 -24,-48 l -56,-24 z"
         style="fill:#59b407;fill-opacity:1;stroke:none" />
      <path
         inkscape:connector-curvature="0"
         id="path3981"
         d="m 640,76.36219 48,88 120,136 z"
         style="fill:#b9a522;fill-opacity:1;stroke:none" />
      <path
         inkscape:connector-curvature="0"
         id="path3889"
         d="m 616,-99.63781 -48,16 40,16 z"
         style="fill:#010101;fill-opacity:1;stroke:none" />
      <path
         inkscape:connector-curvature="0"
         id="path3105"
         d="m 456,-115.63781 80,32 32,0 z"
         style="fill:#0f211b;fill-opacity:1;stroke:none" />
      <path
         inkscape:connector-curvature="0"
         id="path3107"
         d="m 456,-115.63781 112,32 -16,-24 z"
         style="fill:#76546c;fill-opacity:1;stroke:none" />
      <path
         inkscape:connector-curvature="0"
         id="path3877"
         d="m 552,-107.63781 64,8 -48,16 z"
         style="fill:#5d806c;fill-opacity:1;stroke:none" />
      <path
         inkscape:connector-curvature="0"
         id="path3879"
         d="m 552,-107.63781 104,-16 -64,-15.99999 z"
         style="fill:#6e6eb5;fill-opacity:1;stroke:none" />
      <path
         inkscape:connector-curvature="0"
         id="path3881"
         d="m 656,-123.63781 -40,24 c 0,0 -64,-8 -64,-8 z"
         style="fill:#9fea99;fill-opacity:1;stroke:none" />
      <path
         inkscape:connector-curvature="0"
         id="path3883"
         d="m 656,-123.63781 56,48 -80,8 z"
         style="fill:#fe46eb;fill-opacity:1;stroke:none" />
      <path
         inkscape:connector-curvature="0"
         id="path3885"
         d="m 632,-67.63781 -16,-32 40,-24 z"
         style="fill:#7675d6;fill-opacity:1;stroke:none" />
      <path
         inkscape:connector-curvature="0"
         id="path3887"
         d="m 616,-99.63781 -8,32 24,0 z"
         style="fill:#450e1a;fill-opacity:1;stroke:none" />
      <path
         inkscape:connector-curvature="0"
         id="path3891"
         d="m 568,-83.63781 -24,48 -8,-48 z"
         style="fill:#b6b03f;fill-opacity:1;stroke:none" />
      <path
         inkscape:connector-curvature="0"
         id="path3893"
         d="m 608,-67.63781 -40,-16 -24,48 z"
         style="fill:#081204;fill-opacity:1;stroke:none" />
      <path
         inkscape:connector-curvature="0"
         id="path3895"
         d="m 608,-67.63781 24,0 -88,32 z"
         style="fill:#85a28d;fill-opacity:1;stroke:none" />
      <path
         inkscape:connector-curvature="0"
         id="path3897"
         d="m 632,-67.63781 -32,40 -56,-8 z"
         style="fill:#738993;fill-opacity:1;stroke:none" />
      <path
         inkscape:connector-curvature="0"
         id="path3899"
         d="m 632,-67.63781 80,-8 24,80 z"
         style="fill:#d5fcbb;fill-opacity:1;stroke:none" />
      <path
         sodipodi:nodetypes="cccc"
         inkscape:connector-curvature="0"
         id="path3903"
         d="m 632,-67.63781 40,56 -72,-16 z"
         style="fill:#555687;fill-opacity:1;stroke:none" />
      <path
         inkscape:connector-curvature="0"
         id="path3901"
         d="m 712,-75.63781 56,80 -32,0 z"
         style="fill:#1d1710;fill-opacity:1;stroke:none" />
      <path
         inkscape:connector-curvature="0"
         id="path3905"
         d="m 544,-35.63781 -8,40 64,-32 z"
         style="fill:#20e32f;fill-opacity:1;stroke:none" />
      <path
         inkscape:connector-curvature="0"
         id="path3907"
         d="m 600,-27.63781 -56,72 -8,-40 z"
         style="fill:#aab2dc;fill-opacity:1;stroke:none" />
      <path
         inkscape:connector-curvature="0"
         id="path3909"
         d="m 536,4.36219 0,72 8,-32 z"
         style="fill:#dbbc82;fill-opacity:1;stroke:none" />
      <path
         inkscape:connector-curvature="0"
         id="path3911"
         d="m 536,76.36219 40,56 -32,-88 z"
         style="fill:#7c59e2;fill-opacity:1;stroke:none" />
      <path
         inkscape:connector-curvature="0"
         id="path3913"
         d="m 576,132.36219 24,8 c 0,0 -24,-56 -24,-56 z"
         style="fill:#feffff;fill-opacity:1;stroke:none" />
      <path
         inkscape:connector-curvature="0"
         id="path3915"
         d="m 576,84.36219 -32,-40 32,88 z"
         style="fill:#0c2728;fill-opacity:1;stroke:none" />
      <path
         inkscape:connector-curvature="0"
         id="path3917"
         d="m 768,4.36219 0,112 -32,-112 z"
         style="fill:#f7f9f7;fill-opacity:1;stroke:none" />
      <path
         inkscape:connector-curvature="0"
         id="path3919"
         d="m 600,-27.63781 -16,80 -40,-8 z"
         style="fill:#080c0c;fill-opacity:1;stroke:none" />
      <path
         inkscape:connector-curvature="0"
         id="path3921"
         d="m 600,-27.63781 96,128 -112,-48 z"
         style="fill:#2b0319;fill-opacity:1;stroke:none" />
      <path
         inkscape:connector-curvature="0"
         id="path3923"
         d="m 576,84.36219 24,32 c 0,0 0,24 0,24 z"
         style="fill:#6be263;fill-opacity:1;stroke:none" />
      <path
         inkscape:connector-curvature="0"
         id="path3925"
         d="m 600,116.36219 16,16 c 0,0 -16,8 -16,8 z"
         style="fill:#cdc5c4;fill-opacity:1;stroke:none" />
      <path
         inkscape:connector-curvature="0"
         id="path3927"
         d="m 616,132.36219 -8,16 -8,-8 z"
         style="fill:#fd8a95;stroke:none" />
      <path
         inkscape:connector-curvature="0"
         id="path3953"
         d="m 544,44.36219 40,8 80,112 z"
         style="fill:#040303;fill-opacity:1;stroke:none" />
      <path
         inkscape:connector-curvature="0"
         id="path3929"
         d="m 616,132.36219 8,8 -16,8 z"
         style="fill:#659cf6;stroke:none" />
      <path
         inkscape:connector-curvature="0"
         id="path3931"
         d="m 768,116.36219 c 0,0 8,72 8,72 0,0 -24,-40 -24,-40 z"
         style="fill:#3984cf;fill-opacity:1;stroke:none" />
      <path
         inkscape:connector-curvature="0"
         id="path3933"
         d="m 736,4.36219 16,56 -16,64 z"
         style="fill:#eee5f7;fill-opacity:1;stroke:none" />
      <path
         inkscape:connector-curvature="0"
         id="path3935"
         d="m 752,60.36219 16,56 c 0,0 -16,32 -16,32 z"
         style="fill:#d28fe0;fill-opacity:1;stroke:none" />
      <path
         inkscape:connector-curvature="0"
         id="path3937"
         d="m 752,60.36219 0,88 -16,-24 z"
         style="fill:#b4d0cc;fill-opacity:1;stroke:none" />
      <path
         inkscape:connector-curvature="0"
         id="path3939"
         d="m 752,148.36219 0,32 c 0,0 24,8 24,8 z"
         style="fill:#ecdcc9;fill-opacity:1;stroke:none" />
      <path
         inkscape:connector-curvature="0"
         id="path3941"
         d="m 736,124.36219 16,24 c 0,0 0,32 0,32 z"
         style="fill:#beafbe;fill-opacity:1;stroke:none" />
      <path
         inkscape:connector-curvature="0"
         id="path3947"
         d="m 672,-11.63781 64,16 0,120 z"
         style="fill:#a1c1e4;fill-opacity:1;stroke:none" />
      <path
         sodipodi:nodetypes="cccc"
         inkscape:connector-curvature="0"
         id="path3945"
         d="m 696,100.36219 40,24 -64,-136 z"
         style="fill:#df1c91;fill-opacity:1;stroke:none" />
      <path
         inkscape:connector-curvature="0"
         id="path3949"
         d="m 600,-27.63781 72,16 24,112 z"
         style="fill:#020303;fill-opacity:1;stroke:none" />
      <path
         sodipodi:nodetypes="cccc"
         inkscape:connector-curvature="0"
         id="path3951"
         d="m 544,44.36219 120,120 -88,-80 z"
         style="fill:#070604;fill-opacity:1;stroke:none" />
      <path
         inkscape:connector-curvature="0"
         id="path3955"
         d="m 584,52.36219 56,24 24,88 z"
         style="fill:#f48de4;fill-opacity:1;stroke:none" />
      <path
         sodipodi:nodetypes="cccc"
         inkscape:connector-curvature="0"
         id="path3957"
         d="m 632,156.36219 88,80 -56,-72 z"
         style="fill:#8f1d22;fill-opacity:1;stroke:none" />
      <path
         inkscape:connector-curvature="0"
         id="path3959"
         d="m 664,164.36219 24,0 32,72 z"
         style="fill:#f6f6f8;fill-opacity:1;stroke:none" />
      <path
         inkscape:connector-curvature="0"
         id="path3961"
         d="m 688,164.36219 120,136 -88,-64 z"
         style="fill:#fcf1f4;fill-opacity:1;stroke:none" />
      <path
         inkscape:connector-curvature="0"
         id="path3963"
         d="m 808,300.36219 -168,-224 80,72 z"
         style="fill:#f2af8f;fill-opacity:1;stroke:none" />
      <path
         inkscape:connector-curvature="0"
         id="path3965"
         d="m 720,148.36219 32,32 c 0,0 56,120 56,120 z"
         style="fill:#8a0dea;fill-opacity:1;stroke:none" />
      <path
         inkscape:connector-curvature="0"
         id="path3969"
         d="m 696,100.36219 40,24 16,56 z"
         style="fill:#cdc6cf;fill-opacity:1;stroke:none" />
      <path
         sodipodi:nodetypes="cccc"
         inkscape:connector-curvature="0"
         id="path3971"
         d="m 608,148.36219 16,16 -8,-16 z"
         style="fill:#19692e;stroke:none" />
      <path
         sodipodi:nodetypes="cccc"
         inkscape:connector-curvature="0"
         id="path3973"
         d="m 608,148.36219 -8,0 -8,8 z"
         style="fill:#e4fdf7;fill-opacity:1;stroke:none" />
      <path
         inkscape:connector-curvature="0"
         id="path3975"
         d="m 752,180.36219 -32,-32 -24,-48 z"
         style="fill:#70a8b0;fill-opacity:1;stroke:none" />
      <path
         inkscape:connector-curvature="0"
         id="path3979"
         d="m 640,76.36219 48,88 -24,0 z"
         style="fill:#59122c;fill-opacity:1;stroke:none" />
      <path
         inkscape:connector-curvature="0"
         id="path3983"
         d="m 608,148.36219 0,8 -16,0 z"
         style="fill:#bcb7da;stroke:none" />
      <path
         inkscape:connector-curvature="0"
         id="path3985"
         d="m 608,148.36219 16,16 -16,-8 z"
         style="fill:#ffffff;fill-opacity:1;stroke:none" />
      <path
         inkscape:connector-curvature="0"
         id="path3987"
         d="m 576,84.36219 24,32 64,48 z"
         style="fill:#f6b39e;fill-opacity:1;stroke:none" />
      <path
         inkscape:connector-curvature="0"
         id="path3989"
         d="m 600,116.36219 24,24 40,24 z"
         style="fill:#e7e7e5;fill-opacity:1;stroke:none" />
      <path
         inkscape:connector-curvature="0"
         id="path3943"
         d="m 776,188.36219 16,120 -40,-128 z"
         style="fill:#94fd95;fill-opacity:1;stroke:none"
         sodipodi:nodetypes="cccc" />
      <path
         inkscape:connector-curvature="0"
         id="path3993"
         d="m 632,-67.63781 40,56 64,16 z"
         style="fill:#3e262d;fill-opacity:1;stroke:none" />
      <path
         sodipodi:nodetypes="cccc"
         style="fill:#d9e4cf;fill-opacity:1;stroke:none"
         d="m 624,140.36219 8,16 32,8 z"
         id="path4014"
         inkscape:connector-curvature="0" />
      <path
         inkscape:connector-curvature="0"
         id="path3054"
         d="m 608,156.36219 16,8 -8,0 z"
         style="fill:#111112;fill-opacity:1;stroke:none;stroke-width:1px;stroke-linecap:butt;stroke-linejoin:miter;stroke-opacity:1" />
      <path
         inkscape:connector-curvature="0"
         id="path3056"
         d="m 624,164.36219 -8,16 0,-16 z"
         style="fill:#460c50;fill-opacity:1;stroke:none;stroke-width:1px;stroke-linecap:butt;stroke-linejoin:miter;stroke-opacity:1" />
    </g>
  </g>
</svg>
