<?xml version="1.0" encoding="UTF-8" standalone="no"?>
<!-- Created with Inkscape (http://www.inkscape.org/) -->

<svg
   xmlns:dc="http://purl.org/dc/elements/1.1/"
   xmlns:cc="http://creativecommons.org/ns#"
   xmlns:rdf="http://www.w3.org/1999/02/22-rdf-syntax-ns#"
   xmlns:svg="http://www.w3.org/2000/svg"
   xmlns="http://www.w3.org/2000/svg"
   xmlns:sodipodi="http://sodipodi.sourceforge.net/DTD/sodipodi-0.dtd"
   xmlns:inkscape="http://www.inkscape.org/namespaces/inkscape"
   width="521"
   height="791"
   id="svg2"
   version="1.1"
   inkscape:version="0.48.4 r9939"
   sodipodi:docname="logo-ben-porat-yossef-alternatif.svg"
   inkscape:export-filename="/media/Disk/Dropbox/Shares/Haim Moryoussef/images/logo-ben-porat-yossef-proposition-finale.png"
   inkscape:export-xdpi="90"
   inkscape:export-ydpi="90">
  <defs
     id="defs4" />
  <sodipodi:namedview
     id="base"
     pagecolor="#ffffff"
     bordercolor="#666666"
     borderopacity="1.0"
     inkscape:pageopacity="0.0"
     inkscape:pageshadow="2"
     inkscape:zoom="1.1070976"
     inkscape:cx="260.5"
     inkscape:cy="418.5481"
     inkscape:document-units="px"
     inkscape:current-layer="layer2"
     showgrid="true"
     inkscape:showpageshadow="false"
     inkscape:object-paths="false"
     inkscape:snap-intersection-paths="false"
     inkscape:object-nodes="false"
     inkscape:snap-smooth-nodes="false"
     inkscape:snap-midpoints="false"
     inkscape:window-width="1920"
     inkscape:window-height="1057"
     inkscape:window-x="1600"
     inkscape:window-y="0"
     inkscape:window-maximized="1"
     showguides="false"
     inkscape:guide-bbox="true"
     inkscape:snap-nodes="true"
     inkscape:snap-grids="true"
     inkscape:snap-object-midpoints="true"
     fit-margin-top="0"
     fit-margin-left="0"
     fit-margin-right="0"
     fit-margin-bottom="0">
    <inkscape:grid
       type="xygrid"
       id="grid2985"
       empspacing="5"
       visible="true"
       enabled="true"
       snapvisiblegridlinesonly="true"
       originx="-129.5px"
       originy="-19.5px" />
    <sodipodi:guide
       orientation="1,0"
       position="260.5,505.5"
       id="guide3023" />
    <sodipodi:guide
       orientation="0,1"
       position="260.5,720.5"
       id="guide3031" />
    <sodipodi:guide
       orientation="1,0"
       position="210.5,480.5"
       id="guide3033" />
    <sodipodi:guide
       orientation="1,0"
       position="310.5,480.5"
       id="guide3035" />
    <sodipodi:guide
       orientation="1,0"
       position="160.5,650.5"
       id="guide3826" />
    <sodipodi:guide
       orientation="1,0"
       position="360.5,650.5"
       id="guide3830" />
    <sodipodi:guide
       orientation="6.123234e-17,1"
       position="260.5,500.5"
       id="guide3832" />
    <sodipodi:guide
       orientation="1,0"
       position="240.5,615.5"
       id="guide3928" />
    <sodipodi:guide
       orientation="1,0"
       position="280.5,615.5"
       id="guide3930" />
    <sodipodi:guide
       orientation="0,1"
       position="260.5,300.5"
       id="guide3932" />
    <sodipodi:guide
       orientation="0,1"
       position="260.5,400.5"
       id="guide3934" />
    <sodipodi:guide
       orientation="0,1"
       position="100.5,640.5"
       id="guide4186" />
    <sodipodi:guide
       orientation="0,1"
       position="140.5,520.5"
       id="guide4216" />
    <sodipodi:guide
       orientation="1,0"
       position="10.5,480.5"
       id="guide3058" />
    <sodipodi:guide
       orientation="1,0"
       position="510.5,480.5"
       id="guide3060" />
    <sodipodi:guide
       orientation="0,1"
       position="260.5,780.5"
       id="guide3062" />
    <sodipodi:guide
       orientation="0,1"
       position="260.5,170.5"
       id="guide3064" />
    <sodipodi:guide
       orientation="0,1"
       position="260.5,150.5"
       id="guide3066" />
    <sodipodi:guide
       orientation="0,1"
       position="460.5,135.5"
       id="guide3137" />
    <sodipodi:guide
       orientation="0,1"
       position="503.71412,87.69214"
       id="guide3139" />
    <sodipodi:guide
       orientation="0,1"
       position="55.5,65.5"
       id="guide3212" />
    <sodipodi:guide
       orientation="0,1"
       position="55.5,55.5"
       id="guide3214" />
  </sodipodi:namedview>
  <metadata
     id="metadata7">
    <rdf:RDF>
      <cc:Work
         rdf:about="">
        <dc:format>image/svg+xml</dc:format>
        <dc:type
           rdf:resource="http://purl.org/dc/dcmitype/StillImage" />
        <dc:title />
      </cc:Work>
    </rdf:RDF>
  </metadata>
  <g
     inkscape:groupmode="layer"
     id="layer1"
     inkscape:label="Layer 1"
     transform="translate(-129.5,-179.5)">
    <flowRoot
       xml:space="preserve"
       id="flowRoot3046"
       style="font-size:40px;font-style:normal;font-variant:normal;font-weight:normal;font-stretch:normal;line-height:125%;letter-spacing:0px;word-spacing:0px;fill:#000000;fill-opacity:1;stroke:none;font-family:StamD;-inkscape-font-specification:StamD"><flowRegion
         id="flowRegion3048"><rect
           id="rect3050"
           width="1197.8389"
           height="181.01933"
           x="-342.23969"
           y="1002.7279" /></flowRegion><flowPara
         id="flowPara3052" /></flowRoot>    <g
       id="g3113"
       transform="translate(-1.27441,32.80786)">
      <path
         d="m 604.52637,856.37207 8.49609,0 0,8.49609 -8.49609,0 0,-8.49609 m 12.74414,0 8.49609,0 0,8.49609 -8.49609,0 0,-8.49609"
         style="font-size:87px;font-style:normal;font-variant:normal;font-weight:normal;font-stretch:normal;text-align:center;line-height:125%;letter-spacing:0px;word-spacing:0px;text-anchor:middle;fill:#000000;fill-opacity:1;stroke:none;font-family:StamD;-inkscape-font-specification:StamD"
         id="path3071"
         inkscape:connector-curvature="0" />
      <path
         d="m 618.375,839.88965 0,-15.46289 c -3e-5,-1.61423 -0.0567,-2.94529 -0.16992,-3.99317 -0.085,-1.07614 -0.31155,-2.15231 -0.67969,-3.22851 -0.33987,-1.07614 -0.83548,-1.92575 -1.48682,-2.54883 -0.62307,-0.62301 -1.501,-1.13278 -2.63378,-1.5293 -1.10452,-0.39644 -2.46389,-0.59469 -4.07813,-0.59472 l -16.1001,0 0,-10.11036 16.1001,0 c 3.68162,5e-5 6.85349,0.32574 9.51563,0.97706 2.69039,0.65141 4.89937,1.58598 6.62695,2.80371 1.75582,1.21781 3.14351,2.81791 4.16308,4.80029 1.04781,1.95414 1.76998,4.10648 2.16651,6.45703 0.42476,2.35062 0.63716,5.14017 0.63721,8.36865 l 0,14.06104 6.37207,0 0,10.11035 -45.58155,0 0,-10.11035 25.14844,0"
         style="font-size:87px;font-style:normal;font-variant:normal;font-weight:normal;font-stretch:normal;text-align:center;line-height:125%;letter-spacing:0px;word-spacing:0px;text-anchor:middle;fill:#000000;fill-opacity:1;stroke:none;font-family:StamD;-inkscape-font-specification:StamD"
         id="path3073"
         inkscape:connector-curvature="0" />
      <path
         d="m 581.37451,802.42187 0,68.47852 -14.06103,0 0,-68.47852 14.06103,0"
         style="font-size:87px;font-style:normal;font-variant:normal;font-weight:normal;font-stretch:normal;text-align:center;line-height:125%;letter-spacing:0px;word-spacing:0px;text-anchor:middle;fill:#000000;fill-opacity:1;stroke:none;font-family:StamD;-inkscape-font-specification:StamD"
         id="path3075"
         inkscape:connector-curvature="0" />
      <path
         d="m 469.6084,787.12891 8.49609,0 0,8.49609 -8.49609,0 0,-8.49609 m 4.24805,15.29296 0,0"
         style="font-size:87px;font-style:normal;font-variant:normal;font-weight:normal;font-stretch:normal;text-align:center;line-height:125%;letter-spacing:0px;word-spacing:0px;text-anchor:middle;fill:#000000;fill-opacity:1;stroke:none;font-family:StamD;-inkscape-font-specification:StamD"
         id="path3077"
         inkscape:connector-curvature="0" />
      <path
         d="m 499.98193,821.96289 8.4961,0 0,8.49609 -8.4961,0 0,-8.49609 m 4.24805,4.24805 0,0 m -24.59619,-23.78907 19.7959,0 c 7.67477,5e-5 13.70699,2.06743 18.09668,6.20215 4.41792,4.13481 6.6269,9.99711 6.62695,17.58692 -5e-5,7.58986 -2.20903,13.45216 -6.62695,17.58691 C 513.10836,847.93262 507.07614,850 499.42969,850 l -19.7959,0 0,-10.06787 16.90723,0 c 4.81442,10e-6 8.28365,-1.04784 10.40771,-3.14356 2.12399,-2.124 3.186,-5.6782 3.18604,-10.66259 -4e-5,-5.01267 -1.10453,-8.52439 -3.31348,-10.53516 -2.1807,-2.03903 -5.59329,-3.05856 -10.23779,-3.05859 l -2.88868,0 -0.0425,5.94726 c -0.0283,1.52933 0.18406,2.57718 0.63721,3.14356 0.4531,0.53811 1.03367,0.80715 1.7417,0.80713 0.7363,2e-5 1.47263,-0.0283 2.20898,-0.085 l 0,8.11377 c -1.75588,0.39651 -3.54006,0.59475 -5.35253,0.59473 -1.81252,2e-5 -3.4551,-0.18406 -4.92774,-0.55225 -1.47267,-0.39646 -2.86036,-1.06199 -4.16309,-1.99658 -2.77539,-2.01072 -4.16309,-5.72067 -4.16308,-11.12988 l 0,-14.95313"
         style="font-size:87px;font-style:normal;font-variant:normal;font-weight:normal;font-stretch:normal;text-align:center;line-height:125%;letter-spacing:0px;word-spacing:0px;text-anchor:middle;fill:#000000;fill-opacity:1;stroke:none;font-family:StamD;-inkscape-font-specification:StamD"
         id="path3079"
         inkscape:connector-curvature="0" />
      <path
         d="m 461.15479,861.46973 0,7.43408 -8.4961,0 0,-7.43408 -9.5581,0 0,-8.4961 27.6123,0 0,8.4961 -9.5581,0 M 456.90674,850 l 0,0"
         style="font-size:87px;font-style:normal;font-variant:normal;font-weight:normal;font-stretch:normal;text-align:center;line-height:125%;letter-spacing:0px;word-spacing:0px;text-anchor:middle;fill:#000000;fill-opacity:1;stroke:none;font-family:StamD;-inkscape-font-specification:StamD"
         id="path3081"
         inkscape:connector-curvature="0" />
      <path
         d="m 463.70361,825.82861 0,24.17139 -14.06103,0 0,-24.17139 c -3e-5,-4.16305 -0.77884,-7.41989 -2.33643,-9.7705 -1.55764,-2.35055 -4.21975,-3.52585 -7.98633,-3.52588 l -16.35498,0 0,-10.11036 16.3125,0 c 3.73826,5e-5 7.02341,0.38238 9.85547,1.14698 2.86032,0.73637 5.19674,1.77006 7.00928,3.10107 1.84078,1.3311 3.3276,3.002 4.46045,5.0127 1.13277,1.98246 1.92574,4.12064 2.37891,6.41455 0.4814,2.26565 0.72212,4.8428 0.72216,7.73144"
         style="font-size:87px;font-style:normal;font-variant:normal;font-weight:normal;font-stretch:normal;text-align:center;line-height:125%;letter-spacing:0px;word-spacing:0px;text-anchor:middle;fill:#000000;fill-opacity:1;stroke:none;font-family:StamD;-inkscape-font-specification:StamD"
         id="path3083"
         inkscape:connector-curvature="0" />
      <path
         d="m 405.29297,824.42676 0,25.57324 -14.01856,0 0,-25.61572 c -5e-5,-2.01072 -0.085,-3.63913 -0.25488,-4.88526 -0.16997,-1.24606 -0.52397,-2.44967 -1.06201,-3.61084 -0.53813,-1.16109 -1.37358,-2.0107 -2.50635,-2.54882 -1.10453,-0.53805 -2.54887,-0.8071 -4.33301,-0.80713 l -14.82568,0 0,19.28613 c -3e-5,6.31544 -1.20364,10.98829 -3.61084,14.01855 -2.37893,3.03028 -6.01808,4.54541 -10.91748,4.54541 -2.43556,0 -5.0835,-0.31152 -7.94385,-0.93457 l 0,-9.30322 c 2.12402,0.42482 3.58251,0.63722 4.37549,0.63721 1.41601,10e-6 2.4497,-0.65136 3.10107,-1.9541 0.65136,-1.33105 0.97704,-3.66747 0.97706,-7.00928 l 0,-19.28613 -6.62696,0 0,-10.11036 35.47119,0 c 3.48336,5e-5 6.51363,0.32574 9.09082,0.97706 2.5771,0.65141 4.68696,1.57182 6.32959,2.76123 1.67084,1.16117 3.01606,2.67631 4.03565,4.54541 1.01947,1.84085 1.72748,3.86575 2.12402,6.0747 0.39642,2.1807 0.59467,4.72952 0.59473,7.64649"
         style="font-size:87px;font-style:normal;font-variant:normal;font-weight:normal;font-stretch:normal;text-align:center;line-height:125%;letter-spacing:0px;word-spacing:0px;text-anchor:middle;fill:#000000;fill-opacity:1;stroke:none;font-family:StamD;-inkscape-font-specification:StamD"
         id="path3085"
         inkscape:connector-curvature="0" />
      <path
         d="m 305.67627,802.42187 0,27.56983 -14.06104,5.73486 0,-33.30469 14.06104,0"
         style="font-size:87px;font-style:normal;font-variant:normal;font-weight:normal;font-stretch:normal;text-align:center;line-height:125%;letter-spacing:0px;word-spacing:0px;text-anchor:middle;fill:#000000;fill-opacity:1;stroke:none;font-family:StamD;-inkscape-font-specification:StamD"
         id="path3087"
         inkscape:connector-curvature="0" />
      <path
         d="m 253.6377,787.12891 8.49609,0 0,8.49609 -8.49609,0 0,-8.49609 m 4.24804,15.29296 0,0"
         style="font-size:87px;font-style:normal;font-variant:normal;font-weight:normal;font-stretch:normal;text-align:center;line-height:125%;letter-spacing:0px;word-spacing:0px;text-anchor:middle;fill:#000000;fill-opacity:1;stroke:none;font-family:StamD;-inkscape-font-specification:StamD"
         id="path3089"
         inkscape:connector-curvature="0" />
      <path
         d="m 277.72412,802.42187 0,47.57813 -14.06103,0 0,-47.57813 14.06103,0"
         style="font-size:87px;font-style:normal;font-variant:normal;font-weight:normal;font-stretch:normal;text-align:center;line-height:125%;letter-spacing:0px;word-spacing:0px;text-anchor:middle;fill:#000000;fill-opacity:1;stroke:none;font-family:StamD;-inkscape-font-specification:StamD"
         id="path3091"
         inkscape:connector-curvature="0" />
      <path
         d="m 217.9541,856.37207 8.4961,0 0,8.49609 -8.4961,0 0,-8.49609 m 12.74414,0 8.4961,0 0,8.49609 -8.4961,0 0,-8.49609"
         style="font-size:87px;font-style:normal;font-variant:normal;font-weight:normal;font-stretch:normal;text-align:center;line-height:125%;letter-spacing:0px;word-spacing:0px;text-anchor:middle;fill:#000000;fill-opacity:1;stroke:none;font-family:StamD;-inkscape-font-specification:StamD"
         id="path3093"
         inkscape:connector-curvature="0" />
      <path
         d="m 204.31787,802.42187 22.13233,0 c 8.49605,5e-5 14.66987,1.78423 18.52148,5.35254 3.85151,3.54008 5.77729,9.55814 5.77734,18.0542 -5e-5,8.55275 -1.92583,14.91066 -5.77734,19.07373 -3.85161,4.13477 -9.67143,6.20215 -17.45947,6.20215 -7.78811,0 -13.60793,-2.06738 -17.45948,-6.20215 -3.82325,-4.16307 -5.73487,-10.52098 -5.73486,-19.07373 l 0,-23.40674 m 22.13233,10.49268 -8.15625,0 0,13.21143 c -3e-5,9.71388 3.07272,14.57081 9.21826,14.5708 6.14547,10e-6 9.21822,-4.95604 9.21826,-14.86817 -4e-5,-2.52048 -0.21244,-4.63034 -0.63721,-6.32959 -0.42484,-1.69918 -1.10453,-3.03024 -2.03906,-3.99316 -0.90629,-0.96286 -1.9683,-1.62838 -3.18604,-1.99658 -1.18948,-0.39645 -2.66214,-0.59469 -4.41796,-0.59473"
         style="font-size:87px;font-style:normal;font-variant:normal;font-weight:normal;font-stretch:normal;text-align:center;line-height:125%;letter-spacing:0px;word-spacing:0px;text-anchor:middle;fill:#000000;fill-opacity:1;stroke:none;font-family:StamD;-inkscape-font-specification:StamD"
         id="path3095"
         inkscape:connector-curvature="0" />
      <path
         d="m 188.13281,824.42676 0,46.47363 -14.01855,0 0,-46.51611 c -4e-5,-4.44626 -0.66557,-7.53317 -1.99658,-9.26074 -1.33109,-1.72751 -3.54007,-2.59128 -6.62696,-2.59131 l -6.24463,0 0,8.24121 c -2e-5,2.74709 1.13279,4.12063 3.39844,4.1206 0.36814,3e-5 0.76462,-0.0425 1.18945,-0.12744 l 0,8.19873 c -2.43557,0.33986 -4.53127,0.50978 -6.28711,0.50977 -1.75587,10e-6 -3.35597,-0.21239 -4.80029,-0.63721 -1.41603,-0.42479 -2.7046,-1.13279 -3.86572,-2.12402 -2.43556,-2.03904 -3.65333,-5.69236 -3.65332,-10.95996 l 0,-17.33204 20.26318,0 c 8.2695,5e-5 14.10348,1.77007 17.50196,5.31006 3.4267,3.54008 5.14008,9.10502 5.14013,16.69483"
         style="font-size:87px;font-style:normal;font-variant:normal;font-weight:normal;font-stretch:normal;text-align:center;line-height:125%;letter-spacing:0px;word-spacing:0px;text-anchor:middle;fill:#000000;fill-opacity:1;stroke:none;font-family:StamD;-inkscape-font-specification:StamD"
         id="path3097"
         inkscape:connector-curvature="0" />
    </g>
    <flowRoot
       xml:space="preserve"
       id="flowRoot3129"
       style="font-size:40px;font-style:normal;font-variant:normal;font-weight:normal;font-stretch:normal;line-height:125%;letter-spacing:0px;word-spacing:0px;fill:#000000;fill-opacity:1;stroke:none;font-family:StamD;-inkscape-font-specification:StamD"
       transform="translate(515.53047,751.87178)"><flowRegion
         id="flowRegion3131"><rect
           id="rect3133"
           width="710"
           height="64"
           x="112"
           y="75" /></flowRegion><flowPara
         id="flowPara3135"
         style="font-size:56px;font-style:normal;font-variant:normal;font-weight:bold;font-stretch:normal;text-align:center;text-anchor:middle;font-family:Sans;-inkscape-font-specification:System Bold" /></flowRoot>    <g
       id="g3195"
       transform="translate(0.0215,1.31557)">
      <path
         d="m 157.3184,933.22883 c 1.2441,0 2.1874,-0.2734 2.83,-0.8203 0.6426,-0.5469 0.9639,-1.3535 0.9639,-2.4199 0,-1.0527 -0.3213,-1.8525 -0.9639,-2.3994 -0.6426,-0.5606 -1.5859,-0.8408 -2.83,-0.8409 l -4.3682,0 0,6.4805 4.3682,0 m 0.2666,13.3916 c 1.5859,0 2.7753,-0.3349 3.5683,-1.0049 0.8066,-0.6699 1.21,-1.6816 1.21,-3.0351 0,-1.3262 -0.3965,-2.3174 -1.1895,-2.9737 -0.793,-0.6699 -1.9892,-1.0048 -3.5888,-1.0048 l -4.6348,0 0,8.0185 4.6348,0 m 7.3418,-11.0127 c 1.6952,0.4922 3.0077,1.4014 3.9375,2.7276 0.9296,1.3261 1.3945,2.9531 1.3945,4.8808 0,2.9532 -0.9981,5.1543 -2.9942,6.6035 -1.9961,1.4493 -5.0312,2.1739 -9.1054,2.1739 l -13.1045,0 0,-30.6182 11.8535,0 c 4.2519,0 7.3281,0.6426 9.2285,1.9277 1.9141,1.2852 2.8711,3.3428 2.8711,6.1729 0,1.4902 -0.3486,2.7617 -1.0459,3.8144 -0.6973,1.0391 -1.709,1.8116 -3.0351,2.3174"
         style="font-size:42px;font-style:normal;font-variant:normal;font-weight:normal;font-stretch:normal;text-align:center;line-height:125%;letter-spacing:0px;word-spacing:0px;text-anchor:middle;fill:#000000;fill-opacity:1;stroke:none;font-family:StamD;-inkscape-font-specification:StamD"
         id="path3150"
         inkscape:connector-curvature="0" />
      <path
         d="m 177.0469,921.37533 21.3076,0 0,5.9678 -13.4121,0 0,5.7011 12.6123,0 0,5.9678 -12.6123,0 0,7.0137 13.8633,0 0,5.9678 -21.7588,0 0,-30.6182 m 9.29,-8.3262 4.0606,5.4141 -4.0196,0 -5.8447,-5.4141 5.8037,0"
         style="font-size:42px;font-style:normal;font-variant:normal;font-weight:normal;font-stretch:normal;text-align:center;line-height:125%;letter-spacing:0px;word-spacing:0px;text-anchor:middle;fill:#000000;fill-opacity:1;stroke:none;font-family:StamD;-inkscape-font-specification:StamD"
         id="path3152"
         inkscape:connector-curvature="0" />
      <path
         d="m 205.7578,921.37533 8.8184,0 11.1357,21 0,-21 7.4854,0 0,30.6182 -8.8184,0 -11.1357,-21 0,21 -7.4854,0 0,-30.6182"
         style="font-size:42px;font-style:normal;font-variant:normal;font-weight:normal;font-stretch:normal;text-align:center;line-height:125%;letter-spacing:0px;word-spacing:0px;text-anchor:middle;fill:#000000;fill-opacity:1;stroke:none;font-family:StamD;-inkscape-font-specification:StamD"
         id="path3154"
         inkscape:connector-curvature="0" />
      <path
         d="m 255.5508,921.37533 13.1045,0 c 3.8964,0 6.8837,0.8682 8.9619,2.6045 2.0918,1.7227 3.1377,4.1836 3.1377,7.3828 0,3.2129 -1.0459,5.6875 -3.1377,7.4238 -2.0782,1.7227 -5.0655,2.584 -8.9619,2.584 l -5.209,0 0,10.6231 -7.8955,0 0,-30.6182 m 7.8955,5.7217 0,8.5517 4.3682,0 c 1.5312,10e-5 2.7138,-0.3691 3.5478,-1.1074 0.834,-0.7519 1.251,-1.8115 1.251,-3.1787 0,-1.3672 -0.417,-2.4199 -1.251,-3.1582 -0.834,-0.7383 -2.0166,-1.1074 -3.5478,-1.1074 l -4.3682,0"
         style="font-size:42px;font-style:normal;font-variant:normal;font-weight:normal;font-stretch:normal;text-align:center;line-height:125%;letter-spacing:0px;word-spacing:0px;text-anchor:middle;fill:#000000;fill-opacity:1;stroke:none;font-family:StamD;-inkscape-font-specification:StamD"
         id="path3156"
         inkscape:connector-curvature="0" />
      <path
         d="m 300.2988,926.54333 c -2.4062,0 -4.2724,0.8887 -5.5986,2.666 -1.3262,1.7773 -1.9893,4.2793 -1.9893,7.5058 0,3.2129 0.6631,5.7081 1.9893,7.4854 1.3262,1.7773 3.1924,2.666 5.5986,2.666 2.4199,0 4.293,-0.8887 5.6192,-2.666 1.3261,-1.7773 1.9892,-4.2725 1.9892,-7.4854 0,-3.2265 -0.6631,-5.7285 -1.9892,-7.5058 -1.3262,-1.7773 -3.1993,-2.666 -5.6192,-2.666 m 0,-5.7217 c 4.9219,0 8.7773,1.4082 11.5664,4.2246 2.7891,2.8164 4.1836,6.7061 4.1836,11.6689 0,4.9493 -1.3945,8.8321 -4.1836,11.6485 -2.7891,2.8164 -6.6445,4.2246 -11.5664,4.2246 -4.9082,0 -8.7637,-1.4082 -11.5664,-4.2246 -2.789,-2.8164 -4.1836,-6.6992 -4.1836,-11.6485 0,-4.9628 1.3946,-8.8525 4.1836,-11.6689 2.8027,-2.8164 6.6582,-4.2246 11.5664,-4.2246"
         style="font-size:42px;font-style:normal;font-variant:normal;font-weight:normal;font-stretch:normal;text-align:center;line-height:125%;letter-spacing:0px;word-spacing:0px;text-anchor:middle;fill:#000000;fill-opacity:1;stroke:none;font-family:StamD;-inkscape-font-specification:StamD"
         id="path3158"
         inkscape:connector-curvature="0" />
      <path
         d="m 333.2139,934.95153 c 1.6542,0 2.8369,-0.3076 3.5478,-0.9229 0.7246,-0.6152 1.0869,-1.6269 1.0869,-3.0351 0,-1.3945 -0.3623,-2.3926 -1.0869,-2.9942 -0.7109,-0.6015 -1.8936,-0.9023 -3.5478,-0.9023 l -3.3223,0 0,7.8545 3.3223,0 m -3.3223,5.4551 0,11.5869 -7.8955,0 0,-30.6182 12.0586,0 c 4.0332,0 6.9863,0.6768 8.8594,2.0303 1.8867,1.3535 2.83,3.4932 2.83,6.4189 0,2.0235 -0.4922,3.6846 -1.4765,4.9834 -0.9708,1.2989 -2.4405,2.2559 -4.4092,2.8711 1.0801,0.2461 2.0439,0.8067 2.8916,1.6817 0.8613,0.8613 1.7295,2.1738 2.6045,3.9375 l 4.2861,8.6953 -8.4082,0 -3.7324,-7.6084 c -0.752,-1.5313 -1.5176,-2.5772 -2.2969,-3.1377 -0.7656,-0.5606 -1.791,-0.8408 -3.0761,-0.8408 l -2.2354,0"
         style="font-size:42px;font-style:normal;font-variant:normal;font-weight:normal;font-stretch:normal;text-align:center;line-height:125%;letter-spacing:0px;word-spacing:0px;text-anchor:middle;fill:#000000;fill-opacity:1;stroke:none;font-family:StamD;-inkscape-font-specification:StamD"
         id="path3160"
         inkscape:connector-curvature="0" />
      <path
         d="m 372.8965,946.41533 -12.3457,0 -1.9483,5.5782 -7.9365,0 11.3408,-30.6182 9.4131,0 11.3408,30.6182 -7.9365,0 -1.9277,-5.5782 m -10.377,-5.6806 8.3877,0 -4.1836,-12.1817 -4.2041,12.1817"
         style="font-size:42px;font-style:normal;font-variant:normal;font-weight:normal;font-stretch:normal;text-align:center;line-height:125%;letter-spacing:0px;word-spacing:0px;text-anchor:middle;fill:#000000;fill-opacity:1;stroke:none;font-family:StamD;-inkscape-font-specification:StamD"
         id="path3162"
         inkscape:connector-curvature="0" />
      <path
         d="m 379.8691,921.37533 28.2188,0 0,5.9678 -10.1514,0 0,24.6504 -7.8955,0 0,-24.6504 -10.1719,0 0,-5.9678"
         style="font-size:42px;font-style:normal;font-variant:normal;font-weight:normal;font-stretch:normal;text-align:center;line-height:125%;letter-spacing:0px;word-spacing:0px;text-anchor:middle;fill:#000000;fill-opacity:1;stroke:none;font-family:StamD;-inkscape-font-specification:StamD"
         id="path3164"
         inkscape:connector-curvature="0" />
      <path
         d="m 412.1484,921.37533 7.8955,0 0,11.6689 11.6485,0 0,-11.6689 7.8955,0 0,30.6182 -7.8955,0 0,-12.9815 -11.6485,0 0,12.9815 -7.8955,0 0,-30.6182"
         style="font-size:42px;font-style:normal;font-variant:normal;font-weight:normal;font-stretch:normal;text-align:center;line-height:125%;letter-spacing:0px;word-spacing:0px;text-anchor:middle;fill:#000000;fill-opacity:1;stroke:none;font-family:StamD;-inkscape-font-specification:StamD"
         id="path3166"
         inkscape:connector-curvature="0" />
      <path
         d="m 457.6758,921.37533 8.6338,0 6.9726,10.9102 6.9727,-10.9102 8.6543,0 -11.669,17.7188 0,12.8994 -7.8955,0 0,-12.8994 -11.6689,-17.7188"
         style="font-size:42px;font-style:normal;font-variant:normal;font-weight:normal;font-stretch:normal;text-align:center;line-height:125%;letter-spacing:0px;word-spacing:0px;text-anchor:middle;fill:#000000;fill-opacity:1;stroke:none;font-family:StamD;-inkscape-font-specification:StamD"
         id="path3168"
         inkscape:connector-curvature="0" />
      <path
         d="m 504.8848,926.54333 c -2.4063,0 -4.2725,0.8887 -5.5987,2.666 -1.3261,1.7773 -1.9892,4.2793 -1.9892,7.5058 0,3.2129 0.6631,5.7081 1.9892,7.4854 1.3262,1.7773 3.1924,2.666 5.5987,2.666 2.4199,0 4.2929,-0.8887 5.6191,-2.666 1.3262,-1.7773 1.9892,-4.2725 1.9893,-7.4854 -10e-5,-3.2265 -0.6631,-5.7285 -1.9893,-7.5058 -1.3262,-1.7773 -3.1992,-2.666 -5.6191,-2.666 m 0,-5.7217 c 4.9218,0 8.7773,1.4082 11.5664,4.2246 2.789,2.8164 4.1835,6.7061 4.1836,11.6689 -1e-4,4.9493 -1.3946,8.8321 -4.1836,11.6485 -2.7891,2.8164 -6.6446,4.2246 -11.5664,4.2246 -4.9083,0 -8.7637,-1.4082 -11.5664,-4.2246 -2.7891,-2.8164 -4.1836,-6.6992 -4.1836,-11.6485 0,-4.9628 1.3945,-8.8525 4.1836,-11.6689 2.8027,-2.8164 6.6581,-4.2246 11.5664,-4.2246"
         style="font-size:42px;font-style:normal;font-variant:normal;font-weight:normal;font-stretch:normal;text-align:center;line-height:125%;letter-spacing:0px;word-spacing:0px;text-anchor:middle;fill:#000000;fill-opacity:1;stroke:none;font-family:StamD;-inkscape-font-specification:StamD"
         id="path3170"
         inkscape:connector-curvature="0" />
      <path
         d="m 547.8896,922.33923 0,6.4804 c -1.6816,-0.7519 -3.3222,-1.3193 -4.9218,-1.7021 -1.5997,-0.3828 -3.1104,-0.5742 -4.5323,-0.5742 -1.8867,0 -3.2812,0.2598 -4.1835,0.7793 -0.9024,0.5195 -1.3536,1.3262 -1.3536,2.4199 0,0.8203 0.3008,1.4629 0.9024,1.9277 0.6152,0.4512 1.7226,0.8409 3.3222,1.169 l 3.3633,0.6767 c 3.4043,0.6836 5.8242,1.7227 7.2598,3.1172 1.4355,1.3946 2.1533,3.377 2.1533,5.9473 0,3.3769 -1.0049,5.8926 -3.0146,7.5469 -1.9962,1.6406 -5.0518,2.4609 -9.167,2.4609 -1.9414,0 -3.8897,-0.1846 -5.8448,-0.5537 -1.955,-0.3692 -3.9101,-0.916 -5.8652,-1.6406 l 0,-6.6651 c 1.9551,1.0391 3.8418,1.8252 5.6602,2.3584 1.832,0.5196 3.5957,0.7793 5.291,0.7793 1.7226,0 3.042,-0.2871 3.958,-0.8613 0.916,-0.5742 1.374,-1.3945 1.374,-2.461 0,-0.957 -0.3145,-1.6953 -0.9433,-2.2148 -0.6153,-0.5195 -1.8526,-0.9844 -3.712,-1.3945 l -3.0556,-0.6768 c -3.0625,-0.6562 -5.3047,-1.7021 -6.7266,-3.1377 -1.4082,-1.4355 -2.1123,-3.3701 -2.1123,-5.8037 0,-3.0488 0.9844,-5.3935 2.9531,-7.0342 1.9688,-1.6406 4.7989,-2.4609 8.4903,-2.4609 1.6816,0 3.4111,0.1299 5.1884,0.3896 1.7774,0.2462 3.6162,0.6221 5.5166,1.128"
         style="font-size:42px;font-style:normal;font-variant:normal;font-weight:normal;font-stretch:normal;text-align:center;line-height:125%;letter-spacing:0px;word-spacing:0px;text-anchor:middle;fill:#000000;fill-opacity:1;stroke:none;font-family:StamD;-inkscape-font-specification:StamD"
         id="path3172"
         inkscape:connector-curvature="0" />
      <path
         d="m 576.2725,922.33923 0,6.4804 c -1.6817,-0.7519 -3.3223,-1.3193 -4.9219,-1.7021 -1.5996,-0.3828 -3.1104,-0.5742 -4.5322,-0.5742 -1.8868,0 -3.2813,0.2598 -4.1836,0.7793 -0.9024,0.5195 -1.3536,1.3262 -1.3535,2.4199 -10e-5,0.8203 0.3007,1.4629 0.9023,1.9277 0.6152,0.4512 1.7226,0.8409 3.3223,1.169 l 3.3632,0.6767 c 3.4043,0.6836 5.8242,1.7227 7.2598,3.1172 1.4355,1.3946 2.1533,3.377 2.1533,5.9473 0,3.3769 -1.0049,5.8926 -3.0146,7.5469 -1.9961,1.6406 -5.0518,2.4609 -9.167,2.4609 -1.9414,0 -3.8897,-0.1846 -5.8447,-0.5537 -1.9551,-0.3692 -3.9102,-0.916 -5.8653,-1.6406 l 0,-6.6651 c 1.9551,1.0391 3.8418,1.8252 5.6602,2.3584 1.832,0.5196 3.5957,0.7793 5.291,0.7793 1.7226,0 3.042,-0.2871 3.958,-0.8613 0.916,-0.5742 1.374,-1.3945 1.374,-2.461 0,-0.957 -0.3144,-1.6953 -0.9433,-2.2148 -0.6153,-0.5195 -1.8526,-0.9844 -3.7119,-1.3945 l -3.0557,-0.6768 c -3.0625,-0.6562 -5.3047,-1.7021 -6.7266,-3.1377 -1.4082,-1.4355 -2.1123,-3.3701 -2.1123,-5.8037 0,-3.0488 0.9844,-5.3935 2.9531,-7.0342 1.9688,-1.6406 4.7989,-2.4609 8.4903,-2.4609 1.6816,0 3.4111,0.1299 5.1885,0.3896 1.7773,0.2462 3.6161,0.6221 5.5166,1.128"
         style="font-size:42px;font-style:normal;font-variant:normal;font-weight:normal;font-stretch:normal;text-align:center;line-height:125%;letter-spacing:0px;word-spacing:0px;text-anchor:middle;fill:#000000;fill-opacity:1;stroke:none;font-family:StamD;-inkscape-font-specification:StamD"
         id="path3174"
         inkscape:connector-curvature="0" />
      <path
         d="m 585.2344,921.37533 21.3076,0 0,5.9678 -13.4121,0 0,5.7011 12.6123,0 0,5.9678 -12.6123,0 0,7.0137 13.8633,0 0,5.9678 -21.7588,0 0,-30.6182"
         style="font-size:42px;font-style:normal;font-variant:normal;font-weight:normal;font-stretch:normal;text-align:center;line-height:125%;letter-spacing:0px;word-spacing:0px;text-anchor:middle;fill:#000000;fill-opacity:1;stroke:none;font-family:StamD;-inkscape-font-specification:StamD"
         id="path3176"
         inkscape:connector-curvature="0" />
      <path
         d="m 613.9453,921.37533 21.3076,0 0,5.9678 -13.4121,0 0,5.7011 12.6123,0 0,5.9678 -12.6123,0 0,12.9815 -7.8955,0 0,-30.6182"
         style="font-size:42px;font-style:normal;font-variant:normal;font-weight:normal;font-stretch:normal;text-align:center;line-height:125%;letter-spacing:0px;word-spacing:0px;text-anchor:middle;fill:#000000;fill-opacity:1;stroke:none;font-family:StamD;-inkscape-font-specification:StamD"
         id="path3178"
         inkscape:connector-curvature="0" />
    </g>
  </g>
  <g
     inkscape:groupmode="layer"
     id="layer2"
     inkscape:label="Layer 2"
     transform="translate(-129.5,-179.5)">
    <path
       style="fill:#0080e8;stroke:none;fill-opacity:1"
       d="m 610.65625,393.8125 c -3.55216,2.439 -7.02765,4.71605 -10.65625,7.4375 -3.125,2.34375 -6.23633,4.78564 -9.3125,7.3125 -3.07617,2.52686 -6.13281,5.12695 -9.0625,7.8125 -2.92969,2.68555 -5.75195,5.46143 -8.4375,8.28125 -2.68555,2.81982 -5.21875,5.69531 -7.5625,8.625 -2.34375,2.92969 -4.50195,5.92236 -6.40625,8.9375 -1.9043,3.01514 -3.53906,6.04883 -4.90625,9.125 -1.36719,3.07617 -2.45508,6.16846 -3.1875,9.28125 -0.36621,1.5564 -0.65454,3.12653 -0.84375,4.6875 C 550.09204,466.87347 550,468.4375 550,470 l 0,130 c 0,0 0.15234,2.5 0.0937,6.875 -0.0293,2.1875 -0.0981,4.82812 -0.28125,7.875 -0.18311,3.04688 -0.47656,6.5 -0.90625,10.25 -0.42969,3.75 -1.01221,7.82812 -1.78125,12.125 -0.76904,4.29688 -1.73633,8.8125 -2.9375,13.5 -1.20117,4.6875 -2.61768,9.51562 -4.34375,14.4375 -1.72607,4.92188 -3.75,9.9375 -6.09375,14.9375 -1.17188,2.5 -2.43756,5.00977 -3.78125,7.5 -1.34369,2.49023 -2.75415,4.97656 -4.28125,7.4375 -1.5271,2.46094 -3.15289,4.90039 -4.875,7.3125 -1.72211,2.41211 -3.54004,4.78125 -5.46875,7.125 -1.92871,2.34375 -3.97809,4.65039 -6.125,6.90625 -2.14691,2.25586 -4.40454,4.44531 -6.78125,6.59375 -2.37671,2.14844 -4.8819,4.25977 -7.5,6.28125 -2.6181,2.02148 -5.34766,3.96875 -8.21875,5.84375 -2.87109,1.875 -5.86432,3.66602 -9,5.375 -3.13568,1.70898 -6.40063,3.35156 -9.8125,4.875 -3.41187,1.52344 -6.98785,2.93164 -10.6875,4.25 -3.69965,1.31836 -7.53223,2.53125 -11.53125,3.625 -3.99902,1.09375 -8.15875,2.05664 -12.46875,2.90625 -4.31,0.84961 -8.77368,1.57031 -13.40625,2.15625 -4.63257,0.58594 -9.43951,1.04102 -14.40625,1.34375 C 400.43951,759.83398 395.3125,760 390,760 c -5.3125,0 -10.43951,-0.16602 -15.40625,-0.46875 -4.96674,-0.30273 -9.77368,-0.75781 -14.40625,-1.34375 -4.63257,-0.58594 -9.09625,-1.30664 -13.40625,-2.15625 -4.31,-0.84961 -8.46973,-1.8125 -12.46875,-2.90625 -3.99902,-1.09375 -7.8316,-2.30664 -11.53125,-3.625 -3.69965,-1.31836 -7.27563,-2.72656 -10.6875,-4.25 -3.41187,-1.52344 -6.67682,-3.16602 -9.8125,-4.875 -3.13568,-1.70898 -6.12891,-3.5 -9,-5.375 -2.87109,-1.875 -5.60065,-3.82227 -8.21875,-5.84375 -2.6181,-2.02148 -5.12329,-4.13281 -7.5,-6.28125 -2.37671,-2.14844 -4.63434,-4.33789 -6.78125,-6.59375 -2.14691,-2.25586 -4.19629,-4.5625 -6.125,-6.90625 -1.92871,-2.34375 -3.74664,-4.71289 -5.46875,-7.125 -1.72211,-2.41211 -3.3479,-4.85156 -4.875,-7.3125 -1.5271,-2.46094 -2.93756,-4.94727 -4.28125,-7.4375 -1.34369,-2.49023 -2.60937,-5 -3.78125,-7.5 -2.34375,-5 -4.36768,-10.01562 -6.09375,-14.9375 -1.72607,-4.92188 -3.14258,-9.75 -4.34375,-14.4375 -1.20117,-4.6875 -2.16846,-9.20312 -2.9375,-13.5 -0.76904,-4.29688 -1.35156,-8.375 -1.78125,-12.125 -0.42969,-3.75 -0.72314,-7.20312 -0.90625,-10.25 -0.18311,-3.04688 -0.25195,-5.6875 -0.28125,-7.875 C 229.84766,602.5 230,600 230,600 l 0,-130 c 0,-1.5625 -0.092,-3.12653 -0.28125,-4.6875 -0.18921,-1.56097 -0.47754,-3.1311 -0.84375,-4.6875 -0.73242,-3.11279 -1.82031,-6.20508 -3.1875,-9.28125 -1.36719,-3.07617 -3.00195,-6.10986 -4.90625,-9.125 -1.9043,-3.01514 -4.0625,-6.00781 -6.40625,-8.9375 -2.34375,-2.92969 -4.87695,-5.80518 -7.5625,-8.625 -2.68555,-2.81982 -5.50781,-5.5957 -8.4375,-8.28125 -2.92969,-2.68555 -5.98633,-5.28564 -9.0625,-7.8125 -3.07617,-2.52686 -6.1875,-4.96875 -9.3125,-7.3125 -3.6286,-2.72145 -7.10409,-4.9985 -10.65625,-7.4375 -5.69897,4.60648 -11.6475,10.69755 -17.875,19 1.34062,0.88376 2.43854,1.50267 3.84375,2.46875 C 160,418.50391 165,422.1875 170,426.25 c 2.5,2.03125 5.00781,4.15576 7.46875,6.375 2.46094,2.21924 4.875,4.54492 7.21875,6.9375 2.34375,2.39258 4.60156,4.85498 6.75,7.40625 2.14844,2.55127 4.1875,5.17969 6.0625,7.875 1.875,2.69531 3.60156,5.45654 5.125,8.28125 1.52344,2.82471 2.84375,5.7168 3.9375,8.65625 1.09375,2.93945 1.94531,5.9292 2.53125,8.96875 C 209.67969,483.78955 210,486.875 210,490 l 0,130 c 0,0 0.14453,2.5 0.75,6.875 0.30273,2.1875 0.71729,4.82812 1.28125,7.875 0.56396,3.04688 1.28906,6.5 2.1875,10.25 0.89844,3.75 1.9751,7.82812 3.28125,12.125 1.30615,4.29688 2.83789,8.8125 4.625,13.5 1.78711,4.6875 3.84619,9.51562 6.1875,14.4375 2.34131,4.92188 4.96875,9.9375 7.9375,14.9375 2.96875,5 6.26807,10.01562 9.9375,14.9375 1.83472,2.46094 3.75763,4.90039 5.78125,7.3125 2.02362,2.41211 4.15332,4.78125 6.375,7.125 2.22168,2.34375 4.53986,4.65039 6.96875,6.90625 2.42889,2.25586 4.97974,4.44531 7.625,6.59375 2.64526,2.14844 5.37921,4.25977 8.25,6.28125 2.87079,2.02148 5.86328,3.96875 8.96875,5.84375 3.10547,1.875 6.3382,3.66602 9.6875,5.375 3.3493,1.70898 6.80396,3.35156 10.40625,4.875 3.60229,1.52344 7.35431,2.93164 11.21875,4.25 3.86444,1.31836 7.86426,2.53125 12,3.625 4.13574,1.09375 8.3963,2.05664 12.8125,2.90625 4.4162,0.84961 8.98169,1.57031 13.6875,2.15625 4.70581,0.58594 9.55792,1.04102 14.5625,1.34375 C 379.53583,779.83398 384.6875,780 390,780 c 5.3125,0 10.46417,-0.16602 15.46875,-0.46875 5.00458,-0.30273 9.85669,-0.75781 14.5625,-1.34375 4.70581,-0.58594 9.2713,-1.30664 13.6875,-2.15625 4.4162,-0.84961 8.67676,-1.8125 12.8125,-2.90625 4.13574,-1.09375 8.13556,-2.30664 12,-3.625 3.86444,-1.31836 7.61646,-2.72656 11.21875,-4.25 3.60229,-1.52344 7.05695,-3.16602 10.40625,-4.875 3.3493,-1.70898 6.58203,-3.5 9.6875,-5.375 3.10547,-1.875 6.09796,-3.82227 8.96875,-5.84375 2.87079,-2.02148 5.60474,-4.13281 8.25,-6.28125 2.64526,-2.14844 5.19611,-4.33789 7.625,-6.59375 2.42889,-2.25586 4.74707,-4.5625 6.96875,-6.90625 2.22168,-2.34375 4.35138,-4.71289 6.375,-7.125 2.02362,-2.41211 3.94653,-4.85156 5.78125,-7.3125 3.66943,-4.92188 6.96875,-9.9375 9.9375,-14.9375 2.96875,-5 5.59619,-10.01562 7.9375,-14.9375 2.34131,-4.92188 4.40039,-9.75 6.1875,-14.4375 1.78711,-4.6875 3.31885,-9.20312 4.625,-13.5 1.30615,-4.29688 2.38281,-8.375 3.28125,-12.125 0.89844,-3.75 1.62354,-7.20312 2.1875,-10.25 0.56396,-3.04688 0.97852,-5.6875 1.28125,-7.875 C 569.85547,622.5 570,620 570,620 l 0,-130 c 0,-3.125 0.32031,-6.21045 0.90625,-9.25 0.58594,-3.03955 1.4375,-6.0293 2.53125,-8.96875 1.09375,-2.93945 2.41406,-5.83154 3.9375,-8.65625 1.52344,-2.82471 3.25,-5.58594 5.125,-8.28125 1.875,-2.69531 3.91406,-5.32373 6.0625,-7.875 2.14844,-2.55127 4.40625,-5.01367 6.75,-7.40625 2.34375,-2.39258 4.75781,-4.71826 7.21875,-6.9375 2.46094,-2.21924 4.96875,-4.34375 7.46875,-6.375 5,-4.0625 10,-7.74609 14.6875,-10.96875 1.40521,-0.96608 2.50313,-1.58499 3.84375,-2.46875 -6.2275,-8.30245 -12.17603,-14.39352 -17.875,-19 z"
       id="path4182"
       inkscape:connector-curvature="0" />
    <path
       style="fill:#ace8fc;stroke:none;fill-opacity:1"
       d="M 239.25,418.4375 C 235.47205,410.68295 210,370 169.34375,393.8125 c 3.55216,2.439 7.02765,4.71605 10.65625,7.4375 3.125,2.34375 6.23633,4.78564 9.3125,7.3125 3.07617,2.52686 6.13281,5.12695 9.0625,7.8125 2.92969,2.68555 5.75195,5.46143 8.4375,8.28125 2.68555,2.81982 5.21875,5.69531 7.5625,8.625 2.34375,2.92969 4.50195,5.92236 6.40625,8.9375 1.9043,3.01514 3.53906,6.04883 4.90625,9.125 1.36719,3.07617 2.45508,6.16846 3.1875,9.28125 0.36621,1.5564 0.65454,3.12653 0.84375,4.6875 C 229.90796,466.87347 230,468.4375 230,470 l 0,130 c 0,0 -0.15234,2.5 -0.0937,6.875 0.0293,2.1875 0.0981,4.82812 0.28125,7.875 0.18311,3.04688 0.47656,6.5 0.90625,10.25 0.42969,3.75 1.01221,7.82812 1.78125,12.125 0.76904,4.29688 1.73633,8.8125 2.9375,13.5 1.20117,4.6875 2.61768,9.51562 4.34375,14.4375 1.72607,4.92188 3.75,9.9375 6.09375,14.9375 1.17188,2.5 2.43756,5.00977 3.78125,7.5 1.34369,2.49023 2.75415,4.97656 4.28125,7.4375 1.5271,2.46094 3.15289,4.90039 4.875,7.3125 1.72211,2.41211 3.54004,4.78125 5.46875,7.125 1.92871,2.34375 3.97809,4.65039 6.125,6.90625 2.14691,2.25586 4.40454,4.44531 6.78125,6.59375 2.37671,2.14844 4.8819,4.25977 7.5,6.28125 2.6181,2.02148 5.34766,3.96875 8.21875,5.84375 2.87109,1.875 5.86432,3.66602 9,5.375 3.13568,1.70898 6.40063,3.35156 9.8125,4.875 3.41187,1.52344 6.98785,2.93164 10.6875,4.25 3.69965,1.31836 7.53223,2.53125 11.53125,3.625 3.99902,1.09375 8.15875,2.05664 12.46875,2.90625 4.31,0.84961 8.77368,1.57031 13.40625,2.15625 4.63257,0.58594 9.43951,1.04102 14.40625,1.34375 C 379.56049,759.83398 384.6875,760 390,760 c 5.3125,0 10.43951,-0.16602 15.40625,-0.46875 4.96674,-0.30273 9.77368,-0.75781 14.40625,-1.34375 4.63257,-0.58594 9.09625,-1.30664 13.40625,-2.15625 4.31,-0.84961 8.46973,-1.8125 12.46875,-2.90625 3.99902,-1.09375 7.8316,-2.30664 11.53125,-3.625 3.69965,-1.31836 7.27563,-2.72656 10.6875,-4.25 3.41187,-1.52344 6.67682,-3.16602 9.8125,-4.875 3.13568,-1.70898 6.12891,-3.5 9,-5.375 2.87109,-1.875 5.60065,-3.82227 8.21875,-5.84375 2.6181,-2.02148 5.12329,-4.13281 7.5,-6.28125 2.37671,-2.14844 4.63434,-4.33789 6.78125,-6.59375 2.14691,-2.25586 4.19629,-4.5625 6.125,-6.90625 1.92871,-2.34375 3.74664,-4.71289 5.46875,-7.125 1.72211,-2.41211 3.3479,-4.85156 4.875,-7.3125 1.5271,-2.46094 2.93756,-4.94727 4.28125,-7.4375 1.34369,-2.49023 2.60937,-5 3.78125,-7.5 2.34375,-5 4.36768,-10.01562 6.09375,-14.9375 1.72607,-4.92188 3.14258,-9.75 4.34375,-14.4375 1.20117,-4.6875 2.16846,-9.20312 2.9375,-13.5 0.76904,-4.29688 1.35156,-8.375 1.78125,-12.125 0.42969,-3.75 0.72314,-7.20312 0.90625,-10.25 0.18311,-3.04688 0.25195,-5.6875 0.28125,-7.875 C 550.15234,602.5 550,600 550,600 l 0,-130 c 0,-1.5625 0.092,-3.12653 0.28125,-4.6875 0.18921,-1.56097 0.47754,-3.1311 0.84375,-4.6875 0.73242,-3.11279 1.82031,-6.20508 3.1875,-9.28125 1.36719,-3.07617 3.00195,-6.10986 4.90625,-9.125 1.9043,-3.01514 4.0625,-6.00781 6.40625,-8.9375 2.34375,-2.92969 4.87695,-5.80518 7.5625,-8.625 2.68555,-2.81982 5.50781,-5.5957 8.4375,-8.28125 2.92969,-2.68555 5.98633,-5.28564 9.0625,-7.8125 3.07617,-2.52686 6.1875,-4.96875 9.3125,-7.3125 3.6286,-2.72145 7.10409,-4.9985 10.65625,-7.4375 C 570,370 544.52795,410.68295 540.75,418.4375 c -0.95993,2.86909 -2.07387,5.74378 -2.9375,8.59375 -1.17188,3.86719 -2.23535,7.69189 -3.1875,11.46875 -0.95215,3.77686 -1.78516,7.50195 -2.46875,11.125 -0.68359,3.62305 -1.22754,7.15674 -1.59375,10.5625 C 530.19629,463.59326 530,466.875 530,470 l 0,130 c 0,0 0.14453,2.17188 0.125,6 -0.0195,3.82812 -0.20312,9.3125 -0.90625,15.875 -0.35156,3.28125 -0.82178,6.83398 -1.46875,10.59375 -0.64697,3.75977 -1.47461,7.74219 -2.5,11.84375 -1.02539,4.10156 -2.26318,8.31836 -3.75,12.625 -1.48682,4.30664 -3.21875,8.6875 -5.25,13.0625 -2.03125,4.375 -4.34131,8.75586 -7,13.0625 -1.32935,2.15332 -2.74823,4.29565 -4.25,6.40625 -1.50177,2.1106 -3.09668,4.16797 -4.78125,6.21875 -1.68457,2.05078 -3.466,4.08862 -5.34375,6.0625 -1.87775,1.97388 -3.8562,3.90137 -5.9375,5.78125 -2.0813,1.87988 -4.26727,3.69995 -6.5625,5.46875 -2.29523,1.7688 -4.69922,3.48438 -7.21875,5.125 -2.51953,1.64062 -5.15204,3.22339 -7.90625,4.71875 -2.75421,1.49536 -5.62573,2.91699 -8.625,4.25 -2.99927,1.33301 -6.1203,2.56519 -9.375,3.71875 -3.2547,1.15356 -6.63574,2.23047 -10.15625,3.1875 -3.52051,0.95703 -7.20331,1.78784 -11,2.53125 -3.79669,0.74341 -7.72925,1.39355 -11.8125,1.90625 -4.08325,0.5127 -8.30731,0.89136 -12.6875,1.15625 C 399.21356,739.85864 394.6875,740 390,740 c -4.6875,0 -9.21356,-0.14136 -13.59375,-0.40625 -4.38019,-0.26489 -8.60425,-0.64355 -12.6875,-1.15625 -4.08325,-0.5127 -8.01581,-1.16284 -11.8125,-1.90625 -3.79669,-0.74341 -7.47949,-1.57422 -11,-2.53125 -3.52051,-0.95703 -6.90155,-2.03394 -10.15625,-3.1875 -3.2547,-1.15356 -6.37573,-2.38574 -9.375,-3.71875 -2.99927,-1.33301 -5.87079,-2.75464 -8.625,-4.25 -2.75421,-1.49536 -5.38672,-3.07813 -7.90625,-4.71875 -2.51953,-1.64062 -4.92352,-3.3562 -7.21875,-5.125 -2.29523,-1.7688 -4.4812,-3.58887 -6.5625,-5.46875 -2.0813,-1.87988 -4.05975,-3.80737 -5.9375,-5.78125 -1.87775,-1.97388 -3.65918,-4.01172 -5.34375,-6.0625 -1.68457,-2.05078 -3.27948,-4.10815 -4.78125,-6.21875 -1.50177,-2.1106 -2.92065,-4.25293 -4.25,-6.40625 -2.65869,-4.30664 -4.96875,-8.6875 -7,-13.0625 -2.03125,-4.375 -3.76318,-8.75586 -5.25,-13.0625 -1.48682,-4.30664 -2.72461,-8.52344 -3.75,-12.625 -1.02539,-4.10156 -1.85303,-8.08398 -2.5,-11.84375 -0.64697,-3.75977 -1.11719,-7.3125 -1.46875,-10.59375 -0.70313,-6.5625 -0.88672,-12.04688 -0.90625,-15.875 -0.0195,-3.82812 0.125,-6 0.125,-6 l 0,-130 c 0,-3.125 -0.19629,-6.40674 -0.5625,-9.8125 -0.36621,-3.40576 -0.91016,-6.93945 -1.59375,-10.5625 -0.68359,-3.62305 -1.5166,-7.34814 -2.46875,-11.125 -0.95215,-3.77686 -2.01562,-7.60156 -3.1875,-11.46875 -0.86363,-2.84997 -1.97757,-5.72466 -2.9375,-8.59375 z"
       id="path4208"
       inkscape:connector-curvature="0"
       sodipodi:nodetypes="ccsssssssssscssssssssssssssssssssssssssssssssssssssssssssscssssssssssccssssscssssssssssssssssssssssssssssssssssssssssscsssssc" />
    <path
       style="fill:#00acf4;stroke:none;fill-opacity:1"
       d="m 250,470 0,-100 c 0,-3.125 -0.19629,-6.01416 -0.5625,-8.6875 -0.36621,-2.67334 -0.91016,-5.11914 -1.59375,-7.375 -0.68359,-2.25586 -1.5166,-4.31494 -2.46875,-6.1875 -0.95215,-1.87256 -2.01562,-3.57031 -3.1875,-5.09375 -0.67898,-0.88268 -1.4477,-1.60046 -2.1875,-2.375 L 240,400 l 0,20 c 0,0 -0.43933,-0.92482 -0.75,-1.5625 0.95993,2.86909 2.07387,5.74378 2.9375,8.59375 1.17188,3.86719 2.23535,7.69189 3.1875,11.46875 0.95215,3.77686 1.78516,7.50195 2.46875,11.125 0.68359,3.62305 1.22754,7.15674 1.59375,10.5625 C 249.80371,463.59326 250,466.875 250,470 z"
       id="path4225"
       inkscape:connector-curvature="0" />
    <path
       style="fill:#00acf4;stroke:none;fill-opacity:1"
       d="m 390,570 c -3.75,0 -7.41162,-0.092 -10.96875,-0.28125 -3.55713,-0.18921 -7.00586,-0.47754 -10.375,-0.84375 -3.36914,-0.36621 -6.65771,-0.81274 -9.84375,-1.34375 -3.18604,-0.53101 -6.27344,-1.16016 -9.28125,-1.84375 -3.00781,-0.68359 -5.91553,-1.42603 -8.75,-2.25 -2.83447,-0.82397 -5.58398,-1.7041 -8.25,-2.65625 -2.66602,-0.95215 -5.24756,-1.96313 -7.75,-3.03125 -2.50244,-1.06812 -4.9375,-2.20312 -7.28125,-3.375 -4.6875,-2.34375 -9.07422,-4.87695 -13.15625,-7.5625 -4.08203,-2.68555 -7.85937,-5.50781 -11.375,-8.4375 -3.51563,-2.92969 -6.76172,-5.98633 -9.75,-9.0625 C 280.23047,526.23633 277.5,523.125 275,520 c -2.5,-3.125 -4.76172,-6.23633 -6.8125,-9.3125 -2.05078,-3.07617 -3.89062,-6.13281 -5.53125,-9.0625 -1.64063,-2.92969 -3.07422,-5.75195 -4.34375,-8.4375 -1.26953,-2.68555 -2.375,-5.21875 -3.3125,-7.5625 -1.875,-4.6875 -3.125,-8.57812 -3.90625,-11.3125 C 250.3125,471.57812 250,470 250,470 l 0,130 c 0,0 -0.14453,2.17188 -0.125,6 0.0195,3.82812 0.20312,9.3125 0.90625,15.875 0.35156,3.28125 0.82178,6.83398 1.46875,10.59375 0.64697,3.75977 1.47461,7.74219 2.5,11.84375 1.02539,4.10156 2.26318,8.31836 3.75,12.625 1.48682,4.30664 3.21875,8.6875 5.25,13.0625 2.03125,4.375 4.34131,8.75586 7,13.0625 1.32935,2.15332 2.74823,4.29565 4.25,6.40625 1.50177,2.1106 3.09668,4.16797 4.78125,6.21875 1.68457,2.05078 3.466,4.08862 5.34375,6.0625 1.87775,1.97388 3.8562,3.90137 5.9375,5.78125 2.0813,1.87988 4.26727,3.69995 6.5625,5.46875 2.29523,1.7688 4.69922,3.48438 7.21875,5.125 2.51953,1.64062 5.15204,3.22339 7.90625,4.71875 2.75421,1.49536 5.62573,2.91699 8.625,4.25 2.99927,1.33301 6.1203,2.56519 9.375,3.71875 3.2547,1.15356 6.63574,2.23047 10.15625,3.1875 3.52051,0.95703 7.20331,1.78784 11,2.53125 3.79669,0.74341 7.72925,1.39355 11.8125,1.90625 4.08325,0.5127 8.30731,0.89136 12.6875,1.15625 C 380.78644,739.85864 385.3125,740 390,740 l 0,-170 z"
       id="path4241"
       inkscape:connector-curvature="0" />
    <path
       style="fill:#0038d4;stroke:none;fill-opacity:1"
       d="m 390,570 0,170 c 4.6875,0 9.21356,-0.14136 13.59375,-0.40625 4.38019,-0.26489 8.60425,-0.64355 12.6875,-1.15625 4.08325,-0.5127 8.01581,-1.16284 11.8125,-1.90625 3.79669,-0.74341 7.47949,-1.57422 11,-2.53125 3.52051,-0.95703 6.90155,-2.03394 10.15625,-3.1875 3.2547,-1.15356 6.37573,-2.38574 9.375,-3.71875 2.99927,-1.33301 5.87079,-2.75464 8.625,-4.25 2.75421,-1.49536 5.38672,-3.07813 7.90625,-4.71875 2.51953,-1.64062 4.92352,-3.3562 7.21875,-5.125 2.29523,-1.7688 4.4812,-3.58887 6.5625,-5.46875 2.0813,-1.87988 4.05975,-3.80737 5.9375,-5.78125 1.87775,-1.97388 3.65918,-4.01172 5.34375,-6.0625 1.68457,-2.05078 3.27948,-4.10815 4.78125,-6.21875 1.50177,-2.1106 2.92065,-4.25293 4.25,-6.40625 2.65869,-4.30664 4.96875,-8.6875 7,-13.0625 2.03125,-4.375 3.76318,-8.75586 5.25,-13.0625 1.48682,-4.30664 2.72461,-8.52344 3.75,-12.625 1.02539,-4.10156 1.85303,-8.08398 2.5,-11.84375 0.64697,-3.75977 1.11719,-7.3125 1.46875,-10.59375 0.70313,-6.5625 0.88672,-12.04688 0.90625,-15.875 0.0195,-3.82812 -0.125,-6 -0.125,-6 l 0,-130 c 0,0 -0.3125,1.57812 -1.09375,4.3125 -0.78125,2.73438 -2.03125,6.625 -3.90625,11.3125 -0.9375,2.34375 -2.04297,4.87695 -3.3125,7.5625 -1.26953,2.68555 -2.70312,5.50781 -4.34375,8.4375 -1.64063,2.92969 -3.48047,5.98633 -5.53125,9.0625 C 509.76172,513.76367 507.5,516.875 505,520 c -2.5,3.125 -5.23047,6.23633 -8.21875,9.3125 -2.98828,3.07617 -6.23437,6.13281 -9.75,9.0625 -3.51563,2.92969 -7.29297,5.75195 -11.375,8.4375 -4.08203,2.68555 -8.46875,5.21875 -13.15625,7.5625 -2.34375,1.17188 -4.77881,2.30688 -7.28125,3.375 -2.50244,1.06812 -5.08398,2.0791 -7.75,3.03125 -2.66602,0.95215 -5.41553,1.83228 -8.25,2.65625 -2.83447,0.82397 -5.74219,1.56641 -8.75,2.25 -3.00781,0.68359 -6.09521,1.31274 -9.28125,1.84375 -3.18604,0.53101 -6.47461,0.97754 -9.84375,1.34375 -3.36914,0.36621 -6.81787,0.65454 -10.375,0.84375 C 397.41162,569.90796 393.75,570 390,570 z"
       id="path4223"
       inkscape:connector-curvature="0" />
    <path
       style="fill:#0038d4;stroke:none;fill-opacity:1"
       d="m 540,340.28125 c -0.7398,0.77454 -1.50852,1.49232 -2.1875,2.375 -1.17188,1.52344 -2.23535,3.22119 -3.1875,5.09375 -0.95215,1.87256 -1.78516,3.93164 -2.46875,6.1875 -0.68359,2.25586 -1.22754,4.70166 -1.59375,7.375 C 530.19629,363.98584 530,366.875 530,370 l 0,100 c 0,-3.125 0.19629,-6.40674 0.5625,-9.8125 0.36621,-3.40576 0.91016,-6.93945 1.59375,-10.5625 0.68359,-3.62305 1.5166,-7.34814 2.46875,-11.125 0.95215,-3.77686 2.01562,-7.60156 3.1875,-11.46875 0.86363,-2.84997 1.97757,-5.72466 2.9375,-8.59375 C 540.43933,419.07518 540,420 540,420 l 0,-20 0,-59.71875 z"
       id="path4221"
       inkscape:connector-curvature="0" />
    <path
       style="fill:#6cdcfc;stroke:none;fill-opacity:1"
       d="M 340,563.1875 340,300 c 0,-27.61424 -22.38576,-50 -50,-50 -27.61424,0 -50,22.38576 -50,50 l 0,40.28125 c 0.7398,0.77454 1.50852,1.49232 2.1875,2.375 1.17188,1.52344 2.23535,3.22119 3.1875,5.09375 0.95215,1.87256 1.78516,3.93164 2.46875,6.1875 0.68359,2.25586 1.22754,4.70166 1.59375,7.375 C 249.80371,363.98584 250,366.875 250,370 l 0,100 c 0,0 0.3125,1.57812 1.09375,4.3125 0.78125,2.73438 2.03125,6.625 3.90625,11.3125 0.9375,2.34375 2.04297,4.87695 3.3125,7.5625 1.26953,2.68555 2.70312,5.50781 4.34375,8.4375 1.64063,2.92969 3.48047,5.98633 5.53125,9.0625 2.05078,3.07617 4.3125,6.1875 6.8125,9.3125 2.5,3.125 5.23047,6.23633 8.21875,9.3125 2.98828,3.07617 6.23437,6.13281 9.75,9.0625 3.51563,2.92969 7.29297,5.75195 11.375,8.4375 4.08203,2.68555 8.46875,5.21875 13.15625,7.5625 2.34375,1.17188 4.77881,2.30688 7.28125,3.375 2.50244,1.06812 5.08398,2.0791 7.75,3.03125 2.4137,0.86204 4.91709,1.65051 7.46875,2.40625 z"
       id="path4234"
       inkscape:connector-curvature="0" />
    <path
       style="fill:#6cdcfc;stroke:none;fill-opacity:1"
       d="m 440,300 0,263.1875 c 2.55166,-0.75574 5.05505,-1.54421 7.46875,-2.40625 2.66602,-0.95215 5.24756,-1.96313 7.75,-3.03125 2.50244,-1.06812 4.9375,-2.20312 7.28125,-3.375 4.6875,-2.34375 9.07422,-4.87695 13.15625,-7.5625 4.08203,-2.68555 7.85937,-5.50781 11.375,-8.4375 3.51563,-2.92969 6.76172,-5.98633 9.75,-9.0625 C 499.76953,526.23633 502.5,523.125 505,520 c 2.5,-3.125 4.76172,-6.23633 6.8125,-9.3125 2.05078,-3.07617 3.89062,-6.13281 5.53125,-9.0625 1.64063,-2.92969 3.07422,-5.75195 4.34375,-8.4375 1.26953,-2.68555 2.375,-5.21875 3.3125,-7.5625 1.875,-4.6875 3.125,-8.57812 3.90625,-11.3125 C 529.6875,471.57812 530,470 530,470 l 0,-100 c 0,-3.125 0.19629,-6.01416 0.5625,-8.6875 0.36621,-2.67334 0.91016,-5.11914 1.59375,-7.375 0.68359,-2.25586 1.5166,-4.31494 2.46875,-6.1875 0.95215,-1.87256 2.01562,-3.57031 3.1875,-5.09375 0.67898,-0.88268 1.4477,-1.60046 2.1875,-2.375 L 540,300 c 0,-27.61424 -22.38576,-50 -50,-50 -27.61424,0 -50,22.38576 -50,50 z"
       id="path4232"
       inkscape:connector-curvature="0" />
    <path
       style="fill:#0080e8;stroke:none;fill-opacity:1"
       d="m 340,240 0,60 0,263.1875 c 0.26674,0.079 0.51299,0.17202 0.78125,0.25 2.83447,0.82397 5.74219,1.56641 8.75,2.25 3.00781,0.68359 6.09521,1.31274 9.28125,1.84375 3.18604,0.53101 6.47461,0.97754 9.84375,1.34375 3.36914,0.36621 6.81787,0.65454 10.375,0.84375 C 382.58838,569.90796 386.25,570 390,570 c 3.75,0 7.41162,-0.092 10.96875,-0.28125 3.55713,-0.18921 7.00586,-0.47754 10.375,-0.84375 3.36914,-0.36621 6.65771,-0.81274 9.84375,-1.34375 3.18604,-0.53101 6.27344,-1.16016 9.28125,-1.84375 3.00781,-0.68359 5.91553,-1.42603 8.75,-2.25 0.26826,-0.078 0.51451,-0.171 0.78125,-0.25 L 440,300 l 0,-60 c 0,-27.61424 -22.38576,-50 -50,-50 -27.61424,0 -50,22.38576 -50,50 z"
       id="path4146"
       inkscape:connector-curvature="0" />
    <path
       style="fill:#0038d4;stroke:none;fill-opacity:1"
       d="m 628.53125,412.8125 c -1.34062,0.88376 -2.43854,1.50267 -3.84375,2.46875 C 620,418.50391 615,422.1875 610,426.25 c -2.5,2.03125 -5.00781,4.15576 -7.46875,6.375 -2.46094,2.21924 -4.875,4.54492 -7.21875,6.9375 -2.34375,2.39258 -4.60156,4.85498 -6.75,7.40625 -2.14844,2.55127 -4.1875,5.17969 -6.0625,7.875 -1.875,2.69531 -3.60156,5.45654 -5.125,8.28125 -1.52344,2.82471 -2.84375,5.7168 -3.9375,8.65625 -1.09375,2.93945 -1.94531,5.9292 -2.53125,8.96875 C 570.32031,483.78955 570,486.875 570,490 l 0,130 c 0,0 -0.14453,2.5 -0.75,6.875 -0.30273,2.1875 -0.71729,4.82812 -1.28125,7.875 -0.56396,3.04688 -1.28906,6.5 -2.1875,10.25 -0.89844,3.75 -1.9751,7.82812 -3.28125,12.125 -1.30615,4.29688 -2.83789,8.8125 -4.625,13.5 -1.78711,4.6875 -3.84619,9.51562 -6.1875,14.4375 -2.34131,4.92188 -4.96875,9.9375 -7.9375,14.9375 -2.96875,5 -6.26807,10.01562 -9.9375,14.9375 -1.83472,2.46094 -3.75763,4.90039 -5.78125,7.3125 -2.02362,2.41211 -4.15332,4.78125 -6.375,7.125 -2.22168,2.34375 -4.53986,4.65039 -6.96875,6.90625 -2.42889,2.25586 -4.97974,4.44531 -7.625,6.59375 -2.64526,2.14844 -5.37921,4.25977 -8.25,6.28125 -2.87079,2.02148 -5.86328,3.96875 -8.96875,5.84375 -3.10547,1.875 -6.3382,3.66602 -9.6875,5.375 -3.3493,1.70898 -6.80396,3.35156 -10.40625,4.875 -3.60229,1.52344 -7.35431,2.93164 -11.21875,4.25 -3.86444,1.31836 -7.86426,2.53125 -12,3.625 -4.13574,1.09375 -8.3963,2.05664 -12.8125,2.90625 -4.4162,0.84961 -8.98169,1.57031 -13.6875,2.15625 -4.70581,0.58594 -9.55792,1.04102 -14.5625,1.34375 C 400.46417,779.83398 395.3125,780 390,780 c -5.3125,0 -10.46417,-0.16602 -15.46875,-0.46875 -5.00458,-0.30273 -9.85669,-0.75781 -14.5625,-1.34375 -4.70581,-0.58594 -9.2713,-1.30664 -13.6875,-2.15625 -4.4162,-0.84961 -8.67676,-1.8125 -12.8125,-2.90625 -4.13574,-1.09375 -8.13556,-2.30664 -12,-3.625 -3.86444,-1.31836 -7.61646,-2.72656 -11.21875,-4.25 -3.60229,-1.52344 -7.05695,-3.16602 -10.40625,-4.875 -3.3493,-1.70898 -6.58203,-3.5 -9.6875,-5.375 -3.10547,-1.875 -6.09796,-3.82227 -8.96875,-5.84375 -2.87079,-2.02148 -5.60474,-4.13281 -8.25,-6.28125 -2.64526,-2.14844 -5.19611,-4.33789 -7.625,-6.59375 -2.42889,-2.25586 -4.74707,-4.5625 -6.96875,-6.90625 -2.22168,-2.34375 -4.35138,-4.71289 -6.375,-7.125 -2.02362,-2.41211 -3.94653,-4.85156 -5.78125,-7.3125 C 242.51807,710.01562 239.21875,705 236.25,700 c -2.96875,-5 -5.59619,-10.01562 -7.9375,-14.9375 -2.34131,-4.92188 -4.40039,-9.75 -6.1875,-14.4375 -1.78711,-4.6875 -3.31885,-9.20312 -4.625,-13.5 -1.30615,-4.29688 -2.38281,-8.375 -3.28125,-12.125 -0.89844,-3.75 -1.62354,-7.20312 -2.1875,-10.25 -0.56396,-3.04688 -0.97852,-5.6875 -1.28125,-7.875 C 210.14453,622.5 210,620 210,620 l 0,-130 c 0,-3.125 -0.32031,-6.21045 -0.90625,-9.25 -0.58594,-3.03955 -1.4375,-6.0293 -2.53125,-8.96875 -1.09375,-2.93945 -2.41406,-5.83154 -3.9375,-8.65625 -1.52344,-2.82471 -3.25,-5.58594 -5.125,-8.28125 -1.875,-2.69531 -3.91406,-5.32373 -6.0625,-7.875 -2.14844,-2.55127 -4.40625,-5.01367 -6.75,-7.40625 -2.34375,-2.39258 -4.75781,-4.71826 -7.21875,-6.9375 C 175.00781,430.40576 172.5,428.28125 170,426.25 c -5,-4.0625 -10,-7.74609 -14.6875,-10.96875 -1.40521,-0.96608 -2.50313,-1.58499 -3.84375,-2.46875 -3.73892,4.98469 -7.554,10.66291 -11.46875,17.1875 0,0 50,20 50,70 l 0,90 c 0,0 -10,210 200,210 210,0 200,-210 200,-210 l 0,-90 c 0,-50 50,-70 50,-70 -3.91475,-6.52459 -7.72983,-12.20281 -11.46875,-17.1875 z"
       id="path4155"
       inkscape:connector-curvature="0" />
    <path
       sodipodi:nodetypes="ccccccccc"
       inkscape:connector-curvature="0"
       id="path4107"
       d="m 450,630 c 0,0 115,15 15,-60 100,-75 -15,-60 -15,-60 l -60,-50 -60,50 c 0,0 -115,-15 -15,60 -100,75 15,60 15,60 l 60,50 z"
       style="fill:#ffffff;stroke:none" />
    <path
       style="fill:#6cdcfc;stroke:none;fill-opacity:1"
       d="M 390,470 327.5,570 390,670 452.5,570 390,470 z m 0,20 50,80 -50,80 -50,-80 50,-80 z"
       id="path3906"
       inkscape:connector-curvature="0" />
    <g
       style="stroke:none;fill:#ffffff"
       id="g4005"
       transform="translate(0,-1.09375)">
      <path
         inkscape:connector-curvature="0"
         id="path3977"
         d="m 290,276.09375 c -11.192,0 -20.25,9.058 -20.25,20.25 0,10.07707 7.33396,18.43455 16.96875,20 -9.63529,1.56503 -16.96875,9.92258 -16.96875,20 0,10.07707 7.33396,18.43455 16.96875,20 -9.63529,1.56503 -16.96875,9.92258 -16.96875,20 0,11.192 9.058,20.28125 20.25,20.28125 11.192,0 20.25,-9.08925 20.25,-20.28125 0,-10.07742 -7.33346,-18.43497 -16.96875,-20 9.63479,-1.56545 16.96875,-9.92293 16.96875,-20 0,-10.07742 -7.33346,-18.43497 -16.96875,-20 9.63479,-1.56545 16.96875,-9.92293 16.96875,-20 0,-11.192 -9.058,-20.25 -20.25,-20.25 z m 0,5.25 c 8.29037,0 15,6.70963 15,15 0,8.29037 -6.70963,15.03125 -15,15.03125 -8.29037,0 -15,-6.74088 -15,-15.03125 0,-8.29037 6.70963,-15 15,-15 z m 0,40 c 8.29037,0 15,6.70963 15,15 0,8.29037 -6.70963,15.03125 -15,15.03125 -8.29037,0 -15,-6.74088 -15,-15.03125 0,-8.29037 6.70963,-15 15,-15 z m 0,40 c 8.29037,0 15,6.70963 15,15 0,8.29037 -6.70963,15.03125 -15,15.03125 -8.29037,0 -15,-6.74088 -15,-15.03125 0,-8.29037 6.70963,-15 15,-15 z"
         style="fill:#ffffff;stroke:none" />
    </g>
    <path
       sodipodi:type="arc"
       style="fill:#00acf4;stroke:none;fill-opacity:1"
       id="path3840"
       sodipodi:cx="290"
       sodipodi:cy="280"
       sodipodi:rx="13.646409"
       sodipodi:ry="13.646409"
       d="m 303.64641,280 c 0,7.5367 -6.10971,13.64641 -13.64641,13.64641 -7.5367,0 -13.64641,-6.10971 -13.64641,-13.64641 0,-7.5367 6.10971,-13.64641 13.64641,-13.64641 7.5367,0 13.64641,6.10971 13.64641,13.64641 z"
       transform="translate(0,15.259841)" />
    <path
       transform="translate(0,55.259841)"
       d="m 303.64641,280 c 0,7.5367 -6.10971,13.64641 -13.64641,13.64641 -7.5367,0 -13.64641,-6.10971 -13.64641,-13.64641 0,-7.5367 6.10971,-13.64641 13.64641,-13.64641 7.5367,0 13.64641,6.10971 13.64641,13.64641 z"
       sodipodi:ry="13.646409"
       sodipodi:rx="13.646409"
       sodipodi:cy="280"
       sodipodi:cx="290"
       id="path3842"
       style="fill:#00acf4;stroke:none;fill-opacity:1"
       sodipodi:type="arc" />
    <path
       sodipodi:type="arc"
       style="fill:#00acf4;stroke:none;fill-opacity:1"
       id="path3844"
       sodipodi:cx="290"
       sodipodi:cy="280"
       sodipodi:rx="13.646409"
       sodipodi:ry="13.646409"
       d="m 303.64641,280 c 0,7.5367 -6.10971,13.64641 -13.64641,13.64641 -7.5367,0 -13.64641,-6.10971 -13.64641,-13.64641 0,-7.5367 6.10971,-13.64641 13.64641,-13.64641 7.5367,0 13.64641,6.10971 13.64641,13.64641 z"
       transform="translate(0,95.259841)" />
    <path
       inkscape:connector-curvature="0"
       style="fill:#ffffff;stroke:#ffffff;fill-opacity:1;stroke-width:1;stroke-miterlimit:4;stroke-dasharray:none;stroke-linejoin:round;stroke-linecap:round"
       d="M 362.9375,376.125 376.46875,399.5625 390,423 l 13.53125,-23.4375 13.53125,-23.4375 -27.0625,0 -27.0625,0 z m 5.40625,3.1875 21.65625,0 21.65625,0 -10.84375,18.75 -10.8125,18.75 -10.8125,-18.75 -10.84375,-18.75 z"
       id="path3944" />
    <path
       inkscape:connector-curvature="0"
       style="fill:#ffffff;stroke:#ffffff;fill-opacity:1;stroke-width:1;stroke-miterlimit:4;stroke-dasharray:none;stroke-linejoin:round;stroke-linecap:round"
       d="m 390,360 -13.53125,23.4375 -13.53125,23.4375 27.0625,0 27.0625,0 L 403.53125,383.4375 390,360 z m 0,6.1875 10.8125,18.75 10.84375,18.75 -21.65625,0 -21.65625,0 10.84375,-18.75 10.8125,-18.75 z"
       id="path3954" />
    <g
       style="stroke:none;fill:#ffffff"
       id="g4017"
       transform="translate(100,-61.09375)">
      <path
         style="fill:#ffffff;stroke:none"
         d="m 290,276.09375 c -11.192,0 -20.25,9.058 -20.25,20.25 0,10.07707 7.33396,18.43455 16.96875,20 -9.63529,1.56503 -16.96875,9.92258 -16.96875,20 0,10.07707 7.33396,18.43455 16.96875,20 -9.63529,1.56503 -16.96875,9.92258 -16.96875,20 0,11.192 9.058,20.28125 20.25,20.28125 11.192,0 20.25,-9.08925 20.25,-20.28125 0,-10.07742 -7.33346,-18.43497 -16.96875,-20 9.63479,-1.56545 16.96875,-9.92293 16.96875,-20 0,-10.07742 -7.33346,-18.43497 -16.96875,-20 9.63479,-1.56545 16.96875,-9.92293 16.96875,-20 0,-11.192 -9.058,-20.25 -20.25,-20.25 z m 0,5.25 c 8.29037,0 15,6.70963 15,15 0,8.29037 -6.70963,15.03125 -15,15.03125 -8.29037,0 -15,-6.74088 -15,-15.03125 0,-8.29037 6.70963,-15 15,-15 z m 0,40 c 8.29037,0 15,6.70963 15,15 0,8.29037 -6.70963,15.03125 -15,15.03125 -8.29037,0 -15,-6.74088 -15,-15.03125 0,-8.29037 6.70963,-15 15,-15 z m 0,40 c 8.29037,0 15,6.70963 15,15 0,8.29037 -6.70963,15.03125 -15,15.03125 -8.29037,0 -15,-6.74088 -15,-15.03125 0,-8.29037 6.70963,-15 15,-15 z"
         id="path4019"
         inkscape:connector-curvature="0" />
    </g>
    <path
       transform="translate(100,-44.740159)"
       d="m 303.64641,280 c 0,7.5367 -6.10971,13.64641 -13.64641,13.64641 -7.5367,0 -13.64641,-6.10971 -13.64641,-13.64641 0,-7.5367 6.10971,-13.64641 13.64641,-13.64641 7.5367,0 13.64641,6.10971 13.64641,13.64641 z"
       sodipodi:ry="13.646409"
       sodipodi:rx="13.646409"
       sodipodi:cy="280"
       sodipodi:cx="290"
       id="path4021"
       style="fill:#00acf4;stroke:none;fill-opacity:1"
       sodipodi:type="arc" />
    <path
       sodipodi:type="arc"
       style="fill:#00acf4;stroke:none;fill-opacity:1"
       id="path4023"
       sodipodi:cx="290"
       sodipodi:cy="280"
       sodipodi:rx="13.646409"
       sodipodi:ry="13.646409"
       d="m 303.64641,280 c 0,7.5367 -6.10971,13.64641 -13.64641,13.64641 -7.5367,0 -13.64641,-6.10971 -13.64641,-13.64641 0,-7.5367 6.10971,-13.64641 13.64641,-13.64641 7.5367,0 13.64641,6.10971 13.64641,13.64641 z"
       transform="translate(100,-4.740159)" />
    <path
       transform="translate(100,35.259841)"
       d="m 303.64641,280 c 0,7.5367 -6.10971,13.64641 -13.64641,13.64641 -7.5367,0 -13.64641,-6.10971 -13.64641,-13.64641 0,-7.5367 6.10971,-13.64641 13.64641,-13.64641 7.5367,0 13.64641,6.10971 13.64641,13.64641 z"
       sodipodi:ry="13.646409"
       sodipodi:rx="13.646409"
       sodipodi:cy="280"
       sodipodi:cx="290"
       id="path4025"
       style="fill:#00acf4;stroke:none;fill-opacity:1"
       sodipodi:type="arc" />
    <g
       style="stroke:none;fill:#ffffff"
       id="g4029"
       transform="translate(200,-1.09375)">
      <path
         inkscape:connector-curvature="0"
         id="path4031"
         d="m 290,276.09375 c -11.192,0 -20.25,9.058 -20.25,20.25 0,10.07707 7.33396,18.43455 16.96875,20 -9.63529,1.56503 -16.96875,9.92258 -16.96875,20 0,10.07707 7.33396,18.43455 16.96875,20 -9.63529,1.56503 -16.96875,9.92258 -16.96875,20 0,11.192 9.058,20.28125 20.25,20.28125 11.192,0 20.25,-9.08925 20.25,-20.28125 0,-10.07742 -7.33346,-18.43497 -16.96875,-20 9.63479,-1.56545 16.96875,-9.92293 16.96875,-20 0,-10.07742 -7.33346,-18.43497 -16.96875,-20 9.63479,-1.56545 16.96875,-9.92293 16.96875,-20 0,-11.192 -9.058,-20.25 -20.25,-20.25 z m 0,5.25 c 8.29037,0 15,6.70963 15,15 0,8.29037 -6.70963,15.03125 -15,15.03125 -8.29037,0 -15,-6.74088 -15,-15.03125 0,-8.29037 6.70963,-15 15,-15 z m 0,40 c 8.29037,0 15,6.70963 15,15 0,8.29037 -6.70963,15.03125 -15,15.03125 -8.29037,0 -15,-6.74088 -15,-15.03125 0,-8.29037 6.70963,-15 15,-15 z m 0,40 c 8.29037,0 15,6.70963 15,15 0,8.29037 -6.70963,15.03125 -15,15.03125 -8.29037,0 -15,-6.74088 -15,-15.03125 0,-8.29037 6.70963,-15 15,-15 z"
         style="fill:#ffffff;stroke:none" />
    </g>
    <path
       sodipodi:type="arc"
       style="fill:#00acf4;stroke:none;fill-opacity:1"
       id="path4033"
       sodipodi:cx="290"
       sodipodi:cy="280"
       sodipodi:rx="13.646409"
       sodipodi:ry="13.646409"
       d="m 303.64641,280 c 0,7.5367 -6.10971,13.64641 -13.64641,13.64641 -7.5367,0 -13.64641,-6.10971 -13.64641,-13.64641 0,-7.5367 6.10971,-13.64641 13.64641,-13.64641 7.5367,0 13.64641,6.10971 13.64641,13.64641 z"
       transform="translate(200,15.259841)" />
    <path
       transform="translate(200,55.259841)"
       d="m 303.64641,280 c 0,7.5367 -6.10971,13.64641 -13.64641,13.64641 -7.5367,0 -13.64641,-6.10971 -13.64641,-13.64641 0,-7.5367 6.10971,-13.64641 13.64641,-13.64641 7.5367,0 13.64641,6.10971 13.64641,13.64641 z"
       sodipodi:ry="13.646409"
       sodipodi:rx="13.646409"
       sodipodi:cy="280"
       sodipodi:cx="290"
       id="path4035"
       style="fill:#00acf4;stroke:none;fill-opacity:1"
       sodipodi:type="arc" />
    <path
       sodipodi:type="arc"
       style="fill:#00acf4;stroke:none;fill-opacity:1"
       id="path4037"
       sodipodi:cx="290"
       sodipodi:cy="280"
       sodipodi:rx="13.646409"
       sodipodi:ry="13.646409"
       d="m 303.64641,280 c 0,7.5367 -6.10971,13.64641 -13.64641,13.64641 -7.5367,0 -13.64641,-6.10971 -13.64641,-13.64641 0,-7.5367 6.10971,-13.64641 13.64641,-13.64641 7.5367,0 13.64641,6.10971 13.64641,13.64641 z"
       transform="translate(200,95.259841)" />
    <path
       inkscape:connector-curvature="0"
       style="fill:#1e5f96;stroke:none;fill-opacity:1"
       d="m 390,540 c -22.72992,0 -42.13483,12.43625 -50,30 7.86517,-11.70917 27.27008,-20 50,-20 22.72992,0 42.13483,8.29083 50,20 -7.86517,-17.56375 -27.27008,-30 -50,-30 z m 50,30 c -7.86517,11.70917 -27.27008,20 -50,20 -22.72992,0 -42.13483,-8.29083 -50,-20 7.86517,17.56375 27.27008,30 50,30 22.72992,0 42.13483,-12.43625 50,-30 z"
       id="path4077" />
    <path
       sodipodi:type="arc"
       style="fill:#00acf4;stroke:none;fill-opacity:1"
       id="path3908"
       sodipodi:cx="375"
       sodipodi:cy="495"
       sodipodi:rx="15"
       sodipodi:ry="15"
       d="m 390,495 c 0,8.28427 -6.71573,15 -15,15 -8.28427,0 -15,-6.71573 -15,-15 0,-8.28427 6.71573,-15 15,-15 8.28427,0 15,6.71573 15,15 z"
       transform="matrix(1.3333333,0,0,1.3333333,-109.99999,-89.999983)" />
    <g
       id="g3098"
       style="fill:#ace8fc;fill-opacity:1">
      <path
         sodipodi:nodetypes="cccc"
         inkscape:connector-curvature="0"
         id="path4097"
         d="m 390,670 62.5,-100 c 0,0 97.5,65 -7.5,50 z"
         style="fill:#ace8fc;stroke:none;fill-opacity:1" />
      <path
         style="fill:#ace8fc;stroke:none;fill-opacity:1"
         d="M 390,670 327.5,570 c 0,0 -97.5,65 7.5,50 z"
         id="path4099"
         inkscape:connector-curvature="0"
         sodipodi:nodetypes="cccc" />
      <path
         style="fill:#ace8fc;stroke:none;fill-opacity:1"
         d="m 390,470 62.5,100 c 0,0 97.5,-65 -7.5,-50 z"
         id="path4101"
         inkscape:connector-curvature="0"
         sodipodi:nodetypes="cccc" />
      <path
         sodipodi:nodetypes="cccc"
         inkscape:connector-curvature="0"
         id="path4103"
         d="m 390,470 -62.5,100 c 0,0 -97.5,-65 7.5,-50 z"
         style="fill:#ace8fc;stroke:none;fill-opacity:1" />
    </g>
    <rect
       style="fill:#be3755;fill-opacity:1;stroke:none"
       id="rect3524"
       width="10"
       height="10"
       x="130"
       y="165" />
    <rect
       y="150"
       x="130"
       height="10"
       width="10"
       id="rect3530"
       style="fill:#c34664;fill-opacity:1;stroke:none" />
    <rect
       y="150"
       x="145"
       height="10"
       width="10"
       id="rect3536"
       style="fill:#784169;fill-opacity:1;stroke:none" />
    <rect
       style="fill:#662c55;fill-opacity:1;stroke:none"
       id="rect3538"
       width="10"
       height="10"
       x="145"
       y="165" />
    <rect
       style="fill:#326e9b;fill-opacity:1;stroke:none"
       id="rect3548"
       width="10"
       height="10"
       x="160"
       y="150" />
    <rect
       y="165"
       x="160"
       height="10"
       width="10"
       id="rect3550"
       style="fill:#1e5f96;fill-opacity:1;stroke:none" />
    <rect
       style="fill:#ffffff;stroke:#000000;stroke-width:1;stroke-miterlimit:4;stroke-opacity:1;stroke-dasharray:none"
       id="rect3562"
       width="10"
       height="10"
       x="175"
       y="165" />
    <rect
       y="165"
       x="205"
       height="10"
       width="10"
       id="rect3564"
       style="fill:#808080;stroke:none" />
    <rect
       style="fill:#000000;stroke:none"
       id="rect3566"
       width="10"
       height="10"
       x="190"
       y="165" />
    <rect
       y="150"
       x="175"
       height="10"
       width="10"
       id="rect3104"
       style="fill:#00b8f8;fill-opacity:1;stroke:none" />
    <rect
       y="150"
       x="190"
       height="10"
       width="10"
       id="rect3091"
       style="fill:#bee7f1;stroke:none;stroke-width:1;stroke-miterlimit:4;stroke-opacity:1;stroke-dasharray:none;fill-opacity:1" />
    <rect
       style="fill:#ace8fc;fill-opacity:1;stroke:none"
       id="rect3159"
       width="10"
       height="10"
       x="-590"
       y="165"
       transform="scale(-1,1)" />
    <rect
       style="fill:#0080e8;fill-opacity:1;stroke:none"
       id="rect3161"
       width="10"
       height="10"
       x="-650"
       y="165"
       transform="scale(-1,1)" />
    <rect
       y="165"
       x="-635"
       height="10"
       width="10"
       id="rect3165"
       style="fill:#0038d4;fill-opacity:1;stroke:none"
       transform="scale(-1,1)" />
    <rect
       y="165"
       x="-575"
       height="10"
       width="10"
       id="rect3169"
       style="fill:#ffffff;stroke:#000000;stroke-width:1;stroke-miterlimit:4;stroke-opacity:1;stroke-dasharray:none"
       transform="scale(-1,1)" />
    <rect
       style="fill:#808080;stroke:none"
       id="rect3171"
       width="10"
       height="10"
       x="-545"
       y="165"
       transform="scale(-1,1)" />
    <rect
       y="165"
       x="-560"
       height="10"
       width="10"
       id="rect3173"
       style="fill:#000000;stroke:none"
       transform="scale(-1,1)" />
    <rect
       style="fill:#00acf4;fill-opacity:1;stroke:none"
       id="rect3175"
       width="10"
       height="10"
       x="-620"
       y="165"
       transform="scale(-1,1)" />
    <rect
       style="fill:#6cdcfc;fill-opacity:1;stroke:none"
       id="rect3177"
       width="10"
       height="10"
       x="-605"
       y="165"
       transform="scale(-1,1)" />
  </g>
</svg>
