<?xml version="1.0" encoding="UTF-8" standalone="no"?>
<!-- Created with Inkscape (http://www.inkscape.org/) -->

<svg
   xmlns:dc="http://purl.org/dc/elements/1.1/"
   xmlns:cc="http://creativecommons.org/ns#"
   xmlns:rdf="http://www.w3.org/1999/02/22-rdf-syntax-ns#"
   xmlns:svg="http://www.w3.org/2000/svg"
   xmlns="http://www.w3.org/2000/svg"
   xmlns:xlink="http://www.w3.org/1999/xlink"
   xmlns:sodipodi="http://sodipodi.sourceforge.net/DTD/sodipodi-0.dtd"
   xmlns:inkscape="http://www.inkscape.org/namespaces/inkscape"
   width="512"
   height="512"
   id="svg4082"
   version="1.1"
   inkscape:version="0.48.4 r9939"
   sodipodi:docname="cabinet-2.svg"
   inkscape:export-filename="/home/nathanel/Pictures/cabinet/cabinet-36.png"
   inkscape:export-xdpi="6.3299999"
   inkscape:export-ydpi="6.3299999">
  <defs
     id="defs4084">
    <linearGradient
       id="linearGradient4836">
      <stop
         style="stop-color:#57687c;stop-opacity:1;"
         offset="0"
         id="stop4838" />
      <stop
         style="stop-color:#3f536b;stop-opacity:1;"
         offset="1"
         id="stop4840" />
    </linearGradient>
    <linearGradient
       inkscape:collect="always"
       xlink:href="#linearGradient4836"
       id="linearGradient4842"
       x1="240"
       y1="1044.3622"
       x2="240"
       y2="284.36218"
       gradientUnits="userSpaceOnUse" />
  </defs>
  <sodipodi:namedview
     id="base"
     pagecolor="#ffffff"
     bordercolor="#666666"
     borderopacity="1.0"
     inkscape:pageopacity="0.0"
     inkscape:pageshadow="2"
     inkscape:zoom="1.3378906"
     inkscape:cx="256"
     inkscape:cy="256"
     inkscape:document-units="px"
     inkscape:current-layer="layer1"
     showgrid="false"
     inkscape:showpageshadow="false"
     inkscape:window-width="1600"
     inkscape:window-height="852"
     inkscape:window-x="0"
     inkscape:window-y="25"
     inkscape:window-maximized="1"
     inkscape:object-paths="true"
     inkscape:snap-intersection-paths="true"
     inkscape:object-nodes="true"
     inkscape:snap-smooth-nodes="true"
     inkscape:snap-midpoints="true"
     inkscape:snap-object-midpoints="true"
     inkscape:snap-center="true">
    <inkscape:grid
       type="xygrid"
       id="grid4090"
       empspacing="8"
       visible="true"
       enabled="true"
       snapvisiblegridlinesonly="true" />
  </sodipodi:namedview>
  <metadata
     id="metadata4087">
    <rdf:RDF>
      <cc:Work
         rdf:about="">
        <dc:format>image/svg+xml</dc:format>
        <dc:type
           rdf:resource="http://purl.org/dc/dcmitype/StillImage" />
        <dc:title></dc:title>
      </cc:Work>
    </rdf:RDF>
  </metadata>
  <g
     inkscape:label="Layer 1"
     inkscape:groupmode="layer"
     id="layer1"
     transform="translate(0,-540.36218)">
    <path
       style="fill:url(#linearGradient4842);fill-opacity:1;stroke:none"
       d="m 24,548.36217 464,0 c 8.864,0 16,7.136 16,16 l 0,464.00003 c 0,8.864 -7.136,16 -16,16 l -464,0 c -8.864,0 -16,-7.136 -16,-16 L 8,564.36217 c 0,-8.864 7.136,-16 16,-16 z"
       id="rect3053"
       inkscape:connector-curvature="0"
       sodipodi:nodetypes="sssssssss" />
    <path
       style="fill:#6986dd;fill-opacity:1;stroke:none"
       d="m 24,548.36217 c -8.864,0 -16,7.136 -16,16 l 0,120 496,0 0,-120 c 0,-8.864 -7.136,-16 -16,-16 z"
       id="rect3909"
       inkscape:connector-curvature="0"
       sodipodi:nodetypes="ssccsss" />
    <path
       style="fill:#4d4d4d;fill-opacity:1;stroke:none"
       d="m 32,708.36217 448,0 0,144.00002 -448,0 z"
       id="rect3955"
       inkscape:connector-curvature="0"
       sodipodi:nodetypes="ccccc" />
    <path
       style="fill:#cccccc;fill-opacity:1;stroke:none"
       d="m 32,708.36217 448,0 0,136.00002 -448,0 z"
       id="rect3892"
       inkscape:connector-curvature="0"
       sodipodi:nodetypes="ccccc" />
    <path
       style="fill:#ffffff;fill-opacity:1;stroke:none"
       d="m 32,708.36217 448,0 0,120.00002 -448,0 z"
       id="rect3862"
       inkscape:connector-curvature="0"
       sodipodi:nodetypes="ccccc" />
    <path
       style="fill:#999999;fill-opacity:1;stroke:none"
       d="m 440,724.36217 24,0 0,24 -24,0 z"
       id="rect3886"
       inkscape:connector-curvature="0"
       sodipodi:nodetypes="ccccc" />
    <path
       style="fill:#999999;fill-opacity:1;stroke:none"
       d="m 440,756.36217 24,0 0,24.00002 -24,0 z"
       id="rect3888"
       inkscape:connector-curvature="0"
       sodipodi:nodetypes="ccccc" />
    <path
       style="fill:#999999;fill-opacity:1;stroke:none"
       d="m 440,788.36219 24,0 0,24 -24,0 z"
       id="rect3890"
       inkscape:connector-curvature="0"
       sodipodi:nodetypes="ccccc" />
    <path
       style="fill:#4d4d4d;fill-opacity:1;stroke:none"
       d="m 32,876.36219 448,0 0,144.00001 -448,0 z"
       id="rect3957"
       inkscape:connector-curvature="0"
       sodipodi:nodetypes="ccccc" />
    <path
       style="fill:#cccccc;fill-opacity:1;stroke:none"
       d="m 32,876.36219 448,0 0,136.00001 -448,0 z"
       id="rect3927"
       inkscape:connector-curvature="0"
       sodipodi:nodetypes="ccccc" />
    <path
       style="fill:#ffffff;fill-opacity:1;stroke:none"
       d="m 32,876.36219 448,0 0,120 -448,0 z"
       id="rect3929"
       inkscape:connector-curvature="0"
       sodipodi:nodetypes="ccccc" />
    <path
       style="fill:#999999;fill-opacity:1;stroke:none"
       d="m 440,892.36219 24,0 0,24 -24,0 z"
       id="rect3933"
       inkscape:connector-curvature="0"
       sodipodi:nodetypes="ccccc" />
    <path
       style="fill:#999999;fill-opacity:1;stroke:none"
       d="m 440,924.36219 24,0 0,24 -24,0 z"
       id="rect3935"
       inkscape:connector-curvature="0"
       sodipodi:nodetypes="ccccc" />
    <path
       style="fill:#999999;fill-opacity:1;stroke:none"
       d="m 440,956.36219 24,0 0,24 -24,0 z"
       id="rect3937"
       inkscape:connector-curvature="0"
       sodipodi:nodetypes="ccccc" />
    <path
       sodipodi:nodetypes="ssccsss"
       inkscape:connector-curvature="0"
       id="path4055"
       d="m 24,572.36218 c -8.864,0 -16,7.136 -16,16 l 0,96 496,0 0,-96 c 0,-8.864 -7.136,-16 -16,-16 z"
       style="fill:#455ca7;fill-opacity:1;stroke:none" />
  </g>
</svg>
