<?xml version="1.0" encoding="utf-8"?>
<!-- Generator: Adobe Illustrator 15.0.0, SVG Export Plug-In . SVG Version: 6.00 Build 0)  -->
<!DOCTYPE svg PUBLIC "-//W3C//DTD SVG 1.1//EN" "http://www.w3.org/Graphics/SVG/1.1/DTD/svg11.dtd">
<svg version="1.1" id="Layer_1" xmlns="http://www.w3.org/2000/svg" xmlns:xlink="http://www.w3.org/1999/xlink" x="0px" y="0px"
	 width="512px" height="512px" viewBox="0 0 512 512" enable-background="new 0 0 512 512" xml:space="preserve">
<linearGradient id="SVGID_1_" gradientUnits="userSpaceOnUse" x1="255.4995" y1="8.5" x2="255.4995" y2="503.5005">
	<stop  offset="0" style="stop-color:#33B5E5"/>
	<stop  offset="0.95" style="stop-color:#145078"/>
	<stop  offset="1" style="stop-color:#146EBE"/>
</linearGradient>
<path fill="url(#SVGID_1_)" d="M464.5,8.5l39,39.5v439.5c0,8.837-6.663,16-15.5,16H24c-8.836,0-16.5-7.163-16.5-16V48l41-39.5H464.5
	z"/>
<linearGradient id="SVGID_2_" gradientUnits="userSpaceOnUse" x1="255.4995" y1="48.5" x2="255.4995" y2="480.5005">
	<stop  offset="0" style="stop-color:#33B5E5"/>
	<stop  offset="0.0953" style="stop-color:#30AEE0"/>
	<stop  offset="0.2363" style="stop-color:#299AD4"/>
	<stop  offset="0.4051" style="stop-color:#1E79BF"/>
	<stop  offset="0.4242" style="stop-color:#1C75BC"/>
	<stop  offset="1" style="stop-color:#1473BE"/>
</linearGradient>
<path fill="url(#SVGID_2_)" d="M503.5,48.5v416c0,8.836-6.663,16-15.5,16H24c-8.836,0-16.5-7.164-16.5-16v-416H503.5z"/>
<polygon points="503.5,71.5 503.5,63.5 489,63.5 23,63.5 7.5,63.5 7.5,71.5 22.5,71.5 22.5,455.5 7.5,455.5 7.5,463.5 23,463.5 
	489,463.5 503.5,463.5 503.5,455.5 488.5,455.5 488.5,71.5 "/>
<g>
	
		<linearGradient id="SVGID_3_" gradientUnits="userSpaceOnUse" x1="305.75" y1="181.5" x2="305.75" y2="293.5005" gradientTransform="matrix(1 0 0 -1 -50 373)">
		<stop  offset="0.3" style="stop-color:#D1D3D4"/>
		<stop  offset="0.6" style="stop-color:#E6E7E8"/>
		<stop  offset="0.8" style="stop-color:#F1F2F2"/>
		<stop  offset="0.8928" style="stop-color:#FBFBFB"/>
		<stop  offset="1" style="stop-color:#FFFFFF"/>
	</linearGradient>
	<path fill="url(#SVGID_3_)" d="M480,95.5l-16-16H48l-16,16l15.75,16l-16.25,16v64h448v-64l-15.75-16L480,95.5z M463.5,175.5h-56
		v-16h56V175.5z"/>
	
		<linearGradient id="SVGID_4_" gradientUnits="userSpaceOnUse" x1="305.75" y1="53.5" x2="305.75" y2="165.5" gradientTransform="matrix(1 0 0 -1 -50 373)">
		<stop  offset="0.3" style="stop-color:#D1D3D4"/>
		<stop  offset="0.6" style="stop-color:#E6E7E8"/>
		<stop  offset="0.8" style="stop-color:#F1F2F2"/>
		<stop  offset="0.8928" style="stop-color:#FBFBFB"/>
		<stop  offset="1" style="stop-color:#FFFFFF"/>
	</linearGradient>
	<path fill="url(#SVGID_4_)" d="M480,223.5l-16-16H48l-16,16l15.75,16l-16.25,16v64h448v-64l-15.75-16L480,223.5z M463.5,303.5h-56
		v-16h56V303.5z"/>
	
		<linearGradient id="SVGID_5_" gradientUnits="userSpaceOnUse" x1="305.75" y1="-74.5" x2="305.75" y2="37.5" gradientTransform="matrix(1 0 0 -1 -50 373)">
		<stop  offset="0.3" style="stop-color:#D1D3D4"/>
		<stop  offset="0.6" style="stop-color:#E6E7E8"/>
		<stop  offset="0.8" style="stop-color:#F1F2F2"/>
		<stop  offset="0.8928" style="stop-color:#FBFBFB"/>
		<stop  offset="1" style="stop-color:#FFFFFF"/>
	</linearGradient>
	<path fill="url(#SVGID_5_)" d="M480,351.5l-16-16H48l-16,16l15.75,16l-16.25,16v64h448v-64l-15.75-16L480,351.5z M463.5,431.5h-56
		v-16h56V431.5z"/>
</g>
</svg>
