<?xml version="1.0" encoding="utf-8"?>
<!-- Generator: Adobe Illustrator 15.0.0, SVG Export Plug-In . SVG Version: 6.00 Build 0)  -->
<!DOCTYPE svg PUBLIC "-//W3C//DTD SVG 1.1//EN" "http://www.w3.org/Graphics/SVG/1.1/DTD/svg11.dtd">
<svg version="1.1" id="Layer_1" xmlns="http://www.w3.org/2000/svg" xmlns:xlink="http://www.w3.org/1999/xlink" x="0px" y="0px"
	 width="512px" height="512px" viewBox="0 0 512 512" enable-background="new 0 0 512 512" xml:space="preserve">
<g>
	
		<linearGradient id="SVGID_1_" gradientUnits="userSpaceOnUse" x1="-107.5" y1="-160.5" x2="-107.5" y2="319.5005" gradientTransform="matrix(1 0 0 1 364 185)">
		<stop  offset="0" style="stop-color:#33B5E5"/>
		<stop  offset="0.038" style="stop-color:#2EA6DB"/>
		<stop  offset="0.1206" style="stop-color:#248BCA"/>
		<stop  offset="0.1939" style="stop-color:#1E7BC0"/>
		<stop  offset="0.25" style="stop-color:#1C75BC"/>
		<stop  offset="1" style="stop-color:#1473BE"/>
	</linearGradient>
	<path fill="url(#SVGID_1_)" d="M504.5,488.5c0,8.836-7.163,16-16,16h-464c-8.837,0-16-7.164-16-16v-448l16-16h464l16,16V488.5z"/>
	
		<linearGradient id="SVGID_2_" gradientUnits="userSpaceOnUse" x1="-107.5" y1="319.5" x2="-107.5" y2="-176.4995" gradientTransform="matrix(1 0 0 1 364 185)">
		<stop  offset="0" style="stop-color:#33B5E5"/>
		<stop  offset="0.038" style="stop-color:#2EA6DB"/>
		<stop  offset="0.1206" style="stop-color:#248BCA"/>
		<stop  offset="0.1939" style="stop-color:#1E7BC0"/>
		<stop  offset="0.25" style="stop-color:#1C75BC"/>
		<stop  offset="1" style="stop-color:#1473BE"/>
	</linearGradient>
	<path fill="url(#SVGID_2_)" d="M504.5,488.5c0,8.836-7.163,16-16,16h-464c-8.837,0-16-7.164-16-16v-448h240l16-32h192l16,32h32
		V488.5z"/>
</g>
<g>
	<polygon fill="#FFFFFF" points="352.5,144.5 352.5,80.5 152.5,80.5 152.5,184.5 232.5,248.5 152.5,312.5 152.5,456.5 416.5,456.5 
		416.5,144.5 	"/>
	<polygon fill="#FFFFFF" points="368.5,80.5 368.5,128.5 416.5,128.5 	"/>
	<polygon fill="#FFFFFF" points="96.5,80.5 96.5,456.5 136.5,456.5 136.5,304.5 208.5,248.5 136.5,192.5 136.5,80.5 	"/>
</g>
</svg>
