<?xml version="1.0" encoding="UTF-8" standalone="no"?>
<!-- Created with Inkscape (http://www.inkscape.org/) -->

<svg
   xmlns:dc="http://purl.org/dc/elements/1.1/"
   xmlns:cc="http://creativecommons.org/ns#"
   xmlns:rdf="http://www.w3.org/1999/02/22-rdf-syntax-ns#"
   xmlns:svg="http://www.w3.org/2000/svg"
   xmlns="http://www.w3.org/2000/svg"
   xmlns:xlink="http://www.w3.org/1999/xlink"
   xmlns:sodipodi="http://sodipodi.sourceforge.net/DTD/sodipodi-0.dtd"
   xmlns:inkscape="http://www.inkscape.org/namespaces/inkscape"
   id="svg2"
   version="1.1"
   inkscape:version="0.91 r13725"
   width="712"
   height="712"
   sodipodi:docname="logo.svg">
  <metadata
     id="metadata8">
    <rdf:RDF>
      <cc:Work
         rdf:about="">
        <dc:format>image/svg+xml</dc:format>
        <dc:type
           rdf:resource="http://purl.org/dc/dcmitype/StillImage" />
        <dc:title></dc:title>
      </cc:Work>
    </rdf:RDF>
  </metadata>
  <defs
     id="defs6">
    <linearGradient
       id="linearGradient4032">
      <stop
         style="stop-color:#1440a1;stop-opacity:1;"
         offset="0"
         id="stop4034" />
      <stop
         style="stop-color:#7bb311;stop-opacity:1;"
         offset="1"
         id="stop4036" />
    </linearGradient>
    <linearGradient
       id="linearGradient4024">
      <stop
         id="stop4026"
         offset="0"
         style="stop-color:#7bb311;stop-opacity:1;" />
      <stop
         style="stop-color:#477959;stop-opacity:0.49803922;"
         offset="0.5"
         id="stop4030" />
      <stop
         id="stop4028"
         offset="1"
         style="stop-color:#1440a1;stop-opacity:0;" />
    </linearGradient>
    <linearGradient
       inkscape:collect="always"
       xlink:href="#linearGradient4032"
       id="linearGradient4067"
       gradientUnits="userSpaceOnUse"
       x1="11.3125"
       y1="92.484375"
       x2="500.6875"
       y2="92.484375"
       gradientTransform="translate(0,100)" />
    <linearGradient
       inkscape:collect="always"
       xlink:href="#linearGradient4032"
       id="linearGradient4070"
       gradientUnits="userSpaceOnUse"
       gradientTransform="matrix(-1,0,0,-1,512,612.96875)"
       x1="11.3125"
       y1="92.484375"
       x2="500.6875"
       y2="92.484375" />
    <linearGradient
       inkscape:collect="always"
       xlink:href="#linearGradient4032"
       id="linearGradient4078"
       x1="-256"
       y1="112"
       x2="-224"
       y2="112"
       gradientUnits="userSpaceOnUse"
       gradientTransform="translate(160,144)" />
  </defs>
  <sodipodi:namedview
     pagecolor="#ffffff"
     bordercolor="#666666"
     borderopacity="1"
     objecttolerance="10"
     gridtolerance="10"
     guidetolerance="10"
     inkscape:pageopacity="0"
     inkscape:pageshadow="2"
     inkscape:window-width="1600"
     inkscape:window-height="864"
     id="namedview4"
     showgrid="true"
     inkscape:zoom="1.3496094"
     inkscape:cx="265.233"
     inkscape:cy="415.27641"
     inkscape:window-x="0"
     inkscape:window-y="0"
     inkscape:window-maximized="1"
     inkscape:current-layer="svg2"
     inkscape:showpageshadow="false"
     showguides="true"
     inkscape:guide-bbox="true"
     inkscape:object-paths="true"
     inkscape:snap-intersection-paths="true"
     inkscape:object-nodes="true"
     inkscape:snap-smooth-nodes="true"
     inkscape:snap-midpoints="true"
     fit-margin-top="0"
     fit-margin-left="0"
     fit-margin-right="0"
     fit-margin-bottom="0">
    <inkscape:grid
       type="xygrid"
       id="grid2990"
       empspacing="8"
       visible="true"
       enabled="true"
       snapvisiblegridlinesonly="true"
       originx="0"
       originy="100" />
    <sodipodi:guide
       orientation="1,0"
       position="256,620"
       id="guide3156" />
    <sodipodi:guide
       orientation="1,0"
       position="176,276"
       id="guide3195" />
    <sodipodi:guide
       orientation="0,1"
       position="-16,244"
       id="guide3199" />
    <sodipodi:guide
       orientation="0,1"
       position="400,468"
       id="guide3969" />
    <sodipodi:guide
       orientation="1,0"
       position="40,220"
       id="guide4094" />
    <sodipodi:guide
       orientation="1,0"
       position="472,284"
       id="guide4096" />
    <sodipodi:guide
       orientation="0,1"
       position="-8,356"
       id="guide4108" />
    <sodipodi:guide
       orientation="0,1"
       position="-8,332"
       id="guide4110" />
    <sodipodi:guide
       orientation="0,1"
       position="-8,380"
       id="guide4112" />
    <sodipodi:guide
       orientation="0,1"
       position="288,268"
       id="guide4126" />
    <sodipodi:guide
       orientation="0,1"
       position="1064,140"
       id="guide4128" />
    <sodipodi:guide
       orientation="0,1"
       position="1040,108"
       id="guide4130" />
    <sodipodi:guide
       orientation="1,0"
       position="207,268"
       id="guide4132" />
    <sodipodi:guide
       orientation="0,1"
       position="496,212"
       id="guide4191" />
  </sodipodi:namedview>
  <path
     id="path4044"
     d="m 256,612 c 115.84486,0 213.61414,-77.24136 244.6875,-183.03125 l -0.96875,0 C 469.43629,521.58294 382.31734,588.5 279.59375,588.5 176.87224,588.5 89.807,521.57764 59.53125,428.96875 l -48.21875,0 C 42.39005,534.75382 140.15669,612 256,612 Z"
     style="fill:url(#linearGradient4070);fill-opacity:1;stroke:none"
     inkscape:connector-curvature="0" />
  <path
     inkscape:connector-curvature="0"
     style="fill:url(#linearGradient4067);fill-opacity:1;stroke:none"
     d="M 256,100.96875 C 140.15514,100.96875 42.385859,178.21011 11.3125,284 l 0.96875,0 c 30.282456,-92.61419 117.40141,-159.53125 220.125,-159.53125 102.72151,0 189.78675,66.92236 220.0625,159.53125 l 48.21875,0 C 469.60995,178.21493 371.84331,100.96875 256,100.96875 Z"
     id="path3998" />
  <path
     style="fill:#1440a1;fill-opacity:1;stroke:none"
     d="m 192,268 -144,176 56,0 52,-64 27.40625,0 L 158.8125,444 208,444 273.1875,268 192,268 Z m 113,0 -65,176 80,0 144,-176 -56,0 L 304,396 353.1875,268 305,268 Z m -97,48 -15.375,40 -17.125,0 32.5,-40 z"
     id="rect4102"
     inkscape:connector-curvature="0" />
  <g
     id="g3914"
     transform="matrix(1.3511933,0,0,1.3511933,11.144301,29.129416)"
     style="stroke:#000000;stroke-opacity:1">
    <path
       d="m 173.02597,324.80225 -21.07336,0 c -3.50122,0 -6.93638,2.84061 -6.93638,6.37486 l 0,1.18909 c 0,3.79849 3.10486,6.34183 6.93638,6.34183 l 14.07093,0.033 c 1.61849,0 2.44424,0.69364 2.44424,2.11394 l 0,1.22213 c 0,1.18909 -1.25515,2.18 -2.44424,2.18 l -21.07337,0 0,4.22789 21.07337,0 c 3.46819,0 6.90334,-2.77455 6.90334,-6.40789 l 0,-1.22213 c 0,-3.73243 -3.10485,-6.34183 -6.90334,-6.34183 l -14.07093,-0.033 c -1.61849,0 -2.44425,-0.69363 -2.44425,-2.11394 l 0,-1.18909 c 0,-1.15606 1.25515,-2.14697 2.44425,-2.14697 l 21.07336,0 0,-4.22789"
       style="font-style:normal;font-variant:normal;font-weight:normal;font-stretch:normal;font-size:10px;line-height:125%;font-family:'Saved By Zero';-inkscape-font-specification:'Saved By Zero';letter-spacing:0px;word-spacing:0px;fill:#000000;fill-opacity:1;stroke:#000000;stroke-opacity:1"
       id="path3813"
       inkscape:connector-curvature="0" />
    <path
       d="m 218.99597,331.17711 c 0,-3.53425 -3.46819,-6.37486 -6.90334,-6.37486 l -14.92972,0 c -3.50122,0 -6.93638,2.84061 -6.93638,6.37486 l 0,10.90002 c 0,3.76546 3.10485,6.40789 6.93638,6.40789 l 14.92972,0 c 3.73243,0 6.90334,-2.67546 6.90334,-6.40789 l 0,-10.90002 m -4.4591,10.90002 c 0,1.4203 -0.82576,2.11394 -2.44424,2.11394 l -14.92972,0 c -1.61849,0 -2.44425,-0.69364 -2.44425,-2.11394 l 0,-10.90002 c 0,-1.15606 1.25515,-2.14697 2.44425,-2.14697 l 14.92972,0 c 1.18909,0 2.44424,0.99091 2.44424,2.14697 l 0,10.90002"
       style="font-style:normal;font-variant:normal;font-weight:normal;font-stretch:normal;font-size:10px;line-height:125%;font-family:'Saved By Zero';-inkscape-font-specification:'Saved By Zero';letter-spacing:0px;word-spacing:0px;fill:#000000;fill-opacity:1;stroke:#000000;stroke-opacity:1"
       id="path3815"
       inkscape:connector-curvature="0" />
    <path
       d="m 260.97755,344.19107 -17.57215,0 c -1.61848,0 -2.44424,-0.69364 -2.44424,-2.11394 l 0,-17.27488 -4.49213,0 0,17.27488 c 0,3.76546 3.10485,6.40789 6.93637,6.40789 l 17.57215,0 0,-4.29395"
       style="font-style:normal;font-variant:normal;font-weight:normal;font-stretch:normal;font-size:10px;line-height:125%;font-family:'Saved By Zero';-inkscape-font-specification:'Saved By Zero';letter-spacing:0px;word-spacing:0px;fill:#000000;fill-opacity:1;stroke:#000000;stroke-opacity:1"
       id="path3817"
       inkscape:connector-curvature="0" />
    <path
       d="m 306.90058,324.80225 -4.4591,0 0,17.27488 c 0,1.4203 -0.82576,2.11394 -2.44425,2.11394 l -14.92972,0 c -1.61848,0 -2.44424,-0.69364 -2.44424,-2.11394 l 0,-17.27488 -4.49213,0 0,17.27488 c 0,3.76546 3.10485,6.40789 6.93637,6.40789 l 14.92972,0 c 3.73243,0 6.90335,-2.67546 6.90335,-6.40789 l 0,-17.27488"
       style="font-style:normal;font-variant:normal;font-weight:normal;font-stretch:normal;font-size:10px;line-height:125%;font-family:'Saved By Zero';-inkscape-font-specification:'Saved By Zero';letter-spacing:0px;word-spacing:0px;fill:#000000;fill-opacity:1;stroke:#000000;stroke-opacity:1"
       id="path3819"
       inkscape:connector-curvature="0" />
    <path
       d="m 352.04997,324.80225 -27.54732,0 0,4.22789 11.49457,0 0,19.45488 4.42606,0 0,-19.45488 11.62669,0 0,-4.22789"
       style="font-style:normal;font-variant:normal;font-weight:normal;font-stretch:normal;font-size:10px;line-height:125%;font-family:'Saved By Zero';-inkscape-font-specification:'Saved By Zero';letter-spacing:0px;word-spacing:0px;fill:#000000;fill-opacity:1;stroke:#000000;stroke-opacity:1"
       id="path3821"
       inkscape:connector-curvature="0" />
    <path
       d="m 373.75349,324.80225 -4.49213,0 0,23.68277 4.49213,0 0,-23.68277"
       style="font-style:normal;font-variant:normal;font-weight:normal;font-stretch:normal;font-size:10px;line-height:125%;font-family:'Saved By Zero';-inkscape-font-specification:'Saved By Zero';letter-spacing:0px;word-spacing:0px;fill:#000000;fill-opacity:1;stroke:#000000;stroke-opacity:1"
       id="path3823"
       inkscape:connector-curvature="0" />
    <path
       d="m 420.14568,331.17711 c 0,-3.53425 -3.46819,-6.37486 -6.90334,-6.37486 l -14.92973,0 c -3.50121,0 -6.93637,2.84061 -6.93637,6.37486 l 0,10.90002 c 0,3.76546 3.10485,6.40789 6.93637,6.40789 l 14.92973,0 c 3.73243,0 6.90334,-2.67546 6.90334,-6.40789 l 0,-10.90002 m -4.4591,10.90002 c 0,1.4203 -0.82576,2.11394 -2.44424,2.11394 l -14.92973,0 c -1.61848,0 -2.44424,-0.69364 -2.44424,-2.11394 l 0,-10.90002 c 0,-1.15606 1.25515,-2.14697 2.44424,-2.14697 l 14.92973,0 c 1.18909,0 2.44424,0.99091 2.44424,2.14697 l 0,10.90002"
       style="font-style:normal;font-variant:normal;font-weight:normal;font-stretch:normal;font-size:10px;line-height:125%;font-family:'Saved By Zero';-inkscape-font-specification:'Saved By Zero';letter-spacing:0px;word-spacing:0px;fill:#000000;fill-opacity:1;stroke:#000000;stroke-opacity:1"
       id="path3825"
       inkscape:connector-curvature="0" />
    <path
       d="m 466.38818,324.80225 -4.4591,0 0,17.27488 c 0,1.4203 -0.82576,2.11394 -2.44425,2.11394 l -3.07182,0 c -1.65152,0 -2.47728,-0.69364 -2.47728,-2.11394 l 0.0661,-10.90002 c 0.033,-3.76546 -3.23697,-6.37486 -6.93637,-6.37486 l -3.10485,0 c -3.73243,0 -6.90335,2.57637 -6.90335,6.37486 l 0,17.30791 4.49213,0 0,-17.30791 c 0,-1.42031 0.79273,-2.14697 2.41122,-2.14697 l 3.10485,0 c 1.61849,0 2.44425,0.72666 2.44425,2.14697 l 0,10.90002 c 0,3.6003 2.97273,6.40789 6.90334,6.40789 l 3.07182,0 c 3.73243,0 6.90335,-2.67546 6.90335,-6.40789 l 0,-17.27488"
       style="font-style:normal;font-variant:normal;font-weight:normal;font-stretch:normal;font-size:10px;line-height:125%;font-family:'Saved By Zero';-inkscape-font-specification:'Saved By Zero';letter-spacing:0px;word-spacing:0px;fill:#000000;fill-opacity:1;stroke:#000000;stroke-opacity:1"
       id="path3827"
       inkscape:connector-curvature="0" />
    <path
       d="m 511.99999,324.80225 -21.07336,0 c -3.50122,0 -6.93638,2.84061 -6.93638,6.37486 l 0,1.18909 c 0,3.79849 3.10485,6.34183 6.93638,6.34183 l 14.07093,0.033 c 1.61848,0 2.44424,0.69364 2.44424,2.11394 l 0,1.22213 c 0,1.18909 -1.25515,2.18 -2.44424,2.18 l -21.07337,0 0,4.22789 21.07337,0 c 3.46818,0 6.90334,-2.77455 6.90334,-6.40789 l 0,-1.22213 c 0,-3.73243 -3.10485,-6.34183 -6.90334,-6.34183 l -14.07093,-0.033 c -1.61849,0 -2.44425,-0.69363 -2.44425,-2.11394 l 0,-1.18909 c 0,-1.15606 1.25515,-2.14697 2.44425,-2.14697 l 21.07336,0 0,-4.22789"
       style="font-style:normal;font-variant:normal;font-weight:normal;font-stretch:normal;font-size:10px;line-height:125%;font-family:'Saved By Zero';-inkscape-font-specification:'Saved By Zero';letter-spacing:0px;word-spacing:0px;fill:#000000;fill-opacity:1;stroke:#000000;stroke-opacity:1"
       id="path3829"
       inkscape:connector-curvature="0" />
  </g>
</svg>
