<?xml version="1.0" encoding="UTF-8" standalone="no"?>
<!-- Created with Inkscape (http://www.inkscape.org/) -->

<svg
   xmlns:dc="http://purl.org/dc/elements/1.1/"
   xmlns:cc="http://creativecommons.org/ns#"
   xmlns:rdf="http://www.w3.org/1999/02/22-rdf-syntax-ns#"
   xmlns:svg="http://www.w3.org/2000/svg"
   xmlns="http://www.w3.org/2000/svg"
   xmlns:xlink="http://www.w3.org/1999/xlink"
   xmlns:sodipodi="http://sodipodi.sourceforge.net/DTD/sodipodi-0.dtd"
   xmlns:inkscape="http://www.inkscape.org/namespaces/inkscape"
   width="512"
   height="512"
   viewBox="0 0 512.00001 512.00001"
   id="svg6564"
   version="1.1"
   inkscape:version="0.91 r13725"
   sodipodi:docname="ddl-square.svg"
   inkscape:export-filename="/media/Dropbox/Public/www/graphic/ddl/ddl-square.png"
   inkscape:export-xdpi="90"
   inkscape:export-ydpi="90">
  <defs
     id="defs6566">
    <linearGradient
       inkscape:collect="always"
       id="linearGradient7318">
      <stop
         style="stop-color:#ffe569;stop-opacity:1"
         offset="0"
         id="stop7320" />
      <stop
         style="stop-color:#ffe6b9;stop-opacity:1"
         offset="1"
         id="stop7322" />
    </linearGradient>
    <linearGradient
       inkscape:collect="always"
       id="linearGradient7297">
      <stop
         style="stop-color:#cccccc;stop-opacity:1"
         offset="0"
         id="stop7299" />
      <stop
         style="stop-color:#ffffff;stop-opacity:1"
         offset="1"
         id="stop7301" />
    </linearGradient>
    <filter
       id="filter4817"
       style="color-interpolation-filters:sRGB"
       inkscape:label="Drop Shadow">
      <feFlood
         id="feFlood4819"
         flood-opacity="0.5"
         flood-color="rgb(0,0,0)"
         result="flood" />
      <feComposite
         id="feComposite4821"
         in2="SourceGraphic"
         in="flood"
         operator="in"
         result="composite1" />
      <feGaussianBlur
         id="feGaussianBlur4823"
         stdDeviation="4"
         result="blur" />
      <feOffset
         id="feOffset4825"
         dx="0"
         dy="0"
         result="offset" />
      <feComposite
         id="feComposite4827"
         in2="offset"
         in="SourceGraphic"
         operator="over"
         result="composite2" />
    </filter>
    <linearGradient
       inkscape:collect="always"
       xlink:href="#linearGradient7297"
       id="linearGradient7303"
       x1="223.99998"
       y1="175.99985"
       x2="440"
       y2="400"
       gradientUnits="userSpaceOnUse" />
    <linearGradient
       inkscape:collect="always"
       xlink:href="#linearGradient7318"
       id="linearGradient7324"
       x1="80.905281"
       y1="464.97865"
       x2="592.90528"
       y2="464.97865"
       gradientUnits="userSpaceOnUse" />
  </defs>
  <sodipodi:namedview
     id="base"
     pagecolor="#ffffff"
     bordercolor="#666666"
     borderopacity="1.0"
     inkscape:pageopacity="0.0"
     inkscape:pageshadow="2"
     inkscape:zoom="1.7460938"
     inkscape:cx="156.34899"
     inkscape:cy="256"
     inkscape:document-units="px"
     inkscape:current-layer="layer1"
     showgrid="false"
     units="px"
     fit-margin-top="0"
     fit-margin-left="0"
     fit-margin-right="0"
     fit-margin-bottom="0"
     inkscape:showpageshadow="false"
     borderlayer="true"
     inkscape:window-width="1920"
     inkscape:window-height="1043"
     inkscape:window-x="1600"
     inkscape:window-y="0"
     inkscape:window-maximized="1"
     inkscape:object-paths="true"
     inkscape:snap-intersection-paths="true"
     inkscape:object-nodes="true"
     inkscape:snap-smooth-nodes="true"
     inkscape:snap-midpoints="true"
     inkscape:snap-bbox="true"
     inkscape:bbox-paths="true"
     inkscape:bbox-nodes="true"
     inkscape:snap-bbox-edge-midpoints="true"
     inkscape:snap-bbox-midpoints="true"
     inkscape:snap-grids="true">
    <inkscape:grid
       type="xygrid"
       id="grid7269"
       empspacing="8" />
  </sodipodi:namedview>
  <metadata
     id="metadata6569">
    <rdf:RDF>
      <cc:Work
         rdf:about="">
        <dc:format>image/svg+xml</dc:format>
        <dc:type
           rdf:resource="http://purl.org/dc/dcmitype/StillImage" />
        <dc:title></dc:title>
      </cc:Work>
    </rdf:RDF>
  </metadata>
  <g
     inkscape:label="Layer 1"
     inkscape:groupmode="layer"
     id="layer1"
     transform="translate(-80.905281,-208.97865)">
    <rect
       y="208.97865"
       x="80.905281"
       height="512"
       width="512"
       id="rect4294"
       style="fill:url(#linearGradient7324);fill-opacity:1.0;stroke:none"
       inkscape:export-filename="/home/nathanel/DDL_Square.png"
       inkscape:export-xdpi="90"
       inkscape:export-ydpi="90" />
    <path
       style="fill:#2f2f2f;fill-opacity:0.47058824;stroke:#000000;stroke-width:0;stroke-linecap:round;stroke-linejoin:round;stroke-miterlimit:4;stroke-dasharray:none;stroke-opacity:1"
       d="M 448 448 L 64 64 L 32 64 L 16 80 L 16 112 L 32 128 L 16 144 L 16 176 L 336 496 L 368 496 L 384 480 L 400 496 L 432 496 L 448 480 L 448 448 z "
       id="path7309"
       transform="translate(80.905281,208.97865)" />
    <path
       style="fill:#575757;fill-opacity:0.47058824;stroke:#000000;stroke-width:0;stroke-linecap:round;stroke-linejoin:round;stroke-miterlimit:4;stroke-dasharray:none;stroke-opacity:1"
       d="M 80 16 L 64 32 L 64 64 L 448 448 L 480 448 L 496 432 L 496 400 L 480 384 L 496 368 L 496 336 L 176 16 L 144 16 L 128 32 L 112 16 L 80 16 z "
       id="path7282"
       transform="translate(80.905281,208.97865)" />
    <path
       style="fill:#434343;fill-opacity:0.47058824;stroke:#000000;stroke-width:0;stroke-linecap:round;stroke-linejoin:round;stroke-miterlimit:4;stroke-dasharray:none;stroke-opacity:1"
       d="M 128 128 L 128 224 L 400 496 L 432 496 L 448 480 L 448 448 L 128 128 z "
       id="path7279"
       transform="translate(80.905281,208.97865)" />
    <path
       style="fill:#4d4d4d;fill-opacity:0.47058824;stroke:#000000;stroke-width:0;stroke-linecap:round;stroke-linejoin:round;stroke-miterlimit:4;stroke-dasharray:none;stroke-opacity:1"
       d="M 128 128 L 448 448 L 480 448 L 496 432 L 496 400 L 224 128 L 128 128 z "
       id="path4613"
       transform="translate(80.905281,208.97865)" />
    <g
       transform="translate(144.90529,-1147.3837)"
       id="g4829"
       inkscape:export-filename="/home/nathanel/DDL_Square.png"
       inkscape:export-xdpi="90"
       inkscape:export-ydpi="90">
      <g
         transform="matrix(-0.5,0,0,-0.5,360.00002,2018.5434)"
         id="g4352">
        <path
           style="fill:#ffffff;fill-opacity:1;stroke:#000000;stroke-width:0;stroke-linecap:round;stroke-linejoin:round;stroke-miterlimit:4;stroke-dasharray:none;stroke-opacity:1"
           d="m 464,940.36225 128,128.00005 0,-128.00005 -128,0 z"
           id="path4354"
           inkscape:connector-curvature="0" />
        <path
           id="path4356"
           d="m 720,940.36224 -128,128.00006 0,-128.00006 128,0 z"
           style="fill:#f9f9f9;fill-opacity:1;stroke:#000000;stroke-width:0;stroke-linecap:round;stroke-linejoin:round;stroke-miterlimit:4;stroke-dasharray:none;stroke-opacity:1"
           inkscape:connector-curvature="0" />
        <path
           style="fill:#f2f2f2;fill-opacity:1;stroke:#000000;stroke-width:0;stroke-linecap:round;stroke-linejoin:round;stroke-miterlimit:4;stroke-dasharray:none;stroke-opacity:1"
           d="m 464,876.36226 0,64 64,0 64,0 0,-64 -64,0 -64,0 z"
           id="path4358"
           inkscape:connector-curvature="0" />
        <path
           style="fill:#ececec;fill-opacity:1;stroke:#000000;stroke-width:0;stroke-linecap:round;stroke-linejoin:round;stroke-miterlimit:4;stroke-dasharray:none;stroke-opacity:1"
           d="m 592,876.36226 0,64 64,0 64,0 0,-64 -64,0 -64,0 z"
           id="path4360"
           inkscape:connector-curvature="0" />
        <path
           style="fill:#e6e6e6;fill-opacity:1;stroke:#000000;stroke-width:0;stroke-linecap:round;stroke-linejoin:round;stroke-miterlimit:4;stroke-dasharray:none;stroke-opacity:1"
           d="m 496,844.36226 -32,32 32,0 32,0 32,0 32,0 -32,-32 -32,0 -32,0 z"
           id="path4362"
           inkscape:connector-curvature="0" />
        <path
           style="fill:#cccccc;fill-opacity:1;stroke:#000000;stroke-width:0;stroke-linecap:round;stroke-linejoin:round;stroke-miterlimit:4;stroke-dasharray:none;stroke-opacity:1"
           d="m 624,844.36226 -32,32 32,0 32,0 32,0 32,0 -32,-32 -32,0 -32,0 z"
           id="path4364"
           inkscape:connector-curvature="0" />
      </g>
      <g
         transform="matrix(0,0.5,-0.5,0,598.1811,1188.3622)"
         id="g4366">
        <path
           style="fill:#ffffff;fill-opacity:1;stroke:#000000;stroke-width:0;stroke-linecap:round;stroke-linejoin:round;stroke-miterlimit:4;stroke-dasharray:none;stroke-opacity:1"
           d="m 464,940.36225 128,128.00005 0,-128.00005 -128,0 z"
           id="path4368"
           inkscape:connector-curvature="0" />
        <path
           id="path4370"
           d="m 720,940.36224 -128,128.00006 0,-128.00006 128,0 z"
           style="fill:#f9f9f9;fill-opacity:1;stroke:#000000;stroke-width:0;stroke-linecap:round;stroke-linejoin:round;stroke-miterlimit:4;stroke-dasharray:none;stroke-opacity:1"
           inkscape:connector-curvature="0" />
        <path
           style="fill:#f2f2f2;fill-opacity:1;stroke:#000000;stroke-width:0;stroke-linecap:round;stroke-linejoin:round;stroke-miterlimit:4;stroke-dasharray:none;stroke-opacity:1"
           d="m 464,876.36226 0,64 64,0 64,0 0,-64 -64,0 -64,0 z"
           id="path4372"
           inkscape:connector-curvature="0" />
        <path
           style="fill:#ececec;fill-opacity:1;stroke:#000000;stroke-width:0;stroke-linecap:round;stroke-linejoin:round;stroke-miterlimit:4;stroke-dasharray:none;stroke-opacity:1"
           d="m 592,876.36226 0,64 64,0 64,0 0,-64 -64,0 -64,0 z"
           id="path4374"
           inkscape:connector-curvature="0" />
        <path
           style="fill:#e6e6e6;fill-opacity:1;stroke:#000000;stroke-width:0;stroke-linecap:round;stroke-linejoin:round;stroke-miterlimit:4;stroke-dasharray:none;stroke-opacity:1"
           d="m 496,844.36226 -32,32 32,0 32,0 32,0 32,0 -32,-32 -32,0 -32,0 z"
           id="path4376"
           inkscape:connector-curvature="0" />
        <path
           style="fill:#cccccc;fill-opacity:1;stroke:#000000;stroke-width:0;stroke-linecap:round;stroke-linejoin:round;stroke-miterlimit:4;stroke-dasharray:none;stroke-opacity:1"
           d="m 624,844.36226 -32,32 32,0 32,0 32,0 32,0 -32,-32 -32,0 -32,0 z"
           id="path4378"
           inkscape:connector-curvature="0" />
      </g>
      <g
         id="g4380"
         transform="matrix(0,-0.5,0.5,0,-470.18113,1780.3623)">
        <path
           inkscape:connector-curvature="0"
           id="path4382"
           d="m 464,940.36225 128,128.00005 0,-128.00005 -128,0 z"
           style="fill:#ffffff;fill-opacity:1;stroke:#000000;stroke-width:0;stroke-linecap:round;stroke-linejoin:round;stroke-miterlimit:4;stroke-dasharray:none;stroke-opacity:1" />
        <path
           inkscape:connector-curvature="0"
           style="fill:#f9f9f9;fill-opacity:1;stroke:#000000;stroke-width:0;stroke-linecap:round;stroke-linejoin:round;stroke-miterlimit:4;stroke-dasharray:none;stroke-opacity:1"
           d="m 720,940.36224 -128,128.00006 0,-128.00006 128,0 z"
           id="path4384" />
        <path
           inkscape:connector-curvature="0"
           id="path4386"
           d="m 464,876.36226 0,64 64,0 64,0 0,-64 -64,0 -64,0 z"
           style="fill:#f2f2f2;fill-opacity:1;stroke:#000000;stroke-width:0;stroke-linecap:round;stroke-linejoin:round;stroke-miterlimit:4;stroke-dasharray:none;stroke-opacity:1" />
        <path
           inkscape:connector-curvature="0"
           id="path4388"
           d="m 592,876.36226 0,64 64,0 64,0 0,-64 -64,0 -64,0 z"
           style="fill:#ececec;fill-opacity:1;stroke:#000000;stroke-width:0;stroke-linecap:round;stroke-linejoin:round;stroke-miterlimit:4;stroke-dasharray:none;stroke-opacity:1" />
        <path
           inkscape:connector-curvature="0"
           id="path4390"
           d="m 496,844.36226 -32,32 32,0 32,0 32,0 32,0 -32,-32 -32,0 -32,0 z"
           style="fill:#e6e6e6;fill-opacity:1;stroke:#000000;stroke-width:0;stroke-linecap:round;stroke-linejoin:round;stroke-miterlimit:4;stroke-dasharray:none;stroke-opacity:1" />
        <path
           inkscape:connector-curvature="0"
           id="path4392"
           d="m 624,844.36226 -32,32 32,0 32,0 32,0 32,0 -32,-32 -32,0 -32,0 z"
           style="fill:#cccccc;fill-opacity:1;stroke:#000000;stroke-width:0;stroke-linecap:round;stroke-linejoin:round;stroke-miterlimit:4;stroke-dasharray:none;stroke-opacity:1" />
      </g>
    </g>
    <path
       inkscape:connector-curvature="0"
       style="fill:#333333;fill-opacity:1;stroke:#000000;stroke-width:0;stroke-linecap:round;stroke-linejoin:round;stroke-miterlimit:4;stroke-dasharray:none;stroke-opacity:1;filter:url(#filter4817)"
       d="m 160.90529,224.97853 -16,16 0,32 64,64 64,-64 0,-32 -16,-16 -16,0 -16,0 -16,16 -16,-16 -16,0 -16,0 z"
       id="path4774"
       inkscape:export-filename="/home/nathanel/DDL_Square.png"
       inkscape:export-xdpi="90"
       inkscape:export-ydpi="90" />
    <g
       transform="matrix(0.5,0,0,0.5,-87.094707,-197.20266)"
       id="g4338"
       inkscape:export-filename="/home/nathanel/DDL_Square.png"
       inkscape:export-xdpi="90"
       inkscape:export-ydpi="90"
       style="filter:url(#filter4817)">
      <path
         style="fill:#ff8080;fill-opacity:1;stroke:#000000;stroke-width:0;stroke-linecap:round;stroke-linejoin:round;stroke-miterlimit:4;stroke-dasharray:none;stroke-opacity:1"
         d="m 464,940.36225 128,128.00005 0,-128.00005 -128,0 z"
         id="path4340"
         inkscape:connector-curvature="0" />
      <path
         id="path4342"
         d="m 720,940.36224 -128,128.00006 0,-128.00006 128,0 z"
         style="fill:#ff5555;fill-opacity:1;stroke:#000000;stroke-width:0;stroke-linecap:round;stroke-linejoin:round;stroke-miterlimit:4;stroke-dasharray:none;stroke-opacity:1"
         inkscape:connector-curvature="0" />
      <path
         style="fill:#ffaaaa;fill-opacity:1;stroke:#000000;stroke-width:0;stroke-linecap:round;stroke-linejoin:round;stroke-miterlimit:4;stroke-dasharray:none;stroke-opacity:1"
         d="m 464,876.36226 0,64 64,0 64,0 0,-64 -64,0 -64,0 z"
         id="path4344"
         inkscape:connector-curvature="0" />
      <path
         style="fill:#ff2a2a;fill-opacity:1;stroke:#000000;stroke-width:0;stroke-linecap:round;stroke-linejoin:round;stroke-miterlimit:4;stroke-dasharray:none;stroke-opacity:1"
         d="m 592,876.36226 0,64 64,0 64,0 0,-64 -64,0 -64,0 z"
         id="path4346"
         inkscape:connector-curvature="0" />
      <path
         style="fill:#ffd5d5;fill-opacity:1;stroke:#000000;stroke-width:0;stroke-linecap:round;stroke-linejoin:round;stroke-miterlimit:4;stroke-dasharray:none;stroke-opacity:1"
         d="m 496,844.36226 -32,32 32,0 32,0 32,0 32,0 -32,-32 -32,0 -32,0 z"
         id="path4348"
         inkscape:connector-curvature="0" />
      <path
         style="fill:#ff0000;fill-opacity:1;stroke:#000000;stroke-width:0;stroke-linecap:round;stroke-linejoin:round;stroke-miterlimit:4;stroke-dasharray:none;stroke-opacity:1"
         d="m 624,844.36226 -32,32 32,0 32,0 32,0 32,0 -32,-32 -32,0 -32,0 z"
         id="path4350"
         inkscape:connector-curvature="0" />
    </g>
    <path
       style="font-style:normal;font-variant:normal;font-weight:normal;font-stretch:normal;font-size:20px;line-height:125%;font-family:Ubuntu;-inkscape-font-specification:Ubuntu;letter-spacing:0px;word-spacing:0px;fill:url(#linearGradient7303);fill-opacity:1;stroke:none;filter:url(#filter4817)"
       d="M 240.11914 175.88086 L 224 192 C 224.49579 192.8154 225.11946 193.64654 225.87109 194.49414 C 226.62312 195.37334 227.33419 196.15057 228.00586 196.82227 C 229.36518 198.18157 230.78069 199.26095 232.25195 200.06055 C 233.73929 200.84405 235.23506 201.29973 236.73828 201.42773 C 238.25756 201.53963 239.76821 201.29129 241.27148 200.68359 C 242.79079 200.05989 244.26969 199.02914 245.70898 197.58984 C 247.14826 196.15054 248.17158 194.67908 248.7793 193.17578 C 249.40301 191.65658 249.65135 190.14588 249.52344 188.64258 C 249.41147 187.12328 248.95582 185.62765 248.15625 184.15625 C 247.37261 182.66915 246.30071 181.24622 244.94141 179.88672 C 244.26975 179.21512 243.49475 178.50365 242.61523 177.75195 C 241.76762 177.00035 240.93471 176.37666 240.11914 175.88086 z M 240.74414 179.91016 C 240.90401 180.03806 241.16737 180.26957 241.53516 180.60547 C 241.91857 180.95777 242.43804 181.46149 243.09375 182.11719 C 245.30061 184.32409 246.38003 186.53882 246.33203 188.76172 C 246.30003 190.96872 245.26934 193.08804 243.23828 195.11914 C 241.20732 197.15004 239.08034 198.18833 236.85742 198.23633 C 234.65053 198.26833 232.44321 197.18151 230.23633 194.97461 C 229.58064 194.31881 229.07877 193.79952 228.72656 193.41602 C 228.39032 193.04862 228.15764 192.78255 228.0293 192.62305 L 240.74414 179.91016 z M 252.63867 197.27539 L 240.69336 209.2207 L 242.92383 211.45117 L 253.40625 200.96875 C 253.56622 201.06475 253.88702 201.2724 254.36719 201.5918 C 254.87892 201.9116 255.34201 202.27951 255.75781 202.69531 C 256.39749 203.33501 256.86998 203.90264 257.17383 204.39844 C 257.50973 204.89404 257.7314 205.26245 257.84375 205.50195 L 260.17188 203.94336 C 260.10827 203.81496 259.988 203.63278 259.8125 203.39258 C 259.66839 203.15288 259.49106 202.8969 259.2832 202.625 C 259.0913 202.3372 258.87651 202.05706 258.63672 201.78516 C 258.42887 201.51326 258.22901 201.27989 258.03711 201.08789 C 257.06158 200.11239 256.09433 199.32254 255.13477 198.71484 C 254.19129 198.09104 253.3583 197.61129 252.63867 197.27539 z M 262.17969 208.39844 C 261.10826 208.41444 259.9972 208.67765 258.8457 209.18945 C 257.71027 209.68525 256.58979 210.48644 255.48633 211.58984 C 254.54288 212.53334 253.79218 213.523 253.23242 214.5625 C 252.70471 215.602 252.40765 216.66641 252.34375 217.75391 C 252.27975 218.84131 252.47214 219.94505 252.91992 221.06445 C 253.39975 222.18385 254.18401 223.2876 255.27148 224.375 C 256.13504 225.2386 256.98289 225.9258 257.81445 226.4375 C 258.66209 226.9652 259.29317 227.29386 259.70898 227.42188 L 261.26758 225.23828 C 260.86785 225.09418 260.32436 224.82155 259.63672 224.42188 C 258.98062 224.02247 258.2621 223.43008 257.47852 222.64648 C 256.08719 221.25518 255.39806 219.89771 255.41406 218.57031 C 255.43006 217.24301 256.03887 215.88349 257.23828 214.49219 L 265.77734 223.03125 C 265.92091 222.91875 266.06503 222.79048 266.20898 222.64648 C 266.36897 222.48648 266.49775 222.35967 266.59375 222.26367 C 268.73672 220.12057 269.87957 218.08138 270.02344 216.14648 C 270.18334 214.19538 269.42328 212.38037 267.74414 210.70117 C 267.02447 209.98157 266.18612 209.41375 265.22656 208.99805 C 264.26711 208.58205 263.25122 208.38244 262.17969 208.39844 z M 262.39648 211.30078 C 262.98821 211.25278 263.57076 211.32578 264.14648 211.51758 C 264.75379 211.70978 265.31441 212.06047 265.82617 212.57227 C 266.7377 213.48377 267.12052 214.52411 266.97656 215.69141 C 266.86465 216.85881 266.2969 217.93819 265.27344 218.92969 L 259.08594 212.74023 C 259.5657 212.35633 260.08487 212.02951 260.64453 211.75781 C 261.22028 211.50191 261.80484 211.34878 262.39648 211.30078 z M 276.01172 220.07031 L 274.42773 222.18164 C 274.81163 222.34154 275.32322 222.64595 275.96289 223.09375 C 276.63416 223.54195 277.33858 224.13344 278.07422 224.86914 C 278.64993 225.44484 279.02529 225.99574 279.20117 226.52344 C 279.40908 227.05124 279.47248 227.56279 279.39258 228.05859 C 279.32868 228.53829 279.15309 229.00337 278.86523 229.45117 C 278.59345 229.88297 278.2741 230.28259 277.90625 230.65039 L 277.2832 231.27344 C 277.2348 231.19344 277.14511 231.05743 277.01758 230.86523 C 276.89004 230.67293 276.73056 230.44956 276.53906 230.19336 C 276.37914 229.93746 276.18717 229.68118 275.96289 229.42578 C 275.75539 229.15348 275.53834 228.90749 275.31445 228.68359 C 274.6108 227.97999 273.86758 227.37851 273.08398 226.88281 C 272.30037 226.38711 271.51808 226.05275 270.73438 225.87695 C 269.9508 225.70095 269.1665 225.71563 268.38281 225.92383 C 267.61522 226.14753 266.88695 226.60332 266.19922 227.29102 C 265.47957 228.01072 264.98479 228.74635 264.71289 229.49805 C 264.44121 230.24955 264.36077 231.00211 264.47266 231.75391 C 264.60064 232.48951 264.88817 233.22524 265.33594 233.96094 C 265.78371 234.69644 266.35884 235.41544 267.0625 236.11914 C 267.55825 236.61494 268.07933 237.08736 268.62305 237.53516 C 269.16718 238.01446 269.67845 238.44618 270.1582 238.83008 C 270.63796 239.21378 271.06931 239.54999 271.45312 239.83789 C 271.86852 240.12619 272.1878 240.35027 272.41211 240.50977 L 280.20898 232.71289 C 280.91266 232.00919 281.47288 231.29039 281.88867 230.55469 C 282.32054 229.80309 282.55198 229.02606 282.58398 228.22656 C 282.64798 227.42696 282.47996 226.60346 282.08008 225.75586 C 281.71231 224.90826 281.08108 224.03623 280.18555 223.14062 C 279.40191 222.35692 278.61012 221.69409 277.81055 221.15039 C 277.02691 220.59069 276.42755 220.23031 276.01172 220.07031 z M 270.5293 228.79102 C 270.76118 228.81502 270.98901 228.86697 271.21289 228.94727 C 271.69273 229.10717 272.14084 229.34622 272.55664 229.66602 C 272.98843 230.00182 273.37314 230.33793 273.70898 230.67383 C 274.22071 231.18553 274.61993 231.64905 274.9082 232.06445 C 275.22803 232.48025 275.42821 232.80853 275.50781 233.04883 L 271.78906 236.76758 C 271.45362 236.55928 271.06145 236.26231 270.61328 235.87891 C 270.20147 235.49111 269.72695 235.03952 269.19922 234.51172 C 268.31965 233.63212 267.77435 232.78425 267.56641 231.96875 C 267.37454 231.13705 267.679 230.32108 268.47852 229.52148 C 268.9103 229.08978 269.35855 228.85073 269.82227 228.80273 C 270.06217 228.77073 270.29742 228.76702 270.5293 228.79102 z M 287.99219 232.29297 L 275.87891 244.40625 L 278.10938 246.63672 L 288.64062 236.10742 C 288.72024 236.15542 288.87142 236.25837 289.0957 236.41797 C 289.32 236.57747 289.55154 236.7624 289.79102 236.9707 C 290.06328 237.1782 290.33596 237.40238 290.60742 237.64258 C 290.87529 237.88648 291.12766 238.11389 291.35156 238.33789 C 291.87928 238.86559 292.22293 239.38468 292.38281 239.89648 C 292.57477 240.40818 292.58966 240.93667 292.42969 241.48047 C 292.2858 242.04017 291.9907 242.62267 291.54297 243.23047 C 291.09523 243.83817 290.50328 244.51039 289.76758 245.24609 L 283.24219 251.77148 L 285.47461 254.00195 L 292.47852 246.99805 C 293.02233 246.45425 293.50962 245.9014 293.94141 245.3418 C 294.37326 244.782 294.73369 244.2312 295.02148 243.6875 C 295.35738 243.7035 295.86152 243.85478 296.5332 244.14258 C 297.23643 244.43088 297.9632 244.94947 298.71484 245.70117 C 299.25856 246.24487 299.6116 246.77326 299.77148 247.28516 C 299.96344 247.79676 299.97833 248.32534 299.81836 248.86914 C 299.67446 249.42874 299.3719 250.0039 298.9082 250.5957 C 298.46035 251.2034 297.86851 251.87563 297.13281 252.61133 L 290.60742 259.13477 L 292.83789 261.36523 L 299.84375 254.36133 C 300.6754 253.52963 301.37748 252.69869 301.95312 251.86719 C 302.54485 251.05149 302.92218 250.21116 303.08203 249.34766 C 303.25797 248.50006 303.17773 247.63731 302.8418 246.75781 C 302.52199 245.86221 301.88138 244.93411 300.92188 243.97461 C 300.42611 243.47881 299.90708 243.07165 299.36328 242.75195 C 298.83554 242.41615 298.32386 242.14345 297.82812 241.93555 C 297.34843 241.71155 296.917 241.55108 296.5332 241.45508 C 296.14937 241.35908 295.86023 241.29567 295.66797 241.26367 C 295.71597 240.48007 295.57217 239.71244 295.23633 238.96094 C 294.91658 238.19324 294.35817 237.40897 293.55859 236.60938 C 292.45512 235.50597 291.40757 234.60399 290.41602 233.90039 C 289.4405 233.21279 288.6319 232.67667 287.99219 232.29297 z M 318.5957 254.35742 L 302.47656 270.47656 C 302.97234 271.29216 303.59603 272.1231 304.34766 272.9707 C 305.09968 273.8499 305.81075 274.62713 306.48242 275.29883 C 307.84173 276.65813 309.25724 277.73751 310.72852 278.53711 C 312.21584 279.32061 313.71161 279.7763 315.21484 279.9043 C 316.73411 280.0162 318.24478 279.76786 319.74805 279.16016 C 321.26736 278.53646 322.74624 277.50571 324.18555 276.06641 C 325.62481 274.62711 326.64815 273.15574 327.25586 271.65234 C 327.87957 270.13314 328.12791 268.62244 328 267.11914 C 327.88803 265.59984 327.43237 264.10411 326.63281 262.63281 C 325.84918 261.14561 324.77725 259.72258 323.41797 258.36328 C 322.74629 257.69148 321.97131 256.98022 321.0918 256.22852 C 320.24419 255.47692 319.41127 254.85322 318.5957 254.35742 z M 319.2207 258.38672 C 319.38056 258.51452 319.64394 258.74623 320.01172 259.08203 C 320.39513 259.43433 320.9146 259.93805 321.57031 260.59375 C 323.77718 262.80065 324.85855 265.01538 324.81055 267.23828 C 324.77855 269.44528 323.74589 271.5646 321.71484 273.5957 C 319.68387 275.6267 317.55689 276.66489 315.33398 276.71289 C 313.12709 276.74489 310.91978 275.65807 308.71289 273.45117 C 308.05721 272.79547 307.55534 272.27608 307.20312 271.89258 C 306.86689 271.52518 306.63419 271.25911 306.50586 271.09961 L 319.2207 258.38672 z M 331.37891 277.59766 C 330.30748 277.61366 329.19642 277.87883 328.04492 278.39062 C 326.90948 278.88644 325.79095 279.68566 324.6875 280.78906 C 323.74405 281.73256 322.9914 282.72417 322.43164 283.76367 C 321.90393 284.80317 321.60882 285.86563 321.54492 286.95312 C 321.48092 288.04053 321.6733 289.14427 322.12109 290.26367 C 322.60092 291.38307 323.38324 292.48682 324.4707 293.57422 C 325.33426 294.43792 326.18212 295.12502 327.01367 295.63672 C 327.86132 296.16442 328.4924 296.49309 328.9082 296.62109 L 330.46875 294.4375 C 330.06901 294.2934 329.52358 294.02275 328.83594 293.62305 C 328.17985 293.22365 327.46133 292.63126 326.67773 291.84766 C 325.28641 290.45636 324.59923 289.09683 324.61523 287.76953 C 324.63123 286.44213 325.2381 285.08271 326.4375 283.69141 L 334.97852 292.23047 C 335.12209 292.11807 335.26623 291.99156 335.41016 291.84766 C 335.57015 291.68766 335.69707 291.55889 335.79297 291.46289 C 337.93594 289.31979 339.08075 287.28256 339.22461 285.34766 C 339.38453 283.39656 338.62445 281.57959 336.94531 279.90039 C 336.22564 279.18079 335.38534 278.61492 334.42578 278.19922 C 333.46633 277.78322 332.45045 277.58166 331.37891 277.59766 z M 331.5957 280.50195 C 332.18743 280.45395 332.76998 280.525 333.3457 280.7168 C 333.953 280.909 334.51363 281.26164 335.02539 281.77344 C 335.93691 282.68494 336.3217 283.72336 336.17773 284.89062 C 336.06582 286.05802 335.49807 287.13741 334.47461 288.12891 L 328.28516 281.93945 C 328.76492 281.55565 329.2841 281.22873 329.84375 280.95703 C 330.41949 280.70103 331.00407 280.54995 331.5957 280.50195 z M 344.28906 289.71484 C 343.05419 289.70084 341.95379 290.17708 340.98828 291.14258 C 340.42862 291.70218 340.05322 292.27 339.86133 292.8457 C 339.66943 293.4214 339.59848 294.0039 339.64648 294.5957 C 339.69448 295.1873 339.82892 295.80366 340.05273 296.44336 C 340.30861 297.08306 340.58128 297.73846 340.86914 298.41016 C 341.46088 299.80146 341.81193 300.8734 341.92383 301.625 C 342.03584 302.3766 341.82114 303.02456 341.27734 303.56836 C 340.7496 304.09616 340.14077 304.25477 339.45312 304.04688 C 338.78145 303.85496 337.98967 303.30408 337.07812 302.39258 C 336.1506 301.46498 335.50454 300.62475 335.13672 299.87305 C 334.76891 299.12155 334.50367 298.57055 334.34375 298.21875 L 332.01758 299.73047 C 332.14552 300.05027 332.43311 300.6086 332.88086 301.4082 C 333.31264 302.2238 334.08014 303.18371 335.18359 304.28711 C 336.7668 305.87031 338.27951 306.79098 339.71875 307.04688 C 341.1741 307.31867 342.47553 306.87796 343.62695 305.72656 C 344.21874 305.13476 344.6277 304.55216 344.85156 303.97656 C 345.09151 303.38476 345.18667 302.77594 345.13867 302.15234 C 345.10667 301.54464 344.96294 300.90597 344.70703 300.23438 C 344.46719 299.54667 344.1628 298.79412 343.79492 297.97852 C 343.50713 297.37072 343.27553 296.83489 343.09961 296.37109 C 342.92369 295.90739 342.80433 295.48331 342.74023 295.09961 C 342.70823 294.71571 342.74005 294.36462 342.83594 294.04492 C 342.94796 293.74092 343.14031 293.45344 343.41211 293.18164 C 343.93984 292.65384 344.55612 292.50071 345.25977 292.72461 C 345.9795 292.93241 346.64975 293.34886 347.27344 293.97266 C 347.99308 294.69216 348.53648 295.37946 348.9043 296.03516 C 349.28818 296.67476 349.53654 297.17898 349.64844 297.54688 L 351.97656 296.03516 C 351.89656 295.85916 351.76812 295.61991 351.5918 295.31641 C 351.43148 295.02901 351.2246 294.70727 350.96875 294.35547 C 350.72888 293.98757 350.44871 293.61242 350.12891 293.22852 C 349.82506 292.82872 349.49633 292.45336 349.14453 292.10156 C 347.73722 290.69426 346.29943 289.9099 344.82812 289.75 C 344.64623 289.728 344.46547 289.71684 344.28906 289.71484 z M 360.57031 294.60352 C 360.04256 294.58752 359.55517 294.80425 359.10742 295.25195 C 358.65961 295.69975 358.43554 296.19458 358.43555 296.73828 C 358.46755 297.28198 358.68416 297.7545 359.08398 298.1543 C 359.48376 298.5541 359.94685 298.76134 360.47461 298.77734 C 361.0343 298.79334 361.53852 298.57866 361.98633 298.13086 C 362.43408 297.68306 362.64134 297.18628 362.60938 296.64258 C 362.60935 296.09878 362.40955 295.62646 362.00977 295.22656 C 361.60994 294.82676 361.13002 294.61952 360.57031 294.60352 z M 355.72461 299.30469 L 343.25195 311.7793 L 345.48242 314.00977 L 357.95703 301.53711 L 355.72461 299.30469 z M 361.19141 307.79492 C 360.13597 307.82692 359.09027 308.09024 358.05078 308.58594 C 357.02737 309.06564 356.05803 309.76233 355.14648 310.67383 C 354.10708 311.71323 353.3564 312.75347 352.89258 313.79297 C 352.4289 314.83237 352.18786 315.85568 352.17188 316.86328 C 352.17192 317.85468 352.38108 318.79776 352.79688 319.69336 C 353.22863 320.60486 353.82064 321.4359 354.57227 322.1875 C 355.3079 322.9232 356.04366 323.46656 356.7793 323.81836 C 357.547 324.17006 358.09038 324.37936 358.41016 324.44336 L 357.88281 324.9707 C 356.73136 326.1221 355.596 326.66556 354.47656 326.60156 C 353.3731 326.55356 352.15741 325.86626 350.83008 324.53906 C 350.12642 323.83536 349.5176 323.0828 349.00586 322.2832 C 348.49415 321.5155 348.10201 320.82077 347.83008 320.19727 L 345.48047 321.73242 C 345.81637 322.42002 346.26454 323.17063 346.82422 323.98633 C 347.39954 324.81823 348.07978 325.62646 348.86328 326.41016 C 350.87838 328.42496 352.81301 329.497 354.66797 329.625 C 356.52304 329.753 358.40911 328.8566 360.32812 326.9375 L 371.45898 315.80664 C 371.05922 315.15084 370.54006 314.35914 369.90039 313.43164 C 369.29271 312.50404 368.46915 311.52192 367.42969 310.48242 C 366.48614 309.53892 365.47776 308.84967 364.40625 308.41797 C 363.35081 307.97017 362.27891 307.76292 361.19141 307.79492 z M 362.0625 310.84766 C 363.29566 310.88066 364.43684 311.42306 365.48633 312.47266 C 366.12601 313.11226 366.59809 313.64868 366.90234 314.08008 C 367.23816 314.51178 367.48421 314.87266 367.64453 315.16016 L 360.35352 322.45117 C 359.84185 322.38717 359.24985 322.19675 358.57812 321.87695 C 357.92284 321.54075 357.29873 321.07608 356.70703 320.48438 C 356.27523 320.05257 355.93168 319.54836 355.67578 318.97266 C 355.43595 318.41286 355.32384 317.80609 355.33984 317.15039 C 355.37184 316.51079 355.54743 315.83827 355.86719 315.13477 C 356.20303 314.44707 356.72958 313.74509 357.44922 313.02539 C 358.74458 311.72999 360.10407 311.00903 361.52734 310.86523 C 361.70726 310.84923 361.88633 310.84266 362.0625 310.84766 z M 375.32422 319.625 L 363.21094 331.73828 L 365.44141 333.96875 L 375.97266 323.4375 C 376.06816 323.5015 376.21943 323.6064 376.42773 323.75 C 376.65203 323.9095 376.88357 324.09443 377.12305 324.30273 C 377.39531 324.51023 377.66799 324.73246 377.93945 324.97266 C 378.20732 325.21656 378.46713 325.45346 378.70703 325.69336 C 379.29872 326.28506 379.71333 326.86012 379.95312 327.41992 C 380.20902 327.96362 380.28926 328.52391 380.19336 329.09961 C 380.09736 329.67531 379.82677 330.28215 379.37891 330.92188 C 378.94713 331.57758 378.34769 332.28904 377.58008 333.05664 L 371.05469 339.58203 L 373.28516 341.8125 L 380.28906 334.80859 C 381.13667 333.96089 381.83328 333.10569 382.37695 332.24219 C 382.92071 331.37859 383.24004 330.49892 383.33594 329.60352 C 383.4639 328.70792 383.33699 327.79654 382.95312 326.86914 C 382.58535 325.92564 381.90555 324.9583 380.91406 323.9668 C 379.8106 322.8633 378.76302 321.95946 377.77148 321.25586 C 376.77997 320.55216 375.96393 320.0088 375.32422 319.625 z M 399.28125 334.56055 L 382.65625 351.18555 L 392.66016 361.1875 L 394.67578 359.17383 L 386.99805 351.49609 L 401.60742 336.88867 L 399.28125 334.56055 z M 406.61719 353.17188 C 405.52973 353.23586 404.43353 353.53079 403.33008 354.05859 C 402.2427 354.57019 401.21192 355.31356 400.23633 356.28906 C 399.24491 357.28056 398.49226 358.3208 397.98047 359.4082 C 397.46881 360.4956 397.18109 361.58252 397.11719 362.66992 C 397.06919 363.77342 397.24477 364.84527 397.64453 365.88477 C 398.06036 366.90817 398.69344 367.84381 399.54102 368.69141 C 400.38859 369.53901 401.3242 370.17004 402.34766 370.58594 C 403.38717 370.98574 404.44964 371.15384 405.53711 371.08984 C 406.64055 371.04184 407.73684 370.7617 408.82422 370.25 C 409.91171 369.7383 410.94998 368.98749 411.94141 367.99609 C 412.917 367.02039 413.66215 365.98964 414.17383 364.90234 C 414.70155 363.79884 414.98911 362.6952 415.03711 361.5918 C 415.10111 360.5043 414.9256 359.44928 414.50977 358.42578 C 414.11 357.38628 413.48624 356.44135 412.63867 355.59375 C 411.79109 354.74625 410.84616 354.12236 409.80664 353.72266 C 408.78319 353.30676 407.72064 353.12385 406.61719 353.17188 z M 407.375 356.17578 C 408.62042 356.14778 409.71839 356.60915 410.66992 357.56055 C 411.75738 358.64805 412.1982 359.9197 411.99023 361.375 C 411.8143 362.8303 411.02259 364.26252 409.61523 365.66992 C 408.20796 367.07722 406.76817 367.87636 405.29688 368.06836 C 403.85757 368.26036 402.59526 367.81211 401.50781 366.72461 C 400.42035 365.63711 399.96472 364.36536 400.14062 362.91016 C 400.34861 361.45486 401.15525 360.02449 402.5625 358.61719 C 403.96988 357.20979 405.39275 356.41075 406.83203 356.21875 C 407.01595 356.19475 407.19708 356.17978 407.375 356.17578 z M 419.45508 363.03516 C 417.74401 365.99366 416.2313 368.95909 414.91992 371.93359 C 413.62463 374.92409 412.52295 377.65977 411.61133 380.13867 L 413.625 382.15234 C 416.10382 381.24074 418.83024 380.12966 421.80469 378.81836 C 424.79523 377.52306 427.77005 376.01979 430.72852 374.30859 L 428.42578 372.00586 C 427.45029 372.59746 426.37839 373.20638 425.21094 373.83008 C 424.07553 374.45368 422.91589 375.05311 421.73242 375.62891 C 420.58097 376.20461 419.4456 376.74797 418.32617 377.25977 C 417.20672 377.77147 416.19287 378.21033 415.28125 378.57812 C 415.64914 377.66652 416.08786 376.6526 416.59961 375.5332 C 417.11134 374.4136 417.64731 373.26886 418.20703 372.10156 C 418.79881 370.93406 419.39819 369.77445 420.00586 368.62305 C 420.64558 367.47155 421.26186 366.40919 421.85352 365.43359 L 419.45508 363.03516 z M 432.43945 378.6582 C 431.36802 378.6742 430.25503 378.93752 429.10352 379.44922 C 427.96807 379.94502 426.84953 380.74416 425.74609 381.84766 C 424.80264 382.79106 424.05194 383.78277 423.49219 384.82227 C 422.96449 385.86177 422.66742 386.92627 422.60352 388.01367 C 422.53952 389.10117 422.7319 390.20482 423.17969 391.32422 C 423.65952 392.44352 424.44183 393.54531 425.5293 394.63281 C 426.39287 395.49641 427.24071 396.18547 428.07227 396.69727 C 428.91993 397.22487 429.55295 397.55169 429.96875 397.67969 L 431.52734 395.49805 C 431.12761 395.35395 430.58414 395.08144 429.89648 394.68164 C 429.2404 394.28214 428.51994 393.68985 427.73633 392.90625 C 426.34503 391.51495 425.65783 390.15553 425.67383 388.82812 C 425.68983 387.50082 426.29865 386.1413 427.49805 384.75 L 436.03711 393.29102 C 436.18068 393.17872 436.32482 393.05015 436.46875 392.90625 C 436.62874 392.74635 436.75762 392.61944 436.85352 392.52344 C 438.99648 390.38034 440.13934 388.34115 440.2832 386.40625 C 440.44312 384.45525 439.68306 382.64024 438.00391 380.96094 C 437.28426 380.24134 436.44394 379.67361 435.48438 379.25781 C 434.52492 378.84191 433.511 378.6422 432.43945 378.6582 z M 432.6543 381.56055 C 433.24605 381.51255 433.83054 381.58349 434.40625 381.77539 C 435.01354 381.96769 435.57223 382.32023 436.08398 382.83203 C 436.99553 383.74353 437.38029 384.78182 437.23633 385.94922 C 437.12441 387.11662 436.55665 388.1959 435.5332 389.1875 L 429.34375 383 C 429.8235 382.6163 430.34466 382.28746 430.9043 382.01562 C 431.48005 381.75964 432.06267 381.60855 432.6543 381.56055 z "
       transform="translate(80.905281,208.97865)"
       id="path4710" />
  </g>
</svg>
