<?xml version="1.0" encoding="UTF-8" standalone="no"?>
<!-- Created with Inkscape (http://www.inkscape.org/) -->

<svg
   xmlns:dc="http://purl.org/dc/elements/1.1/"
   xmlns:cc="http://creativecommons.org/ns#"
   xmlns:rdf="http://www.w3.org/1999/02/22-rdf-syntax-ns#"
   xmlns:svg="http://www.w3.org/2000/svg"
   xmlns="http://www.w3.org/2000/svg"
   xmlns:sodipodi="http://sodipodi.sourceforge.net/DTD/sodipodi-0.dtd"
   xmlns:inkscape="http://www.inkscape.org/namespaces/inkscape"
   width="1280"
   height="1280"
   id="svg3802"
   version="1.1"
   inkscape:version="0.48.4 r9939"
   sodipodi:docname="grendizer.svg"
   style="enable-background:new"
   inkscape:export-filename="/media/Disk/Dropbox/grendizer.png"
   inkscape:export-xdpi="90"
   inkscape:export-ydpi="90">
  <defs
     id="defs3804" />
  <sodipodi:namedview
     id="base"
     pagecolor="#ffffff"
     bordercolor="#666666"
     borderopacity="1.0"
     inkscape:pageopacity="0.0"
     inkscape:pageshadow="2"
     inkscape:zoom="0.57320251"
     inkscape:cx="595.25638"
     inkscape:cy="710.17733"
     inkscape:document-units="px"
     inkscape:current-layer="layer2"
     showgrid="true"
     inkscape:showpageshadow="false"
     inkscape:window-width="1920"
     inkscape:window-height="1058"
     inkscape:window-x="0"
     inkscape:window-y="0"
     inkscape:window-maximized="1"
     inkscape:object-paths="true"
     inkscape:snap-intersection-paths="true"
     inkscape:object-nodes="true"
     inkscape:snap-smooth-nodes="true"
     inkscape:snap-midpoints="true"
     inkscape:snap-object-midpoints="false"
     inkscape:snap-center="false"
     inkscape:snap-nodes="true"
     showguides="true"
     inkscape:guide-bbox="true"
     fit-margin-top="0"
     fit-margin-left="0"
     fit-margin-right="0"
     fit-margin-bottom="0">
    <inkscape:grid
       type="xygrid"
       id="grid3820"
       empspacing="8"
       visible="true"
       enabled="true"
       snapvisiblegridlinesonly="true"
       originx="-776px"
       originy="160px" />
  </sodipodi:namedview>
  <metadata
     id="metadata3807">
    <rdf:RDF>
      <cc:Work
         rdf:about="">
        <dc:format>image/svg+xml</dc:format>
        <dc:type
           rdf:resource="http://purl.org/dc/dcmitype/StillImage" />
        <dc:title />
      </cc:Work>
    </rdf:RDF>
  </metadata>
  <g
     inkscape:groupmode="layer"
     id="layer2"
     inkscape:label="Layer 1"
     style="display:inline"
     transform="translate(-776,608)">
    <g
       id="g3114"
       style="stroke:none">
      <path
         sodipodi:nodetypes="cccc"
         inkscape:connector-curvature="0"
         id="path4374"
         d="m 1168.0009,-112.00445 0,167.999997 c 0,0 -328,-17.84986 -328,-335.999997 104,144 328,168 328,168 z"
         style="fill:#ffb500;fill-opacity:1;stroke:none" />
      <path
         style="fill:#ffd42a;fill-opacity:1;stroke:none"
         d="m 1168,-88 0,24 c 0,0 -256.0009,-63.99555 -328,-216 95.9991,152.00445 328,192 328,192 z"
         id="path3108"
         inkscape:connector-curvature="0"
         sodipodi:nodetypes="cccc" />
    </g>
    <g
       id="g3110"
       style="stroke:none">
      <path
         style="fill:#ffc500;fill-opacity:1;stroke:none"
         d="m 1168.0009,-280.00445 0,168 c 0,0 -352,6.15014 -352,-312 104,144 352,144 352,144 z"
         id="path4372"
         inkscape:connector-curvature="0"
         sodipodi:nodetypes="cccc" />
      <path
         sodipodi:nodetypes="cccc"
         inkscape:connector-curvature="0"
         id="path3106"
         d="m 1168,-256 0,24 c 0,0 -280,-40 -351.9991,-192.00445 C 912,-272 1168,-256 1168,-256 z"
         style="fill:#ffdd55;fill-opacity:1;stroke:none" />
    </g>
    <g
       id="g3920"
       transform="matrix(-1,0,0,1,2832,0)">
      <g
         id="g3922">
        <path
           style="fill:#1a1a1a;fill-opacity:1;stroke:none"
           d="m 1672,-112 -8,0 0,-120 -8,-8 -16,-48 32,0 c 0,0 16,0 16,88 0,88 -16,88 -16,88 z"
           id="path3924"
           inkscape:connector-curvature="0"
           sodipodi:nodetypes="ccccccsc" />
        <path
           transform="translate(776,-608)"
           id="path3926"
           d="m 905.40625,336 -36.0625,0 5.3125,16 34,0 c -0.9867,-6.61094 -2.07136,-11.88236 -3.25,-16 z"
           style="fill:#333333;fill-opacity:1;stroke:none"
           inkscape:connector-curvature="0" />
      </g>
      <g
         id="g3928">
        <path
           inkscape:connector-curvature="0"
           id="path3930"
           d="m 1672,-112 -8,0 0,104 -8,16 -8,56 24,-3e-6 c 0,0 16,0 16,-88 C 1688,-112 1672,-112 1672,-112 z"
           style="fill:#000000;fill-opacity:1;stroke:none"
           sodipodi:nodetypes="ccccccsc" />
        <path
           transform="translate(776,-608)"
           id="path3932"
           d="m 902.625,504 -14.625,0 0,16 19.34375,0 c -1.49414,-7.47193 -3.10955,-12.50556 -4.71875,-16 z"
           style="fill:#1a1a1a;fill-opacity:1;stroke:none"
           inkscape:connector-curvature="0" />
      </g>
    </g>
    <g
       id="g3138"
       transform="matrix(-1,0,0,1,2832.0009,0.00445)">
      <path
         style="fill:#ffb500;fill-opacity:1;stroke:none"
         d="m 1168.0009,-112.00445 0,167.999997 c 0,0 -328,-17.84986 -328,-335.999997 104,144 328,168 328,168 z"
         id="path3140"
         inkscape:connector-curvature="0"
         sodipodi:nodetypes="cccc" />
      <path
         sodipodi:nodetypes="cccc"
         inkscape:connector-curvature="0"
         id="path3142"
         d="m 1168,-88 0,24 c 0,0 -256.0009,-63.99555 -328,-216 95.9991,152.00445 328,192 328,192 z"
         style="fill:#ffd42a;fill-opacity:1;stroke:none" />
    </g>
    <g
       id="g3132"
       transform="matrix(-1,0,0,1,2832.0009,0.00445)">
      <path
         sodipodi:nodetypes="cccc"
         inkscape:connector-curvature="0"
         id="path3134"
         d="m 1168.0009,-280.00445 0,168 c 0,0 -352,6.15014 -352,-312 104,144 352,144 352,144 z"
         style="fill:#ffc500;fill-opacity:1;stroke:none" />
      <path
         style="fill:#ffdd55;fill-opacity:1;stroke:none"
         d="m 1168,-256 0,24 c 0,0 -280,-40 -351.9991,-192.00445 C 912,-272 1168,-256 1168,-256 z"
         id="path3136"
         inkscape:connector-curvature="0"
         sodipodi:nodetypes="cccc" />
    </g>
    <g
       id="g3909">
      <g
         id="g3901">
        <path
           sodipodi:nodetypes="ccccccsc"
           inkscape:connector-curvature="0"
           id="path4251"
           d="m 1672,-112 -8,0 0,-120 -8,-8 -16,-48 32,0 c 0,0 16,0 16,88 0,88 -16,88 -16,88 z"
           style="fill:#1a1a1a;fill-opacity:1;stroke:none" />
        <path
           style="fill:#333333;fill-opacity:1;stroke:none"
           d="M 905.40625 336 L 869.34375 336 L 874.65625 352 L 908.65625 352 C 907.66955 345.38906 906.58489 340.11764 905.40625 336 z "
           id="path3890"
           transform="translate(776,-608)" />
      </g>
      <g
         id="g3905">
        <path
           sodipodi:nodetypes="ccccccsc"
           style="fill:#000000;fill-opacity:1;stroke:none"
           d="m 1672,-112 -8,0 0,104 -8,16 -8,56 24,-3e-6 c 0,0 16,0 16,-88 C 1688,-112 1672,-112 1672,-112 z"
           id="path4249"
           inkscape:connector-curvature="0" />
        <path
           style="fill:#1a1a1a;fill-opacity:1;stroke:none"
           d="M 902.625 504 L 888 504 L 888 520 L 907.34375 520 C 905.84961 512.52807 904.2342 507.49444 902.625 504 z "
           id="path3895"
           transform="translate(776,-608)" />
      </g>
    </g>
    <g
       id="g3079">
      <path
         sodipodi:nodetypes="ccccccccccccccccc"
         inkscape:connector-curvature="0"
         id="path3928"
         d="M 1192.0009,-8.0044525 1168,-16 l 0,8 8.0009,15.9955475 c 0,0 0.3145,160.2257225 -80,264.0000025 0,0 0,8 8,16 0,0 48,48 312,64 264,-16 312,-64 312,-64 8,-8 8,-16 8,-16 -80.3145,-103.77428 -80,-264.0000025 -80,-264.0000025 L 1664,-8 l 0,-8 -23.9991,7.99554 L 1536,144 1416.0009,143.99555 1296,144 z"
         style="fill:#b3b3b3;stroke:none" />
      <path
         inkscape:connector-curvature="0"
         id="path3929"
         d="m 1705.2188,301.21875 c -3.5867,-7.37843 -7.4115,-15.72847 -11.375,-24.71875 -3.9636,-8.99028 -8.0517,-18.62192 -12.1563,-28.5 -8.2092,-19.75617 -16.4847,-40.56812 -23.8437,-59.53125 C 1650.4847,169.50562 1644.0289,152.37774 1639.4063,140 1634.7836,127.62226 1632,120 1632,120 l -80,48 -272,0 -80,-48 c 0,0 -2.7836,7.62226 -7.4062,20 -4.6226,12.37774 -11.0785,29.50562 -18.4375,48.46875 -7.3591,18.96313 -15.6346,39.77508 -23.8438,59.53125 -4.1046,9.87808 -8.1927,19.50972 -12.1562,28.5 -3.9636,8.99028 -7.7884,17.34032 -11.375,24.71875 33.9332,15.41654 113.6859,40.1429 289.2187,50.78125 175.5171,-10.6374 255.2803,-35.36441 289.2188,-50.78125 z"
         style="fill:#4d4d4d;stroke:none" />
    </g>
    <g
       id="g4124"
       style="stroke:none">
      <path
         sodipodi:nodetypes="ccccccccccccccc"
         inkscape:connector-curvature="0"
         id="path4162"
         d="m 1232.0009,135.99555 -72,272 16,8 24,56 136,48 80,-48 80,48 136,-48 24,-56 16,-8 -72,-272 -48,32 -136,0 -136,0 z"
         style="fill:#1a1a1a;stroke:none" />
      <path
         sodipodi:nodetypes="cccccc"
         inkscape:connector-curvature="0"
         id="path3950"
         d="m 1232,136 48,32 -80,312 -24,-56 -16,-16 z"
         style="fill:#999999;fill-opacity:1;stroke:none" />
      <path
         sodipodi:nodetypes="ccccc"
         inkscape:connector-curvature="0"
         id="path3960"
         d="m 1288,168 -80,312 128,40 c 0,-117.3333 0,-234.66667 0,-352 z"
         style="fill:#b3b3b3;fill-opacity:1;stroke:none" />
      <path
         inkscape:connector-curvature="0"
         id="path3962"
         d="m 1336,168 0,352 72,-40 0,-312 z"
         style="fill:#cccccc;fill-opacity:1;stroke:none" />
      <path
         style="fill:#999999;fill-opacity:1;stroke:none"
         d="m 1600,136 -48,32 80,312 24,-56 16,-16 z"
         id="path3968"
         inkscape:connector-curvature="0"
         sodipodi:nodetypes="cccccc" />
      <path
         style="fill:#b3b3b3;fill-opacity:1;stroke:none"
         d="m 1544,168 80,312 -128,40 c 0,-117.3333 0,-234.66667 0,-352 z"
         id="path3970"
         inkscape:connector-curvature="0"
         sodipodi:nodetypes="ccccc" />
      <path
         style="fill:#cccccc;fill-opacity:1;stroke:none"
         d="m 1496,168 0,352 -72,-40 0,-312 z"
         id="path3972"
         inkscape:connector-curvature="0" />
    </g>
    <g
       style="stroke:none"
       id="g3931">
      <path
         inkscape:connector-curvature="0"
         id="path3935"
         d="m 1104.0009,287.99555 c 0,0 0.7344,0.75 2.5625,2.09375 1.8281,1.34375 4.75,3.28125 9.0625,5.65625 2.1562,1.1875 4.6621,2.48828 7.5625,3.875 1.0489,0.5015 2.4402,1.06967 3.5937,1.59375 28.6932,-59.02745 73.2188,-181.21875 73.2188,-181.21875 l -16,-24.000003 c 0,0 -8.3877,78.708513 -80,192.000003 z"
         style="fill:#999999;stroke:none" />
      <path
         inkscape:connector-curvature="0"
         style="fill:#999999;fill-opacity:1;stroke:none"
         d="m 1728.0009,287.99555 c 0,0 -0.7344,0.75 -2.5625,2.09375 -1.8281,1.34375 -4.75,3.28125 -9.0625,5.65625 -2.1562,1.1875 -4.6621,2.48828 -7.5625,3.875 -1.0489,0.5015 -2.4402,1.06967 -3.5937,1.59375 -28.6932,-59.02745 -73.2188,-181.21875 -73.2188,-181.21875 l 16,-24.000003 c 0,0 8.3877,78.708513 80,192.000003 z"
         id="path3946" />
      <path
         transform="translate(776,-608)"
         inkscape:connector-curvature="0"
         id="path3913"
         d="m 408,704 16,24 80,48 272,0 80,-48 16,-24 -96,64 -272,0 z"
         style="fill:#808080;fill-opacity:1;stroke:none" />
    </g>
    <path
       style="fill:#000047;fill-opacity:1;stroke:none"
       d="m 1296.0009,-184.00445 -80,16 0,16 64,55.999997 120,-39.999997 16,0 16,0 120,39.999997 64,-55.999997 0,-16 -80,-16 -8,0 -112,24 -112,-24 -8,0 z"
       id="path4140"
       inkscape:connector-curvature="0" />
    <path
       style="fill:#000047;fill-opacity:1;stroke:none"
       d="M 1176.0009,-96.004453 1176,-72 l 16.0009,47.995547 96,136.000003 L 1312,112 1184.0009,-88.004453 z"
       id="path4100"
       inkscape:connector-curvature="0"
       sodipodi:nodetypes="ccccccc" />
    <path
       style="fill:#000080;stroke:none"
       d="m 1400.0009,-136.00445 -120,39.999997 32,176 104,40.000003 104,-40.000003 32,-176 -120,-39.999997 -16,0 -16,0 z"
       id="path3881"
       inkscape:connector-curvature="0" />
    <path
       style="fill:#000080;stroke:none"
       d="m 1280.0009,-96.004453 -64,-55.999997 -32,63.999997 L 1312,112 l 9e-4,-32.004453 z"
       id="path3910"
       inkscape:connector-curvature="0"
       sodipodi:nodetypes="cccccc" />
    <path
       style="fill:#000047;fill-opacity:1;stroke:none"
       d="m 1216.0009,-168.00445 0,16 -32,63.999997 -8,-8 0,-143.999997 z"
       id="path3912"
       inkscape:connector-curvature="0" />
    <path
       inkscape:connector-curvature="0"
       id="path3916"
       d="m 1552.0009,-96.004453 64,-55.999997 32,63.999997 L 1520,112 l 9e-4,-32.004453 z"
       style="fill:#000080;fill-opacity:1;stroke:none"
       sodipodi:nodetypes="cccccc" />
    <path
       inkscape:connector-curvature="0"
       id="path3918"
       d="m 1616.0009,-168.00445 0,16 32,63.999997 8,-8 0,-143.999997 z"
       style="fill:#000047;fill-opacity:1;stroke:none" />
    <g
       id="g3097"
       style="stroke:none">
      <path
         inkscape:connector-curvature="0"
         id="path3914"
         d="m 1216.0009,-168.00445 80,-16 8,0 -64,-152 -32,-8 c 0,0 -32,72 -32,104 z"
         style="fill:#000080;stroke:none" />
      <path
         style="fill:#000080;fill-opacity:1;stroke:none"
         d="m 1616.0009,-168.00445 -80,-16 -8,0 64,-152 32,-8 c 0,0 32,72 32,104 z"
         id="path3920"
         inkscape:connector-curvature="0" />
    </g>
    <path
       sodipodi:nodetypes="ccccccc"
       inkscape:connector-curvature="0"
       id="path4102"
       d="M 1656.0009,-96.004453 1656,-72 l -15.9991,47.995547 -96,136.000003 L 1520,112 1648.0009,-88.004453 z"
       style="fill:#000047;fill-opacity:1;stroke:none" />
    <path
       style="fill:#0000bc;fill-opacity:1;stroke:none"
       d="m 1416.0009,-160.00445 -8,8 -8,87.999997 16,24 16,-24 -8,-87.999997 z"
       id="path3870"
       inkscape:connector-curvature="0"
       sodipodi:nodetypes="ccccccc" />
    <path
       style="fill:#00009e;fill-opacity:1;stroke:none"
       d="m 1416.0009,-40.004453 -56,-8 48,-103.999997 -8,87.999997 z"
       id="path3875"
       inkscape:connector-curvature="0"
       sodipodi:nodetypes="ccccc" />
    <path
       inkscape:connector-curvature="0"
       id="path3877"
       d="m 1416.0009,-40.004453 56,-8 -48,-103.999997 8,87.999997 z"
       style="fill:#00009e;fill-opacity:1;stroke:none"
       sodipodi:nodetypes="ccccc" />
    <path
       style="fill:#1a1a1a;stroke:none"
       d="m 1528.0009,-184.00445 8,0 80,16 0,8 -64,56 -120,-32 z"
       id="path4145"
       inkscape:connector-curvature="0" />
    <path
       inkscape:connector-curvature="0"
       id="path4147"
       d="m 1304.0009,-184.00445 -8,0 -80,16 0,8 64,56 120,-32 z"
       style="fill:#1a1a1a;stroke:none" />
    <g
       id="g3892"
       style="stroke:none">
      <path
         inkscape:connector-curvature="0"
         id="path3063"
         d="m 1384.0009,-136.00445 -88,-40 -72,16 56,48 z"
         style="fill:#ffcc00;stroke:none" />
      <path
         style="fill:#ffcc00;stroke:none"
         d="m 1448.0009,-136.00445 88,-40 72,16 -56,48 z"
         id="path3899"
         inkscape:connector-curvature="0" />
    </g>
    <g
       id="g3055"
       style="stroke:none">
      <path
         sodipodi:nodetypes="scccccccs"
         inkscape:connector-curvature="0"
         style="fill:#999999;stroke:none"
         d="m 1416.0009,-400.00444 c -64,0 -144,24.72727 -144,24.72727 l 0,8.24242 32,183.0303 112,64 112,-64 32,-183.0303 0,-8.24242 c 0,0 -80,-24.72727 -144,-24.72727 z"
         id="path3891" />
      <path
         inkscape:connector-curvature="0"
         id="path3067"
         d="m 1416.0009,-400.00445 c -64,0 -144,24 -144,24 l 0,8 40,176 104,56 104,-56 40,-176 0,-8 c 0,0 -80,-24 -144,-24 z"
         style="fill:#cccccc;stroke:none"
         sodipodi:nodetypes="scccccccs" />
    </g>
    <path
       style="fill:#aa0000;stroke:none"
       d="m 1393.8134,-424.87945 c -24.3069,0.11279 -60.5625,3.875 -65.8125,24.875 0,0 24,160 40,176 0,0 8,16 48,24 40,-8 48,-24 48,-24 16,-16 40,-176 40,-176 -8,-32 -88,-24 -88,-24 0,0 -9.4553,-0.93408 -22.1875,-0.875 z"
       id="path3058"
       inkscape:connector-curvature="0" />
    <path
       id="path3889"
       d="m 1393.8134,-424.88093 c -24.3069,0.10075 -60.5625,6.11759 -65.8125,24.87648 0,0 24,140.26877 40,154.56127 0,0 8,14.29248 48,21.43873 40,-7.14624 48,-21.43873 48,-21.43873 16,-14.2925 40,-154.56127 40,-154.56127 -8,-28.58498 -88,-24.09486 -88,-24.09486 0,0 -9.4553,-0.8344 -22.1875,-0.78162 z"
       style="fill:#ff0000;stroke:none"
       inkscape:connector-curvature="0"
       sodipodi:nodetypes="sccccccs" />
    <g
       id="g3043"
       style="stroke:none">
      <path
         inkscape:connector-curvature="0"
         id="path3049"
         d="m 1416.0009,-480.00445 -32,56 c 0,0 8,16 32,16 24,0 32,-16 32,-16 l -32,-56 z"
         style="fill:#cccccc;stroke:none" />
      <path
         id="path4006"
         d="m 1416.0009,-480.00445 -27.4375,61.75 c 0.744,0.73727 1.4809,1.48472 2.4375,2.25 1.25,1 2.6719,2 4.3125,2.9375 0.1573,0.0899 0.3702,0.16133 0.5313,0.25 l 20.1562,-67.1875 z"
         style="fill:#ffffff;stroke:none"
         inkscape:connector-curvature="0" />
    </g>
    <g
       id="g3047"
       style="stroke:none">
      <path
         id="path3905"
         d="m 1416.0009,-368.00445 c -16,8 -32,32 -32,32 0,0 0,32 32,32 32,0 32,-32 32,-32 0,0 -16,-24 -32,-32 z"
         style="fill:#cccccc;stroke:none"
         inkscape:connector-curvature="0" />
      <path
         id="path3999"
         d="m 1416.0009,-368.00445 c 0,0 -18.7743,18.85282 -31.1562,38.46875 0.2331,1.16483 0.4425,2.31887 0.8437,3.65625 0.5625,1.875 1.3125,3.875 2.3125,5.875 4,-14 12,-32 28,-48 z"
         style="fill:#ffffff;stroke:none"
         inkscape:connector-curvature="0" />
    </g>
    <path
       inkscape:connector-curvature="0"
       id="path4187"
       d="m 1176,-240 -8,8 0,216 24,8 104,152 240,0 104,-152 24,-8 0,-216 -8,-8 0,144 0,24 -16,48 -96,136 -24,0 0,-32 -104,40 -104,-40 0,32 -24,0 -96,-136 -16,-48 0,-24 0,-144 z"
       style="fill:#cccccc;stroke:none" />
    <g
       id="g3070"
       style="stroke:none">
      <path
         inkscape:connector-curvature="0"
         id="path3095"
         d="m 1272.0009,-376.00445 c 0,0 -24,-40 -40,-40 -16,0 56,152 72,232 l -32,-184 z"
         style="fill:#e6e6e6;stroke:none" />
      <path
         inkscape:connector-curvature="0"
         id="path3077"
         d="m 1208.0009,-344.00445 c 0,0 8,-72 24,-72 16,0 72,232 72,232 -56,-128 -96,-160 -96,-160 z"
         style="fill:#cccccc;stroke:none" />
      <path
         transform="translate(776,-608)"
         id="path3068"
         d="M 456 192 C 441.6374 192 498.07735 314.34562 521.375 397.28125 C 520.2325 392.69601 520.44643 393.46996 519 387.75 C 516.25 376.875 513 364.1875 509.4375 350.59375 C 505.875 337 502 322.5 498 308 C 494 293.5 489.875 279 485.8125 265.40625 C 481.75 251.8125 477.75 239.125 474 228.25 C 472.125 222.8125 470.32031 217.82422 468.59375 213.40625 C 466.86719 208.98828 465.21875 205.14062 463.6875 201.96875 C 462.15625 198.79688 460.72656 196.29297 459.4375 194.59375 C 458.79297 193.74414 458.2002 193.09521 457.625 192.65625 C 457.0498 192.21729 456.5 192 456 192 z "
         style="fill:#ffffff;stroke:none" />
    </g>
    <g
       id="g3075"
       transform="matrix(-1,0,0,1,2832.0009,0.00445)"
       style="stroke:none">
      <path
         style="fill:#e6e6e6;stroke:none"
         d="m 1272.0009,-376.00445 c 0,0 -24,-40 -40,-40 -16,0 56,152 72,232 l -32,-184 z"
         id="path3078"
         inkscape:connector-curvature="0" />
      <path
         style="fill:#cccccc;stroke:none"
         d="m 1208.0009,-344.00445 c 0,0 8,-72 24,-72 16,0 72,232 72,232 -56,-128 -96,-160 -96,-160 z"
         id="path3080"
         inkscape:connector-curvature="0" />
      <path
         style="fill:#ffffff;stroke:none"
         d="m 456,192 c -14.3626,0 42.07735,122.34562 65.375,205.28125 -1.1425,-4.58524 -0.92857,-3.81129 -2.375,-9.53125 -2.75,-10.875 -6,-23.5625 -9.5625,-37.15625 C 505.875,337 502,322.5 498,308 494,293.5 489.875,279 485.8125,265.40625 481.75,251.8125 477.75,239.125 474,228.25 c -1.875,-5.4375 -3.67969,-10.42578 -5.40625,-14.84375 -1.72656,-4.41797 -3.375,-8.26563 -4.90625,-11.4375 -1.53125,-3.17187 -2.96094,-5.67578 -4.25,-7.375 -0.64453,-0.84961 -1.2373,-1.49854 -1.8125,-1.9375 C 457.0498,192.21729 456.5,192 456,192 z"
         id="path3082"
         transform="translate(776,-608)"
         inkscape:connector-curvature="0" />
    </g>
    <g
       id="g3918"
       style="stroke:none">
      <path
         inkscape:connector-curvature="0"
         id="path3865"
         d="M 1400.0009,-64.004453 1384,-56 1368,-64 1312.0009,-32.004453 1296,112 l 16,0 104.0009,7.99555 L 1520,112 1536,112 1520.0009,-32.004453 1464,-64 l -16,8 -15.9991,-8.004453 -16,0 z"
         style="fill:#005ed1;fill-opacity:1;stroke:none"
         sodipodi:nodetypes="ccccccccccccccc" />
      <path
         sodipodi:nodetypes="ccccccccc"
         inkscape:connector-curvature="0"
         id="path3089"
         d="m 1416.0009,-56.004453 -96,32 L 1296,112 l 16,0 104,56 104,-56 16,0 -23.9991,-136.004453 z"
         style="fill:#008bd1;fill-opacity:1;stroke:none" />
      <path
         style="fill:#00aef9;fill-opacity:1;stroke:none"
         d="m 1416.0009,-56.004453 -96,32 L 1296,112 l 32,-128 88,-24 88,24 32,128 -23.9991,-136.004453 z"
         id="path3148"
         inkscape:connector-curvature="0"
         sodipodi:nodetypes="ccccccccc" />
    </g>
    <g
       id="g3076">
      <path
         sodipodi:nodetypes="cccccc"
         transform="translate(776,-608)"
         inkscape:connector-curvature="0"
         id="path3923"
         d="m 416,600 -24,-8 0,8 8,16 120,136 z"
         style="fill:#ffffff;stroke:none" />
      <path
         style="fill:#ffffff;stroke:none"
         d="m 1640,-8 24,-8 0,8 -8,16 -120,136 z"
         id="path3925"
         inkscape:connector-curvature="0"
         sodipodi:nodetypes="cccccc" />
    </g>
    <g
       id="g3095"
       style="stroke:none">
      <g
         id="g3889"
         style="stroke:none">
        <path
           inkscape:connector-curvature="0"
           id="path4098"
           d="m 1416.0009,7.9955475 -136,55.9999995 0,104.000003 136,80 136,-80 0,-104.000003 z"
           style="fill:#4d4d4d;stroke:none"
           sodipodi:nodetypes="ccccccc" />
      </g>
      <path
         inkscape:connector-curvature="0"
         id="path3084"
         d="m 1416.0009,7.9955475 -136,55.9999995 0,104.000003 136,64 136,-64 0,-104.000003 -136,-55.9999995 z"
         style="fill:#cccccc;stroke:none" />
      <path
         transform="translate(776,-608)"
         id="path3090"
         d="M 640,616 504,672 640,632 776,672 640,616 z"
         style="fill:#ffffff;stroke:none"
         inkscape:connector-curvature="0" />
    </g>
    <path
       style="fill:#e6e6e6;stroke:none;stroke-width:1px;stroke-linecap:butt;stroke-linejoin:miter;stroke-opacity:1;fill-opacity:1"
       d="m 416,600 -24,-64 0,56 z"
       id="path3069"
       inkscape:connector-curvature="0"
       transform="translate(776,-608)" />
    <path
       inkscape:connector-curvature="0"
       id="path3071"
       d="m 1640,-8 24,-64 0,56 z"
       style="fill:#e6e6e6;fill-opacity:1;stroke:none" />
    <path
       style="fill:#0083f9;stroke:none;stroke-width:1px;stroke-linecap:butt;stroke-linejoin:miter;stroke-opacity:1;fill-opacity:1"
       d="m 544,584 -8,-8 56,-32 16,8 16,-8 32,0 16,8 16,-8 56,32 -8,8 -96,-32 z"
       id="path3083"
       inkscape:connector-curvature="0"
       transform="translate(776,-608)" />
  </g>
</svg>
