<?xml version="1.0" encoding="UTF-8" standalone="no"?>
<!-- Created with Inkscape (http://www.inkscape.org/) -->

<svg
   xmlns:dc="http://purl.org/dc/elements/1.1/"
   xmlns:cc="http://creativecommons.org/ns#"
   xmlns:rdf="http://www.w3.org/1999/02/22-rdf-syntax-ns#"
   xmlns:svg="http://www.w3.org/2000/svg"
   xmlns="http://www.w3.org/2000/svg"
   xmlns:xlink="http://www.w3.org/1999/xlink"
   xmlns:sodipodi="http://sodipodi.sourceforge.net/DTD/sodipodi-0.dtd"
   xmlns:inkscape="http://www.inkscape.org/namespaces/inkscape"
   width="8.5in"
   height="3.5009987in"
   viewBox="0 0 765.00001 315.08989"
   id="svg2"
   version="1.1"
   inkscape:version="0.91 r13725"
   sodipodi:docname="et-home-tree.svg">
  <defs
     id="defs4">
    <linearGradient
       inkscape:collect="always"
       id="linearGradient4359">
      <stop
         style="stop-color:#099c09;stop-opacity:1"
         offset="0"
         id="stop4361" />
      <stop
         style="stop-color:#066806;stop-opacity:1"
         offset="1"
         id="stop4363" />
    </linearGradient>
    <linearGradient
       inkscape:collect="always"
       id="linearGradient4351">
      <stop
         style="stop-color:#eab489;stop-opacity:1;"
         offset="0"
         id="stop4353" />
      <stop
         style="stop-color:#ac7952;stop-opacity:1"
         offset="1"
         id="stop4355" />
    </linearGradient>
    <linearGradient
       inkscape:collect="always"
       id="linearGradient4335">
      <stop
         style="stop-color:#a15941;stop-opacity:1;"
         offset="0"
         id="stop4337" />
      <stop
         style="stop-color:#774a3c;stop-opacity:1"
         offset="1"
         id="stop4339" />
    </linearGradient>
    <linearGradient
       inkscape:collect="always"
       id="linearGradient4293">
      <stop
         style="stop-color:#5fbcd3;stop-opacity:1;"
         offset="0"
         id="stop4295" />
      <stop
         style="stop-color:#5fbcd3;stop-opacity:0;"
         offset="1"
         id="stop4297" />
    </linearGradient>
    <linearGradient
       inkscape:collect="always"
       xlink:href="#linearGradient4293"
       id="linearGradient4299"
       x1="-9.9999997e-06"
       y1="197.36217"
       x2="765"
       y2="197.36217"
       gradientUnits="userSpaceOnUse"
       gradientTransform="matrix(1,0,0,1.1666667,0,-10.3937)" />
    <linearGradient
       inkscape:collect="always"
       xlink:href="#linearGradient4335"
       id="linearGradient4341"
       x1="28.125"
       y1="180.00002"
       x2="28.125"
       y2="270"
       gradientUnits="userSpaceOnUse"
       gradientTransform="translate(0,45.000015)" />
    <linearGradient
       inkscape:collect="always"
       xlink:href="#linearGradient4351"
       id="linearGradient4357"
       x1="551.25"
       y1="213.75002"
       x2="551.25"
       y2="270"
       gradientUnits="userSpaceOnUse"
       gradientTransform="translate(50.624996,107.36216)" />
    <linearGradient
       inkscape:collect="always"
       xlink:href="#linearGradient4359"
       id="linearGradient4373"
       x1="247.5"
       y1="202.50002"
       x2="208.125"
       y2="270"
       gradientUnits="userSpaceOnUse"
       gradientTransform="translate(0,107.36216)" />
    <linearGradient
       inkscape:collect="always"
       xlink:href="#linearGradient4359"
       id="linearGradient4602"
       x1="664.0033"
       y1="130.11548"
       x2="910.9967"
       y2="130.11548"
       gradientUnits="userSpaceOnUse"
       gradientTransform="translate(0,-62.362145)" />
  </defs>
  <sodipodi:namedview
     id="base"
     pagecolor="#ffffff"
     bordercolor="#666666"
     borderopacity="1.0"
     inkscape:pageopacity="0.0"
     inkscape:pageshadow="2"
     inkscape:zoom="1.8104575"
     inkscape:cx="382.5"
     inkscape:cy="157.54494"
     inkscape:document-units="in"
     inkscape:current-layer="layer1"
     showgrid="true"
     borderlayer="true"
     inkscape:showpageshadow="false"
     units="in"
     inkscape:snap-bbox="true"
     inkscape:bbox-paths="true"
     inkscape:bbox-nodes="true"
     inkscape:snap-bbox-edge-midpoints="true"
     inkscape:snap-bbox-midpoints="true"
     inkscape:object-paths="true"
     inkscape:snap-intersection-paths="true"
     inkscape:object-nodes="true"
     inkscape:snap-smooth-nodes="true"
     inkscape:snap-midpoints="true"
     inkscape:snap-object-midpoints="true"
     inkscape:snap-center="true"
     showguides="false"
     inkscape:guide-bbox="true"
     inkscape:window-width="1600"
     inkscape:window-height="864"
     inkscape:window-x="0"
     inkscape:window-y="0"
     inkscape:window-maximized="1"
     fit-margin-top="0"
     fit-margin-left="0"
     fit-margin-right="0"
     fit-margin-bottom="0">
    <inkscape:grid
       type="xygrid"
       id="grid4136"
       empspacing="0.5"
       units="in"
       enabled="true"
       spacingx="1.125"
       spacingy="1.125"
       originx="9.9999999e-06"
       originy="-674.91015" />
    <sodipodi:guide
       position="309.37501,45.089873"
       orientation="1,0"
       id="guide4423" />
    <sodipodi:guide
       position="-5.62499,236.33988"
       orientation="0,1"
       id="guide4669" />
    <sodipodi:guide
       position="16.87501,135.08988"
       orientation="0,1"
       id="guide4671" />
    <sodipodi:guide
       position="9.9999999e-06,315.08988"
       orientation="0,1"
       id="guide5324" />
    <sodipodi:guide
       position="495.00001,247.58988"
       orientation="1,0"
       id="guide5366" />
    <sodipodi:guide
       position="765.00001,0.089871368"
       orientation="0,1"
       id="guide4644" />
  </sodipodi:namedview>
  <metadata
     id="metadata7">
    <rdf:RDF>
      <cc:Work
         rdf:about="">
        <dc:format>image/svg+xml</dc:format>
        <dc:type
           rdf:resource="http://purl.org/dc/dcmitype/StillImage" />
        <dc:title />
      </cc:Work>
    </rdf:RDF>
  </metadata>
  <g
     inkscape:label="Layer 1"
     inkscape:groupmode="layer"
     id="layer1"
     transform="translate(9.9999997e-6,-62.362145)">
    <g
       id="g4380">
      <path
         inkscape:connector-curvature="0"
         id="rect4149"
         d="m -9.9999997e-6,62.362165 764.9999999999997,0 0,315.000005 -764.9999999999997,0 z"
         style="fill:url(#linearGradient4299);fill-opacity:1;stroke:none;stroke-width:0.44999999;stroke-linejoin:round;stroke-miterlimit:4;stroke-dasharray:none" />
      <path
         inkscape:connector-curvature="0"
         id="circle4604"
         transform="translate(0,62.362145)"
         d="M 678.58008,0 A 123.49668,123.49668 0 0 0 658.37891,67.5 123.49668,123.49668 0 0 0 765,189.69922 L 765,0 678.58008,0 Z"
         style="fill:#000000;fill-opacity:0.06666667;stroke:none;stroke-width:1.125;stroke-linecap:round;stroke-linejoin:round;stroke-miterlimit:4;stroke-dasharray:none;stroke-opacity:1" />
      <path
         inkscape:connector-curvature="0"
         id="path4586"
         transform="translate(0,62.362145)"
         d="M 684.36133,0 A 123.49668,123.49668 0 0 0 664.00391,67.753906 123.49668,123.49668 0 0 0 765,189.11328 L 765,0 684.36133,0 Z"
         style="fill:url(#linearGradient4602);fill-opacity:1;stroke:none;stroke-width:1.125;stroke-linecap:round;stroke-linejoin:round;stroke-miterlimit:4;stroke-dasharray:none;stroke-opacity:1" />
      <circle
         r="45"
         cy="129.86217"
         cx="495"
         id="path4584"
         style="fill:#ffe680;fill-opacity:1;stroke:none;stroke-width:1.125;stroke-linecap:round;stroke-linejoin:round;stroke-miterlimit:4;stroke-dasharray:none;stroke-opacity:1" />
      <circle
         r="1.6875025"
         cy="132.6972"
         cx="466.875"
         id="circle5314-2"
         style="fill:#4d4d4d;fill-opacity:1;stroke:none;stroke-width:0.44999999;stroke-linejoin:round;stroke-miterlimit:4;stroke-dasharray:none" />
      <path
         id="path5359"
         d="m 487.12499,158.57217 a 7.875,7.875 0 0 0 7.875,7.875 7.875,7.875 0 0 0 7.875,-7.875 l -15.75,0 z"
         style="fill:#4d4d4d;fill-opacity:1;stroke:#4d4d4d;stroke-width:1.16999996;stroke-linecap:round;stroke-linejoin:round;stroke-miterlimit:4;stroke-dasharray:none;stroke-opacity:1"
         inkscape:connector-curvature="0" />
      <circle
         transform="scale(-1,1)"
         style="fill:#4d4d4d;fill-opacity:1;stroke:none;stroke-width:0.44999999;stroke-linejoin:round;stroke-miterlimit:4;stroke-dasharray:none"
         id="circle5372"
         cx="-523.125"
         cy="132.6972"
         r="1.6875025" />
      <path
         id="path4754"
         transform="translate(0,62.362145)"
         d="M 0,196.875 0,315 l 28.125,0 28.125,0 28.125,0 28.125,0 28.125,0 28.125,0 28.125,0 28.125,0 28.125,0 28.125,0 28.125,0 28.125,0 28.125,0 28.125,0 28.125,0 28.125,0 28.125,0 28.125,0 28.125,0 28.125,0 28.125,0 28.125,0 28.125,0 28.125,0 28.125,0 28.125,0 28.125,0 5.625,0 0,-112.5 -5.625,-5.625 0,28.125 -28.125,-28.125 0,28.125 -28.125,-28.125 0,28.125 L 675,196.875 675,225 l -28.125,-28.125 0,28.125 -28.125,-28.125 0,28.125 -28.125,-28.125 0,28.125 -28.125,-28.125 0,28.125 -28.125,-28.125 0,28.125 -28.125,-28.125 0,28.125 -28.125,-28.125 0,28.125 L 450,196.875 450,225 l -28.125,-28.125 0,28.125 -28.125,-28.125 0,28.125 -28.125,-28.125 0,28.125 -28.125,-28.125 0,28.125 -28.125,-28.125 0,28.125 -28.125,-28.125 0,28.125 -28.125,-28.125 0,28.125 L 225,196.875 225,225 l -28.125,-28.125 0,28.125 -28.125,-28.125 0,28.125 -28.125,-28.125 0,28.125 L 112.5,196.875 112.5,225 84.375,196.875 84.375,225 56.25,196.875 56.25,225 28.125,196.875 28.125,225 0,196.875 Z"
         style="fill:url(#linearGradient4341);fill-opacity:1;fill-rule:evenodd;stroke:none;stroke-width:1px;stroke-linecap:butt;stroke-linejoin:miter;stroke-opacity:1"
         inkscape:connector-curvature="0" />
      <path
         inkscape:connector-curvature="0"
         id="ellipse5156"
         d="m 213.75,287.36216 a 22.499998,22.499996 0 0 0 -5.625,0.74414 l 0,88.52344 a 22.499998,22.499996 0 0 0 5.625,0.73242 22.499998,22.499996 0 0 0 8.4375,-1.65625 22.499998,22.499996 0 0 0 8.4375,1.65625 22.499998,22.499996 0 0 0 14.95117,-5.72266 22.499998,22.499996 0 0 0 1.92383,0.0977 22.499998,22.499996 0 0 0 22.5,-22.5 22.499998,22.499996 0 0 0 -11.46289,-19.59375 22.499998,22.499996 0 0 0 0.21289,-2.90625 22.499998,22.499996 0 0 0 -22.5,-22.5 22.499998,22.499996 0 0 0 -0.72656,0.0254 A 22.499998,22.499996 0 0 0 213.75,287.36216 Z"
         style="fill:url(#linearGradient4373);fill-opacity:1;stroke:none;stroke-width:0.44999999;stroke-linejoin:round;stroke-miterlimit:4;stroke-dasharray:none" />
      <path
         id="path4229"
         d="m 745.68359,273.67074 c -1.8633,31.25123 -11.07378,67.03464 -36.93359,98.06641 l 5.625,5.625 45,0 0,-90 -13.69141,-13.69141 z"
         style="fill:#000000;fill-opacity:0.06666667;fill-rule:evenodd;stroke:none;stroke-width:1px;stroke-linecap:butt;stroke-linejoin:miter;stroke-opacity:1"
         inkscape:connector-curvature="0" />
      <path
         sodipodi:nodetypes="ccsccccc"
         inkscape:connector-curvature="0"
         id="path5055"
         d="m 714.37499,135.48718 -5.62499,5.62498 c 0,0 28.41367,40.24096 33.75,56.24999 5.62499,16.87502 28.12499,106.87502 -28.12501,174.37501 l 5.625,5.625 45.00001,-1e-5 0,-193.5 z"
         style="fill:#6c5353;fill-rule:evenodd;stroke:none;stroke-width:1px;stroke-linecap:butt;stroke-linejoin:miter;stroke-opacity:1" />
      <path
         id="path5210"
         d="m 354.12109,287.36215 a 22.499998,22.499996 0 0 0 -22.5,22.5 22.499998,22.499996 0 0 0 8.53516,17.61133 A 39.121841,53.476845 0 0 0 315,377.36215 l 78.24219,0 a 39.121841,53.476845 0 0 0 -25.09571,-49.91015 22.499998,22.499996 0 0 0 8.47461,-17.58985 22.499998,22.499996 0 0 0 -22.5,-22.5 z"
         style="fill:#000000;fill-opacity:0.06666667;stroke:none;stroke-width:0.44999999;stroke-linejoin:round;stroke-miterlimit:4;stroke-dasharray:none"
         inkscape:connector-curvature="0" />
      <path
         inkscape:connector-curvature="0"
         style="fill:#000000;fill-opacity:0.06666667;stroke:none;stroke-width:0.44999999;stroke-linejoin:round;stroke-miterlimit:4;stroke-dasharray:none"
         d="m 421.62109,287.36217 a 22.499998,22.499996 0 0 0 -22.5,22.5 22.499998,22.499996 0 0 0 8.53516,17.61133 A 39.121841,53.476845 0 0 0 382.5,377.36217 l 78.24219,0 a 39.121841,53.476845 0 0 0 -25.09571,-49.91016 22.499998,22.499996 0 0 0 8.47461,-17.58984 22.499998,22.499996 0 0 0 -22.5,-22.5 z"
         id="path5220" />
      <path
         inkscape:connector-curvature="0"
         style="fill:#000000;fill-opacity:0.06666667;stroke:none;stroke-width:0.44999999;stroke-linejoin:round;stroke-miterlimit:4;stroke-dasharray:none"
         d="m 489.12108,287.36217 a 22.499998,22.499996 0 0 0 -22.5,22.5 22.499998,22.499996 0 0 0 8.53516,17.61133 39.121841,53.476845 0 0 0 -25.15625,49.88867 l 78.24219,0 a 39.121841,53.476845 0 0 0 -25.09571,-49.91016 22.499998,22.499996 0 0 0 8.47461,-17.58984 22.499998,22.499996 0 0 0 -22.5,-22.5 z"
         id="path5234" />
      <path
         inkscape:connector-curvature="0"
         id="path4419"
         d="m 360,323.88559 a 39.121841,53.476845 0 0 0 -39.12109,53.47656 l 78.24218,0 A 39.121841,53.476845 0 0 0 360,323.88559 Z"
         style="fill:#ffcc00;stroke:none;stroke-width:0.44999999;stroke-linejoin:round;stroke-miterlimit:4;stroke-dasharray:none" />
      <ellipse
         ry="22.499996"
         rx="22.499998"
         cy="309.86215"
         cx="360"
         id="path4421"
         style="fill:#997171;fill-opacity:1;stroke:none;stroke-width:0.44999999;stroke-linejoin:round;stroke-miterlimit:4;stroke-dasharray:none" />
      <path
         inkscape:connector-curvature="0"
         id="ellipse4446"
         d="m 427.20703,323.88559 a 39.121841,53.476845 0 0 0 -39.12109,53.47656 l 78.24414,0 a 39.121841,53.476845 0 0 0 -39.12305,-53.47656 z"
         style="fill:#aad400;stroke:none;stroke-width:0.44999999;stroke-linejoin:round;stroke-miterlimit:4;stroke-dasharray:none" />
      <ellipse
         style="fill:#cba4a4;fill-opacity:1;stroke:none;stroke-width:0.44999999;stroke-linejoin:round;stroke-miterlimit:4;stroke-dasharray:none"
         id="ellipse4448"
         cx="427.20749"
         cy="309.86215"
         rx="22.499998"
         ry="22.499996" />
      <path
         inkscape:connector-curvature="0"
         id="ellipse4468"
         d="M 494.74609,323.88559 A 39.121841,53.476845 0 0 0 455.625,377.36215 l 78.24414,0 a 39.121841,53.476845 0 0 0 -39.12305,-53.47656 z"
         style="fill:#37abc8;stroke:none;stroke-width:0.44999999;stroke-linejoin:round;stroke-miterlimit:4;stroke-dasharray:none" />
      <ellipse
         ry="22.499996"
         rx="22.499998"
         cy="309.86215"
         cx="494.74683"
         id="ellipse4470"
         style="fill:#ffe4e4;fill-opacity:1;stroke:none;stroke-width:0.44999999;stroke-linejoin:round;stroke-miterlimit:4;stroke-dasharray:none" />
      <path
         id="path5265"
         d="m 288.63281,102.23523 a 28.125,28.125 0 0 1 21.44141,9.93164 c 4.66066,-2.18828 9.80895,-3.37774 15.12109,-3.38086 16.21859,0.0207 30.37751,10.99028 34.44922,26.68945 0.5081,-0.0427 1.01751,-0.0681 1.52734,-0.0762 12.42641,0 22.5,10.07359 22.5,22.5 0,12.4264 -10.07359,22.5 -22.5,22.5 -5.94698,-0.004 -90.05421,0.0822 -94.45312,0.0879 -10.59824,4.8e-4 -19.18993,-8.59121 -19.18946,-19.18945 -4.1e-4,-9.41888 6.79072,-17.23672 15.74024,-18.86329 a 28.125,28.125 0 0 1 -2.76172,-12.07421 28.125,28.125 0 0 1 28.125,-28.125 z"
         style="fill:#000000;fill-opacity:0.06666667;stroke:none;stroke-width:0.44999999;stroke-linejoin:round;stroke-miterlimit:4;stroke-dasharray:none"
         inkscape:connector-curvature="0" />
      <path
         inkscape:connector-curvature="0"
         style="fill:#000000;fill-opacity:0.06666667;stroke:none;stroke-width:0.44999999;stroke-linejoin:round;stroke-miterlimit:4;stroke-dasharray:none"
         d="m 383.08593,119.19814 a 28.125,28.125 0 0 1 21.44141,9.93164 c 4.66066,-2.18828 9.80895,-3.37774 15.12109,-3.38086 16.21859,0.0207 30.37751,10.99028 34.44922,26.68945 0.5081,-0.0427 1.01751,-0.0681 1.52734,-0.0762 12.42641,0 22.5,10.07359 22.5,22.5 0,12.4264 -10.07359,22.5 -22.5,22.5 -5.94698,-0.004 -90.05421,0.0822 -94.45312,0.0879 -10.59824,4.8e-4 -19.18993,-8.59121 -19.18946,-19.18945 -4.1e-4,-9.41888 6.79072,-17.23672 15.74024,-18.86329 a 28.125,28.125 0 0 1 -2.76172,-12.07421 28.125,28.125 0 0 1 28.125,-28.125 z"
         id="path5043" />
      <path
         inkscape:connector-curvature="0"
         style="fill:#eeeeee;fill-opacity:1;stroke:none;stroke-width:0.44999999;stroke-linejoin:round;stroke-miterlimit:4;stroke-dasharray:none"
         d="m 294.25781,102.23523 a 28.125,28.125 0 0 1 21.44141,9.93164 c 4.66066,-2.18828 9.80895,-3.37774 15.12109,-3.38086 16.21859,0.0207 30.37751,10.99028 34.44922,26.68945 0.5081,-0.0427 1.01751,-0.0681 1.52734,-0.0762 12.42641,0 22.5,10.07359 22.5,22.5 0,12.4264 -10.07359,22.5 -22.5,22.5 -5.94698,-0.004 -90.05421,0.0822 -94.45312,0.0879 -10.59824,4.8e-4 -19.18993,-8.59121 -19.18946,-19.18945 -4.1e-4,-9.41888 6.79072,-17.23672 15.74024,-18.86329 a 28.125,28.125 0 0 1 -2.76172,-12.07421 28.125,28.125 0 0 1 28.125,-28.125 z"
         id="path5267" />
      <path
         id="path4368"
         d="m 388.71093,119.19814 a 28.125,28.125 0 0 1 21.44141,9.93164 c 4.66066,-2.18828 9.80895,-3.37774 15.12109,-3.38086 16.21859,0.0207 30.37751,10.99028 34.44922,26.68945 0.5081,-0.0427 1.01751,-0.0681 1.52734,-0.0762 12.42641,0 22.5,10.07359 22.5,22.5 0,12.4264 -10.07359,22.5 -22.5,22.5 -5.94698,-0.004 -90.05421,0.0822 -94.45312,0.0879 -10.59824,4.8e-4 -19.18993,-8.59121 -19.18946,-19.18945 -4.1e-4,-9.41888 6.79072,-17.23672 15.74024,-18.86329 a 28.125,28.125 0 0 1 -2.76172,-12.07421 28.125,28.125 0 0 1 28.125,-28.125 z"
         style="fill:#ffffff;fill-opacity:1;stroke:none;stroke-width:0.44999999;stroke-linejoin:round;stroke-miterlimit:4;stroke-dasharray:none"
         inkscape:connector-curvature="0" />
      <g
         id="g4366">
        <path
           style="fill:#37c8ab;fill-opacity:1;stroke:none;stroke-width:0.44999999;stroke-linejoin:round;stroke-miterlimit:4;stroke-dasharray:none"
           d="m 725.62499,135.48717 c 0,6.21321 -10.66179,5.62501 -16.87499,5.62501 -6.2132,0 -11.25,-5.0368 -11.25,-11.25 0,-6.2132 5.0368,-11.25 11.25,-11.25 6.2132,0 16.87499,10.66179 16.87499,16.87499 z"
           id="path5172"
           inkscape:connector-curvature="0"
           sodipodi:nodetypes="sssss" />
        <path
           style="fill:#ffff00;fill-rule:evenodd;stroke:none;stroke-width:1px;stroke-linecap:butt;stroke-linejoin:miter;stroke-opacity:1"
           d="m 697.49999,115.79968 -11.25,5.625 11.25,5.625 z"
           id="path5176"
           inkscape:connector-curvature="0" />
        <circle
           style="fill:#5fd3bc;fill-opacity:1;stroke:none;stroke-width:0.44999999;stroke-linejoin:round;stroke-miterlimit:4;stroke-dasharray:none"
           id="path5174"
           cx="700.3125"
           cy="121.42468"
           r="8.4375" />
        <circle
           r="1.6875025"
           cy="118.61218"
           cx="-696.375"
           id="circle5372-6"
           style="fill:#4d4d4d;fill-opacity:1;stroke:none;stroke-width:0.44999999;stroke-linejoin:round;stroke-miterlimit:4;stroke-dasharray:none"
           transform="scale(-1,1)" />
      </g>
      <path
         style="fill:#000000;fill-opacity:0.06666667;stroke:none;stroke-width:0.44999999;stroke-linejoin:round;stroke-miterlimit:4;stroke-dasharray:none"
         d="m 618.75,268.0809 0,19.28125 -13.80859,-13.80859 c 0.0923,0.44508 0.18429,0.89026 0.25586,1.34179 -0.27196,-0.007 -0.54273,-0.0195 -0.81641,-0.0195 -4.93952,0.006 -9.61482,1.1913 -13.75586,3.29102 l 0,9.19531 -5.5625,-5.5625 c -6.34669,5.20546 -10.57589,12.92567 -11.125,21.70898 -10.60642,6.61841 -17.05473,18.23436 -17.0625,30.73634 5e-5,10.14437 4.1719,19.31017 10.88672,25.89063 -0.0152,0.21461 -0.0263,0.42949 -0.0332,0.64453 1.2e-4,9.20757 7.4643,16.67175 16.67187,16.67187 12.66796,-2.33986 12.66796,-2.33986 28.125,0 9.20757,-1.2e-4 16.67176,-7.4643 16.67188,-16.67188 -0.004,-1.39113 -0.18284,-2.77625 -0.53125,-4.12304 15.89002,-14.01846 5.49895,-33.75 6.2539,-51.2422 2.9e-4,-11.39195 -6.2422,-21.31917 -15.48828,-26.56835 0.1817,-3.5079 -0.68164,-14.41065 -0.68164,-10.76563 z"
         id="path5465"
         inkscape:connector-curvature="0"
         sodipodi:nodetypes="ccccccccccccccccccsc" />
      <path
         sodipodi:nodetypes="cccccccccccccccccccccccccccc"
         inkscape:connector-curvature="0"
         id="path4546"
         d="m 579.96094,196.91294 c -10.43897,-6.3e-4 -18.9019,8.46141 -18.90235,18.90038 0.004,8.22693 5.32864,15.50651 13.16797,18.00195 -1.40941,2.17813 -2.16141,4.7162 -2.16601,7.31056 9.8e-4,6.39753 4.49195,11.91605 10.75586,13.2168 3.39641,5.74583 9.57149,9.27435 16.24609,9.2832 2.50047,-0.004 4.97534,-0.50367 7.28125,-1.4707 2.10581,3.62913 4.03682,8.01874 4.78516,12.74023 -0.27196,-0.007 -0.54273,-0.0195 -0.81641,-0.0195 -16.11228,0.0187 -29.43803,12.55192 -30.44336,28.63281 -10.60642,6.6184 -17.05473,18.23435 -17.0625,30.73633 5e-5,10.14437 4.1719,19.31017 10.88672,25.89063 -0.0152,0.21461 -0.0263,0.42949 -0.0332,0.64453 1.2e-4,9.20757 7.4643,16.67175 16.67187,16.67187 12.66796,-2.33986 12.66796,-2.33986 28.125,0 9.20757,-1.2e-4 16.67176,-7.4643 16.67188,-16.67188 -0.004,-1.39113 -0.18284,-2.77625 -0.53125,-4.12304 15.89002,-14.01846 5.49895,-33.75 6.2539,-51.2422 2.9e-4,-11.39195 -6.2422,-21.31917 -15.48828,-26.56835 0.29256,-5.64806 -0.63209,-11.68526 -2.01367,-17.24024 2.18019,0.51092 4.41116,0.77366 6.65039,0.7832 16.40334,-4e-4 29.70077,-13.29783 29.70117,-29.70117 -4e-4,-16.40334 -13.29783,-29.70077 -29.70117,-29.70117 -2.61104,0.003 -5.21026,0.35052 -7.73047,1.03321 -3.58643,-4.49158 -9.02177,-7.10718 -14.76953,-7.10742 -5.2166,0.009 -10.19764,2.17305 -13.76367,5.98046 -3.56882,-3.81038 -8.55472,-5.97496 -13.77539,-5.98046 z"
         style="fill:url(#linearGradient4357);fill-opacity:1;stroke:none;stroke-width:0.44999999;stroke-linejoin:round;stroke-miterlimit:4;stroke-dasharray:none" />
      <circle
         style="fill:#f9f9f9;stroke:none;stroke-width:0.44999999;stroke-linejoin:round;stroke-miterlimit:4;stroke-dasharray:none"
         id="circle4649"
         cx="579.96002"
         cy="215.81335"
         r="10.800692" />
      <circle
         r="10.800692"
         cy="215.81335"
         cx="607.5"
         id="circle4651"
         style="fill:#f9f9f9;stroke:none;stroke-width:0.44999999;stroke-linejoin:round;stroke-miterlimit:4;stroke-dasharray:none" />
      <circle
         r="5.625"
         cy="215.81335"
         cx="577.125"
         id="circle5278"
         style="fill:#55ddff;stroke:none;stroke-width:0.44999999;stroke-linejoin:round;stroke-miterlimit:4;stroke-dasharray:none" />
      <circle
         style="fill:#55ddff;stroke:none;stroke-width:0.44999999;stroke-linejoin:round;stroke-miterlimit:4;stroke-dasharray:none"
         id="circle5280"
         cx="604.66498"
         cy="215.81335"
         r="5.625" />
      <circle
         style="fill:#4d4d4d;fill-opacity:1;stroke:none;stroke-width:0.44999999;stroke-linejoin:round;stroke-miterlimit:4;stroke-dasharray:none"
         id="circle5312"
         cx="590.625"
         cy="235.61218"
         r="1.6875025" />
      <circle
         r="1.6875025"
         cy="235.61218"
         cx="585"
         id="circle5314"
         style="fill:#4d4d4d;fill-opacity:1;stroke:none;stroke-width:0.44999999;stroke-linejoin:round;stroke-miterlimit:4;stroke-dasharray:none" />
      <path
         sodipodi:nodetypes="cczc"
         inkscape:connector-curvature="0"
         id="path5400"
         d="m 596.24999,254.73717 -12.375,0 c 0,0 3.375,4.5 7.875,4.5 4.5,0 4.5,-4.5 4.5,-4.5 z"
         style="fill:#4d4d4d;fill-opacity:1;fill-rule:evenodd;stroke:#4d4d4d;stroke-width:0.99000001;stroke-linecap:round;stroke-linejoin:round;stroke-miterlimit:4;stroke-dasharray:none;stroke-opacity:1" />
      <path
         sodipodi:nodetypes="ccc"
         inkscape:connector-curvature="0"
         id="circle5411"
         d="m 589.2793,202.98715 c -2.70696,-1.9729 -5.96874,-3.03874 -9.31836,-3.04492 -3.34895,0.007 -6.60999,1.07241 -9.31641,3.04492"
         style="fill:none;stroke:#4d4d4d;stroke-width:1.125;stroke-linecap:round;stroke-linejoin:round;stroke-miterlimit:4;stroke-dasharray:none;stroke-opacity:1" />
      <path
         sodipodi:nodetypes="ccc"
         inkscape:connector-curvature="0"
         id="circle5413"
         d="m 616.81836,202.98715 c -2.70696,-1.9729 -5.96874,-3.03874 -9.31836,-3.04492 -3.34828,0.007 -6.60857,1.0728 -9.31445,3.04492"
         style="fill:none;stroke:#4d4d4d;stroke-width:1.125;stroke-linecap:round;stroke-linejoin:round;stroke-miterlimit:4;stroke-dasharray:none;stroke-opacity:1" />
      <path
         sodipodi:nodetypes="ccccc"
         inkscape:connector-curvature="0"
         id="rect4208-4-7"
         d="m 185.625,152.36218 0,73.12499 -45,0 0,-73.12499 z"
         style="fill:#e9b05d;fill-opacity:1;stroke:none;stroke-width:0.44999999;stroke-linejoin:round;stroke-miterlimit:4;stroke-dasharray:none" />
      <path
         sodipodi:nodetypes="ccccc"
         inkscape:connector-curvature="0"
         id="rect4184"
         d="m 28.124997,242.36217 3e-6,134.99998 180,0 0,-134.99998 z"
         style="fill:#e9b05d;fill-opacity:1;stroke:none;stroke-width:0.44999999;stroke-linejoin:round;stroke-miterlimit:4;stroke-dasharray:none" />
      <path
         inkscape:connector-curvature="0"
         id="path4225"
         d="m 0,242.36217 236.25,0 -118.125,-90 z"
         style="fill:#a368b1;fill-opacity:1;fill-rule:evenodd;stroke:none;stroke-width:0.44999999;stroke-linecap:butt;stroke-linejoin:miter;stroke-miterlimit:4;stroke-dasharray:none;stroke-opacity:1" />
      <path
         inkscape:connector-curvature="0"
         id="path4255-0-3-9"
         d="m 73.124999,309.86214 c 0,0 -22.5,0 -22.5,22.5 l 0,45.00003 45,0 0,-45.00003 c 0,0 0,-22.5 -22.5,-22.5 z"
         style="fill:#ffeeaa;fill-rule:evenodd;stroke:none;stroke-width:0.44999999;stroke-linecap:butt;stroke-linejoin:miter;stroke-miterlimit:4;stroke-dasharray:none;stroke-opacity:1" />
      <rect
         y="287.36218"
         x="140.625"
         height="45"
         width="45"
         id="rect4317-2"
         style="fill:#87deaa;stroke:none;stroke-width:0.44999999;stroke-linejoin:round;stroke-miterlimit:4;stroke-dasharray:none" />
      <rect
         y="332.36215"
         x="135"
         height="11.25"
         width="56.25"
         id="rect4334"
         style="fill:#2ca089;stroke:none;stroke-width:0.44999999;stroke-linejoin:round;stroke-miterlimit:4;stroke-dasharray:none" />
      <rect
         y="366.11215"
         x="45"
         height="11.25"
         width="56.25"
         id="rect4334-9"
         style="fill:#2ca089;stroke:none;stroke-width:0.44999999;stroke-linejoin:round;stroke-miterlimit:4;stroke-dasharray:none" />
      <rect
         y="253.61218"
         x="50.625"
         height="33.75"
         width="33.75"
         id="rect4673"
         style="fill:#87deaa;fill-opacity:1;stroke:none;stroke-width:0.44999999;stroke-linejoin:round;stroke-miterlimit:4;stroke-dasharray:none" />
      <rect
         y="141.11218"
         x="135"
         height="11.25"
         width="56.25"
         id="rect4680"
         style="fill:#2ca089;fill-opacity:1;stroke:none;stroke-width:0.44999999;stroke-linejoin:round;stroke-miterlimit:4;stroke-dasharray:none" />
      <rect
         y="343.61215"
         x="135"
         height="5.625"
         width="56.25"
         id="rect5431"
         style="fill:#000000;fill-opacity:0.06666667;stroke:none;stroke-width:1.125;stroke-linecap:round;stroke-linejoin:round;stroke-miterlimit:4;stroke-dasharray:none;stroke-opacity:1" />
      <rect
         y="287.36218"
         x="45"
         height="11.25"
         width="45"
         id="rect4334-1"
         style="fill:#2ca089;stroke:none;stroke-width:0.44999999;stroke-linejoin:round;stroke-miterlimit:4;stroke-dasharray:none" />
      <rect
         y="298.61218"
         x="45"
         height="5.625"
         width="45"
         id="rect5431-7"
         style="fill:#000000;fill-opacity:0.06666667;stroke:none;stroke-width:1.125;stroke-linecap:round;stroke-linejoin:round;stroke-miterlimit:4;stroke-dasharray:none;stroke-opacity:1" />
      <path
         style="fill:#000000;fill-opacity:0.06666667;stroke:none;stroke-width:1.125;stroke-linecap:round;stroke-linejoin:round;stroke-miterlimit:4;stroke-dasharray:none;stroke-opacity:1"
         d="m 28.125,242.36218 180,0 -180,134.99997 z"
         id="rect5429"
         inkscape:connector-curvature="0"
         sodipodi:nodetypes="cccc" />
      <circle
         style="fill:#4d4d4d;fill-opacity:1;stroke:none;stroke-width:0.44999999;stroke-linejoin:round;stroke-miterlimit:4;stroke-dasharray:none"
         id="circle5314-2-4"
         cx="354.375"
         cy="304.23715"
         r="1.6875025" />
      <path
         style="fill:#4d4d4d;fill-opacity:1;stroke:#4d4d4d;stroke-width:1.16999996;stroke-linecap:round;stroke-linejoin:round;stroke-miterlimit:4;stroke-dasharray:none;stroke-opacity:1"
         d="m 357.75,315.48717 a 7.875,7.875 0 0 0 7.875,7.875 7.875,7.875 0 0 0 7.875,-7.875 l -15.75,0 z"
         id="path5359-7"
         inkscape:connector-curvature="0" />
      <circle
         r="1.6875025"
         cy="304.23715"
         cx="-376.875"
         id="circle5372-1"
         style="fill:#4d4d4d;fill-opacity:1;stroke:none;stroke-width:0.44999999;stroke-linejoin:round;stroke-miterlimit:4;stroke-dasharray:none"
         transform="scale(-1,1)" />
      <circle
         r="1.6875025"
         cy="304.23715"
         cx="421.875"
         id="circle4419"
         style="fill:#4d4d4d;fill-opacity:1;stroke:none;stroke-width:0.44999999;stroke-linejoin:round;stroke-miterlimit:4;stroke-dasharray:none" />
      <path
         inkscape:connector-curvature="0"
         id="path4422"
         d="m 425.24999,315.48717 a 7.875,7.875 0 0 0 7.875,7.875 7.875,7.875 0 0 0 7.875,-7.875 l -15.75,0 z"
         style="fill:#4d4d4d;fill-opacity:1;stroke:#4d4d4d;stroke-width:1.16999996;stroke-linecap:round;stroke-linejoin:round;stroke-miterlimit:4;stroke-dasharray:none;stroke-opacity:1" />
      <circle
         transform="scale(-1,1)"
         style="fill:#4d4d4d;fill-opacity:1;stroke:none;stroke-width:0.44999999;stroke-linejoin:round;stroke-miterlimit:4;stroke-dasharray:none"
         id="circle4424"
         cx="-444.375"
         cy="304.23715"
         r="1.6875025" />
      <circle
         style="fill:#4d4d4d;fill-opacity:1;stroke:none;stroke-width:0.44999999;stroke-linejoin:round;stroke-miterlimit:4;stroke-dasharray:none"
         id="circle4428"
         cx="489.375"
         cy="304.23715"
         r="1.6875025" />
      <path
         style="fill:#4d4d4d;fill-opacity:1;stroke:#4d4d4d;stroke-width:1.16999996;stroke-linecap:round;stroke-linejoin:round;stroke-miterlimit:4;stroke-dasharray:none;stroke-opacity:1"
         d="m 492.74999,315.48717 a 7.875,7.875 0 0 0 7.875,7.875 7.875,7.875 0 0 0 7.875,-7.875 l -15.75,0 z"
         id="path4430"
         inkscape:connector-curvature="0" />
      <circle
         r="1.6875025"
         cy="304.23715"
         cx="-511.875"
         id="circle4432"
         style="fill:#4d4d4d;fill-opacity:1;stroke:none;stroke-width:0.44999999;stroke-linejoin:round;stroke-miterlimit:4;stroke-dasharray:none"
         transform="scale(-1,1)" />
    </g>
  </g>
</svg>
